<?xml version="1.0" encoding="UTF-8" standalone="no"?>
<!DOCTYPE svg PUBLIC "-//W3C//DTD SVG 1.1//EN"
 "http://www.w3.org/Graphics/SVG/1.1/DTD/svg11.dtd">
<!-- Generated by graphviz version 12.1.2 (20240928.0832)
 -->
<!-- Title: CodeSmile.Statemachine.Services.Authentication.Actions.SignInAnonymously Pages: 1 -->
<svg width="206pt" height="400pt"
 viewBox="0.00 0.00 206.00 400.00" xmlns="http://www.w3.org/2000/svg" xmlns:xlink="http://www.w3.org/1999/xlink">
<g id="graph0" class="graph" transform="scale(1 1) rotate(0) translate(4 396)">
<title>CodeSmile.Statemachine.Services.Authentication.Actions.SignInAnonymously</title>
<!-- Node1 -->
<g id="Node000001" class="node">
<title>Node1</title>
<g id="a_Node000001"><a xlink:title="Calls SignInAnonymouslyAsync.">
<polygon fill="#999999" stroke="none" points="198,-64 0,-64 0,0 198,0 198,-64"/>
<text text-anchor="start" x="4.88" y="-50.5" font-family="Helvetica,sans-Serif" font-size="10.00">CodeSmile.Statemachine.Services.</text>
<text text-anchor="start" x="4.88" y="-38.5" font-family="Helvetica,sans-Serif" font-size="10.00">Authentication.Actions.SignInAnonymously</text>
<text text-anchor="start" x="97.5" y="-22.5" font-family="Helvetica,sans-Serif" font-size="10.00"> </text>
<text text-anchor="start" x="31.5" y="-6.5" font-family="Helvetica,sans-Serif" font-size="10.00">+</text>
<text text-anchor="start" x="69" y="-6.5" font-family="Helvetica,sans-Serif" font-size="10.00">ExecuteAsync()</text>
<polygon fill="#666666" stroke="#666666" points="0,-34 0,-34 198,-34 198,-34 0,-34"/>
<polygon fill="#666666" stroke="#666666" points="0,-18 0,-18 198,-18 198,-18 0,-18"/>
<polygon fill="none" stroke="#666666" points="0,0 0,-64 198,-64 198,0 0,0"/>
</a>
</g>
</g>
<!-- Node2 -->
<g id="Node000002" class="node">
<title>Node2</title>
<g id="a_Node000002"><a xlink:href="interface_code_smile_1_1_statemachine_1_1_i_async_action.html" target="_top" xlink:title="Marks a class as an asynchronous (awaitable) FSM Action.">
<polygon fill="white" stroke="none" points="142.5,-152 55.5,-152 55.5,-100 142.5,-100 142.5,-152"/>
<text text-anchor="start" x="69.75" y="-138.5" font-family="Helvetica,sans-Serif" font-size="10.00">IAsyncAction</text>
<text text-anchor="start" x="97.5" y="-122.5" font-family="Helvetica,sans-Serif" font-size="10.00"> </text>
<text text-anchor="start" x="59.5" y="-106.5" font-family="Helvetica,sans-Serif" font-size="10.00">+</text>
<text text-anchor="start" x="69.5" y="-106.5" font-family="Helvetica,sans-Serif" font-size="10.00">ExecuteAsync()</text>
<polygon fill="#666666" stroke="#666666" points="55.5,-134 55.5,-134 142.5,-134 142.5,-134 55.5,-134"/>
<polygon fill="#666666" stroke="#666666" points="55.5,-118 55.5,-118 142.5,-118 142.5,-118 55.5,-118"/>
<polygon fill="none" stroke="#666666" points="55.5,-100 55.5,-152 142.5,-152 142.5,-100 55.5,-100"/>
</a>
</g>
</g>
<!-- Node2&#45;&gt;Node1 -->
<g id="edge1_Node000001_Node000002" class="edge">
<title>Node2&#45;&gt;Node1</title>
<g id="a_edge1_Node000001_Node000002"><a xlink:title=" ">
<path fill="none" stroke="#63b8ff" d="M99,-89.06C99,-80.78 99,-72.04 99,-63.98"/>
<polygon fill="none" stroke="#63b8ff" points="95.5,-88.83 99,-98.83 102.5,-88.83 95.5,-88.83"/>
</a>
</g>
</g>
<!-- Node3 -->
<g id="Node000003" class="node">
<title>Node3</title>
<g id="a_Node000003"><a xlink:href="interface_code_smile_1_1_statemachine_1_1_i_action.html" target="_top" xlink:title="Marks a class as a FSM Action.">
<polygon fill="white" stroke="none" points="143,-256 55,-256 55,-188 143,-188 143,-256"/>
<text text-anchor="start" x="83.62" y="-242.5" font-family="Helvetica,sans-Serif" font-size="10.00">IAction</text>
<text text-anchor="start" x="97.5" y="-226.5" font-family="Helvetica,sans-Serif" font-size="10.00"> </text>
<text text-anchor="start" x="59" y="-210.5" font-family="Helvetica,sans-Serif" font-size="10.00">+</text>
<text text-anchor="start" x="69" y="-210.5" font-family="Helvetica,sans-Serif" font-size="10.00">Execute()</text>
<text text-anchor="start" x="59" y="-194.5" font-family="Helvetica,sans-Serif" font-size="10.00">+</text>
<text text-anchor="start" x="69" y="-194.5" font-family="Helvetica,sans-Serif" font-size="10.00">ToDebugString()</text>
<polygon fill="#666666" stroke="#666666" points="55,-238 55,-238 143,-238 143,-238 55,-238"/>
<polygon fill="#666666" stroke="#666666" points="55,-222 55,-222 143,-222 143,-222 55,-222"/>
<polygon fill="none" stroke="#666666" points="55,-188 55,-256 143,-256 143,-188 55,-188"/>
</a>
</g>
</g>
<!-- Node3&#45;&gt;Node2 -->
<g id="edge2_Node000002_Node000003" class="edge">
<title>Node3&#45;&gt;Node2</title>
<g id="a_edge2_Node000002_Node000003"><a xlink:title=" ">
<path fill="none" stroke="#63b8ff" d="M99,-176.62C99,-168.05 99,-159.37 99,-151.71"/>
<polygon fill="none" stroke="#63b8ff" points="95.5,-176.61 99,-186.61 102.5,-176.61 95.5,-176.61"/>
</a>
</g>
</g>
<!-- Node4 -->
<g id="Node000004" class="node">
<title>Node4</title>
<g id="a_Node000004"><a xlink:href="interface_code_smile_1_1_statemachine_1_1_i_statemachine_events.html" target="_top" xlink:title="Event methods that the Statemachine calls at specific times.">
<polygon fill="white" stroke="none" points="150.5,-392 47.5,-392 47.5,-292 150.5,-292 150.5,-392"/>
<text text-anchor="start" x="52.12" y="-378.5" font-family="Helvetica,sans-Serif" font-size="10.00">IStatemachineEvents</text>
<text text-anchor="start" x="97.5" y="-362.5" font-family="Helvetica,sans-Serif" font-size="10.00"> </text>
<text text-anchor="start" x="56.5" y="-346.5" font-family="Helvetica,sans-Serif" font-size="10.00">+</text>
<text text-anchor="start" x="71.5" y="-346.5" font-family="Helvetica,sans-Serif" font-size="10.00">OnStart()</text>
<text text-anchor="start" x="56.5" y="-330.5" font-family="Helvetica,sans-Serif" font-size="10.00">+</text>
<text text-anchor="start" x="71.5" y="-330.5" font-family="Helvetica,sans-Serif" font-size="10.00">OnStop()</text>
<text text-anchor="start" x="56.5" y="-314.5" font-family="Helvetica,sans-Serif" font-size="10.00">+</text>
<text text-anchor="start" x="71.5" y="-314.5" font-family="Helvetica,sans-Serif" font-size="10.00">OnEnterState()</text>
<text text-anchor="start" x="56.5" y="-298.5" font-family="Helvetica,sans-Serif" font-size="10.00">+</text>
<text text-anchor="start" x="71.5" y="-298.5" font-family="Helvetica,sans-Serif" font-size="10.00">OnExitState()</text>
<polygon fill="#666666" stroke="#666666" points="47.5,-374 47.5,-374 150.5,-374 150.5,-374 47.5,-374"/>
<polygon fill="#666666" stroke="#666666" points="47.5,-358 47.5,-358 150.5,-358 150.5,-358 47.5,-358"/>
<polygon fill="none" stroke="#666666" points="47.5,-292 47.5,-392 150.5,-392 150.5,-292 47.5,-292"/>
</a>
</g>
</g>
<!-- Node4&#45;&gt;Node3 -->
<g id="edge3_Node000003_Node000004" class="edge">
<title>Node4&#45;&gt;Node3</title>
<g id="a_edge3_Node000003_Node000004"><a xlink:title=" ">
<path fill="none" stroke="#63b8ff" d="M99,-280.96C99,-272.28 99,-263.62 99,-255.75"/>
<polygon fill="none" stroke="#63b8ff" points="95.5,-280.81 99,-290.81 102.5,-280.81 95.5,-280.81"/>
</a>
</g>
</g>
</g>
</svg>
