<?xml version="1.0" encoding="UTF-8" standalone="no"?>
<!DOCTYPE svg PUBLIC "-//W3C//DTD SVG 1.1//EN"
 "http://www.w3.org/Graphics/SVG/1.1/DTD/svg11.dtd">
<!-- Generated by graphviz version 12.1.2 (20240928.0832)
 -->
<!-- Title: PA1A.Items.Container.Take Pages: 1 -->
<svg width="341pt" height="52pt"
 viewBox="0.00 0.00 340.75 52.00" xmlns="http://www.w3.org/2000/svg" xmlns:xlink="http://www.w3.org/1999/xlink">
<g id="graph0" class="graph" transform="scale(1 1) rotate(0) translate(4 48)">
<title>PA1A.Items.Container.Take</title>
<!-- Node1 -->
<g id="Node000001" class="node">
<title>Node1</title>
<g id="a_Node000001"><a xlink:title="Takes the specified ItemStack from the IStackContainer and substracts the taken amount from the ItemS...">
<polygon fill="#999999" stroke="#666666" points="332.75,-26 195.25,-26 195.25,-6 332.75,-6 332.75,-26"/>
<text text-anchor="middle" x="264" y="-12.5" font-family="Helvetica,sans-Serif" font-size="10.00">PA1A.Items.Container.Take</text>
</a>
</g>
</g>
<!-- Node1&#45;&gt;Node1 -->
<g id="edge2_Node000001_Node000001" class="edge">
<title>Node1&#45;&gt;Node1</title>
<g id="a_edge2_Node000001_Node000001"><a xlink:title=" ">
<path fill="none" stroke="#63b8ff" d="M296.93,-37.11C293,-41.14 282.03,-44 264,-44 231.95,-44 222.19,-34.98 234.7,-26.34"/>
<polygon fill="#63b8ff" stroke="#63b8ff" points="300.29,-36.13 293.78,-27.77 293.66,-38.37 300.29,-36.13"/>
</a>
</g>
</g>
<!-- Node2 -->
<g id="Node000002" class="node">
<title>Node2</title>
<g id="a_Node000002"><a xlink:href="class_p_a1_a_1_1_items_1_1_u_i_1_1_slot_u_i.html#a44ae4af293348ca9cd7af64f634b6e94" target="_top" xlink:title=" ">
<polygon fill="white" stroke="#666666" points="159.25,-32 0,-32 0,0 159.25,0 159.25,-32"/>
<text text-anchor="start" x="8" y="-18.5" font-family="Helvetica,sans-Serif" font-size="10.00">PA1A.Items.UI.SlotUI.OnPointer</text>
<text text-anchor="middle" x="79.62" y="-6.5" font-family="Helvetica,sans-Serif" font-size="10.00">Click</text>
</a>
</g>
</g>
<!-- Node1&#45;&gt;Node2 -->
<g id="edge1_Node000001_Node000002" class="edge">
<title>Node1&#45;&gt;Node2</title>
<g id="a_edge1_Node000001_Node000002"><a xlink:title=" ">
<path fill="none" stroke="#63b8ff" d="M183.34,-16C175.41,-16 167.37,-16 159.46,-16"/>
<polygon fill="#63b8ff" stroke="#63b8ff" points="183.32,-19.5 193.32,-16 183.32,-12.5 183.32,-19.5"/>
</a>
</g>
</g>
</g>
</svg>
