<?xml version="1.0" encoding="UTF-8" standalone="no"?>
<!DOCTYPE svg PUBLIC "-//W3C//DTD SVG 1.1//EN"
 "http://www.w3.org/Graphics/SVG/1.1/DTD/svg11.dtd">
<!-- Generated by graphviz version 12.1.2 (20240928.0832)
 -->
<!-- Title: PA1A.Items.UI.ClassicContainerUI.OnEnable Pages: 1 -->
<svg width="560pt" height="90pt"
 viewBox="0.00 0.00 560.00 90.00" xmlns="http://www.w3.org/2000/svg" xmlns:xlink="http://www.w3.org/1999/xlink">
<g id="graph0" class="graph" transform="scale(1 1) rotate(0) translate(4 86)">
<title>PA1A.Items.UI.ClassicContainerUI.OnEnable</title>
<!-- Node1 -->
<g id="Node000001" class="node">
<title>Node1</title>
<g id="a_Node000001"><a xlink:title=" ">
<polygon fill="#999999" stroke="#666666" points="160,-57 0,-57 0,-25 160,-25 160,-57"/>
<text text-anchor="start" x="8" y="-43.5" font-family="Helvetica,sans-Serif" font-size="10.00">PA1A.Items.UI.ClassicContainer</text>
<text text-anchor="middle" x="80" y="-31.5" font-family="Helvetica,sans-Serif" font-size="10.00">UI.OnEnable</text>
</a>
</g>
</g>
<!-- Node2 -->
<g id="Node000002" class="node">
<title>Node2</title>
<g id="a_Node000002"><a xlink:href="class_p_a1_a_1_1_items_1_1_u_i_1_1_classic_container_u_i.html#ad64e42f88793cbdad5b678e6b5829314" target="_top" xlink:title=" ">
<polygon fill="white" stroke="#666666" points="356,-57 196,-57 196,-25 356,-25 356,-57"/>
<text text-anchor="start" x="204" y="-43.5" font-family="Helvetica,sans-Serif" font-size="10.00">PA1A.Items.UI.ClassicContainer</text>
<text text-anchor="middle" x="276" y="-31.5" font-family="Helvetica,sans-Serif" font-size="10.00">UI.AwaitPlayerInventoryLoad</text>
</a>
</g>
</g>
<!-- Node1&#45;&gt;Node2 -->
<g id="edge1_Node000001_Node000002" class="edge">
<title>Node1&#45;&gt;Node2</title>
<g id="a_edge1_Node000001_Node000002"><a xlink:title=" ">
<path fill="none" stroke="#63b8ff" d="M160.47,-41C168.36,-41 176.42,-41 184.41,-41"/>
<polygon fill="#63b8ff" stroke="#63b8ff" points="184.14,-44.5 194.14,-41 184.14,-37.5 184.14,-44.5"/>
</a>
</g>
</g>
<!-- Node3 -->
<g id="Node000003" class="node">
<title>Node3</title>
<g id="a_Node000003"><a xlink:href="class_p_a1_a_1_1_items_1_1_u_i_1_1_classic_container_u_i.html#a97d2cc6b46029c1c5ae094b72aa5347a" target="_top" xlink:title=" ">
<polygon fill="white" stroke="#666666" points="552,-82 392,-82 392,-50 552,-50 552,-82"/>
<text text-anchor="start" x="400" y="-68.5" font-family="Helvetica,sans-Serif" font-size="10.00">PA1A.Items.UI.ClassicContainer</text>
<text text-anchor="middle" x="472" y="-56.5" font-family="Helvetica,sans-Serif" font-size="10.00">UI.OnContainerStarted</text>
</a>
</g>
</g>
<!-- Node2&#45;&gt;Node3 -->
<g id="edge2_Node000002_Node000003" class="edge">
<title>Node2&#45;&gt;Node3</title>
<g id="a_edge2_Node000002_Node000003"><a xlink:title=" ">
<path fill="none" stroke="#63b8ff" d="M356.47,-51.24C364.36,-52.26 372.42,-53.3 380.41,-54.33"/>
<polygon fill="#63b8ff" stroke="#63b8ff" points="379.79,-57.78 390.16,-55.58 380.68,-50.83 379.79,-57.78"/>
</a>
</g>
</g>
<!-- Node4 -->
<g id="Node000004" class="node">
<title>Node4</title>
<g id="a_Node000004"><a xlink:href="class_p_a1_a_1_1_items_1_1_u_i_1_1_classic_container_u_i.html#a0503e8d20d17157d75c91a43b5ee0213" target="_top" xlink:title=" ">
<polygon fill="white" stroke="#666666" points="552,-32 392,-32 392,0 552,0 552,-32"/>
<text text-anchor="start" x="400" y="-18.5" font-family="Helvetica,sans-Serif" font-size="10.00">PA1A.Items.UI.ClassicContainer</text>
<text text-anchor="middle" x="472" y="-6.5" font-family="Helvetica,sans-Serif" font-size="10.00">UI.OnContainerStopped</text>
</a>
</g>
</g>
<!-- Node2&#45;&gt;Node4 -->
<g id="edge3_Node000002_Node000004" class="edge">
<title>Node2&#45;&gt;Node4</title>
<g id="a_edge3_Node000002_Node000004"><a xlink:title=" ">
<path fill="none" stroke="#63b8ff" d="M356.47,-30.76C364.36,-29.74 372.42,-28.7 380.41,-27.67"/>
<polygon fill="#63b8ff" stroke="#63b8ff" points="380.68,-31.17 390.16,-26.42 379.79,-24.22 380.68,-31.17"/>
</a>
</g>
</g>
</g>
</svg>
