<?xml version="1.0" encoding="UTF-8" standalone="no"?>
<!DOCTYPE svg PUBLIC "-//W3C//DTD SVG 1.1//EN"
 "http://www.w3.org/Graphics/SVG/1.1/DTD/svg11.dtd">
<!-- Generated by graphviz version 12.1.2 (20240928.0832)
 -->
<!-- Title: TooltipTrigger Pages: 1 -->
<svg width="316pt" height="196pt"
 viewBox="0.00 0.00 315.50 196.00" xmlns="http://www.w3.org/2000/svg" xmlns:xlink="http://www.w3.org/1999/xlink">

<svg id="main" version="1.1" xmlns="http://www.w3.org/2000/svg" xmlns:xlink="http://www.w3.org/1999/xlink" xml:space="preserve">

<style type="text/css"><![CDATA[
.node, .edge {opacity: 0.7;}
.node.selected, .edge.selected {opacity: 1;}
.edge:hover path { stroke: red; }
.edge:hover polygon { stroke: red; fill: red; }
]]></style>
<script type="application/ecmascript" xlink:href="svg.min.js"/>
<svg id="graph" class="graph">
<g id="graph0" class="graph" transform="scale(1 1) rotate(0) translate(4 192)">
<title>TooltipTrigger</title>
<!-- Node1 -->
<g id="Node000001" class="node">
<title>Node1</title>
<g id="a_Node000001"><a xlink:title="Represents a trigger for displaying tooltips.">
<polygon fill="#999999" stroke="none" points="190.5,-100 100.5,-100 100.5,0 190.5,0 190.5,-100"/>
<text text-anchor="start" x="116.25" y="-86.5" font-family="Helvetica,sans-Serif" font-size="10.00">TooltipTrigger</text>
<text text-anchor="start" x="104.5" y="-70.5" font-family="Helvetica,sans-Serif" font-size="10.00">+</text>
<text text-anchor="start" x="114.5" y="-70.5" font-family="Helvetica,sans-Serif" font-size="10.00">header</text>
<text text-anchor="start" x="104.5" y="-54.5" font-family="Helvetica,sans-Serif" font-size="10.00">+</text>
<text text-anchor="start" x="114.5" y="-54.5" font-family="Helvetica,sans-Serif" font-size="10.00">content</text>
<text text-anchor="start" x="104.5" y="-38.5" font-family="Helvetica,sans-Serif" font-size="10.00">+</text>
<text text-anchor="start" x="114.5" y="-38.5" font-family="Helvetica,sans-Serif" font-size="10.00">Awake()</text>
<text text-anchor="start" x="104.5" y="-22.5" font-family="Helvetica,sans-Serif" font-size="10.00">+</text>
<text text-anchor="start" x="114.5" y="-22.5" font-family="Helvetica,sans-Serif" font-size="10.00">OnPointerEnter()</text>
<text text-anchor="start" x="104.5" y="-6.5" font-family="Helvetica,sans-Serif" font-size="10.00">+</text>
<text text-anchor="start" x="114.5" y="-6.5" font-family="Helvetica,sans-Serif" font-size="10.00">OnPointerExit()</text>
<polygon fill="#666666" stroke="#666666" points="100.5,-82 100.5,-82 190.5,-82 190.5,-82 100.5,-82"/>
<polygon fill="#666666" stroke="#666666" points="100.5,-50 100.5,-50 112.5,-50 112.5,-50 100.5,-50"/>
<polygon fill="#666666" stroke="#666666" points="112.5,-50 112.5,-50 190.5,-50 190.5,-50 112.5,-50"/>
<polygon fill="none" stroke="#666666" points="100.5,0 100.5,-100 190.5,-100 190.5,0 100.5,0"/>
</a>
</g>
</g>
<!-- Node2 -->
<g id="Node000002" class="node">
<title>Node2</title>
<g id="a_Node000002"><a xlink:href="class_mono_behaviour.html" target="_top" xlink:title=" ">
<polygon fill="white" stroke="none" points="77,-188 0,-188 0,-136 77,-136 77,-188"/>
<text text-anchor="start" x="4.75" y="-174.5" font-family="Helvetica,sans-Serif" font-size="10.00">MonoBehaviour</text>
<text text-anchor="start" x="37" y="-158.5" font-family="Helvetica,sans-Serif" font-size="10.00"> </text>
<text text-anchor="start" x="37" y="-142.5" font-family="Helvetica,sans-Serif" font-size="10.00"> </text>
<polygon fill="#666666" stroke="#666666" points="0,-170 0,-170 77,-170 77,-170 0,-170"/>
<polygon fill="#666666" stroke="#666666" points="0,-154 0,-154 77,-154 77,-154 0,-154"/>
<polygon fill="none" stroke="#666666" points="0,-136 0,-188 77,-188 77,-136 0,-136"/>
</a>
</g>
</g>
<!-- Node2&#45;&gt;Node1 -->
<g id="edge1_Node000001_Node000002" class="edge">
<title>Node2&#45;&gt;Node1</title>
<g id="a_edge1_Node000001_Node000002"><a xlink:title=" ">
<path fill="none" stroke="#63b8ff" d="M70.75,-127.84C80.17,-118.16 90.64,-107.4 100.69,-97.06"/>
<polygon fill="none" stroke="#63b8ff" points="68.3,-125.35 63.84,-134.95 73.32,-130.23 68.3,-125.35"/>
</a>
</g>
</g>
<!-- Node3 -->
<g id="Node000003" class="node">
<title>Node3</title>
<g id="a_Node000003"><a xlink:href="class_i_pointer_enter_handler.html" target="_top" xlink:title=" ">
<polygon fill="white" stroke="none" points="195.5,-188 95.5,-188 95.5,-136 195.5,-136 195.5,-188"/>
<text text-anchor="start" x="100.12" y="-174.5" font-family="Helvetica,sans-Serif" font-size="10.00">IPointerEnterHandler</text>
<text text-anchor="start" x="144" y="-158.5" font-family="Helvetica,sans-Serif" font-size="10.00"> </text>
<text text-anchor="start" x="144" y="-142.5" font-family="Helvetica,sans-Serif" font-size="10.00"> </text>
<polygon fill="#666666" stroke="#666666" points="95.5,-170 95.5,-170 195.5,-170 195.5,-170 95.5,-170"/>
<polygon fill="#666666" stroke="#666666" points="95.5,-154 95.5,-154 195.5,-154 195.5,-154 95.5,-154"/>
<polygon fill="none" stroke="#666666" points="95.5,-136 95.5,-188 195.5,-188 195.5,-136 95.5,-136"/>
</a>
</g>
</g>
<!-- Node3&#45;&gt;Node1 -->
<g id="edge2_Node000001_Node000003" class="edge">
<title>Node3&#45;&gt;Node1</title>
<g id="a_edge2_Node000001_Node000003"><a xlink:title=" ">
<path fill="none" stroke="#63b8ff" d="M145.5,-124.53C145.5,-116.58 145.5,-108.05 145.5,-99.72"/>
<polygon fill="none" stroke="#63b8ff" points="142,-124.53 145.5,-134.53 149,-124.53 142,-124.53"/>
</a>
</g>
</g>
<!-- Node4 -->
<g id="Node000004" class="node">
<title>Node4</title>
<g id="a_Node000004"><a xlink:href="class_i_pointer_exit_handler.html" target="_top" xlink:title=" ">
<polygon fill="white" stroke="none" points="307.5,-188 213.5,-188 213.5,-136 307.5,-136 307.5,-188"/>
<text text-anchor="start" x="218.12" y="-174.5" font-family="Helvetica,sans-Serif" font-size="10.00">IPointerExitHandler</text>
<text text-anchor="start" x="259" y="-158.5" font-family="Helvetica,sans-Serif" font-size="10.00"> </text>
<text text-anchor="start" x="259" y="-142.5" font-family="Helvetica,sans-Serif" font-size="10.00"> </text>
<polygon fill="#666666" stroke="#666666" points="213.5,-170 213.5,-170 307.5,-170 307.5,-170 213.5,-170"/>
<polygon fill="#666666" stroke="#666666" points="213.5,-154 213.5,-154 307.5,-154 307.5,-154 213.5,-154"/>
<polygon fill="none" stroke="#666666" points="213.5,-136 213.5,-188 307.5,-188 307.5,-136 213.5,-136"/>
</a>
</g>
</g>
<!-- Node4&#45;&gt;Node1 -->
<g id="edge3_Node000001_Node000004" class="edge">
<title>Node4&#45;&gt;Node1</title>
<g id="a_edge3_Node000001_Node000004"><a xlink:title=" ">
<path fill="none" stroke="#63b8ff" d="M226.14,-128.14C214.94,-117.42 202.32,-105.35 190.45,-94"/>
<polygon fill="none" stroke="#63b8ff" points="223.67,-130.61 233.31,-134.99 228.5,-125.55 223.67,-130.61"/>
</a>
</g>
</g>
</g>
</svg>
</svg>

<style type='text/css'>
<![CDATA[
[data-mouse-over-selected='false'] { opacity: 0.7; }
[data-mouse-over-selected='true']  { opacity: 1.0; }
]]>
</style>
<script type="application/ecmascript"><![CDATA[
document.addEventListener('DOMContentLoaded', (event) => {
  highlightEdges();
  highlightAdjacentNodes();
});
]]></script>
</svg>
