<?xml version="1.0" encoding="UTF-8" standalone="no"?>
<!DOCTYPE svg PUBLIC "-//W3C//DTD SVG 1.1//EN"
 "http://www.w3.org/Graphics/SVG/1.1/DTD/svg11.dtd">
<!-- Generated by graphviz version 12.1.2 (20240928.0832)
 -->
<!-- Title: CodeSmile.Statemachine.Netcode.Conditions.IsLocalClientConnected Pages: 1 -->
<svg width="184pt" height="444pt"
 viewBox="0.00 0.00 184.00 444.00" xmlns="http://www.w3.org/2000/svg" xmlns:xlink="http://www.w3.org/1999/xlink">
<g id="graph0" class="graph" transform="scale(1 1) rotate(0) translate(4 440)">
<title>CodeSmile.Statemachine.Netcode.Conditions.IsLocalClientConnected</title>
<!-- Node1 -->
<g id="Node000001" class="node">
<title>Node1</title>
<g id="a_Node000001"><a xlink:title="Tests if the client that this script executes on is currently connected to a network session.">
<polygon fill="#999999" stroke="none" points="169.5,-196 6.5,-196 6.5,-100 169.5,-100 169.5,-196"/>
<text text-anchor="start" x="11.12" y="-182.5" font-family="Helvetica,sans-Serif" font-size="10.00">CodeSmile.Statemachine.Netcode.</text>
<text text-anchor="start" x="11.12" y="-170.5" font-family="Helvetica,sans-Serif" font-size="10.00">Conditions.IsLocalClientConnected</text>
<text text-anchor="start" x="86.5" y="-154.5" font-family="Helvetica,sans-Serif" font-size="10.00"> </text>
<text text-anchor="start" x="33.5" y="-138.5" font-family="Helvetica,sans-Serif" font-size="10.00">+</text>
<text text-anchor="start" x="66.5" y="-138.5" font-family="Helvetica,sans-Serif" font-size="10.00">OnStart()</text>
<text text-anchor="start" x="33.5" y="-122.5" font-family="Helvetica,sans-Serif" font-size="10.00">+</text>
<text text-anchor="start" x="66.5" y="-122.5" font-family="Helvetica,sans-Serif" font-size="10.00">OnStop()</text>
<text text-anchor="start" x="33.5" y="-106.5" font-family="Helvetica,sans-Serif" font-size="10.00">+</text>
<text text-anchor="start" x="66.5" y="-106.5" font-family="Helvetica,sans-Serif" font-size="10.00">IsSatisfied()</text>
<polygon fill="#666666" stroke="#666666" points="6.5,-166 6.5,-166 169.5,-166 169.5,-166 6.5,-166"/>
<polygon fill="#666666" stroke="#666666" points="6.5,-150 6.5,-150 169.5,-150 169.5,-150 6.5,-150"/>
<polygon fill="none" stroke="#666666" points="6.5,-100 6.5,-196 169.5,-196 169.5,-100 6.5,-100"/>
</a>
</g>
</g>
<!-- Node4 -->
<g id="Node000004" class="node">
<title>Node4</title>
<g id="a_Node000004"><a xlink:href="class_code_smile_1_1_statemachine_1_1_netcode_1_1_conditions_1_1_is_local_client_disconnected.html" target="_top" xlink:title="Tests if the client that this script executes on is not connected to a network session.">
<polygon fill="white" stroke="none" points="176,-64 0,-64 0,0 176,0 176,-64"/>
<text text-anchor="start" x="4.75" y="-50.5" font-family="Helvetica,sans-Serif" font-size="10.00">CodeSmile.Statemachine.Netcode.</text>
<text text-anchor="start" x="4.75" y="-38.5" font-family="Helvetica,sans-Serif" font-size="10.00">Conditions.IsLocalClientDisconnected</text>
<text text-anchor="start" x="86.5" y="-22.5" font-family="Helvetica,sans-Serif" font-size="10.00"> </text>
<text text-anchor="start" x="30.5" y="-6.5" font-family="Helvetica,sans-Serif" font-size="10.00">+</text>
<text text-anchor="start" x="67" y="-6.5" font-family="Helvetica,sans-Serif" font-size="10.00">IsSatisfied()</text>
<polygon fill="#666666" stroke="#666666" points="0,-34 0,-34 176,-34 176,-34 0,-34"/>
<polygon fill="#666666" stroke="#666666" points="0,-18 0,-18 176,-18 176,-18 0,-18"/>
<polygon fill="none" stroke="#666666" points="0,0 0,-64 176,-64 176,0 0,0"/>
</a>
</g>
</g>
<!-- Node1&#45;&gt;Node4 -->
<g id="edge3_Node000001_Node000004" class="edge">
<title>Node1&#45;&gt;Node4</title>
<g id="a_edge3_Node000001_Node000004"><a xlink:title=" ">
<path fill="none" stroke="#63b8ff" d="M88,-88.95C88,-80.27 88,-71.62 88,-63.82"/>
<polygon fill="none" stroke="#63b8ff" points="84.5,-88.79 88,-98.79 91.5,-88.79 84.5,-88.79"/>
</a>
</g>
</g>
<!-- Node2 -->
<g id="Node000002" class="node">
<title>Node2</title>
<g id="a_Node000002"><a xlink:href="interface_code_smile_1_1_statemachine_1_1_i_condition.html" target="_top" xlink:title="Marks a class as a FSM Condition.">
<polygon fill="white" stroke="none" points="132,-300 44,-300 44,-232 132,-232 132,-300"/>
<text text-anchor="start" x="65.88" y="-286.5" font-family="Helvetica,sans-Serif" font-size="10.00">ICondition</text>
<text text-anchor="start" x="86.5" y="-270.5" font-family="Helvetica,sans-Serif" font-size="10.00"> </text>
<text text-anchor="start" x="48" y="-254.5" font-family="Helvetica,sans-Serif" font-size="10.00">+</text>
<text text-anchor="start" x="58" y="-254.5" font-family="Helvetica,sans-Serif" font-size="10.00">IsSatisfied()</text>
<text text-anchor="start" x="48" y="-238.5" font-family="Helvetica,sans-Serif" font-size="10.00">+</text>
<text text-anchor="start" x="58" y="-238.5" font-family="Helvetica,sans-Serif" font-size="10.00">ToDebugString()</text>
<polygon fill="#666666" stroke="#666666" points="44,-282 44,-282 132,-282 132,-282 44,-282"/>
<polygon fill="#666666" stroke="#666666" points="44,-266 44,-266 132,-266 132,-266 44,-266"/>
<polygon fill="none" stroke="#666666" points="44,-232 44,-300 132,-300 132,-232 44,-232"/>
</a>
</g>
</g>
<!-- Node2&#45;&gt;Node1 -->
<g id="edge1_Node000001_Node000002" class="edge">
<title>Node2&#45;&gt;Node1</title>
<g id="a_edge1_Node000001_Node000002"><a xlink:title=" ">
<path fill="none" stroke="#63b8ff" d="M88,-220.57C88,-212.48 88,-204.02 88,-195.87"/>
<polygon fill="none" stroke="#63b8ff" points="84.5,-220.56 88,-230.56 91.5,-220.56 84.5,-220.56"/>
</a>
</g>
</g>
<!-- Node3 -->
<g id="Node000003" class="node">
<title>Node3</title>
<g id="a_Node000003"><a xlink:href="interface_code_smile_1_1_statemachine_1_1_i_statemachine_events.html" target="_top" xlink:title="Event methods that the Statemachine calls at specific times.">
<polygon fill="white" stroke="none" points="139.5,-436 36.5,-436 36.5,-336 139.5,-336 139.5,-436"/>
<text text-anchor="start" x="41.12" y="-422.5" font-family="Helvetica,sans-Serif" font-size="10.00">IStatemachineEvents</text>
<text text-anchor="start" x="86.5" y="-406.5" font-family="Helvetica,sans-Serif" font-size="10.00"> </text>
<text text-anchor="start" x="45.5" y="-390.5" font-family="Helvetica,sans-Serif" font-size="10.00">+</text>
<text text-anchor="start" x="60.5" y="-390.5" font-family="Helvetica,sans-Serif" font-size="10.00">OnStart()</text>
<text text-anchor="start" x="45.5" y="-374.5" font-family="Helvetica,sans-Serif" font-size="10.00">+</text>
<text text-anchor="start" x="60.5" y="-374.5" font-family="Helvetica,sans-Serif" font-size="10.00">OnStop()</text>
<text text-anchor="start" x="45.5" y="-358.5" font-family="Helvetica,sans-Serif" font-size="10.00">+</text>
<text text-anchor="start" x="60.5" y="-358.5" font-family="Helvetica,sans-Serif" font-size="10.00">OnEnterState()</text>
<text text-anchor="start" x="45.5" y="-342.5" font-family="Helvetica,sans-Serif" font-size="10.00">+</text>
<text text-anchor="start" x="60.5" y="-342.5" font-family="Helvetica,sans-Serif" font-size="10.00">OnExitState()</text>
<polygon fill="#666666" stroke="#666666" points="36.5,-418 36.5,-418 139.5,-418 139.5,-418 36.5,-418"/>
<polygon fill="#666666" stroke="#666666" points="36.5,-402 36.5,-402 139.5,-402 139.5,-402 36.5,-402"/>
<polygon fill="none" stroke="#666666" points="36.5,-336 36.5,-436 139.5,-436 139.5,-336 36.5,-336"/>
</a>
</g>
</g>
<!-- Node3&#45;&gt;Node2 -->
<g id="edge2_Node000002_Node000003" class="edge">
<title>Node3&#45;&gt;Node2</title>
<g id="a_edge2_Node000002_Node000003"><a xlink:title=" ">
<path fill="none" stroke="#63b8ff" d="M88,-324.96C88,-316.28 88,-307.62 88,-299.75"/>
<polygon fill="none" stroke="#63b8ff" points="84.5,-324.81 88,-334.81 91.5,-324.81 84.5,-324.81"/>
</a>
</g>
</g>
</g>
</svg>
