<?xml version="1.0" encoding="UTF-8" standalone="no"?>
<!DOCTYPE svg PUBLIC "-//W3C//DTD SVG 1.1//EN"
 "http://www.w3.org/Graphics/SVG/1.1/DTD/svg11.dtd">
<!-- Generated by graphviz version 12.1.2 (20240928.0832)
 -->
<!-- Title: SceneManagerAPI Pages: 1 -->
<svg width="180pt" height="160pt"
 viewBox="0.00 0.00 180.00 160.00" xmlns="http://www.w3.org/2000/svg" xmlns:xlink="http://www.w3.org/1999/xlink">

<svg id="main" version="1.1" xmlns="http://www.w3.org/2000/svg" xmlns:xlink="http://www.w3.org/1999/xlink" xml:space="preserve">

<style type="text/css"><![CDATA[
.node, .edge {opacity: 0.7;}
.node.selected, .edge.selected {opacity: 1;}
.edge:hover path { stroke: red; }
.edge:hover polygon { stroke: red; fill: red; }
]]></style>
<script type="application/ecmascript" xlink:href="svg.min.js"/>
<svg id="graph" class="graph">
<g id="graph0" class="graph" transform="scale(1 1) rotate(0) translate(4 156)">
<title>SceneManagerAPI</title>
<!-- Node1 -->
<g id="Node000001" class="node">
<title>Node1</title>
<g id="a_Node000001"><a xlink:title=" ">
<polygon fill="#999999" stroke="none" points="131.5,-152 40.5,-152 40.5,-100 131.5,-100 131.5,-152"/>
<text text-anchor="start" x="45.12" y="-138.5" font-family="Helvetica,sans-Serif" font-size="10.00">SceneManagerAPI</text>
<text text-anchor="start" x="84.5" y="-122.5" font-family="Helvetica,sans-Serif" font-size="10.00"> </text>
<text text-anchor="start" x="84.5" y="-106.5" font-family="Helvetica,sans-Serif" font-size="10.00"> </text>
<polygon fill="#666666" stroke="#666666" points="40.5,-134 40.5,-134 131.5,-134 131.5,-134 40.5,-134"/>
<polygon fill="#666666" stroke="#666666" points="40.5,-118 40.5,-118 131.5,-118 131.5,-118 40.5,-118"/>
<polygon fill="none" stroke="#666666" points="40.5,-100 40.5,-152 131.5,-152 131.5,-100 40.5,-100"/>
</a>
</g>
</g>
<!-- Node2 -->
<g id="Node000002" class="node">
<title>Node2</title>
<g id="a_Node000002"><a xlink:href="class_code_smile_1_1_multi_pal_1_1_utility_1_1_scene_manager_no_single_load.html" target="_top" xlink:title=" ">
<polygon fill="white" stroke="none" points="172,-64 0,-64 0,0 172,0 172,-64"/>
<text text-anchor="start" x="23" y="-50.5" font-family="Helvetica,sans-Serif" font-size="10.00">CodeSmile.MultiPal.Utility.</text>
<text text-anchor="start" x="23" y="-38.5" font-family="Helvetica,sans-Serif" font-size="10.00">SceneManagerNoSingleLoad</text>
<text text-anchor="start" x="84.5" y="-22.5" font-family="Helvetica,sans-Serif" font-size="10.00"> </text>
<text text-anchor="start" x="3.88" y="-6.5" font-family="Helvetica,sans-Serif" font-size="10.00">#</text>
<text text-anchor="start" x="13" y="-6.5" font-family="Helvetica,sans-Serif" font-size="10.00">LoadSceneAsyncByNameOrIndex()</text>
<polygon fill="#666666" stroke="#666666" points="0,-34 0,-34 172,-34 172,-34 0,-34"/>
<polygon fill="#666666" stroke="#666666" points="0,-18 0,-18 172,-18 172,-18 0,-18"/>
<polygon fill="none" stroke="#666666" points="0,0 0,-64 172,-64 172,0 0,0"/>
</a>
</g>
</g>
<!-- Node1&#45;&gt;Node2 -->
<g id="edge1_Node000001_Node000002" class="edge">
<title>Node1&#45;&gt;Node2</title>
<g id="a_edge1_Node000001_Node000002"><a xlink:title=" ">
<path fill="none" stroke="#63b8ff" d="M86,-89.06C86,-80.78 86,-72.04 86,-63.98"/>
<polygon fill="none" stroke="#63b8ff" points="82.5,-88.83 86,-98.83 89.5,-88.83 82.5,-88.83"/>
</a>
</g>
</g>
</g>
</svg>
</svg>

<style type='text/css'>
<![CDATA[
[data-mouse-over-selected='false'] { opacity: 0.7; }
[data-mouse-over-selected='true']  { opacity: 1.0; }
]]>
</style>
<script type="application/ecmascript"><![CDATA[
document.addEventListener('DOMContentLoaded', (event) => {
  highlightEdges();
  highlightAdjacentNodes();
});
]]></script>
</svg>
