<?xml version="1.0" encoding="UTF-8" standalone="no"?>
<!DOCTYPE svg PUBLIC "-//W3C//DTD SVG 1.1//EN"
 "http://www.w3.org/Graphics/SVG/1.1/DTD/svg11.dtd">
<!-- Generated by graphviz version 12.1.2 (20240928.0832)
 -->
<!-- Title: PA1A.Items.PlayerInventory Pages: 1 -->
<!--zoomable 708 -->

<svg id="main" version="1.1" xmlns="http://www.w3.org/2000/svg" xmlns:xlink="http://www.w3.org/1999/xlink" xml:space="preserve" onload="init(evt)">

<style type="text/css"><![CDATA[
.node, .edge {opacity: 0.7;}
.node.selected, .edge.selected {opacity: 1;}
.edge:hover path { stroke: red; }
.edge:hover polygon { stroke: red; fill: red; }
]]></style>

<defs>
  <circle id="rim" cx="0" cy="0" r="7"/>
  <circle id="rim2" cx="0" cy="0" r="3.5"/>
  <g id="zoomPlus">
    <use xlink:href="#rim" fill="#404040"><set attributeName="fill" to="#808080" begin="zoomplus.mouseover" end="zoomplus.mouseout"/></use>
    <path d="M-4,0h8M0,-4v8" fill="none" stroke="white" stroke-width="1.5" pointer-events="none"/>
  </g>
  <g id="zoomMin">
    <use xlink:href="#rim" fill="#404040"><set attributeName="fill" to="#808080" begin="zoomminus.mouseover" end="zoomminus.mouseout"/></use>
    <path d="M-4,0h8" fill="none" stroke="white" stroke-width="1.5" pointer-events="none"/>
  </g>
  <g id="arrowUp" transform="translate(30 24)">
    <use xlink:href="#rim"/>
    <path pointer-events="none" fill="none" stroke="white" stroke-width="1.5" d="M0,-3.0v7 M-2.5,-0.5L0,-3.0L2.5,-0.5"/>
  </g>
  <g id="arrowRight" transform="rotate(90) translate(36 -43)">
    <use xlink:href="#rim"/>
    <path pointer-events="none" fill="none" stroke="white" stroke-width="1.5" d="M0,-3.0v7 M-2.5,-0.5L0,-3.0L2.5,-0.5"/>
  </g>
  <g id="arrowDown" transform="rotate(180) translate(-30 -48)">
    <use xlink:href="#rim"/>
    <path pointer-events="none" fill="none" stroke="white" stroke-width="1.5" d="M0,-3.0v7 M-2.5,-0.5L0,-3.0L2.5,-0.5"/>
  </g>
  <g id="arrowLeft" transform="rotate(270) translate(-36 17)">
    <use xlink:href="#rim"/>
    <path pointer-events="none" fill="none" stroke="white" stroke-width="1.5" d="M0,-3.0v7 M-2.5,-0.5L0,-3.0L2.5,-0.5"/>
  </g>
  <g id="resetDef">
    <use xlink:href="#rim2" fill="#404040"><set attributeName="fill" to="#808080" begin="reset.mouseover" end="reset.mouseout"/></use>
  </g>
</defs>
<script type="application/ecmascript">
var viewWidth = 266;
var viewHeight = 708;
var sectionId = 'dynsection-0';
</script>
<script type="application/ecmascript" xlink:href="svg.min.js"/>
<svg id="graph" class="graph">
<g id="viewport">
<title>PA1A.Items.PlayerInventory</title>
<!-- Node1 -->
<g id="Node000001" class="node">
<title>Node1</title>
<g id="a_Node000001"><a xlink:title="Fixed size IContainer with fixed number of ISlot">
<polygon fill="#999999" stroke="none" points="180.5,-100 47.5,-100 47.5,0 180.5,0 180.5,-100"/>
<text text-anchor="start" x="52.12" y="-86.5" font-family="Helvetica,sans-Serif" font-size="10.00">PA1A.Items.PlayerInventory</text>
<text text-anchor="start" x="112.5" y="-70.5" font-family="Helvetica,sans-Serif" font-size="10.00"> </text>
<text text-anchor="start" x="59" y="-54.5" font-family="Helvetica,sans-Serif" font-size="10.00">+</text>
<text text-anchor="start" x="76.5" y="-54.5" font-family="Helvetica,sans-Serif" font-size="10.00">OnNetworkSpawn()</text>
<text text-anchor="start" x="59" y="-38.5" font-family="Helvetica,sans-Serif" font-size="10.00">+</text>
<text text-anchor="start" x="76.5" y="-38.5" font-family="Helvetica,sans-Serif" font-size="10.00">Give()</text>
<text text-anchor="start" x="59" y="-22.5" font-family="Helvetica,sans-Serif" font-size="10.00">+</text>
<text text-anchor="start" x="76.5" y="-22.5" font-family="Helvetica,sans-Serif" font-size="10.00">Take()</text>
<text text-anchor="start" x="59" y="-6.5" font-family="Helvetica,sans-Serif" font-size="10.00">+</text>
<text text-anchor="start" x="76.5" y="-6.5" font-family="Helvetica,sans-Serif" font-size="10.00">Clear()</text>
<polygon fill="#666666" stroke="#666666" points="47.5,-82 47.5,-82 180.5,-82 180.5,-82 47.5,-82"/>
<polygon fill="#666666" stroke="#666666" points="47.5,-66 47.5,-66 180.5,-66 180.5,-66 47.5,-66"/>
<polygon fill="none" stroke="#666666" points="47.5,0 47.5,-100 180.5,-100 180.5,0 47.5,0"/>
</a>
</g>
</g>
<!-- Node2 -->
<g id="Node000002" class="node">
<title>Node2</title>
<g id="a_Node000002"><a xlink:href="class_p_a1_a_1_1_items_1_1_container.html" target="_top" xlink:title=" ">
<polygon fill="white" stroke="none" points="171,-412 57,-412 57,-136 171,-136 171,-412"/>
<text text-anchor="start" x="93" y="-398.5" font-family="Helvetica,sans-Serif" font-size="10.00">Container</text>
<text text-anchor="start" x="61" y="-382.5" font-family="Helvetica,sans-Serif" font-size="10.00">+</text>
<text text-anchor="start" x="71" y="-382.5" font-family="Helvetica,sans-Serif" font-size="10.00">Size</text>
<text text-anchor="start" x="61" y="-366.5" font-family="Helvetica,sans-Serif" font-size="10.00">+</text>
<text text-anchor="start" x="71" y="-366.5" font-family="Helvetica,sans-Serif" font-size="10.00">this[int i]</text>
<text text-anchor="start" x="61" y="-350.5" font-family="Helvetica,sans-Serif" font-size="10.00">+</text>
<text text-anchor="start" x="71" y="-350.5" font-family="Helvetica,sans-Serif" font-size="10.00">GetSlot()</text>
<text text-anchor="start" x="61" y="-334.5" font-family="Helvetica,sans-Serif" font-size="10.00">+</text>
<text text-anchor="start" x="71" y="-334.5" font-family="Helvetica,sans-Serif" font-size="10.00">OnNetworkSpawn()</text>
<text text-anchor="start" x="61" y="-318.5" font-family="Helvetica,sans-Serif" font-size="10.00">+</text>
<text text-anchor="start" x="71" y="-318.5" font-family="Helvetica,sans-Serif" font-size="10.00">OnNetworkDespawn()</text>
<text text-anchor="start" x="61" y="-302.5" font-family="Helvetica,sans-Serif" font-size="10.00">+</text>
<text text-anchor="start" x="71" y="-302.5" font-family="Helvetica,sans-Serif" font-size="10.00">Give()</text>
<text text-anchor="start" x="61" y="-286.5" font-family="Helvetica,sans-Serif" font-size="10.00">+</text>
<text text-anchor="start" x="71" y="-286.5" font-family="Helvetica,sans-Serif" font-size="10.00">Take()</text>
<text text-anchor="start" x="61" y="-270.5" font-family="Helvetica,sans-Serif" font-size="10.00">+</text>
<text text-anchor="start" x="71" y="-270.5" font-family="Helvetica,sans-Serif" font-size="10.00">Take()</text>
<text text-anchor="start" x="61" y="-254.5" font-family="Helvetica,sans-Serif" font-size="10.00">+</text>
<text text-anchor="start" x="71" y="-254.5" font-family="Helvetica,sans-Serif" font-size="10.00">CanBeGiven()</text>
<text text-anchor="start" x="61" y="-238.5" font-family="Helvetica,sans-Serif" font-size="10.00">+</text>
<text text-anchor="start" x="71" y="-238.5" font-family="Helvetica,sans-Serif" font-size="10.00">CanBeTaken()</text>
<text text-anchor="start" x="61" y="-222.5" font-family="Helvetica,sans-Serif" font-size="10.00">+</text>
<text text-anchor="start" x="71" y="-222.5" font-family="Helvetica,sans-Serif" font-size="10.00">Clear()</text>
<text text-anchor="start" x="61.38" y="-206.5" font-family="Helvetica,sans-Serif" font-size="10.00">#</text>
<text text-anchor="start" x="71" y="-206.5" font-family="Helvetica,sans-Serif" font-size="10.00">Awake()</text>
<text text-anchor="start" x="61.38" y="-190.5" font-family="Helvetica,sans-Serif" font-size="10.00">#</text>
<text text-anchor="start" x="71" y="-190.5" font-family="Helvetica,sans-Serif" font-size="10.00">OnContainerUpdate()</text>
<text text-anchor="start" x="61.38" y="-174.5" font-family="Helvetica,sans-Serif" font-size="10.00">#</text>
<text text-anchor="start" x="71" y="-174.5" font-family="Helvetica,sans-Serif" font-size="10.00">AddSlot()</text>
<text text-anchor="start" x="61.38" y="-158.5" font-family="Helvetica,sans-Serif" font-size="10.00">#</text>
<text text-anchor="start" x="71" y="-158.5" font-family="Helvetica,sans-Serif" font-size="10.00">RemoveSlot()</text>
<text text-anchor="start" x="61.38" y="-142.5" font-family="Helvetica,sans-Serif" font-size="10.00">#</text>
<text text-anchor="start" x="71" y="-142.5" font-family="Helvetica,sans-Serif" font-size="10.00">ClearSlots()</text>
<polygon fill="#666666" stroke="#666666" points="57,-394 57,-394 171,-394 171,-394 57,-394"/>
<polygon fill="#666666" stroke="#666666" points="57,-362 57,-362 69,-362 69,-362 57,-362"/>
<polygon fill="#666666" stroke="#666666" points="69,-362 69,-362 171,-362 171,-362 69,-362"/>
<polygon fill="none" stroke="#666666" points="57,-136 57,-412 171,-412 171,-136 57,-136"/>
</a>
</g>
</g>
<!-- Node2&#45;&gt;Node1 -->
<g id="edge1_Node000001_Node000002" class="edge">
<title>Node2&#45;&gt;Node1</title>
<g id="a_edge1_Node000001_Node000002"><a xlink:title=" ">
<path fill="none" stroke="#63b8ff" d="M114,-124.9C114,-116.12 114,-107.68 114,-99.86"/>
<polygon fill="none" stroke="#63b8ff" points="110.5,-124.68 114,-134.68 117.5,-124.68 110.5,-124.68"/>
</a>
</g>
</g>
<!-- Node3 -->
<g id="Node000003" class="node">
<title>Node3</title>
<g id="a_Node000003"><a xlink:href="class_network_behaviour.html" target="_top" xlink:title=" ">
<polygon fill="white" stroke="none" points="90,-516 0,-516 0,-464 90,-464 90,-516"/>
<text text-anchor="start" x="4.88" y="-502.5" font-family="Helvetica,sans-Serif" font-size="10.00">NetworkBehaviour</text>
<text text-anchor="start" x="43.5" y="-486.5" font-family="Helvetica,sans-Serif" font-size="10.00"> </text>
<text text-anchor="start" x="43.5" y="-470.5" font-family="Helvetica,sans-Serif" font-size="10.00"> </text>
<polygon fill="#666666" stroke="#666666" points="0,-498 0,-498 90,-498 90,-498 0,-498"/>
<polygon fill="#666666" stroke="#666666" points="0,-482 0,-482 90,-482 90,-482 0,-482"/>
<polygon fill="none" stroke="#666666" points="0,-464 0,-516 90,-516 90,-464 0,-464"/>
</a>
</g>
</g>
<!-- Node3&#45;&gt;Node2 -->
<g id="edge2_Node000002_Node000003" class="edge">
<title>Node3&#45;&gt;Node2</title>
<g id="a_edge2_Node000002_Node000003"><a xlink:title=" ">
<path fill="none" stroke="#63b8ff" d="M56.55,-453.17C60.45,-441.09 65.06,-426.79 69.94,-411.63"/>
<polygon fill="none" stroke="#63b8ff" points="53.25,-452 53.51,-462.59 59.91,-454.15 53.25,-452"/>
</a>
</g>
</g>
<!-- Node4 -->
<g id="Node000004" class="node">
<title>Node4</title>
<g id="a_Node000004"><a xlink:href="interface_p_a1_a_1_1_items_1_1_i_container.html" target="_top" xlink:title=" ">
<polygon fill="white" stroke="none" points="257.5,-532 108.5,-532 108.5,-448 257.5,-448 257.5,-532"/>
<text text-anchor="start" x="160.5" y="-518.5" font-family="Helvetica,sans-Serif" font-size="10.00">IContainer</text>
<text text-anchor="start" x="112.5" y="-502.5" font-family="Helvetica,sans-Serif" font-size="10.00">+</text>
<text text-anchor="start" x="122.5" y="-502.5" font-family="Helvetica,sans-Serif" font-size="10.00">Size</text>
<text text-anchor="start" x="112.5" y="-486.5" font-family="Helvetica,sans-Serif" font-size="10.00">+</text>
<text text-anchor="start" x="122.5" y="-486.5" font-family="Helvetica,sans-Serif" font-size="10.00">this[int i]</text>
<text text-anchor="start" x="112.5" y="-470.5" font-family="Helvetica,sans-Serif" font-size="10.00">+</text>
<text text-anchor="start" x="122.5" y="-470.5" font-family="Helvetica,sans-Serif" font-size="10.00">GetSlot()</text>
<text text-anchor="start" x="112.5" y="-454.5" font-family="Helvetica,sans-Serif" font-size="10.00">+</text>
<text text-anchor="start" x="122.5" y="-454.5" font-family="Helvetica,sans-Serif" font-size="10.00">OnContainerUpdateDelegate()</text>
<polygon fill="#666666" stroke="#666666" points="108.5,-514 108.5,-514 257.5,-514 257.5,-514 108.5,-514"/>
<polygon fill="#666666" stroke="#666666" points="108.5,-482 108.5,-482 120.5,-482 120.5,-482 108.5,-482"/>
<polygon fill="#666666" stroke="#666666" points="120.5,-482 120.5,-482 257.5,-482 257.5,-482 120.5,-482"/>
<polygon fill="none" stroke="#666666" points="108.5,-448 108.5,-532 257.5,-532 257.5,-448 108.5,-448"/>
</a>
</g>
</g>
<!-- Node4&#45;&gt;Node2 -->
<g id="edge3_Node000002_Node000004" class="edge">
<title>Node4&#45;&gt;Node2</title>
<g id="a_edge3_Node000002_Node000004"><a xlink:title=" ">
<path fill="none" stroke="#63b8ff" d="M166.34,-437.32C163.75,-429.3 160.98,-420.71 158.12,-411.82"/>
<polygon fill="none" stroke="#63b8ff" points="162.99,-438.36 169.39,-446.8 169.66,-436.21 162.99,-438.36"/>
</a>
</g>
</g>
<!-- Node5 -->
<g id="Node000005" class="node">
<title>Node5</title>
<g id="a_Node000005"><a xlink:href="interface_p_a1_a_1_1_items_1_1_i_stack_container.html" target="_top" xlink:title=" ">
<polygon fill="white" stroke="none" points="223,-700 143,-700 143,-568 223,-568 223,-700"/>
<text text-anchor="start" x="147.75" y="-686.5" font-family="Helvetica,sans-Serif" font-size="10.00">IStackContainer</text>
<text text-anchor="start" x="181.5" y="-670.5" font-family="Helvetica,sans-Serif" font-size="10.00"> </text>
<text text-anchor="start" x="147" y="-654.5" font-family="Helvetica,sans-Serif" font-size="10.00">+</text>
<text text-anchor="start" x="157" y="-654.5" font-family="Helvetica,sans-Serif" font-size="10.00">Give()</text>
<text text-anchor="start" x="147" y="-638.5" font-family="Helvetica,sans-Serif" font-size="10.00">+</text>
<text text-anchor="start" x="157" y="-638.5" font-family="Helvetica,sans-Serif" font-size="10.00">Take()</text>
<text text-anchor="start" x="147" y="-622.5" font-family="Helvetica,sans-Serif" font-size="10.00">+</text>
<text text-anchor="start" x="157" y="-622.5" font-family="Helvetica,sans-Serif" font-size="10.00">Take()</text>
<text text-anchor="start" x="147" y="-606.5" font-family="Helvetica,sans-Serif" font-size="10.00">+</text>
<text text-anchor="start" x="157" y="-606.5" font-family="Helvetica,sans-Serif" font-size="10.00">CanBeGiven()</text>
<text text-anchor="start" x="147" y="-590.5" font-family="Helvetica,sans-Serif" font-size="10.00">+</text>
<text text-anchor="start" x="157" y="-590.5" font-family="Helvetica,sans-Serif" font-size="10.00">CanBeTaken()</text>
<text text-anchor="start" x="147" y="-574.5" font-family="Helvetica,sans-Serif" font-size="10.00">+</text>
<text text-anchor="start" x="157" y="-574.5" font-family="Helvetica,sans-Serif" font-size="10.00">Clear()</text>
<polygon fill="#666666" stroke="#666666" points="143,-682 143,-682 223,-682 223,-682 143,-682"/>
<polygon fill="#666666" stroke="#666666" points="143,-666 143,-666 223,-666 223,-666 143,-666"/>
<polygon fill="none" stroke="#666666" points="143,-568 143,-700 223,-700 223,-568 143,-568"/>
</a>
</g>
</g>
<!-- Node5&#45;&gt;Node4 -->
<g id="edge4_Node000004_Node000005" class="edge">
<title>Node5&#45;&gt;Node4</title>
<g id="a_edge4_Node000004_Node000005"><a xlink:title=" ">
<path fill="none" stroke="#63b8ff" d="M183,-556.84C183,-548.18 183,-539.63 183,-531.7"/>
<polygon fill="none" stroke="#63b8ff" points="179.5,-556.72 183,-566.72 186.5,-556.72 179.5,-556.72"/>
</a>
</g>
</g>
</g>
</svg>

<g id="navigator" transform="translate(0 0)" fill="#404254">
  <rect fill="#f2f5e9" fill-opacity="0.5" stroke="#606060" stroke-width=".5" x="0" y="0" width="60" height="60"/>
  <use id="zoomplus" xlink:href="#zoomPlus" x="17" y="9" onmousedown="handleZoom(evt,'in')"/>
  <use id="zoomminus" xlink:href="#zoomMin" x="42" y="9" onmousedown="handleZoom(evt,'out')"/>
  <use id="reset" xlink:href="#resetDef" x="30" y="36" onmousedown="handleReset()"/>
   <use id="arrowup" xlink:href="#arrowUp" x="0" y="0" onmousedown="handlePan(0,-1)"/>
  <use id="arrowright" xlink:href="#arrowRight" x="0" y="0" onmousedown="handlePan(1,0)"/>
  <use id="arrowdown" xlink:href="#arrowDown" x="0" y="0" onmousedown="handlePan(0,1)"/>
  <use id="arrowleft" xlink:href="#arrowLeft" x="0" y="0" onmousedown="handlePan(-1,0)"/>
</g>
<svg viewBox="0 0 15 15" width="100%" height="30px" preserveAspectRatio="xMaxYMin meet">
 <g id="arrow_out" transform="scale(0.3 0.3)">
  <a xlink:href="class_p_a1_a_1_1_items_1_1_player_inventory__inherit__graph_org.svg" target="_base">
   <rect id="button" ry="5" rx="5" y="6" x="6" height="38" width="38"
        fill="#f2f5e9" fill-opacity="0.5" stroke="#606060" stroke-width="1.0"/>
   <path id="arrow"
     d="M 11.500037,31.436501 C 11.940474,20.09759 22.043105,11.32322 32.158766,21.979434 L 37.068811,17.246167 C 37.068811,17.246167 37.088388,32 37.088388,32 L 22.160133,31.978069 C 22.160133,31.978069 26.997745,27.140456 26.997745,27.140456 C 18.528582,18.264221 13.291696,25.230495 11.500037,31.436501 z"
     style="fill:#404040;"/>
  </a>
 </g>
</svg>

<style type='text/css'>
<![CDATA[
[data-mouse-over-selected='false'] { opacity: 0.7; }
[data-mouse-over-selected='true']  { opacity: 1.0; }
]]>
</style>
<script type="application/ecmascript"><![CDATA[
document.addEventListener('DOMContentLoaded', (event) => {
  highlightEdges();
  highlightAdjacentNodes();
});
]]></script>
</svg>
