<?xml version="1.0" encoding="UTF-8" standalone="no"?>
<!DOCTYPE svg PUBLIC "-//W3C//DTD SVG 1.1//EN"
 "http://www.w3.org/Graphics/SVG/1.1/DTD/svg11.dtd">
<!-- Generated by graphviz version 12.1.2 (20240928.0832)
 -->
<!-- Title: PA1A.Items.ConsumableItem.Process Pages: 1 -->
<svg width="500pt" height="40pt"
 viewBox="0.00 0.00 500.00 40.00" xmlns="http://www.w3.org/2000/svg" xmlns:xlink="http://www.w3.org/1999/xlink">
<g id="graph0" class="graph" transform="scale(1 1) rotate(0) translate(4 36)">
<title>PA1A.Items.ConsumableItem.Process</title>
<!-- Node1 -->
<g id="Node000001" class="node">
<title>Node1</title>
<g id="a_Node000001"><a xlink:title=" ">
<polygon fill="#999999" stroke="#666666" points="148.75,-32 0,-32 0,0 148.75,0 148.75,-32"/>
<text text-anchor="start" x="8" y="-18.5" font-family="Helvetica,sans-Serif" font-size="10.00">PA1A.Items.ConsumableItem.</text>
<text text-anchor="middle" x="74.38" y="-6.5" font-family="Helvetica,sans-Serif" font-size="10.00">Process</text>
</a>
</g>
</g>
<!-- Node2 -->
<g id="Node000002" class="node">
<title>Node2</title>
<g id="a_Node000002"><a xlink:href="class_character.html#ae86d926040b885b14ecf48cc3b49d521" target="_top" xlink:title=" ">
<polygon fill="white" stroke="#666666" points="309.5,-26 184.75,-26 184.75,-6 309.5,-6 309.5,-26"/>
<text text-anchor="middle" x="247.12" y="-12.5" font-family="Helvetica,sans-Serif" font-size="10.00">Character.ProcessAbility</text>
</a>
</g>
</g>
<!-- Node1&#45;&gt;Node2 -->
<g id="edge1_Node000001_Node000002" class="edge">
<title>Node1&#45;&gt;Node2</title>
<g id="a_edge1_Node000001_Node000002"><a xlink:title=" ">
<path fill="none" stroke="#63b8ff" d="M148.78,-16C156.83,-16 165.02,-16 173.06,-16"/>
<polygon fill="#63b8ff" stroke="#63b8ff" points="172.79,-19.5 182.79,-16 172.79,-12.5 172.79,-19.5"/>
</a>
</g>
</g>
<!-- Node3 -->
<g id="Node000003" class="node">
<title>Node3</title>
<g id="a_Node000003"><a xlink:href="class_p_a1_a_1_1_abilities_1_1_ability.html#ad702dbc11d2e3e4e8403462a6179e07c" target="_top" xlink:title="Process the ability on the specified target.">
<polygon fill="white" stroke="#666666" points="492,-26 345.5,-26 345.5,-6 492,-6 492,-26"/>
<text text-anchor="middle" x="418.75" y="-12.5" font-family="Helvetica,sans-Serif" font-size="10.00">PA1A.Abilities.Ability.Process</text>
</a>
</g>
</g>
<!-- Node2&#45;&gt;Node3 -->
<g id="edge2_Node000002_Node000003" class="edge">
<title>Node2&#45;&gt;Node3</title>
<g id="a_edge2_Node000002_Node000003"><a xlink:title=" ">
<path fill="none" stroke="#63b8ff" d="M309.84,-16C317.63,-16 325.71,-16 333.77,-16"/>
<polygon fill="#63b8ff" stroke="#63b8ff" points="333.61,-19.5 343.61,-16 333.61,-12.5 333.61,-19.5"/>
</a>
</g>
</g>
</g>
</svg>
