<?xml version="1.0" encoding="UTF-8" standalone="no"?>
<!DOCTYPE svg PUBLIC "-//W3C//DTD SVG 1.1//EN"
 "http://www.w3.org/Graphics/SVG/1.1/DTD/svg11.dtd">
<!-- Generated by graphviz version 12.1.2 (20240928.0832)
 -->
<!-- Title: PA1A.Building.BuildingPlacer Pages: 1 -->
<svg width="145pt" height="224pt"
 viewBox="0.00 0.00 145.00 224.00" xmlns="http://www.w3.org/2000/svg" xmlns:xlink="http://www.w3.org/1999/xlink">

<svg id="main" version="1.1" xmlns="http://www.w3.org/2000/svg" xmlns:xlink="http://www.w3.org/1999/xlink" xml:space="preserve">

<style type="text/css"><![CDATA[
.node, .edge {opacity: 0.7;}
.node.selected, .edge.selected {opacity: 1;}
.edge:hover path { stroke: red; }
.edge:hover polygon { stroke: red; fill: red; }
]]></style>
<script type="application/ecmascript" xlink:href="svg.min.js"/>
<svg id="graph" class="graph">
<g id="graph0" class="graph" transform="scale(1 1) rotate(0) translate(4 220)">
<title>PA1A.Building.BuildingPlacer</title>
<!-- Node1 -->
<g id="Node000001" class="node">
<title>Node1</title>
<g id="a_Node000001"><a xlink:title="Represents a class responsible for placing and removing objects in the game.">
<polygon fill="#999999" stroke="none" points="137,-84 0,-84 0,0 137,0 137,-84"/>
<text text-anchor="start" x="4.75" y="-70.5" font-family="Helvetica,sans-Serif" font-size="10.00">PA1A.Building.BuildingPlacer</text>
<text text-anchor="start" x="67" y="-54.5" font-family="Helvetica,sans-Serif" font-size="10.00"> </text>
<text text-anchor="start" x="9" y="-38.5" font-family="Helvetica,sans-Serif" font-size="10.00">+</text>
<text text-anchor="start" x="24" y="-38.5" font-family="Helvetica,sans-Serif" font-size="10.00">OnEnable()</text>
<text text-anchor="start" x="9" y="-22.5" font-family="Helvetica,sans-Serif" font-size="10.00">+</text>
<text text-anchor="start" x="24" y="-22.5" font-family="Helvetica,sans-Serif" font-size="10.00">PlaceObjectRpc()</text>
<text text-anchor="start" x="9" y="-6.5" font-family="Helvetica,sans-Serif" font-size="10.00">~</text>
<text text-anchor="start" x="24" y="-6.5" font-family="Helvetica,sans-Serif" font-size="10.00">RemoveObjectAtRpc()</text>
<polygon fill="#666666" stroke="#666666" points="0,-66 0,-66 137,-66 137,-66 0,-66"/>
<polygon fill="#666666" stroke="#666666" points="0,-50 0,-50 137,-50 137,-50 0,-50"/>
<polygon fill="none" stroke="#666666" points="0,0 0,-84 137,-84 137,0 0,0"/>
</a>
</g>
</g>
<!-- Node2 -->
<g id="Node000002" class="node">
<title>Node2</title>
<g id="a_Node000002"><a xlink:href="class_network_singleton.html" target="_top" xlink:title=" ">
<polygon fill="white" stroke="none" points="133.5,-216 3.5,-216 3.5,-120 133.5,-120 133.5,-216"/>
<text text-anchor="start" x="8.12" y="-202.5" font-family="Helvetica,sans-Serif" font-size="10.00">NetworkSingleton&lt; Building</text>
<text text-anchor="start" x="50.12" y="-190.5" font-family="Helvetica,sans-Serif" font-size="10.00">Placer &gt;</text>
<text text-anchor="start" x="22" y="-174.5" font-family="Helvetica,sans-Serif" font-size="10.00">+</text>
<text text-anchor="start" x="46.5" y="-174.5" font-family="Helvetica,sans-Serif" font-size="10.00">Instance</text>
<text text-anchor="start" x="22" y="-158.5" font-family="Helvetica,sans-Serif" font-size="10.00">+</text>
<text text-anchor="start" x="46.5" y="-158.5" font-family="Helvetica,sans-Serif" font-size="10.00">Awake()</text>
<text text-anchor="start" x="22" y="-142.5" font-family="Helvetica,sans-Serif" font-size="10.00">+</text>
<text text-anchor="start" x="46.5" y="-142.5" font-family="Helvetica,sans-Serif" font-size="10.00">OnDestroy()</text>
<text text-anchor="start" x="22" y="-126.5" font-family="Helvetica,sans-Serif" font-size="10.00">+</text>
<text text-anchor="start" x="46.5" y="-126.5" font-family="Helvetica,sans-Serif" font-size="10.00">OnEnable()</text>
<polygon fill="#666666" stroke="#666666" points="3.5,-186 3.5,-186 133.5,-186 133.5,-186 3.5,-186"/>
<polygon fill="#666666" stroke="#666666" points="3.5,-170 3.5,-170 44.5,-170 44.5,-170 3.5,-170"/>
<polygon fill="#666666" stroke="#666666" points="44.5,-170 44.5,-170 133.5,-170 133.5,-170 44.5,-170"/>
<polygon fill="none" stroke="#666666" points="3.5,-120 3.5,-216 133.5,-216 133.5,-120 3.5,-120"/>
</a>
</g>
</g>
<!-- Node2&#45;&gt;Node1 -->
<g id="edge1_Node000001_Node000002" class="edge">
<title>Node2&#45;&gt;Node1</title>
<g id="a_edge1_Node000001_Node000002"><a xlink:title=" ">
<path fill="none" stroke="#63b8ff" d="M68.5,-108.76C68.5,-100.34 68.5,-91.83 68.5,-83.85"/>
<polygon fill="none" stroke="#63b8ff" points="65,-108.61 68.5,-118.61 72,-108.61 65,-108.61"/>
</a>
</g>
</g>
</g>
</svg>
</svg>

<style type='text/css'>
<![CDATA[
[data-mouse-over-selected='false'] { opacity: 0.7; }
[data-mouse-over-selected='true']  { opacity: 1.0; }
]]>
</style>
<script type="application/ecmascript"><![CDATA[
document.addEventListener('DOMContentLoaded', (event) => {
  highlightEdges();
  highlightAdjacentNodes();
});
]]></script>
</svg>
