<?xml version="1.0" encoding="UTF-8" standalone="no"?>
<!DOCTYPE svg PUBLIC "-//W3C//DTD SVG 1.1//EN"
 "http://www.w3.org/Graphics/SVG/1.1/DTD/svg11.dtd">
<!-- Generated by graphviz version 12.1.2 (20240928.0832)
 -->
<!-- Title: CodeSmile.Statemachine.Services.Relay.Actions.RelayCreateOrJoinAllocation Pages: 1 -->
<svg width="207pt" height="416pt"
 viewBox="0.00 0.00 207.00 416.00" xmlns="http://www.w3.org/2000/svg" xmlns:xlink="http://www.w3.org/1999/xlink">
<g id="graph0" class="graph" transform="scale(1 1) rotate(0) translate(4 412)">
<title>CodeSmile.Statemachine.Services.Relay.Actions.RelayCreateOrJoinAllocation</title>
<!-- Node1 -->
<g id="Node000001" class="node">
<title>Node1</title>
<g id="a_Node000001"><a xlink:title="Initializes Relay.">
<polygon fill="#999999" stroke="none" points="199,-80 0,-80 0,0 199,0 199,-80"/>
<text text-anchor="start" x="4.62" y="-66.5" font-family="Helvetica,sans-Serif" font-size="10.00">CodeSmile.Statemachine.Services.</text>
<text text-anchor="start" x="4.62" y="-54.5" font-family="Helvetica,sans-Serif" font-size="10.00">Relay.Actions.RelayCreateOrJoinAllocation</text>
<text text-anchor="start" x="98" y="-38.5" font-family="Helvetica,sans-Serif" font-size="10.00"> </text>
<text text-anchor="start" x="16" y="-22.5" font-family="Helvetica,sans-Serif" font-size="10.00">+</text>
<text text-anchor="start" x="38" y="-22.5" font-family="Helvetica,sans-Serif" font-size="10.00">RelayCreateOrJoinAllocation()</text>
<text text-anchor="start" x="16" y="-6.5" font-family="Helvetica,sans-Serif" font-size="10.00">+</text>
<text text-anchor="start" x="38" y="-6.5" font-family="Helvetica,sans-Serif" font-size="10.00">ExecuteAsync()</text>
<polygon fill="#666666" stroke="#666666" points="0,-50 0,-50 199,-50 199,-50 0,-50"/>
<polygon fill="#666666" stroke="#666666" points="0,-34 0,-34 199,-34 199,-34 0,-34"/>
<polygon fill="none" stroke="#666666" points="0,0 0,-80 199,-80 199,0 0,0"/>
</a>
</g>
</g>
<!-- Node2 -->
<g id="Node000002" class="node">
<title>Node2</title>
<g id="a_Node000002"><a xlink:href="interface_code_smile_1_1_statemachine_1_1_i_async_action.html" target="_top" xlink:title="Marks a class as an asynchronous (awaitable) FSM Action.">
<polygon fill="white" stroke="none" points="143,-168 56,-168 56,-116 143,-116 143,-168"/>
<text text-anchor="start" x="70.25" y="-154.5" font-family="Helvetica,sans-Serif" font-size="10.00">IAsyncAction</text>
<text text-anchor="start" x="98" y="-138.5" font-family="Helvetica,sans-Serif" font-size="10.00"> </text>
<text text-anchor="start" x="60" y="-122.5" font-family="Helvetica,sans-Serif" font-size="10.00">+</text>
<text text-anchor="start" x="70" y="-122.5" font-family="Helvetica,sans-Serif" font-size="10.00">ExecuteAsync()</text>
<polygon fill="#666666" stroke="#666666" points="56,-150 56,-150 143,-150 143,-150 56,-150"/>
<polygon fill="#666666" stroke="#666666" points="56,-134 56,-134 143,-134 143,-134 56,-134"/>
<polygon fill="none" stroke="#666666" points="56,-116 56,-168 143,-168 143,-116 56,-116"/>
</a>
</g>
</g>
<!-- Node2&#45;&gt;Node1 -->
<g id="edge1_Node000001_Node000002" class="edge">
<title>Node2&#45;&gt;Node1</title>
<g id="a_edge1_Node000001_Node000002"><a xlink:title=" ">
<path fill="none" stroke="#63b8ff" d="M99.5,-104.61C99.5,-96.5 99.5,-87.86 99.5,-79.65"/>
<polygon fill="none" stroke="#63b8ff" points="96,-104.51 99.5,-114.51 103,-104.51 96,-104.51"/>
</a>
</g>
</g>
<!-- Node3 -->
<g id="Node000003" class="node">
<title>Node3</title>
<g id="a_Node000003"><a xlink:href="interface_code_smile_1_1_statemachine_1_1_i_action.html" target="_top" xlink:title="Marks a class as a FSM Action.">
<polygon fill="white" stroke="none" points="143.5,-272 55.5,-272 55.5,-204 143.5,-204 143.5,-272"/>
<text text-anchor="start" x="84.12" y="-258.5" font-family="Helvetica,sans-Serif" font-size="10.00">IAction</text>
<text text-anchor="start" x="98" y="-242.5" font-family="Helvetica,sans-Serif" font-size="10.00"> </text>
<text text-anchor="start" x="59.5" y="-226.5" font-family="Helvetica,sans-Serif" font-size="10.00">+</text>
<text text-anchor="start" x="69.5" y="-226.5" font-family="Helvetica,sans-Serif" font-size="10.00">Execute()</text>
<text text-anchor="start" x="59.5" y="-210.5" font-family="Helvetica,sans-Serif" font-size="10.00">+</text>
<text text-anchor="start" x="69.5" y="-210.5" font-family="Helvetica,sans-Serif" font-size="10.00">ToDebugString()</text>
<polygon fill="#666666" stroke="#666666" points="55.5,-254 55.5,-254 143.5,-254 143.5,-254 55.5,-254"/>
<polygon fill="#666666" stroke="#666666" points="55.5,-238 55.5,-238 143.5,-238 143.5,-238 55.5,-238"/>
<polygon fill="none" stroke="#666666" points="55.5,-204 55.5,-272 143.5,-272 143.5,-204 55.5,-204"/>
</a>
</g>
</g>
<!-- Node3&#45;&gt;Node2 -->
<g id="edge2_Node000002_Node000003" class="edge">
<title>Node3&#45;&gt;Node2</title>
<g id="a_edge2_Node000002_Node000003"><a xlink:title=" ">
<path fill="none" stroke="#63b8ff" d="M99.5,-192.62C99.5,-184.05 99.5,-175.37 99.5,-167.71"/>
<polygon fill="none" stroke="#63b8ff" points="96,-192.61 99.5,-202.61 103,-192.61 96,-192.61"/>
</a>
</g>
</g>
<!-- Node4 -->
<g id="Node000004" class="node">
<title>Node4</title>
<g id="a_Node000004"><a xlink:href="interface_code_smile_1_1_statemachine_1_1_i_statemachine_events.html" target="_top" xlink:title="Event methods that the Statemachine calls at specific times.">
<polygon fill="white" stroke="none" points="151,-408 48,-408 48,-308 151,-308 151,-408"/>
<text text-anchor="start" x="52.62" y="-394.5" font-family="Helvetica,sans-Serif" font-size="10.00">IStatemachineEvents</text>
<text text-anchor="start" x="98" y="-378.5" font-family="Helvetica,sans-Serif" font-size="10.00"> </text>
<text text-anchor="start" x="57" y="-362.5" font-family="Helvetica,sans-Serif" font-size="10.00">+</text>
<text text-anchor="start" x="72" y="-362.5" font-family="Helvetica,sans-Serif" font-size="10.00">OnStart()</text>
<text text-anchor="start" x="57" y="-346.5" font-family="Helvetica,sans-Serif" font-size="10.00">+</text>
<text text-anchor="start" x="72" y="-346.5" font-family="Helvetica,sans-Serif" font-size="10.00">OnStop()</text>
<text text-anchor="start" x="57" y="-330.5" font-family="Helvetica,sans-Serif" font-size="10.00">+</text>
<text text-anchor="start" x="72" y="-330.5" font-family="Helvetica,sans-Serif" font-size="10.00">OnEnterState()</text>
<text text-anchor="start" x="57" y="-314.5" font-family="Helvetica,sans-Serif" font-size="10.00">+</text>
<text text-anchor="start" x="72" y="-314.5" font-family="Helvetica,sans-Serif" font-size="10.00">OnExitState()</text>
<polygon fill="#666666" stroke="#666666" points="48,-390 48,-390 151,-390 151,-390 48,-390"/>
<polygon fill="#666666" stroke="#666666" points="48,-374 48,-374 151,-374 151,-374 48,-374"/>
<polygon fill="none" stroke="#666666" points="48,-308 48,-408 151,-408 151,-308 48,-308"/>
</a>
</g>
</g>
<!-- Node4&#45;&gt;Node3 -->
<g id="edge3_Node000003_Node000004" class="edge">
<title>Node4&#45;&gt;Node3</title>
<g id="a_edge3_Node000003_Node000004"><a xlink:title=" ">
<path fill="none" stroke="#63b8ff" d="M99.5,-296.96C99.5,-288.28 99.5,-279.62 99.5,-271.75"/>
<polygon fill="none" stroke="#63b8ff" points="96,-296.81 99.5,-306.81 103,-296.81 96,-296.81"/>
</a>
</g>
</g>
</g>
</svg>
