<?xml version="1.0" encoding="UTF-8" standalone="no"?>
<!DOCTYPE svg PUBLIC "-//W3C//DTD SVG 1.1//EN"
 "http://www.w3.org/Graphics/SVG/1.1/DTD/svg11.dtd">
<!-- Generated by graphviz version 12.1.2 (20240928.0832)
 -->
<!-- Title: PA1A.Items.UI.ClassicSlotUI.Refresh Pages: 1 -->
<svg width="367pt" height="78pt"
 viewBox="0.00 0.00 367.00 78.00" xmlns="http://www.w3.org/2000/svg" xmlns:xlink="http://www.w3.org/1999/xlink">
<g id="graph0" class="graph" transform="scale(1 1) rotate(0) translate(4 74)">
<title>PA1A.Items.UI.ClassicSlotUI.Refresh</title>
<!-- Node1 -->
<g id="Node000001" class="node">
<title>Node1</title>
<g id="a_Node000001"><a xlink:title="Refreshes the ISlotUI after a change of its ItemStack">
<polygon fill="#999999" stroke="#666666" points="135.25,-48 0,-48 0,-16 135.25,-16 135.25,-48"/>
<text text-anchor="start" x="8" y="-34.5" font-family="Helvetica,sans-Serif" font-size="10.00">PA1A.Items.UI.ClassicSlot</text>
<text text-anchor="middle" x="67.62" y="-22.5" font-family="Helvetica,sans-Serif" font-size="10.00">UI.Refresh</text>
</a>
</g>
</g>
<!-- Node2 -->
<g id="Node000002" class="node">
<title>Node2</title>
<g id="a_Node000002"><a xlink:href="class_p_a1_a_1_1_items_1_1_item.html#ab51c69371a0c650436ee23cbc17de18a" target="_top" xlink:title="Gets the display text for the item description.">
<polygon fill="white" stroke="#666666" points="344.75,-70 185.5,-70 185.5,-38 344.75,-38 344.75,-70"/>
<text text-anchor="start" x="193.5" y="-56.5" font-family="Helvetica,sans-Serif" font-size="10.00">PA1A.Items.Item.GetDescription</text>
<text text-anchor="middle" x="265.12" y="-44.5" font-family="Helvetica,sans-Serif" font-size="10.00">DisplayText</text>
</a>
</g>
</g>
<!-- Node1&#45;&gt;Node2 -->
<g id="edge1_Node000001_Node000002" class="edge">
<title>Node1&#45;&gt;Node2</title>
<g id="a_edge1_Node000001_Node000002"><a xlink:title=" ">
<path fill="none" stroke="#63b8ff" d="M135.63,-39.54C147.94,-40.93 160.98,-42.39 173.84,-43.84"/>
<polygon fill="#63b8ff" stroke="#63b8ff" points="173.24,-47.29 183.57,-44.94 174.02,-40.34 173.24,-47.29"/>
</a>
</g>
</g>
<!-- Node3 -->
<g id="Node000003" class="node">
<title>Node3</title>
<g id="a_Node000003"><a xlink:href="class_p_a1_a_1_1_items_1_1_item.html#a9dc4ac4d5f517148f97359359f51d1fa" target="_top" xlink:title="Gets the display text for the item name.">
<polygon fill="white" stroke="#666666" points="359,-20 171.25,-20 171.25,0 359,0 359,-20"/>
<text text-anchor="middle" x="265.12" y="-6.5" font-family="Helvetica,sans-Serif" font-size="10.00">PA1A.Items.Item.GetNameDisplayText</text>
</a>
</g>
</g>
<!-- Node1&#45;&gt;Node3 -->
<g id="edge2_Node000001_Node000003" class="edge">
<title>Node1&#45;&gt;Node3</title>
<g id="a_edge2_Node000001_Node000003"><a xlink:title=" ">
<path fill="none" stroke="#63b8ff" d="M135.63,-24.46C143.46,-23.58 151.58,-22.67 159.76,-21.74"/>
<polygon fill="#63b8ff" stroke="#63b8ff" points="159.88,-25.25 169.43,-20.66 159.1,-18.3 159.88,-25.25"/>
</a>
</g>
</g>
</g>
</svg>
