<?xml version="1.0" encoding="UTF-8" standalone="no"?>
<!DOCTYPE svg PUBLIC "-//W3C//DTD SVG 1.1//EN"
 "http://www.w3.org/Graphics/SVG/1.1/DTD/svg11.dtd">
<!-- Generated by graphviz version 12.1.2 (20240928.0832)
 -->
<!-- Title: PA1A.Items.MeleeItem Pages: 1 -->
<svg width="364pt" height="700pt"
 viewBox="0.00 0.00 364.00 700.00" xmlns="http://www.w3.org/2000/svg" xmlns:xlink="http://www.w3.org/1999/xlink">
<g id="graph0" class="graph" transform="scale(1 1) rotate(0) translate(4 696)">
<title>PA1A.Items.MeleeItem</title>
<!-- Node1 -->
<g id="Node000001" class="node">
<title>Node1</title>
<g id="a_Node000001"><a xlink:title="Represents a melee weapon item in the game.">
<polygon fill="#999999" stroke="none" points="227.5,-68 116.5,-68 116.5,0 227.5,0 227.5,-68"/>
<text text-anchor="start" x="121.38" y="-54.5" font-family="Helvetica,sans-Serif" font-size="10.00">PA1A.Items.MeleeItem</text>
<text text-anchor="start" x="128" y="-38.5" font-family="Helvetica,sans-Serif" font-size="10.00">+</text>
<text text-anchor="start" x="145.5" y="-38.5" font-family="Helvetica,sans-Serif" font-size="10.00">sweepAngle</text>
<text text-anchor="start" x="128" y="-22.5" font-family="Helvetica,sans-Serif" font-size="10.00">+</text>
<text text-anchor="start" x="145.5" y="-22.5" font-family="Helvetica,sans-Serif" font-size="10.00">weaponRange</text>
<text text-anchor="start" x="128" y="-6.5" font-family="Helvetica,sans-Serif" font-size="10.00">+</text>
<text text-anchor="start" x="145.5" y="-6.5" font-family="Helvetica,sans-Serif" font-size="10.00">Process()</text>
<polygon fill="#666666" stroke="#666666" points="116.5,-50 116.5,-50 227.5,-50 227.5,-50 116.5,-50"/>
<polygon fill="#666666" stroke="#666666" points="116.5,-18 116.5,-18 143.5,-18 143.5,-18 116.5,-18"/>
<polygon fill="#666666" stroke="#666666" points="143.5,-18 143.5,-18 227.5,-18 227.5,-18 143.5,-18"/>
<polygon fill="none" stroke="#666666" points="116.5,0 116.5,-68 227.5,-68 227.5,0 116.5,0"/>
</a>
</g>
</g>
<!-- Node2 -->
<g id="Node000002" class="node">
<title>Node2</title>
<g id="a_Node000002"><a xlink:href="class_p_a1_a_1_1_items_1_1_weapon_item.html" target="_top" xlink:title="Represents an abstract base class for weapon items in the game.">
<polygon fill="white" stroke="none" points="215,-156 129,-156 129,-104 215,-104 215,-156"/>
<text text-anchor="start" x="144.62" y="-142.5" font-family="Helvetica,sans-Serif" font-size="10.00">WeaponItem</text>
<text text-anchor="start" x="133" y="-126.5" font-family="Helvetica,sans-Serif" font-size="10.00">+</text>
<text text-anchor="start" x="143" y="-126.5" font-family="Helvetica,sans-Serif" font-size="10.00">weaponAbilities</text>
<text text-anchor="start" x="170.5" y="-110.5" font-family="Helvetica,sans-Serif" font-size="10.00"> </text>
<polygon fill="#666666" stroke="#666666" points="129,-138 129,-138 215,-138 215,-138 129,-138"/>
<polygon fill="#666666" stroke="#666666" points="129,-122 129,-122 141,-122 141,-122 129,-122"/>
<polygon fill="#666666" stroke="#666666" points="141,-122 141,-122 215,-122 215,-122 141,-122"/>
<polygon fill="none" stroke="#666666" points="129,-104 129,-156 215,-156 215,-104 129,-104"/>
</a>
</g>
</g>
<!-- Node2&#45;&gt;Node1 -->
<g id="edge1_Node000001_Node000002" class="edge">
<title>Node2&#45;&gt;Node1</title>
<g id="a_edge1_Node000001_Node000002"><a xlink:title=" ">
<path fill="none" stroke="#63b8ff" d="M172,-92.97C172,-84.65 172,-75.84 172,-67.67"/>
<polygon fill="none" stroke="#63b8ff" points="168.5,-92.79 172,-102.79 175.5,-92.79 168.5,-92.79"/>
</a>
</g>
</g>
<!-- Node3 -->
<g id="Node000003" class="node">
<title>Node3</title>
<g id="a_Node000003"><a xlink:href="class_p_a1_a_1_1_items_1_1_inventory_item.html" target="_top" xlink:title="Represents an abstract base class for items in the game that can be stored in an inventory.">
<polygon fill="white" stroke="none" points="242.5,-340 101.5,-340 101.5,-192 242.5,-192 242.5,-340"/>
<text text-anchor="start" x="142" y="-326.5" font-family="Helvetica,sans-Serif" font-size="10.00">InventoryItem</text>
<text text-anchor="start" x="105.5" y="-310.5" font-family="Helvetica,sans-Serif" font-size="10.00">+</text>
<text text-anchor="start" x="115.5" y="-310.5" font-family="Helvetica,sans-Serif" font-size="10.00">ColoredName</text>
<text text-anchor="start" x="105.5" y="-294.5" font-family="Helvetica,sans-Serif" font-size="10.00">+</text>
<text text-anchor="start" x="115.5" y="-294.5" font-family="Helvetica,sans-Serif" font-size="10.00">Value</text>
<text text-anchor="start" x="105.5" y="-278.5" font-family="Helvetica,sans-Serif" font-size="10.00">+</text>
<text text-anchor="start" x="115.5" y="-278.5" font-family="Helvetica,sans-Serif" font-size="10.00">Rarity</text>
<text text-anchor="start" x="105.5" y="-262.5" font-family="Helvetica,sans-Serif" font-size="10.00">+</text>
<text text-anchor="start" x="115.5" y="-262.5" font-family="Helvetica,sans-Serif" font-size="10.00">ItemPrefab</text>
<text text-anchor="start" x="105.5" y="-246.5" font-family="Helvetica,sans-Serif" font-size="10.00">+</text>
<text text-anchor="start" x="115.5" y="-246.5" font-family="Helvetica,sans-Serif" font-size="10.00">Animation</text>
<text text-anchor="start" x="105.5" y="-230.5" font-family="Helvetica,sans-Serif" font-size="10.00">+</text>
<text text-anchor="start" x="115.5" y="-230.5" font-family="Helvetica,sans-Serif" font-size="10.00">Process()</text>
<text text-anchor="start" x="105.5" y="-214.5" font-family="Helvetica,sans-Serif" font-size="10.00">+</text>
<text text-anchor="start" x="115.5" y="-214.5" font-family="Helvetica,sans-Serif" font-size="10.00">GetNameDisplayText()</text>
<text text-anchor="start" x="105.5" y="-198.5" font-family="Helvetica,sans-Serif" font-size="10.00">+</text>
<text text-anchor="start" x="115.5" y="-198.5" font-family="Helvetica,sans-Serif" font-size="10.00">GetDescriptionDisplayText()</text>
<polygon fill="#666666" stroke="#666666" points="101.5,-322 101.5,-322 242.5,-322 242.5,-322 101.5,-322"/>
<polygon fill="#666666" stroke="#666666" points="101.5,-242 101.5,-242 113.5,-242 113.5,-242 101.5,-242"/>
<polygon fill="#666666" stroke="#666666" points="113.5,-242 113.5,-242 242.5,-242 242.5,-242 113.5,-242"/>
<polygon fill="none" stroke="#666666" points="101.5,-192 101.5,-340 242.5,-340 242.5,-192 101.5,-192"/>
</a>
</g>
</g>
<!-- Node3&#45;&gt;Node2 -->
<g id="edge2_Node000002_Node000003" class="edge">
<title>Node3&#45;&gt;Node2</title>
<g id="a_edge2_Node000002_Node000003"><a xlink:title=" ">
<path fill="none" stroke="#63b8ff" d="M172,-180.66C172,-171.76 172,-163.29 172,-155.96"/>
<polygon fill="none" stroke="#63b8ff" points="168.5,-180.6 172,-190.6 175.5,-180.6 168.5,-180.6"/>
</a>
</g>
</g>
<!-- Node4 -->
<g id="Node000004" class="node">
<title>Node4</title>
<g id="a_Node000004"><a xlink:href="class_p_a1_a_1_1_items_1_1_item.html" target="_top" xlink:title="Represents an abstract base class for items in the game.">
<polygon fill="white" stroke="none" points="242.5,-604 101.5,-604 101.5,-376 242.5,-376 242.5,-604"/>
<text text-anchor="start" x="162.25" y="-590.5" font-family="Helvetica,sans-Serif" font-size="10.00">Item</text>
<text text-anchor="start" x="105.5" y="-574.5" font-family="Helvetica,sans-Serif" font-size="10.00">+</text>
<text text-anchor="start" x="115.5" y="-574.5" font-family="Helvetica,sans-Serif" font-size="10.00">Name</text>
<text text-anchor="start" x="105.5" y="-558.5" font-family="Helvetica,sans-Serif" font-size="10.00">+</text>
<text text-anchor="start" x="115.5" y="-558.5" font-family="Helvetica,sans-Serif" font-size="10.00">Description</text>
<text text-anchor="start" x="105.5" y="-542.5" font-family="Helvetica,sans-Serif" font-size="10.00">+</text>
<text text-anchor="start" x="115.5" y="-542.5" font-family="Helvetica,sans-Serif" font-size="10.00">GUID</text>
<text text-anchor="start" x="105.5" y="-526.5" font-family="Helvetica,sans-Serif" font-size="10.00">+</text>
<text text-anchor="start" x="115.5" y="-526.5" font-family="Helvetica,sans-Serif" font-size="10.00">FileID</text>
<text text-anchor="start" x="105.5" y="-510.5" font-family="Helvetica,sans-Serif" font-size="10.00">+</text>
<text text-anchor="start" x="115.5" y="-510.5" font-family="Helvetica,sans-Serif" font-size="10.00">Icon</text>
<text text-anchor="start" x="105.5" y="-494.5" font-family="Helvetica,sans-Serif" font-size="10.00">+</text>
<text text-anchor="start" x="115.5" y="-494.5" font-family="Helvetica,sans-Serif" font-size="10.00">MaxStack</text>
<text text-anchor="start" x="105.5" y="-478.5" font-family="Helvetica,sans-Serif" font-size="10.00">+</text>
<text text-anchor="start" x="115.5" y="-478.5" font-family="Helvetica,sans-Serif" font-size="10.00">GetDescriptionDisplayText()</text>
<text text-anchor="start" x="105.5" y="-462.5" font-family="Helvetica,sans-Serif" font-size="10.00">+</text>
<text text-anchor="start" x="115.5" y="-462.5" font-family="Helvetica,sans-Serif" font-size="10.00">GetNameDisplayText()</text>
<text text-anchor="start" x="105.5" y="-446.5" font-family="Helvetica,sans-Serif" font-size="10.00">+</text>
<text text-anchor="start" x="115.5" y="-446.5" font-family="Helvetica,sans-Serif" font-size="10.00">OnAfterDeserialize()</text>
<text text-anchor="start" x="105.5" y="-430.5" font-family="Helvetica,sans-Serif" font-size="10.00">+</text>
<text text-anchor="start" x="115.5" y="-430.5" font-family="Helvetica,sans-Serif" font-size="10.00">OnBeforeSerialize()</text>
<text text-anchor="start" x="105.5" y="-414.5" font-family="Helvetica,sans-Serif" font-size="10.00">+</text>
<text text-anchor="start" x="115.5" y="-414.5" font-family="Helvetica,sans-Serif" font-size="10.00">Equals()</text>
<text text-anchor="start" x="105.5" y="-398.5" font-family="Helvetica,sans-Serif" font-size="10.00">+</text>
<text text-anchor="start" x="115.5" y="-398.5" font-family="Helvetica,sans-Serif" font-size="10.00">CreateItemStack()</text>
<text text-anchor="start" x="105.5" y="-382.5" font-family="Helvetica,sans-Serif" font-size="10.00">+</text>
<text text-anchor="start" x="115.5" y="-382.5" font-family="Helvetica,sans-Serif" font-size="10.00">CreateItemStack()</text>
<polygon fill="#666666" stroke="#666666" points="101.5,-586 101.5,-586 242.5,-586 242.5,-586 101.5,-586"/>
<polygon fill="#666666" stroke="#666666" points="101.5,-490 101.5,-490 113.5,-490 113.5,-490 101.5,-490"/>
<polygon fill="#666666" stroke="#666666" points="113.5,-490 113.5,-490 242.5,-490 242.5,-490 113.5,-490"/>
<polygon fill="none" stroke="#666666" points="101.5,-376 101.5,-604 242.5,-604 242.5,-376 101.5,-376"/>
</a>
</g>
</g>
<!-- Node4&#45;&gt;Node3 -->
<g id="edge3_Node000003_Node000004" class="edge">
<title>Node4&#45;&gt;Node3</title>
<g id="a_edge3_Node000003_Node000004"><a xlink:title=" ">
<path fill="none" stroke="#63b8ff" d="M172,-364.82C172,-356.3 172,-347.9 172,-339.8"/>
<polygon fill="none" stroke="#63b8ff" points="168.5,-364.54 172,-374.54 175.5,-364.54 168.5,-364.54"/>
</a>
</g>
</g>
<!-- Node5 -->
<g id="Node000005" class="node">
<title>Node5</title>
<g id="a_Node000005"><a xlink:href="class_scriptable_object.html" target="_top" xlink:title=" ">
<polygon fill="white" stroke="none" points="82,-692 0,-692 0,-640 82,-640 82,-692"/>
<text text-anchor="start" x="5" y="-678.5" font-family="Helvetica,sans-Serif" font-size="10.00">ScriptableObject</text>
<text text-anchor="start" x="39.5" y="-662.5" font-family="Helvetica,sans-Serif" font-size="10.00"> </text>
<text text-anchor="start" x="39.5" y="-646.5" font-family="Helvetica,sans-Serif" font-size="10.00"> </text>
<polygon fill="#666666" stroke="#666666" points="0,-674 0,-674 82,-674 82,-674 0,-674"/>
<polygon fill="#666666" stroke="#666666" points="0,-658 0,-658 82,-658 82,-658 0,-658"/>
<polygon fill="none" stroke="#666666" points="0,-640 0,-692 82,-692 82,-640 0,-640"/>
</a>
</g>
</g>
<!-- Node5&#45;&gt;Node4 -->
<g id="edge4_Node000004_Node000005" class="edge">
<title>Node5&#45;&gt;Node4</title>
<g id="a_edge4_Node000004_Node000005"><a xlink:title=" ">
<path fill="none" stroke="#63b8ff" d="M66.48,-631.16C76.69,-617.6 89,-601.24 101.56,-584.56"/>
<polygon fill="none" stroke="#63b8ff" points="63.9,-628.77 60.68,-638.86 69.49,-632.98 63.9,-628.77"/>
</a>
</g>
</g>
<!-- Node6 -->
<g id="Node000006" class="node">
<title>Node6</title>
<g id="a_Node000006"><a xlink:href="class_i_serialization_callback_receiver.html" target="_top" xlink:title=" ">
<polygon fill="white" stroke="none" points="243.5,-692 100.5,-692 100.5,-640 243.5,-640 243.5,-692"/>
<text text-anchor="start" x="105.25" y="-678.5" font-family="Helvetica,sans-Serif" font-size="10.00">ISerializationCallbackReceiver</text>
<text text-anchor="start" x="170.5" y="-662.5" font-family="Helvetica,sans-Serif" font-size="10.00"> </text>
<text text-anchor="start" x="170.5" y="-646.5" font-family="Helvetica,sans-Serif" font-size="10.00"> </text>
<polygon fill="#666666" stroke="#666666" points="100.5,-674 100.5,-674 243.5,-674 243.5,-674 100.5,-674"/>
<polygon fill="#666666" stroke="#666666" points="100.5,-658 100.5,-658 243.5,-658 243.5,-658 100.5,-658"/>
<polygon fill="none" stroke="#666666" points="100.5,-640 100.5,-692 243.5,-692 243.5,-640 100.5,-640"/>
</a>
</g>
</g>
<!-- Node6&#45;&gt;Node4 -->
<g id="edge5_Node000004_Node000006" class="edge">
<title>Node6&#45;&gt;Node4</title>
<g id="a_edge5_Node000004_Node000006"><a xlink:title=" ">
<path fill="none" stroke="#63b8ff" d="M172,-628.72C172,-621.03 172,-612.53 172,-603.64"/>
<polygon fill="none" stroke="#63b8ff" points="168.5,-628.56 172,-638.56 175.5,-628.56 168.5,-628.56"/>
</a>
</g>
</g>
<!-- Node7 -->
<g id="Node000007" class="node">
<title>Node7</title>
<g id="a_Node000007"><a xlink:href="class_i_equatable.html" target="_top" xlink:title=" ">
<polygon fill="white" stroke="none" points="356,-692 262,-692 262,-640 356,-640 356,-692"/>
<text text-anchor="start" x="267" y="-678.5" font-family="Helvetica,sans-Serif" font-size="10.00">IEquatable&lt; Item &gt;</text>
<text text-anchor="start" x="307.5" y="-662.5" font-family="Helvetica,sans-Serif" font-size="10.00"> </text>
<text text-anchor="start" x="307.5" y="-646.5" font-family="Helvetica,sans-Serif" font-size="10.00"> </text>
<polygon fill="#666666" stroke="#666666" points="262,-674 262,-674 356,-674 356,-674 262,-674"/>
<polygon fill="#666666" stroke="#666666" points="262,-658 262,-658 356,-658 356,-658 262,-658"/>
<polygon fill="none" stroke="#666666" points="262,-640 262,-692 356,-692 356,-640 262,-640"/>
</a>
</g>
</g>
<!-- Node7&#45;&gt;Node4 -->
<g id="edge6_Node000004_Node000007" class="edge">
<title>Node7&#45;&gt;Node4</title>
<g id="a_edge6_Node000004_Node000007"><a xlink:title=" ">
<path fill="none" stroke="#63b8ff" d="M282.5,-631.35C270.89,-616.6 256.65,-598.51 242.31,-580.3"/>
<polygon fill="none" stroke="#63b8ff" points="279.5,-633.19 288.43,-638.88 285,-628.86 279.5,-633.19"/>
</a>
</g>
</g>
</g>
</svg>
