<?xml version="1.0" encoding="UTF-8" standalone="no"?>
<!DOCTYPE svg PUBLIC "-//W3C//DTD SVG 1.1//EN"
 "http://www.w3.org/Graphics/SVG/1.1/DTD/svg11.dtd">
<!-- Generated by graphviz version 12.1.2 (20240928.0832)
 -->
<!-- Title: PA1A.Abilities.AbilityFactory Pages: 1 -->
<svg width="143pt" height="212pt"
 viewBox="0.00 0.00 143.00 212.00" xmlns="http://www.w3.org/2000/svg" xmlns:xlink="http://www.w3.org/1999/xlink">

<svg id="main" version="1.1" xmlns="http://www.w3.org/2000/svg" xmlns:xlink="http://www.w3.org/1999/xlink" xml:space="preserve">

<style type="text/css"><![CDATA[
.node, .edge {opacity: 0.7;}
.node.selected, .edge.selected {opacity: 1;}
.edge:hover path { stroke: red; }
.edge:hover polygon { stroke: red; fill: red; }
]]></style>
<script type="application/ecmascript" xlink:href="svg.min.js"/>
<svg id="graph" class="graph">
<g id="graph0" class="graph" transform="scale(1 1) rotate(0) translate(4 208)">
<title>PA1A.Abilities.AbilityFactory</title>
<!-- Node1 -->
<g id="Node000001" class="node">
<title>Node1</title>
<g id="a_Node000001"><a xlink:title="Represents a factory class for creating and managing abilities.">
<polygon fill="#999999" stroke="none" points="135,-84 0,-84 0,0 135,0 135,-84"/>
<text text-anchor="start" x="4.88" y="-70.5" font-family="Helvetica,sans-Serif" font-size="10.00">PA1A.Abilities.AbilityFactory</text>
<text text-anchor="start" x="66" y="-54.5" font-family="Helvetica,sans-Serif" font-size="10.00"> </text>
<text text-anchor="start" x="13" y="-38.5" font-family="Helvetica,sans-Serif" font-size="10.00">+</text>
<text text-anchor="start" x="32" y="-38.5" font-family="Helvetica,sans-Serif" font-size="10.00">Awake()</text>
<text text-anchor="start" x="13" y="-22.5" font-family="Helvetica,sans-Serif" font-size="10.00">+</text>
<text text-anchor="start" x="32" y="-22.5" font-family="Helvetica,sans-Serif" font-size="10.00">GetAbility()</text>
<text text-anchor="start" x="13" y="-6.5" font-family="Helvetica,sans-Serif" font-size="10.00">~</text>
<text text-anchor="start" x="32" y="-6.5" font-family="Helvetica,sans-Serif" font-size="10.00">GetAbilityNames()</text>
<polygon fill="#666666" stroke="#666666" points="0,-66 0,-66 135,-66 135,-66 0,-66"/>
<polygon fill="#666666" stroke="#666666" points="0,-50 0,-50 135,-50 135,-50 0,-50"/>
<polygon fill="none" stroke="#666666" points="0,0 0,-84 135,-84 135,0 0,0"/>
</a>
</g>
</g>
<!-- Node2 -->
<g id="Node000002" class="node">
<title>Node2</title>
<g id="a_Node000002"><a xlink:href="class_singleton.html" target="_top" xlink:title=" ">
<polygon fill="white" stroke="none" points="131,-204 4,-204 4,-120 131,-120 131,-204"/>
<text text-anchor="start" x="8.62" y="-190.5" font-family="Helvetica,sans-Serif" font-size="10.00">Singleton&lt; AbilityFactory &gt;</text>
<text text-anchor="start" x="22.5" y="-174.5" font-family="Helvetica,sans-Serif" font-size="10.00">+</text>
<text text-anchor="start" x="47" y="-174.5" font-family="Helvetica,sans-Serif" font-size="10.00">Instance</text>
<text text-anchor="start" x="22.5" y="-158.5" font-family="Helvetica,sans-Serif" font-size="10.00">+</text>
<text text-anchor="start" x="47" y="-158.5" font-family="Helvetica,sans-Serif" font-size="10.00">Awake()</text>
<text text-anchor="start" x="22.5" y="-142.5" font-family="Helvetica,sans-Serif" font-size="10.00">+</text>
<text text-anchor="start" x="47" y="-142.5" font-family="Helvetica,sans-Serif" font-size="10.00">OnDisable()</text>
<text text-anchor="start" x="22.5" y="-126.5" font-family="Helvetica,sans-Serif" font-size="10.00">+</text>
<text text-anchor="start" x="47" y="-126.5" font-family="Helvetica,sans-Serif" font-size="10.00">OnEnable()</text>
<polygon fill="#666666" stroke="#666666" points="4,-186 4,-186 131,-186 131,-186 4,-186"/>
<polygon fill="#666666" stroke="#666666" points="4,-170 4,-170 45,-170 45,-170 4,-170"/>
<polygon fill="#666666" stroke="#666666" points="45,-170 45,-170 131,-170 131,-170 45,-170"/>
<polygon fill="none" stroke="#666666" points="4,-120 4,-204 131,-204 131,-120 4,-120"/>
</a>
</g>
</g>
<!-- Node2&#45;&gt;Node1 -->
<g id="edge1_Node000001_Node000002" class="edge">
<title>Node2&#45;&gt;Node1</title>
<g id="a_edge1_Node000001_Node000002"><a xlink:title=" ">
<path fill="none" stroke="#63b8ff" d="M67.5,-108.55C67.5,-100.27 67.5,-91.83 67.5,-83.87"/>
<polygon fill="none" stroke="#63b8ff" points="64,-108.55 67.5,-118.55 71,-108.55 64,-108.55"/>
</a>
</g>
</g>
</g>
</svg>
</svg>

<style type='text/css'>
<![CDATA[
[data-mouse-over-selected='false'] { opacity: 0.7; }
[data-mouse-over-selected='true']  { opacity: 1.0; }
]]>
</style>
<script type="application/ecmascript"><![CDATA[
document.addEventListener('DOMContentLoaded', (event) => {
  highlightEdges();
  highlightAdjacentNodes();
});
]]></script>
</svg>
