<?xml version="1.0" encoding="UTF-8" standalone="no"?>
<!DOCTYPE svg PUBLIC "-//W3C//DTD SVG 1.1//EN"
 "http://www.w3.org/Graphics/SVG/1.1/DTD/svg11.dtd">
<!-- Generated by graphviz version 12.1.2 (20240928.0832)
 -->
<!-- Title: CodeSmile.MultiPal.Players.PlayerInteraction Pages: 1 -->
<svg width="385pt" height="256pt"
 viewBox="0.00 0.00 385.00 256.00" xmlns="http://www.w3.org/2000/svg" xmlns:xlink="http://www.w3.org/1999/xlink">

<svg id="main" version="1.1" xmlns="http://www.w3.org/2000/svg" xmlns:xlink="http://www.w3.org/1999/xlink" xml:space="preserve">

<style type="text/css"><![CDATA[
.node, .edge {opacity: 0.7;}
.node.selected, .edge.selected {opacity: 1;}
.edge:hover path { stroke: red; }
.edge:hover polygon { stroke: red; fill: red; }
]]></style>
<script type="application/ecmascript" xlink:href="svg.min.js"/>
<svg id="graph" class="graph">
<g id="graph0" class="graph" transform="scale(1 1) rotate(0) translate(4 252)">
<title>CodeSmile.MultiPal.Players.PlayerInteraction</title>
<!-- Node1 -->
<g id="Node000001" class="node">
<title>Node1</title>
<g id="a_Node000001"><a xlink:title=" ">
<polygon fill="#999999" stroke="none" points="215,-112 80,-112 80,0 215,0 215,-112"/>
<text text-anchor="start" x="84.88" y="-98.5" font-family="Helvetica,sans-Serif" font-size="10.00">CodeSmile.MultiPal.Players.</text>
<text text-anchor="start" x="110.75" y="-86.5" font-family="Helvetica,sans-Serif" font-size="10.00">PlayerInteraction</text>
<text text-anchor="start" x="146" y="-70.5" font-family="Helvetica,sans-Serif" font-size="10.00"> </text>
<text text-anchor="start" x="91.5" y="-54.5" font-family="Helvetica,sans-Serif" font-size="10.00">+</text>
<text text-anchor="start" x="109" y="-54.5" font-family="Helvetica,sans-Serif" font-size="10.00">OnPlayerSpawn()</text>
<text text-anchor="start" x="91.5" y="-38.5" font-family="Helvetica,sans-Serif" font-size="10.00">+</text>
<text text-anchor="start" x="109" y="-38.5" font-family="Helvetica,sans-Serif" font-size="10.00">OnPlayerDespawn()</text>
<text text-anchor="start" x="91.5" y="-22.5" font-family="Helvetica,sans-Serif" font-size="10.00">+</text>
<text text-anchor="start" x="109" y="-22.5" font-family="Helvetica,sans-Serif" font-size="10.00">OnAttack()</text>
<text text-anchor="start" x="91.5" y="-6.5" font-family="Helvetica,sans-Serif" font-size="10.00">+</text>
<text text-anchor="start" x="109" y="-6.5" font-family="Helvetica,sans-Serif" font-size="10.00">OnInteract()</text>
<polygon fill="#666666" stroke="#666666" points="80,-82 80,-82 215,-82 215,-82 80,-82"/>
<polygon fill="#666666" stroke="#666666" points="80,-66 80,-66 215,-66 215,-66 80,-66"/>
<polygon fill="none" stroke="#666666" points="80,0 80,-112 215,-112 215,0 80,0"/>
</a>
</g>
</g>
<!-- Node2 -->
<g id="Node000002" class="node">
<title>Node2</title>
<g id="a_Node000002"><a xlink:href="class_mono_behaviour.html" target="_top" xlink:title=" ">
<polygon fill="white" stroke="none" points="77,-224 0,-224 0,-172 77,-172 77,-224"/>
<text text-anchor="start" x="4.75" y="-210.5" font-family="Helvetica,sans-Serif" font-size="10.00">MonoBehaviour</text>
<text text-anchor="start" x="37" y="-194.5" font-family="Helvetica,sans-Serif" font-size="10.00"> </text>
<text text-anchor="start" x="37" y="-178.5" font-family="Helvetica,sans-Serif" font-size="10.00"> </text>
<polygon fill="#666666" stroke="#666666" points="0,-206 0,-206 77,-206 77,-206 0,-206"/>
<polygon fill="#666666" stroke="#666666" points="0,-190 0,-190 77,-190 77,-190 0,-190"/>
<polygon fill="none" stroke="#666666" points="0,-172 0,-224 77,-224 77,-172 0,-172"/>
</a>
</g>
</g>
<!-- Node2&#45;&gt;Node1 -->
<g id="edge1_Node000001_Node000002" class="edge">
<title>Node2&#45;&gt;Node1</title>
<g id="a_edge1_Node000001_Node000002"><a xlink:title=" ">
<path fill="none" stroke="#63b8ff" d="M64.5,-163.61C76.53,-148.15 91.14,-129.38 104.73,-111.93"/>
<polygon fill="none" stroke="#63b8ff" points="62.05,-161.06 58.67,-171.1 67.57,-165.36 62.05,-161.06"/>
</a>
</g>
</g>
<!-- Node3 -->
<g id="Node000003" class="node">
<title>Node3</title>
<g id="a_Node000003"><a xlink:href="interface_code_smile_1_1_multi_pal_1_1_players_1_1_i_player_component.html" target="_top" xlink:title=" ">
<polygon fill="white" stroke="none" points="200,-248 95,-248 95,-148 200,-148 200,-248"/>
<text text-anchor="start" x="107" y="-234.5" font-family="Helvetica,sans-Serif" font-size="10.00">IPlayerComponent</text>
<text text-anchor="start" x="146" y="-218.5" font-family="Helvetica,sans-Serif" font-size="10.00"> </text>
<text text-anchor="start" x="99" y="-202.5" font-family="Helvetica,sans-Serif" font-size="10.00">+</text>
<text text-anchor="start" x="109" y="-202.5" font-family="Helvetica,sans-Serif" font-size="10.00">OnPlayerSpawn()</text>
<text text-anchor="start" x="99" y="-186.5" font-family="Helvetica,sans-Serif" font-size="10.00">+</text>
<text text-anchor="start" x="109" y="-186.5" font-family="Helvetica,sans-Serif" font-size="10.00">OnPlayerDespawn()</text>
<text text-anchor="start" x="99" y="-170.5" font-family="Helvetica,sans-Serif" font-size="10.00">+</text>
<text text-anchor="start" x="109" y="-170.5" font-family="Helvetica,sans-Serif" font-size="10.00">OnPlayerDeath()</text>
<text text-anchor="start" x="99" y="-154.5" font-family="Helvetica,sans-Serif" font-size="10.00">+</text>
<text text-anchor="start" x="109" y="-154.5" font-family="Helvetica,sans-Serif" font-size="10.00">OnPlayerRespawn()</text>
<polygon fill="#666666" stroke="#666666" points="95,-230 95,-230 200,-230 200,-230 95,-230"/>
<polygon fill="#666666" stroke="#666666" points="95,-214 95,-214 200,-214 200,-214 95,-214"/>
<polygon fill="none" stroke="#666666" points="95,-148 95,-248 200,-248 200,-148 95,-148"/>
</a>
</g>
</g>
<!-- Node3&#45;&gt;Node1 -->
<g id="edge2_Node000001_Node000003" class="edge">
<title>Node3&#45;&gt;Node1</title>
<g id="a_edge2_Node000001_Node000003"><a xlink:title=" ">
<path fill="none" stroke="#63b8ff" d="M147.5,-136.6C147.5,-128.4 147.5,-120.02 147.5,-111.92"/>
<polygon fill="none" stroke="#63b8ff" points="144,-136.52 147.5,-146.52 151,-136.52 144,-136.52"/>
</a>
</g>
</g>
<!-- Node4 -->
<g id="Node000004" class="node">
<title>Node4</title>
<g id="a_Node000004"><a xlink:href="interface_code_smile_1_1_multi_pal_1_1_input_1_1_generated_input_1_1_i_player_interaction_actions.html" target="_top" xlink:title=" ">
<polygon fill="white" stroke="none" points="377,-238 218,-238 218,-158 377,-158 377,-238"/>
<text text-anchor="start" x="222.88" y="-224.5" font-family="Helvetica,sans-Serif" font-size="10.00">GeneratedInput::IPlayerInteraction</text>
<text text-anchor="start" x="281" y="-212.5" font-family="Helvetica,sans-Serif" font-size="10.00">Actions</text>
<text text-anchor="start" x="296" y="-196.5" font-family="Helvetica,sans-Serif" font-size="10.00"> </text>
<text text-anchor="start" x="244.5" y="-180.5" font-family="Helvetica,sans-Serif" font-size="10.00">+</text>
<text text-anchor="start" x="277" y="-180.5" font-family="Helvetica,sans-Serif" font-size="10.00">OnAttack()</text>
<text text-anchor="start" x="244.5" y="-164.5" font-family="Helvetica,sans-Serif" font-size="10.00">+</text>
<text text-anchor="start" x="277" y="-164.5" font-family="Helvetica,sans-Serif" font-size="10.00">OnInteract()</text>
<polygon fill="#666666" stroke="#666666" points="218,-208 218,-208 377,-208 377,-208 218,-208"/>
<polygon fill="#666666" stroke="#666666" points="218,-192 218,-192 377,-192 377,-192 218,-192"/>
<polygon fill="none" stroke="#666666" points="218,-158 218,-238 377,-238 377,-158 218,-158"/>
</a>
</g>
</g>
<!-- Node4&#45;&gt;Node1 -->
<g id="edge3_Node000001_Node000004" class="edge">
<title>Node4&#45;&gt;Node1</title>
<g id="a_edge3_Node000001_Node000004"><a xlink:title=" ">
<path fill="none" stroke="#63b8ff" d="M247.62,-150.44C234.33,-138.04 219.86,-124.54 206.15,-111.74"/>
<polygon fill="none" stroke="#63b8ff" points="244.91,-152.7 254.61,-156.97 249.69,-147.59 244.91,-152.7"/>
</a>
</g>
</g>
</g>
</svg>
</svg>

<style type='text/css'>
<![CDATA[
[data-mouse-over-selected='false'] { opacity: 0.7; }
[data-mouse-over-selected='true']  { opacity: 1.0; }
]]>
</style>
<script type="application/ecmascript"><![CDATA[
document.addEventListener('DOMContentLoaded', (event) => {
  highlightEdges();
  highlightAdjacentNodes();
});
]]></script>
</svg>
