<?xml version="1.0" encoding="UTF-8" standalone="no"?>
<!DOCTYPE svg PUBLIC "-//W3C//DTD SVG 1.1//EN"
 "http://www.w3.org/Graphics/SVG/1.1/DTD/svg11.dtd">
<!-- Generated by graphviz version 12.1.2 (20240928.0832)
 -->
<!-- Title: IPointerExitHandler Pages: 1 -->
<svg width="102pt" height="196pt"
 viewBox="0.00 0.00 102.00 196.00" xmlns="http://www.w3.org/2000/svg" xmlns:xlink="http://www.w3.org/1999/xlink">
<g id="graph0" class="graph" transform="scale(1 1) rotate(0) translate(4 192)">
<title>IPointerExitHandler</title>
<!-- Node1 -->
<g id="Node000001" class="node">
<title>Node1</title>
<g id="a_Node000001"><a xlink:title=" ">
<polygon fill="#999999" stroke="none" points="94,-188 0,-188 0,-136 94,-136 94,-188"/>
<text text-anchor="start" x="4.62" y="-174.5" font-family="Helvetica,sans-Serif" font-size="10.00">IPointerExitHandler</text>
<text text-anchor="start" x="45.5" y="-158.5" font-family="Helvetica,sans-Serif" font-size="10.00"> </text>
<text text-anchor="start" x="45.5" y="-142.5" font-family="Helvetica,sans-Serif" font-size="10.00"> </text>
<polygon fill="#666666" stroke="#666666" points="0,-170 0,-170 94,-170 94,-170 0,-170"/>
<polygon fill="#666666" stroke="#666666" points="0,-154 0,-154 94,-154 94,-154 0,-154"/>
<polygon fill="none" stroke="#666666" points="0,-136 0,-188 94,-188 94,-136 0,-136"/>
</a>
</g>
</g>
<!-- Node2 -->
<g id="Node000002" class="node">
<title>Node2</title>
<g id="a_Node000002"><a xlink:href="class_tooltip_trigger.html" target="_top" xlink:title="Represents a trigger for displaying tooltips.">
<polygon fill="white" stroke="none" points="92,-100 2,-100 2,0 92,0 92,-100"/>
<text text-anchor="start" x="17.75" y="-86.5" font-family="Helvetica,sans-Serif" font-size="10.00">TooltipTrigger</text>
<text text-anchor="start" x="6" y="-70.5" font-family="Helvetica,sans-Serif" font-size="10.00">+</text>
<text text-anchor="start" x="16" y="-70.5" font-family="Helvetica,sans-Serif" font-size="10.00">header</text>
<text text-anchor="start" x="6" y="-54.5" font-family="Helvetica,sans-Serif" font-size="10.00">+</text>
<text text-anchor="start" x="16" y="-54.5" font-family="Helvetica,sans-Serif" font-size="10.00">content</text>
<text text-anchor="start" x="6" y="-38.5" font-family="Helvetica,sans-Serif" font-size="10.00">+</text>
<text text-anchor="start" x="16" y="-38.5" font-family="Helvetica,sans-Serif" font-size="10.00">Awake()</text>
<text text-anchor="start" x="6" y="-22.5" font-family="Helvetica,sans-Serif" font-size="10.00">+</text>
<text text-anchor="start" x="16" y="-22.5" font-family="Helvetica,sans-Serif" font-size="10.00">OnPointerEnter()</text>
<text text-anchor="start" x="6" y="-6.5" font-family="Helvetica,sans-Serif" font-size="10.00">+</text>
<text text-anchor="start" x="16" y="-6.5" font-family="Helvetica,sans-Serif" font-size="10.00">OnPointerExit()</text>
<polygon fill="#666666" stroke="#666666" points="2,-82 2,-82 92,-82 92,-82 2,-82"/>
<polygon fill="#666666" stroke="#666666" points="2,-50 2,-50 14,-50 14,-50 2,-50"/>
<polygon fill="#666666" stroke="#666666" points="14,-50 14,-50 92,-50 92,-50 14,-50"/>
<polygon fill="none" stroke="#666666" points="2,0 2,-100 92,-100 92,0 2,0"/>
</a>
</g>
</g>
<!-- Node1&#45;&gt;Node2 -->
<g id="edge1_Node000001_Node000002" class="edge">
<title>Node1&#45;&gt;Node2</title>
<g id="a_edge1_Node000001_Node000002"><a xlink:title=" ">
<path fill="none" stroke="#63b8ff" d="M47,-124.53C47,-116.58 47,-108.05 47,-99.72"/>
<polygon fill="none" stroke="#63b8ff" points="43.5,-124.53 47,-134.53 50.5,-124.53 43.5,-124.53"/>
</a>
</g>
</g>
</g>
</svg>
