<?xml version="1.0" encoding="UTF-8" standalone="no"?>
<!DOCTYPE svg PUBLIC "-//W3C//DTD SVG 1.1//EN"
 "http://www.w3.org/Graphics/SVG/1.1/DTD/svg11.dtd">
<!-- Generated by graphviz version 12.1.2 (20240928.0832)
 -->
<!-- Title: PA1A.Items.ItemStack Pages: 1 -->
<svg width="246pt" height="324pt"
 viewBox="0.00 0.00 245.50 324.00" xmlns="http://www.w3.org/2000/svg" xmlns:xlink="http://www.w3.org/1999/xlink">

<svg id="main" version="1.1" xmlns="http://www.w3.org/2000/svg" xmlns:xlink="http://www.w3.org/1999/xlink" xml:space="preserve">

<style type="text/css"><![CDATA[
.node, .edge {opacity: 0.7;}
.node.selected, .edge.selected {opacity: 1;}
.edge:hover path { stroke: red; }
.edge:hover polygon { stroke: red; fill: red; }
]]></style>
<script type="application/ecmascript" xlink:href="svg.min.js"/>
<svg id="graph" class="graph">
<g id="graph0" class="graph" transform="scale(1 1) rotate(0) translate(4 320)">
<title>PA1A.Items.ItemStack</title>
<!-- Node1 -->
<g id="Node000001" class="node">
<title>Node1</title>
<g id="a_Node000001"><a xlink:title="Represents individual data about an Item">
<polygon fill="#999999" stroke="none" points="174.5,-228 53.5,-228 53.5,0 174.5,0 174.5,-228"/>
<text text-anchor="start" x="63.75" y="-214.5" font-family="Helvetica,sans-Serif" font-size="10.00">PA1A.Items.ItemStack</text>
<text text-anchor="start" x="57.5" y="-198.5" font-family="Helvetica,sans-Serif" font-size="10.00">+</text>
<text text-anchor="start" x="67.5" y="-198.5" font-family="Helvetica,sans-Serif" font-size="10.00">Item</text>
<text text-anchor="start" x="57.5" y="-182.5" font-family="Helvetica,sans-Serif" font-size="10.00">+</text>
<text text-anchor="start" x="67.5" y="-182.5" font-family="Helvetica,sans-Serif" font-size="10.00">StackSize</text>
<text text-anchor="start" x="57.5" y="-166.5" font-family="Helvetica,sans-Serif" font-size="10.00">+</text>
<text text-anchor="start" x="67.5" y="-166.5" font-family="Helvetica,sans-Serif" font-size="10.00">ItemStack()</text>
<text text-anchor="start" x="57.5" y="-150.5" font-family="Helvetica,sans-Serif" font-size="10.00">+</text>
<text text-anchor="start" x="67.5" y="-150.5" font-family="Helvetica,sans-Serif" font-size="10.00">ItemStack()</text>
<text text-anchor="start" x="57.5" y="-134.5" font-family="Helvetica,sans-Serif" font-size="10.00">+</text>
<text text-anchor="start" x="67.5" y="-134.5" font-family="Helvetica,sans-Serif" font-size="10.00">ItemStack()</text>
<text text-anchor="start" x="57.5" y="-118.5" font-family="Helvetica,sans-Serif" font-size="10.00">+</text>
<text text-anchor="start" x="67.5" y="-118.5" font-family="Helvetica,sans-Serif" font-size="10.00">ItemStack()</text>
<text text-anchor="start" x="57.5" y="-102.5" font-family="Helvetica,sans-Serif" font-size="10.00">+</text>
<text text-anchor="start" x="67.5" y="-102.5" font-family="Helvetica,sans-Serif" font-size="10.00">IsSameAs()</text>
<text text-anchor="start" x="57.5" y="-86.5" font-family="Helvetica,sans-Serif" font-size="10.00">+</text>
<text text-anchor="start" x="67.5" y="-86.5" font-family="Helvetica,sans-Serif" font-size="10.00">Clone()</text>
<text text-anchor="start" x="57.5" y="-70.5" font-family="Helvetica,sans-Serif" font-size="10.00">+</text>
<text text-anchor="start" x="67.5" y="-70.5" font-family="Helvetica,sans-Serif" font-size="10.00">ToString()</text>
<text text-anchor="start" x="57.5" y="-54.5" font-family="Helvetica,sans-Serif" font-size="10.00">+</text>
<text text-anchor="start" x="67.5" y="-54.5" font-family="Helvetica,sans-Serif" font-size="10.00">NetworkSerialize&lt; T &gt;()</text>
<text text-anchor="start" x="57.5" y="-38.5" font-family="Helvetica,sans-Serif" font-size="10.00">+</text>
<text text-anchor="start" x="67.5" y="-38.5" font-family="Helvetica,sans-Serif" font-size="10.00">Equals()</text>
<text text-anchor="start" x="57.88" y="-22.5" font-family="Helvetica,sans-Serif" font-size="10.00">#</text>
<text text-anchor="start" x="67.5" y="-22.5" font-family="Helvetica,sans-Serif" font-size="10.00">GetItem()</text>
<text text-anchor="start" x="57.88" y="-6.5" font-family="Helvetica,sans-Serif" font-size="10.00">#</text>
<text text-anchor="start" x="67.5" y="-6.5" font-family="Helvetica,sans-Serif" font-size="10.00">SetItem()</text>
<polygon fill="#666666" stroke="#666666" points="53.5,-210 53.5,-210 174.5,-210 174.5,-210 53.5,-210"/>
<polygon fill="#666666" stroke="#666666" points="53.5,-178 53.5,-178 65.5,-178 65.5,-178 53.5,-178"/>
<polygon fill="#666666" stroke="#666666" points="65.5,-178 65.5,-178 174.5,-178 174.5,-178 65.5,-178"/>
<polygon fill="none" stroke="#666666" points="53.5,0 53.5,-228 174.5,-228 174.5,0 53.5,0"/>
</a>
</g>
</g>
<!-- Node2 -->
<g id="Node000002" class="node">
<title>Node2</title>
<g id="a_Node000002"><a xlink:href="class_i_network_serializable.html" target="_top" xlink:title=" ">
<polygon fill="white" stroke="none" points="100,-316 0,-316 0,-264 100,-264 100,-316"/>
<text text-anchor="start" x="5" y="-302.5" font-family="Helvetica,sans-Serif" font-size="10.00">INetworkSerializable</text>
<text text-anchor="start" x="48.5" y="-286.5" font-family="Helvetica,sans-Serif" font-size="10.00"> </text>
<text text-anchor="start" x="48.5" y="-270.5" font-family="Helvetica,sans-Serif" font-size="10.00"> </text>
<polygon fill="#666666" stroke="#666666" points="0,-298 0,-298 100,-298 100,-298 0,-298"/>
<polygon fill="#666666" stroke="#666666" points="0,-282 0,-282 100,-282 100,-282 0,-282"/>
<polygon fill="none" stroke="#666666" points="0,-264 0,-316 100,-316 100,-264 0,-264"/>
</a>
</g>
</g>
<!-- Node2&#45;&gt;Node1 -->
<g id="edge1_Node000001_Node000002" class="edge">
<title>Node2&#45;&gt;Node1</title>
<g id="a_edge1_Node000001_Node000002"><a xlink:title=" ">
<path fill="none" stroke="#63b8ff" d="M63.14,-253.27C66.02,-245.44 69.22,-236.74 72.57,-227.64"/>
<polygon fill="none" stroke="#63b8ff" points="59.86,-252.06 59.69,-262.65 66.43,-254.47 59.86,-252.06"/>
</a>
</g>
</g>
<!-- Node3 -->
<g id="Node000003" class="node">
<title>Node3</title>
<g id="a_Node000003"><a xlink:href="class_i_equatable.html" target="_top" xlink:title=" ">
<polygon fill="white" stroke="none" points="237.5,-316 118.5,-316 118.5,-264 237.5,-264 237.5,-316"/>
<text text-anchor="start" x="123.25" y="-302.5" font-family="Helvetica,sans-Serif" font-size="10.00">IEquatable&lt; ItemStack &gt;</text>
<text text-anchor="start" x="176.5" y="-286.5" font-family="Helvetica,sans-Serif" font-size="10.00"> </text>
<text text-anchor="start" x="176.5" y="-270.5" font-family="Helvetica,sans-Serif" font-size="10.00"> </text>
<polygon fill="#666666" stroke="#666666" points="118.5,-298 118.5,-298 237.5,-298 237.5,-298 118.5,-298"/>
<polygon fill="#666666" stroke="#666666" points="118.5,-282 118.5,-282 237.5,-282 237.5,-282 118.5,-282"/>
<polygon fill="none" stroke="#666666" points="118.5,-264 118.5,-316 237.5,-316 237.5,-264 118.5,-264"/>
</a>
</g>
</g>
<!-- Node3&#45;&gt;Node1 -->
<g id="edge2_Node000001_Node000003" class="edge">
<title>Node3&#45;&gt;Node1</title>
<g id="a_edge2_Node000001_Node000003"><a xlink:title=" ">
<path fill="none" stroke="#63b8ff" d="M164.86,-253.27C161.98,-245.44 158.78,-236.74 155.43,-227.64"/>
<polygon fill="none" stroke="#63b8ff" points="161.57,-254.47 168.31,-262.65 168.14,-252.06 161.57,-254.47"/>
</a>
</g>
</g>
</g>
</svg>
</svg>

<style type='text/css'>
<![CDATA[
[data-mouse-over-selected='false'] { opacity: 0.7; }
[data-mouse-over-selected='true']  { opacity: 1.0; }
]]>
</style>
<script type="application/ecmascript"><![CDATA[
document.addEventListener('DOMContentLoaded', (event) => {
  highlightEdges();
  highlightAdjacentNodes();
});
]]></script>
</svg>
