<?xml version="1.0" encoding="UTF-8" standalone="no"?>
<!DOCTYPE svg PUBLIC "-//W3C//DTD SVG 1.1//EN"
 "http://www.w3.org/Graphics/SVG/1.1/DTD/svg11.dtd">
<!-- Generated by graphviz version 12.1.2 (20240928.0832)
 -->
<!-- Title: ISerializationCallbackReceiver Pages: 1 -->
<!--zoomable 700 -->

<svg id="main" version="1.1" xmlns="http://www.w3.org/2000/svg" xmlns:xlink="http://www.w3.org/1999/xlink" xml:space="preserve" onload="init(evt)">

<style type="text/css"><![CDATA[
.node, .edge {opacity: 0.7;}
.node.selected, .edge.selected {opacity: 1;}
.edge:hover path { stroke: red; }
.edge:hover polygon { stroke: red; fill: red; }
]]></style>

<defs>
  <circle id="rim" cx="0" cy="0" r="7"/>
  <circle id="rim2" cx="0" cy="0" r="3.5"/>
  <g id="zoomPlus">
    <use xlink:href="#rim" fill="#404040"><set attributeName="fill" to="#808080" begin="zoomplus.mouseover" end="zoomplus.mouseout"/></use>
    <path d="M-4,0h8M0,-4v8" fill="none" stroke="white" stroke-width="1.5" pointer-events="none"/>
  </g>
  <g id="zoomMin">
    <use xlink:href="#rim" fill="#404040"><set attributeName="fill" to="#808080" begin="zoomminus.mouseover" end="zoomminus.mouseout"/></use>
    <path d="M-4,0h8" fill="none" stroke="white" stroke-width="1.5" pointer-events="none"/>
  </g>
  <g id="arrowUp" transform="translate(30 24)">
    <use xlink:href="#rim"/>
    <path pointer-events="none" fill="none" stroke="white" stroke-width="1.5" d="M0,-3.0v7 M-2.5,-0.5L0,-3.0L2.5,-0.5"/>
  </g>
  <g id="arrowRight" transform="rotate(90) translate(36 -43)">
    <use xlink:href="#rim"/>
    <path pointer-events="none" fill="none" stroke="white" stroke-width="1.5" d="M0,-3.0v7 M-2.5,-0.5L0,-3.0L2.5,-0.5"/>
  </g>
  <g id="arrowDown" transform="rotate(180) translate(-30 -48)">
    <use xlink:href="#rim"/>
    <path pointer-events="none" fill="none" stroke="white" stroke-width="1.5" d="M0,-3.0v7 M-2.5,-0.5L0,-3.0L2.5,-0.5"/>
  </g>
  <g id="arrowLeft" transform="rotate(270) translate(-36 17)">
    <use xlink:href="#rim"/>
    <path pointer-events="none" fill="none" stroke="white" stroke-width="1.5" d="M0,-3.0v7 M-2.5,-0.5L0,-3.0L2.5,-0.5"/>
  </g>
  <g id="resetDef">
    <use xlink:href="#rim2" fill="#404040"><set attributeName="fill" to="#808080" begin="reset.mouseover" end="reset.mouseout"/></use>
  </g>
</defs>
<script type="application/ecmascript">
var viewWidth = 741;
var viewHeight = 700;
var sectionId = 'dynsection-0';
</script>
<script type="application/ecmascript" xlink:href="svg.min.js"/>
<svg id="graph" class="graph">
<g id="viewport">
<title>ISerializationCallbackReceiver</title>
<!-- Node1 -->
<g id="Node000001" class="node">
<title>Node1</title>
<g id="a_Node000001"><a xlink:title=" ">
<polygon fill="#999999" stroke="none" points="431,-692 288,-692 288,-640 431,-640 431,-692"/>
<text text-anchor="start" x="292.75" y="-678.5" font-family="Helvetica,sans-Serif" font-size="10.00">ISerializationCallbackReceiver</text>
<text text-anchor="start" x="358" y="-662.5" font-family="Helvetica,sans-Serif" font-size="10.00"> </text>
<text text-anchor="start" x="358" y="-646.5" font-family="Helvetica,sans-Serif" font-size="10.00"> </text>
<polygon fill="#666666" stroke="#666666" points="288,-674 288,-674 431,-674 431,-674 288,-674"/>
<polygon fill="#666666" stroke="#666666" points="288,-658 288,-658 431,-658 431,-658 288,-658"/>
<polygon fill="none" stroke="#666666" points="288,-640 288,-692 431,-692 431,-640 288,-640"/>
</a>
</g>
</g>
<!-- Node2 -->
<g id="Node000002" class="node">
<title>Node2</title>
<g id="a_Node000002"><a xlink:href="class_p_a1_a_1_1_abilities_1_1_ability.html" target="_top" xlink:title="Base class for all abilities.">
<polygon fill="white" stroke="none" points="337.5,-588 231.5,-588 231.5,-392 337.5,-392 337.5,-588"/>
<text text-anchor="start" x="238.38" y="-574.5" font-family="Helvetica,sans-Serif" font-size="10.00">PA1A.Abilities.Ability</text>
<text text-anchor="start" x="235.5" y="-558.5" font-family="Helvetica,sans-Serif" font-size="10.00">+</text>
<text text-anchor="start" x="245.5" y="-558.5" font-family="Helvetica,sans-Serif" font-size="10.00">GUID</text>
<text text-anchor="start" x="235.5" y="-542.5" font-family="Helvetica,sans-Serif" font-size="10.00">+</text>
<text text-anchor="start" x="245.5" y="-542.5" font-family="Helvetica,sans-Serif" font-size="10.00">FileID</text>
<text text-anchor="start" x="235.5" y="-526.5" font-family="Helvetica,sans-Serif" font-size="10.00">+</text>
<text text-anchor="start" x="245.5" y="-526.5" font-family="Helvetica,sans-Serif" font-size="10.00">Name</text>
<text text-anchor="start" x="235.5" y="-510.5" font-family="Helvetica,sans-Serif" font-size="10.00">+</text>
<text text-anchor="start" x="245.5" y="-510.5" font-family="Helvetica,sans-Serif" font-size="10.00">IsInstant</text>
<text text-anchor="start" x="235.5" y="-494.5" font-family="Helvetica,sans-Serif" font-size="10.00">+</text>
<text text-anchor="start" x="245.5" y="-494.5" font-family="Helvetica,sans-Serif" font-size="10.00">Duration</text>
<text text-anchor="start" x="235.5" y="-478.5" font-family="Helvetica,sans-Serif" font-size="10.00">+</text>
<text text-anchor="start" x="245.5" y="-478.5" font-family="Helvetica,sans-Serif" font-size="10.00">Apply()</text>
<text text-anchor="start" x="235.5" y="-462.5" font-family="Helvetica,sans-Serif" font-size="10.00">+</text>
<text text-anchor="start" x="245.5" y="-462.5" font-family="Helvetica,sans-Serif" font-size="10.00">Process()</text>
<text text-anchor="start" x="235.5" y="-446.5" font-family="Helvetica,sans-Serif" font-size="10.00">+</text>
<text text-anchor="start" x="245.5" y="-446.5" font-family="Helvetica,sans-Serif" font-size="10.00">UnApply()</text>
<text text-anchor="start" x="235.5" y="-430.5" font-family="Helvetica,sans-Serif" font-size="10.00">+</text>
<text text-anchor="start" x="245.5" y="-430.5" font-family="Helvetica,sans-Serif" font-size="10.00">OnAfterDeserialize()</text>
<text text-anchor="start" x="235.5" y="-414.5" font-family="Helvetica,sans-Serif" font-size="10.00">+</text>
<text text-anchor="start" x="245.5" y="-414.5" font-family="Helvetica,sans-Serif" font-size="10.00">OnBeforeSerialize()</text>
<text text-anchor="start" x="235.5" y="-398.5" font-family="Helvetica,sans-Serif" font-size="10.00">+</text>
<text text-anchor="start" x="245.5" y="-398.5" font-family="Helvetica,sans-Serif" font-size="10.00">Equals()</text>
<polygon fill="#666666" stroke="#666666" points="231.5,-570 231.5,-570 337.5,-570 337.5,-570 231.5,-570"/>
<polygon fill="#666666" stroke="#666666" points="231.5,-490 231.5,-490 243.5,-490 243.5,-490 231.5,-490"/>
<polygon fill="#666666" stroke="#666666" points="243.5,-490 243.5,-490 337.5,-490 337.5,-490 243.5,-490"/>
<polygon fill="none" stroke="#666666" points="231.5,-392 231.5,-588 337.5,-588 337.5,-392 231.5,-392"/>
</a>
</g>
</g>
<!-- Node1&#45;&gt;Node2 -->
<g id="edge1_Node000001_Node000002" class="edge">
<title>Node1&#45;&gt;Node2</title>
<g id="a_edge1_Node000001_Node000002"><a xlink:title=" ">
<path fill="none" stroke="#63b8ff" d="M344.31,-629.76C338.95,-617.33 332.64,-602.69 326.16,-587.66"/>
<polygon fill="none" stroke="#63b8ff" points="340.98,-630.88 348.16,-638.68 347.41,-628.11 340.98,-630.88"/>
</a>
</g>
</g>
<!-- Node6 -->
<g id="Node000006" class="node">
<title>Node6</title>
<g id="a_Node000006"><a xlink:href="class_p_a1_a_1_1_items_1_1_item.html" target="_top" xlink:title="Represents an abstract base class for items in the game.">
<polygon fill="white" stroke="none" points="574,-604 433,-604 433,-376 574,-376 574,-604"/>
<text text-anchor="start" x="466" y="-590.5" font-family="Helvetica,sans-Serif" font-size="10.00">PA1A.Items.Item</text>
<text text-anchor="start" x="437" y="-574.5" font-family="Helvetica,sans-Serif" font-size="10.00">+</text>
<text text-anchor="start" x="447" y="-574.5" font-family="Helvetica,sans-Serif" font-size="10.00">Name</text>
<text text-anchor="start" x="437" y="-558.5" font-family="Helvetica,sans-Serif" font-size="10.00">+</text>
<text text-anchor="start" x="447" y="-558.5" font-family="Helvetica,sans-Serif" font-size="10.00">Description</text>
<text text-anchor="start" x="437" y="-542.5" font-family="Helvetica,sans-Serif" font-size="10.00">+</text>
<text text-anchor="start" x="447" y="-542.5" font-family="Helvetica,sans-Serif" font-size="10.00">GUID</text>
<text text-anchor="start" x="437" y="-526.5" font-family="Helvetica,sans-Serif" font-size="10.00">+</text>
<text text-anchor="start" x="447" y="-526.5" font-family="Helvetica,sans-Serif" font-size="10.00">FileID</text>
<text text-anchor="start" x="437" y="-510.5" font-family="Helvetica,sans-Serif" font-size="10.00">+</text>
<text text-anchor="start" x="447" y="-510.5" font-family="Helvetica,sans-Serif" font-size="10.00">Icon</text>
<text text-anchor="start" x="437" y="-494.5" font-family="Helvetica,sans-Serif" font-size="10.00">+</text>
<text text-anchor="start" x="447" y="-494.5" font-family="Helvetica,sans-Serif" font-size="10.00">MaxStack</text>
<text text-anchor="start" x="437" y="-478.5" font-family="Helvetica,sans-Serif" font-size="10.00">+</text>
<text text-anchor="start" x="447" y="-478.5" font-family="Helvetica,sans-Serif" font-size="10.00">GetDescriptionDisplayText()</text>
<text text-anchor="start" x="437" y="-462.5" font-family="Helvetica,sans-Serif" font-size="10.00">+</text>
<text text-anchor="start" x="447" y="-462.5" font-family="Helvetica,sans-Serif" font-size="10.00">GetNameDisplayText()</text>
<text text-anchor="start" x="437" y="-446.5" font-family="Helvetica,sans-Serif" font-size="10.00">+</text>
<text text-anchor="start" x="447" y="-446.5" font-family="Helvetica,sans-Serif" font-size="10.00">OnAfterDeserialize()</text>
<text text-anchor="start" x="437" y="-430.5" font-family="Helvetica,sans-Serif" font-size="10.00">+</text>
<text text-anchor="start" x="447" y="-430.5" font-family="Helvetica,sans-Serif" font-size="10.00">OnBeforeSerialize()</text>
<text text-anchor="start" x="437" y="-414.5" font-family="Helvetica,sans-Serif" font-size="10.00">+</text>
<text text-anchor="start" x="447" y="-414.5" font-family="Helvetica,sans-Serif" font-size="10.00">Equals()</text>
<text text-anchor="start" x="437" y="-398.5" font-family="Helvetica,sans-Serif" font-size="10.00">+</text>
<text text-anchor="start" x="447" y="-398.5" font-family="Helvetica,sans-Serif" font-size="10.00">CreateItemStack()</text>
<text text-anchor="start" x="437" y="-382.5" font-family="Helvetica,sans-Serif" font-size="10.00">+</text>
<text text-anchor="start" x="447" y="-382.5" font-family="Helvetica,sans-Serif" font-size="10.00">CreateItemStack()</text>
<polygon fill="#666666" stroke="#666666" points="433,-586 433,-586 574,-586 574,-586 433,-586"/>
<polygon fill="#666666" stroke="#666666" points="433,-490 433,-490 445,-490 445,-490 433,-490"/>
<polygon fill="#666666" stroke="#666666" points="445,-490 445,-490 574,-490 574,-490 445,-490"/>
<polygon fill="none" stroke="#666666" points="433,-376 433,-604 574,-604 574,-376 433,-376"/>
</a>
</g>
</g>
<!-- Node1&#45;&gt;Node6 -->
<g id="edge5_Node000001_Node000006" class="edge">
<title>Node1&#45;&gt;Node6</title>
<g id="a_edge5_Node000001_Node000006"><a xlink:title=" ">
<path fill="none" stroke="#63b8ff" d="M387.11,-631.64C400.31,-615.69 416.78,-595.79 433.13,-576.03"/>
<polygon fill="none" stroke="#63b8ff" points="384.78,-628.97 381.1,-638.9 390.17,-633.43 384.78,-628.97"/>
</a>
</g>
</g>
<!-- Node3 -->
<g id="Node000003" class="node">
<title>Node3</title>
<g id="a_Node000003"><a xlink:href="class_p_a1_a_1_1_abilities_1_1_damage_ability.html" target="_top" xlink:title="Represents a damage ability that can be used by a character to inflict damage on a target.">
<polygon fill="white" stroke="none" points="139,-292 0,-292 0,-240 139,-240 139,-292"/>
<text text-anchor="start" x="5" y="-278.5" font-family="Helvetica,sans-Serif" font-size="10.00">PA1A.Abilities.DamageAbility</text>
<text text-anchor="start" x="17" y="-262.5" font-family="Helvetica,sans-Serif" font-size="10.00">+</text>
<text text-anchor="start" x="40" y="-262.5" font-family="Helvetica,sans-Serif" font-size="10.00">damageAmount</text>
<text text-anchor="start" x="17" y="-246.5" font-family="Helvetica,sans-Serif" font-size="10.00">+</text>
<text text-anchor="start" x="40" y="-246.5" font-family="Helvetica,sans-Serif" font-size="10.00">Apply()</text>
<polygon fill="#666666" stroke="#666666" points="0,-274 0,-274 139,-274 139,-274 0,-274"/>
<polygon fill="#666666" stroke="#666666" points="0,-258 0,-258 38,-258 38,-258 0,-258"/>
<polygon fill="#666666" stroke="#666666" points="38,-258 38,-258 139,-258 139,-258 38,-258"/>
<polygon fill="none" stroke="#666666" points="0,-240 0,-292 139,-292 139,-240 0,-240"/>
</a>
</g>
</g>
<!-- Node2&#45;&gt;Node3 -->
<g id="edge2_Node000002_Node000003" class="edge">
<title>Node2&#45;&gt;Node3</title>
<g id="a_edge2_Node000002_Node000003"><a xlink:title=" ">
<path fill="none" stroke="#63b8ff" d="M223.71,-426.23C180.45,-381.56 124.67,-323.97 93.43,-291.71"/>
<polygon fill="none" stroke="#63b8ff" points="221.11,-428.57 230.58,-433.32 226.13,-423.7 221.11,-428.57"/>
</a>
</g>
</g>
<!-- Node4 -->
<g id="Node000004" class="node">
<title>Node4</title>
<g id="a_Node000004"><a xlink:href="class_p_a1_a_1_1_abilities_1_1_fireability.html" target="_top" xlink:title="Represents a fire ability.">
<polygon fill="white" stroke="none" points="274,-308 157,-308 157,-224 274,-224 274,-308"/>
<text text-anchor="start" x="161.88" y="-294.5" font-family="Helvetica,sans-Serif" font-size="10.00">PA1A.Abilities.Fireability</text>
<text text-anchor="start" x="214" y="-278.5" font-family="Helvetica,sans-Serif" font-size="10.00"> </text>
<text text-anchor="start" x="175" y="-262.5" font-family="Helvetica,sans-Serif" font-size="10.00">+</text>
<text text-anchor="start" x="199" y="-262.5" font-family="Helvetica,sans-Serif" font-size="10.00">Apply()</text>
<text text-anchor="start" x="175" y="-246.5" font-family="Helvetica,sans-Serif" font-size="10.00">+</text>
<text text-anchor="start" x="199" y="-246.5" font-family="Helvetica,sans-Serif" font-size="10.00">Process()</text>
<text text-anchor="start" x="175" y="-230.5" font-family="Helvetica,sans-Serif" font-size="10.00">+</text>
<text text-anchor="start" x="199" y="-230.5" font-family="Helvetica,sans-Serif" font-size="10.00">UnApply()</text>
<polygon fill="#666666" stroke="#666666" points="157,-290 157,-290 274,-290 274,-290 157,-290"/>
<polygon fill="#666666" stroke="#666666" points="157,-274 157,-274 274,-274 274,-274 157,-274"/>
<polygon fill="none" stroke="#666666" points="157,-224 157,-308 274,-308 274,-224 157,-224"/>
</a>
</g>
</g>
<!-- Node2&#45;&gt;Node4 -->
<g id="edge3_Node000002_Node000004" class="edge">
<title>Node2&#45;&gt;Node4</title>
<g id="a_edge3_Node000002_Node000004"><a xlink:title=" ">
<path fill="none" stroke="#63b8ff" d="M251.07,-381.45C242.91,-355.18 234.66,-328.65 228.17,-307.76"/>
<polygon fill="none" stroke="#63b8ff" points="247.68,-382.32 253.99,-390.83 254.36,-380.24 247.68,-382.32"/>
</a>
</g>
</g>
<!-- Node5 -->
<g id="Node000005" class="node">
<title>Node5</title>
<g id="a_Node000005"><a xlink:href="class_p_a1_a_1_1_abilities_1_1_heal_ability.html" target="_top" xlink:title="Represents a heal ability that can be used to restore health to a target.">
<polygon fill="white" stroke="none" points="414.5,-292 292.5,-292 292.5,-240 414.5,-240 414.5,-292"/>
<text text-anchor="start" x="297.25" y="-278.5" font-family="Helvetica,sans-Serif" font-size="10.00">PA1A.Abilities.HealAbility</text>
<text text-anchor="start" x="309.5" y="-262.5" font-family="Helvetica,sans-Serif" font-size="10.00">+</text>
<text text-anchor="start" x="332.5" y="-262.5" font-family="Helvetica,sans-Serif" font-size="10.00">healAmount</text>
<text text-anchor="start" x="309.5" y="-246.5" font-family="Helvetica,sans-Serif" font-size="10.00">+</text>
<text text-anchor="start" x="332.5" y="-246.5" font-family="Helvetica,sans-Serif" font-size="10.00">Apply()</text>
<polygon fill="#666666" stroke="#666666" points="292.5,-274 292.5,-274 414.5,-274 414.5,-274 292.5,-274"/>
<polygon fill="#666666" stroke="#666666" points="292.5,-258 292.5,-258 330.5,-258 330.5,-258 292.5,-258"/>
<polygon fill="#666666" stroke="#666666" points="330.5,-258 330.5,-258 414.5,-258 414.5,-258 330.5,-258"/>
<polygon fill="none" stroke="#666666" points="292.5,-240 292.5,-292 414.5,-292 414.5,-240 292.5,-240"/>
</a>
</g>
</g>
<!-- Node2&#45;&gt;Node5 -->
<g id="edge4_Node000002_Node000005" class="edge">
<title>Node2&#45;&gt;Node5</title>
<g id="a_edge4_Node000002_Node000005"><a xlink:title=" ">
<path fill="none" stroke="#63b8ff" d="M317.94,-381.41C328.37,-347.86 338.93,-313.89 345.8,-291.79"/>
<polygon fill="none" stroke="#63b8ff" points="314.64,-380.24 315.01,-390.83 321.32,-382.32 314.64,-380.24"/>
</a>
</g>
</g>
<!-- Node7 -->
<g id="Node000007" class="node">
<title>Node7</title>
<g id="a_Node000007"><a xlink:href="class_p_a1_a_1_1_items_1_1_inventory_item.html" target="_top" xlink:title="Represents an abstract base class for items in the game that can be stored in an inventory.">
<polygon fill="white" stroke="none" points="574,-340 433,-340 433,-192 574,-192 574,-340"/>
<text text-anchor="start" x="445.75" y="-326.5" font-family="Helvetica,sans-Serif" font-size="10.00">PA1A.Items.InventoryItem</text>
<text text-anchor="start" x="437" y="-310.5" font-family="Helvetica,sans-Serif" font-size="10.00">+</text>
<text text-anchor="start" x="447" y="-310.5" font-family="Helvetica,sans-Serif" font-size="10.00">ColoredName</text>
<text text-anchor="start" x="437" y="-294.5" font-family="Helvetica,sans-Serif" font-size="10.00">+</text>
<text text-anchor="start" x="447" y="-294.5" font-family="Helvetica,sans-Serif" font-size="10.00">Value</text>
<text text-anchor="start" x="437" y="-278.5" font-family="Helvetica,sans-Serif" font-size="10.00">+</text>
<text text-anchor="start" x="447" y="-278.5" font-family="Helvetica,sans-Serif" font-size="10.00">Rarity</text>
<text text-anchor="start" x="437" y="-262.5" font-family="Helvetica,sans-Serif" font-size="10.00">+</text>
<text text-anchor="start" x="447" y="-262.5" font-family="Helvetica,sans-Serif" font-size="10.00">ItemPrefab</text>
<text text-anchor="start" x="437" y="-246.5" font-family="Helvetica,sans-Serif" font-size="10.00">+</text>
<text text-anchor="start" x="447" y="-246.5" font-family="Helvetica,sans-Serif" font-size="10.00">Animation</text>
<text text-anchor="start" x="437" y="-230.5" font-family="Helvetica,sans-Serif" font-size="10.00">+</text>
<text text-anchor="start" x="447" y="-230.5" font-family="Helvetica,sans-Serif" font-size="10.00">Process()</text>
<text text-anchor="start" x="437" y="-214.5" font-family="Helvetica,sans-Serif" font-size="10.00">+</text>
<text text-anchor="start" x="447" y="-214.5" font-family="Helvetica,sans-Serif" font-size="10.00">GetNameDisplayText()</text>
<text text-anchor="start" x="437" y="-198.5" font-family="Helvetica,sans-Serif" font-size="10.00">+</text>
<text text-anchor="start" x="447" y="-198.5" font-family="Helvetica,sans-Serif" font-size="10.00">GetDescriptionDisplayText()</text>
<polygon fill="#666666" stroke="#666666" points="433,-322 433,-322 574,-322 574,-322 433,-322"/>
<polygon fill="#666666" stroke="#666666" points="433,-242 433,-242 445,-242 445,-242 433,-242"/>
<polygon fill="#666666" stroke="#666666" points="445,-242 445,-242 574,-242 574,-242 445,-242"/>
<polygon fill="none" stroke="#666666" points="433,-192 433,-340 574,-340 574,-192 433,-192"/>
</a>
</g>
</g>
<!-- Node6&#45;&gt;Node7 -->
<g id="edge6_Node000006_Node000007" class="edge">
<title>Node6&#45;&gt;Node7</title>
<g id="a_edge6_Node000006_Node000007"><a xlink:title=" ">
<path fill="none" stroke="#63b8ff" d="M503.5,-364.82C503.5,-356.3 503.5,-347.9 503.5,-339.8"/>
<polygon fill="none" stroke="#63b8ff" points="500,-364.54 503.5,-374.54 507,-364.54 500,-364.54"/>
</a>
</g>
</g>
<!-- Node12 -->
<g id="Node000012" class="node">
<title>Node12</title>
<g id="a_Node000012"><a xlink:href="class_p_a1_a_1_1_items_1_1_resource_item.html" target="_top" xlink:title="Represents a resource item in the game.">
<polygon fill="white" stroke="none" points="733,-300 592,-300 592,-232 733,-232 733,-300"/>
<text text-anchor="start" x="604" y="-286.5" font-family="Helvetica,sans-Serif" font-size="10.00">PA1A.Items.ResourceItem</text>
<text text-anchor="start" x="661" y="-270.5" font-family="Helvetica,sans-Serif" font-size="10.00"> </text>
<text text-anchor="start" x="596" y="-254.5" font-family="Helvetica,sans-Serif" font-size="10.00">+</text>
<text text-anchor="start" x="606" y="-254.5" font-family="Helvetica,sans-Serif" font-size="10.00">GetNameDisplayText()</text>
<text text-anchor="start" x="596" y="-238.5" font-family="Helvetica,sans-Serif" font-size="10.00">+</text>
<text text-anchor="start" x="606" y="-238.5" font-family="Helvetica,sans-Serif" font-size="10.00">GetDescriptionDisplayText()</text>
<polygon fill="#666666" stroke="#666666" points="592,-282 592,-282 733,-282 733,-282 592,-282"/>
<polygon fill="#666666" stroke="#666666" points="592,-266 592,-266 733,-266 733,-266 592,-266"/>
<polygon fill="none" stroke="#666666" points="592,-232 592,-300 733,-300 733,-232 592,-232"/>
</a>
</g>
</g>
<!-- Node6&#45;&gt;Node12 -->
<g id="edge11_Node000006_Node000012" class="edge">
<title>Node6&#45;&gt;Node12</title>
<g id="a_edge11_Node000006_Node000012"><a xlink:title=" ">
<path fill="none" stroke="#63b8ff" d="M580.52,-381.46C601.79,-351.77 623.29,-321.74 638.94,-299.9"/>
<polygon fill="none" stroke="#63b8ff" points="577.79,-379.26 574.82,-389.43 583.48,-383.34 577.79,-379.26"/>
</a>
</g>
</g>
<!-- Node8 -->
<g id="Node000008" class="node">
<title>Node8</title>
<g id="a_Node000008"><a xlink:href="class_p_a1_a_1_1_items_1_1_consumable_item.html" target="_top" xlink:title=" ">
<polygon fill="white" stroke="none" points="499,-156 360,-156 360,-104 499,-104 499,-156"/>
<text text-anchor="start" x="364.62" y="-142.5" font-family="Helvetica,sans-Serif" font-size="10.00">PA1A.Items.ConsumableItem</text>
<text text-anchor="start" x="383.5" y="-126.5" font-family="Helvetica,sans-Serif" font-size="10.00">+</text>
<text text-anchor="start" x="413" y="-126.5" font-family="Helvetica,sans-Serif" font-size="10.00">abilities</text>
<text text-anchor="start" x="383.5" y="-110.5" font-family="Helvetica,sans-Serif" font-size="10.00">+</text>
<text text-anchor="start" x="413" y="-110.5" font-family="Helvetica,sans-Serif" font-size="10.00">Process()</text>
<polygon fill="#666666" stroke="#666666" points="360,-138 360,-138 499,-138 499,-138 360,-138"/>
<polygon fill="#666666" stroke="#666666" points="360,-122 360,-122 411,-122 411,-122 360,-122"/>
<polygon fill="#666666" stroke="#666666" points="411,-122 411,-122 499,-122 499,-122 411,-122"/>
<polygon fill="none" stroke="#666666" points="360,-104 360,-156 499,-156 499,-104 360,-104"/>
</a>
</g>
</g>
<!-- Node7&#45;&gt;Node8 -->
<g id="edge7_Node000007_Node000008" class="edge">
<title>Node7&#45;&gt;Node8</title>
<g id="a_edge7_Node000007_Node000008"><a xlink:title=" ">
<path fill="none" stroke="#63b8ff" d="M457.75,-182.15C452.53,-172.7 447.56,-163.7 443.28,-155.96"/>
<polygon fill="none" stroke="#63b8ff" points="454.62,-183.73 462.52,-190.79 460.75,-180.35 454.62,-183.73"/>
</a>
</g>
</g>
<!-- Node9 -->
<g id="Node000009" class="node">
<title>Node9</title>
<g id="a_Node000009"><a xlink:href="class_p_a1_a_1_1_items_1_1_weapon_item.html" target="_top" xlink:title="Represents an abstract base class for weapon items in the game.">
<polygon fill="white" stroke="none" points="637.5,-156 517.5,-156 517.5,-104 637.5,-104 637.5,-156"/>
<text text-anchor="start" x="522.38" y="-142.5" font-family="Helvetica,sans-Serif" font-size="10.00">PA1A.Items.WeaponItem</text>
<text text-anchor="start" x="530" y="-126.5" font-family="Helvetica,sans-Serif" font-size="10.00">+</text>
<text text-anchor="start" x="548.5" y="-126.5" font-family="Helvetica,sans-Serif" font-size="10.00">weaponAbilities</text>
<text text-anchor="start" x="576" y="-110.5" font-family="Helvetica,sans-Serif" font-size="10.00"> </text>
<polygon fill="#666666" stroke="#666666" points="517.5,-138 517.5,-138 637.5,-138 637.5,-138 517.5,-138"/>
<polygon fill="#666666" stroke="#666666" points="517.5,-122 517.5,-122 546.5,-122 546.5,-122 517.5,-122"/>
<polygon fill="#666666" stroke="#666666" points="546.5,-122 546.5,-122 637.5,-122 637.5,-122 546.5,-122"/>
<polygon fill="none" stroke="#666666" points="517.5,-104 517.5,-156 637.5,-156 637.5,-104 517.5,-104"/>
</a>
</g>
</g>
<!-- Node7&#45;&gt;Node9 -->
<g id="edge8_Node000007_Node000009" class="edge">
<title>Node7&#45;&gt;Node9</title>
<g id="a_edge8_Node000007_Node000009"><a xlink:title=" ">
<path fill="none" stroke="#63b8ff" d="M549.25,-182.15C554.47,-172.7 559.44,-163.7 563.72,-155.96"/>
<polygon fill="none" stroke="#63b8ff" points="546.25,-180.35 544.48,-190.79 552.38,-183.73 546.25,-180.35"/>
</a>
</g>
</g>
<!-- Node10 -->
<g id="Node000010" class="node">
<title>Node10</title>
<g id="a_Node000010"><a xlink:href="class_p_a1_a_1_1_items_1_1_melee_item.html" target="_top" xlink:title="Represents a melee weapon item in the game.">
<polygon fill="white" stroke="none" points="566,-68 455,-68 455,0 566,0 566,-68"/>
<text text-anchor="start" x="459.88" y="-54.5" font-family="Helvetica,sans-Serif" font-size="10.00">PA1A.Items.MeleeItem</text>
<text text-anchor="start" x="466.5" y="-38.5" font-family="Helvetica,sans-Serif" font-size="10.00">+</text>
<text text-anchor="start" x="484" y="-38.5" font-family="Helvetica,sans-Serif" font-size="10.00">sweepAngle</text>
<text text-anchor="start" x="466.5" y="-22.5" font-family="Helvetica,sans-Serif" font-size="10.00">+</text>
<text text-anchor="start" x="484" y="-22.5" font-family="Helvetica,sans-Serif" font-size="10.00">weaponRange</text>
<text text-anchor="start" x="466.5" y="-6.5" font-family="Helvetica,sans-Serif" font-size="10.00">+</text>
<text text-anchor="start" x="484" y="-6.5" font-family="Helvetica,sans-Serif" font-size="10.00">Process()</text>
<polygon fill="#666666" stroke="#666666" points="455,-50 455,-50 566,-50 566,-50 455,-50"/>
<polygon fill="#666666" stroke="#666666" points="455,-18 455,-18 482,-18 482,-18 455,-18"/>
<polygon fill="#666666" stroke="#666666" points="482,-18 482,-18 566,-18 566,-18 482,-18"/>
<polygon fill="none" stroke="#666666" points="455,0 455,-68 566,-68 566,0 455,0"/>
</a>
</g>
</g>
<!-- Node9&#45;&gt;Node10 -->
<g id="edge9_Node000009_Node000010" class="edge">
<title>Node9&#45;&gt;Node10</title>
<g id="a_edge9_Node000009_Node000010"><a xlink:title=" ">
<path fill="none" stroke="#63b8ff" d="M553.25,-94.97C546.9,-86.07 540.08,-76.5 533.78,-67.67"/>
<polygon fill="none" stroke="#63b8ff" points="550.36,-96.96 559.02,-103.07 556.06,-92.9 550.36,-96.96"/>
</a>
</g>
</g>
<!-- Node11 -->
<g id="Node000011" class="node">
<title>Node11</title>
<g id="a_Node000011"><a xlink:href="class_p_a1_a_1_1_items_1_1_ranged_item.html" target="_top" xlink:title="Represents a ranged weapon item in the game.">
<polygon fill="white" stroke="none" points="702.5,-60 584.5,-60 584.5,-8 702.5,-8 702.5,-60"/>
<text text-anchor="start" x="589.12" y="-46.5" font-family="Helvetica,sans-Serif" font-size="10.00">PA1A.Items.RangedItem</text>
<text text-anchor="start" x="603" y="-30.5" font-family="Helvetica,sans-Serif" font-size="10.00">+</text>
<text text-anchor="start" x="627.5" y="-30.5" font-family="Helvetica,sans-Serif" font-size="10.00">projectile</text>
<text text-anchor="start" x="603" y="-14.5" font-family="Helvetica,sans-Serif" font-size="10.00">+</text>
<text text-anchor="start" x="627.5" y="-14.5" font-family="Helvetica,sans-Serif" font-size="10.00">Process()</text>
<polygon fill="#666666" stroke="#666666" points="584.5,-42 584.5,-42 702.5,-42 702.5,-42 584.5,-42"/>
<polygon fill="#666666" stroke="#666666" points="584.5,-26 584.5,-26 625.5,-26 625.5,-26 584.5,-26"/>
<polygon fill="#666666" stroke="#666666" points="625.5,-26 625.5,-26 702.5,-26 702.5,-26 625.5,-26"/>
<polygon fill="none" stroke="#666666" points="584.5,-8 584.5,-60 702.5,-60 702.5,-8 584.5,-8"/>
</a>
</g>
</g>
<!-- Node9&#45;&gt;Node11 -->
<g id="edge10_Node000009_Node000011" class="edge">
<title>Node9&#45;&gt;Node11</title>
<g id="a_edge10_Node000009_Node000011"><a xlink:title=" ">
<path fill="none" stroke="#63b8ff" d="M601.44,-94.9C609.58,-83.31 618.51,-70.59 626.05,-59.86"/>
<polygon fill="none" stroke="#63b8ff" points="598.59,-92.87 595.71,-103.06 604.32,-96.89 598.59,-92.87"/>
</a>
</g>
</g>
</g>
</svg>

<g id="navigator" transform="translate(0 0)" fill="#404254">
  <rect fill="#f2f5e9" fill-opacity="0.5" stroke="#606060" stroke-width=".5" x="0" y="0" width="60" height="60"/>
  <use id="zoomplus" xlink:href="#zoomPlus" x="17" y="9" onmousedown="handleZoom(evt,'in')"/>
  <use id="zoomminus" xlink:href="#zoomMin" x="42" y="9" onmousedown="handleZoom(evt,'out')"/>
  <use id="reset" xlink:href="#resetDef" x="30" y="36" onmousedown="handleReset()"/>
   <use id="arrowup" xlink:href="#arrowUp" x="0" y="0" onmousedown="handlePan(0,-1)"/>
  <use id="arrowright" xlink:href="#arrowRight" x="0" y="0" onmousedown="handlePan(1,0)"/>
  <use id="arrowdown" xlink:href="#arrowDown" x="0" y="0" onmousedown="handlePan(0,1)"/>
  <use id="arrowleft" xlink:href="#arrowLeft" x="0" y="0" onmousedown="handlePan(-1,0)"/>
</g>
<svg viewBox="0 0 15 15" width="100%" height="30px" preserveAspectRatio="xMaxYMin meet">
 <g id="arrow_out" transform="scale(0.3 0.3)">
  <a xlink:href="class_i_serialization_callback_receiver__inherit__graph_org.svg" target="_base">
   <rect id="button" ry="5" rx="5" y="6" x="6" height="38" width="38"
        fill="#f2f5e9" fill-opacity="0.5" stroke="#606060" stroke-width="1.0"/>
   <path id="arrow"
     d="M 11.500037,31.436501 C 11.940474,20.09759 22.043105,11.32322 32.158766,21.979434 L 37.068811,17.246167 C 37.068811,17.246167 37.088388,32 37.088388,32 L 22.160133,31.978069 C 22.160133,31.978069 26.997745,27.140456 26.997745,27.140456 C 18.528582,18.264221 13.291696,25.230495 11.500037,31.436501 z"
     style="fill:#404040;"/>
  </a>
 </g>
</svg>

<style type='text/css'>
<![CDATA[
[data-mouse-over-selected='false'] { opacity: 0.7; }
[data-mouse-over-selected='true']  { opacity: 1.0; }
]]>
</style>
<script type="application/ecmascript"><![CDATA[
document.addEventListener('DOMContentLoaded', (event) => {
  highlightEdges();
  highlightAdjacentNodes();
});
]]></script>
</svg>
