<?xml version="1.0" encoding="UTF-8" standalone="no"?>
<!DOCTYPE svg PUBLIC "-//W3C//DTD SVG 1.1//EN"
 "http://www.w3.org/Graphics/SVG/1.1/DTD/svg11.dtd">
<!-- Generated by graphviz version 12.1.2 (20240928.0832)
 -->
<!-- Title: CodeSmile.Statemachine.FSM.State.Update Pages: 1 -->
<svg width="600pt" height="114pt"
 viewBox="0.00 0.00 599.75 114.00" xmlns="http://www.w3.org/2000/svg" xmlns:xlink="http://www.w3.org/1999/xlink">
<g id="graph0" class="graph" transform="scale(1 1) rotate(0) translate(4 110)">
<title>CodeSmile.Statemachine.FSM.State.Update</title>
<!-- Node1 -->
<g id="Node000001" class="node">
<title>Node1</title>
<g id="a_Node000001"><a xlink:title="Updating the state will update all its transitions.">
<polygon fill="#999999" stroke="#666666" points="591.75,-69 437.75,-69 437.75,-37 591.75,-37 591.75,-69"/>
<text text-anchor="start" x="445.75" y="-55.5" font-family="Helvetica,sans-Serif" font-size="10.00">CodeSmile.Statemachine.FSM.</text>
<text text-anchor="middle" x="514.75" y="-43.5" font-family="Helvetica,sans-Serif" font-size="10.00">State.Update</text>
</a>
</g>
</g>
<!-- Node2 -->
<g id="Node000002" class="node">
<title>Node2</title>
<g id="a_Node000002"><a xlink:href="class_code_smile_1_1_statemachine_1_1_f_s_m.html#aa327a470ffbfb51ac98f4324314d93dd" target="_top" xlink:title="Evaluates the statemachine&#39;s states and their transitions.">
<polygon fill="white" stroke="#666666" points="401.75,-69 247.75,-69 247.75,-37 401.75,-37 401.75,-69"/>
<text text-anchor="start" x="255.75" y="-55.5" font-family="Helvetica,sans-Serif" font-size="10.00">CodeSmile.Statemachine.FSM.</text>
<text text-anchor="middle" x="324.75" y="-43.5" font-family="Helvetica,sans-Serif" font-size="10.00">Update</text>
</a>
</g>
</g>
<!-- Node1&#45;&gt;Node2 -->
<g id="edge1_Node000001_Node000002" class="edge">
<title>Node1&#45;&gt;Node2</title>
<g id="a_edge1_Node000001_Node000002"><a xlink:title=" ">
<path fill="none" stroke="#63b8ff" d="M425.78,-53C417.89,-53 409.93,-53 402.15,-53"/>
<polygon fill="#63b8ff" stroke="#63b8ff" points="425.77,-56.5 435.77,-53 425.77,-49.5 425.77,-56.5"/>
</a>
</g>
</g>
<!-- Node3 -->
<g id="Node000003" class="node">
<title>Node3</title>
<g id="a_Node000003"><a xlink:href="class_code_smile_1_1_statemachine_1_1_tests_1_1_statemachine_tests.html#aa410e9960cad8fcfd4804ec766bd5ba7" target="_top" xlink:title=" ">
<polygon fill="white" stroke="#666666" points="211.75,-106 0,-106 0,-62 211.75,-62 211.75,-106"/>
<text text-anchor="start" x="8" y="-92.5" font-family="Helvetica,sans-Serif" font-size="10.00">CodeSmile.Statemachine.Tests.</text>
<text text-anchor="start" x="8" y="-80.5" font-family="Helvetica,sans-Serif" font-size="10.00">StatemachineTests.FSM_LogicalOrCondition</text>
<text text-anchor="middle" x="105.88" y="-68.5" font-family="Helvetica,sans-Serif" font-size="10.00">_ExpectedOutcome</text>
</a>
</g>
</g>
<!-- Node2&#45;&gt;Node3 -->
<g id="edge2_Node000002_Node000003" class="edge">
<title>Node2&#45;&gt;Node3</title>
<g id="a_edge2_Node000002_Node000003"><a xlink:title=" ">
<path fill="none" stroke="#63b8ff" d="M236.13,-65.52C228.15,-66.66 220.02,-67.83 211.91,-68.99"/>
<polygon fill="#63b8ff" stroke="#63b8ff" points="236.39,-69.02 245.79,-64.14 235.4,-62.09 236.39,-69.02"/>
</a>
</g>
</g>
<!-- Node4 -->
<g id="Node000004" class="node">
<title>Node4</title>
<g id="a_Node000004"><a xlink:href="class_code_smile_1_1_statemachine_1_1_tests_1_1_statemachine_tests.html#a3882d30482dc6b250d69e362bf86cec4" target="_top" xlink:title=" ">
<polygon fill="white" stroke="#666666" points="202.75,-44 9,-44 9,0 202.75,0 202.75,-44"/>
<text text-anchor="start" x="17" y="-30.5" font-family="Helvetica,sans-Serif" font-size="10.00">CodeSmile.Statemachine.Tests.</text>
<text text-anchor="start" x="17" y="-18.5" font-family="Helvetica,sans-Serif" font-size="10.00">StatemachineTests.FSM_StartNotCalled</text>
<text text-anchor="middle" x="105.88" y="-6.5" font-family="Helvetica,sans-Serif" font-size="10.00">BeforeEvaluate_Throws</text>
</a>
</g>
</g>
<!-- Node2&#45;&gt;Node4 -->
<g id="edge3_Node000002_Node000004" class="edge">
<title>Node2&#45;&gt;Node4</title>
<g id="a_edge3_Node000002_Node000004"><a xlink:title=" ">
<path fill="none" stroke="#63b8ff" d="M236.11,-40.47C225.26,-38.92 214.13,-37.33 203.17,-35.76"/>
<polygon fill="#63b8ff" stroke="#63b8ff" points="235.4,-43.91 245.79,-41.86 236.39,-36.98 235.4,-43.91"/>
</a>
</g>
</g>
</g>
</svg>
