<?xml version="1.0" encoding="UTF-8" standalone="no"?>
<!DOCTYPE svg PUBLIC "-//W3C//DTD SVG 1.1//EN"
 "http://www.w3.org/Graphics/SVG/1.1/DTD/svg11.dtd">
<!-- Generated by graphviz version 12.1.2 (20240928.0832)
 -->
<!-- Title: CodeSmile.Statemachine.Var&lt; T &gt; Pages: 1 -->
<svg width="224pt" height="484pt"
 viewBox="0.00 0.00 224.00 484.00" xmlns="http://www.w3.org/2000/svg" xmlns:xlink="http://www.w3.org/1999/xlink">
<g id="graph0" class="graph" transform="scale(1 1) rotate(0) translate(4 480)">
<title>CodeSmile.Statemachine.Var&lt; T &gt;</title>
<!-- Node1 -->
<g id="Node000001" class="node">
<title>Node1</title>
<g id="a_Node000001"><a xlink:title="Represents a generic (struct) FSM variable.">
<polygon fill="#999999" stroke="none" points="181.5,-196 20.5,-196 20.5,0 181.5,0 181.5,-196"/>
<text text-anchor="start" x="25.25" y="-182.5" font-family="Helvetica,sans-Serif" font-size="10.00">CodeSmile.Statemachine.Var&lt; T &gt;</text>
<text text-anchor="start" x="43" y="-166.5" font-family="Helvetica,sans-Serif" font-size="10.00">+</text>
<text text-anchor="start" x="71.5" y="-166.5" font-family="Helvetica,sans-Serif" font-size="10.00">Value</text>
<text text-anchor="start" x="43" y="-150.5" font-family="Helvetica,sans-Serif" font-size="10.00">+</text>
<text text-anchor="start" x="71.5" y="-150.5" font-family="Helvetica,sans-Serif" font-size="10.00">Var()</text>
<text text-anchor="start" x="43" y="-134.5" font-family="Helvetica,sans-Serif" font-size="10.00">+</text>
<text text-anchor="start" x="71.5" y="-134.5" font-family="Helvetica,sans-Serif" font-size="10.00">Equals()</text>
<text text-anchor="start" x="43" y="-118.5" font-family="Helvetica,sans-Serif" font-size="10.00">+</text>
<text text-anchor="start" x="71.5" y="-118.5" font-family="Helvetica,sans-Serif" font-size="10.00">Equals()</text>
<text text-anchor="start" x="43" y="-102.5" font-family="Helvetica,sans-Serif" font-size="10.00">+</text>
<text text-anchor="start" x="71.5" y="-102.5" font-family="Helvetica,sans-Serif" font-size="10.00">GetHashCode()</text>
<text text-anchor="start" x="43" y="-86.5" font-family="Helvetica,sans-Serif" font-size="10.00">+</text>
<text text-anchor="start" x="71.5" y="-86.5" font-family="Helvetica,sans-Serif" font-size="10.00">ToString()</text>
<text text-anchor="start" x="43" y="-70.5" font-family="Helvetica,sans-Serif" font-size="10.00">+</text>
<text text-anchor="start" x="71.5" y="-70.5" font-family="Helvetica,sans-Serif" font-size="10.00">SetValue()</text>
<text text-anchor="start" x="43" y="-54.5" font-family="Helvetica,sans-Serif" font-size="10.00">+</text>
<text text-anchor="start" x="71.5" y="-54.5" font-family="Helvetica,sans-Serif" font-size="10.00">AddValue()</text>
<text text-anchor="start" x="43" y="-38.5" font-family="Helvetica,sans-Serif" font-size="10.00">+</text>
<text text-anchor="start" x="71.5" y="-38.5" font-family="Helvetica,sans-Serif" font-size="10.00">SubtractValue()</text>
<text text-anchor="start" x="43" y="-22.5" font-family="Helvetica,sans-Serif" font-size="10.00">+</text>
<text text-anchor="start" x="71.5" y="-22.5" font-family="Helvetica,sans-Serif" font-size="10.00">MultiplyValue()</text>
<text text-anchor="start" x="43" y="-6.5" font-family="Helvetica,sans-Serif" font-size="10.00">+</text>
<text text-anchor="start" x="71.5" y="-6.5" font-family="Helvetica,sans-Serif" font-size="10.00">DivideValue()</text>
<polygon fill="#666666" stroke="#666666" points="20.5,-178 20.5,-178 181.5,-178 181.5,-178 20.5,-178"/>
<polygon fill="#666666" stroke="#666666" points="20.5,-162 20.5,-162 69.5,-162 69.5,-162 20.5,-162"/>
<polygon fill="#666666" stroke="#666666" points="69.5,-162 69.5,-162 181.5,-162 181.5,-162 69.5,-162"/>
<polygon fill="none" stroke="#666666" points="20.5,0 20.5,-196 181.5,-196 181.5,0 20.5,0"/>
</a>
</g>
</g>
<!-- Node2 -->
<g id="Node000002" class="node">
<title>Node2</title>
<g id="a_Node000002"><a xlink:href="class_code_smile_1_1_statemachine_1_1_variable_base.html" target="_top" xlink:title="Base class for all FSM variables.">
<polygon fill="white" stroke="none" points="86,-476 0,-476 0,-232 86,-232 86,-476"/>
<text text-anchor="start" x="14.5" y="-462.5" font-family="Helvetica,sans-Serif" font-size="10.00">VariableBase</text>
<text text-anchor="start" x="41.5" y="-446.5" font-family="Helvetica,sans-Serif" font-size="10.00"> </text>
<text text-anchor="start" x="4" y="-430.5" font-family="Helvetica,sans-Serif" font-size="10.00">+</text>
<text text-anchor="start" x="14" y="-430.5" font-family="Helvetica,sans-Serif" font-size="10.00">Equals()</text>
<text text-anchor="start" x="4" y="-414.5" font-family="Helvetica,sans-Serif" font-size="10.00">+</text>
<text text-anchor="start" x="14" y="-414.5" font-family="Helvetica,sans-Serif" font-size="10.00">GetHashCode()</text>
<text text-anchor="start" x="4" y="-398.5" font-family="Helvetica,sans-Serif" font-size="10.00">+</text>
<text text-anchor="start" x="14" y="-398.5" font-family="Helvetica,sans-Serif" font-size="10.00">SetValue()</text>
<text text-anchor="start" x="4" y="-382.5" font-family="Helvetica,sans-Serif" font-size="10.00">+</text>
<text text-anchor="start" x="14" y="-382.5" font-family="Helvetica,sans-Serif" font-size="10.00">AddValue()</text>
<text text-anchor="start" x="4" y="-366.5" font-family="Helvetica,sans-Serif" font-size="10.00">+</text>
<text text-anchor="start" x="14" y="-366.5" font-family="Helvetica,sans-Serif" font-size="10.00">SubtractValue()</text>
<text text-anchor="start" x="4" y="-350.5" font-family="Helvetica,sans-Serif" font-size="10.00">+</text>
<text text-anchor="start" x="14" y="-350.5" font-family="Helvetica,sans-Serif" font-size="10.00">MultiplyValue()</text>
<text text-anchor="start" x="4" y="-334.5" font-family="Helvetica,sans-Serif" font-size="10.00">+</text>
<text text-anchor="start" x="14" y="-334.5" font-family="Helvetica,sans-Serif" font-size="10.00">DivideValue()</text>
<text text-anchor="start" x="4" y="-318.5" font-family="Helvetica,sans-Serif" font-size="10.00">+</text>
<text text-anchor="start" x="14" y="-318.5" font-family="Helvetica,sans-Serif" font-size="10.00">operator==()</text>
<text text-anchor="start" x="4" y="-302.5" font-family="Helvetica,sans-Serif" font-size="10.00">+</text>
<text text-anchor="start" x="14" y="-302.5" font-family="Helvetica,sans-Serif" font-size="10.00">operator!=()</text>
<text text-anchor="start" x="4" y="-286.5" font-family="Helvetica,sans-Serif" font-size="10.00">+</text>
<text text-anchor="start" x="14" y="-286.5" font-family="Helvetica,sans-Serif" font-size="10.00">operator&lt;()</text>
<text text-anchor="start" x="4" y="-270.5" font-family="Helvetica,sans-Serif" font-size="10.00">+</text>
<text text-anchor="start" x="14" y="-270.5" font-family="Helvetica,sans-Serif" font-size="10.00">operator&gt;()</text>
<text text-anchor="start" x="4" y="-254.5" font-family="Helvetica,sans-Serif" font-size="10.00">+</text>
<text text-anchor="start" x="14" y="-254.5" font-family="Helvetica,sans-Serif" font-size="10.00">operator&lt;=()</text>
<text text-anchor="start" x="4" y="-238.5" font-family="Helvetica,sans-Serif" font-size="10.00">+</text>
<text text-anchor="start" x="14" y="-238.5" font-family="Helvetica,sans-Serif" font-size="10.00">operator&gt;=()</text>
<polygon fill="#666666" stroke="#666666" points="0,-458 0,-458 86,-458 86,-458 0,-458"/>
<polygon fill="#666666" stroke="#666666" points="0,-442 0,-442 86,-442 86,-442 0,-442"/>
<polygon fill="none" stroke="#666666" points="0,-232 0,-476 86,-476 86,-232 0,-232"/>
</a>
</g>
</g>
<!-- Node2&#45;&gt;Node1 -->
<g id="edge1_Node000001_Node000002" class="edge">
<title>Node2&#45;&gt;Node1</title>
<g id="a_edge1_Node000001_Node000002"><a xlink:title=" ">
<path fill="none" stroke="#63b8ff" d="M73.06,-221.37C75.03,-212.73 77,-204.11 78.92,-195.68"/>
<polygon fill="none" stroke="#63b8ff" points="69.71,-220.32 70.89,-230.85 76.53,-221.88 69.71,-220.32"/>
</a>
</g>
</g>
<!-- Node3 -->
<g id="Node000003" class="node">
<title>Node3</title>
<g id="a_Node000003"><a xlink:href="class_i_equatable.html" target="_top" xlink:title=" ">
<polygon fill="white" stroke="none" points="216,-380 104,-380 104,-328 216,-328 216,-380"/>
<text text-anchor="start" x="109" y="-366.5" font-family="Helvetica,sans-Serif" font-size="10.00">IEquatable&lt; Var&lt; T &gt; &gt;</text>
<text text-anchor="start" x="158.5" y="-350.5" font-family="Helvetica,sans-Serif" font-size="10.00"> </text>
<text text-anchor="start" x="158.5" y="-334.5" font-family="Helvetica,sans-Serif" font-size="10.00"> </text>
<polygon fill="#666666" stroke="#666666" points="104,-362 104,-362 216,-362 216,-362 104,-362"/>
<polygon fill="#666666" stroke="#666666" points="104,-346 104,-346 216,-346 216,-346 104,-346"/>
<polygon fill="none" stroke="#666666" points="104,-328 104,-380 216,-380 216,-328 104,-328"/>
</a>
</g>
</g>
<!-- Node3&#45;&gt;Node1 -->
<g id="edge2_Node000001_Node000003" class="edge">
<title>Node3&#45;&gt;Node1</title>
<g id="a_edge2_Node000001_Node000003"><a xlink:title=" ">
<path fill="none" stroke="#63b8ff" d="M151.71,-317.33C144.39,-285.81 133.37,-238.35 123.47,-195.73"/>
<polygon fill="none" stroke="#63b8ff" points="148.22,-317.76 153.89,-326.71 155.04,-316.18 148.22,-317.76"/>
</a>
</g>
</g>
</g>
</svg>
