<?xml version="1.0" encoding="UTF-8" standalone="no"?>
<!DOCTYPE svg PUBLIC "-//W3C//DTD SVG 1.1//EN"
 "http://www.w3.org/Graphics/SVG/1.1/DTD/svg11.dtd">
<!-- Generated by graphviz version 12.1.2 (20240928.0832)
 -->
<!-- Title: CodeSmile.MultiPal.GUI.MenuBase Pages: 1 -->
<svg width="174pt" height="456pt"
 viewBox="0.00 0.00 174.00 456.00" xmlns="http://www.w3.org/2000/svg" xmlns:xlink="http://www.w3.org/1999/xlink">
<g id="graph0" class="graph" transform="scale(1 1) rotate(0) translate(4 452)">
<title>CodeSmile.MultiPal.GUI.MenuBase</title>
<!-- Node1 -->
<g id="Node000001" class="node">
<title>Node1</title>
<g id="a_Node000001"><a xlink:title=" ">
<polygon fill="#999999" stroke="none" points="166,-360 0,-360 0,-212 166,-212 166,-360"/>
<text text-anchor="start" x="4.62" y="-346.5" font-family="Helvetica,sans-Serif" font-size="10.00">CodeSmile.MultiPal.GUI.MenuBase</text>
<text text-anchor="start" x="22" y="-330.5" font-family="Helvetica,sans-Serif" font-size="10.00">+</text>
<text text-anchor="start" x="50" y="-330.5" font-family="Helvetica,sans-Serif" font-size="10.00">IsHidden</text>
<text text-anchor="start" x="22" y="-314.5" font-family="Helvetica,sans-Serif" font-size="10.00">+</text>
<text text-anchor="start" x="50" y="-314.5" font-family="Helvetica,sans-Serif" font-size="10.00">IsVisible</text>
<text text-anchor="start" x="22" y="-298.5" font-family="Helvetica,sans-Serif" font-size="10.00">+</text>
<text text-anchor="start" x="50" y="-298.5" font-family="Helvetica,sans-Serif" font-size="10.00">MenuPlayerIndex</text>
<text text-anchor="start" x="22.38" y="-282.5" font-family="Helvetica,sans-Serif" font-size="10.00">#</text>
<text text-anchor="start" x="50" y="-282.5" font-family="Helvetica,sans-Serif" font-size="10.00">m_Root</text>
<text text-anchor="start" x="22" y="-266.5" font-family="Helvetica,sans-Serif" font-size="10.00">+</text>
<text text-anchor="start" x="50" y="-266.5" font-family="Helvetica,sans-Serif" font-size="10.00">Show()</text>
<text text-anchor="start" x="22" y="-250.5" font-family="Helvetica,sans-Serif" font-size="10.00">+</text>
<text text-anchor="start" x="50" y="-250.5" font-family="Helvetica,sans-Serif" font-size="10.00">Hide()</text>
<text text-anchor="start" x="22" y="-234.5" font-family="Helvetica,sans-Serif" font-size="10.00">+</text>
<text text-anchor="start" x="50" y="-234.5" font-family="Helvetica,sans-Serif" font-size="10.00">ToggleVisible()</text>
<text text-anchor="start" x="22.38" y="-218.5" font-family="Helvetica,sans-Serif" font-size="10.00">#</text>
<text text-anchor="start" x="50" y="-218.5" font-family="Helvetica,sans-Serif" font-size="10.00">Awake()</text>
<polygon fill="#666666" stroke="#666666" points="0,-342 0,-342 166,-342 166,-342 0,-342"/>
<polygon fill="#666666" stroke="#666666" points="0,-278 0,-278 48,-278 48,-278 0,-278"/>
<polygon fill="#666666" stroke="#666666" points="48,-278 48,-278 166,-278 166,-278 48,-278"/>
<polygon fill="none" stroke="#666666" points="0,-212 0,-360 166,-360 166,-212 0,-212"/>
</a>
</g>
</g>
<!-- Node3 -->
<g id="Node000003" class="node">
<title>Node3</title>
<g id="a_Node000003"><a xlink:href="class_code_smile_1_1_multi_pal_1_1_g_u_i_1_1_dev_main_menu.html" target="_top" xlink:title=" ">
<polygon fill="white" stroke="none" points="152,-176 14,-176 14,0 152,0 152,-176"/>
<text text-anchor="start" x="18.88" y="-162.5" font-family="Helvetica,sans-Serif" font-size="10.00">CodeSmile.MultiPal.GUI.Dev</text>
<text text-anchor="start" x="60.5" y="-150.5" font-family="Helvetica,sans-Serif" font-size="10.00">MainMenu</text>
<text text-anchor="start" x="22.5" y="-134.5" font-family="Helvetica,sans-Serif" font-size="10.00">+</text>
<text text-anchor="start" x="37" y="-134.5" font-family="Helvetica,sans-Serif" font-size="10.00">AllowWebClientsToggle</text>
<text text-anchor="start" x="22.5" y="-118.5" font-family="Helvetica,sans-Serif" font-size="10.00">+</text>
<text text-anchor="start" x="37" y="-118.5" font-family="Helvetica,sans-Serif" font-size="10.00">HostRelayButton</text>
<text text-anchor="start" x="22.5" y="-102.5" font-family="Helvetica,sans-Serif" font-size="10.00">+</text>
<text text-anchor="start" x="37" y="-102.5" font-family="Helvetica,sans-Serif" font-size="10.00">HostDirectButton</text>
<text text-anchor="start" x="22.5" y="-86.5" font-family="Helvetica,sans-Serif" font-size="10.00">+</text>
<text text-anchor="start" x="37" y="-86.5" font-family="Helvetica,sans-Serif" font-size="10.00">JoinCodeField</text>
<text text-anchor="start" x="22.5" y="-70.5" font-family="Helvetica,sans-Serif" font-size="10.00">+</text>
<text text-anchor="start" x="37" y="-70.5" font-family="Helvetica,sans-Serif" font-size="10.00">JoinRelayButton</text>
<text text-anchor="start" x="22.5" y="-54.5" font-family="Helvetica,sans-Serif" font-size="10.00">+</text>
<text text-anchor="start" x="37" y="-54.5" font-family="Helvetica,sans-Serif" font-size="10.00">AddressField</text>
<text text-anchor="start" x="22.5" y="-38.5" font-family="Helvetica,sans-Serif" font-size="10.00">+</text>
<text text-anchor="start" x="37" y="-38.5" font-family="Helvetica,sans-Serif" font-size="10.00">PortField</text>
<text text-anchor="start" x="22.5" y="-22.5" font-family="Helvetica,sans-Serif" font-size="10.00">+</text>
<text text-anchor="start" x="37" y="-22.5" font-family="Helvetica,sans-Serif" font-size="10.00">JoinDirectButton</text>
<text text-anchor="start" x="22.88" y="-6.5" font-family="Helvetica,sans-Serif" font-size="10.00">#</text>
<text text-anchor="start" x="37" y="-6.5" font-family="Helvetica,sans-Serif" font-size="10.00">Awake()</text>
<polygon fill="#666666" stroke="#666666" points="14,-146 14,-146 152,-146 152,-146 14,-146"/>
<polygon fill="#666666" stroke="#666666" points="14,-18 14,-18 35,-18 35,-18 14,-18"/>
<polygon fill="#666666" stroke="#666666" points="35,-18 35,-18 152,-18 152,-18 35,-18"/>
<polygon fill="none" stroke="#666666" points="14,0 14,-176 152,-176 152,0 14,0"/>
</a>
</g>
</g>
<!-- Node1&#45;&gt;Node3 -->
<g id="edge2_Node000001_Node000003" class="edge">
<title>Node1&#45;&gt;Node3</title>
<g id="a_edge2_Node000001_Node000003"><a xlink:title=" ">
<path fill="none" stroke="#63b8ff" d="M83,-200.59C83,-192.43 83,-184.14 83,-175.95"/>
<polygon fill="none" stroke="#63b8ff" points="79.5,-200.5 83,-210.5 86.5,-200.5 79.5,-200.5"/>
</a>
</g>
</g>
<!-- Node2 -->
<g id="Node000002" class="node">
<title>Node2</title>
<g id="a_Node000002"><a xlink:href="class_mono_behaviour.html" target="_top" xlink:title=" ">
<polygon fill="white" stroke="none" points="121.5,-448 44.5,-448 44.5,-396 121.5,-396 121.5,-448"/>
<text text-anchor="start" x="49.25" y="-434.5" font-family="Helvetica,sans-Serif" font-size="10.00">MonoBehaviour</text>
<text text-anchor="start" x="81.5" y="-418.5" font-family="Helvetica,sans-Serif" font-size="10.00"> </text>
<text text-anchor="start" x="81.5" y="-402.5" font-family="Helvetica,sans-Serif" font-size="10.00"> </text>
<polygon fill="#666666" stroke="#666666" points="44.5,-430 44.5,-430 121.5,-430 121.5,-430 44.5,-430"/>
<polygon fill="#666666" stroke="#666666" points="44.5,-414 44.5,-414 121.5,-414 121.5,-414 44.5,-414"/>
<polygon fill="none" stroke="#666666" points="44.5,-396 44.5,-448 121.5,-448 121.5,-396 44.5,-396"/>
</a>
</g>
</g>
<!-- Node2&#45;&gt;Node1 -->
<g id="edge1_Node000001_Node000002" class="edge">
<title>Node2&#45;&gt;Node1</title>
<g id="a_edge1_Node000001_Node000002"><a xlink:title=" ">
<path fill="none" stroke="#63b8ff" d="M83,-384.61C83,-376.87 83,-368.44 83,-359.88"/>
<polygon fill="none" stroke="#63b8ff" points="79.5,-384.6 83,-394.6 86.5,-384.6 79.5,-384.6"/>
</a>
</g>
</g>
</g>
</svg>
