<?xml version="1.0" encoding="UTF-8" standalone="no"?>
<!DOCTYPE svg PUBLIC "-//W3C//DTD SVG 1.1//EN"
 "http://www.w3.org/Graphics/SVG/1.1/DTD/svg11.dtd">
<!-- Generated by graphviz version 12.1.2 (20240928.0832)
 -->
<!-- Title: PA1A.Player.Controller.PlayerController.GetMomentum Pages: 1 -->
<svg width="535pt" height="277pt"
 viewBox="0.00 0.00 534.50 277.00" xmlns="http://www.w3.org/2000/svg" xmlns:xlink="http://www.w3.org/1999/xlink">
<g id="graph0" class="graph" transform="scale(1 1) rotate(0) translate(4 273)">
<title>PA1A.Player.Controller.PlayerController.GetMomentum</title>
<!-- Node1 -->
<g id="Node000001" class="node">
<title>Node1</title>
<g id="a_Node000001"><a xlink:title="Gets the momentum of the player.">
<polygon fill="#999999" stroke="#666666" points="147.25,-107 0,-107 0,-75 147.25,-75 147.25,-107"/>
<text text-anchor="start" x="8" y="-93.5" font-family="Helvetica,sans-Serif" font-size="10.00">PA1A.Player.Controller.Player</text>
<text text-anchor="middle" x="73.62" y="-81.5" font-family="Helvetica,sans-Serif" font-size="10.00">Controller.GetMomentum</text>
</a>
</g>
</g>
<!-- Node2 -->
<g id="Node000002" class="node">
<title>Node2</title>
<g id="a_Node000002"><a xlink:href="class_p_a1_a_1_1_player_1_1_controller_1_1_player_mover.html#a9d3a9284a00f5ef34a557a10004e253f" target="_top" xlink:title=" ">
<polygon fill="white" stroke="#666666" points="332.38,-194 185.12,-194 185.12,-162 332.38,-162 332.38,-194"/>
<text text-anchor="start" x="193.12" y="-180.5" font-family="Helvetica,sans-Serif" font-size="10.00">PA1A.Player.Controller.Player</text>
<text text-anchor="middle" x="258.75" y="-168.5" font-family="Helvetica,sans-Serif" font-size="10.00">Mover.CheckForGround</text>
</a>
</g>
</g>
<!-- Node1&#45;&gt;Node2 -->
<g id="edge1_Node000001_Node000002" class="edge">
<title>Node1&#45;&gt;Node2</title>
<g id="a_edge1_Node000001_Node000002"><a xlink:title=" ">
<path fill="none" stroke="#63b8ff" d="M109.07,-107.36C138.52,-121.35 181.09,-141.58 213.14,-156.81"/>
<polygon fill="#63b8ff" stroke="#63b8ff" points="211.25,-159.78 221.78,-160.91 214.25,-153.46 211.25,-159.78"/>
</a>
</g>
</g>
<!-- Node6 -->
<g id="Node000006" class="node">
<title>Node6</title>
<g id="a_Node000006"><a xlink:href="class_unity_utils_1_1_state_machine_1_1_state_machine.html#a3d8b3508c1fb26a730bb87dce2441ba7" target="_top" xlink:title=" ">
<polygon fill="white" stroke="#666666" points="326,-132 191.5,-132 191.5,-100 326,-100 326,-132"/>
<text text-anchor="start" x="199.5" y="-118.5" font-family="Helvetica,sans-Serif" font-size="10.00">UnityUtils.StateMachine.</text>
<text text-anchor="middle" x="258.75" y="-106.5" font-family="Helvetica,sans-Serif" font-size="10.00">StateMachine.FixedUpdate</text>
</a>
</g>
</g>
<!-- Node1&#45;&gt;Node6 -->
<g id="edge5_Node000001_Node000006" class="edge">
<title>Node1&#45;&gt;Node6</title>
<g id="a_edge5_Node000001_Node000006"><a xlink:title=" ">
<path fill="none" stroke="#63b8ff" d="M147.53,-100.95C158.19,-102.41 169.2,-103.91 179.95,-105.38"/>
<polygon fill="#63b8ff" stroke="#63b8ff" points="179.16,-108.8 189.54,-106.69 180.1,-101.87 179.16,-108.8"/>
</a>
</g>
</g>
<!-- Node8 -->
<g id="Node000008" class="node">
<title>Node8</title>
<g id="a_Node000008"><a xlink:href="class_p_a1_a_1_1_player_1_1_controller_1_1_player_mover.html#a54dca5d1de663a4fa213f373482af131" target="_top" xlink:title=" ">
<polygon fill="white" stroke="#666666" points="334.25,-82 183.25,-82 183.25,-50 334.25,-50 334.25,-82"/>
<text text-anchor="start" x="191.25" y="-68.5" font-family="Helvetica,sans-Serif" font-size="10.00">PA1A.Player.Controller.Player</text>
<text text-anchor="middle" x="258.75" y="-56.5" font-family="Helvetica,sans-Serif" font-size="10.00">Mover.SetExtendSensorRange</text>
</a>
</g>
</g>
<!-- Node1&#45;&gt;Node8 -->
<g id="edge7_Node000001_Node000008" class="edge">
<title>Node1&#45;&gt;Node8</title>
<g id="a_edge7_Node000001_Node000008"><a xlink:title=" ">
<path fill="none" stroke="#63b8ff" d="M147.53,-81.05C155.46,-79.96 163.59,-78.86 171.66,-77.75"/>
<polygon fill="#63b8ff" stroke="#63b8ff" points="172.07,-81.23 181.5,-76.41 171.12,-74.29 172.07,-81.23"/>
</a>
</g>
</g>
<!-- Node9 -->
<g id="Node000009" class="node">
<title>Node9</title>
<g id="a_Node000009"><a xlink:href="class_p_a1_a_1_1_player_1_1_controller_1_1_player_mover.html#a03dff5edf5e243cb52f692be9a00aeb3" target="_top" xlink:title=" ">
<polygon fill="white" stroke="#666666" points="332.38,-32 185.12,-32 185.12,0 332.38,0 332.38,-32"/>
<text text-anchor="start" x="193.12" y="-18.5" font-family="Helvetica,sans-Serif" font-size="10.00">PA1A.Player.Controller.Player</text>
<text text-anchor="middle" x="258.75" y="-6.5" font-family="Helvetica,sans-Serif" font-size="10.00">Mover.SetVelocity</text>
</a>
</g>
</g>
<!-- Node1&#45;&gt;Node9 -->
<g id="edge8_Node000001_Node000009" class="edge">
<title>Node1&#45;&gt;Node9</title>
<g id="a_edge8_Node000001_Node000009"><a xlink:title=" ">
<path fill="none" stroke="#63b8ff" d="M107.98,-74.51C129.27,-64.28 157.58,-51.18 183.25,-41 187.27,-39.4 191.44,-37.82 195.66,-36.27"/>
<polygon fill="#63b8ff" stroke="#63b8ff" points="196.53,-39.68 204.77,-33.01 194.17,-33.09 196.53,-39.68"/>
</a>
</g>
</g>
<!-- Node3 -->
<g id="Node000003" class="node">
<title>Node3</title>
<g id="a_Node000003"><a xlink:href="class_p_a1_a_1_1_player_1_1_controller_1_1_raycast_sensor.html#ae5faded6088a87b4cc7e82879b6db213" target="_top" xlink:title="Casts a raycast in the specified direction.">
<polygon fill="white" stroke="#666666" points="526.5,-269 370.25,-269 370.25,-237 526.5,-237 526.5,-269"/>
<text text-anchor="start" x="378.25" y="-255.5" font-family="Helvetica,sans-Serif" font-size="10.00">PA1A.Player.Controller.Raycast</text>
<text text-anchor="middle" x="448.38" y="-243.5" font-family="Helvetica,sans-Serif" font-size="10.00">Sensor.Cast</text>
</a>
</g>
</g>
<!-- Node2&#45;&gt;Node3 -->
<g id="edge2_Node000002_Node000003" class="edge">
<title>Node2&#45;&gt;Node3</title>
<g id="a_edge2_Node000002_Node000003"><a xlink:title=" ">
<path fill="none" stroke="#63b8ff" d="M293.19,-194.31C314.89,-204.6 343.94,-217.82 370.25,-228 374.53,-229.66 378.98,-231.3 383.47,-232.9"/>
<polygon fill="#63b8ff" stroke="#63b8ff" points="381.97,-236.08 392.57,-236.06 384.27,-229.47 381.97,-236.08"/>
</a>
</g>
</g>
<!-- Node4 -->
<g id="Node000004" class="node">
<title>Node4</title>
<g id="a_Node000004"><a xlink:href="class_p_a1_a_1_1_player_1_1_controller_1_1_raycast_sensor.html#a7855ea8c8a046a3352fe65059e977d79" target="_top" xlink:title="Gets the distance to the hit point.">
<polygon fill="white" stroke="#666666" points="526.5,-219 370.25,-219 370.25,-187 526.5,-187 526.5,-219"/>
<text text-anchor="start" x="378.25" y="-205.5" font-family="Helvetica,sans-Serif" font-size="10.00">PA1A.Player.Controller.Raycast</text>
<text text-anchor="middle" x="448.38" y="-193.5" font-family="Helvetica,sans-Serif" font-size="10.00">Sensor.GetDistance</text>
</a>
</g>
</g>
<!-- Node2&#45;&gt;Node4 -->
<g id="edge3_Node000002_Node000004" class="edge">
<title>Node2&#45;&gt;Node4</title>
<g id="a_edge3_Node000002_Node000004"><a xlink:title=" ">
<path fill="none" stroke="#63b8ff" d="M332.83,-187.74C341.27,-188.86 349.95,-190.02 358.57,-191.17"/>
<polygon fill="#63b8ff" stroke="#63b8ff" points="357.97,-194.62 368.35,-192.47 358.9,-187.68 357.97,-194.62"/>
</a>
</g>
</g>
<!-- Node5 -->
<g id="Node000005" class="node">
<title>Node5</title>
<g id="a_Node000005"><a xlink:href="class_p_a1_a_1_1_player_1_1_controller_1_1_raycast_sensor.html#ac4321982308b2b9ec388d93bcea78fc6" target="_top" xlink:title="Checks if a hit has been detected.">
<polygon fill="white" stroke="#666666" points="526.5,-169 370.25,-169 370.25,-137 526.5,-137 526.5,-169"/>
<text text-anchor="start" x="378.25" y="-155.5" font-family="Helvetica,sans-Serif" font-size="10.00">PA1A.Player.Controller.Raycast</text>
<text text-anchor="middle" x="448.38" y="-143.5" font-family="Helvetica,sans-Serif" font-size="10.00">Sensor.HasDetectedHit</text>
</a>
</g>
</g>
<!-- Node2&#45;&gt;Node5 -->
<g id="edge4_Node000002_Node000005" class="edge">
<title>Node2&#45;&gt;Node5</title>
<g id="a_edge4_Node000002_Node000005"><a xlink:title=" ">
<path fill="none" stroke="#63b8ff" d="M332.83,-168.26C341.27,-167.14 349.95,-165.98 358.57,-164.83"/>
<polygon fill="#63b8ff" stroke="#63b8ff" points="358.9,-168.32 368.35,-163.53 357.97,-161.38 358.9,-168.32"/>
</a>
</g>
</g>
<!-- Node7 -->
<g id="Node000007" class="node">
<title>Node7</title>
<g id="a_Node000007"><a xlink:href="interface_unity_utils_1_1_state_machine_1_1_i_state.html#a992ddc3773119ca9ab30338da056cdd5" target="_top" xlink:title=" ">
<polygon fill="white" stroke="#666666" points="511.12,-119 385.62,-119 385.62,-87 511.12,-87 511.12,-119"/>
<text text-anchor="start" x="393.62" y="-105.5" font-family="Helvetica,sans-Serif" font-size="10.00">UnityUtils.StateMachine.</text>
<text text-anchor="middle" x="448.38" y="-93.5" font-family="Helvetica,sans-Serif" font-size="10.00">IState.FixedUpdate</text>
</a>
</g>
</g>
<!-- Node6&#45;&gt;Node7 -->
<g id="edge6_Node000006_Node000007" class="edge">
<title>Node6&#45;&gt;Node7</title>
<g id="a_edge6_Node000006_Node000007"><a xlink:title=" ">
<path fill="none" stroke="#63b8ff" d="M326.43,-111.38C341.85,-110.31 358.35,-109.17 374.04,-108.08"/>
<polygon fill="#63b8ff" stroke="#63b8ff" points="374.06,-111.59 383.79,-107.41 373.57,-104.61 374.06,-111.59"/>
</a>
</g>
</g>
</g>
</svg>
