<?xml version="1.0" encoding="UTF-8" standalone="no"?>
<!DOCTYPE svg PUBLIC "-//W3C//DTD SVG 1.1//EN"
 "http://www.w3.org/Graphics/SVG/1.1/DTD/svg11.dtd">
<!-- Generated by graphviz version 12.1.2 (20240928.0832)
 -->
<!-- Title: Button Pages: 1 -->
<svg width="246pt" height="148pt"
 viewBox="0.00 0.00 245.50 148.00" xmlns="http://www.w3.org/2000/svg" xmlns:xlink="http://www.w3.org/1999/xlink">

<svg id="main" version="1.1" xmlns="http://www.w3.org/2000/svg" xmlns:xlink="http://www.w3.org/1999/xlink" xml:space="preserve">

<style type="text/css"><![CDATA[
.node, .edge {opacity: 0.7;}
.node.selected, .edge.selected {opacity: 1;}
.edge:hover path { stroke: red; }
.edge:hover polygon { stroke: red; fill: red; }
]]></style>
<script type="application/ecmascript" xlink:href="svg.min.js"/>
<svg id="graph" class="graph">
<g id="graph0" class="graph" transform="scale(1 1) rotate(0) translate(4 144)">
<title>Button</title>
<!-- Node1 -->
<g id="Node000001" class="node">
<title>Node1</title>
<g id="a_Node000001"><a xlink:title=" ">
<polygon fill="#999999" stroke="none" points="139.5,-140 101.5,-140 101.5,-88 139.5,-88 139.5,-140"/>
<text text-anchor="start" x="106.25" y="-126.5" font-family="Helvetica,sans-Serif" font-size="10.00">Button</text>
<text text-anchor="start" x="119" y="-110.5" font-family="Helvetica,sans-Serif" font-size="10.00"> </text>
<text text-anchor="start" x="119" y="-94.5" font-family="Helvetica,sans-Serif" font-size="10.00"> </text>
<polygon fill="#666666" stroke="#666666" points="101.5,-122 101.5,-122 139.5,-122 139.5,-122 101.5,-122"/>
<polygon fill="#666666" stroke="#666666" points="101.5,-106 101.5,-106 139.5,-106 139.5,-106 101.5,-106"/>
<polygon fill="none" stroke="#666666" points="101.5,-88 101.5,-140 139.5,-140 139.5,-88 101.5,-88"/>
</a>
</g>
</g>
<!-- Node2 -->
<g id="Node000002" class="node">
<title>Node2</title>
<g id="a_Node000002"><a xlink:href="class_p_a1_a_1_1_dev_1_1_ability_button.html" target="_top" xlink:title="Represents a button that corresponds to a specific ability.">
<polygon fill="white" stroke="none" points="113,-52 0,-52 0,0 113,0 113,-52"/>
<text text-anchor="start" x="4.75" y="-38.5" font-family="Helvetica,sans-Serif" font-size="10.00">PA1A.Dev.AbilityButton</text>
<text text-anchor="start" x="55" y="-22.5" font-family="Helvetica,sans-Serif" font-size="10.00"> </text>
<text text-anchor="start" x="9" y="-6.5" font-family="Helvetica,sans-Serif" font-size="10.00">~</text>
<text text-anchor="start" x="24" y="-6.5" font-family="Helvetica,sans-Serif" font-size="10.00">SetAbilityName()</text>
<polygon fill="#666666" stroke="#666666" points="0,-34 0,-34 113,-34 113,-34 0,-34"/>
<polygon fill="#666666" stroke="#666666" points="0,-18 0,-18 113,-18 113,-18 0,-18"/>
<polygon fill="none" stroke="#666666" points="0,0 0,-52 113,-52 113,0 0,0"/>
</a>
</g>
</g>
<!-- Node1&#45;&gt;Node2 -->
<g id="edge1_Node000001_Node000002" class="edge">
<title>Node1&#45;&gt;Node2</title>
<g id="a_edge1_Node000001_Node000002"><a xlink:title=" ">
<path fill="none" stroke="#63b8ff" d="M95.17,-78.96C88.42,-69.9 81.27,-60.28 74.97,-51.82"/>
<polygon fill="none" stroke="#63b8ff" points="92.31,-80.98 101.08,-86.91 97.92,-76.8 92.31,-80.98"/>
</a>
</g>
</g>
<!-- Node3 -->
<g id="Node000003" class="node">
<title>Node3</title>
<g id="a_Node000003"><a xlink:href="class_p_a1_a_1_1_dev_1_1_item_button.html" target="_top" xlink:title="Represents a button that displays an inventory item and allows the player to use its ability.">
<polygon fill="white" stroke="none" points="237.5,-52 131.5,-52 131.5,0 237.5,0 237.5,-52"/>
<text text-anchor="start" x="136.5" y="-38.5" font-family="Helvetica,sans-Serif" font-size="10.00">PA1A.Dev.ItemButton</text>
<text text-anchor="start" x="183" y="-22.5" font-family="Helvetica,sans-Serif" font-size="10.00"> </text>
<text text-anchor="start" x="139" y="-6.5" font-family="Helvetica,sans-Serif" font-size="10.00">~</text>
<text text-anchor="start" x="152.5" y="-6.5" font-family="Helvetica,sans-Serif" font-size="10.00">SetAbilityName()</text>
<polygon fill="#666666" stroke="#666666" points="131.5,-34 131.5,-34 237.5,-34 237.5,-34 131.5,-34"/>
<polygon fill="#666666" stroke="#666666" points="131.5,-18 131.5,-18 237.5,-18 237.5,-18 131.5,-18"/>
<polygon fill="none" stroke="#666666" points="131.5,0 131.5,-52 237.5,-52 237.5,0 131.5,0"/>
</a>
</g>
</g>
<!-- Node1&#45;&gt;Node3 -->
<g id="edge2_Node000001_Node000003" class="edge">
<title>Node1&#45;&gt;Node3</title>
<g id="a_edge2_Node000001_Node000003"><a xlink:title=" ">
<path fill="none" stroke="#63b8ff" d="M145.83,-78.96C152.58,-69.9 159.73,-60.28 166.03,-51.82"/>
<polygon fill="none" stroke="#63b8ff" points="143.08,-76.8 139.92,-86.91 148.69,-80.98 143.08,-76.8"/>
</a>
</g>
</g>
</g>
</svg>
</svg>

<style type='text/css'>
<![CDATA[
[data-mouse-over-selected='false'] { opacity: 0.7; }
[data-mouse-over-selected='true']  { opacity: 1.0; }
]]>
</style>
<script type="application/ecmascript"><![CDATA[
document.addEventListener('DOMContentLoaded', (event) => {
  highlightEdges();
  highlightAdjacentNodes();
});
]]></script>
</svg>
