<?xml version="1.0" encoding="UTF-8" standalone="no"?>
<!DOCTYPE svg PUBLIC "-//W3C//DTD SVG 1.1//EN"
 "http://www.w3.org/Graphics/SVG/1.1/DTD/svg11.dtd">
<!-- Generated by graphviz version 12.1.2 (20240928.0832)
 -->
<!-- Title: PA1A.Items.Container.GetSlot Pages: 1 -->
<svg width="384pt" height="192pt"
 viewBox="0.00 0.00 384.25 192.00" xmlns="http://www.w3.org/2000/svg" xmlns:xlink="http://www.w3.org/1999/xlink">

<svg id="main" version="1.1" xmlns="http://www.w3.org/2000/svg" xmlns:xlink="http://www.w3.org/1999/xlink" xml:space="preserve">

<style type="text/css"><![CDATA[
.node, .edge {opacity: 0.7;}
.node.selected, .edge.selected {opacity: 1;}
.edge:hover path { stroke: red; }
.edge:hover polygon { stroke: red; fill: red; }
]]></style>
<script type="application/ecmascript" xlink:href="svg.min.js"/>
<svg id="graph" class="graph">
<g id="graph0" class="graph" transform="scale(1 1) rotate(0) translate(4 188)">
<title>PA1A.Items.Container.GetSlot</title>
<!-- Node1 -->
<g id="Node000001" class="node">
<title>Node1</title>
<g id="a_Node000001"><a xlink:title=" ">
<polygon fill="#999999" stroke="#666666" points="376.25,-96 226.75,-96 226.75,-76 376.25,-76 376.25,-96"/>
<text text-anchor="middle" x="301.5" y="-82.5" font-family="Helvetica,sans-Serif" font-size="10.00">PA1A.Items.Container.GetSlot</text>
</a>
</g>
</g>
<!-- Node2 -->
<g id="Node000002" class="node">
<title>Node2</title>
<g id="a_Node000002"><a xlink:href="class_p_a1_a_1_1_items_1_1_player_inventory.html#a97b47c3c78c0fdf489178b69eb00b7b0" target="_top" xlink:title="Clears the IStackContainer contained ItemStack">
<polygon fill="white" stroke="#666666" points="166.38,-184 24.38,-184 24.38,-152 166.38,-152 166.38,-184"/>
<text text-anchor="start" x="32.38" y="-170.5" font-family="Helvetica,sans-Serif" font-size="10.00">PA1A.Items.PlayerInventory.</text>
<text text-anchor="middle" x="95.38" y="-158.5" font-family="Helvetica,sans-Serif" font-size="10.00">Clear</text>
</a>
</g>
</g>
<!-- Node1&#45;&gt;Node2 -->
<g id="edge1_Node000001_Node000002" class="edge">
<title>Node1&#45;&gt;Node2</title>
<g id="a_edge1_Node000001_Node000002"><a xlink:title=" ">
<path fill="none" stroke="#63b8ff" d="M273.74,-102.02C251.98,-114.52 220.18,-131.62 190.75,-143 182.77,-146.09 174.26,-148.93 165.75,-151.5"/>
<polygon fill="#63b8ff" stroke="#63b8ff" points="275.38,-105.12 282.25,-97.06 271.85,-99.07 275.38,-105.12"/>
</a>
</g>
</g>
<!-- Node3 -->
<g id="Node000003" class="node">
<title>Node3</title>
<g id="a_Node000003"><a xlink:href="class_p_a1_a_1_1_items_1_1_flexible_size_container.html#a332421f40986f665c3e8cd0efb8e289f" target="_top" xlink:title="Gives the specified ItemStack to the IStackContainer and substracts the given amount from the ItemSta...">
<polygon fill="white" stroke="#666666" points="190.38,-134 0.38,-134 0.38,-114 190.38,-114 190.38,-134"/>
<text text-anchor="middle" x="95.38" y="-120.5" font-family="Helvetica,sans-Serif" font-size="10.00">PA1A.Items.FlexibleSizeContainer.Give</text>
</a>
</g>
</g>
<!-- Node1&#45;&gt;Node3 -->
<g id="edge2_Node000001_Node000003" class="edge">
<title>Node1&#45;&gt;Node3</title>
<g id="a_edge2_Node000001_Node000003"><a xlink:title=" ">
<path fill="none" stroke="#63b8ff" d="M232.86,-98.59C206.81,-103.44 177.36,-108.92 152.51,-113.55"/>
<polygon fill="#63b8ff" stroke="#63b8ff" points="233.5,-102.03 242.69,-96.76 232.22,-95.15 233.5,-102.03"/>
</a>
</g>
</g>
<!-- Node4 -->
<g id="Node000004" class="node">
<title>Node4</title>
<g id="a_Node000004"><a xlink:href="class_p_a1_a_1_1_items_1_1_player_inventory.html#a1d2af4b81e701e9e2241a05a3a72cdcb" target="_top" xlink:title="Gives the specified ItemStack to the IStackContainer and substracts the given amount from the ItemSta...">
<polygon fill="white" stroke="#666666" points="176.5,-96 14.25,-96 14.25,-76 176.5,-76 176.5,-96"/>
<text text-anchor="middle" x="95.38" y="-82.5" font-family="Helvetica,sans-Serif" font-size="10.00">PA1A.Items.PlayerInventory.Give</text>
</a>
</g>
</g>
<!-- Node1&#45;&gt;Node4 -->
<g id="edge3_Node000001_Node000004" class="edge">
<title>Node1&#45;&gt;Node4</title>
<g id="a_edge3_Node000001_Node000004"><a xlink:title=" ">
<path fill="none" stroke="#63b8ff" d="M215.37,-86C202.55,-86 189.37,-86 176.66,-86"/>
<polygon fill="#63b8ff" stroke="#63b8ff" points="215,-89.5 225,-86 215,-82.5 215,-89.5"/>
</a>
</g>
</g>
<!-- Node5 -->
<g id="Node000005" class="node">
<title>Node5</title>
<g id="a_Node000005"><a xlink:href="class_p_a1_a_1_1_items_1_1_flexible_size_container.html#aa224aa134f3da8d02dd052397889670f" target="_top" xlink:title="Takes the specified ItemStack from the IStackContainer and substracts the taken amount from the ItemS...">
<polygon fill="white" stroke="#666666" points="190.75,-58 0,-58 0,-38 190.75,-38 190.75,-58"/>
<text text-anchor="middle" x="95.38" y="-44.5" font-family="Helvetica,sans-Serif" font-size="10.00">PA1A.Items.FlexibleSizeContainer.Take</text>
</a>
</g>
</g>
<!-- Node1&#45;&gt;Node5 -->
<g id="edge4_Node000001_Node000005" class="edge">
<title>Node1&#45;&gt;Node5</title>
<g id="a_edge4_Node000001_Node000005"><a xlink:title=" ">
<path fill="none" stroke="#63b8ff" d="M232.86,-73.41C206.81,-68.56 177.36,-63.08 152.51,-58.45"/>
<polygon fill="#63b8ff" stroke="#63b8ff" points="232.22,-76.85 242.69,-75.24 233.5,-69.97 232.22,-76.85"/>
</a>
</g>
</g>
<!-- Node6 -->
<g id="Node000006" class="node">
<title>Node6</title>
<g id="a_Node000006"><a xlink:href="class_p_a1_a_1_1_items_1_1_player_inventory.html#a4915f1766461f3a03808a3f3ff90f65a" target="_top" xlink:title="Takes the specified ItemStack from the IStackContainer and substracts the taken amount from the ItemS...">
<polygon fill="white" stroke="#666666" points="176.88,-20 13.88,-20 13.88,0 176.88,0 176.88,-20"/>
<text text-anchor="middle" x="95.38" y="-6.5" font-family="Helvetica,sans-Serif" font-size="10.00">PA1A.Items.PlayerInventory.Take</text>
</a>
</g>
</g>
<!-- Node1&#45;&gt;Node6 -->
<g id="edge5_Node000001_Node000006" class="edge">
<title>Node1&#45;&gt;Node6</title>
<g id="a_edge5_Node000001_Node000006"><a xlink:title=" ">
<path fill="none" stroke="#63b8ff" d="M274.3,-69.72C252.64,-56.92 220.68,-39.55 190.75,-29 181.29,-25.67 171.08,-22.85 161,-20.5"/>
<polygon fill="#63b8ff" stroke="#63b8ff" points="272.38,-72.65 282.76,-74.8 275.99,-66.65 272.38,-72.65"/>
</a>
</g>
</g>
</g>
</svg>
</svg>

<style type='text/css'>
<![CDATA[
[data-mouse-over-selected='false'] { opacity: 0.7; }
[data-mouse-over-selected='true']  { opacity: 1.0; }
]]>
</style>
<script type="application/ecmascript"><![CDATA[
document.addEventListener('DOMContentLoaded', (event) => {
  highlightEdges();
  highlightAdjacentNodes();
});
]]></script>
</svg>
