<?xml version="1.0" encoding="UTF-8" standalone="no"?>
<!DOCTYPE svg PUBLIC "-//W3C//DTD SVG 1.1//EN"
 "http://www.w3.org/Graphics/SVG/1.1/DTD/svg11.dtd">
<!-- Generated by graphviz version 12.1.2 (20240928.0832)
 -->
<!-- Title: CodeSmile.Statemachine.FSM.WithStates Pages: 1 -->
<svg width="352pt" height="58pt"
 viewBox="0.00 0.00 352.00 58.00" xmlns="http://www.w3.org/2000/svg" xmlns:xlink="http://www.w3.org/1999/xlink">
<g id="graph0" class="graph" transform="scale(1 1) rotate(0) translate(4 54)">
<title>CodeSmile.Statemachine.FSM.WithStates</title>
<!-- Node1 -->
<g id="Node000001" class="node">
<title>Node1</title>
<g id="a_Node000001"><a xlink:title="Creates several named States.">
<polygon fill="#999999" stroke="#666666" points="154,-32 0,-32 0,0 154,0 154,-32"/>
<text text-anchor="start" x="8" y="-18.5" font-family="Helvetica,sans-Serif" font-size="10.00">CodeSmile.Statemachine.FSM.</text>
<text text-anchor="middle" x="77" y="-6.5" font-family="Helvetica,sans-Serif" font-size="10.00">WithStates</text>
</a>
</g>
</g>
<!-- Node1&#45;&gt;Node1 -->
<g id="edge2_Node000001_Node000001" class="edge">
<title>Node1&#45;&gt;Node1</title>
<g id="a_edge2_Node000001_Node000001"><a xlink:title=" ">
<path fill="none" stroke="#63b8ff" d="M43.08,-32.44C36.75,-41.58 48.05,-50 77,-50 92.83,-50 103.38,-47.48 108.66,-43.71"/>
<polygon fill="#63b8ff" stroke="#63b8ff" points="112.09,-44.42 110.62,-33.93 105.23,-43.04 112.09,-44.42"/>
</a>
</g>
</g>
<!-- Node2 -->
<g id="Node000002" class="node">
<title>Node2</title>
<g id="a_Node000002"><a xlink:href="class_code_smile_1_1_statemachine_1_1_f_s_m.html#add395acb7b110b2d190c0070cfe00152" target="_top" xlink:title="Creates multiple States from strings.">
<polygon fill="white" stroke="#666666" points="344,-32 190,-32 190,0 344,0 344,-32"/>
<text text-anchor="start" x="198" y="-18.5" font-family="Helvetica,sans-Serif" font-size="10.00">CodeSmile.Statemachine.FSM.</text>
<text text-anchor="middle" x="267" y="-6.5" font-family="Helvetica,sans-Serif" font-size="10.00">CreateStates</text>
</a>
</g>
</g>
<!-- Node1&#45;&gt;Node2 -->
<g id="edge1_Node000001_Node000002" class="edge">
<title>Node1&#45;&gt;Node2</title>
<g id="a_edge1_Node000001_Node000002"><a xlink:title=" ">
<path fill="none" stroke="#63b8ff" d="M154.47,-16C162.25,-16 170.21,-16 178.1,-16"/>
<polygon fill="#63b8ff" stroke="#63b8ff" points="178.09,-19.5 188.09,-16 178.09,-12.5 178.09,-19.5"/>
</a>
</g>
</g>
</g>
</svg>
