<?xml version="1.0" encoding="UTF-8" standalone="no"?>
<!DOCTYPE svg PUBLIC "-//W3C//DTD SVG 1.1//EN"
 "http://www.w3.org/Graphics/SVG/1.1/DTD/svg11.dtd">
<!-- Generated by graphviz version 12.1.2 (20240928.0832)
 -->
<!-- Title: CodeSmile.MultiPal.Settings.GameStateBase Pages: 1 -->
<svg width="483pt" height="404pt"
 viewBox="0.00 0.00 482.50 404.00" xmlns="http://www.w3.org/2000/svg" xmlns:xlink="http://www.w3.org/1999/xlink">

<svg id="main" version="1.1" xmlns="http://www.w3.org/2000/svg" xmlns:xlink="http://www.w3.org/1999/xlink" xml:space="preserve">

<style type="text/css"><![CDATA[
.node, .edge {opacity: 0.7;}
.node.selected, .edge.selected {opacity: 1;}
.edge:hover path { stroke: red; }
.edge:hover polygon { stroke: red; fill: red; }
]]></style>
<script type="application/ecmascript" xlink:href="svg.min.js"/>
<svg id="graph" class="graph">
<g id="graph0" class="graph" transform="scale(1 1) rotate(0) translate(4 400)">
<title>CodeSmile.MultiPal.Settings.GameStateBase</title>
<!-- Node1 -->
<g id="Node000001" class="node">
<title>Node1</title>
<g id="a_Node000001"><a xlink:title=" ">
<polygon fill="#999999" stroke="none" points="312.5,-308 174.5,-308 174.5,-100 312.5,-100 312.5,-308"/>
<text text-anchor="start" x="179.38" y="-294.5" font-family="Helvetica,sans-Serif" font-size="10.00">CodeSmile.MultiPal.Settings.</text>
<text text-anchor="start" x="207.5" y="-282.5" font-family="Helvetica,sans-Serif" font-size="10.00">GameStateBase</text>
<text text-anchor="start" x="186" y="-266.5" font-family="Helvetica,sans-Serif" font-size="10.00">+</text>
<text text-anchor="start" x="203.5" y="-266.5" font-family="Helvetica,sans-Serif" font-size="10.00">MenuRoot</text>
<text text-anchor="start" x="186" y="-250.5" font-family="Helvetica,sans-Serif" font-size="10.00">+</text>
<text text-anchor="start" x="203.5" y="-250.5" font-family="Helvetica,sans-Serif" font-size="10.00">NextStateCondition</text>
<text text-anchor="start" x="186" y="-234.5" font-family="Helvetica,sans-Serif" font-size="10.00">+</text>
<text text-anchor="start" x="203.5" y="-234.5" font-family="Helvetica,sans-Serif" font-size="10.00">NextState</text>
<text text-anchor="start" x="186" y="-218.5" font-family="Helvetica,sans-Serif" font-size="10.00">+</text>
<text text-anchor="start" x="203.5" y="-218.5" font-family="Helvetica,sans-Serif" font-size="10.00">ClientScenes</text>
<text text-anchor="start" x="186" y="-202.5" font-family="Helvetica,sans-Serif" font-size="10.00">+</text>
<text text-anchor="start" x="203.5" y="-202.5" font-family="Helvetica,sans-Serif" font-size="10.00">ServerScenes</text>
<text text-anchor="start" x="186" y="-186.5" font-family="Helvetica,sans-Serif" font-size="10.00">+</text>
<text text-anchor="start" x="203.5" y="-186.5" font-family="Helvetica,sans-Serif" font-size="10.00">ClientSceneRefs</text>
<text text-anchor="start" x="186" y="-170.5" font-family="Helvetica,sans-Serif" font-size="10.00">+</text>
<text text-anchor="start" x="203.5" y="-170.5" font-family="Helvetica,sans-Serif" font-size="10.00">ServerSceneRefs</text>
<text text-anchor="start" x="186" y="-154.5" font-family="Helvetica,sans-Serif" font-size="10.00">+</text>
<text text-anchor="start" x="203.5" y="-154.5" font-family="Helvetica,sans-Serif" font-size="10.00">ConditionsSatisfied()</text>
<text text-anchor="start" x="186" y="-138.5" font-family="Helvetica,sans-Serif" font-size="10.00">+</text>
<text text-anchor="start" x="203.5" y="-138.5" font-family="Helvetica,sans-Serif" font-size="10.00">OnEnterState()</text>
<text text-anchor="start" x="186" y="-122.5" font-family="Helvetica,sans-Serif" font-size="10.00">+</text>
<text text-anchor="start" x="203.5" y="-122.5" font-family="Helvetica,sans-Serif" font-size="10.00">OnExitState()</text>
<text text-anchor="start" x="186.38" y="-106.5" font-family="Helvetica,sans-Serif" font-size="10.00">#</text>
<text text-anchor="start" x="203.5" y="-106.5" font-family="Helvetica,sans-Serif" font-size="10.00">OnValidate()</text>
<polygon fill="#666666" stroke="#666666" points="174.5,-278 174.5,-278 312.5,-278 312.5,-278 174.5,-278"/>
<polygon fill="#666666" stroke="#666666" points="174.5,-166 174.5,-166 201.5,-166 201.5,-166 174.5,-166"/>
<polygon fill="#666666" stroke="#666666" points="201.5,-166 201.5,-166 312.5,-166 312.5,-166 201.5,-166"/>
<polygon fill="none" stroke="#666666" points="174.5,-100 174.5,-308 312.5,-308 312.5,-100 174.5,-100"/>
</a>
</g>
</g>
<!-- Node3 -->
<g id="Node000003" class="node">
<title>Node3</title>
<g id="a_Node000003"><a xlink:href="class_code_smile_1_1_multi_pal_1_1_settings_1_1_game_states_1_1_launch_screen_state.html" target="_top" xlink:title=" ">
<polygon fill="white" stroke="none" points="153,-64 0,-64 0,0 153,0 153,-64"/>
<text text-anchor="start" x="4.88" y="-50.5" font-family="Helvetica,sans-Serif" font-size="10.00">CodeSmile.MultiPal.Settings.</text>
<text text-anchor="start" x="4.88" y="-38.5" font-family="Helvetica,sans-Serif" font-size="10.00">GameStates.LaunchScreenState</text>
<text text-anchor="start" x="75" y="-22.5" font-family="Helvetica,sans-Serif" font-size="10.00"> </text>
<text text-anchor="start" x="75" y="-6.5" font-family="Helvetica,sans-Serif" font-size="10.00"> </text>
<polygon fill="#666666" stroke="#666666" points="0,-34 0,-34 153,-34 153,-34 0,-34"/>
<polygon fill="#666666" stroke="#666666" points="0,-18 0,-18 153,-18 153,-18 0,-18"/>
<polygon fill="none" stroke="#666666" points="0,0 0,-64 153,-64 153,0 0,0"/>
</a>
</g>
</g>
<!-- Node1&#45;&gt;Node3 -->
<g id="edge2_Node000001_Node000003" class="edge">
<title>Node1&#45;&gt;Node3</title>
<g id="a_edge2_Node000001_Node000003"><a xlink:title=" ">
<path fill="none" stroke="#63b8ff" d="M166.78,-124.9C145.42,-103.16 123.47,-80.81 106.56,-63.6"/>
<polygon fill="none" stroke="#63b8ff" points="164.05,-127.11 173.55,-131.79 169.04,-122.21 164.05,-127.11"/>
</a>
</g>
</g>
<!-- Node4 -->
<g id="Node000004" class="node">
<title>Node4</title>
<g id="a_Node000004"><a xlink:href="class_code_smile_1_1_multi_pal_1_1_settings_1_1_game_states_1_1_menu_screen_state.html" target="_top" xlink:title=" ">
<polygon fill="white" stroke="none" points="316,-64 171,-64 171,0 316,0 316,-64"/>
<text text-anchor="start" x="175.62" y="-50.5" font-family="Helvetica,sans-Serif" font-size="10.00">CodeSmile.MultiPal.Settings.</text>
<text text-anchor="start" x="175.62" y="-38.5" font-family="Helvetica,sans-Serif" font-size="10.00">GameStates.MenuScreenState</text>
<text text-anchor="start" x="242" y="-22.5" font-family="Helvetica,sans-Serif" font-size="10.00"> </text>
<text text-anchor="start" x="242" y="-6.5" font-family="Helvetica,sans-Serif" font-size="10.00"> </text>
<polygon fill="#666666" stroke="#666666" points="171,-34 171,-34 316,-34 316,-34 171,-34"/>
<polygon fill="#666666" stroke="#666666" points="171,-18 171,-18 316,-18 316,-18 171,-18"/>
<polygon fill="none" stroke="#666666" points="171,0 171,-64 316,-64 316,0 171,0"/>
</a>
</g>
</g>
<!-- Node1&#45;&gt;Node4 -->
<g id="edge3_Node000001_Node000004" class="edge">
<title>Node1&#45;&gt;Node4</title>
<g id="a_edge3_Node000001_Node000004"><a xlink:title=" ">
<path fill="none" stroke="#63b8ff" d="M243.5,-88.97C243.5,-79.95 243.5,-71.42 243.5,-63.87"/>
<polygon fill="none" stroke="#63b8ff" points="240,-88.67 243.5,-98.67 247,-88.67 240,-88.67"/>
</a>
</g>
</g>
<!-- Node5 -->
<g id="Node000005" class="node">
<title>Node5</title>
<g id="a_Node000005"><a xlink:href="class_code_smile_1_1_multi_pal_1_1_settings_1_1_game_states_1_1_title_screen_state.html" target="_top" xlink:title=" ">
<polygon fill="white" stroke="none" points="474.5,-64 334.5,-64 334.5,0 474.5,0 474.5,-64"/>
<text text-anchor="start" x="339.25" y="-50.5" font-family="Helvetica,sans-Serif" font-size="10.00">CodeSmile.MultiPal.Settings.</text>
<text text-anchor="start" x="339.25" y="-38.5" font-family="Helvetica,sans-Serif" font-size="10.00">GameStates.TitleScreenState</text>
<text text-anchor="start" x="403" y="-22.5" font-family="Helvetica,sans-Serif" font-size="10.00"> </text>
<text text-anchor="start" x="403" y="-6.5" font-family="Helvetica,sans-Serif" font-size="10.00"> </text>
<polygon fill="#666666" stroke="#666666" points="334.5,-34 334.5,-34 474.5,-34 474.5,-34 334.5,-34"/>
<polygon fill="#666666" stroke="#666666" points="334.5,-18 334.5,-18 474.5,-18 474.5,-18 334.5,-18"/>
<polygon fill="none" stroke="#666666" points="334.5,0 334.5,-64 474.5,-64 474.5,0 334.5,0"/>
</a>
</g>
</g>
<!-- Node1&#45;&gt;Node5 -->
<g id="edge4_Node000001_Node000005" class="edge">
<title>Node1&#45;&gt;Node5</title>
<g id="a_edge4_Node000001_Node000005"><a xlink:title=" ">
<path fill="none" stroke="#63b8ff" d="M320.04,-122.19C339.67,-101.46 359.62,-80.39 375.19,-63.94"/>
<polygon fill="none" stroke="#63b8ff" points="317.62,-119.65 313.29,-129.31 322.7,-124.46 317.62,-119.65"/>
</a>
</g>
</g>
<!-- Node2 -->
<g id="Node000002" class="node">
<title>Node2</title>
<g id="a_Node000002"><a xlink:href="class_scriptable_object.html" target="_top" xlink:title=" ">
<polygon fill="white" stroke="none" points="284.5,-396 202.5,-396 202.5,-344 284.5,-344 284.5,-396"/>
<text text-anchor="start" x="207.5" y="-382.5" font-family="Helvetica,sans-Serif" font-size="10.00">ScriptableObject</text>
<text text-anchor="start" x="242" y="-366.5" font-family="Helvetica,sans-Serif" font-size="10.00"> </text>
<text text-anchor="start" x="242" y="-350.5" font-family="Helvetica,sans-Serif" font-size="10.00"> </text>
<polygon fill="#666666" stroke="#666666" points="202.5,-378 202.5,-378 284.5,-378 284.5,-378 202.5,-378"/>
<polygon fill="#666666" stroke="#666666" points="202.5,-362 202.5,-362 284.5,-362 284.5,-362 202.5,-362"/>
<polygon fill="none" stroke="#666666" points="202.5,-344 202.5,-396 284.5,-396 284.5,-344 202.5,-344"/>
</a>
</g>
</g>
<!-- Node2&#45;&gt;Node1 -->
<g id="edge1_Node000001_Node000002" class="edge">
<title>Node2&#45;&gt;Node1</title>
<g id="a_edge1_Node000001_Node000002"><a xlink:title=" ">
<path fill="none" stroke="#63b8ff" d="M243.5,-332.79C243.5,-325.15 243.5,-316.72 243.5,-307.96"/>
<polygon fill="none" stroke="#63b8ff" points="240,-332.58 243.5,-342.58 247,-332.58 240,-332.58"/>
</a>
</g>
</g>
</g>
</svg>
</svg>

<style type='text/css'>
<![CDATA[
[data-mouse-over-selected='false'] { opacity: 0.7; }
[data-mouse-over-selected='true']  { opacity: 1.0; }
]]>
</style>
<script type="application/ecmascript"><![CDATA[
document.addEventListener('DOMContentLoaded', (event) => {
  highlightEdges();
  highlightAdjacentNodes();
});
]]></script>
</svg>
