<?xml version="1.0" encoding="UTF-8" standalone="no"?>
<!DOCTYPE svg PUBLIC "-//W3C//DTD SVG 1.1//EN"
 "http://www.w3.org/Graphics/SVG/1.1/DTD/svg11.dtd">
<!-- Generated by graphviz version 12.1.2 (20240928.0832)
 -->
<!-- Title: PA1A.Abilities.DamageAbility Pages: 1 -->
<svg width="370pt" height="380pt"
 viewBox="0.00 0.00 370.00 380.00" xmlns="http://www.w3.org/2000/svg" xmlns:xlink="http://www.w3.org/1999/xlink">

<svg id="main" version="1.1" xmlns="http://www.w3.org/2000/svg" xmlns:xlink="http://www.w3.org/1999/xlink" xml:space="preserve">

<style type="text/css"><![CDATA[
.node, .edge {opacity: 0.7;}
.node.selected, .edge.selected {opacity: 1;}
.edge:hover path { stroke: red; }
.edge:hover polygon { stroke: red; fill: red; }
]]></style>
<script type="application/ecmascript" xlink:href="svg.min.js"/>
<svg id="graph" class="graph">
<g id="graph0" class="graph" transform="scale(1 1) rotate(0) translate(4 376)">
<title>PA1A.Abilities.DamageAbility</title>
<!-- Node1 -->
<g id="Node000001" class="node">
<title>Node1</title>
<g id="a_Node000001"><a xlink:title="Represents a damage ability that can be used by a character to inflict damage on a target.">
<polygon fill="#999999" stroke="none" points="241.5,-52 102.5,-52 102.5,0 241.5,0 241.5,-52"/>
<text text-anchor="start" x="107.5" y="-38.5" font-family="Helvetica,sans-Serif" font-size="10.00">PA1A.Abilities.DamageAbility</text>
<text text-anchor="start" x="119.5" y="-22.5" font-family="Helvetica,sans-Serif" font-size="10.00">+</text>
<text text-anchor="start" x="142.5" y="-22.5" font-family="Helvetica,sans-Serif" font-size="10.00">damageAmount</text>
<text text-anchor="start" x="119.5" y="-6.5" font-family="Helvetica,sans-Serif" font-size="10.00">+</text>
<text text-anchor="start" x="142.5" y="-6.5" font-family="Helvetica,sans-Serif" font-size="10.00">Apply()</text>
<polygon fill="#666666" stroke="#666666" points="102.5,-34 102.5,-34 241.5,-34 241.5,-34 102.5,-34"/>
<polygon fill="#666666" stroke="#666666" points="102.5,-18 102.5,-18 140.5,-18 140.5,-18 102.5,-18"/>
<polygon fill="#666666" stroke="#666666" points="140.5,-18 140.5,-18 241.5,-18 241.5,-18 140.5,-18"/>
<polygon fill="none" stroke="#666666" points="102.5,0 102.5,-52 241.5,-52 241.5,0 102.5,0"/>
</a>
</g>
</g>
<!-- Node2 -->
<g id="Node000002" class="node">
<title>Node2</title>
<g id="a_Node000002"><a xlink:href="class_p_a1_a_1_1_abilities_1_1_ability.html" target="_top" xlink:title="Base class for all abilities.">
<polygon fill="white" stroke="none" points="225,-284 119,-284 119,-88 225,-88 225,-284"/>
<text text-anchor="start" x="158.5" y="-270.5" font-family="Helvetica,sans-Serif" font-size="10.00">Ability</text>
<text text-anchor="start" x="123" y="-254.5" font-family="Helvetica,sans-Serif" font-size="10.00">+</text>
<text text-anchor="start" x="133" y="-254.5" font-family="Helvetica,sans-Serif" font-size="10.00">GUID</text>
<text text-anchor="start" x="123" y="-238.5" font-family="Helvetica,sans-Serif" font-size="10.00">+</text>
<text text-anchor="start" x="133" y="-238.5" font-family="Helvetica,sans-Serif" font-size="10.00">FileID</text>
<text text-anchor="start" x="123" y="-222.5" font-family="Helvetica,sans-Serif" font-size="10.00">+</text>
<text text-anchor="start" x="133" y="-222.5" font-family="Helvetica,sans-Serif" font-size="10.00">Name</text>
<text text-anchor="start" x="123" y="-206.5" font-family="Helvetica,sans-Serif" font-size="10.00">+</text>
<text text-anchor="start" x="133" y="-206.5" font-family="Helvetica,sans-Serif" font-size="10.00">IsInstant</text>
<text text-anchor="start" x="123" y="-190.5" font-family="Helvetica,sans-Serif" font-size="10.00">+</text>
<text text-anchor="start" x="133" y="-190.5" font-family="Helvetica,sans-Serif" font-size="10.00">Duration</text>
<text text-anchor="start" x="123" y="-174.5" font-family="Helvetica,sans-Serif" font-size="10.00">+</text>
<text text-anchor="start" x="133" y="-174.5" font-family="Helvetica,sans-Serif" font-size="10.00">Apply()</text>
<text text-anchor="start" x="123" y="-158.5" font-family="Helvetica,sans-Serif" font-size="10.00">+</text>
<text text-anchor="start" x="133" y="-158.5" font-family="Helvetica,sans-Serif" font-size="10.00">Process()</text>
<text text-anchor="start" x="123" y="-142.5" font-family="Helvetica,sans-Serif" font-size="10.00">+</text>
<text text-anchor="start" x="133" y="-142.5" font-family="Helvetica,sans-Serif" font-size="10.00">UnApply()</text>
<text text-anchor="start" x="123" y="-126.5" font-family="Helvetica,sans-Serif" font-size="10.00">+</text>
<text text-anchor="start" x="133" y="-126.5" font-family="Helvetica,sans-Serif" font-size="10.00">OnAfterDeserialize()</text>
<text text-anchor="start" x="123" y="-110.5" font-family="Helvetica,sans-Serif" font-size="10.00">+</text>
<text text-anchor="start" x="133" y="-110.5" font-family="Helvetica,sans-Serif" font-size="10.00">OnBeforeSerialize()</text>
<text text-anchor="start" x="123" y="-94.5" font-family="Helvetica,sans-Serif" font-size="10.00">+</text>
<text text-anchor="start" x="133" y="-94.5" font-family="Helvetica,sans-Serif" font-size="10.00">Equals()</text>
<polygon fill="#666666" stroke="#666666" points="119,-266 119,-266 225,-266 225,-266 119,-266"/>
<polygon fill="#666666" stroke="#666666" points="119,-186 119,-186 131,-186 131,-186 119,-186"/>
<polygon fill="#666666" stroke="#666666" points="131,-186 131,-186 225,-186 225,-186 131,-186"/>
<polygon fill="none" stroke="#666666" points="119,-88 119,-284 225,-284 225,-88 119,-88"/>
</a>
</g>
</g>
<!-- Node2&#45;&gt;Node1 -->
<g id="edge1_Node000001_Node000002" class="edge">
<title>Node2&#45;&gt;Node1</title>
<g id="a_edge1_Node000001_Node000002"><a xlink:title=" ">
<path fill="none" stroke="#63b8ff" d="M172,-76.78C172,-67.73 172,-59.27 172,-51.98"/>
<polygon fill="none" stroke="#63b8ff" points="168.5,-76.57 172,-86.57 175.5,-76.57 168.5,-76.57"/>
</a>
</g>
</g>
<!-- Node3 -->
<g id="Node000003" class="node">
<title>Node3</title>
<g id="a_Node000003"><a xlink:href="class_scriptable_object.html" target="_top" xlink:title=" ">
<polygon fill="white" stroke="none" points="82,-372 0,-372 0,-320 82,-320 82,-372"/>
<text text-anchor="start" x="5" y="-358.5" font-family="Helvetica,sans-Serif" font-size="10.00">ScriptableObject</text>
<text text-anchor="start" x="39.5" y="-342.5" font-family="Helvetica,sans-Serif" font-size="10.00"> </text>
<text text-anchor="start" x="39.5" y="-326.5" font-family="Helvetica,sans-Serif" font-size="10.00"> </text>
<polygon fill="#666666" stroke="#666666" points="0,-354 0,-354 82,-354 82,-354 0,-354"/>
<polygon fill="#666666" stroke="#666666" points="0,-338 0,-338 82,-338 82,-338 0,-338"/>
<polygon fill="none" stroke="#666666" points="0,-320 0,-372 82,-372 82,-320 0,-320"/>
</a>
</g>
</g>
<!-- Node3&#45;&gt;Node2 -->
<g id="edge2_Node000002_Node000003" class="edge">
<title>Node3&#45;&gt;Node2</title>
<g id="a_edge2_Node000002_Node000003"><a xlink:title=" ">
<path fill="none" stroke="#63b8ff" d="M68.76,-311.52C83.42,-293.83 101.92,-271.53 119.19,-250.7"/>
<polygon fill="none" stroke="#63b8ff" points="66.12,-309.22 62.43,-319.15 71.51,-313.68 66.12,-309.22"/>
</a>
</g>
</g>
<!-- Node4 -->
<g id="Node000004" class="node">
<title>Node4</title>
<g id="a_Node000004"><a xlink:href="class_i_serialization_callback_receiver.html" target="_top" xlink:title=" ">
<polygon fill="white" stroke="none" points="243.5,-372 100.5,-372 100.5,-320 243.5,-320 243.5,-372"/>
<text text-anchor="start" x="105.25" y="-358.5" font-family="Helvetica,sans-Serif" font-size="10.00">ISerializationCallbackReceiver</text>
<text text-anchor="start" x="170.5" y="-342.5" font-family="Helvetica,sans-Serif" font-size="10.00"> </text>
<text text-anchor="start" x="170.5" y="-326.5" font-family="Helvetica,sans-Serif" font-size="10.00"> </text>
<polygon fill="#666666" stroke="#666666" points="100.5,-354 100.5,-354 243.5,-354 243.5,-354 100.5,-354"/>
<polygon fill="#666666" stroke="#666666" points="100.5,-338 100.5,-338 243.5,-338 243.5,-338 100.5,-338"/>
<polygon fill="none" stroke="#666666" points="100.5,-320 100.5,-372 243.5,-372 243.5,-320 100.5,-320"/>
</a>
</g>
</g>
<!-- Node4&#45;&gt;Node2 -->
<g id="edge3_Node000002_Node000004" class="edge">
<title>Node4&#45;&gt;Node2</title>
<g id="a_edge3_Node000002_Node000004"><a xlink:title=" ">
<path fill="none" stroke="#63b8ff" d="M172,-308.88C172,-301.15 172,-292.63 172,-283.8"/>
<polygon fill="none" stroke="#63b8ff" points="168.5,-308.8 172,-318.8 175.5,-308.8 168.5,-308.8"/>
</a>
</g>
</g>
<!-- Node5 -->
<g id="Node000005" class="node">
<title>Node5</title>
<g id="a_Node000005"><a xlink:href="class_i_equatable.html" target="_top" xlink:title=" ">
<polygon fill="white" stroke="none" points="362,-372 262,-372 262,-320 362,-320 362,-372"/>
<text text-anchor="start" x="266.62" y="-358.5" font-family="Helvetica,sans-Serif" font-size="10.00">IEquatable&lt; Ability &gt;</text>
<text text-anchor="start" x="310.5" y="-342.5" font-family="Helvetica,sans-Serif" font-size="10.00"> </text>
<text text-anchor="start" x="310.5" y="-326.5" font-family="Helvetica,sans-Serif" font-size="10.00"> </text>
<polygon fill="#666666" stroke="#666666" points="262,-354 262,-354 362,-354 362,-354 262,-354"/>
<polygon fill="#666666" stroke="#666666" points="262,-338 262,-338 362,-338 362,-338 262,-338"/>
<polygon fill="none" stroke="#666666" points="262,-320 262,-372 362,-372 362,-320 262,-320"/>
</a>
</g>
</g>
<!-- Node5&#45;&gt;Node2 -->
<g id="edge4_Node000002_Node000005" class="edge">
<title>Node5&#45;&gt;Node2</title>
<g id="a_edge4_Node000002_Node000005"><a xlink:title=" ">
<path fill="none" stroke="#63b8ff" d="M282.56,-311.77C265.83,-292.89 244.37,-268.68 224.83,-246.62"/>
<polygon fill="none" stroke="#63b8ff" points="279.87,-314.02 289.12,-319.18 285.11,-309.37 279.87,-314.02"/>
</a>
</g>
</g>
</g>
</svg>
</svg>

<style type='text/css'>
<![CDATA[
[data-mouse-over-selected='false'] { opacity: 0.7; }
[data-mouse-over-selected='true']  { opacity: 1.0; }
]]>
</style>
<script type="application/ecmascript"><![CDATA[
document.addEventListener('DOMContentLoaded', (event) => {
  highlightEdges();
  highlightAdjacentNodes();
});
]]></script>
</svg>
