<?xml version="1.0" encoding="UTF-8" standalone="no"?>
<!DOCTYPE svg PUBLIC "-//W3C//DTD SVG 1.1//EN"
 "http://www.w3.org/Graphics/SVG/1.1/DTD/svg11.dtd">
<!-- Generated by graphviz version 12.1.2 (20240928.0832)
 -->
<!-- Title: PA1A.Building.RemoveState Pages: 1 -->
<svg width="143pt" height="228pt"
 viewBox="0.00 0.00 143.00 228.00" xmlns="http://www.w3.org/2000/svg" xmlns:xlink="http://www.w3.org/1999/xlink">
<g id="graph0" class="graph" transform="scale(1 1) rotate(0) translate(4 224)">
<title>PA1A.Building.RemoveState</title>
<!-- Node1 -->
<g id="Node000001" class="node">
<title>Node1</title>
<g id="a_Node000001"><a xlink:title="Represents the state of removing a building.">
<polygon fill="#999999" stroke="none" points="135,-100 0,-100 0,0 135,0 135,-100"/>
<text text-anchor="start" x="4.88" y="-86.5" font-family="Helvetica,sans-Serif" font-size="10.00">PA1A.Building.RemoveState</text>
<text text-anchor="start" x="66" y="-70.5" font-family="Helvetica,sans-Serif" font-size="10.00"> </text>
<text text-anchor="start" x="16.5" y="-54.5" font-family="Helvetica,sans-Serif" font-size="10.00">+</text>
<text text-anchor="start" x="39" y="-54.5" font-family="Helvetica,sans-Serif" font-size="10.00">RemoveState()</text>
<text text-anchor="start" x="16.5" y="-38.5" font-family="Helvetica,sans-Serif" font-size="10.00">+</text>
<text text-anchor="start" x="39" y="-38.5" font-family="Helvetica,sans-Serif" font-size="10.00">EndState()</text>
<text text-anchor="start" x="16.5" y="-22.5" font-family="Helvetica,sans-Serif" font-size="10.00">+</text>
<text text-anchor="start" x="39" y="-22.5" font-family="Helvetica,sans-Serif" font-size="10.00">OnAction()</text>
<text text-anchor="start" x="16.5" y="-6.5" font-family="Helvetica,sans-Serif" font-size="10.00">+</text>
<text text-anchor="start" x="39" y="-6.5" font-family="Helvetica,sans-Serif" font-size="10.00">UpdateState()</text>
<polygon fill="#666666" stroke="#666666" points="0,-82 0,-82 135,-82 135,-82 0,-82"/>
<polygon fill="#666666" stroke="#666666" points="0,-66 0,-66 135,-66 135,-66 0,-66"/>
<polygon fill="none" stroke="#666666" points="0,0 0,-100 135,-100 135,0 0,0"/>
</a>
</g>
</g>
<!-- Node2 -->
<g id="Node000002" class="node">
<title>Node2</title>
<g id="a_Node000002"><a xlink:href="interface_p_a1_a_1_1_building_1_1_i_building_state.html" target="_top" xlink:title="Represents the state of a building.">
<polygon fill="white" stroke="none" points="106.5,-220 28.5,-220 28.5,-136 106.5,-136 106.5,-220"/>
<text text-anchor="start" x="37.12" y="-206.5" font-family="Helvetica,sans-Serif" font-size="10.00">IBuildingState</text>
<text text-anchor="start" x="66" y="-190.5" font-family="Helvetica,sans-Serif" font-size="10.00"> </text>
<text text-anchor="start" x="32.5" y="-174.5" font-family="Helvetica,sans-Serif" font-size="10.00">+</text>
<text text-anchor="start" x="42.5" y="-174.5" font-family="Helvetica,sans-Serif" font-size="10.00">EndState()</text>
<text text-anchor="start" x="32.5" y="-158.5" font-family="Helvetica,sans-Serif" font-size="10.00">+</text>
<text text-anchor="start" x="42.5" y="-158.5" font-family="Helvetica,sans-Serif" font-size="10.00">OnAction()</text>
<text text-anchor="start" x="32.5" y="-142.5" font-family="Helvetica,sans-Serif" font-size="10.00">+</text>
<text text-anchor="start" x="42.5" y="-142.5" font-family="Helvetica,sans-Serif" font-size="10.00">UpdateState()</text>
<polygon fill="#666666" stroke="#666666" points="28.5,-202 28.5,-202 106.5,-202 106.5,-202 28.5,-202"/>
<polygon fill="#666666" stroke="#666666" points="28.5,-186 28.5,-186 106.5,-186 106.5,-186 28.5,-186"/>
<polygon fill="none" stroke="#666666" points="28.5,-136 28.5,-220 106.5,-220 106.5,-136 28.5,-136"/>
</a>
</g>
</g>
<!-- Node2&#45;&gt;Node1 -->
<g id="edge1_Node000001_Node000002" class="edge">
<title>Node2&#45;&gt;Node1</title>
<g id="a_edge1_Node000001_Node000002"><a xlink:title=" ">
<path fill="none" stroke="#63b8ff" d="M67.5,-124.61C67.5,-116.33 67.5,-107.8 67.5,-99.61"/>
<polygon fill="none" stroke="#63b8ff" points="64,-124.58 67.5,-134.58 71,-124.58 64,-124.58"/>
</a>
</g>
</g>
</g>
</svg>
