<?xml version="1.0" encoding="UTF-8" standalone="no"?>
<!DOCTYPE svg PUBLIC "-//W3C//DTD SVG 1.1//EN"
 "http://www.w3.org/Graphics/SVG/1.1/DTD/svg11.dtd">
<!-- Generated by graphviz version 12.1.2 (20240928.0832)
 -->
<!-- Title: CodeSmile.Statemachine.Netcode.Conditions.IsLocalClientDisconnected Pages: 1 -->
<svg width="184pt" height="432pt"
 viewBox="0.00 0.00 184.00 432.00" xmlns="http://www.w3.org/2000/svg" xmlns:xlink="http://www.w3.org/1999/xlink">
<g id="graph0" class="graph" transform="scale(1 1) rotate(0) translate(4 428)">
<title>CodeSmile.Statemachine.Netcode.Conditions.IsLocalClientDisconnected</title>
<!-- Node1 -->
<g id="Node000001" class="node">
<title>Node1</title>
<g id="a_Node000001"><a xlink:title="Tests if the client that this script executes on is not connected to a network session.">
<polygon fill="#999999" stroke="none" points="176,-64 0,-64 0,0 176,0 176,-64"/>
<text text-anchor="start" x="4.75" y="-50.5" font-family="Helvetica,sans-Serif" font-size="10.00">CodeSmile.Statemachine.Netcode.</text>
<text text-anchor="start" x="4.75" y="-38.5" font-family="Helvetica,sans-Serif" font-size="10.00">Conditions.IsLocalClientDisconnected</text>
<text text-anchor="start" x="86.5" y="-22.5" font-family="Helvetica,sans-Serif" font-size="10.00"> </text>
<text text-anchor="start" x="30.5" y="-6.5" font-family="Helvetica,sans-Serif" font-size="10.00">+</text>
<text text-anchor="start" x="67" y="-6.5" font-family="Helvetica,sans-Serif" font-size="10.00">IsSatisfied()</text>
<polygon fill="#666666" stroke="#666666" points="0,-34 0,-34 176,-34 176,-34 0,-34"/>
<polygon fill="#666666" stroke="#666666" points="0,-18 0,-18 176,-18 176,-18 0,-18"/>
<polygon fill="none" stroke="#666666" points="0,0 0,-64 176,-64 176,0 0,0"/>
</a>
</g>
</g>
<!-- Node2 -->
<g id="Node000002" class="node">
<title>Node2</title>
<g id="a_Node000002"><a xlink:href="class_code_smile_1_1_statemachine_1_1_netcode_1_1_conditions_1_1_is_local_client_connected.html" target="_top" xlink:title="Tests if the client that this script executes on is currently connected to a network session.">
<polygon fill="white" stroke="none" points="145,-184 31,-184 31,-100 145,-100 145,-184"/>
<text text-anchor="start" x="35.88" y="-170.5" font-family="Helvetica,sans-Serif" font-size="10.00">IsLocalClientConnected</text>
<text text-anchor="start" x="86.5" y="-154.5" font-family="Helvetica,sans-Serif" font-size="10.00"> </text>
<text text-anchor="start" x="46" y="-138.5" font-family="Helvetica,sans-Serif" font-size="10.00">+</text>
<text text-anchor="start" x="67" y="-138.5" font-family="Helvetica,sans-Serif" font-size="10.00">OnStart()</text>
<text text-anchor="start" x="46" y="-122.5" font-family="Helvetica,sans-Serif" font-size="10.00">+</text>
<text text-anchor="start" x="67" y="-122.5" font-family="Helvetica,sans-Serif" font-size="10.00">OnStop()</text>
<text text-anchor="start" x="46" y="-106.5" font-family="Helvetica,sans-Serif" font-size="10.00">+</text>
<text text-anchor="start" x="67" y="-106.5" font-family="Helvetica,sans-Serif" font-size="10.00">IsSatisfied()</text>
<polygon fill="#666666" stroke="#666666" points="31,-166 31,-166 145,-166 145,-166 31,-166"/>
<polygon fill="#666666" stroke="#666666" points="31,-150 31,-150 145,-150 145,-150 31,-150"/>
<polygon fill="none" stroke="#666666" points="31,-100 31,-184 145,-184 145,-100 31,-100"/>
</a>
</g>
</g>
<!-- Node2&#45;&gt;Node1 -->
<g id="edge1_Node000001_Node000002" class="edge">
<title>Node2&#45;&gt;Node1</title>
<g id="a_edge1_Node000001_Node000002"><a xlink:title=" ">
<path fill="none" stroke="#63b8ff" d="M88,-88.66C88,-80.14 88,-71.57 88,-63.78"/>
<polygon fill="none" stroke="#63b8ff" points="84.5,-88.66 88,-98.66 91.5,-88.66 84.5,-88.66"/>
</a>
</g>
</g>
<!-- Node3 -->
<g id="Node000003" class="node">
<title>Node3</title>
<g id="a_Node000003"><a xlink:href="interface_code_smile_1_1_statemachine_1_1_i_condition.html" target="_top" xlink:title="Marks a class as a FSM Condition.">
<polygon fill="white" stroke="none" points="132,-288 44,-288 44,-220 132,-220 132,-288"/>
<text text-anchor="start" x="65.88" y="-274.5" font-family="Helvetica,sans-Serif" font-size="10.00">ICondition</text>
<text text-anchor="start" x="86.5" y="-258.5" font-family="Helvetica,sans-Serif" font-size="10.00"> </text>
<text text-anchor="start" x="48" y="-242.5" font-family="Helvetica,sans-Serif" font-size="10.00">+</text>
<text text-anchor="start" x="58" y="-242.5" font-family="Helvetica,sans-Serif" font-size="10.00">IsSatisfied()</text>
<text text-anchor="start" x="48" y="-226.5" font-family="Helvetica,sans-Serif" font-size="10.00">+</text>
<text text-anchor="start" x="58" y="-226.5" font-family="Helvetica,sans-Serif" font-size="10.00">ToDebugString()</text>
<polygon fill="#666666" stroke="#666666" points="44,-270 44,-270 132,-270 132,-270 44,-270"/>
<polygon fill="#666666" stroke="#666666" points="44,-254 44,-254 132,-254 132,-254 44,-254"/>
<polygon fill="none" stroke="#666666" points="44,-220 44,-288 132,-288 132,-220 44,-220"/>
</a>
</g>
</g>
<!-- Node3&#45;&gt;Node2 -->
<g id="edge2_Node000002_Node000003" class="edge">
<title>Node3&#45;&gt;Node2</title>
<g id="a_edge2_Node000002_Node000003"><a xlink:title=" ">
<path fill="none" stroke="#63b8ff" d="M88,-208.95C88,-200.7 88,-192.12 88,-183.97"/>
<polygon fill="none" stroke="#63b8ff" points="84.5,-208.78 88,-218.78 91.5,-208.78 84.5,-208.78"/>
</a>
</g>
</g>
<!-- Node4 -->
<g id="Node000004" class="node">
<title>Node4</title>
<g id="a_Node000004"><a xlink:href="interface_code_smile_1_1_statemachine_1_1_i_statemachine_events.html" target="_top" xlink:title="Event methods that the Statemachine calls at specific times.">
<polygon fill="white" stroke="none" points="139.5,-424 36.5,-424 36.5,-324 139.5,-324 139.5,-424"/>
<text text-anchor="start" x="41.12" y="-410.5" font-family="Helvetica,sans-Serif" font-size="10.00">IStatemachineEvents</text>
<text text-anchor="start" x="86.5" y="-394.5" font-family="Helvetica,sans-Serif" font-size="10.00"> </text>
<text text-anchor="start" x="45.5" y="-378.5" font-family="Helvetica,sans-Serif" font-size="10.00">+</text>
<text text-anchor="start" x="60.5" y="-378.5" font-family="Helvetica,sans-Serif" font-size="10.00">OnStart()</text>
<text text-anchor="start" x="45.5" y="-362.5" font-family="Helvetica,sans-Serif" font-size="10.00">+</text>
<text text-anchor="start" x="60.5" y="-362.5" font-family="Helvetica,sans-Serif" font-size="10.00">OnStop()</text>
<text text-anchor="start" x="45.5" y="-346.5" font-family="Helvetica,sans-Serif" font-size="10.00">+</text>
<text text-anchor="start" x="60.5" y="-346.5" font-family="Helvetica,sans-Serif" font-size="10.00">OnEnterState()</text>
<text text-anchor="start" x="45.5" y="-330.5" font-family="Helvetica,sans-Serif" font-size="10.00">+</text>
<text text-anchor="start" x="60.5" y="-330.5" font-family="Helvetica,sans-Serif" font-size="10.00">OnExitState()</text>
<polygon fill="#666666" stroke="#666666" points="36.5,-406 36.5,-406 139.5,-406 139.5,-406 36.5,-406"/>
<polygon fill="#666666" stroke="#666666" points="36.5,-390 36.5,-390 139.5,-390 139.5,-390 36.5,-390"/>
<polygon fill="none" stroke="#666666" points="36.5,-324 36.5,-424 139.5,-424 139.5,-324 36.5,-324"/>
</a>
</g>
</g>
<!-- Node4&#45;&gt;Node3 -->
<g id="edge3_Node000003_Node000004" class="edge">
<title>Node4&#45;&gt;Node3</title>
<g id="a_edge3_Node000003_Node000004"><a xlink:title=" ">
<path fill="none" stroke="#63b8ff" d="M88,-312.96C88,-304.28 88,-295.62 88,-287.75"/>
<polygon fill="none" stroke="#63b8ff" points="84.5,-312.81 88,-322.81 91.5,-312.81 84.5,-312.81"/>
</a>
</g>
</g>
</g>
</svg>
