<?xml version="1.0" encoding="UTF-8" standalone="no"?>
<!DOCTYPE svg PUBLIC "-//W3C//DTD SVG 1.1//EN"
 "http://www.w3.org/Graphics/SVG/1.1/DTD/svg11.dtd">
<!-- Generated by graphviz version 12.1.2 (20240928.0832)
 -->
<!-- Title: CodeSmile.MultiPal.Input.InputUsers.SetPlayerUiCallback Pages: 1 -->
<svg width="343pt" height="90pt"
 viewBox="0.00 0.00 343.00 90.00" xmlns="http://www.w3.org/2000/svg" xmlns:xlink="http://www.w3.org/1999/xlink">
<g id="graph0" class="graph" transform="scale(1 1) rotate(0) translate(4 86)">
<title>CodeSmile.MultiPal.Input.InputUsers.SetPlayerUiCallback</title>
<!-- Node1 -->
<g id="Node000001" class="node">
<title>Node1</title>
<g id="a_Node000001"><a xlink:title=" ">
<polygon fill="#999999" stroke="#666666" points="335,-57 177.25,-57 177.25,-25 335,-25 335,-57"/>
<text text-anchor="start" x="185.25" y="-43.5" font-family="Helvetica,sans-Serif" font-size="10.00">CodeSmile.MultiPal.Input.</text>
<text text-anchor="middle" x="256.12" y="-31.5" font-family="Helvetica,sans-Serif" font-size="10.00">InputUsers.SetPlayerUiCallback</text>
</a>
</g>
</g>
<!-- Node2 -->
<g id="Node000002" class="node">
<title>Node2</title>
<g id="a_Node000002"><a xlink:href="class_code_smile_1_1_multi_pal_1_1_players_1_1_player_ui.html#ae3defb0b1890b4134892a5060bace009" target="_top" xlink:title=" ">
<polygon fill="white" stroke="#666666" points="141.25,-82 0,-82 0,-50 141.25,-50 141.25,-82"/>
<text text-anchor="start" x="8" y="-68.5" font-family="Helvetica,sans-Serif" font-size="10.00">CodeSmile.MultiPal.Players.</text>
<text text-anchor="middle" x="70.62" y="-56.5" font-family="Helvetica,sans-Serif" font-size="10.00">PlayerUi.OnPlayerDespawn</text>
</a>
</g>
</g>
<!-- Node1&#45;&gt;Node2 -->
<g id="edge1_Node000001_Node000002" class="edge">
<title>Node1&#45;&gt;Node2</title>
<g id="a_edge1_Node000001_Node000002"><a xlink:title=" ">
<path fill="none" stroke="#63b8ff" d="M165.47,-53.21C157.45,-54.31 149.41,-55.4 141.6,-56.47"/>
<polygon fill="#63b8ff" stroke="#63b8ff" points="165.84,-56.7 175.27,-51.88 164.89,-49.76 165.84,-56.7"/>
</a>
</g>
</g>
<!-- Node3 -->
<g id="Node000003" class="node">
<title>Node3</title>
<g id="a_Node000003"><a xlink:href="class_code_smile_1_1_multi_pal_1_1_players_1_1_player_ui.html#a55312f2856e59f06b9aad41904b2b99f" target="_top" xlink:title=" ">
<polygon fill="white" stroke="#666666" points="141.25,-32 0,-32 0,0 141.25,0 141.25,-32"/>
<text text-anchor="start" x="8" y="-18.5" font-family="Helvetica,sans-Serif" font-size="10.00">CodeSmile.MultiPal.Players.</text>
<text text-anchor="middle" x="70.62" y="-6.5" font-family="Helvetica,sans-Serif" font-size="10.00">PlayerUi.OnPlayerSpawn</text>
</a>
</g>
</g>
<!-- Node1&#45;&gt;Node3 -->
<g id="edge2_Node000001_Node000003" class="edge">
<title>Node1&#45;&gt;Node3</title>
<g id="a_edge2_Node000001_Node000003"><a xlink:title=" ">
<path fill="none" stroke="#63b8ff" d="M165.47,-28.79C157.45,-27.69 149.41,-26.6 141.6,-25.53"/>
<polygon fill="#63b8ff" stroke="#63b8ff" points="164.89,-32.24 175.27,-30.12 165.84,-25.3 164.89,-32.24"/>
</a>
</g>
</g>
</g>
</svg>
