<?xml version="1.0" encoding="UTF-8" standalone="no"?>
<!DOCTYPE svg PUBLIC "-//W3C//DTD SVG 1.1//EN"
 "http://www.w3.org/Graphics/SVG/1.1/DTD/svg11.dtd">
<!-- Generated by graphviz version 12.1.2 (20240928.0832)
 -->
<!-- Title: PA1A.Building.BuildInputManager Pages: 1 -->
<svg width="157pt" height="224pt"
 viewBox="0.00 0.00 157.00 224.00" xmlns="http://www.w3.org/2000/svg" xmlns:xlink="http://www.w3.org/1999/xlink">
<g id="graph0" class="graph" transform="scale(1 1) rotate(0) translate(4 220)">
<title>PA1A.Building.BuildInputManager</title>
<!-- Node1 -->
<g id="Node000001" class="node">
<title>Node1</title>
<g id="a_Node000001"><a xlink:title="Manages the input for building objects in the game.">
<polygon fill="#999999" stroke="none" points="140.5,-96 8.5,-96 8.5,0 140.5,0 140.5,-96"/>
<text text-anchor="start" x="20.12" y="-82.5" font-family="Helvetica,sans-Serif" font-size="10.00">PA1A.Building.BuildInput</text>
<text text-anchor="start" x="55.75" y="-70.5" font-family="Helvetica,sans-Serif" font-size="10.00">Manager</text>
<text text-anchor="start" x="12.5" y="-54.5" font-family="Helvetica,sans-Serif" font-size="10.00">+</text>
<text text-anchor="start" x="22.5" y="-54.5" font-family="Helvetica,sans-Serif" font-size="10.00">OnExit</text>
<text text-anchor="start" x="12.5" y="-38.5" font-family="Helvetica,sans-Serif" font-size="10.00">+</text>
<text text-anchor="start" x="22.5" y="-38.5" font-family="Helvetica,sans-Serif" font-size="10.00">IsPointerOverUI()</text>
<text text-anchor="start" x="12.5" y="-22.5" font-family="Helvetica,sans-Serif" font-size="10.00">+</text>
<text text-anchor="start" x="22.5" y="-22.5" font-family="Helvetica,sans-Serif" font-size="10.00">Start()</text>
<text text-anchor="start" x="12.5" y="-6.5" font-family="Helvetica,sans-Serif" font-size="10.00">+</text>
<text text-anchor="start" x="22.5" y="-6.5" font-family="Helvetica,sans-Serif" font-size="10.00">GetSelectedMapPosition()</text>
<polygon fill="#666666" stroke="#666666" points="8.5,-66 8.5,-66 140.5,-66 140.5,-66 8.5,-66"/>
<polygon fill="#666666" stroke="#666666" points="8.5,-50 8.5,-50 20.5,-50 20.5,-50 8.5,-50"/>
<polygon fill="#666666" stroke="#666666" points="20.5,-50 20.5,-50 140.5,-50 140.5,-50 20.5,-50"/>
<polygon fill="none" stroke="#666666" points="8.5,0 8.5,-96 140.5,-96 140.5,0 8.5,0"/>
</a>
</g>
</g>
<!-- Node2 -->
<g id="Node000002" class="node">
<title>Node2</title>
<g id="a_Node000002"><a xlink:href="class_singleton.html" target="_top" xlink:title=" ">
<polygon fill="white" stroke="none" points="149,-216 0,-216 0,-132 149,-132 149,-216"/>
<text text-anchor="start" x="4.75" y="-202.5" font-family="Helvetica,sans-Serif" font-size="10.00">Singleton&lt; BuildInputManager &gt;</text>
<text text-anchor="start" x="24" y="-186.5" font-family="Helvetica,sans-Serif" font-size="10.00">+</text>
<text text-anchor="start" x="54" y="-186.5" font-family="Helvetica,sans-Serif" font-size="10.00">Instance</text>
<text text-anchor="start" x="24" y="-170.5" font-family="Helvetica,sans-Serif" font-size="10.00">+</text>
<text text-anchor="start" x="54" y="-170.5" font-family="Helvetica,sans-Serif" font-size="10.00">Awake()</text>
<text text-anchor="start" x="24" y="-154.5" font-family="Helvetica,sans-Serif" font-size="10.00">+</text>
<text text-anchor="start" x="54" y="-154.5" font-family="Helvetica,sans-Serif" font-size="10.00">OnDisable()</text>
<text text-anchor="start" x="24" y="-138.5" font-family="Helvetica,sans-Serif" font-size="10.00">+</text>
<text text-anchor="start" x="54" y="-138.5" font-family="Helvetica,sans-Serif" font-size="10.00">OnEnable()</text>
<polygon fill="#666666" stroke="#666666" points="0,-198 0,-198 149,-198 149,-198 0,-198"/>
<polygon fill="#666666" stroke="#666666" points="0,-182 0,-182 52,-182 52,-182 0,-182"/>
<polygon fill="#666666" stroke="#666666" points="52,-182 52,-182 149,-182 149,-182 52,-182"/>
<polygon fill="none" stroke="#666666" points="0,-132 0,-216 149,-216 149,-132 0,-132"/>
</a>
</g>
</g>
<!-- Node2&#45;&gt;Node1 -->
<g id="edge1_Node000001_Node000002" class="edge">
<title>Node2&#45;&gt;Node1</title>
<g id="a_edge1_Node000001_Node000002"><a xlink:title=" ">
<path fill="none" stroke="#63b8ff" d="M74.5,-120.66C74.5,-112.44 74.5,-104 74.5,-95.91"/>
<polygon fill="none" stroke="#63b8ff" points="71,-120.54 74.5,-130.54 78,-120.54 71,-120.54"/>
</a>
</g>
</g>
</g>
</svg>
