<?xml version="1.0" encoding="UTF-8" standalone="no"?>
<!DOCTYPE svg PUBLIC "-//W3C//DTD SVG 1.1//EN"
 "http://www.w3.org/Graphics/SVG/1.1/DTD/svg11.dtd">
<!-- Generated by graphviz version 12.1.2 (20240928.0832)
 -->
<!-- Title: PA1A.Items.FlexibleSizeContainer.Take Pages: 1 -->
<svg width="401pt" height="66pt"
 viewBox="0.00 0.00 400.75 66.00" xmlns="http://www.w3.org/2000/svg" xmlns:xlink="http://www.w3.org/1999/xlink">
<g id="graph0" class="graph" transform="scale(1 1) rotate(0) translate(4 62)">
<title>PA1A.Items.FlexibleSizeContainer.Take</title>
<!-- Node1 -->
<g id="Node000001" class="node">
<title>Node1</title>
<g id="a_Node000001"><a xlink:title="Takes the specified ItemStack from the IStackContainer and substracts the taken amount from the ItemS...">
<polygon fill="#999999" stroke="#666666" points="190.75,-39 0,-39 0,-19 190.75,-19 190.75,-39"/>
<text text-anchor="middle" x="95.38" y="-25.5" font-family="Helvetica,sans-Serif" font-size="10.00">PA1A.Items.FlexibleSizeContainer.Take</text>
</a>
</g>
</g>
<!-- Node2 -->
<g id="Node000002" class="node">
<title>Node2</title>
<g id="a_Node000002"><a xlink:href="class_p_a1_a_1_1_items_1_1_container.html#a98ff3f63fc221151628a03cd4f31ed79" target="_top" xlink:title=" ">
<polygon fill="white" stroke="#666666" points="384.5,-58 235,-58 235,-38 384.5,-38 384.5,-58"/>
<text text-anchor="middle" x="309.75" y="-44.5" font-family="Helvetica,sans-Serif" font-size="10.00">PA1A.Items.Container.GetSlot</text>
</a>
</g>
</g>
<!-- Node1&#45;&gt;Node2 -->
<g id="edge1_Node000001_Node000002" class="edge">
<title>Node1&#45;&gt;Node2</title>
<g id="a_edge1_Node000001_Node000002"><a xlink:title=" ">
<path fill="none" stroke="#63b8ff" d="M191.07,-37.47C201.79,-38.43 212.67,-39.4 223.27,-40.35"/>
<polygon fill="#63b8ff" stroke="#63b8ff" points="222.85,-43.83 233.12,-41.23 223.48,-36.86 222.85,-43.83"/>
</a>
</g>
</g>
<!-- Node3 -->
<g id="Node000003" class="node">
<title>Node3</title>
<g id="a_Node000003"><a xlink:href="interface_p_a1_a_1_1_items_1_1_i_stack_container.html#af918b0b1d80a1e4d9aa1e42e12c6b7c2" target="_top" xlink:title="Takes the specified ItemStack from the IStackContainer and substracts the taken amount from the ItemS...">
<polygon fill="white" stroke="#666666" points="392.75,-20 226.75,-20 226.75,0 392.75,0 392.75,-20"/>
<text text-anchor="middle" x="309.75" y="-6.5" font-family="Helvetica,sans-Serif" font-size="10.00">PA1A.Items.IStackContainer.Take</text>
</a>
</g>
</g>
<!-- Node1&#45;&gt;Node3 -->
<g id="edge2_Node000001_Node000003" class="edge">
<title>Node1&#45;&gt;Node3</title>
<g id="a_edge2_Node000001_Node000003"><a xlink:title=" ">
<path fill="none" stroke="#63b8ff" d="M191.07,-20.53C199.12,-19.81 207.25,-19.08 215.28,-18.36"/>
<polygon fill="#63b8ff" stroke="#63b8ff" points="215.4,-21.87 225.05,-17.49 214.78,-14.89 215.4,-21.87"/>
</a>
</g>
</g>
</g>
</svg>
