<?xml version="1.0" encoding="UTF-8" standalone="no"?>
<!DOCTYPE svg PUBLIC "-//W3C//DTD SVG 1.1//EN"
 "http://www.w3.org/Graphics/SVG/1.1/DTD/svg11.dtd">
<!-- Generated by graphviz version 12.1.2 (20240928.0832)
 -->
<!-- Title: CodeSmile.Statemachine.FSM.Transition.ToState Pages: 1 -->
<svg width="401pt" height="176pt"
 viewBox="0.00 0.00 400.75 176.00" xmlns="http://www.w3.org/2000/svg" xmlns:xlink="http://www.w3.org/1999/xlink">
<g id="graph0" class="graph" transform="scale(1 1) rotate(0) translate(4 172)">
<title>CodeSmile.Statemachine.FSM.Transition.ToState</title>
<!-- Node1 -->
<g id="Node000001" class="node">
<title>Node1</title>
<g id="a_Node000001"><a xlink:title="Sets the destination state.">
<polygon fill="#999999" stroke="#666666" points="392.75,-100 238.75,-100 238.75,-68 392.75,-68 392.75,-100"/>
<text text-anchor="start" x="246.75" y="-86.5" font-family="Helvetica,sans-Serif" font-size="10.00">CodeSmile.Statemachine.FSM.</text>
<text text-anchor="middle" x="315.75" y="-74.5" font-family="Helvetica,sans-Serif" font-size="10.00">Transition.ToState</text>
</a>
</g>
</g>
<!-- Node2 -->
<g id="Node000002" class="node">
<title>Node2</title>
<g id="a_Node000002"><a xlink:href="class_code_smile_1_1_statemachine_1_1_tests_1_1_statemachine_tests.html#aabd6228e94636d5d5e9171e1e9e99e78" target="_top" xlink:title=" ">
<polygon fill="white" stroke="#666666" points="192.62,-168 10.12,-168 10.12,-124 192.62,-124 192.62,-168"/>
<text text-anchor="start" x="18.12" y="-154.5" font-family="Helvetica,sans-Serif" font-size="10.00">CodeSmile.Statemachine.Tests.</text>
<text text-anchor="start" x="18.12" y="-142.5" font-family="Helvetica,sans-Serif" font-size="10.00">StatemachineTests.FSM_NonExisting</text>
<text text-anchor="middle" x="101.38" y="-130.5" font-family="Helvetica,sans-Serif" font-size="10.00">GotoState_Throws</text>
</a>
</g>
</g>
<!-- Node1&#45;&gt;Node2 -->
<g id="edge1_Node000001_Node000002" class="edge">
<title>Node1&#45;&gt;Node2</title>
<g id="a_edge1_Node000001_Node000002"><a xlink:title=" ">
<path fill="none" stroke="#63b8ff" d="M247.64,-103.59C225.95,-109.92 201.73,-116.99 179.39,-123.52"/>
<polygon fill="#63b8ff" stroke="#63b8ff" points="248.32,-107.04 256.94,-100.88 246.36,-100.32 248.32,-107.04"/>
</a>
</g>
</g>
<!-- Node3 -->
<g id="Node000003" class="node">
<title>Node3</title>
<g id="a_Node000003"><a xlink:href="class_code_smile_1_1_statemachine_1_1_tests_1_1_statemachine_tests.html#a0bf7d8d2296419acff49a3f8c5592f7d" target="_top" xlink:title=" ">
<polygon fill="white" stroke="#666666" points="202.75,-106 0,-106 0,-62 202.75,-62 202.75,-106"/>
<text text-anchor="start" x="8" y="-92.5" font-family="Helvetica,sans-Serif" font-size="10.00">CodeSmile.Statemachine.Tests.</text>
<text text-anchor="start" x="8" y="-80.5" font-family="Helvetica,sans-Serif" font-size="10.00">StatemachineTests.FSM_StartEndStates</text>
<text text-anchor="middle" x="101.38" y="-68.5" font-family="Helvetica,sans-Serif" font-size="10.00">_RunsToEndAndRaisesStateChangeEvent</text>
</a>
</g>
</g>
<!-- Node1&#45;&gt;Node3 -->
<g id="edge2_Node000001_Node000003" class="edge">
<title>Node1&#45;&gt;Node3</title>
<g id="a_edge2_Node000001_Node000003"><a xlink:title=" ">
<path fill="none" stroke="#63b8ff" d="M227,-84C219.15,-84 211.16,-84 203.22,-84"/>
<polygon fill="#63b8ff" stroke="#63b8ff" points="226.86,-87.5 236.86,-84 226.86,-80.5 226.86,-87.5"/>
</a>
</g>
</g>
<!-- Node4 -->
<g id="Node000004" class="node">
<title>Node4</title>
<g id="a_Node000004"><a xlink:href="class_code_smile_1_1_statemachine_1_1_tests_1_1_statemachine_tests.html#a9c637f67eff602e7394b6892b2edfabb" target="_top" xlink:title=" ">
<polygon fill="white" stroke="#666666" points="194.5,-44 8.25,-44 8.25,0 194.5,0 194.5,-44"/>
<text text-anchor="start" x="16.25" y="-30.5" font-family="Helvetica,sans-Serif" font-size="10.00">CodeSmile.Statemachine.Tests.</text>
<text text-anchor="start" x="16.25" y="-18.5" font-family="Helvetica,sans-Serif" font-size="10.00">StatemachineTests.FSM_StateChange</text>
<text text-anchor="middle" x="101.38" y="-6.5" font-family="Helvetica,sans-Serif" font-size="10.00">_InvokesStateChangeEvent</text>
</a>
</g>
</g>
<!-- Node1&#45;&gt;Node4 -->
<g id="edge3_Node000001_Node000004" class="edge">
<title>Node1&#45;&gt;Node4</title>
<g id="a_edge3_Node000001_Node000004"><a xlink:title=" ">
<path fill="none" stroke="#63b8ff" d="M247.64,-64.41C225.95,-58.08 201.73,-51.01 179.39,-44.48"/>
<polygon fill="#63b8ff" stroke="#63b8ff" points="246.36,-67.68 256.94,-67.12 248.32,-60.96 246.36,-67.68"/>
</a>
</g>
</g>
</g>
</svg>
