<?xml version="1.0" encoding="UTF-8" standalone="no"?>
<!DOCTYPE svg PUBLIC "-//W3C//DTD SVG 1.1//EN"
 "http://www.w3.org/Graphics/SVG/1.1/DTD/svg11.dtd">
<!-- Generated by graphviz version 12.1.2 (20240928.0832)
 -->
<!-- Title: CodeSmile.Components.Netcode.NetworkEventLogger Pages: 1 -->
<svg width="167pt" height="160pt"
 viewBox="0.00 0.00 167.00 160.00" xmlns="http://www.w3.org/2000/svg" xmlns:xlink="http://www.w3.org/1999/xlink">
<g id="graph0" class="graph" transform="scale(1 1) rotate(0) translate(4 156)">
<title>CodeSmile.Components.Netcode.NetworkEventLogger</title>
<!-- Node1 -->
<g id="Node000001" class="node">
<title>Node1</title>
<g id="a_Node000001"><a xlink:title="Will log all NetworkManager events.">
<polygon fill="#999999" stroke="none" points="159,-64 0,-64 0,0 159,0 159,-64"/>
<text text-anchor="start" x="4.88" y="-50.5" font-family="Helvetica,sans-Serif" font-size="10.00">CodeSmile.Components.Netcode.</text>
<text text-anchor="start" x="33.75" y="-38.5" font-family="Helvetica,sans-Serif" font-size="10.00">NetworkEventLogger</text>
<text text-anchor="start" x="78" y="-22.5" font-family="Helvetica,sans-Serif" font-size="10.00"> </text>
<text text-anchor="start" x="78" y="-6.5" font-family="Helvetica,sans-Serif" font-size="10.00"> </text>
<polygon fill="#666666" stroke="#666666" points="0,-34 0,-34 159,-34 159,-34 0,-34"/>
<polygon fill="#666666" stroke="#666666" points="0,-18 0,-18 159,-18 159,-18 0,-18"/>
<polygon fill="none" stroke="#666666" points="0,0 0,-64 159,-64 159,0 0,0"/>
</a>
</g>
</g>
<!-- Node2 -->
<g id="Node000002" class="node">
<title>Node2</title>
<g id="a_Node000002"><a xlink:href="class_mono_behaviour.html" target="_top" xlink:title=" ">
<polygon fill="white" stroke="none" points="118,-152 41,-152 41,-100 118,-100 118,-152"/>
<text text-anchor="start" x="45.75" y="-138.5" font-family="Helvetica,sans-Serif" font-size="10.00">MonoBehaviour</text>
<text text-anchor="start" x="78" y="-122.5" font-family="Helvetica,sans-Serif" font-size="10.00"> </text>
<text text-anchor="start" x="78" y="-106.5" font-family="Helvetica,sans-Serif" font-size="10.00"> </text>
<polygon fill="#666666" stroke="#666666" points="41,-134 41,-134 118,-134 118,-134 41,-134"/>
<polygon fill="#666666" stroke="#666666" points="41,-118 41,-118 118,-118 118,-118 41,-118"/>
<polygon fill="none" stroke="#666666" points="41,-100 41,-152 118,-152 118,-100 41,-100"/>
</a>
</g>
</g>
<!-- Node2&#45;&gt;Node1 -->
<g id="edge1_Node000001_Node000002" class="edge">
<title>Node2&#45;&gt;Node1</title>
<g id="a_edge1_Node000001_Node000002"><a xlink:title=" ">
<path fill="none" stroke="#63b8ff" d="M79.5,-89.06C79.5,-80.78 79.5,-72.04 79.5,-63.98"/>
<polygon fill="none" stroke="#63b8ff" points="76,-88.83 79.5,-98.83 83,-88.83 76,-88.83"/>
</a>
</g>
</g>
</g>
</svg>
