<?xml version="1.0" encoding="UTF-8" standalone="no"?>
<!DOCTYPE svg PUBLIC "-//W3C//DTD SVG 1.1//EN"
 "http://www.w3.org/Graphics/SVG/1.1/DTD/svg11.dtd">
<!-- Generated by graphviz version 12.1.2 (20240928.0832)
 -->
<!-- Title: PA1A.Abilities.Fireability Pages: 1 -->
<svg width="370pt" height="316pt"
 viewBox="0.00 0.00 370.00 316.00" xmlns="http://www.w3.org/2000/svg" xmlns:xlink="http://www.w3.org/1999/xlink">

<svg id="main" version="1.1" xmlns="http://www.w3.org/2000/svg" xmlns:xlink="http://www.w3.org/1999/xlink" xml:space="preserve">

<style type="text/css"><![CDATA[
.node, .edge {opacity: 0.7;}
.node.selected, .edge.selected {opacity: 1;}
.edge:hover path { stroke: red; }
.edge:hover polygon { stroke: red; fill: red; }
]]></style>
<script type="application/ecmascript" xlink:href="svg.min.js"/>
<svg id="graph" class="graph">
<g id="graph0" class="graph" transform="scale(1 1) rotate(0) translate(4 312)">
<title>PA1A.Abilities.Fireability</title>
<!-- Node1 -->
<g id="Node000001" class="node">
<title>Node1</title>
<g id="a_Node000001"><a xlink:title="Represents a fire ability.">
<polygon fill="#999999" stroke="none" points="230.5,-52 113.5,-52 113.5,0 230.5,0 230.5,-52"/>
<text text-anchor="start" x="118.38" y="-38.5" font-family="Helvetica,sans-Serif" font-size="10.00">PA1A.Abilities.Fireability</text>
<text text-anchor="start" x="170.5" y="-22.5" font-family="Helvetica,sans-Serif" font-size="10.00"> </text>
<text text-anchor="start" x="131.5" y="-6.5" font-family="Helvetica,sans-Serif" font-size="10.00">+</text>
<text text-anchor="start" x="155.5" y="-6.5" font-family="Helvetica,sans-Serif" font-size="10.00">Process()</text>
<polygon fill="#666666" stroke="#666666" points="113.5,-34 113.5,-34 230.5,-34 230.5,-34 113.5,-34"/>
<polygon fill="#666666" stroke="#666666" points="113.5,-18 113.5,-18 230.5,-18 230.5,-18 113.5,-18"/>
<polygon fill="none" stroke="#666666" points="113.5,0 113.5,-52 230.5,-52 230.5,0 113.5,0"/>
</a>
</g>
</g>
<!-- Node2 -->
<g id="Node000002" class="node">
<title>Node2</title>
<g id="a_Node000002"><a xlink:href="class_p_a1_a_1_1_abilities_1_1_ability.html" target="_top" xlink:title="Base class for all abilities.">
<polygon fill="white" stroke="none" points="225,-220 119,-220 119,-88 225,-88 225,-220"/>
<text text-anchor="start" x="158.5" y="-206.5" font-family="Helvetica,sans-Serif" font-size="10.00">Ability</text>
<text text-anchor="start" x="123" y="-190.5" font-family="Helvetica,sans-Serif" font-size="10.00">+</text>
<text text-anchor="start" x="133" y="-190.5" font-family="Helvetica,sans-Serif" font-size="10.00">GUID</text>
<text text-anchor="start" x="123" y="-174.5" font-family="Helvetica,sans-Serif" font-size="10.00">+</text>
<text text-anchor="start" x="133" y="-174.5" font-family="Helvetica,sans-Serif" font-size="10.00">FileID</text>
<text text-anchor="start" x="123" y="-158.5" font-family="Helvetica,sans-Serif" font-size="10.00">+</text>
<text text-anchor="start" x="133" y="-158.5" font-family="Helvetica,sans-Serif" font-size="10.00">Name</text>
<text text-anchor="start" x="123" y="-142.5" font-family="Helvetica,sans-Serif" font-size="10.00">+</text>
<text text-anchor="start" x="133" y="-142.5" font-family="Helvetica,sans-Serif" font-size="10.00">Process()</text>
<text text-anchor="start" x="123" y="-126.5" font-family="Helvetica,sans-Serif" font-size="10.00">+</text>
<text text-anchor="start" x="133" y="-126.5" font-family="Helvetica,sans-Serif" font-size="10.00">OnAfterDeserialize()</text>
<text text-anchor="start" x="123" y="-110.5" font-family="Helvetica,sans-Serif" font-size="10.00">+</text>
<text text-anchor="start" x="133" y="-110.5" font-family="Helvetica,sans-Serif" font-size="10.00">OnBeforeSerialize()</text>
<text text-anchor="start" x="123" y="-94.5" font-family="Helvetica,sans-Serif" font-size="10.00">+</text>
<text text-anchor="start" x="133" y="-94.5" font-family="Helvetica,sans-Serif" font-size="10.00">Equals()</text>
<polygon fill="#666666" stroke="#666666" points="119,-202 119,-202 225,-202 225,-202 119,-202"/>
<polygon fill="#666666" stroke="#666666" points="119,-154 119,-154 131,-154 131,-154 119,-154"/>
<polygon fill="#666666" stroke="#666666" points="131,-154 131,-154 225,-154 225,-154 131,-154"/>
<polygon fill="none" stroke="#666666" points="119,-88 119,-220 225,-220 225,-88 119,-88"/>
</a>
</g>
</g>
<!-- Node2&#45;&gt;Node1 -->
<g id="edge1_Node000001_Node000002" class="edge">
<title>Node2&#45;&gt;Node1</title>
<g id="a_edge1_Node000001_Node000002"><a xlink:title=" ">
<path fill="none" stroke="#63b8ff" d="M172,-76.75C172,-67.85 172,-59.32 172,-51.92"/>
<polygon fill="none" stroke="#63b8ff" points="168.5,-76.64 172,-86.64 175.5,-76.64 168.5,-76.64"/>
</a>
</g>
</g>
<!-- Node3 -->
<g id="Node000003" class="node">
<title>Node3</title>
<g id="a_Node000003"><a xlink:href="class_scriptable_object.html" target="_top" xlink:title=" ">
<polygon fill="white" stroke="none" points="82,-308 0,-308 0,-256 82,-256 82,-308"/>
<text text-anchor="start" x="5" y="-294.5" font-family="Helvetica,sans-Serif" font-size="10.00">ScriptableObject</text>
<text text-anchor="start" x="39.5" y="-278.5" font-family="Helvetica,sans-Serif" font-size="10.00"> </text>
<text text-anchor="start" x="39.5" y="-262.5" font-family="Helvetica,sans-Serif" font-size="10.00"> </text>
<polygon fill="#666666" stroke="#666666" points="0,-290 0,-290 82,-290 82,-290 0,-290"/>
<polygon fill="#666666" stroke="#666666" points="0,-274 0,-274 82,-274 82,-274 0,-274"/>
<polygon fill="none" stroke="#666666" points="0,-256 0,-308 82,-308 82,-256 0,-256"/>
</a>
</g>
</g>
<!-- Node3&#45;&gt;Node2 -->
<g id="edge2_Node000002_Node000003" class="edge">
<title>Node3&#45;&gt;Node2</title>
<g id="a_edge2_Node000002_Node000003"><a xlink:title=" ">
<path fill="none" stroke="#63b8ff" d="M74.93,-248.36C88.39,-235.42 104.19,-220.22 119.08,-205.9"/>
<polygon fill="none" stroke="#63b8ff" points="72.75,-245.6 67.97,-255.06 77.61,-250.65 72.75,-245.6"/>
</a>
</g>
</g>
<!-- Node4 -->
<g id="Node000004" class="node">
<title>Node4</title>
<g id="a_Node000004"><a xlink:href="class_i_serialization_callback_receiver.html" target="_top" xlink:title=" ">
<polygon fill="white" stroke="none" points="243.5,-308 100.5,-308 100.5,-256 243.5,-256 243.5,-308"/>
<text text-anchor="start" x="105.25" y="-294.5" font-family="Helvetica,sans-Serif" font-size="10.00">ISerializationCallbackReceiver</text>
<text text-anchor="start" x="170.5" y="-278.5" font-family="Helvetica,sans-Serif" font-size="10.00"> </text>
<text text-anchor="start" x="170.5" y="-262.5" font-family="Helvetica,sans-Serif" font-size="10.00"> </text>
<polygon fill="#666666" stroke="#666666" points="100.5,-290 100.5,-290 243.5,-290 243.5,-290 100.5,-290"/>
<polygon fill="#666666" stroke="#666666" points="100.5,-274 100.5,-274 243.5,-274 243.5,-274 100.5,-274"/>
<polygon fill="none" stroke="#666666" points="100.5,-256 100.5,-308 243.5,-308 243.5,-256 100.5,-256"/>
</a>
</g>
</g>
<!-- Node4&#45;&gt;Node2 -->
<g id="edge3_Node000002_Node000004" class="edge">
<title>Node4&#45;&gt;Node2</title>
<g id="a_edge3_Node000002_Node000004"><a xlink:title=" ">
<path fill="none" stroke="#63b8ff" d="M172,-244.79C172,-236.94 172,-228.4 172,-219.82"/>
<polygon fill="none" stroke="#63b8ff" points="168.5,-244.59 172,-254.59 175.5,-244.59 168.5,-244.59"/>
</a>
</g>
</g>
<!-- Node5 -->
<g id="Node000005" class="node">
<title>Node5</title>
<g id="a_Node000005"><a xlink:href="class_i_equatable.html" target="_top" xlink:title=" ">
<polygon fill="white" stroke="none" points="362,-308 262,-308 262,-256 362,-256 362,-308"/>
<text text-anchor="start" x="266.62" y="-294.5" font-family="Helvetica,sans-Serif" font-size="10.00">IEquatable&lt; Ability &gt;</text>
<text text-anchor="start" x="310.5" y="-278.5" font-family="Helvetica,sans-Serif" font-size="10.00"> </text>
<text text-anchor="start" x="310.5" y="-262.5" font-family="Helvetica,sans-Serif" font-size="10.00"> </text>
<polygon fill="#666666" stroke="#666666" points="262,-290 262,-290 362,-290 362,-290 262,-290"/>
<polygon fill="#666666" stroke="#666666" points="262,-274 262,-274 362,-274 362,-274 262,-274"/>
<polygon fill="none" stroke="#666666" points="262,-256 262,-308 362,-308 362,-256 262,-256"/>
</a>
</g>
</g>
<!-- Node5&#45;&gt;Node2 -->
<g id="edge4_Node000002_Node000005" class="edge">
<title>Node5&#45;&gt;Node2</title>
<g id="a_edge4_Node000002_Node000005"><a xlink:title=" ">
<path fill="none" stroke="#63b8ff" d="M276.02,-248.62C260.45,-234.61 241.91,-217.92 224.82,-202.54"/>
<polygon fill="none" stroke="#63b8ff" points="273.44,-251.01 283.22,-255.09 278.12,-245.8 273.44,-251.01"/>
</a>
</g>
</g>
</g>
</svg>
</svg>

<style type='text/css'>
<![CDATA[
[data-mouse-over-selected='false'] { opacity: 0.7; }
[data-mouse-over-selected='true']  { opacity: 1.0; }
]]>
</style>
<script type="application/ecmascript"><![CDATA[
document.addEventListener('DOMContentLoaded', (event) => {
  highlightEdges();
  highlightAdjacentNodes();
});
]]></script>
</svg>
