<?xml version="1.0" encoding="UTF-8" standalone="no"?>
<!DOCTYPE svg PUBLIC "-//W3C//DTD SVG 1.1//EN"
 "http://www.w3.org/Graphics/SVG/1.1/DTD/svg11.dtd">
<!-- Generated by graphviz version 12.1.2 (20240928.0832)
 -->
<!-- Title: CodeSmile.Statemachine.Services.Core.Actions.UnityServicesInit Pages: 1 -->
<svg width="173pt" height="400pt"
 viewBox="0.00 0.00 173.00 400.00" xmlns="http://www.w3.org/2000/svg" xmlns:xlink="http://www.w3.org/1999/xlink">
<g id="graph0" class="graph" transform="scale(1 1) rotate(0) translate(4 396)">
<title>CodeSmile.Statemachine.Services.Core.Actions.UnityServicesInit</title>
<!-- Node1 -->
<g id="Node000001" class="node">
<title>Node1</title>
<g id="a_Node000001"><a xlink:title="Initialize Unity Gaming Services.">
<polygon fill="#999999" stroke="none" points="165,-64 0,-64 0,0 165,0 165,-64"/>
<text text-anchor="start" x="4.88" y="-50.5" font-family="Helvetica,sans-Serif" font-size="10.00">CodeSmile.Statemachine.Services.</text>
<text text-anchor="start" x="15" y="-38.5" font-family="Helvetica,sans-Serif" font-size="10.00">Core.Actions.UnityServicesInit</text>
<text text-anchor="start" x="81" y="-22.5" font-family="Helvetica,sans-Serif" font-size="10.00"> </text>
<text text-anchor="start" x="23.5" y="-6.5" font-family="Helvetica,sans-Serif" font-size="10.00">+</text>
<text text-anchor="start" x="53" y="-6.5" font-family="Helvetica,sans-Serif" font-size="10.00">ExecuteAsync()</text>
<polygon fill="#666666" stroke="#666666" points="0,-34 0,-34 165,-34 165,-34 0,-34"/>
<polygon fill="#666666" stroke="#666666" points="0,-18 0,-18 165,-18 165,-18 0,-18"/>
<polygon fill="none" stroke="#666666" points="0,0 0,-64 165,-64 165,0 0,0"/>
</a>
</g>
</g>
<!-- Node2 -->
<g id="Node000002" class="node">
<title>Node2</title>
<g id="a_Node000002"><a xlink:href="interface_code_smile_1_1_statemachine_1_1_i_async_action.html" target="_top" xlink:title="Marks a class as an asynchronous (awaitable) FSM Action.">
<polygon fill="white" stroke="none" points="126,-152 39,-152 39,-100 126,-100 126,-152"/>
<text text-anchor="start" x="53.25" y="-138.5" font-family="Helvetica,sans-Serif" font-size="10.00">IAsyncAction</text>
<text text-anchor="start" x="81" y="-122.5" font-family="Helvetica,sans-Serif" font-size="10.00"> </text>
<text text-anchor="start" x="43" y="-106.5" font-family="Helvetica,sans-Serif" font-size="10.00">+</text>
<text text-anchor="start" x="53" y="-106.5" font-family="Helvetica,sans-Serif" font-size="10.00">ExecuteAsync()</text>
<polygon fill="#666666" stroke="#666666" points="39,-134 39,-134 126,-134 126,-134 39,-134"/>
<polygon fill="#666666" stroke="#666666" points="39,-118 39,-118 126,-118 126,-118 39,-118"/>
<polygon fill="none" stroke="#666666" points="39,-100 39,-152 126,-152 126,-100 39,-100"/>
</a>
</g>
</g>
<!-- Node2&#45;&gt;Node1 -->
<g id="edge1_Node000001_Node000002" class="edge">
<title>Node2&#45;&gt;Node1</title>
<g id="a_edge1_Node000001_Node000002"><a xlink:title=" ">
<path fill="none" stroke="#63b8ff" d="M82.5,-89.06C82.5,-80.78 82.5,-72.04 82.5,-63.98"/>
<polygon fill="none" stroke="#63b8ff" points="79,-88.83 82.5,-98.83 86,-88.83 79,-88.83"/>
</a>
</g>
</g>
<!-- Node3 -->
<g id="Node000003" class="node">
<title>Node3</title>
<g id="a_Node000003"><a xlink:href="interface_code_smile_1_1_statemachine_1_1_i_action.html" target="_top" xlink:title="Marks a class as a FSM Action.">
<polygon fill="white" stroke="none" points="126.5,-256 38.5,-256 38.5,-188 126.5,-188 126.5,-256"/>
<text text-anchor="start" x="67.12" y="-242.5" font-family="Helvetica,sans-Serif" font-size="10.00">IAction</text>
<text text-anchor="start" x="81" y="-226.5" font-family="Helvetica,sans-Serif" font-size="10.00"> </text>
<text text-anchor="start" x="42.5" y="-210.5" font-family="Helvetica,sans-Serif" font-size="10.00">+</text>
<text text-anchor="start" x="52.5" y="-210.5" font-family="Helvetica,sans-Serif" font-size="10.00">Execute()</text>
<text text-anchor="start" x="42.5" y="-194.5" font-family="Helvetica,sans-Serif" font-size="10.00">+</text>
<text text-anchor="start" x="52.5" y="-194.5" font-family="Helvetica,sans-Serif" font-size="10.00">ToDebugString()</text>
<polygon fill="#666666" stroke="#666666" points="38.5,-238 38.5,-238 126.5,-238 126.5,-238 38.5,-238"/>
<polygon fill="#666666" stroke="#666666" points="38.5,-222 38.5,-222 126.5,-222 126.5,-222 38.5,-222"/>
<polygon fill="none" stroke="#666666" points="38.5,-188 38.5,-256 126.5,-256 126.5,-188 38.5,-188"/>
</a>
</g>
</g>
<!-- Node3&#45;&gt;Node2 -->
<g id="edge2_Node000002_Node000003" class="edge">
<title>Node3&#45;&gt;Node2</title>
<g id="a_edge2_Node000002_Node000003"><a xlink:title=" ">
<path fill="none" stroke="#63b8ff" d="M82.5,-176.62C82.5,-168.05 82.5,-159.37 82.5,-151.71"/>
<polygon fill="none" stroke="#63b8ff" points="79,-176.61 82.5,-186.61 86,-176.61 79,-176.61"/>
</a>
</g>
</g>
<!-- Node4 -->
<g id="Node000004" class="node">
<title>Node4</title>
<g id="a_Node000004"><a xlink:href="interface_code_smile_1_1_statemachine_1_1_i_statemachine_events.html" target="_top" xlink:title="Event methods that the Statemachine calls at specific times.">
<polygon fill="white" stroke="none" points="134,-392 31,-392 31,-292 134,-292 134,-392"/>
<text text-anchor="start" x="35.62" y="-378.5" font-family="Helvetica,sans-Serif" font-size="10.00">IStatemachineEvents</text>
<text text-anchor="start" x="81" y="-362.5" font-family="Helvetica,sans-Serif" font-size="10.00"> </text>
<text text-anchor="start" x="40" y="-346.5" font-family="Helvetica,sans-Serif" font-size="10.00">+</text>
<text text-anchor="start" x="55" y="-346.5" font-family="Helvetica,sans-Serif" font-size="10.00">OnStart()</text>
<text text-anchor="start" x="40" y="-330.5" font-family="Helvetica,sans-Serif" font-size="10.00">+</text>
<text text-anchor="start" x="55" y="-330.5" font-family="Helvetica,sans-Serif" font-size="10.00">OnStop()</text>
<text text-anchor="start" x="40" y="-314.5" font-family="Helvetica,sans-Serif" font-size="10.00">+</text>
<text text-anchor="start" x="55" y="-314.5" font-family="Helvetica,sans-Serif" font-size="10.00">OnEnterState()</text>
<text text-anchor="start" x="40" y="-298.5" font-family="Helvetica,sans-Serif" font-size="10.00">+</text>
<text text-anchor="start" x="55" y="-298.5" font-family="Helvetica,sans-Serif" font-size="10.00">OnExitState()</text>
<polygon fill="#666666" stroke="#666666" points="31,-374 31,-374 134,-374 134,-374 31,-374"/>
<polygon fill="#666666" stroke="#666666" points="31,-358 31,-358 134,-358 134,-358 31,-358"/>
<polygon fill="none" stroke="#666666" points="31,-292 31,-392 134,-392 134,-292 31,-292"/>
</a>
</g>
</g>
<!-- Node4&#45;&gt;Node3 -->
<g id="edge3_Node000003_Node000004" class="edge">
<title>Node4&#45;&gt;Node3</title>
<g id="a_edge3_Node000003_Node000004"><a xlink:title=" ">
<path fill="none" stroke="#63b8ff" d="M82.5,-280.96C82.5,-272.28 82.5,-263.62 82.5,-255.75"/>
<polygon fill="none" stroke="#63b8ff" points="79,-280.81 82.5,-290.81 86,-280.81 79,-280.81"/>
</a>
</g>
</g>
</g>
</svg>
