<?xml version="1.0" encoding="UTF-8" standalone="no"?>
<!DOCTYPE svg PUBLIC "-//W3C//DTD SVG 1.1//EN"
 "http://www.w3.org/Graphics/SVG/1.1/DTD/svg11.dtd">
<!-- Generated by graphviz version 12.1.2 (20240928.0832)
 -->
<!-- Title: CodeSmile.Components.Utility.MonoSingleton&lt; T &gt; Pages: 1 -->
<svg width="155pt" height="224pt"
 viewBox="0.00 0.00 155.00 224.00" xmlns="http://www.w3.org/2000/svg" xmlns:xlink="http://www.w3.org/1999/xlink">
<g id="graph0" class="graph" transform="scale(1 1) rotate(0) translate(4 220)">
<title>CodeSmile.Components.Utility.MonoSingleton&lt; T &gt;</title>
<!-- Node1 -->
<g id="Node000001" class="node">
<title>Node1</title>
<g id="a_Node000001"><a xlink:title="Slim and safe MonoBehaviour Singleton with guaranteed lifetime from first instantiation to applicatio...">
<polygon fill="#999999" stroke="none" points="147,-128 0,-128 0,0 147,0 147,-128"/>
<text text-anchor="start" x="4.88" y="-114.5" font-family="Helvetica,sans-Serif" font-size="10.00">CodeSmile.Components.Utility.</text>
<text text-anchor="start" x="29.62" y="-102.5" font-family="Helvetica,sans-Serif" font-size="10.00">MonoSingleton&lt; T &gt;</text>
<text text-anchor="start" x="11.5" y="-86.5" font-family="Helvetica,sans-Serif" font-size="10.00">+</text>
<text text-anchor="start" x="29" y="-86.5" font-family="Helvetica,sans-Serif" font-size="10.00">Singleton</text>
<text text-anchor="start" x="11.88" y="-70.5" font-family="Helvetica,sans-Serif" font-size="10.00">#</text>
<text text-anchor="start" x="29" y="-70.5" font-family="Helvetica,sans-Serif" font-size="10.00">Awake()</text>
<text text-anchor="start" x="11.88" y="-54.5" font-family="Helvetica,sans-Serif" font-size="10.00">#</text>
<text text-anchor="start" x="29" y="-54.5" font-family="Helvetica,sans-Serif" font-size="10.00">Start()</text>
<text text-anchor="start" x="11.88" y="-38.5" font-family="Helvetica,sans-Serif" font-size="10.00">#</text>
<text text-anchor="start" x="29" y="-38.5" font-family="Helvetica,sans-Serif" font-size="10.00">OnDestroy()</text>
<text text-anchor="start" x="11.88" y="-22.5" font-family="Helvetica,sans-Serif" font-size="10.00">#</text>
<text text-anchor="start" x="29" y="-22.5" font-family="Helvetica,sans-Serif" font-size="10.00">OnApplicationQuit()</text>
<text text-anchor="start" x="11.88" y="-6.5" font-family="Helvetica,sans-Serif" font-size="10.00">#</text>
<text text-anchor="start" x="29" y="-6.5" font-family="Helvetica,sans-Serif" font-size="10.00">SetSingletonInstance()</text>
<polygon fill="#666666" stroke="#666666" points="0,-98 0,-98 147,-98 147,-98 0,-98"/>
<polygon fill="#666666" stroke="#666666" points="0,-82 0,-82 27,-82 27,-82 0,-82"/>
<polygon fill="#666666" stroke="#666666" points="27,-82 27,-82 147,-82 147,-82 27,-82"/>
<polygon fill="none" stroke="#666666" points="0,0 0,-128 147,-128 147,0 0,0"/>
</a>
</g>
</g>
<!-- Node2 -->
<g id="Node000002" class="node">
<title>Node2</title>
<g id="a_Node000002"><a xlink:href="class_mono_behaviour.html" target="_top" xlink:title=" ">
<polygon fill="white" stroke="none" points="112,-216 35,-216 35,-164 112,-164 112,-216"/>
<text text-anchor="start" x="39.75" y="-202.5" font-family="Helvetica,sans-Serif" font-size="10.00">MonoBehaviour</text>
<text text-anchor="start" x="72" y="-186.5" font-family="Helvetica,sans-Serif" font-size="10.00"> </text>
<text text-anchor="start" x="72" y="-170.5" font-family="Helvetica,sans-Serif" font-size="10.00"> </text>
<polygon fill="#666666" stroke="#666666" points="35,-198 35,-198 112,-198 112,-198 35,-198"/>
<polygon fill="#666666" stroke="#666666" points="35,-182 35,-182 112,-182 112,-182 35,-182"/>
<polygon fill="none" stroke="#666666" points="35,-164 35,-216 112,-216 112,-164 35,-164"/>
</a>
</g>
</g>
<!-- Node2&#45;&gt;Node1 -->
<g id="edge1_Node000001_Node000002" class="edge">
<title>Node2&#45;&gt;Node1</title>
<g id="a_edge1_Node000001_Node000002"><a xlink:title=" ">
<path fill="none" stroke="#63b8ff" d="M73.5,-152.83C73.5,-144.93 73.5,-136.35 73.5,-127.75"/>
<polygon fill="none" stroke="#63b8ff" points="70,-152.69 73.5,-162.69 77,-152.69 70,-152.69"/>
</a>
</g>
</g>
</g>
</svg>
