<?xml version="1.0" encoding="UTF-8" standalone="no"?>
<!DOCTYPE svg PUBLIC "-//W3C//DTD SVG 1.1//EN"
 "http://www.w3.org/Graphics/SVG/1.1/DTD/svg11.dtd">
<!-- Generated by graphviz version 12.1.2 (20240928.0832)
 -->
<!-- Title: PA1A.Player.Controller.PlayerController.OnGroundContactLost Pages: 1 -->
<svg width="360pt" height="90pt"
 viewBox="0.00 0.00 359.50 90.00" xmlns="http://www.w3.org/2000/svg" xmlns:xlink="http://www.w3.org/1999/xlink">
<g id="graph0" class="graph" transform="scale(1 1) rotate(0) translate(4 86)">
<title>PA1A.Player.Controller.PlayerController.OnGroundContactLost</title>
<!-- Node1 -->
<g id="Node000001" class="node">
<title>Node1</title>
<g id="a_Node000001"><a xlink:title=" ">
<polygon fill="#999999" stroke="#666666" points="158.5,-57 0,-57 0,-25 158.5,-25 158.5,-57"/>
<text text-anchor="start" x="8" y="-43.5" font-family="Helvetica,sans-Serif" font-size="10.00">PA1A.Player.Controller.Player</text>
<text text-anchor="middle" x="79.25" y="-31.5" font-family="Helvetica,sans-Serif" font-size="10.00">Controller.OnGroundContactLost</text>
</a>
</g>
</g>
<!-- Node2 -->
<g id="Node000002" class="node">
<title>Node2</title>
<g id="a_Node000002"><a xlink:href="class_unity_utils_1_1_vector_math.html#a13e8deb7cb5425407443e9decb1187ea" target="_top" xlink:title="Calculates the dot product of a vector and a normalized direction.">
<polygon fill="white" stroke="#666666" points="338.38,-82 207.62,-82 207.62,-50 338.38,-50 338.38,-82"/>
<text text-anchor="start" x="215.62" y="-68.5" font-family="Helvetica,sans-Serif" font-size="10.00">UnityUtils.VectorMath.Get</text>
<text text-anchor="middle" x="273" y="-56.5" font-family="Helvetica,sans-Serif" font-size="10.00">DotProduct</text>
</a>
</g>
</g>
<!-- Node1&#45;&gt;Node2 -->
<g id="edge1_Node000001_Node000002" class="edge">
<title>Node1&#45;&gt;Node2</title>
<g id="a_edge1_Node000001_Node000002"><a xlink:title=" ">
<path fill="none" stroke="#63b8ff" d="M158.8,-51.24C171.15,-52.85 183.9,-54.51 196.19,-56.12"/>
<polygon fill="#63b8ff" stroke="#63b8ff" points="195.45,-59.55 205.82,-57.37 196.36,-52.61 195.45,-59.55"/>
</a>
</g>
</g>
<!-- Node3 -->
<g id="Node000003" class="node">
<title>Node3</title>
<g id="a_Node000003"><a xlink:href="class_p_a1_a_1_1_player_1_1_controller_1_1_player_controller.html#a795b77591d61211b5a35ac8010774b0e" target="_top" xlink:title=" ">
<polygon fill="white" stroke="#666666" points="351.5,-32 194.5,-32 194.5,0 351.5,0 351.5,-32"/>
<text text-anchor="start" x="202.5" y="-18.5" font-family="Helvetica,sans-Serif" font-size="10.00">PA1A.Player.Controller.Player</text>
<text text-anchor="middle" x="273" y="-6.5" font-family="Helvetica,sans-Serif" font-size="10.00">Controller.GetMovementVelocity</text>
</a>
</g>
</g>
<!-- Node1&#45;&gt;Node3 -->
<g id="edge2_Node000001_Node000003" class="edge">
<title>Node1&#45;&gt;Node3</title>
<g id="a_edge2_Node000001_Node000003"><a xlink:title=" ">
<path fill="none" stroke="#63b8ff" d="M158.8,-30.76C166.74,-29.72 174.85,-28.67 182.89,-27.62"/>
<polygon fill="#63b8ff" stroke="#63b8ff" points="183.23,-31.1 192.7,-26.34 182.33,-24.16 183.23,-31.1"/>
</a>
</g>
</g>
</g>
</svg>
