<?xml version="1.0" encoding="UTF-8" standalone="no"?>
<!DOCTYPE svg PUBLIC "-//W3C//DTD SVG 1.1//EN"
 "http://www.w3.org/Graphics/SVG/1.1/DTD/svg11.dtd">
<!-- Generated by graphviz version 12.1.2 (20240928.0832)
 -->
<!-- Title: Character Pages: 1 -->
<svg width="190pt" height="180pt"
 viewBox="0.00 0.00 190.00 180.00" xmlns="http://www.w3.org/2000/svg" xmlns:xlink="http://www.w3.org/1999/xlink">

<svg id="main" version="1.1" xmlns="http://www.w3.org/2000/svg" xmlns:xlink="http://www.w3.org/1999/xlink" xml:space="preserve">

<style type="text/css"><![CDATA[
.node, .edge {opacity: 0.7;}
.node.selected, .edge.selected {opacity: 1;}
.edge:hover path { stroke: red; }
.edge:hover polygon { stroke: red; fill: red; }
]]></style>
<script type="application/ecmascript" xlink:href="svg.min.js"/>
<svg id="graph" class="graph">
<g id="graph0" class="graph" transform="scale(1 1) rotate(0) translate(4 176)">
<title>Character</title>
<!-- Node1 -->
<g id="Node000001" class="node">
<title>Node1</title>
<g id="a_Node000001"><a xlink:title=" ">
<polygon fill="#999999" stroke="none" points="132,-68 45,-68 45,0 132,0 132,-68"/>
<text text-anchor="start" x="67.12" y="-54.5" font-family="Helvetica,sans-Serif" font-size="10.00">Character</text>
<text text-anchor="start" x="49" y="-38.5" font-family="Helvetica,sans-Serif" font-size="10.00">+</text>
<text text-anchor="start" x="59" y="-38.5" font-family="Helvetica,sans-Serif" font-size="10.00">Team</text>
<text text-anchor="start" x="49" y="-22.5" font-family="Helvetica,sans-Serif" font-size="10.00">+</text>
<text text-anchor="start" x="59" y="-22.5" font-family="Helvetica,sans-Serif" font-size="10.00">Health</text>
<text text-anchor="start" x="49" y="-6.5" font-family="Helvetica,sans-Serif" font-size="10.00">+</text>
<text text-anchor="start" x="59" y="-6.5" font-family="Helvetica,sans-Serif" font-size="10.00">ProcessAbility()</text>
<polygon fill="#666666" stroke="#666666" points="45,-50 45,-50 132,-50 132,-50 45,-50"/>
<polygon fill="#666666" stroke="#666666" points="45,-18 45,-18 57,-18 57,-18 45,-18"/>
<polygon fill="#666666" stroke="#666666" points="57,-18 57,-18 132,-18 132,-18 57,-18"/>
<polygon fill="none" stroke="#666666" points="45,0 45,-68 132,-68 132,0 45,0"/>
</a>
</g>
</g>
<!-- Node2 -->
<g id="Node000002" class="node">
<title>Node2</title>
<g id="a_Node000002"><a xlink:href="class_mono_behaviour.html" target="_top" xlink:title=" ">
<polygon fill="white" stroke="none" points="77,-164 0,-164 0,-112 77,-112 77,-164"/>
<text text-anchor="start" x="4.75" y="-150.5" font-family="Helvetica,sans-Serif" font-size="10.00">MonoBehaviour</text>
<text text-anchor="start" x="37" y="-134.5" font-family="Helvetica,sans-Serif" font-size="10.00"> </text>
<text text-anchor="start" x="37" y="-118.5" font-family="Helvetica,sans-Serif" font-size="10.00"> </text>
<polygon fill="#666666" stroke="#666666" points="0,-146 0,-146 77,-146 77,-146 0,-146"/>
<polygon fill="#666666" stroke="#666666" points="0,-130 0,-130 77,-130 77,-130 0,-130"/>
<polygon fill="none" stroke="#666666" points="0,-112 0,-164 77,-164 77,-112 0,-112"/>
</a>
</g>
</g>
<!-- Node2&#45;&gt;Node1 -->
<g id="edge1_Node000001_Node000002" class="edge">
<title>Node2&#45;&gt;Node1</title>
<g id="a_edge1_Node000001_Node000002"><a xlink:title=" ">
<path fill="none" stroke="#63b8ff" d="M55.72,-101.87C61.14,-90.82 67.09,-78.67 72.43,-67.79"/>
<polygon fill="none" stroke="#63b8ff" points="52.66,-100.17 51.4,-110.69 58.94,-103.25 52.66,-100.17"/>
</a>
</g>
</g>
<!-- Node3 -->
<g id="Node000003" class="node">
<title>Node3</title>
<g id="a_Node000003"><a xlink:href="interface_i_damageable.html" target="_top" xlink:title=" ">
<polygon fill="white" stroke="none" points="182,-172 95,-172 95,-104 182,-104 182,-172"/>
<text text-anchor="start" x="109.62" y="-158.5" font-family="Helvetica,sans-Serif" font-size="10.00">IDamageable</text>
<text text-anchor="start" x="99" y="-142.5" font-family="Helvetica,sans-Serif" font-size="10.00">+</text>
<text text-anchor="start" x="109" y="-142.5" font-family="Helvetica,sans-Serif" font-size="10.00">Team</text>
<text text-anchor="start" x="99" y="-126.5" font-family="Helvetica,sans-Serif" font-size="10.00">+</text>
<text text-anchor="start" x="109" y="-126.5" font-family="Helvetica,sans-Serif" font-size="10.00">Health</text>
<text text-anchor="start" x="99" y="-110.5" font-family="Helvetica,sans-Serif" font-size="10.00">+</text>
<text text-anchor="start" x="109" y="-110.5" font-family="Helvetica,sans-Serif" font-size="10.00">ProcessAbility()</text>
<polygon fill="#666666" stroke="#666666" points="95,-154 95,-154 182,-154 182,-154 95,-154"/>
<polygon fill="#666666" stroke="#666666" points="95,-122 95,-122 107,-122 107,-122 95,-122"/>
<polygon fill="#666666" stroke="#666666" points="107,-122 107,-122 182,-122 182,-122 107,-122"/>
<polygon fill="none" stroke="#666666" points="95,-104 95,-172 182,-172 182,-104 95,-104"/>
</a>
</g>
</g>
<!-- Node3&#45;&gt;Node1 -->
<g id="edge2_Node000001_Node000003" class="edge">
<title>Node3&#45;&gt;Node1</title>
<g id="a_edge2_Node000001_Node000003"><a xlink:title=" ">
<path fill="none" stroke="#63b8ff" d="M117.45,-94.06C113.14,-85.26 108.67,-76.14 104.57,-67.77"/>
<polygon fill="none" stroke="#63b8ff" points="114.19,-95.37 121.74,-102.81 120.48,-92.29 114.19,-95.37"/>
</a>
</g>
</g>
</g>
</svg>
</svg>

<style type='text/css'>
<![CDATA[
[data-mouse-over-selected='false'] { opacity: 0.7; }
[data-mouse-over-selected='true']  { opacity: 1.0; }
]]>
</style>
<script type="application/ecmascript"><![CDATA[
document.addEventListener('DOMContentLoaded', (event) => {
  highlightEdges();
  highlightAdjacentNodes();
});
]]></script>
</svg>
