<?xml version="1.0" encoding="UTF-8" standalone="no"?>
<!DOCTYPE svg PUBLIC "-//W3C//DTD SVG 1.1//EN"
 "http://www.w3.org/Graphics/SVG/1.1/DTD/svg11.dtd">
<!-- Generated by graphviz version 12.1.2 (20240928.0832)
 -->
<!-- Title: CodeSmile.MultiPal.Settings.GameStates.OnWentOffline Pages: 1 -->
<svg width="146pt" height="312pt"
 viewBox="0.00 0.00 146.00 312.00" xmlns="http://www.w3.org/2000/svg" xmlns:xlink="http://www.w3.org/1999/xlink">

<svg id="main" version="1.1" xmlns="http://www.w3.org/2000/svg" xmlns:xlink="http://www.w3.org/1999/xlink" xml:space="preserve">

<style type="text/css"><![CDATA[
.node, .edge {opacity: 0.7;}
.node.selected, .edge.selected {opacity: 1;}
.edge:hover path { stroke: red; }
.edge:hover polygon { stroke: red; fill: red; }
]]></style>
<script type="application/ecmascript" xlink:href="svg.min.js"/>
<svg id="graph" class="graph">
<g id="graph0" class="graph" transform="scale(1 1) rotate(0) translate(4 308)">
<title>CodeSmile.MultiPal.Settings.GameStates.OnWentOffline</title>
<!-- Node1 -->
<g id="Node000001" class="node">
<title>Node1</title>
<g id="a_Node000001"><a xlink:title=" ">
<polygon fill="#999999" stroke="none" points="138,-96 0,-96 0,0 138,0 138,-96"/>
<text text-anchor="start" x="4.88" y="-82.5" font-family="Helvetica,sans-Serif" font-size="10.00">CodeSmile.MultiPal.Settings.</text>
<text text-anchor="start" x="8.62" y="-70.5" font-family="Helvetica,sans-Serif" font-size="10.00">GameStates.OnWentOffline</text>
<text text-anchor="start" x="67.5" y="-54.5" font-family="Helvetica,sans-Serif" font-size="10.00"> </text>
<text text-anchor="start" x="17.5" y="-38.5" font-family="Helvetica,sans-Serif" font-size="10.00">+</text>
<text text-anchor="start" x="41" y="-38.5" font-family="Helvetica,sans-Serif" font-size="10.00">OnEnterState()</text>
<text text-anchor="start" x="17.5" y="-22.5" font-family="Helvetica,sans-Serif" font-size="10.00">+</text>
<text text-anchor="start" x="41" y="-22.5" font-family="Helvetica,sans-Serif" font-size="10.00">OnExitState()</text>
<text text-anchor="start" x="17.5" y="-6.5" font-family="Helvetica,sans-Serif" font-size="10.00">+</text>
<text text-anchor="start" x="41" y="-6.5" font-family="Helvetica,sans-Serif" font-size="10.00">IsSatisfied()</text>
<polygon fill="#666666" stroke="#666666" points="0,-66 0,-66 138,-66 138,-66 0,-66"/>
<polygon fill="#666666" stroke="#666666" points="0,-50 0,-50 138,-50 138,-50 0,-50"/>
<polygon fill="none" stroke="#666666" points="0,0 0,-96 138,-96 138,0 0,0"/>
</a>
</g>
</g>
<!-- Node2 -->
<g id="Node000002" class="node">
<title>Node2</title>
<g id="a_Node000002"><a xlink:href="class_code_smile_1_1_multi_pal_1_1_settings_1_1_game_state_condition_base.html" target="_top" xlink:title=" ">
<polygon fill="white" stroke="none" points="130.5,-216 7.5,-216 7.5,-132 130.5,-132 130.5,-216"/>
<text text-anchor="start" x="12.38" y="-202.5" font-family="Helvetica,sans-Serif" font-size="10.00">GameStateConditionBase</text>
<text text-anchor="start" x="67.5" y="-186.5" font-family="Helvetica,sans-Serif" font-size="10.00"> </text>
<text text-anchor="start" x="21.5" y="-170.5" font-family="Helvetica,sans-Serif" font-size="10.00">+</text>
<text text-anchor="start" x="41.5" y="-170.5" font-family="Helvetica,sans-Serif" font-size="10.00">OnEnterState()</text>
<text text-anchor="start" x="21.5" y="-154.5" font-family="Helvetica,sans-Serif" font-size="10.00">+</text>
<text text-anchor="start" x="41.5" y="-154.5" font-family="Helvetica,sans-Serif" font-size="10.00">OnExitState()</text>
<text text-anchor="start" x="21.5" y="-138.5" font-family="Helvetica,sans-Serif" font-size="10.00">+</text>
<text text-anchor="start" x="41.5" y="-138.5" font-family="Helvetica,sans-Serif" font-size="10.00">IsSatisfied()</text>
<polygon fill="#666666" stroke="#666666" points="7.5,-198 7.5,-198 130.5,-198 130.5,-198 7.5,-198"/>
<polygon fill="#666666" stroke="#666666" points="7.5,-182 7.5,-182 130.5,-182 130.5,-182 7.5,-182"/>
<polygon fill="none" stroke="#666666" points="7.5,-132 7.5,-216 130.5,-216 130.5,-132 7.5,-132"/>
</a>
</g>
</g>
<!-- Node2&#45;&gt;Node1 -->
<g id="edge1_Node000001_Node000002" class="edge">
<title>Node2&#45;&gt;Node1</title>
<g id="a_edge1_Node000001_Node000002"><a xlink:title=" ">
<path fill="none" stroke="#63b8ff" d="M69,-120.66C69,-112.44 69,-104 69,-95.91"/>
<polygon fill="none" stroke="#63b8ff" points="65.5,-120.54 69,-130.54 72.5,-120.54 65.5,-120.54"/>
</a>
</g>
</g>
<!-- Node3 -->
<g id="Node000003" class="node">
<title>Node3</title>
<g id="a_Node000003"><a xlink:href="class_scriptable_object.html" target="_top" xlink:title=" ">
<polygon fill="white" stroke="none" points="110,-304 28,-304 28,-252 110,-252 110,-304"/>
<text text-anchor="start" x="33" y="-290.5" font-family="Helvetica,sans-Serif" font-size="10.00">ScriptableObject</text>
<text text-anchor="start" x="67.5" y="-274.5" font-family="Helvetica,sans-Serif" font-size="10.00"> </text>
<text text-anchor="start" x="67.5" y="-258.5" font-family="Helvetica,sans-Serif" font-size="10.00"> </text>
<polygon fill="#666666" stroke="#666666" points="28,-286 28,-286 110,-286 110,-286 28,-286"/>
<polygon fill="#666666" stroke="#666666" points="28,-270 28,-270 110,-270 110,-270 28,-270"/>
<polygon fill="none" stroke="#666666" points="28,-252 28,-304 110,-304 110,-252 28,-252"/>
</a>
</g>
</g>
<!-- Node3&#45;&gt;Node2 -->
<g id="edge2_Node000002_Node000003" class="edge">
<title>Node3&#45;&gt;Node2</title>
<g id="a_edge2_Node000002_Node000003"><a xlink:title=" ">
<path fill="none" stroke="#63b8ff" d="M69,-240.77C69,-232.75 69,-224.19 69,-215.99"/>
<polygon fill="none" stroke="#63b8ff" points="65.5,-240.53 69,-250.53 72.5,-240.53 65.5,-240.53"/>
</a>
</g>
</g>
</g>
</svg>
</svg>

<style type='text/css'>
<![CDATA[
[data-mouse-over-selected='false'] { opacity: 0.7; }
[data-mouse-over-selected='true']  { opacity: 1.0; }
]]>
</style>
<script type="application/ecmascript"><![CDATA[
document.addEventListener('DOMContentLoaded', (event) => {
  highlightEdges();
  highlightAdjacentNodes();
});
]]></script>
</svg>
