<?xml version="1.0" encoding="UTF-8" standalone="no"?>
<!DOCTYPE svg PUBLIC "-//W3C//DTD SVG 1.1//EN"
 "http://www.w3.org/Graphics/SVG/1.1/DTD/svg11.dtd">
<!-- Generated by graphviz version 12.1.2 (20240928.0832)
 -->
<!-- Title: PA1A.Items.UI.SlotUI Pages: 1 -->
<svg width="288pt" height="348pt"
 viewBox="0.00 0.00 287.50 348.00" xmlns="http://www.w3.org/2000/svg" xmlns:xlink="http://www.w3.org/1999/xlink">
<g id="graph0" class="graph" transform="scale(1 1) rotate(0) translate(4 344)">
<title>PA1A.Items.UI.SlotUI</title>
<!-- Node1 -->
<g id="Node000001" class="node">
<title>Node1</title>
<g id="a_Node000001"><a xlink:title="Base implementation of ISlotUI that is linked to an IContainer">
<polygon fill="#999999" stroke="none" points="181.5,-220 75.5,-220 75.5,-104 181.5,-104 181.5,-220"/>
<text text-anchor="start" x="80.12" y="-206.5" font-family="Helvetica,sans-Serif" font-size="10.00">PA1A.Items.UI.SlotUI</text>
<text text-anchor="start" x="83.5" y="-190.5" font-family="Helvetica,sans-Serif" font-size="10.00">+</text>
<text text-anchor="start" x="97.5" y="-190.5" font-family="Helvetica,sans-Serif" font-size="10.00">Container</text>
<text text-anchor="start" x="83.5" y="-174.5" font-family="Helvetica,sans-Serif" font-size="10.00">+</text>
<text text-anchor="start" x="97.5" y="-174.5" font-family="Helvetica,sans-Serif" font-size="10.00">Index</text>
<text text-anchor="start" x="83.5" y="-158.5" font-family="Helvetica,sans-Serif" font-size="10.00">+</text>
<text text-anchor="start" x="97.5" y="-158.5" font-family="Helvetica,sans-Serif" font-size="10.00">Configure()</text>
<text text-anchor="start" x="83.5" y="-142.5" font-family="Helvetica,sans-Serif" font-size="10.00">+</text>
<text text-anchor="start" x="97.5" y="-142.5" font-family="Helvetica,sans-Serif" font-size="10.00">Refresh()</text>
<text text-anchor="start" x="83.5" y="-126.5" font-family="Helvetica,sans-Serif" font-size="10.00">+</text>
<text text-anchor="start" x="97.5" y="-126.5" font-family="Helvetica,sans-Serif" font-size="10.00">Destroy()</text>
<text text-anchor="start" x="83.5" y="-110.5" font-family="Helvetica,sans-Serif" font-size="10.00">+</text>
<text text-anchor="start" x="97.5" y="-110.5" font-family="Helvetica,sans-Serif" font-size="10.00">OnPointerClick()</text>
<polygon fill="#666666" stroke="#666666" points="75.5,-202 75.5,-202 181.5,-202 181.5,-202 75.5,-202"/>
<polygon fill="#666666" stroke="#666666" points="75.5,-170 75.5,-170 95.5,-170 95.5,-170 75.5,-170"/>
<polygon fill="#666666" stroke="#666666" points="95.5,-170 95.5,-170 181.5,-170 181.5,-170 95.5,-170"/>
<polygon fill="none" stroke="#666666" points="75.5,-104 75.5,-220 181.5,-220 181.5,-104 75.5,-104"/>
</a>
</g>
</g>
<!-- Node5 -->
<g id="Node000005" class="node">
<title>Node5</title>
<g id="a_Node000005"><a xlink:href="class_p_a1_a_1_1_items_1_1_u_i_1_1_classic_slot_u_i.html" target="_top" xlink:title="Classic ISlotUI that only displays the Item.Sprite and ItemStack.StackSize">
<polygon fill="white" stroke="none" points="198,-68 59,-68 59,0 198,0 198,-68"/>
<text text-anchor="start" x="63.62" y="-54.5" font-family="Helvetica,sans-Serif" font-size="10.00">PA1A.Items.UI.ClassicSlotUI</text>
<text text-anchor="start" x="83" y="-38.5" font-family="Helvetica,sans-Serif" font-size="10.00">+</text>
<text text-anchor="start" x="113" y="-38.5" font-family="Helvetica,sans-Serif" font-size="10.00">Header</text>
<text text-anchor="start" x="83" y="-22.5" font-family="Helvetica,sans-Serif" font-size="10.00">+</text>
<text text-anchor="start" x="113" y="-22.5" font-family="Helvetica,sans-Serif" font-size="10.00">Content</text>
<text text-anchor="start" x="83" y="-6.5" font-family="Helvetica,sans-Serif" font-size="10.00">+</text>
<text text-anchor="start" x="113" y="-6.5" font-family="Helvetica,sans-Serif" font-size="10.00">Refresh()</text>
<polygon fill="#666666" stroke="#666666" points="59,-50 59,-50 198,-50 198,-50 59,-50"/>
<polygon fill="#666666" stroke="#666666" points="59,-18 59,-18 111,-18 111,-18 59,-18"/>
<polygon fill="#666666" stroke="#666666" points="111,-18 111,-18 198,-18 198,-18 111,-18"/>
<polygon fill="none" stroke="#666666" points="59,0 59,-68 198,-68 198,0 59,0"/>
</a>
</g>
</g>
<!-- Node1&#45;&gt;Node5 -->
<g id="edge4_Node000001_Node000005" class="edge">
<title>Node1&#45;&gt;Node5</title>
<g id="a_edge4_Node000001_Node000005"><a xlink:title=" ">
<path fill="none" stroke="#63b8ff" d="M128.5,-92.77C128.5,-84.03 128.5,-75.44 128.5,-67.65"/>
<polygon fill="none" stroke="#63b8ff" points="125,-92.75 128.5,-102.75 132,-92.75 125,-92.75"/>
</a>
</g>
</g>
<!-- Node2 -->
<g id="Node000002" class="node">
<title>Node2</title>
<g id="a_Node000002"><a xlink:href="class_mono_behaviour.html" target="_top" xlink:title=" ">
<polygon fill="white" stroke="none" points="77,-324 0,-324 0,-272 77,-272 77,-324"/>
<text text-anchor="start" x="4.75" y="-310.5" font-family="Helvetica,sans-Serif" font-size="10.00">MonoBehaviour</text>
<text text-anchor="start" x="37" y="-294.5" font-family="Helvetica,sans-Serif" font-size="10.00"> </text>
<text text-anchor="start" x="37" y="-278.5" font-family="Helvetica,sans-Serif" font-size="10.00"> </text>
<polygon fill="#666666" stroke="#666666" points="0,-306 0,-306 77,-306 77,-306 0,-306"/>
<polygon fill="#666666" stroke="#666666" points="0,-290 0,-290 77,-290 77,-290 0,-290"/>
<polygon fill="none" stroke="#666666" points="0,-272 0,-324 77,-324 77,-272 0,-272"/>
</a>
</g>
</g>
<!-- Node2&#45;&gt;Node1 -->
<g id="edge1_Node000001_Node000002" class="edge">
<title>Node2&#45;&gt;Node1</title>
<g id="a_edge1_Node000001_Node000002"><a xlink:title=" ">
<path fill="none" stroke="#63b8ff" d="M61.57,-262.65C70.3,-249.66 80.47,-234.51 90.22,-219.99"/>
<polygon fill="none" stroke="#63b8ff" points="58.73,-260.6 56.06,-270.85 64.54,-264.5 58.73,-260.6"/>
</a>
</g>
</g>
<!-- Node3 -->
<g id="Node000003" class="node">
<title>Node3</title>
<g id="a_Node000003"><a xlink:href="interface_p_a1_a_1_1_items_1_1_u_i_1_1_i_slot_u_i.html" target="_top" xlink:title="Represents a ISlotUI that will display a specific ItemStack">
<polygon fill="white" stroke="none" points="161.5,-340 95.5,-340 95.5,-256 161.5,-256 161.5,-340"/>
<text text-anchor="start" x="113.12" y="-326.5" font-family="Helvetica,sans-Serif" font-size="10.00">ISlotUI</text>
<text text-anchor="start" x="127" y="-310.5" font-family="Helvetica,sans-Serif" font-size="10.00"> </text>
<text text-anchor="start" x="99.5" y="-294.5" font-family="Helvetica,sans-Serif" font-size="10.00">+</text>
<text text-anchor="start" x="109.5" y="-294.5" font-family="Helvetica,sans-Serif" font-size="10.00">Configure()</text>
<text text-anchor="start" x="99.5" y="-278.5" font-family="Helvetica,sans-Serif" font-size="10.00">+</text>
<text text-anchor="start" x="109.5" y="-278.5" font-family="Helvetica,sans-Serif" font-size="10.00">Destroy()</text>
<text text-anchor="start" x="99.5" y="-262.5" font-family="Helvetica,sans-Serif" font-size="10.00">+</text>
<text text-anchor="start" x="109.5" y="-262.5" font-family="Helvetica,sans-Serif" font-size="10.00">Refresh()</text>
<polygon fill="#666666" stroke="#666666" points="95.5,-322 95.5,-322 161.5,-322 161.5,-322 95.5,-322"/>
<polygon fill="#666666" stroke="#666666" points="95.5,-306 95.5,-306 161.5,-306 161.5,-306 95.5,-306"/>
<polygon fill="none" stroke="#666666" points="95.5,-256 95.5,-340 161.5,-340 161.5,-256 95.5,-256"/>
</a>
</g>
</g>
<!-- Node3&#45;&gt;Node1 -->
<g id="edge2_Node000001_Node000003" class="edge">
<title>Node3&#45;&gt;Node1</title>
<g id="a_edge2_Node000001_Node000003"><a xlink:title=" ">
<path fill="none" stroke="#63b8ff" d="M128.5,-244.81C128.5,-236.66 128.5,-228.21 128.5,-219.96"/>
<polygon fill="none" stroke="#63b8ff" points="125,-244.55 128.5,-254.55 132,-244.55 125,-244.55"/>
</a>
</g>
</g>
<!-- Node4 -->
<g id="Node000004" class="node">
<title>Node4</title>
<g id="a_Node000004"><a xlink:href="class_i_pointer_click_handler.html" target="_top" xlink:title=" ">
<polygon fill="white" stroke="none" points="279.5,-324 179.5,-324 179.5,-272 279.5,-272 279.5,-324"/>
<text text-anchor="start" x="184.5" y="-310.5" font-family="Helvetica,sans-Serif" font-size="10.00">IPointerClickHandler</text>
<text text-anchor="start" x="228" y="-294.5" font-family="Helvetica,sans-Serif" font-size="10.00"> </text>
<text text-anchor="start" x="228" y="-278.5" font-family="Helvetica,sans-Serif" font-size="10.00"> </text>
<polygon fill="#666666" stroke="#666666" points="179.5,-306 179.5,-306 279.5,-306 279.5,-306 179.5,-306"/>
<polygon fill="#666666" stroke="#666666" points="179.5,-290 179.5,-290 279.5,-290 279.5,-290 179.5,-290"/>
<polygon fill="none" stroke="#666666" points="179.5,-272 179.5,-324 279.5,-324 279.5,-272 179.5,-272"/>
</a>
</g>
</g>
<!-- Node4&#45;&gt;Node1 -->
<g id="edge3_Node000001_Node000004" class="edge">
<title>Node4&#45;&gt;Node1</title>
<g id="a_edge3_Node000001_Node000004"><a xlink:title=" ">
<path fill="none" stroke="#63b8ff" d="M203.89,-263.03C194.04,-249.96 182.5,-234.65 171.46,-219.99"/>
<polygon fill="none" stroke="#63b8ff" points="201.01,-265.02 209.83,-270.9 206.6,-260.81 201.01,-265.02"/>
</a>
</g>
</g>
</g>
</svg>
