<?xml version="1.0" encoding="UTF-8" standalone="no"?>
<!DOCTYPE svg PUBLIC "-//W3C//DTD SVG 1.1//EN"
 "http://www.w3.org/Graphics/SVG/1.1/DTD/svg11.dtd">
<!-- Generated by graphviz version 12.1.2 (20240928.0832)
 -->
<!-- Title: PA1A.Building.Preview.BuildPreviewSystem.StopShowingPreview Pages: 1 -->
<svg width="379pt" height="90pt"
 viewBox="0.00 0.00 379.00 90.00" xmlns="http://www.w3.org/2000/svg" xmlns:xlink="http://www.w3.org/1999/xlink">
<g id="graph0" class="graph" transform="scale(1 1) rotate(0) translate(4 86)">
<title>PA1A.Building.Preview.BuildPreviewSystem.StopShowingPreview</title>
<!-- Node1 -->
<g id="Node000001" class="node">
<title>Node1</title>
<g id="a_Node000001"><a xlink:title="Stops showing the placement preview.">
<polygon fill="#999999" stroke="#666666" points="371,-57 190,-57 190,-25 371,-25 371,-57"/>
<text text-anchor="start" x="198" y="-43.5" font-family="Helvetica,sans-Serif" font-size="10.00">PA1A.Building.Preview.Build</text>
<text text-anchor="middle" x="280.5" y="-31.5" font-family="Helvetica,sans-Serif" font-size="10.00">PreviewSystem.StopShowingPreview</text>
</a>
</g>
</g>
<!-- Node2 -->
<g id="Node000002" class="node">
<title>Node2</title>
<g id="a_Node000002"><a xlink:href="class_p_a1_a_1_1_building_1_1_placement_state.html#afaf944ef296e6f7dc842cf8095f5cd41" target="_top" xlink:title="Ends the placement state.">
<polygon fill="white" stroke="#666666" points="154,-82 0,-82 0,-50 154,-50 154,-82"/>
<text text-anchor="start" x="8" y="-68.5" font-family="Helvetica,sans-Serif" font-size="10.00">PA1A.Building.PlacementState.</text>
<text text-anchor="middle" x="77" y="-56.5" font-family="Helvetica,sans-Serif" font-size="10.00">EndState</text>
</a>
</g>
</g>
<!-- Node1&#45;&gt;Node2 -->
<g id="edge1_Node000001_Node000002" class="edge">
<title>Node1&#45;&gt;Node2</title>
<g id="a_edge1_Node000001_Node000002"><a xlink:title=" ">
<path fill="none" stroke="#63b8ff" d="M178.32,-53.55C170.29,-54.55 162.26,-55.55 154.44,-56.52"/>
<polygon fill="#63b8ff" stroke="#63b8ff" points="178.66,-57.04 188.15,-52.33 177.8,-50.09 178.66,-57.04"/>
</a>
</g>
</g>
<!-- Node3 -->
<g id="Node000003" class="node">
<title>Node3</title>
<g id="a_Node000003"><a xlink:href="class_p_a1_a_1_1_building_1_1_remove_state.html#ac8c6d93d9e3a0e06e802ecfea4fd59a8" target="_top" xlink:title="Ends the current state of removing a building.">
<polygon fill="white" stroke="#666666" points="149.12,-32 4.88,-32 4.88,0 149.12,0 149.12,-32"/>
<text text-anchor="start" x="12.88" y="-18.5" font-family="Helvetica,sans-Serif" font-size="10.00">PA1A.Building.RemoveState.</text>
<text text-anchor="middle" x="77" y="-6.5" font-family="Helvetica,sans-Serif" font-size="10.00">EndState</text>
</a>
</g>
</g>
<!-- Node1&#45;&gt;Node3 -->
<g id="edge2_Node000001_Node000003" class="edge">
<title>Node1&#45;&gt;Node3</title>
<g id="a_edge2_Node000001_Node000003"><a xlink:title=" ">
<path fill="none" stroke="#63b8ff" d="M178.28,-28.44C168.57,-27.24 158.87,-26.03 149.54,-24.88"/>
<polygon fill="#63b8ff" stroke="#63b8ff" points="177.8,-31.91 188.15,-29.67 178.66,-24.96 177.8,-31.91"/>
</a>
</g>
</g>
</g>
</svg>
