<?xml version="1.0" encoding="UTF-8" standalone="no"?>
<!DOCTYPE svg PUBLIC "-//W3C//DTD SVG 1.1//EN"
 "http://www.w3.org/Graphics/SVG/1.1/DTD/svg11.dtd">
<!-- Generated by graphviz version 12.1.2 (20240928.0832)
 -->
<!-- Title: CodeSmile.Statemachine.VariableBase Pages: 1 -->
<svg width="690pt" height="548pt"
 viewBox="0.00 0.00 690.00 548.00" xmlns="http://www.w3.org/2000/svg" xmlns:xlink="http://www.w3.org/1999/xlink">
<g id="graph0" class="graph" transform="scale(1 1) rotate(0) translate(4 544)">
<title>CodeSmile.Statemachine.VariableBase</title>
<!-- Node1 -->
<g id="Node000001" class="node">
<title>Node1</title>
<g id="a_Node000001"><a xlink:title="Base class for all FSM variables.">
<polygon fill="#999999" stroke="none" points="432,-540 251,-540 251,-296 432,-296 432,-540"/>
<text text-anchor="start" x="256" y="-526.5" font-family="Helvetica,sans-Serif" font-size="10.00">CodeSmile.Statemachine.VariableBase</text>
<text text-anchor="start" x="340" y="-510.5" font-family="Helvetica,sans-Serif" font-size="10.00"> </text>
<text text-anchor="start" x="278.5" y="-494.5" font-family="Helvetica,sans-Serif" font-size="10.00">+</text>
<text text-anchor="start" x="312" y="-494.5" font-family="Helvetica,sans-Serif" font-size="10.00">Equals()</text>
<text text-anchor="start" x="278.5" y="-478.5" font-family="Helvetica,sans-Serif" font-size="10.00">+</text>
<text text-anchor="start" x="312" y="-478.5" font-family="Helvetica,sans-Serif" font-size="10.00">GetHashCode()</text>
<text text-anchor="start" x="278.5" y="-462.5" font-family="Helvetica,sans-Serif" font-size="10.00">+</text>
<text text-anchor="start" x="312" y="-462.5" font-family="Helvetica,sans-Serif" font-size="10.00">SetValue()</text>
<text text-anchor="start" x="278.5" y="-446.5" font-family="Helvetica,sans-Serif" font-size="10.00">+</text>
<text text-anchor="start" x="312" y="-446.5" font-family="Helvetica,sans-Serif" font-size="10.00">AddValue()</text>
<text text-anchor="start" x="278.5" y="-430.5" font-family="Helvetica,sans-Serif" font-size="10.00">+</text>
<text text-anchor="start" x="312" y="-430.5" font-family="Helvetica,sans-Serif" font-size="10.00">SubtractValue()</text>
<text text-anchor="start" x="278.5" y="-414.5" font-family="Helvetica,sans-Serif" font-size="10.00">+</text>
<text text-anchor="start" x="312" y="-414.5" font-family="Helvetica,sans-Serif" font-size="10.00">MultiplyValue()</text>
<text text-anchor="start" x="278.5" y="-398.5" font-family="Helvetica,sans-Serif" font-size="10.00">+</text>
<text text-anchor="start" x="312" y="-398.5" font-family="Helvetica,sans-Serif" font-size="10.00">DivideValue()</text>
<text text-anchor="start" x="278.5" y="-382.5" font-family="Helvetica,sans-Serif" font-size="10.00">+</text>
<text text-anchor="start" x="312" y="-382.5" font-family="Helvetica,sans-Serif" font-size="10.00">operator==()</text>
<text text-anchor="start" x="278.5" y="-366.5" font-family="Helvetica,sans-Serif" font-size="10.00">+</text>
<text text-anchor="start" x="312" y="-366.5" font-family="Helvetica,sans-Serif" font-size="10.00">operator!=()</text>
<text text-anchor="start" x="278.5" y="-350.5" font-family="Helvetica,sans-Serif" font-size="10.00">+</text>
<text text-anchor="start" x="312" y="-350.5" font-family="Helvetica,sans-Serif" font-size="10.00">operator&lt;()</text>
<text text-anchor="start" x="278.5" y="-334.5" font-family="Helvetica,sans-Serif" font-size="10.00">+</text>
<text text-anchor="start" x="312" y="-334.5" font-family="Helvetica,sans-Serif" font-size="10.00">operator&gt;()</text>
<text text-anchor="start" x="278.5" y="-318.5" font-family="Helvetica,sans-Serif" font-size="10.00">+</text>
<text text-anchor="start" x="312" y="-318.5" font-family="Helvetica,sans-Serif" font-size="10.00">operator&lt;=()</text>
<text text-anchor="start" x="278.5" y="-302.5" font-family="Helvetica,sans-Serif" font-size="10.00">+</text>
<text text-anchor="start" x="312" y="-302.5" font-family="Helvetica,sans-Serif" font-size="10.00">operator&gt;=()</text>
<polygon fill="#666666" stroke="#666666" points="251,-522 251,-522 432,-522 432,-522 251,-522"/>
<polygon fill="#666666" stroke="#666666" points="251,-506 251,-506 432,-506 432,-506 251,-506"/>
<polygon fill="none" stroke="#666666" points="251,-296 251,-540 432,-540 432,-296 251,-296"/>
</a>
</g>
</g>
<!-- Node2 -->
<g id="Node000002" class="node">
<title>Node2</title>
<g id="a_Node000002"><a xlink:href="class_code_smile_1_1_statemachine_1_1_bool_var.html" target="_top" xlink:title="Represents a boolean FSM variable.">
<polygon fill="white" stroke="none" points="157,-228 0,-228 0,-32 157,-32 157,-228"/>
<text text-anchor="start" x="4.62" y="-214.5" font-family="Helvetica,sans-Serif" font-size="10.00">CodeSmile.Statemachine.BoolVar</text>
<text text-anchor="start" x="21.5" y="-198.5" font-family="Helvetica,sans-Serif" font-size="10.00">+</text>
<text text-anchor="start" x="49" y="-198.5" font-family="Helvetica,sans-Serif" font-size="10.00">Value</text>
<text text-anchor="start" x="21.5" y="-182.5" font-family="Helvetica,sans-Serif" font-size="10.00">+</text>
<text text-anchor="start" x="49" y="-182.5" font-family="Helvetica,sans-Serif" font-size="10.00">BoolVar()</text>
<text text-anchor="start" x="21.5" y="-166.5" font-family="Helvetica,sans-Serif" font-size="10.00">+</text>
<text text-anchor="start" x="49" y="-166.5" font-family="Helvetica,sans-Serif" font-size="10.00">Equals()</text>
<text text-anchor="start" x="21.5" y="-150.5" font-family="Helvetica,sans-Serif" font-size="10.00">+</text>
<text text-anchor="start" x="49" y="-150.5" font-family="Helvetica,sans-Serif" font-size="10.00">Equals()</text>
<text text-anchor="start" x="21.5" y="-134.5" font-family="Helvetica,sans-Serif" font-size="10.00">+</text>
<text text-anchor="start" x="49" y="-134.5" font-family="Helvetica,sans-Serif" font-size="10.00">GetHashCode()</text>
<text text-anchor="start" x="21.5" y="-118.5" font-family="Helvetica,sans-Serif" font-size="10.00">+</text>
<text text-anchor="start" x="49" y="-118.5" font-family="Helvetica,sans-Serif" font-size="10.00">ToString()</text>
<text text-anchor="start" x="21.5" y="-102.5" font-family="Helvetica,sans-Serif" font-size="10.00">+</text>
<text text-anchor="start" x="49" y="-102.5" font-family="Helvetica,sans-Serif" font-size="10.00">SetValue()</text>
<text text-anchor="start" x="21.5" y="-86.5" font-family="Helvetica,sans-Serif" font-size="10.00">+</text>
<text text-anchor="start" x="49" y="-86.5" font-family="Helvetica,sans-Serif" font-size="10.00">AddValue()</text>
<text text-anchor="start" x="21.5" y="-70.5" font-family="Helvetica,sans-Serif" font-size="10.00">+</text>
<text text-anchor="start" x="49" y="-70.5" font-family="Helvetica,sans-Serif" font-size="10.00">SubtractValue()</text>
<text text-anchor="start" x="21.5" y="-54.5" font-family="Helvetica,sans-Serif" font-size="10.00">+</text>
<text text-anchor="start" x="49" y="-54.5" font-family="Helvetica,sans-Serif" font-size="10.00">MultiplyValue()</text>
<text text-anchor="start" x="21.5" y="-38.5" font-family="Helvetica,sans-Serif" font-size="10.00">+</text>
<text text-anchor="start" x="49" y="-38.5" font-family="Helvetica,sans-Serif" font-size="10.00">DivideValue()</text>
<polygon fill="#666666" stroke="#666666" points="0,-210 0,-210 157,-210 157,-210 0,-210"/>
<polygon fill="#666666" stroke="#666666" points="0,-194 0,-194 47,-194 47,-194 0,-194"/>
<polygon fill="#666666" stroke="#666666" points="47,-194 47,-194 157,-194 157,-194 47,-194"/>
<polygon fill="none" stroke="#666666" points="0,-32 0,-228 157,-228 157,-32 0,-32"/>
</a>
</g>
</g>
<!-- Node1&#45;&gt;Node2 -->
<g id="edge1_Node000001_Node000002" class="edge">
<title>Node1&#45;&gt;Node2</title>
<g id="a_edge1_Node000001_Node000002"><a xlink:title=" ">
<path fill="none" stroke="#63b8ff" d="M242.82,-335.96C216.78,-312.62 189.55,-286.33 166.5,-260 157.66,-249.9 148.95,-238.89 140.65,-227.69"/>
<polygon fill="none" stroke="#63b8ff" points="240.29,-338.4 250.09,-342.43 244.94,-333.17 240.29,-338.4"/>
</a>
</g>
</g>
<!-- Node3 -->
<g id="Node000003" class="node">
<title>Node3</title>
<g id="a_Node000003"><a xlink:href="class_code_smile_1_1_statemachine_1_1_float_var.html" target="_top" xlink:title="Represents a float FSM variable.">
<polygon fill="white" stroke="none" points="335.5,-260 175.5,-260 175.5,0 335.5,0 335.5,-260"/>
<text text-anchor="start" x="180.5" y="-246.5" font-family="Helvetica,sans-Serif" font-size="10.00">CodeSmile.Statemachine.FloatVar</text>
<text text-anchor="start" x="198" y="-230.5" font-family="Helvetica,sans-Serif" font-size="10.00">+</text>
<text text-anchor="start" x="226.5" y="-230.5" font-family="Helvetica,sans-Serif" font-size="10.00">Value</text>
<text text-anchor="start" x="198" y="-214.5" font-family="Helvetica,sans-Serif" font-size="10.00">+</text>
<text text-anchor="start" x="226.5" y="-214.5" font-family="Helvetica,sans-Serif" font-size="10.00">FloatVar()</text>
<text text-anchor="start" x="198" y="-198.5" font-family="Helvetica,sans-Serif" font-size="10.00">+</text>
<text text-anchor="start" x="226.5" y="-198.5" font-family="Helvetica,sans-Serif" font-size="10.00">Equals()</text>
<text text-anchor="start" x="198" y="-182.5" font-family="Helvetica,sans-Serif" font-size="10.00">+</text>
<text text-anchor="start" x="226.5" y="-182.5" font-family="Helvetica,sans-Serif" font-size="10.00">Equals()</text>
<text text-anchor="start" x="198" y="-166.5" font-family="Helvetica,sans-Serif" font-size="10.00">+</text>
<text text-anchor="start" x="226.5" y="-166.5" font-family="Helvetica,sans-Serif" font-size="10.00">GetHashCode()</text>
<text text-anchor="start" x="198" y="-150.5" font-family="Helvetica,sans-Serif" font-size="10.00">+</text>
<text text-anchor="start" x="226.5" y="-150.5" font-family="Helvetica,sans-Serif" font-size="10.00">ToString()</text>
<text text-anchor="start" x="198" y="-134.5" font-family="Helvetica,sans-Serif" font-size="10.00">+</text>
<text text-anchor="start" x="226.5" y="-134.5" font-family="Helvetica,sans-Serif" font-size="10.00">SetValue()</text>
<text text-anchor="start" x="198" y="-118.5" font-family="Helvetica,sans-Serif" font-size="10.00">+</text>
<text text-anchor="start" x="226.5" y="-118.5" font-family="Helvetica,sans-Serif" font-size="10.00">AddValue()</text>
<text text-anchor="start" x="198" y="-102.5" font-family="Helvetica,sans-Serif" font-size="10.00">+</text>
<text text-anchor="start" x="226.5" y="-102.5" font-family="Helvetica,sans-Serif" font-size="10.00">SubtractValue()</text>
<text text-anchor="start" x="198" y="-86.5" font-family="Helvetica,sans-Serif" font-size="10.00">+</text>
<text text-anchor="start" x="226.5" y="-86.5" font-family="Helvetica,sans-Serif" font-size="10.00">MultiplyValue()</text>
<text text-anchor="start" x="198" y="-70.5" font-family="Helvetica,sans-Serif" font-size="10.00">+</text>
<text text-anchor="start" x="226.5" y="-70.5" font-family="Helvetica,sans-Serif" font-size="10.00">DivideValue()</text>
<text text-anchor="start" x="198" y="-54.5" font-family="Helvetica,sans-Serif" font-size="10.00">+</text>
<text text-anchor="start" x="226.5" y="-54.5" font-family="Helvetica,sans-Serif" font-size="10.00">operator&lt;()</text>
<text text-anchor="start" x="198" y="-38.5" font-family="Helvetica,sans-Serif" font-size="10.00">+</text>
<text text-anchor="start" x="226.5" y="-38.5" font-family="Helvetica,sans-Serif" font-size="10.00">operator&gt;()</text>
<text text-anchor="start" x="198" y="-22.5" font-family="Helvetica,sans-Serif" font-size="10.00">+</text>
<text text-anchor="start" x="226.5" y="-22.5" font-family="Helvetica,sans-Serif" font-size="10.00">operator&lt;=()</text>
<text text-anchor="start" x="198" y="-6.5" font-family="Helvetica,sans-Serif" font-size="10.00">+</text>
<text text-anchor="start" x="226.5" y="-6.5" font-family="Helvetica,sans-Serif" font-size="10.00">operator&gt;=()</text>
<polygon fill="#666666" stroke="#666666" points="175.5,-242 175.5,-242 335.5,-242 335.5,-242 175.5,-242"/>
<polygon fill="#666666" stroke="#666666" points="175.5,-226 175.5,-226 224.5,-226 224.5,-226 175.5,-226"/>
<polygon fill="#666666" stroke="#666666" points="224.5,-226 224.5,-226 335.5,-226 335.5,-226 224.5,-226"/>
<polygon fill="none" stroke="#666666" points="175.5,0 175.5,-260 335.5,-260 335.5,0 175.5,0"/>
</a>
</g>
</g>
<!-- Node1&#45;&gt;Node3 -->
<g id="edge2_Node000001_Node000003" class="edge">
<title>Node1&#45;&gt;Node3</title>
<g id="a_edge2_Node000001_Node000003"><a xlink:title=" ">
<path fill="none" stroke="#63b8ff" d="M301.91,-285.35C299.35,-276.81 296.76,-268.22 294.2,-259.7"/>
<polygon fill="none" stroke="#63b8ff" points="298.49,-286.11 304.72,-294.68 305.19,-284.09 298.49,-286.11"/>
</a>
</g>
</g>
<!-- Node4 -->
<g id="Node000004" class="node">
<title>Node4</title>
<g id="a_Node000004"><a xlink:href="class_code_smile_1_1_statemachine_1_1_int_var.html" target="_top" xlink:title="Represents an integer FSM variable.">
<polygon fill="white" stroke="none" points="503,-260 354,-260 354,0 503,0 503,-260"/>
<text text-anchor="start" x="358.75" y="-246.5" font-family="Helvetica,sans-Serif" font-size="10.00">CodeSmile.Statemachine.IntVar</text>
<text text-anchor="start" x="373.5" y="-230.5" font-family="Helvetica,sans-Serif" font-size="10.00">+</text>
<text text-anchor="start" x="399" y="-230.5" font-family="Helvetica,sans-Serif" font-size="10.00">Value</text>
<text text-anchor="start" x="373.5" y="-214.5" font-family="Helvetica,sans-Serif" font-size="10.00">+</text>
<text text-anchor="start" x="399" y="-214.5" font-family="Helvetica,sans-Serif" font-size="10.00">IntVar()</text>
<text text-anchor="start" x="373.5" y="-198.5" font-family="Helvetica,sans-Serif" font-size="10.00">+</text>
<text text-anchor="start" x="399" y="-198.5" font-family="Helvetica,sans-Serif" font-size="10.00">Equals()</text>
<text text-anchor="start" x="373.5" y="-182.5" font-family="Helvetica,sans-Serif" font-size="10.00">+</text>
<text text-anchor="start" x="399" y="-182.5" font-family="Helvetica,sans-Serif" font-size="10.00">Equals()</text>
<text text-anchor="start" x="373.5" y="-166.5" font-family="Helvetica,sans-Serif" font-size="10.00">+</text>
<text text-anchor="start" x="399" y="-166.5" font-family="Helvetica,sans-Serif" font-size="10.00">GetHashCode()</text>
<text text-anchor="start" x="373.5" y="-150.5" font-family="Helvetica,sans-Serif" font-size="10.00">+</text>
<text text-anchor="start" x="399" y="-150.5" font-family="Helvetica,sans-Serif" font-size="10.00">ToString()</text>
<text text-anchor="start" x="373.5" y="-134.5" font-family="Helvetica,sans-Serif" font-size="10.00">+</text>
<text text-anchor="start" x="399" y="-134.5" font-family="Helvetica,sans-Serif" font-size="10.00">SetValue()</text>
<text text-anchor="start" x="373.5" y="-118.5" font-family="Helvetica,sans-Serif" font-size="10.00">+</text>
<text text-anchor="start" x="399" y="-118.5" font-family="Helvetica,sans-Serif" font-size="10.00">AddValue()</text>
<text text-anchor="start" x="373.5" y="-102.5" font-family="Helvetica,sans-Serif" font-size="10.00">+</text>
<text text-anchor="start" x="399" y="-102.5" font-family="Helvetica,sans-Serif" font-size="10.00">SubtractValue()</text>
<text text-anchor="start" x="373.5" y="-86.5" font-family="Helvetica,sans-Serif" font-size="10.00">+</text>
<text text-anchor="start" x="399" y="-86.5" font-family="Helvetica,sans-Serif" font-size="10.00">MultiplyValue()</text>
<text text-anchor="start" x="373.5" y="-70.5" font-family="Helvetica,sans-Serif" font-size="10.00">+</text>
<text text-anchor="start" x="399" y="-70.5" font-family="Helvetica,sans-Serif" font-size="10.00">DivideValue()</text>
<text text-anchor="start" x="373.5" y="-54.5" font-family="Helvetica,sans-Serif" font-size="10.00">+</text>
<text text-anchor="start" x="399" y="-54.5" font-family="Helvetica,sans-Serif" font-size="10.00">operator&lt;()</text>
<text text-anchor="start" x="373.5" y="-38.5" font-family="Helvetica,sans-Serif" font-size="10.00">+</text>
<text text-anchor="start" x="399" y="-38.5" font-family="Helvetica,sans-Serif" font-size="10.00">operator&gt;()</text>
<text text-anchor="start" x="373.5" y="-22.5" font-family="Helvetica,sans-Serif" font-size="10.00">+</text>
<text text-anchor="start" x="399" y="-22.5" font-family="Helvetica,sans-Serif" font-size="10.00">operator&lt;=()</text>
<text text-anchor="start" x="373.5" y="-6.5" font-family="Helvetica,sans-Serif" font-size="10.00">+</text>
<text text-anchor="start" x="399" y="-6.5" font-family="Helvetica,sans-Serif" font-size="10.00">operator&gt;=()</text>
<polygon fill="#666666" stroke="#666666" points="354,-242 354,-242 503,-242 503,-242 354,-242"/>
<polygon fill="#666666" stroke="#666666" points="354,-226 354,-226 397,-226 397,-226 354,-226"/>
<polygon fill="#666666" stroke="#666666" points="397,-226 397,-226 503,-226 503,-226 397,-226"/>
<polygon fill="none" stroke="#666666" points="354,0 354,-260 503,-260 503,0 354,0"/>
</a>
</g>
</g>
<!-- Node1&#45;&gt;Node4 -->
<g id="edge3_Node000001_Node000004" class="edge">
<title>Node1&#45;&gt;Node4</title>
<g id="a_edge3_Node000001_Node000004"><a xlink:title=" ">
<path fill="none" stroke="#63b8ff" d="M381.55,-285.35C384.14,-276.81 386.76,-268.22 389.35,-259.7"/>
<polygon fill="none" stroke="#63b8ff" points="378.27,-284.09 378.71,-294.68 384.97,-286.13 378.27,-284.09"/>
</a>
</g>
</g>
<!-- Node5 -->
<g id="Node000005" class="node">
<title>Node5</title>
<g id="a_Node000005"><a xlink:href="class_code_smile_1_1_statemachine_1_1_var.html" target="_top" xlink:title="Represents a generic (struct) FSM variable.">
<polygon fill="white" stroke="none" points="682,-228 521,-228 521,-32 682,-32 682,-228"/>
<text text-anchor="start" x="525.75" y="-214.5" font-family="Helvetica,sans-Serif" font-size="10.00">CodeSmile.Statemachine.Var&lt; T &gt;</text>
<text text-anchor="start" x="543.5" y="-198.5" font-family="Helvetica,sans-Serif" font-size="10.00">+</text>
<text text-anchor="start" x="572" y="-198.5" font-family="Helvetica,sans-Serif" font-size="10.00">Value</text>
<text text-anchor="start" x="543.5" y="-182.5" font-family="Helvetica,sans-Serif" font-size="10.00">+</text>
<text text-anchor="start" x="572" y="-182.5" font-family="Helvetica,sans-Serif" font-size="10.00">Var()</text>
<text text-anchor="start" x="543.5" y="-166.5" font-family="Helvetica,sans-Serif" font-size="10.00">+</text>
<text text-anchor="start" x="572" y="-166.5" font-family="Helvetica,sans-Serif" font-size="10.00">Equals()</text>
<text text-anchor="start" x="543.5" y="-150.5" font-family="Helvetica,sans-Serif" font-size="10.00">+</text>
<text text-anchor="start" x="572" y="-150.5" font-family="Helvetica,sans-Serif" font-size="10.00">Equals()</text>
<text text-anchor="start" x="543.5" y="-134.5" font-family="Helvetica,sans-Serif" font-size="10.00">+</text>
<text text-anchor="start" x="572" y="-134.5" font-family="Helvetica,sans-Serif" font-size="10.00">GetHashCode()</text>
<text text-anchor="start" x="543.5" y="-118.5" font-family="Helvetica,sans-Serif" font-size="10.00">+</text>
<text text-anchor="start" x="572" y="-118.5" font-family="Helvetica,sans-Serif" font-size="10.00">ToString()</text>
<text text-anchor="start" x="543.5" y="-102.5" font-family="Helvetica,sans-Serif" font-size="10.00">+</text>
<text text-anchor="start" x="572" y="-102.5" font-family="Helvetica,sans-Serif" font-size="10.00">SetValue()</text>
<text text-anchor="start" x="543.5" y="-86.5" font-family="Helvetica,sans-Serif" font-size="10.00">+</text>
<text text-anchor="start" x="572" y="-86.5" font-family="Helvetica,sans-Serif" font-size="10.00">AddValue()</text>
<text text-anchor="start" x="543.5" y="-70.5" font-family="Helvetica,sans-Serif" font-size="10.00">+</text>
<text text-anchor="start" x="572" y="-70.5" font-family="Helvetica,sans-Serif" font-size="10.00">SubtractValue()</text>
<text text-anchor="start" x="543.5" y="-54.5" font-family="Helvetica,sans-Serif" font-size="10.00">+</text>
<text text-anchor="start" x="572" y="-54.5" font-family="Helvetica,sans-Serif" font-size="10.00">MultiplyValue()</text>
<text text-anchor="start" x="543.5" y="-38.5" font-family="Helvetica,sans-Serif" font-size="10.00">+</text>
<text text-anchor="start" x="572" y="-38.5" font-family="Helvetica,sans-Serif" font-size="10.00">DivideValue()</text>
<polygon fill="#666666" stroke="#666666" points="521,-210 521,-210 682,-210 682,-210 521,-210"/>
<polygon fill="#666666" stroke="#666666" points="521,-194 521,-194 570,-194 570,-194 521,-194"/>
<polygon fill="#666666" stroke="#666666" points="570,-194 570,-194 682,-194 682,-194 570,-194"/>
<polygon fill="none" stroke="#666666" points="521,-32 521,-228 682,-228 682,-32 521,-32"/>
</a>
</g>
</g>
<!-- Node1&#45;&gt;Node5 -->
<g id="edge4_Node000001_Node000005" class="edge">
<title>Node1&#45;&gt;Node5</title>
<g id="a_edge4_Node000001_Node000005"><a xlink:title=" ">
<path fill="none" stroke="#63b8ff" d="M440.06,-333.47C464.78,-310.68 490.52,-285.27 512.5,-260 521.25,-249.94 529.91,-239.01 538.2,-227.9"/>
<polygon fill="none" stroke="#63b8ff" points="437.85,-330.75 432.83,-340.08 442.57,-335.91 437.85,-330.75"/>
</a>
</g>
</g>
</g>
</svg>
