<?xml version="1.0" encoding="UTF-8" standalone="no"?>
<!DOCTYPE svg PUBLIC "-//W3C//DTD SVG 1.1//EN"
 "http://www.w3.org/Graphics/SVG/1.1/DTD/svg11.dtd">
<!-- Generated by graphviz version 12.1.2 (20240928.0832)
 -->
<!-- Title: PA1A.Characters.Character Pages: 1 -->
<svg width="206pt" height="484pt"
 viewBox="0.00 0.00 205.50 484.00" xmlns="http://www.w3.org/2000/svg" xmlns:xlink="http://www.w3.org/1999/xlink">
<g id="graph0" class="graph" transform="scale(1 1) rotate(0) translate(4 480)">
<title>PA1A.Characters.Character</title>
<!-- Node1 -->
<g id="Node000001" class="node">
<title>Node1</title>
<g id="a_Node000001"><a xlink:title=" ">
<polygon fill="#999999" stroke="none" points="167.5,-340 30.5,-340 30.5,0 167.5,0 167.5,-340"/>
<text text-anchor="start" x="38.25" y="-326.5" font-family="Helvetica,sans-Serif" font-size="10.00">PA1A.Characters.Character</text>
<text text-anchor="start" x="34.5" y="-310.5" font-family="Helvetica,sans-Serif" font-size="10.00">+</text>
<text text-anchor="start" x="44.5" y="-310.5" font-family="Helvetica,sans-Serif" font-size="10.00">OnHealthChanged</text>
<text text-anchor="start" x="34.5" y="-294.5" font-family="Helvetica,sans-Serif" font-size="10.00">+</text>
<text text-anchor="start" x="44.5" y="-294.5" font-family="Helvetica,sans-Serif" font-size="10.00">OnStaminaChanged</text>
<text text-anchor="start" x="34.5" y="-278.5" font-family="Helvetica,sans-Serif" font-size="10.00">+</text>
<text text-anchor="start" x="44.5" y="-278.5" font-family="Helvetica,sans-Serif" font-size="10.00">OnEquipedItemChanged</text>
<text text-anchor="start" x="34.5" y="-262.5" font-family="Helvetica,sans-Serif" font-size="10.00">+</text>
<text text-anchor="start" x="44.5" y="-262.5" font-family="Helvetica,sans-Serif" font-size="10.00">affectingAbilities</text>
<text text-anchor="start" x="34.5" y="-246.5" font-family="Helvetica,sans-Serif" font-size="10.00">+</text>
<text text-anchor="start" x="44.5" y="-246.5" font-family="Helvetica,sans-Serif" font-size="10.00">Team</text>
<text text-anchor="start" x="34.5" y="-230.5" font-family="Helvetica,sans-Serif" font-size="10.00">+</text>
<text text-anchor="start" x="44.5" y="-230.5" font-family="Helvetica,sans-Serif" font-size="10.00">Health</text>
<text text-anchor="start" x="34.5" y="-214.5" font-family="Helvetica,sans-Serif" font-size="10.00">+</text>
<text text-anchor="start" x="44.5" y="-214.5" font-family="Helvetica,sans-Serif" font-size="10.00">MaxHealth</text>
<text text-anchor="start" x="34.5" y="-198.5" font-family="Helvetica,sans-Serif" font-size="10.00">+</text>
<text text-anchor="start" x="44.5" y="-198.5" font-family="Helvetica,sans-Serif" font-size="10.00">Stamina</text>
<text text-anchor="start" x="34.5" y="-182.5" font-family="Helvetica,sans-Serif" font-size="10.00">+</text>
<text text-anchor="start" x="44.5" y="-182.5" font-family="Helvetica,sans-Serif" font-size="10.00">MaxStamina</text>
<text text-anchor="start" x="34.5" y="-166.5" font-family="Helvetica,sans-Serif" font-size="10.00">+</text>
<text text-anchor="start" x="44.5" y="-166.5" font-family="Helvetica,sans-Serif" font-size="10.00">StrengthModifier</text>
<text text-anchor="start" x="34.5" y="-150.5" font-family="Helvetica,sans-Serif" font-size="10.00">+</text>
<text text-anchor="start" x="44.5" y="-150.5" font-family="Helvetica,sans-Serif" font-size="10.00">OnNetworkSpawn()</text>
<text text-anchor="start" x="34.5" y="-134.5" font-family="Helvetica,sans-Serif" font-size="10.00">+</text>
<text text-anchor="start" x="44.5" y="-134.5" font-family="Helvetica,sans-Serif" font-size="10.00">ProcessAbility()</text>
<text text-anchor="start" x="34.5" y="-118.5" font-family="Helvetica,sans-Serif" font-size="10.00">+</text>
<text text-anchor="start" x="44.5" y="-118.5" font-family="Helvetica,sans-Serif" font-size="10.00">ProcessAbilityServerRPC()</text>
<text text-anchor="start" x="34.5" y="-102.5" font-family="Helvetica,sans-Serif" font-size="10.00">+</text>
<text text-anchor="start" x="44.5" y="-102.5" font-family="Helvetica,sans-Serif" font-size="10.00">ProcessAffectingAbilities()</text>
<text text-anchor="start" x="34.5" y="-86.5" font-family="Helvetica,sans-Serif" font-size="10.00">+</text>
<text text-anchor="start" x="44.5" y="-86.5" font-family="Helvetica,sans-Serif" font-size="10.00">ClearAffects()</text>
<text text-anchor="start" x="34.5" y="-70.5" font-family="Helvetica,sans-Serif" font-size="10.00">+</text>
<text text-anchor="start" x="44.5" y="-70.5" font-family="Helvetica,sans-Serif" font-size="10.00">ClearAffectsServerRPC()</text>
<text text-anchor="start" x="34.5" y="-54.5" font-family="Helvetica,sans-Serif" font-size="10.00">+</text>
<text text-anchor="start" x="44.5" y="-54.5" font-family="Helvetica,sans-Serif" font-size="10.00">ClearAffectsClientRPC()</text>
<text text-anchor="start" x="34.5" y="-38.5" font-family="Helvetica,sans-Serif" font-size="10.00">+</text>
<text text-anchor="start" x="44.5" y="-38.5" font-family="Helvetica,sans-Serif" font-size="10.00">FixedUpdate()</text>
<text text-anchor="start" x="34.5" y="-22.5" font-family="Helvetica,sans-Serif" font-size="10.00">+</text>
<text text-anchor="start" x="44.5" y="-22.5" font-family="Helvetica,sans-Serif" font-size="10.00">EquipItem()</text>
<text text-anchor="start" x="34.5" y="-6.5" font-family="Helvetica,sans-Serif" font-size="10.00">+</text>
<text text-anchor="start" x="44.5" y="-6.5" font-family="Helvetica,sans-Serif" font-size="10.00">EquipItemRPC()</text>
<polygon fill="#666666" stroke="#666666" points="30.5,-322 30.5,-322 167.5,-322 167.5,-322 30.5,-322"/>
<polygon fill="#666666" stroke="#666666" points="30.5,-162 30.5,-162 42.5,-162 42.5,-162 30.5,-162"/>
<polygon fill="#666666" stroke="#666666" points="42.5,-162 42.5,-162 167.5,-162 167.5,-162 42.5,-162"/>
<polygon fill="none" stroke="#666666" points="30.5,0 30.5,-340 167.5,-340 167.5,0 30.5,0"/>
</a>
</g>
</g>
<!-- Node2 -->
<g id="Node000002" class="node">
<title>Node2</title>
<g id="a_Node000002"><a xlink:href="class_network_behaviour.html" target="_top" xlink:title=" ">
<polygon fill="white" stroke="none" points="90,-452 0,-452 0,-400 90,-400 90,-452"/>
<text text-anchor="start" x="4.88" y="-438.5" font-family="Helvetica,sans-Serif" font-size="10.00">NetworkBehaviour</text>
<text text-anchor="start" x="43.5" y="-422.5" font-family="Helvetica,sans-Serif" font-size="10.00"> </text>
<text text-anchor="start" x="43.5" y="-406.5" font-family="Helvetica,sans-Serif" font-size="10.00"> </text>
<polygon fill="#666666" stroke="#666666" points="0,-434 0,-434 90,-434 90,-434 0,-434"/>
<polygon fill="#666666" stroke="#666666" points="0,-418 0,-418 90,-418 90,-418 0,-418"/>
<polygon fill="none" stroke="#666666" points="0,-400 0,-452 90,-452 90,-400 0,-400"/>
</a>
</g>
</g>
<!-- Node2&#45;&gt;Node1 -->
<g id="edge1_Node000001_Node000002" class="edge">
<title>Node2&#45;&gt;Node1</title>
<g id="a_edge1_Node000001_Node000002"><a xlink:title=" ">
<path fill="none" stroke="#63b8ff" d="M52.6,-389.26C55.56,-375.34 59.18,-358.32 63.07,-339.98"/>
<polygon fill="none" stroke="#63b8ff" points="49.25,-388.19 50.59,-398.7 56.09,-389.65 49.25,-388.19"/>
</a>
</g>
</g>
<!-- Node3 -->
<g id="Node000003" class="node">
<title>Node3</title>
<g id="a_Node000003"><a xlink:href="interface_i_damageable.html" target="_top" xlink:title=" ">
<polygon fill="white" stroke="none" points="197.5,-476 108.5,-476 108.5,-376 197.5,-376 197.5,-476"/>
<text text-anchor="start" x="124.12" y="-462.5" font-family="Helvetica,sans-Serif" font-size="10.00">IDamageable</text>
<text text-anchor="start" x="112.5" y="-446.5" font-family="Helvetica,sans-Serif" font-size="10.00">+</text>
<text text-anchor="start" x="122.5" y="-446.5" font-family="Helvetica,sans-Serif" font-size="10.00">Team</text>
<text text-anchor="start" x="112.5" y="-430.5" font-family="Helvetica,sans-Serif" font-size="10.00">+</text>
<text text-anchor="start" x="122.5" y="-430.5" font-family="Helvetica,sans-Serif" font-size="10.00">Health</text>
<text text-anchor="start" x="112.5" y="-414.5" font-family="Helvetica,sans-Serif" font-size="10.00">+</text>
<text text-anchor="start" x="122.5" y="-414.5" font-family="Helvetica,sans-Serif" font-size="10.00">Stamina</text>
<text text-anchor="start" x="112.5" y="-398.5" font-family="Helvetica,sans-Serif" font-size="10.00">+</text>
<text text-anchor="start" x="122.5" y="-398.5" font-family="Helvetica,sans-Serif" font-size="10.00">StrengthModifier</text>
<text text-anchor="start" x="112.5" y="-382.5" font-family="Helvetica,sans-Serif" font-size="10.00">+</text>
<text text-anchor="start" x="122.5" y="-382.5" font-family="Helvetica,sans-Serif" font-size="10.00">ProcessAbility()</text>
<polygon fill="#666666" stroke="#666666" points="108.5,-458 108.5,-458 197.5,-458 197.5,-458 108.5,-458"/>
<polygon fill="#666666" stroke="#666666" points="108.5,-394 108.5,-394 120.5,-394 120.5,-394 108.5,-394"/>
<polygon fill="#666666" stroke="#666666" points="120.5,-394 120.5,-394 197.5,-394 197.5,-394 120.5,-394"/>
<polygon fill="none" stroke="#666666" points="108.5,-376 108.5,-476 197.5,-476 197.5,-376 108.5,-376"/>
</a>
</g>
</g>
<!-- Node3&#45;&gt;Node1 -->
<g id="edge2_Node000001_Node000003" class="edge">
<title>Node3&#45;&gt;Node1</title>
<g id="a_edge2_Node000001_Node000003"><a xlink:title=" ">
<path fill="none" stroke="#63b8ff" d="M140.21,-364.85C138.54,-356.98 136.76,-348.63 134.92,-339.98"/>
<polygon fill="none" stroke="#63b8ff" points="136.77,-365.49 142.27,-374.55 143.62,-364.04 136.77,-365.49"/>
</a>
</g>
</g>
</g>
</svg>
