<?xml version="1.0" encoding="UTF-8" standalone="no"?>
<!DOCTYPE svg PUBLIC "-//W3C//DTD SVG 1.1//EN"
 "http://www.w3.org/Graphics/SVG/1.1/DTD/svg11.dtd">
<!-- Generated by graphviz version 12.1.2 (20240928.0832)
 -->
<!-- Title: PA1A.Items.RangedItem Pages: 1 -->
<!--zoomable 684 -->

<svg id="main" version="1.1" xmlns="http://www.w3.org/2000/svg" xmlns:xlink="http://www.w3.org/1999/xlink" xml:space="preserve" onload="init(evt)">

<style type="text/css"><![CDATA[
.node, .edge {opacity: 0.7;}
.node.selected, .edge.selected {opacity: 1;}
.edge:hover path { stroke: red; }
.edge:hover polygon { stroke: red; fill: red; }
]]></style>

<defs>
  <circle id="rim" cx="0" cy="0" r="7"/>
  <circle id="rim2" cx="0" cy="0" r="3.5"/>
  <g id="zoomPlus">
    <use xlink:href="#rim" fill="#404040"><set attributeName="fill" to="#808080" begin="zoomplus.mouseover" end="zoomplus.mouseout"/></use>
    <path d="M-4,0h8M0,-4v8" fill="none" stroke="white" stroke-width="1.5" pointer-events="none"/>
  </g>
  <g id="zoomMin">
    <use xlink:href="#rim" fill="#404040"><set attributeName="fill" to="#808080" begin="zoomminus.mouseover" end="zoomminus.mouseout"/></use>
    <path d="M-4,0h8" fill="none" stroke="white" stroke-width="1.5" pointer-events="none"/>
  </g>
  <g id="arrowUp" transform="translate(30 24)">
    <use xlink:href="#rim"/>
    <path pointer-events="none" fill="none" stroke="white" stroke-width="1.5" d="M0,-3.0v7 M-2.5,-0.5L0,-3.0L2.5,-0.5"/>
  </g>
  <g id="arrowRight" transform="rotate(90) translate(36 -43)">
    <use xlink:href="#rim"/>
    <path pointer-events="none" fill="none" stroke="white" stroke-width="1.5" d="M0,-3.0v7 M-2.5,-0.5L0,-3.0L2.5,-0.5"/>
  </g>
  <g id="arrowDown" transform="rotate(180) translate(-30 -48)">
    <use xlink:href="#rim"/>
    <path pointer-events="none" fill="none" stroke="white" stroke-width="1.5" d="M0,-3.0v7 M-2.5,-0.5L0,-3.0L2.5,-0.5"/>
  </g>
  <g id="arrowLeft" transform="rotate(270) translate(-36 17)">
    <use xlink:href="#rim"/>
    <path pointer-events="none" fill="none" stroke="white" stroke-width="1.5" d="M0,-3.0v7 M-2.5,-0.5L0,-3.0L2.5,-0.5"/>
  </g>
  <g id="resetDef">
    <use xlink:href="#rim2" fill="#404040"><set attributeName="fill" to="#808080" begin="reset.mouseover" end="reset.mouseout"/></use>
  </g>
</defs>
<script type="application/ecmascript">
var viewWidth = 364;
var viewHeight = 684;
var sectionId = 'dynsection-0';
</script>
<script type="application/ecmascript" xlink:href="svg.min.js"/>
<svg id="graph" class="graph">
<g id="viewport">
<title>PA1A.Items.RangedItem</title>
<!-- Node1 -->
<g id="Node000001" class="node">
<title>Node1</title>
<g id="a_Node000001"><a xlink:title="Represents a ranged weapon item in the game.">
<polygon fill="#999999" stroke="none" points="231,-52 113,-52 113,0 231,0 231,-52"/>
<text text-anchor="start" x="117.62" y="-38.5" font-family="Helvetica,sans-Serif" font-size="10.00">PA1A.Items.RangedItem</text>
<text text-anchor="start" x="131.5" y="-22.5" font-family="Helvetica,sans-Serif" font-size="10.00">+</text>
<text text-anchor="start" x="156" y="-22.5" font-family="Helvetica,sans-Serif" font-size="10.00">projectile</text>
<text text-anchor="start" x="131.5" y="-6.5" font-family="Helvetica,sans-Serif" font-size="10.00">+</text>
<text text-anchor="start" x="156" y="-6.5" font-family="Helvetica,sans-Serif" font-size="10.00">Process()</text>
<polygon fill="#666666" stroke="#666666" points="113,-34 113,-34 231,-34 231,-34 113,-34"/>
<polygon fill="#666666" stroke="#666666" points="113,-18 113,-18 154,-18 154,-18 113,-18"/>
<polygon fill="#666666" stroke="#666666" points="154,-18 154,-18 231,-18 231,-18 154,-18"/>
<polygon fill="none" stroke="#666666" points="113,0 113,-52 231,-52 231,0 113,0"/>
</a>
</g>
</g>
<!-- Node2 -->
<g id="Node000002" class="node">
<title>Node2</title>
<g id="a_Node000002"><a xlink:href="class_p_a1_a_1_1_items_1_1_weapon_item.html" target="_top" xlink:title="Represents an abstract base class for weapon items in the game.">
<polygon fill="white" stroke="none" points="215,-140 129,-140 129,-88 215,-88 215,-140"/>
<text text-anchor="start" x="144.62" y="-126.5" font-family="Helvetica,sans-Serif" font-size="10.00">WeaponItem</text>
<text text-anchor="start" x="133" y="-110.5" font-family="Helvetica,sans-Serif" font-size="10.00">+</text>
<text text-anchor="start" x="143" y="-110.5" font-family="Helvetica,sans-Serif" font-size="10.00">weaponAbilities</text>
<text text-anchor="start" x="170.5" y="-94.5" font-family="Helvetica,sans-Serif" font-size="10.00"> </text>
<polygon fill="#666666" stroke="#666666" points="129,-122 129,-122 215,-122 215,-122 129,-122"/>
<polygon fill="#666666" stroke="#666666" points="129,-106 129,-106 141,-106 141,-106 129,-106"/>
<polygon fill="#666666" stroke="#666666" points="141,-106 141,-106 215,-106 215,-106 141,-106"/>
<polygon fill="none" stroke="#666666" points="129,-88 129,-140 215,-140 215,-88 129,-88"/>
</a>
</g>
</g>
<!-- Node2&#45;&gt;Node1 -->
<g id="edge1_Node000001_Node000002" class="edge">
<title>Node2&#45;&gt;Node1</title>
<g id="a_edge1_Node000001_Node000002"><a xlink:title=" ">
<path fill="none" stroke="#63b8ff" d="M172,-76.66C172,-68.29 172,-59.57 172,-51.82"/>
<polygon fill="none" stroke="#63b8ff" points="168.5,-76.61 172,-86.61 175.5,-76.61 168.5,-76.61"/>
</a>
</g>
</g>
<!-- Node3 -->
<g id="Node000003" class="node">
<title>Node3</title>
<g id="a_Node000003"><a xlink:href="class_p_a1_a_1_1_items_1_1_inventory_item.html" target="_top" xlink:title="Represents an abstract base class for items in the game that can be stored in an inventory.">
<polygon fill="white" stroke="none" points="242.5,-324 101.5,-324 101.5,-176 242.5,-176 242.5,-324"/>
<text text-anchor="start" x="142" y="-310.5" font-family="Helvetica,sans-Serif" font-size="10.00">InventoryItem</text>
<text text-anchor="start" x="105.5" y="-294.5" font-family="Helvetica,sans-Serif" font-size="10.00">+</text>
<text text-anchor="start" x="115.5" y="-294.5" font-family="Helvetica,sans-Serif" font-size="10.00">ColoredName</text>
<text text-anchor="start" x="105.5" y="-278.5" font-family="Helvetica,sans-Serif" font-size="10.00">+</text>
<text text-anchor="start" x="115.5" y="-278.5" font-family="Helvetica,sans-Serif" font-size="10.00">Value</text>
<text text-anchor="start" x="105.5" y="-262.5" font-family="Helvetica,sans-Serif" font-size="10.00">+</text>
<text text-anchor="start" x="115.5" y="-262.5" font-family="Helvetica,sans-Serif" font-size="10.00">Rarity</text>
<text text-anchor="start" x="105.5" y="-246.5" font-family="Helvetica,sans-Serif" font-size="10.00">+</text>
<text text-anchor="start" x="115.5" y="-246.5" font-family="Helvetica,sans-Serif" font-size="10.00">ItemPrefab</text>
<text text-anchor="start" x="105.5" y="-230.5" font-family="Helvetica,sans-Serif" font-size="10.00">+</text>
<text text-anchor="start" x="115.5" y="-230.5" font-family="Helvetica,sans-Serif" font-size="10.00">Animation</text>
<text text-anchor="start" x="105.5" y="-214.5" font-family="Helvetica,sans-Serif" font-size="10.00">+</text>
<text text-anchor="start" x="115.5" y="-214.5" font-family="Helvetica,sans-Serif" font-size="10.00">Process()</text>
<text text-anchor="start" x="105.5" y="-198.5" font-family="Helvetica,sans-Serif" font-size="10.00">+</text>
<text text-anchor="start" x="115.5" y="-198.5" font-family="Helvetica,sans-Serif" font-size="10.00">GetNameDisplayText()</text>
<text text-anchor="start" x="105.5" y="-182.5" font-family="Helvetica,sans-Serif" font-size="10.00">+</text>
<text text-anchor="start" x="115.5" y="-182.5" font-family="Helvetica,sans-Serif" font-size="10.00">GetDescriptionDisplayText()</text>
<polygon fill="#666666" stroke="#666666" points="101.5,-306 101.5,-306 242.5,-306 242.5,-306 101.5,-306"/>
<polygon fill="#666666" stroke="#666666" points="101.5,-226 101.5,-226 113.5,-226 113.5,-226 101.5,-226"/>
<polygon fill="#666666" stroke="#666666" points="113.5,-226 113.5,-226 242.5,-226 242.5,-226 113.5,-226"/>
<polygon fill="none" stroke="#666666" points="101.5,-176 101.5,-324 242.5,-324 242.5,-176 101.5,-176"/>
</a>
</g>
</g>
<!-- Node3&#45;&gt;Node2 -->
<g id="edge2_Node000002_Node000003" class="edge">
<title>Node3&#45;&gt;Node2</title>
<g id="a_edge2_Node000002_Node000003"><a xlink:title=" ">
<path fill="none" stroke="#63b8ff" d="M172,-164.66C172,-155.76 172,-147.29 172,-139.96"/>
<polygon fill="none" stroke="#63b8ff" points="168.5,-164.6 172,-174.6 175.5,-164.6 168.5,-164.6"/>
</a>
</g>
</g>
<!-- Node4 -->
<g id="Node000004" class="node">
<title>Node4</title>
<g id="a_Node000004"><a xlink:href="class_p_a1_a_1_1_items_1_1_item.html" target="_top" xlink:title="Represents an abstract base class for items in the game.">
<polygon fill="white" stroke="none" points="242.5,-588 101.5,-588 101.5,-360 242.5,-360 242.5,-588"/>
<text text-anchor="start" x="162.25" y="-574.5" font-family="Helvetica,sans-Serif" font-size="10.00">Item</text>
<text text-anchor="start" x="105.5" y="-558.5" font-family="Helvetica,sans-Serif" font-size="10.00">+</text>
<text text-anchor="start" x="115.5" y="-558.5" font-family="Helvetica,sans-Serif" font-size="10.00">Name</text>
<text text-anchor="start" x="105.5" y="-542.5" font-family="Helvetica,sans-Serif" font-size="10.00">+</text>
<text text-anchor="start" x="115.5" y="-542.5" font-family="Helvetica,sans-Serif" font-size="10.00">Description</text>
<text text-anchor="start" x="105.5" y="-526.5" font-family="Helvetica,sans-Serif" font-size="10.00">+</text>
<text text-anchor="start" x="115.5" y="-526.5" font-family="Helvetica,sans-Serif" font-size="10.00">GUID</text>
<text text-anchor="start" x="105.5" y="-510.5" font-family="Helvetica,sans-Serif" font-size="10.00">+</text>
<text text-anchor="start" x="115.5" y="-510.5" font-family="Helvetica,sans-Serif" font-size="10.00">FileID</text>
<text text-anchor="start" x="105.5" y="-494.5" font-family="Helvetica,sans-Serif" font-size="10.00">+</text>
<text text-anchor="start" x="115.5" y="-494.5" font-family="Helvetica,sans-Serif" font-size="10.00">Icon</text>
<text text-anchor="start" x="105.5" y="-478.5" font-family="Helvetica,sans-Serif" font-size="10.00">+</text>
<text text-anchor="start" x="115.5" y="-478.5" font-family="Helvetica,sans-Serif" font-size="10.00">MaxStack</text>
<text text-anchor="start" x="105.5" y="-462.5" font-family="Helvetica,sans-Serif" font-size="10.00">+</text>
<text text-anchor="start" x="115.5" y="-462.5" font-family="Helvetica,sans-Serif" font-size="10.00">GetDescriptionDisplayText()</text>
<text text-anchor="start" x="105.5" y="-446.5" font-family="Helvetica,sans-Serif" font-size="10.00">+</text>
<text text-anchor="start" x="115.5" y="-446.5" font-family="Helvetica,sans-Serif" font-size="10.00">GetNameDisplayText()</text>
<text text-anchor="start" x="105.5" y="-430.5" font-family="Helvetica,sans-Serif" font-size="10.00">+</text>
<text text-anchor="start" x="115.5" y="-430.5" font-family="Helvetica,sans-Serif" font-size="10.00">OnAfterDeserialize()</text>
<text text-anchor="start" x="105.5" y="-414.5" font-family="Helvetica,sans-Serif" font-size="10.00">+</text>
<text text-anchor="start" x="115.5" y="-414.5" font-family="Helvetica,sans-Serif" font-size="10.00">OnBeforeSerialize()</text>
<text text-anchor="start" x="105.5" y="-398.5" font-family="Helvetica,sans-Serif" font-size="10.00">+</text>
<text text-anchor="start" x="115.5" y="-398.5" font-family="Helvetica,sans-Serif" font-size="10.00">Equals()</text>
<text text-anchor="start" x="105.5" y="-382.5" font-family="Helvetica,sans-Serif" font-size="10.00">+</text>
<text text-anchor="start" x="115.5" y="-382.5" font-family="Helvetica,sans-Serif" font-size="10.00">CreateItemStack()</text>
<text text-anchor="start" x="105.5" y="-366.5" font-family="Helvetica,sans-Serif" font-size="10.00">+</text>
<text text-anchor="start" x="115.5" y="-366.5" font-family="Helvetica,sans-Serif" font-size="10.00">CreateItemStack()</text>
<polygon fill="#666666" stroke="#666666" points="101.5,-570 101.5,-570 242.5,-570 242.5,-570 101.5,-570"/>
<polygon fill="#666666" stroke="#666666" points="101.5,-474 101.5,-474 113.5,-474 113.5,-474 101.5,-474"/>
<polygon fill="#666666" stroke="#666666" points="113.5,-474 113.5,-474 242.5,-474 242.5,-474 113.5,-474"/>
<polygon fill="none" stroke="#666666" points="101.5,-360 101.5,-588 242.5,-588 242.5,-360 101.5,-360"/>
</a>
</g>
</g>
<!-- Node4&#45;&gt;Node3 -->
<g id="edge3_Node000003_Node000004" class="edge">
<title>Node4&#45;&gt;Node3</title>
<g id="a_edge3_Node000003_Node000004"><a xlink:title=" ">
<path fill="none" stroke="#63b8ff" d="M172,-348.82C172,-340.3 172,-331.9 172,-323.8"/>
<polygon fill="none" stroke="#63b8ff" points="168.5,-348.54 172,-358.54 175.5,-348.54 168.5,-348.54"/>
</a>
</g>
</g>
<!-- Node5 -->
<g id="Node000005" class="node">
<title>Node5</title>
<g id="a_Node000005"><a xlink:href="class_scriptable_object.html" target="_top" xlink:title=" ">
<polygon fill="white" stroke="none" points="82,-676 0,-676 0,-624 82,-624 82,-676"/>
<text text-anchor="start" x="5" y="-662.5" font-family="Helvetica,sans-Serif" font-size="10.00">ScriptableObject</text>
<text text-anchor="start" x="39.5" y="-646.5" font-family="Helvetica,sans-Serif" font-size="10.00"> </text>
<text text-anchor="start" x="39.5" y="-630.5" font-family="Helvetica,sans-Serif" font-size="10.00"> </text>
<polygon fill="#666666" stroke="#666666" points="0,-658 0,-658 82,-658 82,-658 0,-658"/>
<polygon fill="#666666" stroke="#666666" points="0,-642 0,-642 82,-642 82,-642 0,-642"/>
<polygon fill="none" stroke="#666666" points="0,-624 0,-676 82,-676 82,-624 0,-624"/>
</a>
</g>
</g>
<!-- Node5&#45;&gt;Node4 -->
<g id="edge4_Node000004_Node000005" class="edge">
<title>Node5&#45;&gt;Node4</title>
<g id="a_edge4_Node000004_Node000005"><a xlink:title=" ">
<path fill="none" stroke="#63b8ff" d="M66.48,-615.16C76.69,-601.6 89,-585.24 101.56,-568.56"/>
<polygon fill="none" stroke="#63b8ff" points="63.9,-612.77 60.68,-622.86 69.49,-616.98 63.9,-612.77"/>
</a>
</g>
</g>
<!-- Node6 -->
<g id="Node000006" class="node">
<title>Node6</title>
<g id="a_Node000006"><a xlink:href="class_i_serialization_callback_receiver.html" target="_top" xlink:title=" ">
<polygon fill="white" stroke="none" points="243.5,-676 100.5,-676 100.5,-624 243.5,-624 243.5,-676"/>
<text text-anchor="start" x="105.25" y="-662.5" font-family="Helvetica,sans-Serif" font-size="10.00">ISerializationCallbackReceiver</text>
<text text-anchor="start" x="170.5" y="-646.5" font-family="Helvetica,sans-Serif" font-size="10.00"> </text>
<text text-anchor="start" x="170.5" y="-630.5" font-family="Helvetica,sans-Serif" font-size="10.00"> </text>
<polygon fill="#666666" stroke="#666666" points="100.5,-658 100.5,-658 243.5,-658 243.5,-658 100.5,-658"/>
<polygon fill="#666666" stroke="#666666" points="100.5,-642 100.5,-642 243.5,-642 243.5,-642 100.5,-642"/>
<polygon fill="none" stroke="#666666" points="100.5,-624 100.5,-676 243.5,-676 243.5,-624 100.5,-624"/>
</a>
</g>
</g>
<!-- Node6&#45;&gt;Node4 -->
<g id="edge5_Node000004_Node000006" class="edge">
<title>Node6&#45;&gt;Node4</title>
<g id="a_edge5_Node000004_Node000006"><a xlink:title=" ">
<path fill="none" stroke="#63b8ff" d="M172,-612.72C172,-605.03 172,-596.53 172,-587.64"/>
<polygon fill="none" stroke="#63b8ff" points="168.5,-612.56 172,-622.56 175.5,-612.56 168.5,-612.56"/>
</a>
</g>
</g>
<!-- Node7 -->
<g id="Node000007" class="node">
<title>Node7</title>
<g id="a_Node000007"><a xlink:href="class_i_equatable.html" target="_top" xlink:title=" ">
<polygon fill="white" stroke="none" points="356,-676 262,-676 262,-624 356,-624 356,-676"/>
<text text-anchor="start" x="267" y="-662.5" font-family="Helvetica,sans-Serif" font-size="10.00">IEquatable&lt; Item &gt;</text>
<text text-anchor="start" x="307.5" y="-646.5" font-family="Helvetica,sans-Serif" font-size="10.00"> </text>
<text text-anchor="start" x="307.5" y="-630.5" font-family="Helvetica,sans-Serif" font-size="10.00"> </text>
<polygon fill="#666666" stroke="#666666" points="262,-658 262,-658 356,-658 356,-658 262,-658"/>
<polygon fill="#666666" stroke="#666666" points="262,-642 262,-642 356,-642 356,-642 262,-642"/>
<polygon fill="none" stroke="#666666" points="262,-624 262,-676 356,-676 356,-624 262,-624"/>
</a>
</g>
</g>
<!-- Node7&#45;&gt;Node4 -->
<g id="edge6_Node000004_Node000007" class="edge">
<title>Node7&#45;&gt;Node4</title>
<g id="a_edge6_Node000004_Node000007"><a xlink:title=" ">
<path fill="none" stroke="#63b8ff" d="M282.5,-615.35C270.89,-600.6 256.65,-582.51 242.31,-564.3"/>
<polygon fill="none" stroke="#63b8ff" points="279.5,-617.19 288.43,-622.88 285,-612.86 279.5,-617.19"/>
</a>
</g>
</g>
</g>
</svg>

<g id="navigator" transform="translate(0 0)" fill="#404254">
  <rect fill="#f2f5e9" fill-opacity="0.5" stroke="#606060" stroke-width=".5" x="0" y="0" width="60" height="60"/>
  <use id="zoomplus" xlink:href="#zoomPlus" x="17" y="9" onmousedown="handleZoom(evt,'in')"/>
  <use id="zoomminus" xlink:href="#zoomMin" x="42" y="9" onmousedown="handleZoom(evt,'out')"/>
  <use id="reset" xlink:href="#resetDef" x="30" y="36" onmousedown="handleReset()"/>
   <use id="arrowup" xlink:href="#arrowUp" x="0" y="0" onmousedown="handlePan(0,-1)"/>
  <use id="arrowright" xlink:href="#arrowRight" x="0" y="0" onmousedown="handlePan(1,0)"/>
  <use id="arrowdown" xlink:href="#arrowDown" x="0" y="0" onmousedown="handlePan(0,1)"/>
  <use id="arrowleft" xlink:href="#arrowLeft" x="0" y="0" onmousedown="handlePan(-1,0)"/>
</g>
<svg viewBox="0 0 15 15" width="100%" height="30px" preserveAspectRatio="xMaxYMin meet">
 <g id="arrow_out" transform="scale(0.3 0.3)">
  <a xlink:href="class_p_a1_a_1_1_items_1_1_ranged_item__inherit__graph_org.svg" target="_base">
   <rect id="button" ry="5" rx="5" y="6" x="6" height="38" width="38"
        fill="#f2f5e9" fill-opacity="0.5" stroke="#606060" stroke-width="1.0"/>
   <path id="arrow"
     d="M 11.500037,31.436501 C 11.940474,20.09759 22.043105,11.32322 32.158766,21.979434 L 37.068811,17.246167 C 37.068811,17.246167 37.088388,32 37.088388,32 L 22.160133,31.978069 C 22.160133,31.978069 26.997745,27.140456 26.997745,27.140456 C 18.528582,18.264221 13.291696,25.230495 11.500037,31.436501 z"
     style="fill:#404040;"/>
  </a>
 </g>
</svg>

<style type='text/css'>
<![CDATA[
[data-mouse-over-selected='false'] { opacity: 0.7; }
[data-mouse-over-selected='true']  { opacity: 1.0; }
]]>
</style>
<script type="application/ecmascript"><![CDATA[
document.addEventListener('DOMContentLoaded', (event) => {
  highlightEdges();
  highlightAdjacentNodes();
});
]]></script>
</svg>
