<?xml version="1.0" encoding="UTF-8" standalone="no"?>
<!DOCTYPE svg PUBLIC "-//W3C//DTD SVG 1.1//EN"
 "http://www.w3.org/Graphics/SVG/1.1/DTD/svg11.dtd">
<!-- Generated by graphviz version 12.1.2 (20240928.0832)
 -->
<!-- Title: CodeSmile.Statemachine.Services.Authentication.Conditions.IsNotSignedIn Pages: 1 -->
<svg width="195pt" height="400pt"
 viewBox="0.00 0.00 195.00 400.00" xmlns="http://www.w3.org/2000/svg" xmlns:xlink="http://www.w3.org/1999/xlink">
<g id="graph0" class="graph" transform="scale(1 1) rotate(0) translate(4 396)">
<title>CodeSmile.Statemachine.Services.Authentication.Conditions.IsNotSignedIn</title>
<!-- Node1 -->
<g id="Node000001" class="node">
<title>Node1</title>
<g id="a_Node000001"><a xlink:title="Is true if user is not signed in (not authenticated) or services are not initialized.">
<polygon fill="#999999" stroke="none" points="187,-64 0,-64 0,0 187,0 187,-64"/>
<text text-anchor="start" x="5" y="-50.5" font-family="Helvetica,sans-Serif" font-size="10.00">CodeSmile.Statemachine.Services.</text>
<text text-anchor="start" x="5" y="-38.5" font-family="Helvetica,sans-Serif" font-size="10.00">Authentication.Conditions.IsNotSignedIn</text>
<text text-anchor="start" x="92" y="-22.5" font-family="Helvetica,sans-Serif" font-size="10.00"> </text>
<text text-anchor="start" x="33" y="-6.5" font-family="Helvetica,sans-Serif" font-size="10.00">+</text>
<text text-anchor="start" x="72" y="-6.5" font-family="Helvetica,sans-Serif" font-size="10.00">IsSatisfied()</text>
<polygon fill="#666666" stroke="#666666" points="0,-34 0,-34 187,-34 187,-34 0,-34"/>
<polygon fill="#666666" stroke="#666666" points="0,-18 0,-18 187,-18 187,-18 0,-18"/>
<polygon fill="none" stroke="#666666" points="0,0 0,-64 187,-64 187,0 0,0"/>
</a>
</g>
</g>
<!-- Node2 -->
<g id="Node000002" class="node">
<title>Node2</title>
<g id="a_Node000002"><a xlink:href="class_code_smile_1_1_statemachine_1_1_services_1_1_authentication_1_1_conditions_1_1_is_signed_in.html" target="_top" xlink:title="Is true if services are initialized and user is signed in.">
<polygon fill="white" stroke="none" points="128.5,-152 58.5,-152 58.5,-100 128.5,-100 128.5,-152"/>
<text text-anchor="start" x="70.25" y="-138.5" font-family="Helvetica,sans-Serif" font-size="10.00">IsSignedIn</text>
<text text-anchor="start" x="92" y="-122.5" font-family="Helvetica,sans-Serif" font-size="10.00"> </text>
<text text-anchor="start" x="62.5" y="-106.5" font-family="Helvetica,sans-Serif" font-size="10.00">+</text>
<text text-anchor="start" x="72.5" y="-106.5" font-family="Helvetica,sans-Serif" font-size="10.00">IsSatisfied()</text>
<polygon fill="#666666" stroke="#666666" points="58.5,-134 58.5,-134 128.5,-134 128.5,-134 58.5,-134"/>
<polygon fill="#666666" stroke="#666666" points="58.5,-118 58.5,-118 128.5,-118 128.5,-118 58.5,-118"/>
<polygon fill="none" stroke="#666666" points="58.5,-100 58.5,-152 128.5,-152 128.5,-100 58.5,-100"/>
</a>
</g>
</g>
<!-- Node2&#45;&gt;Node1 -->
<g id="edge1_Node000001_Node000002" class="edge">
<title>Node2&#45;&gt;Node1</title>
<g id="a_edge1_Node000001_Node000002"><a xlink:title=" ">
<path fill="none" stroke="#63b8ff" d="M93.5,-89.06C93.5,-80.78 93.5,-72.04 93.5,-63.98"/>
<polygon fill="none" stroke="#63b8ff" points="90,-88.83 93.5,-98.83 97,-88.83 90,-88.83"/>
</a>
</g>
</g>
<!-- Node3 -->
<g id="Node000003" class="node">
<title>Node3</title>
<g id="a_Node000003"><a xlink:href="interface_code_smile_1_1_statemachine_1_1_i_condition.html" target="_top" xlink:title="Marks a class as a FSM Condition.">
<polygon fill="white" stroke="none" points="137.5,-256 49.5,-256 49.5,-188 137.5,-188 137.5,-256"/>
<text text-anchor="start" x="71.38" y="-242.5" font-family="Helvetica,sans-Serif" font-size="10.00">ICondition</text>
<text text-anchor="start" x="92" y="-226.5" font-family="Helvetica,sans-Serif" font-size="10.00"> </text>
<text text-anchor="start" x="53.5" y="-210.5" font-family="Helvetica,sans-Serif" font-size="10.00">+</text>
<text text-anchor="start" x="63.5" y="-210.5" font-family="Helvetica,sans-Serif" font-size="10.00">IsSatisfied()</text>
<text text-anchor="start" x="53.5" y="-194.5" font-family="Helvetica,sans-Serif" font-size="10.00">+</text>
<text text-anchor="start" x="63.5" y="-194.5" font-family="Helvetica,sans-Serif" font-size="10.00">ToDebugString()</text>
<polygon fill="#666666" stroke="#666666" points="49.5,-238 49.5,-238 137.5,-238 137.5,-238 49.5,-238"/>
<polygon fill="#666666" stroke="#666666" points="49.5,-222 49.5,-222 137.5,-222 137.5,-222 49.5,-222"/>
<polygon fill="none" stroke="#666666" points="49.5,-188 49.5,-256 137.5,-256 137.5,-188 49.5,-188"/>
</a>
</g>
</g>
<!-- Node3&#45;&gt;Node2 -->
<g id="edge2_Node000002_Node000003" class="edge">
<title>Node3&#45;&gt;Node2</title>
<g id="a_edge2_Node000002_Node000003"><a xlink:title=" ">
<path fill="none" stroke="#63b8ff" d="M93.5,-176.62C93.5,-168.05 93.5,-159.37 93.5,-151.71"/>
<polygon fill="none" stroke="#63b8ff" points="90,-176.61 93.5,-186.61 97,-176.61 90,-176.61"/>
</a>
</g>
</g>
<!-- Node4 -->
<g id="Node000004" class="node">
<title>Node4</title>
<g id="a_Node000004"><a xlink:href="interface_code_smile_1_1_statemachine_1_1_i_statemachine_events.html" target="_top" xlink:title="Event methods that the Statemachine calls at specific times.">
<polygon fill="white" stroke="none" points="145,-392 42,-392 42,-292 145,-292 145,-392"/>
<text text-anchor="start" x="46.62" y="-378.5" font-family="Helvetica,sans-Serif" font-size="10.00">IStatemachineEvents</text>
<text text-anchor="start" x="92" y="-362.5" font-family="Helvetica,sans-Serif" font-size="10.00"> </text>
<text text-anchor="start" x="51" y="-346.5" font-family="Helvetica,sans-Serif" font-size="10.00">+</text>
<text text-anchor="start" x="66" y="-346.5" font-family="Helvetica,sans-Serif" font-size="10.00">OnStart()</text>
<text text-anchor="start" x="51" y="-330.5" font-family="Helvetica,sans-Serif" font-size="10.00">+</text>
<text text-anchor="start" x="66" y="-330.5" font-family="Helvetica,sans-Serif" font-size="10.00">OnStop()</text>
<text text-anchor="start" x="51" y="-314.5" font-family="Helvetica,sans-Serif" font-size="10.00">+</text>
<text text-anchor="start" x="66" y="-314.5" font-family="Helvetica,sans-Serif" font-size="10.00">OnEnterState()</text>
<text text-anchor="start" x="51" y="-298.5" font-family="Helvetica,sans-Serif" font-size="10.00">+</text>
<text text-anchor="start" x="66" y="-298.5" font-family="Helvetica,sans-Serif" font-size="10.00">OnExitState()</text>
<polygon fill="#666666" stroke="#666666" points="42,-374 42,-374 145,-374 145,-374 42,-374"/>
<polygon fill="#666666" stroke="#666666" points="42,-358 42,-358 145,-358 145,-358 42,-358"/>
<polygon fill="none" stroke="#666666" points="42,-292 42,-392 145,-392 145,-292 42,-292"/>
</a>
</g>
</g>
<!-- Node4&#45;&gt;Node3 -->
<g id="edge3_Node000003_Node000004" class="edge">
<title>Node4&#45;&gt;Node3</title>
<g id="a_edge3_Node000003_Node000004"><a xlink:title=" ">
<path fill="none" stroke="#63b8ff" d="M93.5,-280.96C93.5,-272.28 93.5,-263.62 93.5,-255.75"/>
<polygon fill="none" stroke="#63b8ff" points="90,-280.81 93.5,-290.81 97,-280.81 90,-280.81"/>
</a>
</g>
</g>
</g>
</svg>
