<?xml version="1.0" encoding="UTF-8" standalone="no"?>
<!DOCTYPE svg PUBLIC "-//W3C//DTD SVG 1.1//EN"
 "http://www.w3.org/Graphics/SVG/1.1/DTD/svg11.dtd">
<!-- Generated by graphviz version 12.1.2 (20240928.0832)
 -->
<!-- Title: CodeSmile.Statemachine.Netcode.Conditions.IsNotNetcodeRole Pages: 1 -->
<!--zoomable 464 -->

<svg id="main" version="1.1" xmlns="http://www.w3.org/2000/svg" xmlns:xlink="http://www.w3.org/1999/xlink" xml:space="preserve" onload="init(evt)">

<style type="text/css"><![CDATA[
.node, .edge {opacity: 0.7;}
.node.selected, .edge.selected {opacity: 1;}
.edge:hover path { stroke: red; }
.edge:hover polygon { stroke: red; fill: red; }
]]></style>

<defs>
  <circle id="rim" cx="0" cy="0" r="7"/>
  <circle id="rim2" cx="0" cy="0" r="3.5"/>
  <g id="zoomPlus">
    <use xlink:href="#rim" fill="#404040"><set attributeName="fill" to="#808080" begin="zoomplus.mouseover" end="zoomplus.mouseout"/></use>
    <path d="M-4,0h8M0,-4v8" fill="none" stroke="white" stroke-width="1.5" pointer-events="none"/>
  </g>
  <g id="zoomMin">
    <use xlink:href="#rim" fill="#404040"><set attributeName="fill" to="#808080" begin="zoomminus.mouseover" end="zoomminus.mouseout"/></use>
    <path d="M-4,0h8" fill="none" stroke="white" stroke-width="1.5" pointer-events="none"/>
  </g>
  <g id="arrowUp" transform="translate(30 24)">
    <use xlink:href="#rim"/>
    <path pointer-events="none" fill="none" stroke="white" stroke-width="1.5" d="M0,-3.0v7 M-2.5,-0.5L0,-3.0L2.5,-0.5"/>
  </g>
  <g id="arrowRight" transform="rotate(90) translate(36 -43)">
    <use xlink:href="#rim"/>
    <path pointer-events="none" fill="none" stroke="white" stroke-width="1.5" d="M0,-3.0v7 M-2.5,-0.5L0,-3.0L2.5,-0.5"/>
  </g>
  <g id="arrowDown" transform="rotate(180) translate(-30 -48)">
    <use xlink:href="#rim"/>
    <path pointer-events="none" fill="none" stroke="white" stroke-width="1.5" d="M0,-3.0v7 M-2.5,-0.5L0,-3.0L2.5,-0.5"/>
  </g>
  <g id="arrowLeft" transform="rotate(270) translate(-36 17)">
    <use xlink:href="#rim"/>
    <path pointer-events="none" fill="none" stroke="white" stroke-width="1.5" d="M0,-3.0v7 M-2.5,-0.5L0,-3.0L2.5,-0.5"/>
  </g>
  <g id="resetDef">
    <use xlink:href="#rim2" fill="#404040"><set attributeName="fill" to="#808080" begin="reset.mouseover" end="reset.mouseout"/></use>
  </g>
</defs>
<script type="application/ecmascript">
var viewWidth = 171;
var viewHeight = 464;
var sectionId = 'dynsection-0';
</script>
<script type="application/ecmascript" xlink:href="svg.min.js"/>
<svg id="graph" class="graph">
<g id="viewport">
<title>CodeSmile.Statemachine.Netcode.Conditions.IsNotNetcodeRole</title>
<!-- Node1 -->
<g id="Node000001" class="node">
<title>Node1</title>
<g id="a_Node000001"><a xlink:title="Is true if the Netcode variable&#39;s role does not match the parameter.">
<polygon fill="#999999" stroke="none" points="163,-96 0,-96 0,0 163,0 163,-96"/>
<text text-anchor="start" x="4.62" y="-82.5" font-family="Helvetica,sans-Serif" font-size="10.00">CodeSmile.Statemachine.Netcode.</text>
<text text-anchor="start" x="16.25" y="-70.5" font-family="Helvetica,sans-Serif" font-size="10.00">Conditions.IsNotNetcodeRole</text>
<text text-anchor="start" x="80" y="-54.5" font-family="Helvetica,sans-Serif" font-size="10.00"> </text>
<text text-anchor="start" x="18.5" y="-38.5" font-family="Helvetica,sans-Serif" font-size="10.00">+</text>
<text text-anchor="start" x="43" y="-38.5" font-family="Helvetica,sans-Serif" font-size="10.00">IsNotNetcodeRole()</text>
<text text-anchor="start" x="18.5" y="-22.5" font-family="Helvetica,sans-Serif" font-size="10.00">+</text>
<text text-anchor="start" x="43" y="-22.5" font-family="Helvetica,sans-Serif" font-size="10.00">IsSatisfied()</text>
<text text-anchor="start" x="18.5" y="-6.5" font-family="Helvetica,sans-Serif" font-size="10.00">+</text>
<text text-anchor="start" x="43" y="-6.5" font-family="Helvetica,sans-Serif" font-size="10.00">ToDebugString()</text>
<polygon fill="#666666" stroke="#666666" points="0,-66 0,-66 163,-66 163,-66 0,-66"/>
<polygon fill="#666666" stroke="#666666" points="0,-50 0,-50 163,-50 163,-50 0,-50"/>
<polygon fill="none" stroke="#666666" points="0,0 0,-96 163,-96 163,0 0,0"/>
</a>
</g>
</g>
<!-- Node2 -->
<g id="Node000002" class="node">
<title>Node2</title>
<g id="a_Node000002"><a xlink:href="class_code_smile_1_1_statemachine_1_1_netcode_1_1_conditions_1_1_is_netcode_role.html" target="_top" xlink:title="Tests if the config variable&#39;s NetcodeRole matches the parameter.">
<polygon fill="white" stroke="none" points="126,-216 37,-216 37,-132 126,-132 126,-216"/>
<text text-anchor="start" x="48.88" y="-202.5" font-family="Helvetica,sans-Serif" font-size="10.00">IsNetcodeRole</text>
<text text-anchor="start" x="41.38" y="-186.5" font-family="Helvetica,sans-Serif" font-size="10.00">#</text>
<text text-anchor="start" x="51" y="-186.5" font-family="Helvetica,sans-Serif" font-size="10.00">m_Role</text>
<text text-anchor="start" x="41" y="-170.5" font-family="Helvetica,sans-Serif" font-size="10.00">+</text>
<text text-anchor="start" x="51" y="-170.5" font-family="Helvetica,sans-Serif" font-size="10.00">IsNetcodeRole()</text>
<text text-anchor="start" x="41" y="-154.5" font-family="Helvetica,sans-Serif" font-size="10.00">+</text>
<text text-anchor="start" x="51" y="-154.5" font-family="Helvetica,sans-Serif" font-size="10.00">IsSatisfied()</text>
<text text-anchor="start" x="41" y="-138.5" font-family="Helvetica,sans-Serif" font-size="10.00">+</text>
<text text-anchor="start" x="51" y="-138.5" font-family="Helvetica,sans-Serif" font-size="10.00">ToDebugString()</text>
<polygon fill="#666666" stroke="#666666" points="37,-198 37,-198 126,-198 126,-198 37,-198"/>
<polygon fill="#666666" stroke="#666666" points="37,-182 37,-182 49,-182 49,-182 37,-182"/>
<polygon fill="#666666" stroke="#666666" points="49,-182 49,-182 126,-182 126,-182 49,-182"/>
<polygon fill="none" stroke="#666666" points="37,-132 37,-216 126,-216 126,-132 37,-132"/>
</a>
</g>
</g>
<!-- Node2&#45;&gt;Node1 -->
<g id="edge1_Node000001_Node000002" class="edge">
<title>Node2&#45;&gt;Node1</title>
<g id="a_edge1_Node000001_Node000002"><a xlink:title=" ">
<path fill="none" stroke="#63b8ff" d="M81.5,-120.66C81.5,-112.44 81.5,-104 81.5,-95.91"/>
<polygon fill="none" stroke="#63b8ff" points="78,-120.54 81.5,-130.54 85,-120.54 78,-120.54"/>
</a>
</g>
</g>
<!-- Node3 -->
<g id="Node000003" class="node">
<title>Node3</title>
<g id="a_Node000003"><a xlink:href="interface_code_smile_1_1_statemachine_1_1_i_condition.html" target="_top" xlink:title="Marks a class as a FSM Condition.">
<polygon fill="white" stroke="none" points="125.5,-320 37.5,-320 37.5,-252 125.5,-252 125.5,-320"/>
<text text-anchor="start" x="59.38" y="-306.5" font-family="Helvetica,sans-Serif" font-size="10.00">ICondition</text>
<text text-anchor="start" x="80" y="-290.5" font-family="Helvetica,sans-Serif" font-size="10.00"> </text>
<text text-anchor="start" x="41.5" y="-274.5" font-family="Helvetica,sans-Serif" font-size="10.00">+</text>
<text text-anchor="start" x="51.5" y="-274.5" font-family="Helvetica,sans-Serif" font-size="10.00">IsSatisfied()</text>
<text text-anchor="start" x="41.5" y="-258.5" font-family="Helvetica,sans-Serif" font-size="10.00">+</text>
<text text-anchor="start" x="51.5" y="-258.5" font-family="Helvetica,sans-Serif" font-size="10.00">ToDebugString()</text>
<polygon fill="#666666" stroke="#666666" points="37.5,-302 37.5,-302 125.5,-302 125.5,-302 37.5,-302"/>
<polygon fill="#666666" stroke="#666666" points="37.5,-286 37.5,-286 125.5,-286 125.5,-286 37.5,-286"/>
<polygon fill="none" stroke="#666666" points="37.5,-252 37.5,-320 125.5,-320 125.5,-252 37.5,-252"/>
</a>
</g>
</g>
<!-- Node3&#45;&gt;Node2 -->
<g id="edge2_Node000002_Node000003" class="edge">
<title>Node3&#45;&gt;Node2</title>
<g id="a_edge2_Node000002_Node000003"><a xlink:title=" ">
<path fill="none" stroke="#63b8ff" d="M81.5,-240.95C81.5,-232.7 81.5,-224.12 81.5,-215.97"/>
<polygon fill="none" stroke="#63b8ff" points="78,-240.78 81.5,-250.78 85,-240.78 78,-240.78"/>
</a>
</g>
</g>
<!-- Node4 -->
<g id="Node000004" class="node">
<title>Node4</title>
<g id="a_Node000004"><a xlink:href="interface_code_smile_1_1_statemachine_1_1_i_statemachine_events.html" target="_top" xlink:title="Event methods that the Statemachine calls at specific times.">
<polygon fill="white" stroke="none" points="133,-456 30,-456 30,-356 133,-356 133,-456"/>
<text text-anchor="start" x="34.62" y="-442.5" font-family="Helvetica,sans-Serif" font-size="10.00">IStatemachineEvents</text>
<text text-anchor="start" x="80" y="-426.5" font-family="Helvetica,sans-Serif" font-size="10.00"> </text>
<text text-anchor="start" x="39" y="-410.5" font-family="Helvetica,sans-Serif" font-size="10.00">+</text>
<text text-anchor="start" x="54" y="-410.5" font-family="Helvetica,sans-Serif" font-size="10.00">OnStart()</text>
<text text-anchor="start" x="39" y="-394.5" font-family="Helvetica,sans-Serif" font-size="10.00">+</text>
<text text-anchor="start" x="54" y="-394.5" font-family="Helvetica,sans-Serif" font-size="10.00">OnStop()</text>
<text text-anchor="start" x="39" y="-378.5" font-family="Helvetica,sans-Serif" font-size="10.00">+</text>
<text text-anchor="start" x="54" y="-378.5" font-family="Helvetica,sans-Serif" font-size="10.00">OnEnterState()</text>
<text text-anchor="start" x="39" y="-362.5" font-family="Helvetica,sans-Serif" font-size="10.00">+</text>
<text text-anchor="start" x="54" y="-362.5" font-family="Helvetica,sans-Serif" font-size="10.00">OnExitState()</text>
<polygon fill="#666666" stroke="#666666" points="30,-438 30,-438 133,-438 133,-438 30,-438"/>
<polygon fill="#666666" stroke="#666666" points="30,-422 30,-422 133,-422 133,-422 30,-422"/>
<polygon fill="none" stroke="#666666" points="30,-356 30,-456 133,-456 133,-356 30,-356"/>
</a>
</g>
</g>
<!-- Node4&#45;&gt;Node3 -->
<g id="edge3_Node000003_Node000004" class="edge">
<title>Node4&#45;&gt;Node3</title>
<g id="a_edge3_Node000003_Node000004"><a xlink:title=" ">
<path fill="none" stroke="#63b8ff" d="M81.5,-344.96C81.5,-336.28 81.5,-327.62 81.5,-319.75"/>
<polygon fill="none" stroke="#63b8ff" points="78,-344.81 81.5,-354.81 85,-344.81 78,-344.81"/>
</a>
</g>
</g>
</g>
</svg>

<g id="navigator" transform="translate(0 0)" fill="#404254">
  <rect fill="#f2f5e9" fill-opacity="0.5" stroke="#606060" stroke-width=".5" x="0" y="0" width="60" height="60"/>
  <use id="zoomplus" xlink:href="#zoomPlus" x="17" y="9" onmousedown="handleZoom(evt,'in')"/>
  <use id="zoomminus" xlink:href="#zoomMin" x="42" y="9" onmousedown="handleZoom(evt,'out')"/>
  <use id="reset" xlink:href="#resetDef" x="30" y="36" onmousedown="handleReset()"/>
   <use id="arrowup" xlink:href="#arrowUp" x="0" y="0" onmousedown="handlePan(0,-1)"/>
  <use id="arrowright" xlink:href="#arrowRight" x="0" y="0" onmousedown="handlePan(1,0)"/>
  <use id="arrowdown" xlink:href="#arrowDown" x="0" y="0" onmousedown="handlePan(0,1)"/>
  <use id="arrowleft" xlink:href="#arrowLeft" x="0" y="0" onmousedown="handlePan(-1,0)"/>
</g>
<svg viewBox="0 0 15 15" width="100%" height="30px" preserveAspectRatio="xMaxYMin meet">
 <g id="arrow_out" transform="scale(0.3 0.3)">
  <a xlink:href="class_code_smile_1_1_statemachine_1_1_netcode_1_1_conditions_1_1_is_not_netcode_role__inherit__graph_org.svg" target="_base">
   <rect id="button" ry="5" rx="5" y="6" x="6" height="38" width="38"
        fill="#f2f5e9" fill-opacity="0.5" stroke="#606060" stroke-width="1.0"/>
   <path id="arrow"
     d="M 11.500037,31.436501 C 11.940474,20.09759 22.043105,11.32322 32.158766,21.979434 L 37.068811,17.246167 C 37.068811,17.246167 37.088388,32 37.088388,32 L 22.160133,31.978069 C 22.160133,31.978069 26.997745,27.140456 26.997745,27.140456 C 18.528582,18.264221 13.291696,25.230495 11.500037,31.436501 z"
     style="fill:#404040;"/>
  </a>
 </g>
</svg>

<style type='text/css'>
<![CDATA[
[data-mouse-over-selected='false'] { opacity: 0.7; }
[data-mouse-over-selected='true']  { opacity: 1.0; }
]]>
</style>
<script type="application/ecmascript"><![CDATA[
document.addEventListener('DOMContentLoaded', (event) => {
  highlightEdges();
  highlightAdjacentNodes();
});
]]></script>
</svg>
