<?xml version="1.0" encoding="UTF-8" standalone="no"?>
<!DOCTYPE svg PUBLIC "-//W3C//DTD SVG 1.1//EN"
 "http://www.w3.org/Graphics/SVG/1.1/DTD/svg11.dtd">
<!-- Generated by graphviz version 12.1.2 (20240928.0832)
 -->
<!-- Title: CodeSmile.Utility.SceneReference Pages: 1 -->
<svg width="169pt" height="324pt"
 viewBox="0.00 0.00 169.00 324.00" xmlns="http://www.w3.org/2000/svg" xmlns:xlink="http://www.w3.org/1999/xlink">
<g id="graph0" class="graph" transform="scale(1 1) rotate(0) translate(4 320)">
<title>CodeSmile.Utility.SceneReference</title>
<!-- Node1 -->
<g id="Node000001" class="node">
<title>Node1</title>
<g id="a_Node000001"><a xlink:title="Represents a SceneAsset at runtime by serializing only the scene name and path at runtime,...">
<polygon fill="#999999" stroke="none" points="161,-228 0,-228 0,0 161,0 161,-228"/>
<text text-anchor="start" x="4.75" y="-214.5" font-family="Helvetica,sans-Serif" font-size="10.00">CodeSmile.Utility.SceneReference</text>
<text text-anchor="start" x="20" y="-198.5" font-family="Helvetica,sans-Serif" font-size="10.00">+</text>
<text text-anchor="start" x="46" y="-198.5" font-family="Helvetica,sans-Serif" font-size="10.00">SceneName</text>
<text text-anchor="start" x="20" y="-182.5" font-family="Helvetica,sans-Serif" font-size="10.00">+</text>
<text text-anchor="start" x="46" y="-182.5" font-family="Helvetica,sans-Serif" font-size="10.00">ScenePath</text>
<text text-anchor="start" x="20" y="-166.5" font-family="Helvetica,sans-Serif" font-size="10.00">+</text>
<text text-anchor="start" x="46" y="-166.5" font-family="Helvetica,sans-Serif" font-size="10.00">RuntimeScene</text>
<text text-anchor="start" x="20" y="-150.5" font-family="Helvetica,sans-Serif" font-size="10.00">+</text>
<text text-anchor="start" x="46" y="-150.5" font-family="Helvetica,sans-Serif" font-size="10.00">IsValid</text>
<text text-anchor="start" x="20" y="-134.5" font-family="Helvetica,sans-Serif" font-size="10.00">+</text>
<text text-anchor="start" x="46" y="-134.5" font-family="Helvetica,sans-Serif" font-size="10.00">SceneReference()</text>
<text text-anchor="start" x="20" y="-118.5" font-family="Helvetica,sans-Serif" font-size="10.00">+</text>
<text text-anchor="start" x="46" y="-118.5" font-family="Helvetica,sans-Serif" font-size="10.00">SceneReference()</text>
<text text-anchor="start" x="20" y="-102.5" font-family="Helvetica,sans-Serif" font-size="10.00">+</text>
<text text-anchor="start" x="46" y="-102.5" font-family="Helvetica,sans-Serif" font-size="10.00">Equals()</text>
<text text-anchor="start" x="20" y="-86.5" font-family="Helvetica,sans-Serif" font-size="10.00">+</text>
<text text-anchor="start" x="46" y="-86.5" font-family="Helvetica,sans-Serif" font-size="10.00">OnValidate()</text>
<text text-anchor="start" x="20" y="-70.5" font-family="Helvetica,sans-Serif" font-size="10.00">+</text>
<text text-anchor="start" x="46" y="-70.5" font-family="Helvetica,sans-Serif" font-size="10.00">ToString()</text>
<text text-anchor="start" x="20" y="-54.5" font-family="Helvetica,sans-Serif" font-size="10.00">+</text>
<text text-anchor="start" x="46" y="-54.5" font-family="Helvetica,sans-Serif" font-size="10.00">Equals()</text>
<text text-anchor="start" x="20" y="-38.5" font-family="Helvetica,sans-Serif" font-size="10.00">+</text>
<text text-anchor="start" x="46" y="-38.5" font-family="Helvetica,sans-Serif" font-size="10.00">GetHashCode()</text>
<text text-anchor="start" x="20" y="-22.5" font-family="Helvetica,sans-Serif" font-size="10.00">+</text>
<text text-anchor="start" x="46" y="-22.5" font-family="Helvetica,sans-Serif" font-size="10.00">operator==()</text>
<text text-anchor="start" x="20" y="-6.5" font-family="Helvetica,sans-Serif" font-size="10.00">+</text>
<text text-anchor="start" x="46" y="-6.5" font-family="Helvetica,sans-Serif" font-size="10.00">operator!=()</text>
<polygon fill="#666666" stroke="#666666" points="0,-210 0,-210 161,-210 161,-210 0,-210"/>
<polygon fill="#666666" stroke="#666666" points="0,-146 0,-146 44,-146 44,-146 0,-146"/>
<polygon fill="#666666" stroke="#666666" points="44,-146 44,-146 161,-146 161,-146 44,-146"/>
<polygon fill="none" stroke="#666666" points="0,0 0,-228 161,-228 161,0 0,0"/>
</a>
</g>
</g>
<!-- Node2 -->
<g id="Node000002" class="node">
<title>Node2</title>
<g id="a_Node000002"><a xlink:href="class_i_equatable.html" target="_top" xlink:title=" ">
<polygon fill="white" stroke="none" points="154,-316 7,-316 7,-264 154,-264 154,-316"/>
<text text-anchor="start" x="11.88" y="-302.5" font-family="Helvetica,sans-Serif" font-size="10.00">IEquatable&lt; SceneReference &gt;</text>
<text text-anchor="start" x="79" y="-286.5" font-family="Helvetica,sans-Serif" font-size="10.00"> </text>
<text text-anchor="start" x="79" y="-270.5" font-family="Helvetica,sans-Serif" font-size="10.00"> </text>
<polygon fill="#666666" stroke="#666666" points="7,-298 7,-298 154,-298 154,-298 7,-298"/>
<polygon fill="#666666" stroke="#666666" points="7,-282 7,-282 154,-282 154,-282 7,-282"/>
<polygon fill="none" stroke="#666666" points="7,-264 7,-316 154,-316 154,-264 7,-264"/>
</a>
</g>
</g>
<!-- Node2&#45;&gt;Node1 -->
<g id="edge1_Node000001_Node000002" class="edge">
<title>Node2&#45;&gt;Node1</title>
<g id="a_edge1_Node000001_Node000002"><a xlink:title=" ">
<path fill="none" stroke="#63b8ff" d="M80.5,-252.72C80.5,-245.03 80.5,-236.53 80.5,-227.64"/>
<polygon fill="none" stroke="#63b8ff" points="77,-252.56 80.5,-262.56 84,-252.56 77,-252.56"/>
</a>
</g>
</g>
</g>
</svg>
