<?xml version="1.0" encoding="UTF-8" standalone="no"?>
<!DOCTYPE svg PUBLIC "-//W3C//DTD SVG 1.1//EN"
 "http://www.w3.org/Graphics/SVG/1.1/DTD/svg11.dtd">
<!-- Generated by graphviz version 12.1.2 (20240928.0832)
 -->
<!-- Title: CodeSmile.Components.Registry.ComponentsRegistry Pages: 1 -->
<svg width="166pt" height="192pt"
 viewBox="0.00 0.00 166.00 192.00" xmlns="http://www.w3.org/2000/svg" xmlns:xlink="http://www.w3.org/1999/xlink">
<g id="graph0" class="graph" transform="scale(1 1) rotate(0) translate(4 188)">
<title>CodeSmile.Components.Registry.ComponentsRegistry</title>
<!-- Node1 -->
<g id="Node000001" class="node">
<title>Node1</title>
<g id="a_Node000001"><a xlink:title="Keeps references to components by type to avoid making each individual type a singleton of its own.">
<polygon fill="#999999" stroke="none" points="158,-96 0,-96 0,0 158,0 158,-96"/>
<text text-anchor="start" x="4.75" y="-82.5" font-family="Helvetica,sans-Serif" font-size="10.00">CodeSmile.Components.Registry.</text>
<text text-anchor="start" x="32.88" y="-70.5" font-family="Helvetica,sans-Serif" font-size="10.00">ComponentsRegistry</text>
<text text-anchor="start" x="77.5" y="-54.5" font-family="Helvetica,sans-Serif" font-size="10.00"> </text>
<text text-anchor="start" x="21" y="-38.5" font-family="Helvetica,sans-Serif" font-size="10.00">+</text>
<text text-anchor="start" x="48" y="-38.5" font-family="Helvetica,sans-Serif" font-size="10.00">Get&lt; T &gt;()</text>
<text text-anchor="start" x="21" y="-22.5" font-family="Helvetica,sans-Serif" font-size="10.00">+</text>
<text text-anchor="start" x="48" y="-22.5" font-family="Helvetica,sans-Serif" font-size="10.00">GetAsync&lt; T &gt;()</text>
<text text-anchor="start" x="21" y="-6.5" font-family="Helvetica,sans-Serif" font-size="10.00">+</text>
<text text-anchor="start" x="48" y="-6.5" font-family="Helvetica,sans-Serif" font-size="10.00">Set&lt; T &gt;()</text>
<polygon fill="#666666" stroke="#666666" points="0,-66 0,-66 158,-66 158,-66 0,-66"/>
<polygon fill="#666666" stroke="#666666" points="0,-50 0,-50 158,-50 158,-50 0,-50"/>
<polygon fill="none" stroke="#666666" points="0,0 0,-96 158,-96 158,0 0,0"/>
</a>
</g>
</g>
<!-- Node2 -->
<g id="Node000002" class="node">
<title>Node2</title>
<g id="a_Node000002"><a xlink:href="class_mono_behaviour.html" target="_top" xlink:title=" ">
<polygon fill="white" stroke="none" points="117.5,-184 40.5,-184 40.5,-132 117.5,-132 117.5,-184"/>
<text text-anchor="start" x="45.25" y="-170.5" font-family="Helvetica,sans-Serif" font-size="10.00">MonoBehaviour</text>
<text text-anchor="start" x="77.5" y="-154.5" font-family="Helvetica,sans-Serif" font-size="10.00"> </text>
<text text-anchor="start" x="77.5" y="-138.5" font-family="Helvetica,sans-Serif" font-size="10.00"> </text>
<polygon fill="#666666" stroke="#666666" points="40.5,-166 40.5,-166 117.5,-166 117.5,-166 40.5,-166"/>
<polygon fill="#666666" stroke="#666666" points="40.5,-150 40.5,-150 117.5,-150 117.5,-150 40.5,-150"/>
<polygon fill="none" stroke="#666666" points="40.5,-132 40.5,-184 117.5,-184 117.5,-132 40.5,-132"/>
</a>
</g>
</g>
<!-- Node2&#45;&gt;Node1 -->
<g id="edge1_Node000001_Node000002" class="edge">
<title>Node2&#45;&gt;Node1</title>
<g id="a_edge1_Node000001_Node000002"><a xlink:title=" ">
<path fill="none" stroke="#63b8ff" d="M79,-120.93C79,-112.86 79,-104.19 79,-95.75"/>
<polygon fill="none" stroke="#63b8ff" points="75.5,-120.71 79,-130.71 82.5,-120.71 75.5,-120.71"/>
</a>
</g>
</g>
</g>
</svg>
