<?xml version="1.0" encoding="UTF-8" standalone="no"?>
<!DOCTYPE svg PUBLIC "-//W3C//DTD SVG 1.1//EN"
 "http://www.w3.org/Graphics/SVG/1.1/DTD/svg11.dtd">
<!-- Generated by graphviz version 12.1.2 (20240928.0832)
 -->
<!-- Title: CodeSmile.MultiPal.Settings.PrefabsListBase Pages: 1 -->
<svg width="458pt" height="320pt"
 viewBox="0.00 0.00 458.00 320.00" xmlns="http://www.w3.org/2000/svg" xmlns:xlink="http://www.w3.org/1999/xlink">
<g id="graph0" class="graph" transform="scale(1 1) rotate(0) translate(4 316)">
<title>CodeSmile.MultiPal.Settings.PrefabsListBase</title>
<!-- Node1 -->
<g id="Node000001" class="node">
<title>Node1</title>
<g id="a_Node000001"><a xlink:title=" ">
<polygon fill="#999999" stroke="none" points="304.5,-224 145.5,-224 145.5,-100 304.5,-100 304.5,-224"/>
<text text-anchor="start" x="160.88" y="-210.5" font-family="Helvetica,sans-Serif" font-size="10.00">CodeSmile.MultiPal.Settings.</text>
<text text-anchor="start" x="189" y="-198.5" font-family="Helvetica,sans-Serif" font-size="10.00">PrefabsListBase</text>
<text text-anchor="start" x="149.5" y="-182.5" font-family="Helvetica,sans-Serif" font-size="10.00">+</text>
<text text-anchor="start" x="159.5" y="-182.5" font-family="Helvetica,sans-Serif" font-size="10.00">this[Int32 index]</text>
<text text-anchor="start" x="149.5" y="-166.5" font-family="Helvetica,sans-Serif" font-size="10.00">+</text>
<text text-anchor="start" x="159.5" y="-166.5" font-family="Helvetica,sans-Serif" font-size="10.00">Count</text>
<text text-anchor="start" x="149.88" y="-150.5" font-family="Helvetica,sans-Serif" font-size="10.00">#</text>
<text text-anchor="start" x="159.5" y="-150.5" font-family="Helvetica,sans-Serif" font-size="10.00">m_Prefabs</text>
<text text-anchor="start" x="149.5" y="-134.5" font-family="Helvetica,sans-Serif" font-size="10.00">+</text>
<text text-anchor="start" x="159.5" y="-134.5" font-family="Helvetica,sans-Serif" font-size="10.00">GetEnumerator()</text>
<text text-anchor="start" x="149.5" y="-118.5" font-family="Helvetica,sans-Serif" font-size="10.00">+</text>
<text text-anchor="start" x="159.5" y="-118.5" font-family="Helvetica,sans-Serif" font-size="10.00">ValidatePrefabsHaveComponent</text>
<text text-anchor="start" x="159.5" y="-106.5" font-family="Helvetica,sans-Serif" font-size="10.00">&lt; T &gt;()</text>
<polygon fill="#666666" stroke="#666666" points="145.5,-194 145.5,-194 304.5,-194 304.5,-194 145.5,-194"/>
<polygon fill="#666666" stroke="#666666" points="145.5,-146 145.5,-146 157.5,-146 157.5,-146 145.5,-146"/>
<polygon fill="#666666" stroke="#666666" points="157.5,-146 157.5,-146 304.5,-146 304.5,-146 157.5,-146"/>
<polygon fill="none" stroke="#666666" points="145.5,-100 145.5,-224 304.5,-224 304.5,-100 145.5,-100"/>
</a>
</g>
</g>
<!-- Node4 -->
<g id="Node000004" class="node">
<title>Node4</title>
<g id="a_Node000004"><a xlink:href="class_code_smile_1_1_multi_pal_1_1_settings_1_1_player_avatar_prefabs.html" target="_top" xlink:title=" ">
<polygon fill="white" stroke="none" points="138,-64 0,-64 0,0 138,0 138,-64"/>
<text text-anchor="start" x="4.88" y="-50.5" font-family="Helvetica,sans-Serif" font-size="10.00">CodeSmile.MultiPal.Settings.</text>
<text text-anchor="start" x="24" y="-38.5" font-family="Helvetica,sans-Serif" font-size="10.00">PlayerAvatarPrefabs</text>
<text text-anchor="start" x="67.5" y="-22.5" font-family="Helvetica,sans-Serif" font-size="10.00"> </text>
<text text-anchor="start" x="67.5" y="-6.5" font-family="Helvetica,sans-Serif" font-size="10.00"> </text>
<polygon fill="#666666" stroke="#666666" points="0,-34 0,-34 138,-34 138,-34 0,-34"/>
<polygon fill="#666666" stroke="#666666" points="0,-18 0,-18 138,-18 138,-18 0,-18"/>
<polygon fill="none" stroke="#666666" points="0,0 0,-64 138,-64 138,0 0,0"/>
</a>
</g>
</g>
<!-- Node1&#45;&gt;Node4 -->
<g id="edge3_Node000001_Node000004" class="edge">
<title>Node1&#45;&gt;Node4</title>
<g id="a_edge3_Node000001_Node000004"><a xlink:title=" ">
<path fill="none" stroke="#63b8ff" d="M142.42,-93.24C129.88,-82.96 117.51,-72.8 106.59,-63.84"/>
<polygon fill="none" stroke="#63b8ff" points="139.99,-95.78 149.94,-99.41 144.43,-90.36 139.99,-95.78"/>
</a>
</g>
</g>
<!-- Node5 -->
<g id="Node000005" class="node">
<title>Node5</title>
<g id="a_Node000005"><a xlink:href="class_code_smile_1_1_multi_pal_1_1_settings_1_1_player_camera_prefabs.html" target="_top" xlink:title=" ">
<polygon fill="white" stroke="none" points="294,-64 156,-64 156,0 294,0 294,-64"/>
<text text-anchor="start" x="160.88" y="-50.5" font-family="Helvetica,sans-Serif" font-size="10.00">CodeSmile.MultiPal.Settings.</text>
<text text-anchor="start" x="177" y="-38.5" font-family="Helvetica,sans-Serif" font-size="10.00">PlayerCameraPrefabs</text>
<text text-anchor="start" x="223.5" y="-22.5" font-family="Helvetica,sans-Serif" font-size="10.00"> </text>
<text text-anchor="start" x="223.5" y="-6.5" font-family="Helvetica,sans-Serif" font-size="10.00"> </text>
<polygon fill="#666666" stroke="#666666" points="156,-34 156,-34 294,-34 294,-34 156,-34"/>
<polygon fill="#666666" stroke="#666666" points="156,-18 156,-18 294,-18 294,-18 156,-18"/>
<polygon fill="none" stroke="#666666" points="156,0 156,-64 294,-64 294,0 156,0"/>
</a>
</g>
</g>
<!-- Node1&#45;&gt;Node5 -->
<g id="edge4_Node000001_Node000005" class="edge">
<title>Node1&#45;&gt;Node5</title>
<g id="a_edge4_Node000001_Node000005"><a xlink:title=" ">
<path fill="none" stroke="#63b8ff" d="M225,-89.1C225,-80.24 225,-71.59 225,-63.84"/>
<polygon fill="none" stroke="#63b8ff" points="221.5,-88.86 225,-98.86 228.5,-88.86 221.5,-88.86"/>
</a>
</g>
</g>
<!-- Node6 -->
<g id="Node000006" class="node">
<title>Node6</title>
<g id="a_Node000006"><a xlink:href="class_code_smile_1_1_multi_pal_1_1_settings_1_1_player_controller_prefabs.html" target="_top" xlink:title=" ">
<polygon fill="white" stroke="none" points="450,-64 312,-64 312,0 450,0 450,-64"/>
<text text-anchor="start" x="316.88" y="-50.5" font-family="Helvetica,sans-Serif" font-size="10.00">CodeSmile.MultiPal.Settings.</text>
<text text-anchor="start" x="329.25" y="-38.5" font-family="Helvetica,sans-Serif" font-size="10.00">PlayerControllerPrefabs</text>
<text text-anchor="start" x="379.5" y="-22.5" font-family="Helvetica,sans-Serif" font-size="10.00"> </text>
<text text-anchor="start" x="379.5" y="-6.5" font-family="Helvetica,sans-Serif" font-size="10.00"> </text>
<polygon fill="#666666" stroke="#666666" points="312,-34 312,-34 450,-34 450,-34 312,-34"/>
<polygon fill="#666666" stroke="#666666" points="312,-18 312,-18 450,-18 450,-18 312,-18"/>
<polygon fill="none" stroke="#666666" points="312,0 312,-64 450,-64 450,0 312,0"/>
</a>
</g>
</g>
<!-- Node1&#45;&gt;Node6 -->
<g id="edge5_Node000001_Node000006" class="edge">
<title>Node1&#45;&gt;Node6</title>
<g id="a_edge5_Node000001_Node000006"><a xlink:title=" ">
<path fill="none" stroke="#63b8ff" d="M307.58,-93.24C320.12,-82.96 332.49,-72.8 343.41,-63.84"/>
<polygon fill="none" stroke="#63b8ff" points="305.57,-90.36 300.06,-99.41 310.01,-95.78 305.57,-90.36"/>
</a>
</g>
</g>
<!-- Node2 -->
<g id="Node000002" class="node">
<title>Node2</title>
<g id="a_Node000002"><a xlink:href="class_scriptable_object.html" target="_top" xlink:title=" ">
<polygon fill="white" stroke="none" points="221,-312 139,-312 139,-260 221,-260 221,-312"/>
<text text-anchor="start" x="144" y="-298.5" font-family="Helvetica,sans-Serif" font-size="10.00">ScriptableObject</text>
<text text-anchor="start" x="178.5" y="-282.5" font-family="Helvetica,sans-Serif" font-size="10.00"> </text>
<text text-anchor="start" x="178.5" y="-266.5" font-family="Helvetica,sans-Serif" font-size="10.00"> </text>
<polygon fill="#666666" stroke="#666666" points="139,-294 139,-294 221,-294 221,-294 139,-294"/>
<polygon fill="#666666" stroke="#666666" points="139,-278 139,-278 221,-278 221,-278 139,-278"/>
<polygon fill="none" stroke="#666666" points="139,-260 139,-312 221,-312 221,-260 139,-260"/>
</a>
</g>
</g>
<!-- Node2&#45;&gt;Node1 -->
<g id="edge1_Node000001_Node000002" class="edge">
<title>Node2&#45;&gt;Node1</title>
<g id="a_edge1_Node000001_Node000002"><a xlink:title=" ">
<path fill="none" stroke="#63b8ff" d="M193.17,-249.29C196.11,-241.32 199.31,-232.65 202.51,-223.98"/>
<polygon fill="none" stroke="#63b8ff" points="189.92,-248 189.74,-258.6 196.48,-250.43 189.92,-248"/>
</a>
</g>
</g>
<!-- Node3 -->
<g id="Node000003" class="node">
<title>Node3</title>
<g id="a_Node000003"><a xlink:href="class_i_enumerable.html" target="_top" xlink:title=" ">
<polygon fill="white" stroke="none" points="303,-312 239,-312 239,-260 303,-260 303,-312"/>
<text text-anchor="start" x="243.62" y="-298.5" font-family="Helvetica,sans-Serif" font-size="10.00">IEnumerable</text>
<text text-anchor="start" x="269.5" y="-282.5" font-family="Helvetica,sans-Serif" font-size="10.00"> </text>
<text text-anchor="start" x="269.5" y="-266.5" font-family="Helvetica,sans-Serif" font-size="10.00"> </text>
<polygon fill="#666666" stroke="#666666" points="239,-294 239,-294 303,-294 303,-294 239,-294"/>
<polygon fill="#666666" stroke="#666666" points="239,-278 239,-278 303,-278 303,-278 239,-278"/>
<polygon fill="none" stroke="#666666" points="239,-260 239,-312 303,-312 303,-260 239,-260"/>
</a>
</g>
</g>
<!-- Node3&#45;&gt;Node1 -->
<g id="edge2_Node000001_Node000003" class="edge">
<title>Node3&#45;&gt;Node1</title>
<g id="a_edge2_Node000001_Node000003"><a xlink:title=" ">
<path fill="none" stroke="#63b8ff" d="M257.54,-249.29C254.53,-241.32 251.26,-232.65 247.99,-223.98"/>
<polygon fill="none" stroke="#63b8ff" points="254.24,-250.48 261.05,-258.6 260.79,-248.01 254.24,-250.48"/>
</a>
</g>
</g>
</g>
</svg>
