<?xml version="1.0" encoding="UTF-8" standalone="no"?>
<!DOCTYPE svg PUBLIC "-//W3C//DTD SVG 1.1//EN"
 "http://www.w3.org/Graphics/SVG/1.1/DTD/svg11.dtd">
<!-- Generated by graphviz version 12.1.2 (20240928.0832)
 -->
<!-- Title: PA1A.EventBus.EventBinding.EventBinding&lt; T &gt; Pages: 1 -->
<svg width="152pt" height="272pt"
 viewBox="0.00 0.00 152.00 272.00" xmlns="http://www.w3.org/2000/svg" xmlns:xlink="http://www.w3.org/1999/xlink">

<svg id="main" version="1.1" xmlns="http://www.w3.org/2000/svg" xmlns:xlink="http://www.w3.org/1999/xlink" xml:space="preserve">

<style type="text/css"><![CDATA[
.node, .edge {opacity: 0.7;}
.node.selected, .edge.selected {opacity: 1;}
.edge:hover path { stroke: red; }
.edge:hover polygon { stroke: red; fill: red; }
]]></style>
<script type="application/ecmascript" xlink:href="svg.min.js"/>
<svg id="graph" class="graph">
<g id="graph0" class="graph" transform="scale(1 1) rotate(0) translate(4 268)">
<title>PA1A.EventBus.EventBinding.EventBinding&lt; T &gt;</title>
<!-- Node1 -->
<g id="Node000001" class="node">
<title>Node1</title>
<g id="a_Node000001"><a xlink:title=" ">
<polygon fill="#999999" stroke="none" points="144,-160 0,-160 0,0 144,0 144,-160"/>
<text text-anchor="start" x="4.88" y="-146.5" font-family="Helvetica,sans-Serif" font-size="10.00">PA1A.EventBus.EventBinding.</text>
<text text-anchor="start" x="31.5" y="-134.5" font-family="Helvetica,sans-Serif" font-size="10.00">EventBinding&lt; T &gt;</text>
<text text-anchor="start" x="17.5" y="-118.5" font-family="Helvetica,sans-Serif" font-size="10.00">+</text>
<text text-anchor="start" x="41" y="-118.5" font-family="Helvetica,sans-Serif" font-size="10.00">OnEvent</text>
<text text-anchor="start" x="17.5" y="-102.5" font-family="Helvetica,sans-Serif" font-size="10.00">+</text>
<text text-anchor="start" x="41" y="-102.5" font-family="Helvetica,sans-Serif" font-size="10.00">OnEventNoArgs</text>
<text text-anchor="start" x="17.5" y="-86.5" font-family="Helvetica,sans-Serif" font-size="10.00">+</text>
<text text-anchor="start" x="41" y="-86.5" font-family="Helvetica,sans-Serif" font-size="10.00">EventBinding()</text>
<text text-anchor="start" x="17.5" y="-70.5" font-family="Helvetica,sans-Serif" font-size="10.00">+</text>
<text text-anchor="start" x="41" y="-70.5" font-family="Helvetica,sans-Serif" font-size="10.00">EventBinding()</text>
<text text-anchor="start" x="17.5" y="-54.5" font-family="Helvetica,sans-Serif" font-size="10.00">+</text>
<text text-anchor="start" x="41" y="-54.5" font-family="Helvetica,sans-Serif" font-size="10.00">Add()</text>
<text text-anchor="start" x="17.5" y="-38.5" font-family="Helvetica,sans-Serif" font-size="10.00">+</text>
<text text-anchor="start" x="41" y="-38.5" font-family="Helvetica,sans-Serif" font-size="10.00">Remove()</text>
<text text-anchor="start" x="17.5" y="-22.5" font-family="Helvetica,sans-Serif" font-size="10.00">+</text>
<text text-anchor="start" x="41" y="-22.5" font-family="Helvetica,sans-Serif" font-size="10.00">Add()</text>
<text text-anchor="start" x="17.5" y="-6.5" font-family="Helvetica,sans-Serif" font-size="10.00">+</text>
<text text-anchor="start" x="41" y="-6.5" font-family="Helvetica,sans-Serif" font-size="10.00">Remove()</text>
<polygon fill="#666666" stroke="#666666" points="0,-130 0,-130 144,-130 144,-130 0,-130"/>
<polygon fill="#666666" stroke="#666666" points="0,-98 0,-98 39,-98 39,-98 0,-98"/>
<polygon fill="#666666" stroke="#666666" points="39,-98 39,-98 144,-98 144,-98 39,-98"/>
<polygon fill="none" stroke="#666666" points="0,0 0,-160 144,-160 144,0 0,0"/>
</a>
</g>
</g>
<!-- Node2 -->
<g id="Node000002" class="node">
<title>Node2</title>
<g id="a_Node000002"><a xlink:title=" ">
<polygon fill="white" stroke="none" points="119,-264 25,-264 25,-196 119,-196 119,-264"/>
<text text-anchor="start" x="30" y="-250.5" font-family="Helvetica,sans-Serif" font-size="10.00">IEventBinding&lt; T &gt;</text>
<text text-anchor="start" x="30" y="-234.5" font-family="Helvetica,sans-Serif" font-size="10.00">+</text>
<text text-anchor="start" x="41" y="-234.5" font-family="Helvetica,sans-Serif" font-size="10.00">OnEvent</text>
<text text-anchor="start" x="30" y="-218.5" font-family="Helvetica,sans-Serif" font-size="10.00">+</text>
<text text-anchor="start" x="41" y="-218.5" font-family="Helvetica,sans-Serif" font-size="10.00">OnEventNoArgs</text>
<text text-anchor="start" x="70.5" y="-202.5" font-family="Helvetica,sans-Serif" font-size="10.00"> </text>
<polygon fill="#666666" stroke="#666666" points="25,-246 25,-246 119,-246 119,-246 25,-246"/>
<polygon fill="#666666" stroke="#666666" points="25,-214 25,-214 39,-214 39,-214 25,-214"/>
<polygon fill="#666666" stroke="#666666" points="39,-214 39,-214 119,-214 119,-214 39,-214"/>
<polygon fill="none" stroke="#666666" points="25,-196 25,-264 119,-264 119,-196 25,-196"/>
</a>
</g>
</g>
<!-- Node2&#45;&gt;Node1 -->
<g id="edge1_Node000001_Node000002" class="edge">
<title>Node2&#45;&gt;Node1</title>
<g id="a_edge1_Node000001_Node000002"><a xlink:title=" ">
<path fill="none" stroke="#63b8ff" d="M72,-184.91C72,-176.93 72,-168.39 72,-159.77"/>
<polygon fill="none" stroke="#63b8ff" points="68.5,-184.64 72,-194.64 75.5,-184.64 68.5,-184.64"/>
</a>
</g>
</g>
</g>
</svg>
</svg>

<style type='text/css'>
<![CDATA[
[data-mouse-over-selected='false'] { opacity: 0.7; }
[data-mouse-over-selected='true']  { opacity: 1.0; }
]]>
</style>
<script type="application/ecmascript"><![CDATA[
document.addEventListener('DOMContentLoaded', (event) => {
  highlightEdges();
  highlightAdjacentNodes();
});
]]></script>
</svg>
