<?xml version="1.0" encoding="UTF-8" standalone="no"?>
<!DOCTYPE svg PUBLIC "-//W3C//DTD SVG 1.1//EN"
 "http://www.w3.org/Graphics/SVG/1.1/DTD/svg11.dtd">
<!-- Generated by graphviz version 12.1.2 (20240928.0832)
 -->
<!-- Title: NetworkSingleton&lt; T &gt; Pages: 1 -->
<svg width="118pt" height="164pt"
 viewBox="0.00 0.00 118.00 164.00" xmlns="http://www.w3.org/2000/svg" xmlns:xlink="http://www.w3.org/1999/xlink">
<g id="graph0" class="graph" transform="scale(1 1) rotate(0) translate(4 160)">
<title>NetworkSingleton&lt; T &gt;</title>
<!-- Node1 -->
<g id="Node000001" class="node">
<title>Node1</title>
<g id="a_Node000001"><a xlink:title="Represents a singleton network behaviour that can be accessed globally.">
<polygon fill="#999999" stroke="none" points="110,-68 0,-68 0,0 110,0 110,-68"/>
<text text-anchor="start" x="4.75" y="-54.5" font-family="Helvetica,sans-Serif" font-size="10.00">NetworkSingleton&lt; T &gt;</text>
<text text-anchor="start" x="13.5" y="-38.5" font-family="Helvetica,sans-Serif" font-size="10.00">+</text>
<text text-anchor="start" x="33" y="-38.5" font-family="Helvetica,sans-Serif" font-size="10.00">Instance</text>
<text text-anchor="start" x="13.5" y="-22.5" font-family="Helvetica,sans-Serif" font-size="10.00">+</text>
<text text-anchor="start" x="33" y="-22.5" font-family="Helvetica,sans-Serif" font-size="10.00">Awake()</text>
<text text-anchor="start" x="13.5" y="-6.5" font-family="Helvetica,sans-Serif" font-size="10.00">+</text>
<text text-anchor="start" x="33" y="-6.5" font-family="Helvetica,sans-Serif" font-size="10.00">OnDestroy()</text>
<polygon fill="#666666" stroke="#666666" points="0,-50 0,-50 110,-50 110,-50 0,-50"/>
<polygon fill="#666666" stroke="#666666" points="0,-34 0,-34 31,-34 31,-34 0,-34"/>
<polygon fill="#666666" stroke="#666666" points="31,-34 31,-34 110,-34 110,-34 31,-34"/>
<polygon fill="none" stroke="#666666" points="0,0 0,-68 110,-68 110,0 0,0"/>
</a>
</g>
</g>
<!-- Node2 -->
<g id="Node000002" class="node">
<title>Node2</title>
<g id="a_Node000002"><a xlink:href="class_network_behaviour.html" target="_top" xlink:title=" ">
<polygon fill="white" stroke="none" points="100,-156 10,-156 10,-104 100,-104 100,-156"/>
<text text-anchor="start" x="14.88" y="-142.5" font-family="Helvetica,sans-Serif" font-size="10.00">NetworkBehaviour</text>
<text text-anchor="start" x="53.5" y="-126.5" font-family="Helvetica,sans-Serif" font-size="10.00"> </text>
<text text-anchor="start" x="53.5" y="-110.5" font-family="Helvetica,sans-Serif" font-size="10.00"> </text>
<polygon fill="#666666" stroke="#666666" points="10,-138 10,-138 100,-138 100,-138 10,-138"/>
<polygon fill="#666666" stroke="#666666" points="10,-122 10,-122 100,-122 100,-122 10,-122"/>
<polygon fill="none" stroke="#666666" points="10,-104 10,-156 100,-156 100,-104 10,-104"/>
</a>
</g>
</g>
<!-- Node2&#45;&gt;Node1 -->
<g id="edge1_Node000001_Node000002" class="edge">
<title>Node2&#45;&gt;Node1</title>
<g id="a_edge1_Node000001_Node000002"><a xlink:title=" ">
<path fill="none" stroke="#63b8ff" d="M55,-92.97C55,-84.65 55,-75.84 55,-67.67"/>
<polygon fill="none" stroke="#63b8ff" points="51.5,-92.79 55,-102.79 58.5,-92.79 51.5,-92.79"/>
</a>
</g>
</g>
</g>
</svg>
