<?xml version="1.0" encoding="UTF-8" standalone="no"?>
<!DOCTYPE svg PUBLIC "-//W3C//DTD SVG 1.1//EN"
 "http://www.w3.org/Graphics/SVG/1.1/DTD/svg11.dtd">
<!-- Generated by graphviz version 12.1.2 (20240928.0832)
 -->
<!-- Title: CodeSmile.MultiPal.Input.GeneratedInput Pages: 1 -->
<svg width="198pt" height="496pt"
 viewBox="0.00 0.00 198.00 496.00" xmlns="http://www.w3.org/2000/svg" xmlns:xlink="http://www.w3.org/1999/xlink">
<g id="graph0" class="graph" transform="scale(1 1) rotate(0) translate(4 492)">
<title>CodeSmile.MultiPal.Input.GeneratedInput</title>
<!-- Node1 -->
<g id="Node000001" class="node">
<title>Node1</title>
<g id="a_Node000001"><a xlink:title=" ">
<polygon fill="#999999" stroke="none" points="169.5,-400 45.5,-400 45.5,0 169.5,0 169.5,-400"/>
<text text-anchor="start" x="50.5" y="-386.5" font-family="Helvetica,sans-Serif" font-size="10.00">CodeSmile.MultiPal.Input.</text>
<text text-anchor="start" x="74.12" y="-374.5" font-family="Helvetica,sans-Serif" font-size="10.00">GeneratedInput</text>
<text text-anchor="start" x="49.5" y="-358.5" font-family="Helvetica,sans-Serif" font-size="10.00">+</text>
<text text-anchor="start" x="59.5" y="-358.5" font-family="Helvetica,sans-Serif" font-size="10.00">asset</text>
<text text-anchor="start" x="49.5" y="-342.5" font-family="Helvetica,sans-Serif" font-size="10.00">+</text>
<text text-anchor="start" x="59.5" y="-342.5" font-family="Helvetica,sans-Serif" font-size="10.00">bindingMask</text>
<text text-anchor="start" x="49.5" y="-326.5" font-family="Helvetica,sans-Serif" font-size="10.00">+</text>
<text text-anchor="start" x="59.5" y="-326.5" font-family="Helvetica,sans-Serif" font-size="10.00">devices</text>
<text text-anchor="start" x="49.5" y="-310.5" font-family="Helvetica,sans-Serif" font-size="10.00">+</text>
<text text-anchor="start" x="59.5" y="-310.5" font-family="Helvetica,sans-Serif" font-size="10.00">controlSchemes</text>
<text text-anchor="start" x="49.5" y="-294.5" font-family="Helvetica,sans-Serif" font-size="10.00">+</text>
<text text-anchor="start" x="59.5" y="-294.5" font-family="Helvetica,sans-Serif" font-size="10.00">bindings</text>
<text text-anchor="start" x="49.5" y="-278.5" font-family="Helvetica,sans-Serif" font-size="10.00">+</text>
<text text-anchor="start" x="59.5" y="-278.5" font-family="Helvetica,sans-Serif" font-size="10.00">Pairing</text>
<text text-anchor="start" x="49.5" y="-262.5" font-family="Helvetica,sans-Serif" font-size="10.00">+</text>
<text text-anchor="start" x="59.5" y="-262.5" font-family="Helvetica,sans-Serif" font-size="10.00">UI</text>
<text text-anchor="start" x="49.5" y="-246.5" font-family="Helvetica,sans-Serif" font-size="10.00">+</text>
<text text-anchor="start" x="59.5" y="-246.5" font-family="Helvetica,sans-Serif" font-size="10.00">PlayerKinematics</text>
<text text-anchor="start" x="49.5" y="-230.5" font-family="Helvetica,sans-Serif" font-size="10.00">+</text>
<text text-anchor="start" x="59.5" y="-230.5" font-family="Helvetica,sans-Serif" font-size="10.00">PlayerInteraction</text>
<text text-anchor="start" x="49.5" y="-214.5" font-family="Helvetica,sans-Serif" font-size="10.00">+</text>
<text text-anchor="start" x="59.5" y="-214.5" font-family="Helvetica,sans-Serif" font-size="10.00">PlayerUI</text>
<text text-anchor="start" x="49.5" y="-198.5" font-family="Helvetica,sans-Serif" font-size="10.00">+</text>
<text text-anchor="start" x="59.5" y="-198.5" font-family="Helvetica,sans-Serif" font-size="10.00">KeyboardMouseScheme</text>
<text text-anchor="start" x="49.5" y="-182.5" font-family="Helvetica,sans-Serif" font-size="10.00">+</text>
<text text-anchor="start" x="59.5" y="-182.5" font-family="Helvetica,sans-Serif" font-size="10.00">GamepadScheme</text>
<text text-anchor="start" x="49.5" y="-166.5" font-family="Helvetica,sans-Serif" font-size="10.00">+</text>
<text text-anchor="start" x="59.5" y="-166.5" font-family="Helvetica,sans-Serif" font-size="10.00">TouchScheme</text>
<text text-anchor="start" x="49.5" y="-150.5" font-family="Helvetica,sans-Serif" font-size="10.00">+</text>
<text text-anchor="start" x="59.5" y="-150.5" font-family="Helvetica,sans-Serif" font-size="10.00">JoystickScheme</text>
<text text-anchor="start" x="49.5" y="-134.5" font-family="Helvetica,sans-Serif" font-size="10.00">+</text>
<text text-anchor="start" x="59.5" y="-134.5" font-family="Helvetica,sans-Serif" font-size="10.00">XRScheme</text>
<text text-anchor="start" x="49.5" y="-118.5" font-family="Helvetica,sans-Serif" font-size="10.00">+</text>
<text text-anchor="start" x="59.5" y="-118.5" font-family="Helvetica,sans-Serif" font-size="10.00">GeneratedInput()</text>
<text text-anchor="start" x="49.5" y="-102.5" font-family="Helvetica,sans-Serif" font-size="10.00">+</text>
<text text-anchor="start" x="59.5" y="-102.5" font-family="Helvetica,sans-Serif" font-size="10.00">Dispose()</text>
<text text-anchor="start" x="49.5" y="-86.5" font-family="Helvetica,sans-Serif" font-size="10.00">+</text>
<text text-anchor="start" x="59.5" y="-86.5" font-family="Helvetica,sans-Serif" font-size="10.00">Contains()</text>
<text text-anchor="start" x="49.5" y="-70.5" font-family="Helvetica,sans-Serif" font-size="10.00">+</text>
<text text-anchor="start" x="59.5" y="-70.5" font-family="Helvetica,sans-Serif" font-size="10.00">GetEnumerator()</text>
<text text-anchor="start" x="49.5" y="-54.5" font-family="Helvetica,sans-Serif" font-size="10.00">+</text>
<text text-anchor="start" x="59.5" y="-54.5" font-family="Helvetica,sans-Serif" font-size="10.00">Enable()</text>
<text text-anchor="start" x="49.5" y="-38.5" font-family="Helvetica,sans-Serif" font-size="10.00">+</text>
<text text-anchor="start" x="59.5" y="-38.5" font-family="Helvetica,sans-Serif" font-size="10.00">Disable()</text>
<text text-anchor="start" x="49.5" y="-22.5" font-family="Helvetica,sans-Serif" font-size="10.00">+</text>
<text text-anchor="start" x="59.5" y="-22.5" font-family="Helvetica,sans-Serif" font-size="10.00">FindAction()</text>
<text text-anchor="start" x="49.5" y="-6.5" font-family="Helvetica,sans-Serif" font-size="10.00">+</text>
<text text-anchor="start" x="59.5" y="-6.5" font-family="Helvetica,sans-Serif" font-size="10.00">FindBinding()</text>
<polygon fill="#666666" stroke="#666666" points="45.5,-370 45.5,-370 169.5,-370 169.5,-370 45.5,-370"/>
<polygon fill="#666666" stroke="#666666" points="45.5,-130 45.5,-130 57.5,-130 57.5,-130 45.5,-130"/>
<polygon fill="#666666" stroke="#666666" points="57.5,-130 57.5,-130 169.5,-130 169.5,-130 57.5,-130"/>
<polygon fill="none" stroke="#666666" points="45.5,0 45.5,-400 169.5,-400 169.5,0 45.5,0"/>
</a>
</g>
</g>
<!-- Node2 -->
<g id="Node000002" class="node">
<title>Node2</title>
<g id="a_Node000002"><a xlink:href="class_i_input_action_collection2.html" target="_top" xlink:title=" ">
<polygon fill="white" stroke="none" points="111,-488 0,-488 0,-436 111,-436 111,-488"/>
<text text-anchor="start" x="4.88" y="-474.5" font-family="Helvetica,sans-Serif" font-size="10.00">IInputActionCollection2</text>
<text text-anchor="start" x="54" y="-458.5" font-family="Helvetica,sans-Serif" font-size="10.00"> </text>
<text text-anchor="start" x="54" y="-442.5" font-family="Helvetica,sans-Serif" font-size="10.00"> </text>
<polygon fill="#666666" stroke="#666666" points="0,-470 0,-470 111,-470 111,-470 0,-470"/>
<polygon fill="#666666" stroke="#666666" points="0,-454 0,-454 111,-454 111,-454 0,-454"/>
<polygon fill="none" stroke="#666666" points="0,-436 0,-488 111,-488 111,-436 0,-436"/>
</a>
</g>
</g>
<!-- Node2&#45;&gt;Node1 -->
<g id="edge1_Node000001_Node000002" class="edge">
<title>Node2&#45;&gt;Node1</title>
<g id="a_edge1_Node000001_Node000002"><a xlink:title=" ">
<path fill="none" stroke="#63b8ff" d="M62.7,-425.02C64.2,-417.49 65.89,-409.06 67.7,-400"/>
<polygon fill="none" stroke="#63b8ff" points="59.31,-424.09 60.78,-434.59 66.18,-425.47 59.31,-424.09"/>
</a>
</g>
</g>
<!-- Node3 -->
<g id="Node000003" class="node">
<title>Node3</title>
<g id="a_Node000003"><a xlink:href="class_i_disposable.html" target="_top" xlink:title=" ">
<polygon fill="white" stroke="none" points="190,-488 129,-488 129,-436 190,-436 190,-488"/>
<text text-anchor="start" x="133.62" y="-474.5" font-family="Helvetica,sans-Serif" font-size="10.00">IDisposable</text>
<text text-anchor="start" x="158" y="-458.5" font-family="Helvetica,sans-Serif" font-size="10.00"> </text>
<text text-anchor="start" x="158" y="-442.5" font-family="Helvetica,sans-Serif" font-size="10.00"> </text>
<polygon fill="#666666" stroke="#666666" points="129,-470 129,-470 190,-470 190,-470 129,-470"/>
<polygon fill="#666666" stroke="#666666" points="129,-454 129,-454 190,-454 190,-454 129,-454"/>
<polygon fill="none" stroke="#666666" points="129,-436 129,-488 190,-488 190,-436 129,-436"/>
</a>
</g>
</g>
<!-- Node3&#45;&gt;Node1 -->
<g id="edge2_Node000001_Node000003" class="edge">
<title>Node3&#45;&gt;Node1</title>
<g id="a_edge2_Node000001_Node000003"><a xlink:title=" ">
<path fill="none" stroke="#63b8ff" d="M152.3,-425.02C150.8,-417.49 149.11,-409.06 147.3,-400"/>
<polygon fill="none" stroke="#63b8ff" points="148.82,-425.47 154.22,-434.59 155.69,-424.09 148.82,-425.47"/>
</a>
</g>
</g>
</g>
</svg>
