<?xml version="1.0" encoding="UTF-8" standalone="no"?>
<!DOCTYPE svg PUBLIC "-//W3C//DTD SVG 1.1//EN"
 "http://www.w3.org/Graphics/SVG/1.1/DTD/svg11.dtd">
<!-- Generated by graphviz version 12.1.2 (20240928.0832)
 -->
<!-- Title: PA1A.Items.ItemFactory Pages: 1 -->
<svg width="129pt" height="260pt"
 viewBox="0.00 0.00 129.00 260.00" xmlns="http://www.w3.org/2000/svg" xmlns:xlink="http://www.w3.org/1999/xlink">
<g id="graph0" class="graph" transform="scale(1 1) rotate(0) translate(4 256)">
<title>PA1A.Items.ItemFactory</title>
<!-- Node1 -->
<g id="Node000001" class="node">
<title>Node1</title>
<g id="a_Node000001"><a xlink:title="Represents a factory class for creating and managing items in the game.">
<polygon fill="#999999" stroke="none" points="119.5,-132 1.5,-132 1.5,0 119.5,0 119.5,-132"/>
<text text-anchor="start" x="6.5" y="-118.5" font-family="Helvetica,sans-Serif" font-size="10.00">PA1A.Items.ItemFactory</text>
<text text-anchor="start" x="59" y="-102.5" font-family="Helvetica,sans-Serif" font-size="10.00"> </text>
<text text-anchor="start" x="12.5" y="-86.5" font-family="Helvetica,sans-Serif" font-size="10.00">+</text>
<text text-anchor="start" x="29.5" y="-86.5" font-family="Helvetica,sans-Serif" font-size="10.00">Awake()</text>
<text text-anchor="start" x="12.5" y="-70.5" font-family="Helvetica,sans-Serif" font-size="10.00">+</text>
<text text-anchor="start" x="29.5" y="-70.5" font-family="Helvetica,sans-Serif" font-size="10.00">GetItem&lt; T &gt;()</text>
<text text-anchor="start" x="12.5" y="-54.5" font-family="Helvetica,sans-Serif" font-size="10.00">+</text>
<text text-anchor="start" x="29.5" y="-54.5" font-family="Helvetica,sans-Serif" font-size="10.00">GetItem&lt; T &gt;()</text>
<text text-anchor="start" x="12.5" y="-38.5" font-family="Helvetica,sans-Serif" font-size="10.00">+</text>
<text text-anchor="start" x="29.5" y="-38.5" font-family="Helvetica,sans-Serif" font-size="10.00">TryGet&lt; T &gt;()</text>
<text text-anchor="start" x="12.5" y="-22.5" font-family="Helvetica,sans-Serif" font-size="10.00">~</text>
<text text-anchor="start" x="29.5" y="-22.5" font-family="Helvetica,sans-Serif" font-size="10.00">GetItemNames()</text>
<text text-anchor="start" x="12.5" y="-6.5" font-family="Helvetica,sans-Serif" font-size="10.00">~</text>
<text text-anchor="start" x="29.5" y="-6.5" font-family="Helvetica,sans-Serif" font-size="10.00">GetItems()</text>
<polygon fill="#666666" stroke="#666666" points="1.5,-114 1.5,-114 119.5,-114 119.5,-114 1.5,-114"/>
<polygon fill="#666666" stroke="#666666" points="1.5,-98 1.5,-98 119.5,-98 119.5,-98 1.5,-98"/>
<polygon fill="none" stroke="#666666" points="1.5,0 1.5,-132 119.5,-132 119.5,0 1.5,0"/>
</a>
</g>
</g>
<!-- Node2 -->
<g id="Node000002" class="node">
<title>Node2</title>
<g id="a_Node000002"><a xlink:href="class_singleton.html" target="_top" xlink:title=" ">
<polygon fill="white" stroke="none" points="121,-252 0,-252 0,-168 121,-168 121,-252"/>
<text text-anchor="start" x="5" y="-238.5" font-family="Helvetica,sans-Serif" font-size="10.00">Singleton&lt; ItemFactory &gt;</text>
<text text-anchor="start" x="17" y="-222.5" font-family="Helvetica,sans-Serif" font-size="10.00">+</text>
<text text-anchor="start" x="40" y="-222.5" font-family="Helvetica,sans-Serif" font-size="10.00">Instance</text>
<text text-anchor="start" x="17" y="-206.5" font-family="Helvetica,sans-Serif" font-size="10.00">+</text>
<text text-anchor="start" x="40" y="-206.5" font-family="Helvetica,sans-Serif" font-size="10.00">Awake()</text>
<text text-anchor="start" x="17" y="-190.5" font-family="Helvetica,sans-Serif" font-size="10.00">+</text>
<text text-anchor="start" x="40" y="-190.5" font-family="Helvetica,sans-Serif" font-size="10.00">OnDisable()</text>
<text text-anchor="start" x="17" y="-174.5" font-family="Helvetica,sans-Serif" font-size="10.00">+</text>
<text text-anchor="start" x="40" y="-174.5" font-family="Helvetica,sans-Serif" font-size="10.00">OnEnable()</text>
<polygon fill="#666666" stroke="#666666" points="0,-234 0,-234 121,-234 121,-234 0,-234"/>
<polygon fill="#666666" stroke="#666666" points="0,-218 0,-218 38,-218 38,-218 0,-218"/>
<polygon fill="#666666" stroke="#666666" points="38,-218 38,-218 121,-218 121,-218 38,-218"/>
<polygon fill="none" stroke="#666666" points="0,-168 0,-252 121,-252 121,-168 0,-168"/>
</a>
</g>
</g>
<!-- Node2&#45;&gt;Node1 -->
<g id="edge1_Node000001_Node000002" class="edge">
<title>Node2&#45;&gt;Node1</title>
<g id="a_edge1_Node000001_Node000002"><a xlink:title=" ">
<path fill="none" stroke="#63b8ff" d="M60.5,-157.02C60.5,-148.82 60.5,-140.27 60.5,-131.82"/>
<polygon fill="none" stroke="#63b8ff" points="57,-156.79 60.5,-166.79 64,-156.79 57,-156.79"/>
</a>
</g>
</g>
</g>
</svg>
