<?xml version="1.0" encoding="UTF-8" standalone="no"?>
<!DOCTYPE svg PUBLIC "-//W3C//DTD SVG 1.1//EN"
 "http://www.w3.org/Graphics/SVG/1.1/DTD/svg11.dtd">
<!-- Generated by graphviz version 12.1.2 (20240928.0832)
 -->
<!-- Title: CodeSmile.Statemachine.Conditions.LogicalNot Pages: 1 -->
<svg width="181pt" height="408pt"
 viewBox="0.00 0.00 181.00 408.00" xmlns="http://www.w3.org/2000/svg" xmlns:xlink="http://www.w3.org/1999/xlink">
<g id="graph0" class="graph" transform="scale(1 1) rotate(0) translate(4 404)">
<title>CodeSmile.Statemachine.Conditions.LogicalNot</title>
<!-- Node1 -->
<g id="Node000001" class="node">
<title>Node1</title>
<g id="a_Node000001"><a xlink:title="Logically negates the contained condition (NOT).">
<polygon fill="#999999" stroke="none" points="173,-160 0,-160 0,0 173,0 173,-160"/>
<text text-anchor="start" x="4.75" y="-146.5" font-family="Helvetica,sans-Serif" font-size="10.00">CodeSmile.Statemachine.Conditions.</text>
<text text-anchor="start" x="63.25" y="-134.5" font-family="Helvetica,sans-Serif" font-size="10.00">LogicalNot</text>
<text text-anchor="start" x="25" y="-118.5" font-family="Helvetica,sans-Serif" font-size="10.00">+</text>
<text text-anchor="start" x="56" y="-118.5" font-family="Helvetica,sans-Serif" font-size="10.00">InnerCondition</text>
<text text-anchor="start" x="25" y="-102.5" font-family="Helvetica,sans-Serif" font-size="10.00">+</text>
<text text-anchor="start" x="56" y="-102.5" font-family="Helvetica,sans-Serif" font-size="10.00">IsSatisfied()</text>
<text text-anchor="start" x="25" y="-86.5" font-family="Helvetica,sans-Serif" font-size="10.00">+</text>
<text text-anchor="start" x="56" y="-86.5" font-family="Helvetica,sans-Serif" font-size="10.00">ToDebugString()</text>
<text text-anchor="start" x="25" y="-70.5" font-family="Helvetica,sans-Serif" font-size="10.00">+</text>
<text text-anchor="start" x="56" y="-70.5" font-family="Helvetica,sans-Serif" font-size="10.00">OnStart()</text>
<text text-anchor="start" x="25" y="-54.5" font-family="Helvetica,sans-Serif" font-size="10.00">+</text>
<text text-anchor="start" x="56" y="-54.5" font-family="Helvetica,sans-Serif" font-size="10.00">OnStop()</text>
<text text-anchor="start" x="25" y="-38.5" font-family="Helvetica,sans-Serif" font-size="10.00">+</text>
<text text-anchor="start" x="56" y="-38.5" font-family="Helvetica,sans-Serif" font-size="10.00">OnEnterState()</text>
<text text-anchor="start" x="25" y="-22.5" font-family="Helvetica,sans-Serif" font-size="10.00">+</text>
<text text-anchor="start" x="56" y="-22.5" font-family="Helvetica,sans-Serif" font-size="10.00">OnExitState()</text>
<text text-anchor="start" x="25" y="-6.5" font-family="Helvetica,sans-Serif" font-size="10.00">~</text>
<text text-anchor="start" x="56" y="-6.5" font-family="Helvetica,sans-Serif" font-size="10.00">LogicalNot()</text>
<polygon fill="#666666" stroke="#666666" points="0,-130 0,-130 173,-130 173,-130 0,-130"/>
<polygon fill="#666666" stroke="#666666" points="0,-114 0,-114 54,-114 54,-114 0,-114"/>
<polygon fill="#666666" stroke="#666666" points="54,-114 54,-114 173,-114 173,-114 54,-114"/>
<polygon fill="none" stroke="#666666" points="0,0 0,-160 173,-160 173,0 0,0"/>
</a>
</g>
</g>
<!-- Node2 -->
<g id="Node000002" class="node">
<title>Node2</title>
<g id="a_Node000002"><a xlink:href="interface_code_smile_1_1_statemachine_1_1_i_condition.html" target="_top" xlink:title="Marks a class as a FSM Condition.">
<polygon fill="white" stroke="none" points="130.5,-264 42.5,-264 42.5,-196 130.5,-196 130.5,-264"/>
<text text-anchor="start" x="64.38" y="-250.5" font-family="Helvetica,sans-Serif" font-size="10.00">ICondition</text>
<text text-anchor="start" x="85" y="-234.5" font-family="Helvetica,sans-Serif" font-size="10.00"> </text>
<text text-anchor="start" x="46.5" y="-218.5" font-family="Helvetica,sans-Serif" font-size="10.00">+</text>
<text text-anchor="start" x="56.5" y="-218.5" font-family="Helvetica,sans-Serif" font-size="10.00">IsSatisfied()</text>
<text text-anchor="start" x="46.5" y="-202.5" font-family="Helvetica,sans-Serif" font-size="10.00">+</text>
<text text-anchor="start" x="56.5" y="-202.5" font-family="Helvetica,sans-Serif" font-size="10.00">ToDebugString()</text>
<polygon fill="#666666" stroke="#666666" points="42.5,-246 42.5,-246 130.5,-246 130.5,-246 42.5,-246"/>
<polygon fill="#666666" stroke="#666666" points="42.5,-230 42.5,-230 130.5,-230 130.5,-230 42.5,-230"/>
<polygon fill="none" stroke="#666666" points="42.5,-196 42.5,-264 130.5,-264 130.5,-196 42.5,-196"/>
</a>
</g>
</g>
<!-- Node2&#45;&gt;Node1 -->
<g id="edge1_Node000001_Node000002" class="edge">
<title>Node2&#45;&gt;Node1</title>
<g id="a_edge1_Node000001_Node000002"><a xlink:title=" ">
<path fill="none" stroke="#63b8ff" d="M86.5,-184.91C86.5,-176.93 86.5,-168.39 86.5,-159.77"/>
<polygon fill="none" stroke="#63b8ff" points="83,-184.64 86.5,-194.64 90,-184.64 83,-184.64"/>
</a>
</g>
</g>
<!-- Node3 -->
<g id="Node000003" class="node">
<title>Node3</title>
<g id="a_Node000003"><a xlink:href="interface_code_smile_1_1_statemachine_1_1_i_statemachine_events.html" target="_top" xlink:title="Event methods that the Statemachine calls at specific times.">
<polygon fill="white" stroke="none" points="138,-400 35,-400 35,-300 138,-300 138,-400"/>
<text text-anchor="start" x="39.62" y="-386.5" font-family="Helvetica,sans-Serif" font-size="10.00">IStatemachineEvents</text>
<text text-anchor="start" x="85" y="-370.5" font-family="Helvetica,sans-Serif" font-size="10.00"> </text>
<text text-anchor="start" x="44" y="-354.5" font-family="Helvetica,sans-Serif" font-size="10.00">+</text>
<text text-anchor="start" x="59" y="-354.5" font-family="Helvetica,sans-Serif" font-size="10.00">OnStart()</text>
<text text-anchor="start" x="44" y="-338.5" font-family="Helvetica,sans-Serif" font-size="10.00">+</text>
<text text-anchor="start" x="59" y="-338.5" font-family="Helvetica,sans-Serif" font-size="10.00">OnStop()</text>
<text text-anchor="start" x="44" y="-322.5" font-family="Helvetica,sans-Serif" font-size="10.00">+</text>
<text text-anchor="start" x="59" y="-322.5" font-family="Helvetica,sans-Serif" font-size="10.00">OnEnterState()</text>
<text text-anchor="start" x="44" y="-306.5" font-family="Helvetica,sans-Serif" font-size="10.00">+</text>
<text text-anchor="start" x="59" y="-306.5" font-family="Helvetica,sans-Serif" font-size="10.00">OnExitState()</text>
<polygon fill="#666666" stroke="#666666" points="35,-382 35,-382 138,-382 138,-382 35,-382"/>
<polygon fill="#666666" stroke="#666666" points="35,-366 35,-366 138,-366 138,-366 35,-366"/>
<polygon fill="none" stroke="#666666" points="35,-300 35,-400 138,-400 138,-300 35,-300"/>
</a>
</g>
</g>
<!-- Node3&#45;&gt;Node2 -->
<g id="edge2_Node000002_Node000003" class="edge">
<title>Node3&#45;&gt;Node2</title>
<g id="a_edge2_Node000002_Node000003"><a xlink:title=" ">
<path fill="none" stroke="#63b8ff" d="M86.5,-288.96C86.5,-280.28 86.5,-271.62 86.5,-263.75"/>
<polygon fill="none" stroke="#63b8ff" points="83,-288.81 86.5,-298.81 90,-288.81 83,-288.81"/>
</a>
</g>
</g>
</g>
</svg>
