<?xml version="1.0" encoding="UTF-8" standalone="no"?>
<!DOCTYPE svg PUBLIC "-//W3C//DTD SVG 1.1//EN"
 "http://www.w3.org/Graphics/SVG/1.1/DTD/svg11.dtd">
<!-- Generated by graphviz version 12.1.2 (20240928.0832)
 -->
<!-- Title: NetworkBehaviour Pages: 1 -->
<!--zoomable 572 -->

<svg id="main" version="1.1" xmlns="http://www.w3.org/2000/svg" xmlns:xlink="http://www.w3.org/1999/xlink" xml:space="preserve" onload="init(evt)">

<style type="text/css"><![CDATA[
.node, .edge {opacity: 0.7;}
.node.selected, .edge.selected {opacity: 1;}
.edge:hover path { stroke: red; }
.edge:hover polygon { stroke: red; fill: red; }
]]></style>

<defs>
  <circle id="rim" cx="0" cy="0" r="7"/>
  <circle id="rim2" cx="0" cy="0" r="3.5"/>
  <g id="zoomPlus">
    <use xlink:href="#rim" fill="#404040"><set attributeName="fill" to="#808080" begin="zoomplus.mouseover" end="zoomplus.mouseout"/></use>
    <path d="M-4,0h8M0,-4v8" fill="none" stroke="white" stroke-width="1.5" pointer-events="none"/>
  </g>
  <g id="zoomMin">
    <use xlink:href="#rim" fill="#404040"><set attributeName="fill" to="#808080" begin="zoomminus.mouseover" end="zoomminus.mouseout"/></use>
    <path d="M-4,0h8" fill="none" stroke="white" stroke-width="1.5" pointer-events="none"/>
  </g>
  <g id="arrowUp" transform="translate(30 24)">
    <use xlink:href="#rim"/>
    <path pointer-events="none" fill="none" stroke="white" stroke-width="1.5" d="M0,-3.0v7 M-2.5,-0.5L0,-3.0L2.5,-0.5"/>
  </g>
  <g id="arrowRight" transform="rotate(90) translate(36 -43)">
    <use xlink:href="#rim"/>
    <path pointer-events="none" fill="none" stroke="white" stroke-width="1.5" d="M0,-3.0v7 M-2.5,-0.5L0,-3.0L2.5,-0.5"/>
  </g>
  <g id="arrowDown" transform="rotate(180) translate(-30 -48)">
    <use xlink:href="#rim"/>
    <path pointer-events="none" fill="none" stroke="white" stroke-width="1.5" d="M0,-3.0v7 M-2.5,-0.5L0,-3.0L2.5,-0.5"/>
  </g>
  <g id="arrowLeft" transform="rotate(270) translate(-36 17)">
    <use xlink:href="#rim"/>
    <path pointer-events="none" fill="none" stroke="white" stroke-width="1.5" d="M0,-3.0v7 M-2.5,-0.5L0,-3.0L2.5,-0.5"/>
  </g>
  <g id="resetDef">
    <use xlink:href="#rim2" fill="#404040"><set attributeName="fill" to="#808080" begin="reset.mouseover" end="reset.mouseout"/></use>
  </g>
</defs>
<script type="application/ecmascript">
var viewWidth = 1897;
var viewHeight = 572;
var sectionId = 'dynsection-0';
</script>
<script type="application/ecmascript" xlink:href="svg.min.js"/>
<svg id="graph" class="graph">
<g id="viewport">
<title>NetworkBehaviour</title>
<!-- Node1 -->
<g id="Node000001" class="node">
<title>Node1</title>
<g id="a_Node000001"><a xlink:title=" ">
<polygon fill="#999999" stroke="none" points="975.5,-564 885.5,-564 885.5,-512 975.5,-512 975.5,-564"/>
<text text-anchor="start" x="890.38" y="-550.5" font-family="Helvetica,sans-Serif" font-size="10.00">NetworkBehaviour</text>
<text text-anchor="start" x="929" y="-534.5" font-family="Helvetica,sans-Serif" font-size="10.00"> </text>
<text text-anchor="start" x="929" y="-518.5" font-family="Helvetica,sans-Serif" font-size="10.00"> </text>
<polygon fill="#666666" stroke="#666666" points="885.5,-546 885.5,-546 975.5,-546 975.5,-546 885.5,-546"/>
<polygon fill="#666666" stroke="#666666" points="885.5,-530 885.5,-530 975.5,-530 975.5,-530 885.5,-530"/>
<polygon fill="none" stroke="#666666" points="885.5,-512 885.5,-564 975.5,-564 975.5,-512 885.5,-512"/>
</a>
</g>
</g>
<!-- Node2 -->
<g id="Node000002" class="node">
<title>Node2</title>
<g id="a_Node000002"><a xlink:href="class_code_smile_1_1_multi_pal_1_1_players_1_1_couch_1_1_couch_players.html" target="_top" xlink:title="Represents the group of players (1&#45;4) playing on a single client.">
<polygon fill="white" stroke="none" points="135,-386 0,-386 0,-226 135,-226 135,-386"/>
<text text-anchor="start" x="4.88" y="-372.5" font-family="Helvetica,sans-Serif" font-size="10.00">CodeSmile.MultiPal.Players.</text>
<text text-anchor="start" x="21" y="-360.5" font-family="Helvetica,sans-Serif" font-size="10.00">Couch.CouchPlayers</text>
<text text-anchor="start" x="9" y="-344.5" font-family="Helvetica,sans-Serif" font-size="10.00">+</text>
<text text-anchor="start" x="24" y="-344.5" font-family="Helvetica,sans-Serif" font-size="10.00">this[Int32 index]</text>
<text text-anchor="start" x="9" y="-328.5" font-family="Helvetica,sans-Serif" font-size="10.00">+</text>
<text text-anchor="start" x="24" y="-328.5" font-family="Helvetica,sans-Serif" font-size="10.00">PlayerCount</text>
<text text-anchor="start" x="9" y="-312.5" font-family="Helvetica,sans-Serif" font-size="10.00">+</text>
<text text-anchor="start" x="24" y="-312.5" font-family="Helvetica,sans-Serif" font-size="10.00">GetEnumerator()</text>
<text text-anchor="start" x="9" y="-296.5" font-family="Helvetica,sans-Serif" font-size="10.00">+</text>
<text text-anchor="start" x="24" y="-296.5" font-family="Helvetica,sans-Serif" font-size="10.00">OnNetworkSpawn()</text>
<text text-anchor="start" x="9" y="-280.5" font-family="Helvetica,sans-Serif" font-size="10.00">+</text>
<text text-anchor="start" x="24" y="-280.5" font-family="Helvetica,sans-Serif" font-size="10.00">OnNetworkDespawn()</text>
<text text-anchor="start" x="9" y="-264.5" font-family="Helvetica,sans-Serif" font-size="10.00">+</text>
<text text-anchor="start" x="24" y="-264.5" font-family="Helvetica,sans-Serif" font-size="10.00">StartSpawnPlayers()</text>
<text text-anchor="start" x="9" y="-248.5" font-family="Helvetica,sans-Serif" font-size="10.00">~</text>
<text text-anchor="start" x="24" y="-248.5" font-family="Helvetica,sans-Serif" font-size="10.00">RemotePlayerJoined()</text>
<text text-anchor="start" x="9" y="-232.5" font-family="Helvetica,sans-Serif" font-size="10.00">~</text>
<text text-anchor="start" x="24" y="-232.5" font-family="Helvetica,sans-Serif" font-size="10.00">RemotePlayerLeft()</text>
<polygon fill="#666666" stroke="#666666" points="0,-356 0,-356 135,-356 135,-356 0,-356"/>
<polygon fill="#666666" stroke="#666666" points="0,-324 0,-324 22,-324 22,-324 0,-324"/>
<polygon fill="#666666" stroke="#666666" points="22,-324 22,-324 135,-324 135,-324 22,-324"/>
<polygon fill="none" stroke="#666666" points="0,-226 0,-386 135,-386 135,-226 0,-226"/>
</a>
</g>
</g>
<!-- Node1&#45;&gt;Node2 -->
<g id="edge1_Node000001_Node000002" class="edge">
<title>Node1&#45;&gt;Node2</title>
<g id="a_edge1_Node000001_Node000002"><a xlink:title=" ">
<path fill="none" stroke="#63b8ff" d="M874.14,-535.9C704.06,-532.13 203.95,-517.58 144.5,-476 114.38,-454.93 95.82,-419.12 84.49,-385.86"/>
<polygon fill="none" stroke="#63b8ff" points="873.98,-539.4 884.06,-536.11 874.13,-532.4 873.98,-539.4"/>
</a>
</g>
</g>
<!-- Node3 -->
<g id="Node000003" class="node">
<title>Node3</title>
<g id="a_Node000003"><a xlink:title=" ">
<polygon fill="white" stroke="none" points="293.5,-354 153.5,-354 153.5,-258 293.5,-258 293.5,-354"/>
<text text-anchor="start" x="160.88" y="-340.5" font-family="Helvetica,sans-Serif" font-size="10.00">CodeSmile.MultiPal.Players.</text>
<text text-anchor="start" x="164.25" y="-328.5" font-family="Helvetica,sans-Serif" font-size="10.00">Couch.CouchPlayersClient</text>
<text text-anchor="start" x="222" y="-312.5" font-family="Helvetica,sans-Serif" font-size="10.00"> </text>
<text text-anchor="start" x="157.5" y="-296.5" font-family="Helvetica,sans-Serif" font-size="10.00">~</text>
<text text-anchor="start" x="167.5" y="-296.5" font-family="Helvetica,sans-Serif" font-size="10.00">Spawn()</text>
<text text-anchor="start" x="157.5" y="-280.5" font-family="Helvetica,sans-Serif" font-size="10.00">~</text>
<text text-anchor="start" x="167.5" y="-280.5" font-family="Helvetica,sans-Serif" font-size="10.00">DidSpawnPlayerClientRpc()</text>
<text text-anchor="start" x="157.5" y="-264.5" font-family="Helvetica,sans-Serif" font-size="10.00">~</text>
<text text-anchor="start" x="167.5" y="-264.5" font-family="Helvetica,sans-Serif" font-size="10.00">Despawn()</text>
<polygon fill="#666666" stroke="#666666" points="153.5,-324 153.5,-324 293.5,-324 293.5,-324 153.5,-324"/>
<polygon fill="#666666" stroke="#666666" points="153.5,-308 153.5,-308 293.5,-308 293.5,-308 153.5,-308"/>
<polygon fill="none" stroke="#666666" points="153.5,-258 153.5,-354 293.5,-354 293.5,-258 153.5,-258"/>
</a>
</g>
</g>
<!-- Node1&#45;&gt;Node3 -->
<g id="edge2_Node000001_Node000003" class="edge">
<title>Node1&#45;&gt;Node3</title>
<g id="a_edge2_Node000001_Node000003"><a xlink:title=" ">
<path fill="none" stroke="#63b8ff" d="M874.23,-534.67C729,-528.23 349.67,-508.46 303.5,-476 263.14,-447.62 242.5,-393.36 232.4,-353.96"/>
<polygon fill="none" stroke="#63b8ff" points="873.85,-538.16 883.99,-535.1 874.15,-531.17 873.85,-538.16"/>
</a>
</g>
</g>
<!-- Node4 -->
<g id="Node000004" class="node">
<title>Node4</title>
<g id="a_Node000004"><a xlink:title=" ">
<polygon fill="white" stroke="none" points="451,-354 312,-354 312,-258 451,-258 451,-354"/>
<text text-anchor="start" x="318.88" y="-340.5" font-family="Helvetica,sans-Serif" font-size="10.00">CodeSmile.MultiPal.Players.</text>
<text text-anchor="start" x="320.75" y="-328.5" font-family="Helvetica,sans-Serif" font-size="10.00">Couch.CouchPlayersServer</text>
<text text-anchor="start" x="380" y="-312.5" font-family="Helvetica,sans-Serif" font-size="10.00"> </text>
<text text-anchor="start" x="316" y="-296.5" font-family="Helvetica,sans-Serif" font-size="10.00">+</text>
<text text-anchor="start" x="326" y="-296.5" font-family="Helvetica,sans-Serif" font-size="10.00">OnDestroy()</text>
<text text-anchor="start" x="316" y="-280.5" font-family="Helvetica,sans-Serif" font-size="10.00">+</text>
<text text-anchor="start" x="326" y="-280.5" font-family="Helvetica,sans-Serif" font-size="10.00">DespawnPlayerServerRpc()</text>
<text text-anchor="start" x="316" y="-264.5" font-family="Helvetica,sans-Serif" font-size="10.00">~</text>
<text text-anchor="start" x="326" y="-264.5" font-family="Helvetica,sans-Serif" font-size="10.00">SpawnPlayerServerRpc()</text>
<polygon fill="#666666" stroke="#666666" points="312,-324 312,-324 451,-324 451,-324 312,-324"/>
<polygon fill="#666666" stroke="#666666" points="312,-308 312,-308 451,-308 451,-308 312,-308"/>
<polygon fill="none" stroke="#666666" points="312,-258 312,-354 451,-354 451,-258 312,-258"/>
</a>
</g>
</g>
<!-- Node1&#45;&gt;Node4 -->
<g id="edge3_Node000001_Node000004" class="edge">
<title>Node1&#45;&gt;Node4</title>
<g id="a_edge3_Node000001_Node000004"><a xlink:title=" ">
<path fill="none" stroke="#63b8ff" d="M874.35,-536.33C764.3,-533.97 525.29,-523.37 460.5,-476 420.76,-446.95 400.36,-392.81 390.34,-353.63"/>
<polygon fill="none" stroke="#63b8ff" points="873.96,-539.82 884.03,-536.52 874.1,-532.82 873.96,-539.82"/>
</a>
</g>
</g>
<!-- Node5 -->
<g id="Node000005" class="node">
<title>Node5</title>
<g id="a_Node000005"><a xlink:href="class_code_smile_1_1_multi_pal_1_1_players_1_1_couch_1_1_couch_players_vars.html" target="_top" xlink:title=" ">
<polygon fill="white" stroke="none" points="604,-354 469,-354 469,-258 604,-258 604,-354"/>
<text text-anchor="start" x="473.88" y="-340.5" font-family="Helvetica,sans-Serif" font-size="10.00">CodeSmile.MultiPal.Players.</text>
<text text-anchor="start" x="480.25" y="-328.5" font-family="Helvetica,sans-Serif" font-size="10.00">Couch.CouchPlayersVars</text>
<text text-anchor="start" x="535" y="-312.5" font-family="Helvetica,sans-Serif" font-size="10.00"> </text>
<text text-anchor="start" x="478" y="-296.5" font-family="Helvetica,sans-Serif" font-size="10.00">+</text>
<text text-anchor="start" x="493" y="-296.5" font-family="Helvetica,sans-Serif" font-size="10.00">OnNetworkSpawn()</text>
<text text-anchor="start" x="478" y="-280.5" font-family="Helvetica,sans-Serif" font-size="10.00">+</text>
<text text-anchor="start" x="493" y="-280.5" font-family="Helvetica,sans-Serif" font-size="10.00">OnNetworkDespawn()</text>
<text text-anchor="start" x="478" y="-264.5" font-family="Helvetica,sans-Serif" font-size="10.00">~</text>
<text text-anchor="start" x="493" y="-264.5" font-family="Helvetica,sans-Serif" font-size="10.00">SetPlayerReference()</text>
<polygon fill="#666666" stroke="#666666" points="469,-324 469,-324 604,-324 604,-324 469,-324"/>
<polygon fill="#666666" stroke="#666666" points="469,-308 469,-308 604,-308 604,-308 469,-308"/>
<polygon fill="none" stroke="#666666" points="469,-258 469,-354 604,-354 604,-258 469,-258"/>
</a>
</g>
</g>
<!-- Node1&#45;&gt;Node5 -->
<g id="edge4_Node000001_Node000005" class="edge">
<title>Node1&#45;&gt;Node5</title>
<g id="a_edge4_Node000001_Node000005"><a xlink:title=" ">
<path fill="none" stroke="#63b8ff" d="M874.26,-532.36C794.35,-524.75 653.22,-507.26 613.5,-476 575.24,-445.89 555.32,-392.51 545.43,-353.78"/>
<polygon fill="none" stroke="#63b8ff" points="873.8,-535.83 884.08,-533.27 874.44,-528.86 873.8,-535.83"/>
</a>
</g>
</g>
<!-- Node6 -->
<g id="Node000006" class="node">
<title>Node6</title>
<g id="a_Node000006"><a xlink:href="class_code_smile_1_1_multi_pal_1_1_players_1_1_player.html" target="_top" xlink:title=" ">
<polygon fill="white" stroke="none" points="767,-434 622,-434 622,-178 767,-178 767,-434"/>
<text text-anchor="start" x="631.88" y="-420.5" font-family="Helvetica,sans-Serif" font-size="10.00">CodeSmile.MultiPal.Players.</text>
<text text-anchor="start" x="680.62" y="-408.5" font-family="Helvetica,sans-Serif" font-size="10.00">Player</text>
<text text-anchor="start" x="626" y="-392.5" font-family="Helvetica,sans-Serif" font-size="10.00">+</text>
<text text-anchor="start" x="636" y="-392.5" font-family="Helvetica,sans-Serif" font-size="10.00">Camera</text>
<text text-anchor="start" x="626" y="-376.5" font-family="Helvetica,sans-Serif" font-size="10.00">+</text>
<text text-anchor="start" x="636" y="-376.5" font-family="Helvetica,sans-Serif" font-size="10.00">AvatarIndex</text>
<text text-anchor="start" x="626" y="-360.5" font-family="Helvetica,sans-Serif" font-size="10.00">+</text>
<text text-anchor="start" x="636" y="-360.5" font-family="Helvetica,sans-Serif" font-size="10.00">PlayerIndex</text>
<text text-anchor="start" x="626" y="-344.5" font-family="Helvetica,sans-Serif" font-size="10.00">+</text>
<text text-anchor="start" x="636" y="-344.5" font-family="Helvetica,sans-Serif" font-size="10.00">OnPlayerSpawn()</text>
<text text-anchor="start" x="626" y="-328.5" font-family="Helvetica,sans-Serif" font-size="10.00">+</text>
<text text-anchor="start" x="636" y="-328.5" font-family="Helvetica,sans-Serif" font-size="10.00">OnPlayerDespawn()</text>
<text text-anchor="start" x="626" y="-312.5" font-family="Helvetica,sans-Serif" font-size="10.00">+</text>
<text text-anchor="start" x="636" y="-312.5" font-family="Helvetica,sans-Serif" font-size="10.00">OnNetworkSpawn()</text>
<text text-anchor="start" x="626" y="-296.5" font-family="Helvetica,sans-Serif" font-size="10.00">+</text>
<text text-anchor="start" x="636" y="-296.5" font-family="Helvetica,sans-Serif" font-size="10.00">OnNetworkDespawn()</text>
<text text-anchor="start" x="626" y="-280.5" font-family="Helvetica,sans-Serif" font-size="10.00">+</text>
<text text-anchor="start" x="636" y="-280.5" font-family="Helvetica,sans-Serif" font-size="10.00">OnOpenIngameMenu()</text>
<text text-anchor="start" x="626" y="-264.5" font-family="Helvetica,sans-Serif" font-size="10.00">+</text>
<text text-anchor="start" x="636" y="-264.5" font-family="Helvetica,sans-Serif" font-size="10.00">OnCloseIngameMenu()</text>
<text text-anchor="start" x="626" y="-248.5" font-family="Helvetica,sans-Serif" font-size="10.00">~</text>
<text text-anchor="start" x="636" y="-248.5" font-family="Helvetica,sans-Serif" font-size="10.00">SwitchCamera()</text>
<text text-anchor="start" x="626" y="-232.5" font-family="Helvetica,sans-Serif" font-size="10.00">~</text>
<text text-anchor="start" x="636" y="-232.5" font-family="Helvetica,sans-Serif" font-size="10.00">SwitchController()</text>
<text text-anchor="start" x="626" y="-216.5" font-family="Helvetica,sans-Serif" font-size="10.00">~</text>
<text text-anchor="start" x="636" y="-216.5" font-family="Helvetica,sans-Serif" font-size="10.00">RequestToggleIngameMenu()</text>
<text text-anchor="start" x="626" y="-200.5" font-family="Helvetica,sans-Serif" font-size="10.00">~</text>
<text text-anchor="start" x="636" y="-200.5" font-family="Helvetica,sans-Serif" font-size="10.00">Die()</text>
<text text-anchor="start" x="626" y="-184.5" font-family="Helvetica,sans-Serif" font-size="10.00">~</text>
<text text-anchor="start" x="636" y="-184.5" font-family="Helvetica,sans-Serif" font-size="10.00">Respawn()</text>
<polygon fill="#666666" stroke="#666666" points="622,-404 622,-404 767,-404 767,-404 622,-404"/>
<polygon fill="#666666" stroke="#666666" points="622,-356 622,-356 634,-356 634,-356 622,-356"/>
<polygon fill="#666666" stroke="#666666" points="634,-356 634,-356 767,-356 767,-356 634,-356"/>
<polygon fill="none" stroke="#666666" points="622,-178 622,-434 767,-434 767,-178 622,-178"/>
</a>
</g>
</g>
<!-- Node1&#45;&gt;Node6 -->
<g id="edge5_Node000001_Node000006" class="edge">
<title>Node1&#45;&gt;Node6</title>
<g id="a_edge5_Node000001_Node000006"><a xlink:title=" ">
<path fill="none" stroke="#63b8ff" d="M874.67,-525.54C842.74,-516.59 803.75,-501.29 776.5,-476 763.47,-463.91 752.28,-449.31 742.72,-433.81"/>
<polygon fill="none" stroke="#63b8ff" points="873.61,-528.88 884.18,-528.06 875.41,-522.12 873.61,-528.88"/>
</a>
</g>
</g>
<!-- Node7 -->
<g id="Node000007" class="node">
<title>Node7</title>
<g id="a_Node000007"><a xlink:href="class_code_smile_1_1_multi_pal_1_1_players_1_1_player_client.html" target="_top" xlink:title=" ">
<polygon fill="white" stroke="none" points="921.5,-370 785.5,-370 785.5,-242 921.5,-242 921.5,-370"/>
<text text-anchor="start" x="790.88" y="-356.5" font-family="Helvetica,sans-Serif" font-size="10.00">CodeSmile.MultiPal.Players.</text>
<text text-anchor="start" x="826.88" y="-344.5" font-family="Helvetica,sans-Serif" font-size="10.00">PlayerClient</text>
<text text-anchor="start" x="789.5" y="-328.5" font-family="Helvetica,sans-Serif" font-size="10.00">+</text>
<text text-anchor="start" x="799.5" y="-328.5" font-family="Helvetica,sans-Serif" font-size="10.00">AnimatorController</text>
<text text-anchor="start" x="789.5" y="-312.5" font-family="Helvetica,sans-Serif" font-size="10.00">+</text>
<text text-anchor="start" x="799.5" y="-312.5" font-family="Helvetica,sans-Serif" font-size="10.00">AnimatorParameters</text>
<text text-anchor="start" x="789.5" y="-296.5" font-family="Helvetica,sans-Serif" font-size="10.00">+</text>
<text text-anchor="start" x="799.5" y="-296.5" font-family="Helvetica,sans-Serif" font-size="10.00">OnNetworkSpawn()</text>
<text text-anchor="start" x="789.5" y="-280.5" font-family="Helvetica,sans-Serif" font-size="10.00">+</text>
<text text-anchor="start" x="799.5" y="-280.5" font-family="Helvetica,sans-Serif" font-size="10.00">OnNetworkDespawn()</text>
<text text-anchor="start" x="789.5" y="-264.5" font-family="Helvetica,sans-Serif" font-size="10.00">+</text>
<text text-anchor="start" x="799.5" y="-264.5" font-family="Helvetica,sans-Serif" font-size="10.00">KillPlayerClientRpc()</text>
<text text-anchor="start" x="789.5" y="-248.5" font-family="Helvetica,sans-Serif" font-size="10.00">+</text>
<text text-anchor="start" x="799.5" y="-248.5" font-family="Helvetica,sans-Serif" font-size="10.00">RespawnPlayerClientRpc()</text>
<polygon fill="#666666" stroke="#666666" points="785.5,-340 785.5,-340 921.5,-340 921.5,-340 785.5,-340"/>
<polygon fill="#666666" stroke="#666666" points="785.5,-308 785.5,-308 797.5,-308 797.5,-308 785.5,-308"/>
<polygon fill="#666666" stroke="#666666" points="797.5,-308 797.5,-308 921.5,-308 921.5,-308 797.5,-308"/>
<polygon fill="none" stroke="#666666" points="785.5,-242 785.5,-370 921.5,-370 921.5,-242 785.5,-242"/>
</a>
</g>
</g>
<!-- Node1&#45;&gt;Node7 -->
<g id="edge6_Node000001_Node000007" class="edge">
<title>Node1&#45;&gt;Node7</title>
<g id="a_edge6_Node000001_Node000007"><a xlink:title=" ">
<path fill="none" stroke="#63b8ff" d="M918.7,-501.74C906.98,-466.75 888.76,-412.34 874.56,-369.92"/>
<polygon fill="none" stroke="#63b8ff" points="915.29,-502.58 921.78,-510.95 921.92,-500.36 915.29,-502.58"/>
</a>
</g>
</g>
<!-- Node8 -->
<g id="Node000008" class="node">
<title>Node8</title>
<g id="a_Node000008"><a xlink:title=" ">
<polygon fill="white" stroke="none" points="1075,-338 940,-338 940,-274 1075,-274 1075,-338"/>
<text text-anchor="start" x="944.88" y="-324.5" font-family="Helvetica,sans-Serif" font-size="10.00">CodeSmile.MultiPal.Players.</text>
<text text-anchor="start" x="979.38" y="-312.5" font-family="Helvetica,sans-Serif" font-size="10.00">PlayerServer</text>
<text text-anchor="start" x="1006" y="-296.5" font-family="Helvetica,sans-Serif" font-size="10.00"> </text>
<text text-anchor="start" x="1006" y="-280.5" font-family="Helvetica,sans-Serif" font-size="10.00"> </text>
<polygon fill="#666666" stroke="#666666" points="940,-308 940,-308 1075,-308 1075,-308 940,-308"/>
<polygon fill="#666666" stroke="#666666" points="940,-292 940,-292 1075,-292 1075,-292 940,-292"/>
<polygon fill="none" stroke="#666666" points="940,-274 940,-338 1075,-338 1075,-274 940,-274"/>
</a>
</g>
</g>
<!-- Node1&#45;&gt;Node8 -->
<g id="edge7_Node000001_Node000008" class="edge">
<title>Node1&#45;&gt;Node8</title>
<g id="a_edge7_Node000001_Node000008"><a xlink:title=" ">
<path fill="none" stroke="#63b8ff" d="M942.31,-501.74C957.28,-457.01 982.87,-380.58 997.13,-337.99"/>
<polygon fill="none" stroke="#63b8ff" points="939.08,-500.36 939.22,-510.95 945.71,-502.58 939.08,-500.36"/>
</a>
</g>
</g>
<!-- Node9 -->
<g id="Node000009" class="node">
<title>Node9</title>
<g id="a_Node000009"><a xlink:title=" ">
<polygon fill="white" stroke="none" points="1228,-362 1093,-362 1093,-250 1228,-250 1228,-362"/>
<text text-anchor="start" x="1097.88" y="-348.5" font-family="Helvetica,sans-Serif" font-size="10.00">CodeSmile.MultiPal.Players.</text>
<text text-anchor="start" x="1136.88" y="-336.5" font-family="Helvetica,sans-Serif" font-size="10.00">PlayerVars</text>
<text text-anchor="start" x="1102" y="-320.5" font-family="Helvetica,sans-Serif" font-size="10.00">+</text>
<text text-anchor="start" x="1117" y="-320.5" font-family="Helvetica,sans-Serif" font-size="10.00">AvatarIndex</text>
<text text-anchor="start" x="1102" y="-304.5" font-family="Helvetica,sans-Serif" font-size="10.00">+</text>
<text text-anchor="start" x="1117" y="-304.5" font-family="Helvetica,sans-Serif" font-size="10.00">OnPlayerSpawn()</text>
<text text-anchor="start" x="1102" y="-288.5" font-family="Helvetica,sans-Serif" font-size="10.00">+</text>
<text text-anchor="start" x="1117" y="-288.5" font-family="Helvetica,sans-Serif" font-size="10.00">OnPlayerDespawn()</text>
<text text-anchor="start" x="1102" y="-272.5" font-family="Helvetica,sans-Serif" font-size="10.00">+</text>
<text text-anchor="start" x="1117" y="-272.5" font-family="Helvetica,sans-Serif" font-size="10.00">OnNetworkSpawn()</text>
<text text-anchor="start" x="1102" y="-256.5" font-family="Helvetica,sans-Serif" font-size="10.00">+</text>
<text text-anchor="start" x="1117" y="-256.5" font-family="Helvetica,sans-Serif" font-size="10.00">OnNetworkDespawn()</text>
<polygon fill="#666666" stroke="#666666" points="1093,-332 1093,-332 1228,-332 1228,-332 1093,-332"/>
<polygon fill="#666666" stroke="#666666" points="1093,-316 1093,-316 1115,-316 1115,-316 1093,-316"/>
<polygon fill="#666666" stroke="#666666" points="1115,-316 1115,-316 1228,-316 1228,-316 1115,-316"/>
<polygon fill="none" stroke="#666666" points="1093,-250 1093,-362 1228,-362 1228,-250 1093,-250"/>
</a>
</g>
</g>
<!-- Node1&#45;&gt;Node9 -->
<g id="edge8_Node000001_Node000009" class="edge">
<title>Node1&#45;&gt;Node9</title>
<g id="a_edge8_Node000001_Node000009"><a xlink:title=" ">
<path fill="none" stroke="#63b8ff" d="M986.27,-525.92C1018.36,-517.08 1057.53,-501.77 1084.5,-476 1116.71,-445.22 1136.32,-398.28 1147.52,-361.67"/>
<polygon fill="none" stroke="#63b8ff" points="985.51,-522.51 976.71,-528.41 987.27,-529.28 985.51,-522.51"/>
</a>
</g>
</g>
<!-- Node10 -->
<g id="Node000010" class="node">
<title>Node10</title>
<g id="a_Node000010"><a xlink:href="class_network_singleton.html" target="_top" xlink:title="Represents a singleton network behaviour that can be accessed globally.">
<polygon fill="white" stroke="none" points="1356.5,-348 1246.5,-348 1246.5,-264 1356.5,-264 1356.5,-348"/>
<text text-anchor="start" x="1251.25" y="-334.5" font-family="Helvetica,sans-Serif" font-size="10.00">NetworkSingleton&lt; T &gt;</text>
<text text-anchor="start" x="1260" y="-318.5" font-family="Helvetica,sans-Serif" font-size="10.00">+</text>
<text text-anchor="start" x="1279.5" y="-318.5" font-family="Helvetica,sans-Serif" font-size="10.00">Instance</text>
<text text-anchor="start" x="1260" y="-302.5" font-family="Helvetica,sans-Serif" font-size="10.00">+</text>
<text text-anchor="start" x="1279.5" y="-302.5" font-family="Helvetica,sans-Serif" font-size="10.00">Awake()</text>
<text text-anchor="start" x="1260" y="-286.5" font-family="Helvetica,sans-Serif" font-size="10.00">+</text>
<text text-anchor="start" x="1279.5" y="-286.5" font-family="Helvetica,sans-Serif" font-size="10.00">OnDestroy()</text>
<text text-anchor="start" x="1260" y="-270.5" font-family="Helvetica,sans-Serif" font-size="10.00">+</text>
<text text-anchor="start" x="1279.5" y="-270.5" font-family="Helvetica,sans-Serif" font-size="10.00">OnEnable()</text>
<polygon fill="#666666" stroke="#666666" points="1246.5,-330 1246.5,-330 1356.5,-330 1356.5,-330 1246.5,-330"/>
<polygon fill="#666666" stroke="#666666" points="1246.5,-314 1246.5,-314 1277.5,-314 1277.5,-314 1246.5,-314"/>
<polygon fill="#666666" stroke="#666666" points="1277.5,-314 1277.5,-314 1356.5,-314 1356.5,-314 1277.5,-314"/>
<polygon fill="none" stroke="#666666" points="1246.5,-264 1246.5,-348 1356.5,-348 1356.5,-264 1246.5,-264"/>
</a>
</g>
</g>
<!-- Node1&#45;&gt;Node10 -->
<g id="edge9_Node000001_Node000010" class="edge">
<title>Node1&#45;&gt;Node10</title>
<g id="a_edge9_Node000001_Node000010"><a xlink:title=" ">
<path fill="none" stroke="#63b8ff" d="M986.48,-532.35C1064.43,-524.81 1200.29,-507.5 1237.5,-476 1275.45,-443.87 1290.94,-386.74 1297.24,-347.89"/>
<polygon fill="none" stroke="#63b8ff" points="986.56,-528.82 976.93,-533.25 987.21,-535.79 986.56,-528.82"/>
</a>
</g>
</g>
<!-- Node11 -->
<g id="Node000011" class="node">
<title>Node11</title>
<g id="a_Node000011"><a xlink:href="class_p_a1_a_1_1_characters_1_1_character.html" target="_top" xlink:title=" ">
<polygon fill="white" stroke="none" points="1512,-476 1375,-476 1375,-136 1512,-136 1512,-476"/>
<text text-anchor="start" x="1382.75" y="-462.5" font-family="Helvetica,sans-Serif" font-size="10.00">PA1A.Characters.Character</text>
<text text-anchor="start" x="1379" y="-446.5" font-family="Helvetica,sans-Serif" font-size="10.00">+</text>
<text text-anchor="start" x="1389" y="-446.5" font-family="Helvetica,sans-Serif" font-size="10.00">OnHealthChanged</text>
<text text-anchor="start" x="1379" y="-430.5" font-family="Helvetica,sans-Serif" font-size="10.00">+</text>
<text text-anchor="start" x="1389" y="-430.5" font-family="Helvetica,sans-Serif" font-size="10.00">OnStaminaChanged</text>
<text text-anchor="start" x="1379" y="-414.5" font-family="Helvetica,sans-Serif" font-size="10.00">+</text>
<text text-anchor="start" x="1389" y="-414.5" font-family="Helvetica,sans-Serif" font-size="10.00">OnEquipedItemChanged</text>
<text text-anchor="start" x="1379" y="-398.5" font-family="Helvetica,sans-Serif" font-size="10.00">+</text>
<text text-anchor="start" x="1389" y="-398.5" font-family="Helvetica,sans-Serif" font-size="10.00">affectingAbilities</text>
<text text-anchor="start" x="1379" y="-382.5" font-family="Helvetica,sans-Serif" font-size="10.00">+</text>
<text text-anchor="start" x="1389" y="-382.5" font-family="Helvetica,sans-Serif" font-size="10.00">Team</text>
<text text-anchor="start" x="1379" y="-366.5" font-family="Helvetica,sans-Serif" font-size="10.00">+</text>
<text text-anchor="start" x="1389" y="-366.5" font-family="Helvetica,sans-Serif" font-size="10.00">Health</text>
<text text-anchor="start" x="1379" y="-350.5" font-family="Helvetica,sans-Serif" font-size="10.00">+</text>
<text text-anchor="start" x="1389" y="-350.5" font-family="Helvetica,sans-Serif" font-size="10.00">MaxHealth</text>
<text text-anchor="start" x="1379" y="-334.5" font-family="Helvetica,sans-Serif" font-size="10.00">+</text>
<text text-anchor="start" x="1389" y="-334.5" font-family="Helvetica,sans-Serif" font-size="10.00">Stamina</text>
<text text-anchor="start" x="1379" y="-318.5" font-family="Helvetica,sans-Serif" font-size="10.00">+</text>
<text text-anchor="start" x="1389" y="-318.5" font-family="Helvetica,sans-Serif" font-size="10.00">MaxStamina</text>
<text text-anchor="start" x="1379" y="-302.5" font-family="Helvetica,sans-Serif" font-size="10.00">+</text>
<text text-anchor="start" x="1389" y="-302.5" font-family="Helvetica,sans-Serif" font-size="10.00">StrengthModifier</text>
<text text-anchor="start" x="1379" y="-286.5" font-family="Helvetica,sans-Serif" font-size="10.00">+</text>
<text text-anchor="start" x="1389" y="-286.5" font-family="Helvetica,sans-Serif" font-size="10.00">OnNetworkSpawn()</text>
<text text-anchor="start" x="1379" y="-270.5" font-family="Helvetica,sans-Serif" font-size="10.00">+</text>
<text text-anchor="start" x="1389" y="-270.5" font-family="Helvetica,sans-Serif" font-size="10.00">ProcessAbility()</text>
<text text-anchor="start" x="1379" y="-254.5" font-family="Helvetica,sans-Serif" font-size="10.00">+</text>
<text text-anchor="start" x="1389" y="-254.5" font-family="Helvetica,sans-Serif" font-size="10.00">ProcessAbilityServerRPC()</text>
<text text-anchor="start" x="1379" y="-238.5" font-family="Helvetica,sans-Serif" font-size="10.00">+</text>
<text text-anchor="start" x="1389" y="-238.5" font-family="Helvetica,sans-Serif" font-size="10.00">ProcessAffectingAbilities()</text>
<text text-anchor="start" x="1379" y="-222.5" font-family="Helvetica,sans-Serif" font-size="10.00">+</text>
<text text-anchor="start" x="1389" y="-222.5" font-family="Helvetica,sans-Serif" font-size="10.00">ClearAffects()</text>
<text text-anchor="start" x="1379" y="-206.5" font-family="Helvetica,sans-Serif" font-size="10.00">+</text>
<text text-anchor="start" x="1389" y="-206.5" font-family="Helvetica,sans-Serif" font-size="10.00">ClearAffectsServerRPC()</text>
<text text-anchor="start" x="1379" y="-190.5" font-family="Helvetica,sans-Serif" font-size="10.00">+</text>
<text text-anchor="start" x="1389" y="-190.5" font-family="Helvetica,sans-Serif" font-size="10.00">ClearAffectsClientRPC()</text>
<text text-anchor="start" x="1379" y="-174.5" font-family="Helvetica,sans-Serif" font-size="10.00">+</text>
<text text-anchor="start" x="1389" y="-174.5" font-family="Helvetica,sans-Serif" font-size="10.00">FixedUpdate()</text>
<text text-anchor="start" x="1379" y="-158.5" font-family="Helvetica,sans-Serif" font-size="10.00">+</text>
<text text-anchor="start" x="1389" y="-158.5" font-family="Helvetica,sans-Serif" font-size="10.00">EquipItem()</text>
<text text-anchor="start" x="1379" y="-142.5" font-family="Helvetica,sans-Serif" font-size="10.00">+</text>
<text text-anchor="start" x="1389" y="-142.5" font-family="Helvetica,sans-Serif" font-size="10.00">EquipItemRPC()</text>
<polygon fill="#666666" stroke="#666666" points="1375,-458 1375,-458 1512,-458 1512,-458 1375,-458"/>
<polygon fill="#666666" stroke="#666666" points="1375,-298 1375,-298 1387,-298 1387,-298 1375,-298"/>
<polygon fill="#666666" stroke="#666666" points="1387,-298 1387,-298 1512,-298 1512,-298 1387,-298"/>
<polygon fill="none" stroke="#666666" points="1375,-136 1375,-476 1512,-476 1512,-136 1375,-136"/>
</a>
</g>
</g>
<!-- Node1&#45;&gt;Node11 -->
<g id="edge10_Node000001_Node000011" class="edge">
<title>Node1&#45;&gt;Node11</title>
<g id="a_edge10_Node000001_Node000011"><a xlink:title=" ">
<path fill="none" stroke="#63b8ff" d="M986.9,-535.67C1090.67,-532.18 1306.63,-519.73 1365.5,-476 1368.87,-473.5 1372.1,-470.81 1375.2,-467.97"/>
<polygon fill="none" stroke="#63b8ff" points="986.82,-532.17 976.93,-535.99 987.04,-539.17 986.82,-532.17"/>
</a>
</g>
</g>
<!-- Node12 -->
<g id="Node000012" class="node">
<title>Node12</title>
<g id="a_Node000012"><a xlink:href="class_p_a1_a_1_1_characters_1_1_character_stats.html" target="_top" xlink:title=" ">
<polygon fill="white" stroke="none" points="1665,-386 1530,-386 1530,-226 1665,-226 1665,-386"/>
<text text-anchor="start" x="1536.75" y="-372.5" font-family="Helvetica,sans-Serif" font-size="10.00">PA1A.Characters.Character</text>
<text text-anchor="start" x="1585.88" y="-360.5" font-family="Helvetica,sans-Serif" font-size="10.00">Stats</text>
<text text-anchor="start" x="1534" y="-344.5" font-family="Helvetica,sans-Serif" font-size="10.00">+</text>
<text text-anchor="start" x="1544" y="-344.5" font-family="Helvetica,sans-Serif" font-size="10.00">team</text>
<text text-anchor="start" x="1534" y="-328.5" font-family="Helvetica,sans-Serif" font-size="10.00">+</text>
<text text-anchor="start" x="1544" y="-328.5" font-family="Helvetica,sans-Serif" font-size="10.00">maxHealth</text>
<text text-anchor="start" x="1534" y="-312.5" font-family="Helvetica,sans-Serif" font-size="10.00">+</text>
<text text-anchor="start" x="1544" y="-312.5" font-family="Helvetica,sans-Serif" font-size="10.00">health</text>
<text text-anchor="start" x="1534" y="-296.5" font-family="Helvetica,sans-Serif" font-size="10.00">+</text>
<text text-anchor="start" x="1544" y="-296.5" font-family="Helvetica,sans-Serif" font-size="10.00">maxStamina</text>
<text text-anchor="start" x="1534" y="-280.5" font-family="Helvetica,sans-Serif" font-size="10.00">+</text>
<text text-anchor="start" x="1544" y="-280.5" font-family="Helvetica,sans-Serif" font-size="10.00">stamina</text>
<text text-anchor="start" x="1534" y="-264.5" font-family="Helvetica,sans-Serif" font-size="10.00">+</text>
<text text-anchor="start" x="1544" y="-264.5" font-family="Helvetica,sans-Serif" font-size="10.00">strengthModifier</text>
<text text-anchor="start" x="1534" y="-248.5" font-family="Helvetica,sans-Serif" font-size="10.00">+</text>
<text text-anchor="start" x="1544" y="-248.5" font-family="Helvetica,sans-Serif" font-size="10.00">currentlyEquipedItemGUID</text>
<text text-anchor="start" x="1596" y="-232.5" font-family="Helvetica,sans-Serif" font-size="10.00"> </text>
<polygon fill="#666666" stroke="#666666" points="1530,-356 1530,-356 1665,-356 1665,-356 1530,-356"/>
<polygon fill="#666666" stroke="#666666" points="1530,-244 1530,-244 1542,-244 1542,-244 1530,-244"/>
<polygon fill="#666666" stroke="#666666" points="1542,-244 1542,-244 1665,-244 1665,-244 1542,-244"/>
<polygon fill="none" stroke="#666666" points="1530,-226 1530,-386 1665,-386 1665,-226 1530,-226"/>
</a>
</g>
</g>
<!-- Node1&#45;&gt;Node12 -->
<g id="edge11_Node000001_Node000012" class="edge">
<title>Node1&#45;&gt;Node12</title>
<g id="a_edge11_Node000001_Node000012"><a xlink:title=" ">
<path fill="none" stroke="#63b8ff" d="M986.44,-534.39C1125.49,-527.45 1478.65,-506.95 1521.5,-476 1551.1,-454.62 1569.39,-418.98 1580.59,-385.92"/>
<polygon fill="none" stroke="#63b8ff" points="986.56,-530.88 976.75,-534.86 986.91,-537.87 986.56,-530.88"/>
</a>
</g>
</g>
<!-- Node13 -->
<g id="Node000013" class="node">
<title>Node13</title>
<g id="a_Node000013"><a xlink:href="class_p_a1_a_1_1_items_1_1_container.html" target="_top" xlink:title=" ">
<polygon fill="white" stroke="none" points="1797.5,-444 1683.5,-444 1683.5,-168 1797.5,-168 1797.5,-444"/>
<text text-anchor="start" x="1691.75" y="-430.5" font-family="Helvetica,sans-Serif" font-size="10.00">PA1A.Items.Container</text>
<text text-anchor="start" x="1687.5" y="-414.5" font-family="Helvetica,sans-Serif" font-size="10.00">+</text>
<text text-anchor="start" x="1697.5" y="-414.5" font-family="Helvetica,sans-Serif" font-size="10.00">Size</text>
<text text-anchor="start" x="1687.5" y="-398.5" font-family="Helvetica,sans-Serif" font-size="10.00">+</text>
<text text-anchor="start" x="1697.5" y="-398.5" font-family="Helvetica,sans-Serif" font-size="10.00">this[int i]</text>
<text text-anchor="start" x="1687.5" y="-382.5" font-family="Helvetica,sans-Serif" font-size="10.00">+</text>
<text text-anchor="start" x="1697.5" y="-382.5" font-family="Helvetica,sans-Serif" font-size="10.00">GetSlot()</text>
<text text-anchor="start" x="1687.5" y="-366.5" font-family="Helvetica,sans-Serif" font-size="10.00">+</text>
<text text-anchor="start" x="1697.5" y="-366.5" font-family="Helvetica,sans-Serif" font-size="10.00">OnNetworkSpawn()</text>
<text text-anchor="start" x="1687.5" y="-350.5" font-family="Helvetica,sans-Serif" font-size="10.00">+</text>
<text text-anchor="start" x="1697.5" y="-350.5" font-family="Helvetica,sans-Serif" font-size="10.00">OnNetworkDespawn()</text>
<text text-anchor="start" x="1687.5" y="-334.5" font-family="Helvetica,sans-Serif" font-size="10.00">+</text>
<text text-anchor="start" x="1697.5" y="-334.5" font-family="Helvetica,sans-Serif" font-size="10.00">Give()</text>
<text text-anchor="start" x="1687.5" y="-318.5" font-family="Helvetica,sans-Serif" font-size="10.00">+</text>
<text text-anchor="start" x="1697.5" y="-318.5" font-family="Helvetica,sans-Serif" font-size="10.00">Take()</text>
<text text-anchor="start" x="1687.5" y="-302.5" font-family="Helvetica,sans-Serif" font-size="10.00">+</text>
<text text-anchor="start" x="1697.5" y="-302.5" font-family="Helvetica,sans-Serif" font-size="10.00">Take()</text>
<text text-anchor="start" x="1687.5" y="-286.5" font-family="Helvetica,sans-Serif" font-size="10.00">+</text>
<text text-anchor="start" x="1697.5" y="-286.5" font-family="Helvetica,sans-Serif" font-size="10.00">CanBeGiven()</text>
<text text-anchor="start" x="1687.5" y="-270.5" font-family="Helvetica,sans-Serif" font-size="10.00">+</text>
<text text-anchor="start" x="1697.5" y="-270.5" font-family="Helvetica,sans-Serif" font-size="10.00">CanBeTaken()</text>
<text text-anchor="start" x="1687.5" y="-254.5" font-family="Helvetica,sans-Serif" font-size="10.00">+</text>
<text text-anchor="start" x="1697.5" y="-254.5" font-family="Helvetica,sans-Serif" font-size="10.00">Clear()</text>
<text text-anchor="start" x="1687.88" y="-238.5" font-family="Helvetica,sans-Serif" font-size="10.00">#</text>
<text text-anchor="start" x="1697.5" y="-238.5" font-family="Helvetica,sans-Serif" font-size="10.00">Awake()</text>
<text text-anchor="start" x="1687.88" y="-222.5" font-family="Helvetica,sans-Serif" font-size="10.00">#</text>
<text text-anchor="start" x="1697.5" y="-222.5" font-family="Helvetica,sans-Serif" font-size="10.00">OnContainerUpdate()</text>
<text text-anchor="start" x="1687.88" y="-206.5" font-family="Helvetica,sans-Serif" font-size="10.00">#</text>
<text text-anchor="start" x="1697.5" y="-206.5" font-family="Helvetica,sans-Serif" font-size="10.00">AddSlot()</text>
<text text-anchor="start" x="1687.88" y="-190.5" font-family="Helvetica,sans-Serif" font-size="10.00">#</text>
<text text-anchor="start" x="1697.5" y="-190.5" font-family="Helvetica,sans-Serif" font-size="10.00">RemoveSlot()</text>
<text text-anchor="start" x="1687.88" y="-174.5" font-family="Helvetica,sans-Serif" font-size="10.00">#</text>
<text text-anchor="start" x="1697.5" y="-174.5" font-family="Helvetica,sans-Serif" font-size="10.00">ClearSlots()</text>
<polygon fill="#666666" stroke="#666666" points="1683.5,-426 1683.5,-426 1797.5,-426 1797.5,-426 1683.5,-426"/>
<polygon fill="#666666" stroke="#666666" points="1683.5,-394 1683.5,-394 1695.5,-394 1695.5,-394 1683.5,-394"/>
<polygon fill="#666666" stroke="#666666" points="1695.5,-394 1695.5,-394 1797.5,-394 1797.5,-394 1695.5,-394"/>
<polygon fill="none" stroke="#666666" points="1683.5,-168 1683.5,-444 1797.5,-444 1797.5,-168 1683.5,-168"/>
</a>
</g>
</g>
<!-- Node1&#45;&gt;Node13 -->
<g id="edge12_Node000001_Node000013" class="edge">
<title>Node1&#45;&gt;Node13</title>
<g id="a_edge12_Node000001_Node000013"><a xlink:title=" ">
<path fill="none" stroke="#63b8ff" d="M986.73,-535.78C1150.62,-531.77 1619.72,-516.8 1674.5,-476 1686.25,-467.25 1695.9,-456.11 1703.84,-443.72"/>
<polygon fill="none" stroke="#63b8ff" points="986.9,-532.28 976.98,-536.02 987.06,-539.28 986.9,-532.28"/>
</a>
</g>
</g>
<!-- Node14 -->
<g id="Node000014" class="node">
<title>Node14</title>
<g id="a_Node000014"><a xlink:href="class_p_a1_a_1_1_items_1_1_flexible_size_container.html" target="_top" xlink:title=" ">
<polygon fill="white" stroke="none" points="1737.5,-100 1577.5,-100 1577.5,0 1737.5,0 1737.5,-100"/>
<text text-anchor="start" x="1582.12" y="-86.5" font-family="Helvetica,sans-Serif" font-size="10.00">PA1A.Items.FlexibleSizeContainer</text>
<text text-anchor="start" x="1656" y="-70.5" font-family="Helvetica,sans-Serif" font-size="10.00"> </text>
<text text-anchor="start" x="1594" y="-54.5" font-family="Helvetica,sans-Serif" font-size="10.00">+</text>
<text text-anchor="start" x="1616.5" y="-54.5" font-family="Helvetica,sans-Serif" font-size="10.00">Give()</text>
<text text-anchor="start" x="1594" y="-38.5" font-family="Helvetica,sans-Serif" font-size="10.00">+</text>
<text text-anchor="start" x="1616.5" y="-38.5" font-family="Helvetica,sans-Serif" font-size="10.00">Take()</text>
<text text-anchor="start" x="1594" y="-22.5" font-family="Helvetica,sans-Serif" font-size="10.00">+</text>
<text text-anchor="start" x="1616.5" y="-22.5" font-family="Helvetica,sans-Serif" font-size="10.00">Clear()</text>
<text text-anchor="start" x="1594.38" y="-6.5" font-family="Helvetica,sans-Serif" font-size="10.00">#</text>
<text text-anchor="start" x="1616.5" y="-6.5" font-family="Helvetica,sans-Serif" font-size="10.00">OnContainerUpdate()</text>
<polygon fill="#666666" stroke="#666666" points="1577.5,-82 1577.5,-82 1737.5,-82 1737.5,-82 1577.5,-82"/>
<polygon fill="#666666" stroke="#666666" points="1577.5,-66 1577.5,-66 1737.5,-66 1737.5,-66 1577.5,-66"/>
<polygon fill="none" stroke="#666666" points="1577.5,0 1577.5,-100 1737.5,-100 1737.5,0 1577.5,0"/>
</a>
</g>
</g>
<!-- Node13&#45;&gt;Node14 -->
<g id="edge13_Node000013_Node000014" class="edge">
<title>Node13&#45;&gt;Node14</title>
<g id="a_edge13_Node000013_Node000014"><a xlink:title=" ">
<path fill="none" stroke="#63b8ff" d="M1692.28,-157.45C1685.52,-136.74 1679,-116.79 1673.47,-99.86"/>
<polygon fill="none" stroke="#63b8ff" points="1688.94,-158.48 1695.37,-166.9 1695.59,-156.3 1688.94,-158.48"/>
</a>
</g>
</g>
<!-- Node15 -->
<g id="Node000015" class="node">
<title>Node15</title>
<g id="a_Node000015"><a xlink:href="class_p_a1_a_1_1_items_1_1_player_inventory.html" target="_top" xlink:title="Fixed size IContainer with fixed number of ISlot">
<polygon fill="white" stroke="none" points="1889,-100 1756,-100 1756,0 1889,0 1889,-100"/>
<text text-anchor="start" x="1760.62" y="-86.5" font-family="Helvetica,sans-Serif" font-size="10.00">PA1A.Items.PlayerInventory</text>
<text text-anchor="start" x="1821" y="-70.5" font-family="Helvetica,sans-Serif" font-size="10.00"> </text>
<text text-anchor="start" x="1767.5" y="-54.5" font-family="Helvetica,sans-Serif" font-size="10.00">+</text>
<text text-anchor="start" x="1785" y="-54.5" font-family="Helvetica,sans-Serif" font-size="10.00">OnNetworkSpawn()</text>
<text text-anchor="start" x="1767.5" y="-38.5" font-family="Helvetica,sans-Serif" font-size="10.00">+</text>
<text text-anchor="start" x="1785" y="-38.5" font-family="Helvetica,sans-Serif" font-size="10.00">Give()</text>
<text text-anchor="start" x="1767.5" y="-22.5" font-family="Helvetica,sans-Serif" font-size="10.00">+</text>
<text text-anchor="start" x="1785" y="-22.5" font-family="Helvetica,sans-Serif" font-size="10.00">Take()</text>
<text text-anchor="start" x="1767.5" y="-6.5" font-family="Helvetica,sans-Serif" font-size="10.00">+</text>
<text text-anchor="start" x="1785" y="-6.5" font-family="Helvetica,sans-Serif" font-size="10.00">Clear()</text>
<polygon fill="#666666" stroke="#666666" points="1756,-82 1756,-82 1889,-82 1889,-82 1756,-82"/>
<polygon fill="#666666" stroke="#666666" points="1756,-66 1756,-66 1889,-66 1889,-66 1756,-66"/>
<polygon fill="none" stroke="#666666" points="1756,0 1756,-100 1889,-100 1889,0 1756,0"/>
</a>
</g>
</g>
<!-- Node13&#45;&gt;Node15 -->
<g id="edge14_Node000013_Node000015" class="edge">
<title>Node13&#45;&gt;Node15</title>
<g id="a_edge14_Node000013_Node000015"><a xlink:title=" ">
<path fill="none" stroke="#63b8ff" d="M1788.13,-157.45C1794.82,-136.74 1801.26,-116.79 1806.73,-99.86"/>
<polygon fill="none" stroke="#63b8ff" points="1784.83,-156.3 1785.09,-166.89 1791.49,-158.45 1784.83,-156.3"/>
</a>
</g>
</g>
</g>
</svg>

<g id="navigator" transform="translate(0 0)" fill="#404254">
  <rect fill="#f2f5e9" fill-opacity="0.5" stroke="#606060" stroke-width=".5" x="0" y="0" width="60" height="60"/>
  <use id="zoomplus" xlink:href="#zoomPlus" x="17" y="9" onmousedown="handleZoom(evt,'in')"/>
  <use id="zoomminus" xlink:href="#zoomMin" x="42" y="9" onmousedown="handleZoom(evt,'out')"/>
  <use id="reset" xlink:href="#resetDef" x="30" y="36" onmousedown="handleReset()"/>
   <use id="arrowup" xlink:href="#arrowUp" x="0" y="0" onmousedown="handlePan(0,-1)"/>
  <use id="arrowright" xlink:href="#arrowRight" x="0" y="0" onmousedown="handlePan(1,0)"/>
  <use id="arrowdown" xlink:href="#arrowDown" x="0" y="0" onmousedown="handlePan(0,1)"/>
  <use id="arrowleft" xlink:href="#arrowLeft" x="0" y="0" onmousedown="handlePan(-1,0)"/>
</g>
<svg viewBox="0 0 15 15" width="100%" height="30px" preserveAspectRatio="xMaxYMin meet">
 <g id="arrow_out" transform="scale(0.3 0.3)">
  <a xlink:href="class_network_behaviour__inherit__graph_org.svg" target="_base">
   <rect id="button" ry="5" rx="5" y="6" x="6" height="38" width="38"
        fill="#f2f5e9" fill-opacity="0.5" stroke="#606060" stroke-width="1.0"/>
   <path id="arrow"
     d="M 11.500037,31.436501 C 11.940474,20.09759 22.043105,11.32322 32.158766,21.979434 L 37.068811,17.246167 C 37.068811,17.246167 37.088388,32 37.088388,32 L 22.160133,31.978069 C 22.160133,31.978069 26.997745,27.140456 26.997745,27.140456 C 18.528582,18.264221 13.291696,25.230495 11.500037,31.436501 z"
     style="fill:#404040;"/>
  </a>
 </g>
</svg>

<style type='text/css'>
<![CDATA[
[data-mouse-over-selected='false'] { opacity: 0.7; }
[data-mouse-over-selected='true']  { opacity: 1.0; }
]]>
</style>
<script type="application/ecmascript"><![CDATA[
document.addEventListener('DOMContentLoaded', (event) => {
  highlightEdges();
  highlightAdjacentNodes();
});
]]></script>
</svg>
