<?xml version="1.0" encoding="UTF-8" standalone="no"?>
<!DOCTYPE svg PUBLIC "-//W3C//DTD SVG 1.1//EN"
 "http://www.w3.org/Graphics/SVG/1.1/DTD/svg11.dtd">
<!-- Generated by graphviz version 12.1.2 (20240928.0832)
 -->
<!-- Title: CodeSmile.MultiPal.Players.Couch.CouchPlayers Pages: 1 -->
<svg width="180pt" height="256pt"
 viewBox="0.00 0.00 180.00 256.00" xmlns="http://www.w3.org/2000/svg" xmlns:xlink="http://www.w3.org/1999/xlink">
<g id="graph0" class="graph" transform="scale(1 1) rotate(0) translate(4 252)">
<title>CodeSmile.MultiPal.Players.Couch.CouchPlayers</title>
<!-- Node1 -->
<g id="Node000001" class="node">
<title>Node1</title>
<g id="a_Node000001"><a xlink:title="Represents the group of players (1&#45;4) playing on a single client.">
<polygon fill="#999999" stroke="none" points="159.5,-160 24.5,-160 24.5,0 159.5,0 159.5,-160"/>
<text text-anchor="start" x="29.38" y="-146.5" font-family="Helvetica,sans-Serif" font-size="10.00">CodeSmile.MultiPal.Players.</text>
<text text-anchor="start" x="45.5" y="-134.5" font-family="Helvetica,sans-Serif" font-size="10.00">Couch.CouchPlayers</text>
<text text-anchor="start" x="33.5" y="-118.5" font-family="Helvetica,sans-Serif" font-size="10.00">+</text>
<text text-anchor="start" x="48.5" y="-118.5" font-family="Helvetica,sans-Serif" font-size="10.00">this[Int32 index]</text>
<text text-anchor="start" x="33.5" y="-102.5" font-family="Helvetica,sans-Serif" font-size="10.00">+</text>
<text text-anchor="start" x="48.5" y="-102.5" font-family="Helvetica,sans-Serif" font-size="10.00">PlayerCount</text>
<text text-anchor="start" x="33.5" y="-86.5" font-family="Helvetica,sans-Serif" font-size="10.00">+</text>
<text text-anchor="start" x="48.5" y="-86.5" font-family="Helvetica,sans-Serif" font-size="10.00">GetEnumerator()</text>
<text text-anchor="start" x="33.5" y="-70.5" font-family="Helvetica,sans-Serif" font-size="10.00">+</text>
<text text-anchor="start" x="48.5" y="-70.5" font-family="Helvetica,sans-Serif" font-size="10.00">OnNetworkSpawn()</text>
<text text-anchor="start" x="33.5" y="-54.5" font-family="Helvetica,sans-Serif" font-size="10.00">+</text>
<text text-anchor="start" x="48.5" y="-54.5" font-family="Helvetica,sans-Serif" font-size="10.00">OnNetworkDespawn()</text>
<text text-anchor="start" x="33.5" y="-38.5" font-family="Helvetica,sans-Serif" font-size="10.00">+</text>
<text text-anchor="start" x="48.5" y="-38.5" font-family="Helvetica,sans-Serif" font-size="10.00">StartSpawnPlayers()</text>
<text text-anchor="start" x="33.5" y="-22.5" font-family="Helvetica,sans-Serif" font-size="10.00">~</text>
<text text-anchor="start" x="48.5" y="-22.5" font-family="Helvetica,sans-Serif" font-size="10.00">RemotePlayerJoined()</text>
<text text-anchor="start" x="33.5" y="-6.5" font-family="Helvetica,sans-Serif" font-size="10.00">~</text>
<text text-anchor="start" x="48.5" y="-6.5" font-family="Helvetica,sans-Serif" font-size="10.00">RemotePlayerLeft()</text>
<polygon fill="#666666" stroke="#666666" points="24.5,-130 24.5,-130 159.5,-130 159.5,-130 24.5,-130"/>
<polygon fill="#666666" stroke="#666666" points="24.5,-98 24.5,-98 46.5,-98 46.5,-98 24.5,-98"/>
<polygon fill="#666666" stroke="#666666" points="46.5,-98 46.5,-98 159.5,-98 159.5,-98 46.5,-98"/>
<polygon fill="none" stroke="#666666" points="24.5,0 24.5,-160 159.5,-160 159.5,0 24.5,0"/>
</a>
</g>
</g>
<!-- Node2 -->
<g id="Node000002" class="node">
<title>Node2</title>
<g id="a_Node000002"><a xlink:href="class_network_behaviour.html" target="_top" xlink:title=" ">
<polygon fill="white" stroke="none" points="90,-248 0,-248 0,-196 90,-196 90,-248"/>
<text text-anchor="start" x="4.88" y="-234.5" font-family="Helvetica,sans-Serif" font-size="10.00">NetworkBehaviour</text>
<text text-anchor="start" x="43.5" y="-218.5" font-family="Helvetica,sans-Serif" font-size="10.00"> </text>
<text text-anchor="start" x="43.5" y="-202.5" font-family="Helvetica,sans-Serif" font-size="10.00"> </text>
<polygon fill="#666666" stroke="#666666" points="0,-230 0,-230 90,-230 90,-230 0,-230"/>
<polygon fill="#666666" stroke="#666666" points="0,-214 0,-214 90,-214 90,-214 0,-214"/>
<polygon fill="none" stroke="#666666" points="0,-196 0,-248 90,-248 90,-196 0,-196"/>
</a>
</g>
</g>
<!-- Node2&#45;&gt;Node1 -->
<g id="edge1_Node000001_Node000002" class="edge">
<title>Node2&#45;&gt;Node1</title>
<g id="a_edge1_Node000001_Node000002"><a xlink:title=" ">
<path fill="none" stroke="#63b8ff" d="M56.88,-185.6C59.57,-177.61 62.52,-168.82 65.53,-159.83"/>
<polygon fill="none" stroke="#63b8ff" points="53.64,-184.26 53.78,-194.86 60.28,-186.49 53.64,-184.26"/>
</a>
</g>
</g>
<!-- Node3 -->
<g id="Node000003" class="node">
<title>Node3</title>
<g id="a_Node000003"><a xlink:href="class_i_enumerable.html" target="_top" xlink:title=" ">
<polygon fill="white" stroke="none" points="172,-248 108,-248 108,-196 172,-196 172,-248"/>
<text text-anchor="start" x="112.62" y="-234.5" font-family="Helvetica,sans-Serif" font-size="10.00">IEnumerable</text>
<text text-anchor="start" x="138.5" y="-218.5" font-family="Helvetica,sans-Serif" font-size="10.00"> </text>
<text text-anchor="start" x="138.5" y="-202.5" font-family="Helvetica,sans-Serif" font-size="10.00"> </text>
<polygon fill="#666666" stroke="#666666" points="108,-230 108,-230 172,-230 172,-230 108,-230"/>
<polygon fill="#666666" stroke="#666666" points="108,-214 108,-214 172,-214 172,-214 108,-214"/>
<polygon fill="none" stroke="#666666" points="108,-196 108,-248 172,-248 172,-196 108,-196"/>
</a>
</g>
</g>
<!-- Node3&#45;&gt;Node1 -->
<g id="edge2_Node000001_Node000003" class="edge">
<title>Node3&#45;&gt;Node1</title>
<g id="a_edge2_Node000001_Node000003"><a xlink:title=" ">
<path fill="none" stroke="#63b8ff" d="M127.86,-185.6C125.12,-177.61 122.11,-168.82 119.03,-159.83"/>
<polygon fill="none" stroke="#63b8ff" points="124.48,-186.54 131.04,-194.86 131.11,-184.27 124.48,-186.54"/>
</a>
</g>
</g>
</g>
</svg>
