<?xml version="1.0" encoding="UTF-8" standalone="no"?>
<!DOCTYPE svg PUBLIC "-//W3C//DTD SVG 1.1//EN"
 "http://www.w3.org/Graphics/SVG/1.1/DTD/svg11.dtd">
<!-- Generated by graphviz version 12.1.2 (20240928.0832)
 -->
<!-- Title: Unity.Netcode.NetworkStandardList&lt; TOriginal, TCast &gt; Pages: 1 -->
<svg width="509pt" height="652pt"
 viewBox="0.00 0.00 509.00 652.00" xmlns="http://www.w3.org/2000/svg" xmlns:xlink="http://www.w3.org/1999/xlink">
<g id="graph0" class="graph" transform="scale(1 1) rotate(0) translate(4 648)">
<title>Unity.Netcode.NetworkStandardList&lt; TOriginal, TCast &gt;</title>
<!-- Node1 -->
<g id="Node000001" class="node">
<title>Node1</title>
<g id="a_Node000001"><a xlink:title="Represents a List&lt;T&gt; that is synchronized as a List&lt;T&gt; &#160;This allows you to synchronize managed types ...">
<polygon fill="#999999" stroke="none" points="331.5,-304 180.5,-304 180.5,0 331.5,0 331.5,-304"/>
<text text-anchor="start" x="185.5" y="-290.5" font-family="Helvetica,sans-Serif" font-size="10.00">Unity.Netcode.NetworkStandard</text>
<text text-anchor="start" x="203.88" y="-278.5" font-family="Helvetica,sans-Serif" font-size="10.00">List&lt; TOriginal, TCast &gt;</text>
<text text-anchor="start" x="189.5" y="-262.5" font-family="Helvetica,sans-Serif" font-size="10.00">+</text>
<text text-anchor="start" x="204.5" y="-262.5" font-family="Helvetica,sans-Serif" font-size="10.00">Count</text>
<text text-anchor="start" x="189.5" y="-246.5" font-family="Helvetica,sans-Serif" font-size="10.00">+</text>
<text text-anchor="start" x="204.5" y="-246.5" font-family="Helvetica,sans-Serif" font-size="10.00">this[int index]</text>
<text text-anchor="start" x="189.5" y="-230.5" font-family="Helvetica,sans-Serif" font-size="10.00">+</text>
<text text-anchor="start" x="204.5" y="-230.5" font-family="Helvetica,sans-Serif" font-size="10.00">IsReadOnly</text>
<text text-anchor="start" x="189.5" y="-214.5" font-family="Helvetica,sans-Serif" font-size="10.00">+</text>
<text text-anchor="start" x="204.5" y="-214.5" font-family="Helvetica,sans-Serif" font-size="10.00">IsFixedSize</text>
<text text-anchor="start" x="189.5" y="-198.5" font-family="Helvetica,sans-Serif" font-size="10.00">+</text>
<text text-anchor="start" x="204.5" y="-198.5" font-family="Helvetica,sans-Serif" font-size="10.00">IsSynchronized</text>
<text text-anchor="start" x="189.5" y="-182.5" font-family="Helvetica,sans-Serif" font-size="10.00">+</text>
<text text-anchor="start" x="204.5" y="-182.5" font-family="Helvetica,sans-Serif" font-size="10.00">SyncRoot</text>
<text text-anchor="start" x="189.5" y="-166.5" font-family="Helvetica,sans-Serif" font-size="10.00">+</text>
<text text-anchor="start" x="204.5" y="-166.5" font-family="Helvetica,sans-Serif" font-size="10.00">OnListChangedDelegate()</text>
<text text-anchor="start" x="189.5" y="-150.5" font-family="Helvetica,sans-Serif" font-size="10.00">+</text>
<text text-anchor="start" x="204.5" y="-150.5" font-family="Helvetica,sans-Serif" font-size="10.00">NetworkStandardList()</text>
<text text-anchor="start" x="189.5" y="-134.5" font-family="Helvetica,sans-Serif" font-size="10.00">+</text>
<text text-anchor="start" x="204.5" y="-134.5" font-family="Helvetica,sans-Serif" font-size="10.00">NetworkStandardList()</text>
<text text-anchor="start" x="189.5" y="-118.5" font-family="Helvetica,sans-Serif" font-size="10.00">+</text>
<text text-anchor="start" x="204.5" y="-118.5" font-family="Helvetica,sans-Serif" font-size="10.00">NetworkStandardList()</text>
<text text-anchor="start" x="189.5" y="-102.5" font-family="Helvetica,sans-Serif" font-size="10.00">+</text>
<text text-anchor="start" x="204.5" y="-102.5" font-family="Helvetica,sans-Serif" font-size="10.00">ResetDirty()</text>
<text text-anchor="start" x="189.5" y="-86.5" font-family="Helvetica,sans-Serif" font-size="10.00">+</text>
<text text-anchor="start" x="204.5" y="-86.5" font-family="Helvetica,sans-Serif" font-size="10.00">IsDirty()</text>
<text text-anchor="start" x="189.5" y="-70.5" font-family="Helvetica,sans-Serif" font-size="10.00">+</text>
<text text-anchor="start" x="204.5" y="-70.5" font-family="Helvetica,sans-Serif" font-size="10.00">WriteDelta()</text>
<text text-anchor="start" x="189.5" y="-54.5" font-family="Helvetica,sans-Serif" font-size="10.00">+</text>
<text text-anchor="start" x="204.5" y="-54.5" font-family="Helvetica,sans-Serif" font-size="10.00">WriteField()</text>
<text text-anchor="start" x="189.5" y="-38.5" font-family="Helvetica,sans-Serif" font-size="10.00">+</text>
<text text-anchor="start" x="204.5" y="-38.5" font-family="Helvetica,sans-Serif" font-size="10.00">ReadField()</text>
<text text-anchor="start" x="189.5" y="-22.5" font-family="Helvetica,sans-Serif" font-size="10.00">+</text>
<text text-anchor="start" x="204.5" y="-22.5" font-family="Helvetica,sans-Serif" font-size="10.00">ReadDelta()</text>
<text text-anchor="start" x="204.5" y="-6.5" font-family="Helvetica,sans-Serif" font-size="10.00">and 9 more...</text>
<polygon fill="#666666" stroke="#666666" points="180.5,-274 180.5,-274 331.5,-274 331.5,-274 180.5,-274"/>
<polygon fill="#666666" stroke="#666666" points="180.5,-178 180.5,-178 202.5,-178 202.5,-178 180.5,-178"/>
<polygon fill="#666666" stroke="#666666" points="202.5,-178 202.5,-178 331.5,-178 331.5,-178 202.5,-178"/>
<polygon fill="none" stroke="#666666" points="180.5,0 180.5,-304 331.5,-304 331.5,0 180.5,0"/>
</a>
</g>
</g>
<!-- Node2 -->
<g id="Node000002" class="node">
<title>Node2</title>
<g id="a_Node000002"><a xlink:href="class_unity_1_1_netcode_1_1_network_standard_list.html" target="_top" xlink:title=" ">
<polygon fill="white" stroke="none" points="130,-644 0,-644 0,-340 130,-340 130,-644"/>
<text text-anchor="start" x="19.25" y="-630.5" font-family="Helvetica,sans-Serif" font-size="10.00">NetworkStandardList</text>
<text text-anchor="start" x="48.12" y="-618.5" font-family="Helvetica,sans-Serif" font-size="10.00">&lt; T, T &gt;</text>
<text text-anchor="start" x="4" y="-602.5" font-family="Helvetica,sans-Serif" font-size="10.00">+</text>
<text text-anchor="start" x="14" y="-602.5" font-family="Helvetica,sans-Serif" font-size="10.00">Count</text>
<text text-anchor="start" x="4" y="-586.5" font-family="Helvetica,sans-Serif" font-size="10.00">+</text>
<text text-anchor="start" x="14" y="-586.5" font-family="Helvetica,sans-Serif" font-size="10.00">this[int index]</text>
<text text-anchor="start" x="4" y="-570.5" font-family="Helvetica,sans-Serif" font-size="10.00">+</text>
<text text-anchor="start" x="14" y="-570.5" font-family="Helvetica,sans-Serif" font-size="10.00">IsReadOnly</text>
<text text-anchor="start" x="4" y="-554.5" font-family="Helvetica,sans-Serif" font-size="10.00">+</text>
<text text-anchor="start" x="14" y="-554.5" font-family="Helvetica,sans-Serif" font-size="10.00">IsFixedSize</text>
<text text-anchor="start" x="4" y="-538.5" font-family="Helvetica,sans-Serif" font-size="10.00">+</text>
<text text-anchor="start" x="14" y="-538.5" font-family="Helvetica,sans-Serif" font-size="10.00">IsSynchronized</text>
<text text-anchor="start" x="4" y="-522.5" font-family="Helvetica,sans-Serif" font-size="10.00">+</text>
<text text-anchor="start" x="14" y="-522.5" font-family="Helvetica,sans-Serif" font-size="10.00">SyncRoot</text>
<text text-anchor="start" x="4" y="-506.5" font-family="Helvetica,sans-Serif" font-size="10.00">+</text>
<text text-anchor="start" x="14" y="-506.5" font-family="Helvetica,sans-Serif" font-size="10.00">OnListChangedDelegate()</text>
<text text-anchor="start" x="4" y="-490.5" font-family="Helvetica,sans-Serif" font-size="10.00">+</text>
<text text-anchor="start" x="14" y="-490.5" font-family="Helvetica,sans-Serif" font-size="10.00">NetworkStandardList()</text>
<text text-anchor="start" x="4" y="-474.5" font-family="Helvetica,sans-Serif" font-size="10.00">+</text>
<text text-anchor="start" x="14" y="-474.5" font-family="Helvetica,sans-Serif" font-size="10.00">NetworkStandardList()</text>
<text text-anchor="start" x="4" y="-458.5" font-family="Helvetica,sans-Serif" font-size="10.00">+</text>
<text text-anchor="start" x="14" y="-458.5" font-family="Helvetica,sans-Serif" font-size="10.00">NetworkStandardList()</text>
<text text-anchor="start" x="4" y="-442.5" font-family="Helvetica,sans-Serif" font-size="10.00">+</text>
<text text-anchor="start" x="14" y="-442.5" font-family="Helvetica,sans-Serif" font-size="10.00">ResetDirty()</text>
<text text-anchor="start" x="4" y="-426.5" font-family="Helvetica,sans-Serif" font-size="10.00">+</text>
<text text-anchor="start" x="14" y="-426.5" font-family="Helvetica,sans-Serif" font-size="10.00">IsDirty()</text>
<text text-anchor="start" x="4" y="-410.5" font-family="Helvetica,sans-Serif" font-size="10.00">+</text>
<text text-anchor="start" x="14" y="-410.5" font-family="Helvetica,sans-Serif" font-size="10.00">WriteDelta()</text>
<text text-anchor="start" x="4" y="-394.5" font-family="Helvetica,sans-Serif" font-size="10.00">+</text>
<text text-anchor="start" x="14" y="-394.5" font-family="Helvetica,sans-Serif" font-size="10.00">WriteField()</text>
<text text-anchor="start" x="4" y="-378.5" font-family="Helvetica,sans-Serif" font-size="10.00">+</text>
<text text-anchor="start" x="14" y="-378.5" font-family="Helvetica,sans-Serif" font-size="10.00">ReadField()</text>
<text text-anchor="start" x="4" y="-362.5" font-family="Helvetica,sans-Serif" font-size="10.00">+</text>
<text text-anchor="start" x="14" y="-362.5" font-family="Helvetica,sans-Serif" font-size="10.00">ReadDelta()</text>
<text text-anchor="start" x="14" y="-346.5" font-family="Helvetica,sans-Serif" font-size="10.00">and 9 more...</text>
<polygon fill="#666666" stroke="#666666" points="0,-614 0,-614 130,-614 130,-614 0,-614"/>
<polygon fill="#666666" stroke="#666666" points="0,-518 0,-518 12,-518 12,-518 0,-518"/>
<polygon fill="#666666" stroke="#666666" points="12,-518 12,-518 130,-518 130,-518 12,-518"/>
<polygon fill="none" stroke="#666666" points="0,-340 0,-644 130,-644 130,-340 0,-340"/>
</a>
</g>
</g>
<!-- Node2&#45;&gt;Node1 -->
<g id="edge1_Node000001_Node000002" class="edge">
<title>Node2&#45;&gt;Node1</title>
<g id="a_edge1_Node000001_Node000002"><a xlink:title=" ">
<path fill="none" stroke="#63b8ff" d="M135.28,-346.75C136.52,-344.48 137.76,-342.23 139,-340 151.89,-316.82 166.36,-292.5 180.62,-269.35"/>
<polygon fill="none" stroke="#63b8ff" points="132.23,-345.03 130.56,-355.49 138.39,-348.36 132.23,-345.03"/>
</a>
</g>
</g>
<!-- Node3 -->
<g id="Node000003" class="node">
<title>Node3</title>
<g id="a_Node000003"><a xlink:href="class_network_variable_base.html" target="_top" xlink:title=" ">
<polygon fill="white" stroke="none" points="251.5,-518 148.5,-518 148.5,-466 251.5,-466 251.5,-518"/>
<text text-anchor="start" x="153.12" y="-504.5" font-family="Helvetica,sans-Serif" font-size="10.00">NetworkVariableBase</text>
<text text-anchor="start" x="198.5" y="-488.5" font-family="Helvetica,sans-Serif" font-size="10.00"> </text>
<text text-anchor="start" x="198.5" y="-472.5" font-family="Helvetica,sans-Serif" font-size="10.00"> </text>
<polygon fill="#666666" stroke="#666666" points="148.5,-500 148.5,-500 251.5,-500 251.5,-500 148.5,-500"/>
<polygon fill="#666666" stroke="#666666" points="148.5,-484 148.5,-484 251.5,-484 251.5,-484 148.5,-484"/>
<polygon fill="none" stroke="#666666" points="148.5,-466 148.5,-518 251.5,-518 251.5,-466 148.5,-466"/>
</a>
</g>
</g>
<!-- Node3&#45;&gt;Node1 -->
<g id="edge2_Node000001_Node000003" class="edge">
<title>Node3&#45;&gt;Node1</title>
<g id="a_edge2_Node000001_Node000003"><a xlink:title=" ">
<path fill="none" stroke="#63b8ff" d="M205.94,-455.16C211.97,-418.78 221.71,-359.99 231,-303.9"/>
<polygon fill="none" stroke="#63b8ff" points="202.55,-454.22 204.37,-464.65 209.45,-455.36 202.55,-454.22"/>
</a>
</g>
</g>
<!-- Node4 -->
<g id="Node000004" class="node">
<title>Node4</title>
<g id="a_Node000004"><a xlink:href="class_i_list.html" target="_top" xlink:title=" ">
<polygon fill="white" stroke="none" points="354.5,-518 269.5,-518 269.5,-466 354.5,-466 354.5,-518"/>
<text text-anchor="start" x="274.5" y="-504.5" font-family="Helvetica,sans-Serif" font-size="10.00">IList&lt; TOriginal &gt;</text>
<text text-anchor="start" x="310.5" y="-488.5" font-family="Helvetica,sans-Serif" font-size="10.00"> </text>
<text text-anchor="start" x="310.5" y="-472.5" font-family="Helvetica,sans-Serif" font-size="10.00"> </text>
<polygon fill="#666666" stroke="#666666" points="269.5,-500 269.5,-500 354.5,-500 354.5,-500 269.5,-500"/>
<polygon fill="#666666" stroke="#666666" points="269.5,-484 269.5,-484 354.5,-484 354.5,-484 269.5,-484"/>
<polygon fill="none" stroke="#666666" points="269.5,-466 269.5,-518 354.5,-518 354.5,-466 269.5,-466"/>
</a>
</g>
</g>
<!-- Node4&#45;&gt;Node1 -->
<g id="edge3_Node000001_Node000004" class="edge">
<title>Node4&#45;&gt;Node1</title>
<g id="a_edge3_Node000001_Node000004"><a xlink:title=" ">
<path fill="none" stroke="#63b8ff" d="M306.06,-455.16C300.03,-418.78 290.29,-359.99 281,-303.9"/>
<polygon fill="none" stroke="#63b8ff" points="302.55,-455.36 307.63,-464.65 309.45,-454.22 302.55,-455.36"/>
</a>
</g>
</g>
<!-- Node5 -->
<g id="Node000005" class="node">
<title>Node5</title>
<g id="a_Node000005"><a xlink:href="class_i_read_only_list.html" target="_top" xlink:title=" ">
<polygon fill="white" stroke="none" points="501,-518 373,-518 373,-466 501,-466 501,-518"/>
<text text-anchor="start" x="377.75" y="-504.5" font-family="Helvetica,sans-Serif" font-size="10.00">IReadOnlyList&lt; TOriginal &gt;</text>
<text text-anchor="start" x="435.5" y="-488.5" font-family="Helvetica,sans-Serif" font-size="10.00"> </text>
<text text-anchor="start" x="435.5" y="-472.5" font-family="Helvetica,sans-Serif" font-size="10.00"> </text>
<polygon fill="#666666" stroke="#666666" points="373,-500 373,-500 501,-500 501,-500 373,-500"/>
<polygon fill="#666666" stroke="#666666" points="373,-484 373,-484 501,-484 501,-484 373,-484"/>
<polygon fill="none" stroke="#666666" points="373,-466 373,-518 501,-518 501,-466 373,-466"/>
</a>
</g>
</g>
<!-- Node5&#45;&gt;Node1 -->
<g id="edge4_Node000001_Node000005" class="edge">
<title>Node5&#45;&gt;Node1</title>
<g id="a_edge4_Node000001_Node000005"><a xlink:title=" ">
<path fill="none" stroke="#63b8ff" d="M420.92,-455.89C406.59,-425.06 384.72,-379.13 364,-340 353.78,-320.7 342.62,-300.5 331.47,-280.81"/>
<polygon fill="none" stroke="#63b8ff" points="417.65,-457.16 425.03,-464.76 424,-454.22 417.65,-457.16"/>
</a>
</g>
</g>
</g>
</svg>
