<?xml version="1.0" encoding="UTF-8" standalone="no"?>
<!DOCTYPE svg PUBLIC "-//W3C//DTD SVG 1.1//EN"
 "http://www.w3.org/Graphics/SVG/1.1/DTD/svg11.dtd">
<!-- Generated by graphviz version 12.1.2 (20240928.0832)
 -->
<!-- Title: CodeSmile.Statemachine.FSM.State.AddTransition Pages: 1 -->
<svg width="410pt" height="238pt"
 viewBox="0.00 0.00 409.75 238.00" xmlns="http://www.w3.org/2000/svg" xmlns:xlink="http://www.w3.org/1999/xlink">
<g id="graph0" class="graph" transform="scale(1 1) rotate(0) translate(4 234)">
<title>CodeSmile.Statemachine.FSM.State.AddTransition</title>
<!-- Node1 -->
<g id="Node000001" class="node">
<title>Node1</title>
<g id="a_Node000001"><a xlink:title="Add an empty transition to this state.">
<polygon fill="#999999" stroke="#666666" points="401.75,-131 247.75,-131 247.75,-99 401.75,-99 401.75,-131"/>
<text text-anchor="start" x="255.75" y="-117.5" font-family="Helvetica,sans-Serif" font-size="10.00">CodeSmile.Statemachine.FSM.</text>
<text text-anchor="middle" x="324.75" y="-105.5" font-family="Helvetica,sans-Serif" font-size="10.00">State.AddTransition</text>
</a>
</g>
</g>
<!-- Node2 -->
<g id="Node000002" class="node">
<title>Node2</title>
<g id="a_Node000002"><a xlink:href="class_code_smile_1_1_statemachine_1_1_tests_1_1_statemachine_tests.html#aa410e9960cad8fcfd4804ec766bd5ba7" target="_top" xlink:title=" ">
<polygon fill="white" stroke="#666666" points="211.75,-230 0,-230 0,-186 211.75,-186 211.75,-230"/>
<text text-anchor="start" x="8" y="-216.5" font-family="Helvetica,sans-Serif" font-size="10.00">CodeSmile.Statemachine.Tests.</text>
<text text-anchor="start" x="8" y="-204.5" font-family="Helvetica,sans-Serif" font-size="10.00">StatemachineTests.FSM_LogicalOrCondition</text>
<text text-anchor="middle" x="105.88" y="-192.5" font-family="Helvetica,sans-Serif" font-size="10.00">_ExpectedOutcome</text>
</a>
</g>
</g>
<!-- Node1&#45;&gt;Node2 -->
<g id="edge1_Node000001_Node000002" class="edge">
<title>Node1&#45;&gt;Node2</title>
<g id="a_edge1_Node000001_Node000002"><a xlink:title=" ">
<path fill="none" stroke="#63b8ff" d="M288.18,-137.32C266.64,-150.15 238.3,-165.89 211.75,-177 204.48,-180.04 196.81,-182.91 189.07,-185.59"/>
<polygon fill="#63b8ff" stroke="#63b8ff" points="289.82,-140.41 296.57,-132.25 286.2,-134.42 289.82,-140.41"/>
</a>
</g>
</g>
<!-- Node3 -->
<g id="Node000003" class="node">
<title>Node3</title>
<g id="a_Node000003"><a xlink:href="class_code_smile_1_1_statemachine_1_1_tests_1_1_statemachine_tests.html#aabd6228e94636d5d5e9171e1e9e99e78" target="_top" xlink:title=" ">
<polygon fill="white" stroke="#666666" points="197.12,-168 14.62,-168 14.62,-124 197.12,-124 197.12,-168"/>
<text text-anchor="start" x="22.62" y="-154.5" font-family="Helvetica,sans-Serif" font-size="10.00">CodeSmile.Statemachine.Tests.</text>
<text text-anchor="start" x="22.62" y="-142.5" font-family="Helvetica,sans-Serif" font-size="10.00">StatemachineTests.FSM_NonExisting</text>
<text text-anchor="middle" x="105.88" y="-130.5" font-family="Helvetica,sans-Serif" font-size="10.00">GotoState_Throws</text>
</a>
</g>
</g>
<!-- Node1&#45;&gt;Node3 -->
<g id="edge2_Node000001_Node000003" class="edge">
<title>Node1&#45;&gt;Node3</title>
<g id="a_edge2_Node000001_Node000003"><a xlink:title=" ">
<path fill="none" stroke="#63b8ff" d="M236.21,-127.51C223.46,-129.34 210.31,-131.22 197.5,-133.05"/>
<polygon fill="#63b8ff" stroke="#63b8ff" points="236.39,-131.02 245.79,-126.14 235.4,-124.09 236.39,-131.02"/>
</a>
</g>
</g>
<!-- Node4 -->
<g id="Node000004" class="node">
<title>Node4</title>
<g id="a_Node000004"><a xlink:href="class_code_smile_1_1_statemachine_1_1_tests_1_1_statemachine_tests.html#a0bf7d8d2296419acff49a3f8c5592f7d" target="_top" xlink:title=" ">
<polygon fill="white" stroke="#666666" points="207.25,-106 4.5,-106 4.5,-62 207.25,-62 207.25,-106"/>
<text text-anchor="start" x="12.5" y="-92.5" font-family="Helvetica,sans-Serif" font-size="10.00">CodeSmile.Statemachine.Tests.</text>
<text text-anchor="start" x="12.5" y="-80.5" font-family="Helvetica,sans-Serif" font-size="10.00">StatemachineTests.FSM_StartEndStates</text>
<text text-anchor="middle" x="105.88" y="-68.5" font-family="Helvetica,sans-Serif" font-size="10.00">_RunsToEndAndRaisesStateChangeEvent</text>
</a>
</g>
</g>
<!-- Node1&#45;&gt;Node4 -->
<g id="edge3_Node000001_Node000004" class="edge">
<title>Node1&#45;&gt;Node4</title>
<g id="a_edge3_Node000001_Node000004"><a xlink:title=" ">
<path fill="none" stroke="#63b8ff" d="M236.04,-102.46C226.72,-101.13 217.18,-99.77 207.72,-98.41"/>
<polygon fill="#63b8ff" stroke="#63b8ff" points="235.4,-105.91 245.79,-103.86 236.39,-98.98 235.4,-105.91"/>
</a>
</g>
</g>
<!-- Node5 -->
<g id="Node000005" class="node">
<title>Node5</title>
<g id="a_Node000005"><a xlink:href="class_code_smile_1_1_statemachine_1_1_tests_1_1_statemachine_tests.html#a9c637f67eff602e7394b6892b2edfabb" target="_top" xlink:title=" ">
<polygon fill="white" stroke="#666666" points="199,-44 12.75,-44 12.75,0 199,0 199,-44"/>
<text text-anchor="start" x="20.75" y="-30.5" font-family="Helvetica,sans-Serif" font-size="10.00">CodeSmile.Statemachine.Tests.</text>
<text text-anchor="start" x="20.75" y="-18.5" font-family="Helvetica,sans-Serif" font-size="10.00">StatemachineTests.FSM_StateChange</text>
<text text-anchor="middle" x="105.88" y="-6.5" font-family="Helvetica,sans-Serif" font-size="10.00">_InvokesStateChangeEvent</text>
</a>
</g>
</g>
<!-- Node1&#45;&gt;Node5 -->
<g id="edge4_Node000001_Node000005" class="edge">
<title>Node1&#45;&gt;Node5</title>
<g id="a_edge4_Node000001_Node000005"><a xlink:title=" ">
<path fill="none" stroke="#63b8ff" d="M288.18,-92.68C266.64,-79.85 238.3,-64.11 211.75,-53 204.48,-49.96 196.81,-47.09 189.07,-44.41"/>
<polygon fill="#63b8ff" stroke="#63b8ff" points="286.2,-95.58 296.57,-97.75 289.82,-89.59 286.2,-95.58"/>
</a>
</g>
</g>
</g>
</svg>
