<?xml version="1.0" encoding="UTF-8" standalone="no"?>
<!DOCTYPE svg PUBLIC "-//W3C//DTD SVG 1.1//EN"
 "http://www.w3.org/Graphics/SVG/1.1/DTD/svg11.dtd">
<!-- Generated by graphviz version 12.1.2 (20240928.0832)
 -->
<!-- Title: UnityUtils.Or Pages: 1 -->
<svg width="75pt" height="148pt"
 viewBox="0.00 0.00 75.00 148.00" xmlns="http://www.w3.org/2000/svg" xmlns:xlink="http://www.w3.org/1999/xlink">
<g id="graph0" class="graph" transform="scale(1 1) rotate(0) translate(4 144)">
<title>UnityUtils.Or</title>
<!-- Node1 -->
<g id="Node000001" class="node">
<title>Node1</title>
<g id="a_Node000001"><a xlink:title=" ">
<polygon fill="#999999" stroke="none" points="67,-52 0,-52 0,0 67,0 67,-52"/>
<text text-anchor="start" x="5" y="-38.5" font-family="Helvetica,sans-Serif" font-size="10.00">UnityUtils.Or</text>
<text text-anchor="start" x="32" y="-22.5" font-family="Helvetica,sans-Serif" font-size="10.00"> </text>
<text text-anchor="start" x="5" y="-6.5" font-family="Helvetica,sans-Serif" font-size="10.00">+</text>
<text text-anchor="start" x="16" y="-6.5" font-family="Helvetica,sans-Serif" font-size="10.00">Evaluate()</text>
<polygon fill="#666666" stroke="#666666" points="0,-34 0,-34 67,-34 67,-34 0,-34"/>
<polygon fill="#666666" stroke="#666666" points="0,-18 0,-18 67,-18 67,-18 0,-18"/>
<polygon fill="none" stroke="#666666" points="0,0 0,-52 67,-52 67,0 0,0"/>
</a>
</g>
</g>
<!-- Node2 -->
<g id="Node000002" class="node">
<title>Node2</title>
<g id="a_Node000002"><a xlink:href="interface_unity_utils_1_1_i_predicate.html" target="_top" xlink:title=" ">
<polygon fill="white" stroke="none" points="64.5,-140 2.5,-140 2.5,-88 64.5,-88 64.5,-140"/>
<text text-anchor="start" x="11.38" y="-126.5" font-family="Helvetica,sans-Serif" font-size="10.00">IPredicate</text>
<text text-anchor="start" x="32" y="-110.5" font-family="Helvetica,sans-Serif" font-size="10.00"> </text>
<text text-anchor="start" x="6.5" y="-94.5" font-family="Helvetica,sans-Serif" font-size="10.00">+</text>
<text text-anchor="start" x="16.5" y="-94.5" font-family="Helvetica,sans-Serif" font-size="10.00">Evaluate()</text>
<polygon fill="#666666" stroke="#666666" points="2.5,-122 2.5,-122 64.5,-122 64.5,-122 2.5,-122"/>
<polygon fill="#666666" stroke="#666666" points="2.5,-106 2.5,-106 64.5,-106 64.5,-106 2.5,-106"/>
<polygon fill="none" stroke="#666666" points="2.5,-88 2.5,-140 64.5,-140 64.5,-88 2.5,-88"/>
</a>
</g>
</g>
<!-- Node2&#45;&gt;Node1 -->
<g id="edge1_Node000001_Node000002" class="edge">
<title>Node2&#45;&gt;Node1</title>
<g id="a_edge1_Node000001_Node000002"><a xlink:title=" ">
<path fill="none" stroke="#63b8ff" d="M33.5,-76.66C33.5,-68.29 33.5,-59.57 33.5,-51.82"/>
<polygon fill="none" stroke="#63b8ff" points="30,-76.61 33.5,-86.61 37,-76.61 30,-76.61"/>
</a>
</g>
</g>
</g>
</svg>
