<?xml version="1.0" encoding="UTF-8" standalone="no"?>
<!DOCTYPE svg PUBLIC "-//W3C//DTD SVG 1.1//EN"
 "http://www.w3.org/Graphics/SVG/1.1/DTD/svg11.dtd">
<!-- Generated by graphviz version 12.1.2 (20240928.0832)
 -->
<!-- Title: PA1A.Building.PlacementSystem.StopPlacement Pages: 1 -->
<svg width="354pt" height="58pt"
 viewBox="0.00 0.00 353.50 58.00" xmlns="http://www.w3.org/2000/svg" xmlns:xlink="http://www.w3.org/1999/xlink">
<g id="graph0" class="graph" transform="scale(1 1) rotate(0) translate(4 54)">
<title>PA1A.Building.PlacementSystem.StopPlacement</title>
<!-- Node1 -->
<g id="Node000001" class="node">
<title>Node1</title>
<g id="a_Node000001"><a xlink:title="Stops the placement of buildings.">
<polygon fill="#999999" stroke="#666666" points="164.5,-32 0,-32 0,0 164.5,0 164.5,-32"/>
<text text-anchor="start" x="8" y="-18.5" font-family="Helvetica,sans-Serif" font-size="10.00">PA1A.Building.PlacementSystem.</text>
<text text-anchor="middle" x="82.25" y="-6.5" font-family="Helvetica,sans-Serif" font-size="10.00">StopPlacement</text>
</a>
</g>
</g>
<!-- Node1&#45;&gt;Node1 -->
<g id="edge2_Node000001_Node000001" class="edge">
<title>Node1&#45;&gt;Node1</title>
<g id="a_edge2_Node000001_Node000001"><a xlink:title=" ">
<path fill="none" stroke="#63b8ff" d="M48.2,-32.44C41.84,-41.58 53.19,-50 82.25,-50 98.14,-50 108.74,-47.48 114.04,-43.71"/>
<polygon fill="#63b8ff" stroke="#63b8ff" points="117.46,-44.42 116.01,-33.93 110.6,-43.04 117.46,-44.42"/>
</a>
</g>
</g>
<!-- Node2 -->
<g id="Node000002" class="node">
<title>Node2</title>
<g id="a_Node000002"><a xlink:href="interface_p_a1_a_1_1_building_1_1_i_building_state.html#afba2b96975fe9a003c491007beff1237" target="_top" xlink:title="Ends the current state of the building.">
<polygon fill="white" stroke="#666666" points="345.5,-32 200.5,-32 200.5,0 345.5,0 345.5,-32"/>
<text text-anchor="start" x="208.5" y="-18.5" font-family="Helvetica,sans-Serif" font-size="10.00">PA1A.Building.IBuildingState.</text>
<text text-anchor="middle" x="273" y="-6.5" font-family="Helvetica,sans-Serif" font-size="10.00">EndState</text>
</a>
</g>
</g>
<!-- Node1&#45;&gt;Node2 -->
<g id="edge1_Node000001_Node000002" class="edge">
<title>Node1&#45;&gt;Node2</title>
<g id="a_edge1_Node000001_Node000002"><a xlink:title=" ">
<path fill="none" stroke="#63b8ff" d="M164.94,-16C172.84,-16 180.86,-16 188.77,-16"/>
<polygon fill="#63b8ff" stroke="#63b8ff" points="188.75,-19.5 198.75,-16 188.75,-12.5 188.75,-19.5"/>
</a>
</g>
</g>
</g>
</svg>
