<?xml version="1.0" encoding="UTF-8" standalone="no"?>
<!DOCTYPE svg PUBLIC "-//W3C//DTD SVG 1.1//EN"
 "http://www.w3.org/Graphics/SVG/1.1/DTD/svg11.dtd">
<!-- Generated by graphviz version 12.1.2 (20240928.0832)
 -->
<!-- Title: IPointerEnterHandler Pages: 1 -->
<svg width="108pt" height="196pt"
 viewBox="0.00 0.00 108.00 196.00" xmlns="http://www.w3.org/2000/svg" xmlns:xlink="http://www.w3.org/1999/xlink">

<svg id="main" version="1.1" xmlns="http://www.w3.org/2000/svg" xmlns:xlink="http://www.w3.org/1999/xlink" xml:space="preserve">

<style type="text/css"><![CDATA[
.node, .edge {opacity: 0.7;}
.node.selected, .edge.selected {opacity: 1;}
.edge:hover path { stroke: red; }
.edge:hover polygon { stroke: red; fill: red; }
]]></style>
<script type="application/ecmascript" xlink:href="svg.min.js"/>
<svg id="graph" class="graph">
<g id="graph0" class="graph" transform="scale(1 1) rotate(0) translate(4 192)">
<title>IPointerEnterHandler</title>
<!-- Node1 -->
<g id="Node000001" class="node">
<title>Node1</title>
<g id="a_Node000001"><a xlink:title=" ">
<polygon fill="#999999" stroke="none" points="100,-188 0,-188 0,-136 100,-136 100,-188"/>
<text text-anchor="start" x="4.62" y="-174.5" font-family="Helvetica,sans-Serif" font-size="10.00">IPointerEnterHandler</text>
<text text-anchor="start" x="48.5" y="-158.5" font-family="Helvetica,sans-Serif" font-size="10.00"> </text>
<text text-anchor="start" x="48.5" y="-142.5" font-family="Helvetica,sans-Serif" font-size="10.00"> </text>
<polygon fill="#666666" stroke="#666666" points="0,-170 0,-170 100,-170 100,-170 0,-170"/>
<polygon fill="#666666" stroke="#666666" points="0,-154 0,-154 100,-154 100,-154 0,-154"/>
<polygon fill="none" stroke="#666666" points="0,-136 0,-188 100,-188 100,-136 0,-136"/>
</a>
</g>
</g>
<!-- Node2 -->
<g id="Node000002" class="node">
<title>Node2</title>
<g id="a_Node000002"><a xlink:href="class_tooltip_trigger.html" target="_top" xlink:title="Represents a trigger for displaying tooltips.">
<polygon fill="white" stroke="none" points="95,-100 5,-100 5,0 95,0 95,-100"/>
<text text-anchor="start" x="20.75" y="-86.5" font-family="Helvetica,sans-Serif" font-size="10.00">TooltipTrigger</text>
<text text-anchor="start" x="9" y="-70.5" font-family="Helvetica,sans-Serif" font-size="10.00">+</text>
<text text-anchor="start" x="19" y="-70.5" font-family="Helvetica,sans-Serif" font-size="10.00">header</text>
<text text-anchor="start" x="9" y="-54.5" font-family="Helvetica,sans-Serif" font-size="10.00">+</text>
<text text-anchor="start" x="19" y="-54.5" font-family="Helvetica,sans-Serif" font-size="10.00">content</text>
<text text-anchor="start" x="9" y="-38.5" font-family="Helvetica,sans-Serif" font-size="10.00">+</text>
<text text-anchor="start" x="19" y="-38.5" font-family="Helvetica,sans-Serif" font-size="10.00">Awake()</text>
<text text-anchor="start" x="9" y="-22.5" font-family="Helvetica,sans-Serif" font-size="10.00">+</text>
<text text-anchor="start" x="19" y="-22.5" font-family="Helvetica,sans-Serif" font-size="10.00">OnPointerEnter()</text>
<text text-anchor="start" x="9" y="-6.5" font-family="Helvetica,sans-Serif" font-size="10.00">+</text>
<text text-anchor="start" x="19" y="-6.5" font-family="Helvetica,sans-Serif" font-size="10.00">OnPointerExit()</text>
<polygon fill="#666666" stroke="#666666" points="5,-82 5,-82 95,-82 95,-82 5,-82"/>
<polygon fill="#666666" stroke="#666666" points="5,-50 5,-50 17,-50 17,-50 5,-50"/>
<polygon fill="#666666" stroke="#666666" points="17,-50 17,-50 95,-50 95,-50 17,-50"/>
<polygon fill="none" stroke="#666666" points="5,0 5,-100 95,-100 95,0 5,0"/>
</a>
</g>
</g>
<!-- Node1&#45;&gt;Node2 -->
<g id="edge1_Node000001_Node000002" class="edge">
<title>Node1&#45;&gt;Node2</title>
<g id="a_edge1_Node000001_Node000002"><a xlink:title=" ">
<path fill="none" stroke="#63b8ff" d="M50,-124.53C50,-116.58 50,-108.05 50,-99.72"/>
<polygon fill="none" stroke="#63b8ff" points="46.5,-124.53 50,-134.53 53.5,-124.53 46.5,-124.53"/>
</a>
</g>
</g>
</g>
</svg>
</svg>

<style type='text/css'>
<![CDATA[
[data-mouse-over-selected='false'] { opacity: 0.7; }
[data-mouse-over-selected='true']  { opacity: 1.0; }
]]>
</style>
<script type="application/ecmascript"><![CDATA[
document.addEventListener('DOMContentLoaded', (event) => {
  highlightEdges();
  highlightAdjacentNodes();
});
]]></script>
</svg>
