<?xml version="1.0" encoding="UTF-8" standalone="no"?>
<!DOCTYPE svg PUBLIC "-//W3C//DTD SVG 1.1//EN"
 "http://www.w3.org/Graphics/SVG/1.1/DTD/svg11.dtd">
<!-- Generated by graphviz version 12.1.2 (20240928.0832)
 -->
<!-- Title: PA1A.Items.FlexibleSizeContainer Pages: 1 -->
<svg width="266pt" height="676pt"
 viewBox="0.00 0.00 265.50 676.00" xmlns="http://www.w3.org/2000/svg" xmlns:xlink="http://www.w3.org/1999/xlink">
<g id="graph0" class="graph" transform="scale(1 1) rotate(0) translate(4 672)">
<title>PA1A.Items.FlexibleSizeContainer</title>
<!-- Node1 -->
<g id="Node000001" class="node">
<title>Node1</title>
<g id="a_Node000001"><a xlink:title=" ">
<polygon fill="#999999" stroke="none" points="194,-100 34,-100 34,0 194,0 194,-100"/>
<text text-anchor="start" x="38.62" y="-86.5" font-family="Helvetica,sans-Serif" font-size="10.00">PA1A.Items.FlexibleSizeContainer</text>
<text text-anchor="start" x="112.5" y="-70.5" font-family="Helvetica,sans-Serif" font-size="10.00"> </text>
<text text-anchor="start" x="50.5" y="-54.5" font-family="Helvetica,sans-Serif" font-size="10.00">+</text>
<text text-anchor="start" x="73" y="-54.5" font-family="Helvetica,sans-Serif" font-size="10.00">Give()</text>
<text text-anchor="start" x="50.5" y="-38.5" font-family="Helvetica,sans-Serif" font-size="10.00">+</text>
<text text-anchor="start" x="73" y="-38.5" font-family="Helvetica,sans-Serif" font-size="10.00">Take()</text>
<text text-anchor="start" x="50.5" y="-22.5" font-family="Helvetica,sans-Serif" font-size="10.00">+</text>
<text text-anchor="start" x="73" y="-22.5" font-family="Helvetica,sans-Serif" font-size="10.00">Clear()</text>
<text text-anchor="start" x="50.88" y="-6.5" font-family="Helvetica,sans-Serif" font-size="10.00">#</text>
<text text-anchor="start" x="73" y="-6.5" font-family="Helvetica,sans-Serif" font-size="10.00">OnContainerUpdate()</text>
<polygon fill="#666666" stroke="#666666" points="34,-82 34,-82 194,-82 194,-82 34,-82"/>
<polygon fill="#666666" stroke="#666666" points="34,-66 34,-66 194,-66 194,-66 34,-66"/>
<polygon fill="none" stroke="#666666" points="34,0 34,-100 194,-100 194,0 34,0"/>
</a>
</g>
</g>
<!-- Node2 -->
<g id="Node000002" class="node">
<title>Node2</title>
<g id="a_Node000002"><a xlink:href="class_p_a1_a_1_1_items_1_1_container.html" target="_top" xlink:title=" ">
<polygon fill="white" stroke="none" points="171,-396 57,-396 57,-136 171,-136 171,-396"/>
<text text-anchor="start" x="93" y="-382.5" font-family="Helvetica,sans-Serif" font-size="10.00">Container</text>
<text text-anchor="start" x="61" y="-366.5" font-family="Helvetica,sans-Serif" font-size="10.00">+</text>
<text text-anchor="start" x="71" y="-366.5" font-family="Helvetica,sans-Serif" font-size="10.00">Size</text>
<text text-anchor="start" x="61" y="-350.5" font-family="Helvetica,sans-Serif" font-size="10.00">+</text>
<text text-anchor="start" x="71" y="-350.5" font-family="Helvetica,sans-Serif" font-size="10.00">this[int i]</text>
<text text-anchor="start" x="61" y="-334.5" font-family="Helvetica,sans-Serif" font-size="10.00">+</text>
<text text-anchor="start" x="71" y="-334.5" font-family="Helvetica,sans-Serif" font-size="10.00">GetSlot()</text>
<text text-anchor="start" x="61" y="-318.5" font-family="Helvetica,sans-Serif" font-size="10.00">+</text>
<text text-anchor="start" x="71" y="-318.5" font-family="Helvetica,sans-Serif" font-size="10.00">OnNetworkSpawn()</text>
<text text-anchor="start" x="61" y="-302.5" font-family="Helvetica,sans-Serif" font-size="10.00">+</text>
<text text-anchor="start" x="71" y="-302.5" font-family="Helvetica,sans-Serif" font-size="10.00">OnNetworkDespawn()</text>
<text text-anchor="start" x="61" y="-286.5" font-family="Helvetica,sans-Serif" font-size="10.00">+</text>
<text text-anchor="start" x="71" y="-286.5" font-family="Helvetica,sans-Serif" font-size="10.00">Give()</text>
<text text-anchor="start" x="61" y="-270.5" font-family="Helvetica,sans-Serif" font-size="10.00">+</text>
<text text-anchor="start" x="71" y="-270.5" font-family="Helvetica,sans-Serif" font-size="10.00">Take()</text>
<text text-anchor="start" x="61" y="-254.5" font-family="Helvetica,sans-Serif" font-size="10.00">+</text>
<text text-anchor="start" x="71" y="-254.5" font-family="Helvetica,sans-Serif" font-size="10.00">CanBeGiven()</text>
<text text-anchor="start" x="61" y="-238.5" font-family="Helvetica,sans-Serif" font-size="10.00">+</text>
<text text-anchor="start" x="71" y="-238.5" font-family="Helvetica,sans-Serif" font-size="10.00">CanBeTaken()</text>
<text text-anchor="start" x="61" y="-222.5" font-family="Helvetica,sans-Serif" font-size="10.00">+</text>
<text text-anchor="start" x="71" y="-222.5" font-family="Helvetica,sans-Serif" font-size="10.00">Clear()</text>
<text text-anchor="start" x="61.38" y="-206.5" font-family="Helvetica,sans-Serif" font-size="10.00">#</text>
<text text-anchor="start" x="71" y="-206.5" font-family="Helvetica,sans-Serif" font-size="10.00">Awake()</text>
<text text-anchor="start" x="61.38" y="-190.5" font-family="Helvetica,sans-Serif" font-size="10.00">#</text>
<text text-anchor="start" x="71" y="-190.5" font-family="Helvetica,sans-Serif" font-size="10.00">OnContainerUpdate()</text>
<text text-anchor="start" x="61.38" y="-174.5" font-family="Helvetica,sans-Serif" font-size="10.00">#</text>
<text text-anchor="start" x="71" y="-174.5" font-family="Helvetica,sans-Serif" font-size="10.00">AddSlot()</text>
<text text-anchor="start" x="61.38" y="-158.5" font-family="Helvetica,sans-Serif" font-size="10.00">#</text>
<text text-anchor="start" x="71" y="-158.5" font-family="Helvetica,sans-Serif" font-size="10.00">RemoveSlot()</text>
<text text-anchor="start" x="61.38" y="-142.5" font-family="Helvetica,sans-Serif" font-size="10.00">#</text>
<text text-anchor="start" x="71" y="-142.5" font-family="Helvetica,sans-Serif" font-size="10.00">ClearSlots()</text>
<polygon fill="#666666" stroke="#666666" points="57,-378 57,-378 171,-378 171,-378 57,-378"/>
<polygon fill="#666666" stroke="#666666" points="57,-346 57,-346 69,-346 69,-346 57,-346"/>
<polygon fill="#666666" stroke="#666666" points="69,-346 69,-346 171,-346 171,-346 69,-346"/>
<polygon fill="none" stroke="#666666" points="57,-136 57,-396 171,-396 171,-136 57,-136"/>
</a>
</g>
</g>
<!-- Node2&#45;&gt;Node1 -->
<g id="edge1_Node000001_Node000002" class="edge">
<title>Node2&#45;&gt;Node1</title>
<g id="a_edge1_Node000001_Node000002"><a xlink:title=" ">
<path fill="none" stroke="#63b8ff" d="M114,-124.82C114,-115.97 114,-107.45 114,-99.55"/>
<polygon fill="none" stroke="#63b8ff" points="110.5,-124.68 114,-134.68 117.5,-124.68 110.5,-124.68"/>
</a>
</g>
</g>
<!-- Node3 -->
<g id="Node000003" class="node">
<title>Node3</title>
<g id="a_Node000003"><a xlink:href="class_network_behaviour.html" target="_top" xlink:title=" ">
<polygon fill="white" stroke="none" points="90,-500 0,-500 0,-448 90,-448 90,-500"/>
<text text-anchor="start" x="4.88" y="-486.5" font-family="Helvetica,sans-Serif" font-size="10.00">NetworkBehaviour</text>
<text text-anchor="start" x="43.5" y="-470.5" font-family="Helvetica,sans-Serif" font-size="10.00"> </text>
<text text-anchor="start" x="43.5" y="-454.5" font-family="Helvetica,sans-Serif" font-size="10.00"> </text>
<polygon fill="#666666" stroke="#666666" points="0,-482 0,-482 90,-482 90,-482 0,-482"/>
<polygon fill="#666666" stroke="#666666" points="0,-466 0,-466 90,-466 90,-466 0,-466"/>
<polygon fill="none" stroke="#666666" points="0,-448 0,-500 90,-500 90,-448 0,-448"/>
</a>
</g>
</g>
<!-- Node3&#45;&gt;Node2 -->
<g id="edge2_Node000002_Node000003" class="edge">
<title>Node3&#45;&gt;Node2</title>
<g id="a_edge2_Node000002_Node000003"><a xlink:title=" ">
<path fill="none" stroke="#63b8ff" d="M56.97,-437.28C61.02,-425.19 65.8,-410.9 70.85,-395.81"/>
<polygon fill="none" stroke="#63b8ff" points="53.66,-436.12 53.8,-446.72 60.3,-438.35 53.66,-436.12"/>
</a>
</g>
</g>
<!-- Node4 -->
<g id="Node000004" class="node">
<title>Node4</title>
<g id="a_Node000004"><a xlink:href="interface_p_a1_a_1_1_items_1_1_i_container.html" target="_top" xlink:title=" ">
<polygon fill="white" stroke="none" points="257.5,-516 108.5,-516 108.5,-432 257.5,-432 257.5,-516"/>
<text text-anchor="start" x="160.5" y="-502.5" font-family="Helvetica,sans-Serif" font-size="10.00">IContainer</text>
<text text-anchor="start" x="112.5" y="-486.5" font-family="Helvetica,sans-Serif" font-size="10.00">+</text>
<text text-anchor="start" x="122.5" y="-486.5" font-family="Helvetica,sans-Serif" font-size="10.00">Size</text>
<text text-anchor="start" x="112.5" y="-470.5" font-family="Helvetica,sans-Serif" font-size="10.00">+</text>
<text text-anchor="start" x="122.5" y="-470.5" font-family="Helvetica,sans-Serif" font-size="10.00">this[int i]</text>
<text text-anchor="start" x="112.5" y="-454.5" font-family="Helvetica,sans-Serif" font-size="10.00">+</text>
<text text-anchor="start" x="122.5" y="-454.5" font-family="Helvetica,sans-Serif" font-size="10.00">GetSlot()</text>
<text text-anchor="start" x="112.5" y="-438.5" font-family="Helvetica,sans-Serif" font-size="10.00">+</text>
<text text-anchor="start" x="122.5" y="-438.5" font-family="Helvetica,sans-Serif" font-size="10.00">OnContainerUpdateDelegate()</text>
<polygon fill="#666666" stroke="#666666" points="108.5,-498 108.5,-498 257.5,-498 257.5,-498 108.5,-498"/>
<polygon fill="#666666" stroke="#666666" points="108.5,-466 108.5,-466 120.5,-466 120.5,-466 108.5,-466"/>
<polygon fill="#666666" stroke="#666666" points="120.5,-466 120.5,-466 257.5,-466 257.5,-466 120.5,-466"/>
<polygon fill="none" stroke="#666666" points="108.5,-432 108.5,-516 257.5,-516 257.5,-432 108.5,-432"/>
</a>
</g>
</g>
<!-- Node4&#45;&gt;Node2 -->
<g id="edge3_Node000002_Node000004" class="edge">
<title>Node4&#45;&gt;Node2</title>
<g id="a_edge3_Node000002_Node000004"><a xlink:title=" ">
<path fill="none" stroke="#63b8ff" d="M165.77,-421.55C163.03,-413.38 160.1,-404.63 157.07,-395.59"/>
<polygon fill="none" stroke="#63b8ff" points="162.39,-422.5 168.89,-430.87 169.03,-420.27 162.39,-422.5"/>
</a>
</g>
</g>
<!-- Node5 -->
<g id="Node000005" class="node">
<title>Node5</title>
<g id="a_Node000005"><a xlink:href="interface_p_a1_a_1_1_items_1_1_i_stack_container.html" target="_top" xlink:title=" ">
<polygon fill="white" stroke="none" points="223,-668 143,-668 143,-552 223,-552 223,-668"/>
<text text-anchor="start" x="147.75" y="-654.5" font-family="Helvetica,sans-Serif" font-size="10.00">IStackContainer</text>
<text text-anchor="start" x="181.5" y="-638.5" font-family="Helvetica,sans-Serif" font-size="10.00"> </text>
<text text-anchor="start" x="147" y="-622.5" font-family="Helvetica,sans-Serif" font-size="10.00">+</text>
<text text-anchor="start" x="157" y="-622.5" font-family="Helvetica,sans-Serif" font-size="10.00">Give()</text>
<text text-anchor="start" x="147" y="-606.5" font-family="Helvetica,sans-Serif" font-size="10.00">+</text>
<text text-anchor="start" x="157" y="-606.5" font-family="Helvetica,sans-Serif" font-size="10.00">Take()</text>
<text text-anchor="start" x="147" y="-590.5" font-family="Helvetica,sans-Serif" font-size="10.00">+</text>
<text text-anchor="start" x="157" y="-590.5" font-family="Helvetica,sans-Serif" font-size="10.00">CanBeGiven()</text>
<text text-anchor="start" x="147" y="-574.5" font-family="Helvetica,sans-Serif" font-size="10.00">+</text>
<text text-anchor="start" x="157" y="-574.5" font-family="Helvetica,sans-Serif" font-size="10.00">CanBeTaken()</text>
<text text-anchor="start" x="147" y="-558.5" font-family="Helvetica,sans-Serif" font-size="10.00">+</text>
<text text-anchor="start" x="157" y="-558.5" font-family="Helvetica,sans-Serif" font-size="10.00">Clear()</text>
<polygon fill="#666666" stroke="#666666" points="143,-650 143,-650 223,-650 223,-650 143,-650"/>
<polygon fill="#666666" stroke="#666666" points="143,-634 143,-634 223,-634 223,-634 143,-634"/>
<polygon fill="none" stroke="#666666" points="143,-552 143,-668 223,-668 223,-552 143,-552"/>
</a>
</g>
</g>
<!-- Node5&#45;&gt;Node4 -->
<g id="edge4_Node000004_Node000005" class="edge">
<title>Node5&#45;&gt;Node4</title>
<g id="a_edge4_Node000004_Node000005"><a xlink:title=" ">
<path fill="none" stroke="#63b8ff" d="M183,-540.88C183,-532.26 183,-523.66 183,-515.66"/>
<polygon fill="none" stroke="#63b8ff" points="179.5,-540.66 183,-550.66 186.5,-540.66 179.5,-540.66"/>
</a>
</g>
</g>
</g>
</svg>
