<?xml version="1.0" encoding="UTF-8" standalone="no"?>
<!DOCTYPE svg PUBLIC "-//W3C//DTD SVG 1.1//EN"
 "http://www.w3.org/Graphics/SVG/1.1/DTD/svg11.dtd">
<!-- Generated by graphviz version 12.1.2 (20240928.0832)
 -->
<!-- Title: INetworkSerializable Pages: 1 -->
<svg width="437pt" height="324pt"
 viewBox="0.00 0.00 437.00 324.00" xmlns="http://www.w3.org/2000/svg" xmlns:xlink="http://www.w3.org/1999/xlink">

<svg id="main" version="1.1" xmlns="http://www.w3.org/2000/svg" xmlns:xlink="http://www.w3.org/1999/xlink" xml:space="preserve">

<style type="text/css"><![CDATA[
.node, .edge {opacity: 0.7;}
.node.selected, .edge.selected {opacity: 1;}
.edge:hover path { stroke: red; }
.edge:hover polygon { stroke: red; fill: red; }
]]></style>
<script type="application/ecmascript" xlink:href="svg.min.js"/>
<svg id="graph" class="graph">
<g id="graph0" class="graph" transform="scale(1 1) rotate(0) translate(4 320)">
<title>INetworkSerializable</title>
<!-- Node1 -->
<g id="Node000001" class="node">
<title>Node1</title>
<g id="a_Node000001"><a xlink:title=" ">
<polygon fill="#999999" stroke="none" points="268.5,-316 168.5,-316 168.5,-264 268.5,-264 268.5,-316"/>
<text text-anchor="start" x="173.5" y="-302.5" font-family="Helvetica,sans-Serif" font-size="10.00">INetworkSerializable</text>
<text text-anchor="start" x="217" y="-286.5" font-family="Helvetica,sans-Serif" font-size="10.00"> </text>
<text text-anchor="start" x="217" y="-270.5" font-family="Helvetica,sans-Serif" font-size="10.00"> </text>
<polygon fill="#666666" stroke="#666666" points="168.5,-298 168.5,-298 268.5,-298 268.5,-298 168.5,-298"/>
<polygon fill="#666666" stroke="#666666" points="168.5,-282 168.5,-282 268.5,-282 268.5,-282 168.5,-282"/>
<polygon fill="none" stroke="#666666" points="168.5,-264 168.5,-316 268.5,-316 268.5,-264 168.5,-264"/>
</a>
</g>
</g>
<!-- Node2 -->
<g id="Node000002" class="node">
<title>Node2</title>
<g id="a_Node000002"><a xlink:href="class_p_a1_a_1_1_building_1_1_grid_data.html" target="_top" xlink:title="Represents the grid data for object placement.">
<polygon fill="white" stroke="none" points="129,-180 0,-180 0,-48 129,-48 129,-180"/>
<text text-anchor="start" x="12.38" y="-166.5" font-family="Helvetica,sans-Serif" font-size="10.00">PA1A.Building.GridData</text>
<text text-anchor="start" x="63" y="-150.5" font-family="Helvetica,sans-Serif" font-size="10.00"> </text>
<text text-anchor="start" x="4" y="-134.5" font-family="Helvetica,sans-Serif" font-size="10.00">+</text>
<text text-anchor="start" x="14" y="-134.5" font-family="Helvetica,sans-Serif" font-size="10.00">AddObjectAt()</text>
<text text-anchor="start" x="4" y="-118.5" font-family="Helvetica,sans-Serif" font-size="10.00">+</text>
<text text-anchor="start" x="14" y="-118.5" font-family="Helvetica,sans-Serif" font-size="10.00">CanPlaceObjectAt()</text>
<text text-anchor="start" x="4" y="-102.5" font-family="Helvetica,sans-Serif" font-size="10.00">+</text>
<text text-anchor="start" x="14" y="-102.5" font-family="Helvetica,sans-Serif" font-size="10.00">NetworkSerialize&lt; T &gt;()</text>
<text text-anchor="start" x="4" y="-86.5" font-family="Helvetica,sans-Serif" font-size="10.00">+</text>
<text text-anchor="start" x="14" y="-86.5" font-family="Helvetica,sans-Serif" font-size="10.00">Equals()</text>
<text text-anchor="start" x="4" y="-70.5" font-family="Helvetica,sans-Serif" font-size="10.00">~</text>
<text text-anchor="start" x="14" y="-70.5" font-family="Helvetica,sans-Serif" font-size="10.00">GetRepresentationIndex()</text>
<text text-anchor="start" x="4" y="-54.5" font-family="Helvetica,sans-Serif" font-size="10.00">~</text>
<text text-anchor="start" x="14" y="-54.5" font-family="Helvetica,sans-Serif" font-size="10.00">RemoveObjectAt()</text>
<polygon fill="#666666" stroke="#666666" points="0,-162 0,-162 129,-162 129,-162 0,-162"/>
<polygon fill="#666666" stroke="#666666" points="0,-146 0,-146 129,-146 129,-146 0,-146"/>
<polygon fill="none" stroke="#666666" points="0,-48 0,-180 129,-180 129,-48 0,-48"/>
</a>
</g>
</g>
<!-- Node1&#45;&gt;Node2 -->
<g id="edge1_Node000001_Node000002" class="edge">
<title>Node1&#45;&gt;Node2</title>
<g id="a_edge1_Node000001_Node000002"><a xlink:title=" ">
<path fill="none" stroke="#63b8ff" d="M171.42,-257.32C159.99,-248.52 148.27,-238.49 138.5,-228 125.08,-213.58 112.5,-196.46 101.65,-179.96"/>
<polygon fill="none" stroke="#63b8ff" points="169.15,-259.99 179.26,-263.18 173.34,-254.39 169.15,-259.99"/>
</a>
</g>
</g>
<!-- Node3 -->
<g id="Node000003" class="node">
<title>Node3</title>
<g id="a_Node000003"><a xlink:href="class_p_a1_a_1_1_building_1_1_placement_data.html" target="_top" xlink:title="Represents the data for object placement in the game.">
<polygon fill="white" stroke="none" points="289.5,-172 147.5,-172 147.5,-56 289.5,-56 289.5,-172"/>
<text text-anchor="start" x="152.12" y="-158.5" font-family="Helvetica,sans-Serif" font-size="10.00">PA1A.Building.PlacementData</text>
<text text-anchor="start" x="156.5" y="-142.5" font-family="Helvetica,sans-Serif" font-size="10.00">+</text>
<text text-anchor="start" x="171.5" y="-142.5" font-family="Helvetica,sans-Serif" font-size="10.00">occupiedPositions</text>
<text text-anchor="start" x="156.5" y="-126.5" font-family="Helvetica,sans-Serif" font-size="10.00">+</text>
<text text-anchor="start" x="171.5" y="-126.5" font-family="Helvetica,sans-Serif" font-size="10.00">ID</text>
<text text-anchor="start" x="156.5" y="-110.5" font-family="Helvetica,sans-Serif" font-size="10.00">+</text>
<text text-anchor="start" x="171.5" y="-110.5" font-family="Helvetica,sans-Serif" font-size="10.00">PlacedObjectIndex</text>
<text text-anchor="start" x="156.5" y="-94.5" font-family="Helvetica,sans-Serif" font-size="10.00">+</text>
<text text-anchor="start" x="171.5" y="-94.5" font-family="Helvetica,sans-Serif" font-size="10.00">PlacementData()</text>
<text text-anchor="start" x="156.5" y="-78.5" font-family="Helvetica,sans-Serif" font-size="10.00">+</text>
<text text-anchor="start" x="171.5" y="-78.5" font-family="Helvetica,sans-Serif" font-size="10.00">PlacementData()</text>
<text text-anchor="start" x="156.5" y="-62.5" font-family="Helvetica,sans-Serif" font-size="10.00">+</text>
<text text-anchor="start" x="171.5" y="-62.5" font-family="Helvetica,sans-Serif" font-size="10.00">NetworkSerialize&lt; T &gt;()</text>
<polygon fill="#666666" stroke="#666666" points="147.5,-154 147.5,-154 289.5,-154 289.5,-154 147.5,-154"/>
<polygon fill="#666666" stroke="#666666" points="147.5,-106 147.5,-106 169.5,-106 169.5,-106 147.5,-106"/>
<polygon fill="#666666" stroke="#666666" points="169.5,-106 169.5,-106 289.5,-106 289.5,-106 169.5,-106"/>
<polygon fill="none" stroke="#666666" points="147.5,-56 147.5,-172 289.5,-172 289.5,-56 147.5,-56"/>
</a>
</g>
</g>
<!-- Node1&#45;&gt;Node3 -->
<g id="edge2_Node000001_Node000003" class="edge">
<title>Node1&#45;&gt;Node3</title>
<g id="a_edge2_Node000001_Node000003"><a xlink:title=" ">
<path fill="none" stroke="#63b8ff" d="M218.5,-252.6C218.5,-229.23 218.5,-198.41 218.5,-171.86"/>
<polygon fill="none" stroke="#63b8ff" points="215,-252.56 218.5,-262.56 222,-252.56 215,-252.56"/>
</a>
</g>
</g>
<!-- Node4 -->
<g id="Node000004" class="node">
<title>Node4</title>
<g id="a_Node000004"><a xlink:href="class_p_a1_a_1_1_items_1_1_item_stack.html" target="_top" xlink:title="Represents individual data about an Item">
<polygon fill="white" stroke="none" points="429,-228 308,-228 308,0 429,0 429,-228"/>
<text text-anchor="start" x="318.25" y="-214.5" font-family="Helvetica,sans-Serif" font-size="10.00">PA1A.Items.ItemStack</text>
<text text-anchor="start" x="312" y="-198.5" font-family="Helvetica,sans-Serif" font-size="10.00">+</text>
<text text-anchor="start" x="322" y="-198.5" font-family="Helvetica,sans-Serif" font-size="10.00">Item</text>
<text text-anchor="start" x="312" y="-182.5" font-family="Helvetica,sans-Serif" font-size="10.00">+</text>
<text text-anchor="start" x="322" y="-182.5" font-family="Helvetica,sans-Serif" font-size="10.00">StackSize</text>
<text text-anchor="start" x="312" y="-166.5" font-family="Helvetica,sans-Serif" font-size="10.00">+</text>
<text text-anchor="start" x="322" y="-166.5" font-family="Helvetica,sans-Serif" font-size="10.00">ItemStack()</text>
<text text-anchor="start" x="312" y="-150.5" font-family="Helvetica,sans-Serif" font-size="10.00">+</text>
<text text-anchor="start" x="322" y="-150.5" font-family="Helvetica,sans-Serif" font-size="10.00">ItemStack()</text>
<text text-anchor="start" x="312" y="-134.5" font-family="Helvetica,sans-Serif" font-size="10.00">+</text>
<text text-anchor="start" x="322" y="-134.5" font-family="Helvetica,sans-Serif" font-size="10.00">ItemStack()</text>
<text text-anchor="start" x="312" y="-118.5" font-family="Helvetica,sans-Serif" font-size="10.00">+</text>
<text text-anchor="start" x="322" y="-118.5" font-family="Helvetica,sans-Serif" font-size="10.00">ItemStack()</text>
<text text-anchor="start" x="312" y="-102.5" font-family="Helvetica,sans-Serif" font-size="10.00">+</text>
<text text-anchor="start" x="322" y="-102.5" font-family="Helvetica,sans-Serif" font-size="10.00">IsSameAs()</text>
<text text-anchor="start" x="312" y="-86.5" font-family="Helvetica,sans-Serif" font-size="10.00">+</text>
<text text-anchor="start" x="322" y="-86.5" font-family="Helvetica,sans-Serif" font-size="10.00">Clone()</text>
<text text-anchor="start" x="312" y="-70.5" font-family="Helvetica,sans-Serif" font-size="10.00">+</text>
<text text-anchor="start" x="322" y="-70.5" font-family="Helvetica,sans-Serif" font-size="10.00">ToString()</text>
<text text-anchor="start" x="312" y="-54.5" font-family="Helvetica,sans-Serif" font-size="10.00">+</text>
<text text-anchor="start" x="322" y="-54.5" font-family="Helvetica,sans-Serif" font-size="10.00">NetworkSerialize&lt; T &gt;()</text>
<text text-anchor="start" x="312" y="-38.5" font-family="Helvetica,sans-Serif" font-size="10.00">+</text>
<text text-anchor="start" x="322" y="-38.5" font-family="Helvetica,sans-Serif" font-size="10.00">Equals()</text>
<text text-anchor="start" x="312.38" y="-22.5" font-family="Helvetica,sans-Serif" font-size="10.00">#</text>
<text text-anchor="start" x="322" y="-22.5" font-family="Helvetica,sans-Serif" font-size="10.00">GetItem()</text>
<text text-anchor="start" x="312.38" y="-6.5" font-family="Helvetica,sans-Serif" font-size="10.00">#</text>
<text text-anchor="start" x="322" y="-6.5" font-family="Helvetica,sans-Serif" font-size="10.00">SetItem()</text>
<polygon fill="#666666" stroke="#666666" points="308,-210 308,-210 429,-210 429,-210 308,-210"/>
<polygon fill="#666666" stroke="#666666" points="308,-178 308,-178 320,-178 320,-178 308,-178"/>
<polygon fill="#666666" stroke="#666666" points="320,-178 320,-178 429,-178 429,-178 320,-178"/>
<polygon fill="none" stroke="#666666" points="308,0 308,-228 429,-228 429,0 308,0"/>
</a>
</g>
</g>
<!-- Node1&#45;&gt;Node4 -->
<g id="edge3_Node000001_Node000004" class="edge">
<title>Node1&#45;&gt;Node4</title>
<g id="a_edge3_Node000001_Node000004"><a xlink:title=" ">
<path fill="none" stroke="#63b8ff" d="M265.77,-257.48C277.19,-248.69 288.87,-238.61 298.5,-228 301.76,-224.41 304.95,-220.65 308.07,-216.77"/>
<polygon fill="none" stroke="#63b8ff" points="263.84,-254.56 257.92,-263.34 268.03,-260.17 263.84,-254.56"/>
</a>
</g>
</g>
</g>
</svg>
</svg>

<style type='text/css'>
<![CDATA[
[data-mouse-over-selected='false'] { opacity: 0.7; }
[data-mouse-over-selected='true']  { opacity: 1.0; }
]]>
</style>
<script type="application/ecmascript"><![CDATA[
document.addEventListener('DOMContentLoaded', (event) => {
  highlightEdges();
  highlightAdjacentNodes();
});
]]></script>
</svg>
