<?xml version="1.0" encoding="UTF-8" standalone="no"?>
<!DOCTYPE svg PUBLIC "-//W3C//DTD SVG 1.1//EN"
 "http://www.w3.org/Graphics/SVG/1.1/DTD/svg11.dtd">
<!-- Generated by graphviz version 12.1.2 (20240928.0832)
 -->
<!-- Title: CodeSmile.MultiPal.Design.SpawnLocation Pages: 1 -->
<svg width="141pt" height="160pt"
 viewBox="0.00 0.00 141.00 160.00" xmlns="http://www.w3.org/2000/svg" xmlns:xlink="http://www.w3.org/1999/xlink">

<svg id="main" version="1.1" xmlns="http://www.w3.org/2000/svg" xmlns:xlink="http://www.w3.org/1999/xlink" xml:space="preserve">

<style type="text/css"><![CDATA[
.node, .edge {opacity: 0.7;}
.node.selected, .edge.selected {opacity: 1;}
.edge:hover path { stroke: red; }
.edge:hover polygon { stroke: red; fill: red; }
]]></style>
<script type="application/ecmascript" xlink:href="svg.min.js"/>
<svg id="graph" class="graph">
<g id="graph0" class="graph" transform="scale(1 1) rotate(0) translate(4 156)">
<title>CodeSmile.MultiPal.Design.SpawnLocation</title>
<!-- Node1 -->
<g id="Node000001" class="node">
<title>Node1</title>
<g id="a_Node000001"><a xlink:title=" ">
<polygon fill="#999999" stroke="none" points="133,-64 0,-64 0,0 133,0 133,-64"/>
<text text-anchor="start" x="5" y="-50.5" font-family="Helvetica,sans-Serif" font-size="10.00">CodeSmile.MultiPal.Design.</text>
<text text-anchor="start" x="33.12" y="-38.5" font-family="Helvetica,sans-Serif" font-size="10.00">SpawnLocation</text>
<text text-anchor="start" x="13.5" y="-22.5" font-family="Helvetica,sans-Serif" font-size="10.00">+</text>
<text text-anchor="start" x="33" y="-22.5" font-family="Helvetica,sans-Serif" font-size="10.00">PlayersAllowed</text>
<text text-anchor="start" x="13.5" y="-6.5" font-family="Helvetica,sans-Serif" font-size="10.00">+</text>
<text text-anchor="start" x="33" y="-6.5" font-family="Helvetica,sans-Serif" font-size="10.00">IsPlayerAllowed()</text>
<polygon fill="#666666" stroke="#666666" points="0,-34 0,-34 133,-34 133,-34 0,-34"/>
<polygon fill="#666666" stroke="#666666" points="0,-18 0,-18 31,-18 31,-18 0,-18"/>
<polygon fill="#666666" stroke="#666666" points="31,-18 31,-18 133,-18 133,-18 31,-18"/>
<polygon fill="none" stroke="#666666" points="0,0 0,-64 133,-64 133,0 0,0"/>
</a>
</g>
</g>
<!-- Node2 -->
<g id="Node000002" class="node">
<title>Node2</title>
<g id="a_Node000002"><a xlink:href="class_mono_behaviour.html" target="_top" xlink:title=" ">
<polygon fill="white" stroke="none" points="105,-152 28,-152 28,-100 105,-100 105,-152"/>
<text text-anchor="start" x="32.75" y="-138.5" font-family="Helvetica,sans-Serif" font-size="10.00">MonoBehaviour</text>
<text text-anchor="start" x="65" y="-122.5" font-family="Helvetica,sans-Serif" font-size="10.00"> </text>
<text text-anchor="start" x="65" y="-106.5" font-family="Helvetica,sans-Serif" font-size="10.00"> </text>
<polygon fill="#666666" stroke="#666666" points="28,-134 28,-134 105,-134 105,-134 28,-134"/>
<polygon fill="#666666" stroke="#666666" points="28,-118 28,-118 105,-118 105,-118 28,-118"/>
<polygon fill="none" stroke="#666666" points="28,-100 28,-152 105,-152 105,-100 28,-100"/>
</a>
</g>
</g>
<!-- Node2&#45;&gt;Node1 -->
<g id="edge1_Node000001_Node000002" class="edge">
<title>Node2&#45;&gt;Node1</title>
<g id="a_edge1_Node000001_Node000002"><a xlink:title=" ">
<path fill="none" stroke="#63b8ff" d="M66.5,-89.06C66.5,-80.78 66.5,-72.04 66.5,-63.98"/>
<polygon fill="none" stroke="#63b8ff" points="63,-88.83 66.5,-98.83 70,-88.83 63,-88.83"/>
</a>
</g>
</g>
</g>
</svg>
</svg>

<style type='text/css'>
<![CDATA[
[data-mouse-over-selected='false'] { opacity: 0.7; }
[data-mouse-over-selected='true']  { opacity: 1.0; }
]]>
</style>
<script type="application/ecmascript"><![CDATA[
document.addEventListener('DOMContentLoaded', (event) => {
  highlightEdges();
  highlightAdjacentNodes();
});
]]></script>
</svg>
