<?xml version="1.0" encoding="UTF-8" standalone="no"?>
<!DOCTYPE svg PUBLIC "-//W3C//DTD SVG 1.1//EN"
 "http://www.w3.org/Graphics/SVG/1.1/DTD/svg11.dtd">
<!-- Generated by graphviz version 12.1.2 (20240928.0832)
 -->
<!-- Title: CodeSmile.MultiPal.GUI.MenuBase.ToggleVisible Pages: 1 -->
<svg width="345pt" height="90pt"
 viewBox="0.00 0.00 344.50 90.00" xmlns="http://www.w3.org/2000/svg" xmlns:xlink="http://www.w3.org/1999/xlink">
<g id="graph0" class="graph" transform="scale(1 1) rotate(0) translate(4 86)">
<title>CodeSmile.MultiPal.GUI.MenuBase.ToggleVisible</title>
<!-- Node1 -->
<g id="Node000001" class="node">
<title>Node1</title>
<g id="a_Node000001"><a xlink:title=" ">
<polygon fill="#999999" stroke="#666666" points="150.25,-57 0,-57 0,-25 150.25,-25 150.25,-57"/>
<text text-anchor="start" x="8" y="-43.5" font-family="Helvetica,sans-Serif" font-size="10.00">CodeSmile.MultiPal.GUI.Menu</text>
<text text-anchor="middle" x="75.12" y="-31.5" font-family="Helvetica,sans-Serif" font-size="10.00">Base.ToggleVisible</text>
</a>
</g>
</g>
<!-- Node2 -->
<g id="Node000002" class="node">
<title>Node2</title>
<g id="a_Node000002"><a xlink:href="class_code_smile_1_1_multi_pal_1_1_g_u_i_1_1_menu_base.html#a347b65f6547c9b54f094e956bc63d3d6" target="_top" xlink:title=" ">
<polygon fill="white" stroke="#666666" points="336.5,-82 186.25,-82 186.25,-50 336.5,-50 336.5,-82"/>
<text text-anchor="start" x="194.25" y="-68.5" font-family="Helvetica,sans-Serif" font-size="10.00">CodeSmile.MultiPal.GUI.Menu</text>
<text text-anchor="middle" x="261.38" y="-56.5" font-family="Helvetica,sans-Serif" font-size="10.00">Base.Hide</text>
</a>
</g>
</g>
<!-- Node1&#45;&gt;Node2 -->
<g id="edge1_Node000001_Node000002" class="edge">
<title>Node1&#45;&gt;Node2</title>
<g id="a_edge1_Node000001_Node000002"><a xlink:title=" ">
<path fill="none" stroke="#63b8ff" d="M150.54,-51.1C158.48,-52.17 166.6,-53.28 174.66,-54.37"/>
<polygon fill="#63b8ff" stroke="#63b8ff" points="174.11,-57.83 184.49,-55.7 175.05,-50.89 174.11,-57.83"/>
</a>
</g>
</g>
<!-- Node3 -->
<g id="Node000003" class="node">
<title>Node3</title>
<g id="a_Node000003"><a xlink:href="class_code_smile_1_1_multi_pal_1_1_g_u_i_1_1_menu_base.html#ad3b818aebe03b7cf98b3e100aafc2d50" target="_top" xlink:title=" ">
<polygon fill="white" stroke="#666666" points="336.5,-32 186.25,-32 186.25,0 336.5,0 336.5,-32"/>
<text text-anchor="start" x="194.25" y="-18.5" font-family="Helvetica,sans-Serif" font-size="10.00">CodeSmile.MultiPal.GUI.Menu</text>
<text text-anchor="middle" x="261.38" y="-6.5" font-family="Helvetica,sans-Serif" font-size="10.00">Base.Show</text>
</a>
</g>
</g>
<!-- Node1&#45;&gt;Node3 -->
<g id="edge2_Node000001_Node000003" class="edge">
<title>Node1&#45;&gt;Node3</title>
<g id="a_edge2_Node000001_Node000003"><a xlink:title=" ">
<path fill="none" stroke="#63b8ff" d="M150.54,-30.9C158.48,-29.83 166.6,-28.72 174.66,-27.63"/>
<polygon fill="#63b8ff" stroke="#63b8ff" points="175.05,-31.11 184.49,-26.3 174.11,-24.17 175.05,-31.11"/>
</a>
</g>
</g>
</g>
</svg>
