<?xml version="1.0" encoding="UTF-8" standalone="no"?>
<!DOCTYPE svg PUBLIC "-//W3C//DTD SVG 1.1//EN"
 "http://www.w3.org/Graphics/SVG/1.1/DTD/svg11.dtd">
<!-- Generated by graphviz version 12.1.2 (20240928.0832)
 -->
<!-- Title: CodeSmile.MultiPal.Settings.GameStates.TitleScreenState Pages: 1 -->
<svg width="148pt" height="392pt"
 viewBox="0.00 0.00 148.00 392.00" xmlns="http://www.w3.org/2000/svg" xmlns:xlink="http://www.w3.org/1999/xlink">
<g id="graph0" class="graph" transform="scale(1 1) rotate(0) translate(4 388)">
<title>CodeSmile.MultiPal.Settings.GameStates.TitleScreenState</title>
<!-- Node1 -->
<g id="Node000001" class="node">
<title>Node1</title>
<g id="a_Node000001"><a xlink:title=" ">
<polygon fill="#999999" stroke="none" points="140,-64 0,-64 0,0 140,0 140,-64"/>
<text text-anchor="start" x="4.75" y="-50.5" font-family="Helvetica,sans-Serif" font-size="10.00">CodeSmile.MultiPal.Settings.</text>
<text text-anchor="start" x="4.75" y="-38.5" font-family="Helvetica,sans-Serif" font-size="10.00">GameStates.TitleScreenState</text>
<text text-anchor="start" x="68.5" y="-22.5" font-family="Helvetica,sans-Serif" font-size="10.00"> </text>
<text text-anchor="start" x="68.5" y="-6.5" font-family="Helvetica,sans-Serif" font-size="10.00"> </text>
<polygon fill="#666666" stroke="#666666" points="0,-34 0,-34 140,-34 140,-34 0,-34"/>
<polygon fill="#666666" stroke="#666666" points="0,-18 0,-18 140,-18 140,-18 0,-18"/>
<polygon fill="none" stroke="#666666" points="0,0 0,-64 140,-64 140,0 0,0"/>
</a>
</g>
</g>
<!-- Node2 -->
<g id="Node000002" class="node">
<title>Node2</title>
<g id="a_Node000002"><a xlink:href="class_code_smile_1_1_multi_pal_1_1_settings_1_1_game_state_base.html" target="_top" xlink:title=" ">
<polygon fill="white" stroke="none" points="124,-296 16,-296 16,-100 124,-100 124,-296"/>
<text text-anchor="start" x="34" y="-282.5" font-family="Helvetica,sans-Serif" font-size="10.00">GameStateBase</text>
<text text-anchor="start" x="20" y="-266.5" font-family="Helvetica,sans-Serif" font-size="10.00">+</text>
<text text-anchor="start" x="30" y="-266.5" font-family="Helvetica,sans-Serif" font-size="10.00">MenuRoot</text>
<text text-anchor="start" x="20" y="-250.5" font-family="Helvetica,sans-Serif" font-size="10.00">+</text>
<text text-anchor="start" x="30" y="-250.5" font-family="Helvetica,sans-Serif" font-size="10.00">NextStateCondition</text>
<text text-anchor="start" x="20" y="-234.5" font-family="Helvetica,sans-Serif" font-size="10.00">+</text>
<text text-anchor="start" x="30" y="-234.5" font-family="Helvetica,sans-Serif" font-size="10.00">NextState</text>
<text text-anchor="start" x="20" y="-218.5" font-family="Helvetica,sans-Serif" font-size="10.00">+</text>
<text text-anchor="start" x="30" y="-218.5" font-family="Helvetica,sans-Serif" font-size="10.00">ClientScenes</text>
<text text-anchor="start" x="20" y="-202.5" font-family="Helvetica,sans-Serif" font-size="10.00">+</text>
<text text-anchor="start" x="30" y="-202.5" font-family="Helvetica,sans-Serif" font-size="10.00">ServerScenes</text>
<text text-anchor="start" x="20" y="-186.5" font-family="Helvetica,sans-Serif" font-size="10.00">+</text>
<text text-anchor="start" x="30" y="-186.5" font-family="Helvetica,sans-Serif" font-size="10.00">ClientSceneRefs</text>
<text text-anchor="start" x="20" y="-170.5" font-family="Helvetica,sans-Serif" font-size="10.00">+</text>
<text text-anchor="start" x="30" y="-170.5" font-family="Helvetica,sans-Serif" font-size="10.00">ServerSceneRefs</text>
<text text-anchor="start" x="20" y="-154.5" font-family="Helvetica,sans-Serif" font-size="10.00">+</text>
<text text-anchor="start" x="30" y="-154.5" font-family="Helvetica,sans-Serif" font-size="10.00">ConditionsSatisfied()</text>
<text text-anchor="start" x="20" y="-138.5" font-family="Helvetica,sans-Serif" font-size="10.00">+</text>
<text text-anchor="start" x="30" y="-138.5" font-family="Helvetica,sans-Serif" font-size="10.00">OnEnterState()</text>
<text text-anchor="start" x="20" y="-122.5" font-family="Helvetica,sans-Serif" font-size="10.00">+</text>
<text text-anchor="start" x="30" y="-122.5" font-family="Helvetica,sans-Serif" font-size="10.00">OnExitState()</text>
<text text-anchor="start" x="20.38" y="-106.5" font-family="Helvetica,sans-Serif" font-size="10.00">#</text>
<text text-anchor="start" x="30" y="-106.5" font-family="Helvetica,sans-Serif" font-size="10.00">OnValidate()</text>
<polygon fill="#666666" stroke="#666666" points="16,-278 16,-278 124,-278 124,-278 16,-278"/>
<polygon fill="#666666" stroke="#666666" points="16,-166 16,-166 28,-166 28,-166 16,-166"/>
<polygon fill="#666666" stroke="#666666" points="28,-166 28,-166 124,-166 124,-166 28,-166"/>
<polygon fill="none" stroke="#666666" points="16,-100 16,-296 124,-296 124,-100 16,-100"/>
</a>
</g>
</g>
<!-- Node2&#45;&gt;Node1 -->
<g id="edge1_Node000001_Node000002" class="edge">
<title>Node2&#45;&gt;Node1</title>
<g id="a_edge1_Node000001_Node000002"><a xlink:title=" ">
<path fill="none" stroke="#63b8ff" d="M70,-88.74C70,-79.87 70,-71.47 70,-63.99"/>
<polygon fill="none" stroke="#63b8ff" points="66.5,-88.66 70,-98.66 73.5,-88.66 66.5,-88.66"/>
</a>
</g>
</g>
<!-- Node3 -->
<g id="Node000003" class="node">
<title>Node3</title>
<g id="a_Node000003"><a xlink:href="class_scriptable_object.html" target="_top" xlink:title=" ">
<polygon fill="white" stroke="none" points="111,-384 29,-384 29,-332 111,-332 111,-384"/>
<text text-anchor="start" x="34" y="-370.5" font-family="Helvetica,sans-Serif" font-size="10.00">ScriptableObject</text>
<text text-anchor="start" x="68.5" y="-354.5" font-family="Helvetica,sans-Serif" font-size="10.00"> </text>
<text text-anchor="start" x="68.5" y="-338.5" font-family="Helvetica,sans-Serif" font-size="10.00"> </text>
<polygon fill="#666666" stroke="#666666" points="29,-366 29,-366 111,-366 111,-366 29,-366"/>
<polygon fill="#666666" stroke="#666666" points="29,-350 29,-350 111,-350 111,-350 29,-350"/>
<polygon fill="none" stroke="#666666" points="29,-332 29,-384 111,-384 111,-332 29,-332"/>
</a>
</g>
</g>
<!-- Node3&#45;&gt;Node2 -->
<g id="edge2_Node000002_Node000003" class="edge">
<title>Node3&#45;&gt;Node2</title>
<g id="a_edge2_Node000002_Node000003"><a xlink:title=" ">
<path fill="none" stroke="#63b8ff" d="M70,-320.88C70,-313.15 70,-304.63 70,-295.8"/>
<polygon fill="none" stroke="#63b8ff" points="66.5,-320.8 70,-330.8 73.5,-320.8 66.5,-320.8"/>
</a>
</g>
</g>
</g>
</svg>
