<?xml version="1.0" encoding="UTF-8" standalone="no"?>
<!DOCTYPE svg PUBLIC "-//W3C//DTD SVG 1.1//EN"
 "http://www.w3.org/Graphics/SVG/1.1/DTD/svg11.dtd">
<!-- Generated by graphviz version 12.1.2 (20240928.0832)
 -->
<!-- Title: PA1A.Items.UI.ClassicContainerUI Pages: 1 -->
<svg width="173pt" height="420pt"
 viewBox="0.00 0.00 172.50 420.00" xmlns="http://www.w3.org/2000/svg" xmlns:xlink="http://www.w3.org/1999/xlink">
<g id="graph0" class="graph" transform="scale(1 1) rotate(0) translate(4 416)">
<title>PA1A.Items.UI.ClassicContainerUI</title>
<!-- Node1 -->
<g id="Node000001" class="node">
<title>Node1</title>
<g id="a_Node000001"><a xlink:title="Classic implementation of IContainerUI &#160;(Supports fixed and flexible sized containers)">
<polygon fill="#999999" stroke="none" points="164.5,-292 0.5,-292 0.5,0 164.5,0 164.5,-292"/>
<text text-anchor="start" x="5.25" y="-278.5" font-family="Helvetica,sans-Serif" font-size="10.00">PA1A.Items.UI.ClassicContainerUI</text>
<text text-anchor="start" x="11" y="-262.5" font-family="Helvetica,sans-Serif" font-size="10.00">+</text>
<text text-anchor="start" x="27.5" y="-262.5" font-family="Helvetica,sans-Serif" font-size="10.00">SlotsParent</text>
<text text-anchor="start" x="11" y="-246.5" font-family="Helvetica,sans-Serif" font-size="10.00">+</text>
<text text-anchor="start" x="27.5" y="-246.5" font-family="Helvetica,sans-Serif" font-size="10.00">SlotUIPrefab</text>
<text text-anchor="start" x="11" y="-230.5" font-family="Helvetica,sans-Serif" font-size="10.00">+</text>
<text text-anchor="start" x="27.5" y="-230.5" font-family="Helvetica,sans-Serif" font-size="10.00">Container</text>
<text text-anchor="start" x="11" y="-214.5" font-family="Helvetica,sans-Serif" font-size="10.00">+</text>
<text text-anchor="start" x="27.5" y="-214.5" font-family="Helvetica,sans-Serif" font-size="10.00">Slots</text>
<text text-anchor="start" x="11" y="-198.5" font-family="Helvetica,sans-Serif" font-size="10.00">+</text>
<text text-anchor="start" x="27.5" y="-198.5" font-family="Helvetica,sans-Serif" font-size="10.00">IsBuilt</text>
<text text-anchor="start" x="11" y="-182.5" font-family="Helvetica,sans-Serif" font-size="10.00">+</text>
<text text-anchor="start" x="27.5" y="-182.5" font-family="Helvetica,sans-Serif" font-size="10.00">Build()</text>
<text text-anchor="start" x="11" y="-166.5" font-family="Helvetica,sans-Serif" font-size="10.00">+</text>
<text text-anchor="start" x="27.5" y="-166.5" font-family="Helvetica,sans-Serif" font-size="10.00">Unbuild()</text>
<text text-anchor="start" x="11" y="-150.5" font-family="Helvetica,sans-Serif" font-size="10.00">+</text>
<text text-anchor="start" x="27.5" y="-150.5" font-family="Helvetica,sans-Serif" font-size="10.00">Toggle()</text>
<text text-anchor="start" x="11.38" y="-134.5" font-family="Helvetica,sans-Serif" font-size="10.00">#</text>
<text text-anchor="start" x="27.5" y="-134.5" font-family="Helvetica,sans-Serif" font-size="10.00">OnEnable()</text>
<text text-anchor="start" x="11.38" y="-118.5" font-family="Helvetica,sans-Serif" font-size="10.00">#</text>
<text text-anchor="start" x="27.5" y="-118.5" font-family="Helvetica,sans-Serif" font-size="10.00">AwaitPlayerInventoryLoad()</text>
<text text-anchor="start" x="11.38" y="-102.5" font-family="Helvetica,sans-Serif" font-size="10.00">#</text>
<text text-anchor="start" x="27.5" y="-102.5" font-family="Helvetica,sans-Serif" font-size="10.00">OnDestroy()</text>
<text text-anchor="start" x="11.38" y="-86.5" font-family="Helvetica,sans-Serif" font-size="10.00">#</text>
<text text-anchor="start" x="27.5" y="-86.5" font-family="Helvetica,sans-Serif" font-size="10.00">OnContainerStarted()</text>
<text text-anchor="start" x="11.38" y="-70.5" font-family="Helvetica,sans-Serif" font-size="10.00">#</text>
<text text-anchor="start" x="27.5" y="-70.5" font-family="Helvetica,sans-Serif" font-size="10.00">OnContainerStopped()</text>
<text text-anchor="start" x="11.38" y="-54.5" font-family="Helvetica,sans-Serif" font-size="10.00">#</text>
<text text-anchor="start" x="27.5" y="-54.5" font-family="Helvetica,sans-Serif" font-size="10.00">BuildSlots()</text>
<text text-anchor="start" x="11.38" y="-38.5" font-family="Helvetica,sans-Serif" font-size="10.00">#</text>
<text text-anchor="start" x="27.5" y="-38.5" font-family="Helvetica,sans-Serif" font-size="10.00">UnbuildSlots()</text>
<text text-anchor="start" x="11.38" y="-22.5" font-family="Helvetica,sans-Serif" font-size="10.00">#</text>
<text text-anchor="start" x="27.5" y="-22.5" font-family="Helvetica,sans-Serif" font-size="10.00">CreateSlot()</text>
<text text-anchor="start" x="11.38" y="-6.5" font-family="Helvetica,sans-Serif" font-size="10.00">#</text>
<text text-anchor="start" x="27.5" y="-6.5" font-family="Helvetica,sans-Serif" font-size="10.00">RemoveSlot()</text>
<polygon fill="#666666" stroke="#666666" points="0.5,-274 0.5,-274 164.5,-274 164.5,-274 0.5,-274"/>
<polygon fill="#666666" stroke="#666666" points="0.5,-194 0.5,-194 25.5,-194 25.5,-194 0.5,-194"/>
<polygon fill="#666666" stroke="#666666" points="25.5,-194 25.5,-194 164.5,-194 164.5,-194 25.5,-194"/>
<polygon fill="none" stroke="#666666" points="0.5,0 0.5,-292 164.5,-292 164.5,0 0.5,0"/>
</a>
</g>
</g>
<!-- Node2 -->
<g id="Node000002" class="node">
<title>Node2</title>
<g id="a_Node000002"><a xlink:href="class_mono_behaviour.html" target="_top" xlink:title=" ">
<polygon fill="white" stroke="none" points="77,-396 0,-396 0,-344 77,-344 77,-396"/>
<text text-anchor="start" x="4.75" y="-382.5" font-family="Helvetica,sans-Serif" font-size="10.00">MonoBehaviour</text>
<text text-anchor="start" x="37" y="-366.5" font-family="Helvetica,sans-Serif" font-size="10.00"> </text>
<text text-anchor="start" x="37" y="-350.5" font-family="Helvetica,sans-Serif" font-size="10.00"> </text>
<polygon fill="#666666" stroke="#666666" points="0,-378 0,-378 77,-378 77,-378 0,-378"/>
<polygon fill="#666666" stroke="#666666" points="0,-362 0,-362 77,-362 77,-362 0,-362"/>
<polygon fill="none" stroke="#666666" points="0,-344 0,-396 77,-396 77,-344 0,-344"/>
</a>
</g>
</g>
<!-- Node2&#45;&gt;Node1 -->
<g id="edge1_Node000001_Node000002" class="edge">
<title>Node2&#45;&gt;Node1</title>
<g id="a_edge1_Node000001_Node000002"><a xlink:title=" ">
<path fill="none" stroke="#63b8ff" d="M45.61,-333.14C47.99,-321.1 50.82,-306.84 53.83,-291.64"/>
<polygon fill="none" stroke="#63b8ff" points="42.18,-332.42 43.67,-342.91 49.05,-333.78 42.18,-332.42"/>
</a>
</g>
</g>
<!-- Node3 -->
<g id="Node000003" class="node">
<title>Node3</title>
<g id="a_Node000003"><a xlink:href="interface_p_a1_a_1_1_items_1_1_u_i_1_1_i_container_u_i.html" target="_top" xlink:title="Represents a IContainerUI that will handle the display of an IContainer">
<polygon fill="white" stroke="none" points="160,-412 95,-412 95,-328 160,-328 160,-412"/>
<text text-anchor="start" x="99.75" y="-398.5" font-family="Helvetica,sans-Serif" font-size="10.00">IContainerUI</text>
<text text-anchor="start" x="101" y="-382.5" font-family="Helvetica,sans-Serif" font-size="10.00">+</text>
<text text-anchor="start" x="113" y="-382.5" font-family="Helvetica,sans-Serif" font-size="10.00">IsBuilt</text>
<text text-anchor="start" x="101" y="-366.5" font-family="Helvetica,sans-Serif" font-size="10.00">+</text>
<text text-anchor="start" x="113" y="-366.5" font-family="Helvetica,sans-Serif" font-size="10.00">Build()</text>
<text text-anchor="start" x="101" y="-350.5" font-family="Helvetica,sans-Serif" font-size="10.00">+</text>
<text text-anchor="start" x="113" y="-350.5" font-family="Helvetica,sans-Serif" font-size="10.00">Unbuild()</text>
<text text-anchor="start" x="101" y="-334.5" font-family="Helvetica,sans-Serif" font-size="10.00">+</text>
<text text-anchor="start" x="113" y="-334.5" font-family="Helvetica,sans-Serif" font-size="10.00">Toggle()</text>
<polygon fill="#666666" stroke="#666666" points="95,-394 95,-394 160,-394 160,-394 95,-394"/>
<polygon fill="#666666" stroke="#666666" points="95,-378 95,-378 111,-378 111,-378 95,-378"/>
<polygon fill="#666666" stroke="#666666" points="111,-378 111,-378 160,-378 160,-378 111,-378"/>
<polygon fill="none" stroke="#666666" points="95,-328 95,-412 160,-412 160,-328 95,-328"/>
</a>
</g>
</g>
<!-- Node3&#45;&gt;Node1 -->
<g id="edge2_Node000001_Node000003" class="edge">
<title>Node3&#45;&gt;Node1</title>
<g id="a_edge2_Node000001_Node000003"><a xlink:title=" ">
<path fill="none" stroke="#63b8ff" d="M116.93,-316.83C115.32,-308.9 113.59,-300.4 111.81,-291.59"/>
<polygon fill="none" stroke="#63b8ff" points="113.48,-317.43 118.89,-326.54 120.34,-316.04 113.48,-317.43"/>
</a>
</g>
</g>
</g>
</svg>
