<?xml version="1.0" encoding="UTF-8" standalone="no"?>
<!DOCTYPE svg PUBLIC "-//W3C//DTD SVG 1.1//EN"
 "http://www.w3.org/Graphics/SVG/1.1/DTD/svg11.dtd">
<!-- Generated by graphviz version 12.1.2 (20240928.0832)
 -->
<!-- Title: PA1A.Items.UI.ClassicSlotUI Pages: 1 -->
<svg width="288pt" height="348pt"
 viewBox="0.00 0.00 287.50 348.00" xmlns="http://www.w3.org/2000/svg" xmlns:xlink="http://www.w3.org/1999/xlink">

<svg id="main" version="1.1" xmlns="http://www.w3.org/2000/svg" xmlns:xlink="http://www.w3.org/1999/xlink" xml:space="preserve">

<style type="text/css"><![CDATA[
.node, .edge {opacity: 0.7;}
.node.selected, .edge.selected {opacity: 1;}
.edge:hover path { stroke: red; }
.edge:hover polygon { stroke: red; fill: red; }
]]></style>
<script type="application/ecmascript" xlink:href="svg.min.js"/>
<svg id="graph" class="graph">
<g id="graph0" class="graph" transform="scale(1 1) rotate(0) translate(4 344)">
<title>PA1A.Items.UI.ClassicSlotUI</title>
<!-- Node1 -->
<g id="Node000001" class="node">
<title>Node1</title>
<g id="a_Node000001"><a xlink:title="Classic ISlotUI that only displays the Item.Sprite and ItemStack.StackSize">
<polygon fill="#999999" stroke="none" points="244,-68 105,-68 105,0 244,0 244,-68"/>
<text text-anchor="start" x="109.62" y="-54.5" font-family="Helvetica,sans-Serif" font-size="10.00">PA1A.Items.UI.ClassicSlotUI</text>
<text text-anchor="start" x="129" y="-38.5" font-family="Helvetica,sans-Serif" font-size="10.00">+</text>
<text text-anchor="start" x="159" y="-38.5" font-family="Helvetica,sans-Serif" font-size="10.00">Header</text>
<text text-anchor="start" x="129" y="-22.5" font-family="Helvetica,sans-Serif" font-size="10.00">+</text>
<text text-anchor="start" x="159" y="-22.5" font-family="Helvetica,sans-Serif" font-size="10.00">Content</text>
<text text-anchor="start" x="129" y="-6.5" font-family="Helvetica,sans-Serif" font-size="10.00">+</text>
<text text-anchor="start" x="159" y="-6.5" font-family="Helvetica,sans-Serif" font-size="10.00">Refresh()</text>
<polygon fill="#666666" stroke="#666666" points="105,-50 105,-50 244,-50 244,-50 105,-50"/>
<polygon fill="#666666" stroke="#666666" points="105,-18 105,-18 157,-18 157,-18 105,-18"/>
<polygon fill="#666666" stroke="#666666" points="157,-18 157,-18 244,-18 244,-18 157,-18"/>
<polygon fill="none" stroke="#666666" points="105,0 105,-68 244,-68 244,0 105,0"/>
</a>
</g>
</g>
<!-- Node2 -->
<g id="Node000002" class="node">
<title>Node2</title>
<g id="a_Node000002"><a xlink:href="class_p_a1_a_1_1_items_1_1_u_i_1_1_slot_u_i.html" target="_top" xlink:title="Base implementation of ISlotUI that is linked to an IContainer">
<polygon fill="white" stroke="none" points="173.5,-220 83.5,-220 83.5,-104 173.5,-104 173.5,-220"/>
<text text-anchor="start" x="114.62" y="-206.5" font-family="Helvetica,sans-Serif" font-size="10.00">SlotUI</text>
<text text-anchor="start" x="87.5" y="-190.5" font-family="Helvetica,sans-Serif" font-size="10.00">+</text>
<text text-anchor="start" x="97.5" y="-190.5" font-family="Helvetica,sans-Serif" font-size="10.00">Container</text>
<text text-anchor="start" x="87.5" y="-174.5" font-family="Helvetica,sans-Serif" font-size="10.00">+</text>
<text text-anchor="start" x="97.5" y="-174.5" font-family="Helvetica,sans-Serif" font-size="10.00">Index</text>
<text text-anchor="start" x="87.5" y="-158.5" font-family="Helvetica,sans-Serif" font-size="10.00">+</text>
<text text-anchor="start" x="97.5" y="-158.5" font-family="Helvetica,sans-Serif" font-size="10.00">Configure()</text>
<text text-anchor="start" x="87.5" y="-142.5" font-family="Helvetica,sans-Serif" font-size="10.00">+</text>
<text text-anchor="start" x="97.5" y="-142.5" font-family="Helvetica,sans-Serif" font-size="10.00">Refresh()</text>
<text text-anchor="start" x="87.5" y="-126.5" font-family="Helvetica,sans-Serif" font-size="10.00">+</text>
<text text-anchor="start" x="97.5" y="-126.5" font-family="Helvetica,sans-Serif" font-size="10.00">Destroy()</text>
<text text-anchor="start" x="87.5" y="-110.5" font-family="Helvetica,sans-Serif" font-size="10.00">+</text>
<text text-anchor="start" x="97.5" y="-110.5" font-family="Helvetica,sans-Serif" font-size="10.00">OnPointerClick()</text>
<polygon fill="#666666" stroke="#666666" points="83.5,-202 83.5,-202 173.5,-202 173.5,-202 83.5,-202"/>
<polygon fill="#666666" stroke="#666666" points="83.5,-170 83.5,-170 95.5,-170 95.5,-170 83.5,-170"/>
<polygon fill="#666666" stroke="#666666" points="95.5,-170 95.5,-170 173.5,-170 173.5,-170 95.5,-170"/>
<polygon fill="none" stroke="#666666" points="83.5,-104 83.5,-220 173.5,-220 173.5,-104 83.5,-104"/>
</a>
</g>
</g>
<!-- Node2&#45;&gt;Node1 -->
<g id="edge1_Node000001_Node000002" class="edge">
<title>Node2&#45;&gt;Node1</title>
<g id="a_edge1_Node000001_Node000002"><a xlink:title=" ">
<path fill="none" stroke="#63b8ff" d="M153.09,-93.65C156.39,-84.61 159.64,-75.7 162.58,-67.65"/>
<polygon fill="none" stroke="#63b8ff" points="149.87,-92.25 149.73,-102.84 156.45,-94.65 149.87,-92.25"/>
</a>
</g>
</g>
<!-- Node3 -->
<g id="Node000003" class="node">
<title>Node3</title>
<g id="a_Node000003"><a xlink:href="class_mono_behaviour.html" target="_top" xlink:title=" ">
<polygon fill="white" stroke="none" points="77,-324 0,-324 0,-272 77,-272 77,-324"/>
<text text-anchor="start" x="4.75" y="-310.5" font-family="Helvetica,sans-Serif" font-size="10.00">MonoBehaviour</text>
<text text-anchor="start" x="37" y="-294.5" font-family="Helvetica,sans-Serif" font-size="10.00"> </text>
<text text-anchor="start" x="37" y="-278.5" font-family="Helvetica,sans-Serif" font-size="10.00"> </text>
<polygon fill="#666666" stroke="#666666" points="0,-306 0,-306 77,-306 77,-306 0,-306"/>
<polygon fill="#666666" stroke="#666666" points="0,-290 0,-290 77,-290 77,-290 0,-290"/>
<polygon fill="none" stroke="#666666" points="0,-272 0,-324 77,-324 77,-272 0,-272"/>
</a>
</g>
</g>
<!-- Node3&#45;&gt;Node2 -->
<g id="edge2_Node000002_Node000003" class="edge">
<title>Node3&#45;&gt;Node2</title>
<g id="a_edge2_Node000002_Node000003"><a xlink:title=" ">
<path fill="none" stroke="#63b8ff" d="M61.57,-262.65C70.3,-249.66 80.47,-234.51 90.22,-219.99"/>
<polygon fill="none" stroke="#63b8ff" points="58.73,-260.6 56.06,-270.85 64.54,-264.5 58.73,-260.6"/>
</a>
</g>
</g>
<!-- Node4 -->
<g id="Node000004" class="node">
<title>Node4</title>
<g id="a_Node000004"><a xlink:href="interface_p_a1_a_1_1_items_1_1_u_i_1_1_i_slot_u_i.html" target="_top" xlink:title="Represents a ISlotUI that will display a specific ItemStack">
<polygon fill="white" stroke="none" points="161.5,-340 95.5,-340 95.5,-256 161.5,-256 161.5,-340"/>
<text text-anchor="start" x="113.12" y="-326.5" font-family="Helvetica,sans-Serif" font-size="10.00">ISlotUI</text>
<text text-anchor="start" x="127" y="-310.5" font-family="Helvetica,sans-Serif" font-size="10.00"> </text>
<text text-anchor="start" x="99.5" y="-294.5" font-family="Helvetica,sans-Serif" font-size="10.00">+</text>
<text text-anchor="start" x="109.5" y="-294.5" font-family="Helvetica,sans-Serif" font-size="10.00">Configure()</text>
<text text-anchor="start" x="99.5" y="-278.5" font-family="Helvetica,sans-Serif" font-size="10.00">+</text>
<text text-anchor="start" x="109.5" y="-278.5" font-family="Helvetica,sans-Serif" font-size="10.00">Destroy()</text>
<text text-anchor="start" x="99.5" y="-262.5" font-family="Helvetica,sans-Serif" font-size="10.00">+</text>
<text text-anchor="start" x="109.5" y="-262.5" font-family="Helvetica,sans-Serif" font-size="10.00">Refresh()</text>
<polygon fill="#666666" stroke="#666666" points="95.5,-322 95.5,-322 161.5,-322 161.5,-322 95.5,-322"/>
<polygon fill="#666666" stroke="#666666" points="95.5,-306 95.5,-306 161.5,-306 161.5,-306 95.5,-306"/>
<polygon fill="none" stroke="#666666" points="95.5,-256 95.5,-340 161.5,-340 161.5,-256 95.5,-256"/>
</a>
</g>
</g>
<!-- Node4&#45;&gt;Node2 -->
<g id="edge3_Node000002_Node000004" class="edge">
<title>Node4&#45;&gt;Node2</title>
<g id="a_edge3_Node000002_Node000004"><a xlink:title=" ">
<path fill="none" stroke="#63b8ff" d="M128.5,-244.81C128.5,-236.66 128.5,-228.21 128.5,-219.96"/>
<polygon fill="none" stroke="#63b8ff" points="125,-244.55 128.5,-254.55 132,-244.55 125,-244.55"/>
</a>
</g>
</g>
<!-- Node5 -->
<g id="Node000005" class="node">
<title>Node5</title>
<g id="a_Node000005"><a xlink:href="class_i_pointer_click_handler.html" target="_top" xlink:title=" ">
<polygon fill="white" stroke="none" points="279.5,-324 179.5,-324 179.5,-272 279.5,-272 279.5,-324"/>
<text text-anchor="start" x="184.5" y="-310.5" font-family="Helvetica,sans-Serif" font-size="10.00">IPointerClickHandler</text>
<text text-anchor="start" x="228" y="-294.5" font-family="Helvetica,sans-Serif" font-size="10.00"> </text>
<text text-anchor="start" x="228" y="-278.5" font-family="Helvetica,sans-Serif" font-size="10.00"> </text>
<polygon fill="#666666" stroke="#666666" points="179.5,-306 179.5,-306 279.5,-306 279.5,-306 179.5,-306"/>
<polygon fill="#666666" stroke="#666666" points="179.5,-290 179.5,-290 279.5,-290 279.5,-290 179.5,-290"/>
<polygon fill="none" stroke="#666666" points="179.5,-272 179.5,-324 279.5,-324 279.5,-272 179.5,-272"/>
</a>
</g>
</g>
<!-- Node5&#45;&gt;Node2 -->
<g id="edge4_Node000002_Node000005" class="edge">
<title>Node5&#45;&gt;Node2</title>
<g id="a_edge4_Node000002_Node000005"><a xlink:title=" ">
<path fill="none" stroke="#63b8ff" d="M203.89,-263.03C194.04,-249.96 182.5,-234.65 171.46,-219.99"/>
<polygon fill="none" stroke="#63b8ff" points="201.01,-265.02 209.83,-270.9 206.6,-260.81 201.01,-265.02"/>
</a>
</g>
</g>
<!-- Node6 -->
<g id="Node000006" class="node">
<title>Node6</title>
<g id="a_Node000006"><a xlink:title=" ">
<polygon fill="white" stroke="none" points="249.5,-196 191.5,-196 191.5,-128 249.5,-128 249.5,-196"/>
<text text-anchor="start" x="196.5" y="-182.5" font-family="Helvetica,sans-Serif" font-size="10.00">ITooltipInfo</text>
<text text-anchor="start" x="197" y="-166.5" font-family="Helvetica,sans-Serif" font-size="10.00">+</text>
<text text-anchor="start" x="208.5" y="-166.5" font-family="Helvetica,sans-Serif" font-size="10.00">Header</text>
<text text-anchor="start" x="197" y="-150.5" font-family="Helvetica,sans-Serif" font-size="10.00">+</text>
<text text-anchor="start" x="208.5" y="-150.5" font-family="Helvetica,sans-Serif" font-size="10.00">Content</text>
<text text-anchor="start" x="219" y="-134.5" font-family="Helvetica,sans-Serif" font-size="10.00"> </text>
<polygon fill="#666666" stroke="#666666" points="191.5,-178 191.5,-178 249.5,-178 249.5,-178 191.5,-178"/>
<polygon fill="#666666" stroke="#666666" points="191.5,-146 191.5,-146 206.5,-146 206.5,-146 191.5,-146"/>
<polygon fill="#666666" stroke="#666666" points="206.5,-146 206.5,-146 249.5,-146 249.5,-146 206.5,-146"/>
<polygon fill="none" stroke="#666666" points="191.5,-128 191.5,-196 249.5,-196 249.5,-128 191.5,-128"/>
</a>
</g>
</g>
<!-- Node6&#45;&gt;Node1 -->
<g id="edge5_Node000001_Node000006" class="edge">
<title>Node6&#45;&gt;Node1</title>
<g id="a_edge5_Node000001_Node000006"><a xlink:title=" ">
<path fill="none" stroke="#63b8ff" d="M204.72,-117.77C198.72,-101.33 191.99,-82.9 186.41,-67.61"/>
<polygon fill="none" stroke="#63b8ff" points="201.3,-118.61 208.02,-126.8 207.87,-116.21 201.3,-118.61"/>
</a>
</g>
</g>
</g>
</svg>
</svg>

<style type='text/css'>
<![CDATA[
[data-mouse-over-selected='false'] { opacity: 0.7; }
[data-mouse-over-selected='true']  { opacity: 1.0; }
]]>
</style>
<script type="application/ecmascript"><![CDATA[
document.addEventListener('DOMContentLoaded', (event) => {
  highlightEdges();
  highlightAdjacentNodes();
});
]]></script>
</svg>
