<?xml version="1.0" encoding="UTF-8" standalone="no"?>
<!DOCTYPE svg PUBLIC "-//W3C//DTD SVG 1.1//EN"
 "http://www.w3.org/Graphics/SVG/1.1/DTD/svg11.dtd">
<!-- Generated by graphviz version 12.1.2 (20240928.0832)
 -->
<!-- Title: CodeSmile.Statemachine.FSM.Update Pages: 1 -->
<svg width="352pt" height="90pt"
 viewBox="0.00 0.00 352.00 90.00" xmlns="http://www.w3.org/2000/svg" xmlns:xlink="http://www.w3.org/1999/xlink">
<g id="graph0" class="graph" transform="scale(1 1) rotate(0) translate(4 86)">
<title>CodeSmile.Statemachine.FSM.Update</title>
<!-- Node1 -->
<g id="Node000001" class="node">
<title>Node1</title>
<g id="a_Node000001"><a xlink:title="Evaluates the statemachine&#39;s states and their transitions.">
<polygon fill="#999999" stroke="#666666" points="154,-57 0,-57 0,-25 154,-25 154,-57"/>
<text text-anchor="start" x="8" y="-43.5" font-family="Helvetica,sans-Serif" font-size="10.00">CodeSmile.Statemachine.FSM.</text>
<text text-anchor="middle" x="77" y="-31.5" font-family="Helvetica,sans-Serif" font-size="10.00">Update</text>
</a>
</g>
</g>
<!-- Node2 -->
<g id="Node000002" class="node">
<title>Node2</title>
<g id="a_Node000002"><a xlink:href="class_code_smile_1_1_statemachine_1_1_f_s_m_1_1_state.html#a95a7bd3bf1c48ed632799bd543e204a8" target="_top" xlink:title="Is true if the State has no conditions.">
<polygon fill="white" stroke="#666666" points="344,-82 190,-82 190,-50 344,-50 344,-82"/>
<text text-anchor="start" x="198" y="-68.5" font-family="Helvetica,sans-Serif" font-size="10.00">CodeSmile.Statemachine.FSM.</text>
<text text-anchor="middle" x="267" y="-56.5" font-family="Helvetica,sans-Serif" font-size="10.00">State.IsFinalState</text>
</a>
</g>
</g>
<!-- Node1&#45;&gt;Node2 -->
<g id="edge1_Node000001_Node000002" class="edge">
<title>Node1&#45;&gt;Node2</title>
<g id="a_edge1_Node000001_Node000002"><a xlink:title=" ">
<path fill="none" stroke="#63b8ff" d="M154.47,-51.17C162.34,-52.22 170.39,-53.29 178.38,-54.35"/>
<polygon fill="#63b8ff" stroke="#63b8ff" points="177.73,-57.79 188.1,-55.64 178.65,-50.85 177.73,-57.79"/>
</a>
</g>
</g>
<!-- Node3 -->
<g id="Node000003" class="node">
<title>Node3</title>
<g id="a_Node000003"><a xlink:href="class_code_smile_1_1_statemachine_1_1_f_s_m_1_1_state.html#ac5ce13e42857e61bcf520c88f25ea336" target="_top" xlink:title="Updating the state will update all its transitions.">
<polygon fill="white" stroke="#666666" points="344,-32 190,-32 190,0 344,0 344,-32"/>
<text text-anchor="start" x="198" y="-18.5" font-family="Helvetica,sans-Serif" font-size="10.00">CodeSmile.Statemachine.FSM.</text>
<text text-anchor="middle" x="267" y="-6.5" font-family="Helvetica,sans-Serif" font-size="10.00">State.Update</text>
</a>
</g>
</g>
<!-- Node1&#45;&gt;Node3 -->
<g id="edge2_Node000001_Node000003" class="edge">
<title>Node1&#45;&gt;Node3</title>
<g id="a_edge2_Node000001_Node000003"><a xlink:title=" ">
<path fill="none" stroke="#63b8ff" d="M154.47,-30.83C162.34,-29.78 170.39,-28.71 178.38,-27.65"/>
<polygon fill="#63b8ff" stroke="#63b8ff" points="178.65,-31.15 188.1,-26.36 177.73,-24.21 178.65,-31.15"/>
</a>
</g>
</g>
</g>
</svg>
