<?xml version="1.0" encoding="UTF-8" standalone="no"?>
<!DOCTYPE svg PUBLIC "-//W3C//DTD SVG 1.1//EN"
 "http://www.w3.org/Graphics/SVG/1.1/DTD/svg11.dtd">
<!-- Generated by graphviz version 12.1.2 (20240928.0832)
 -->
<!-- Title: CodeSmile.Statemachine.Netcode.Actions.SetNetcodeRole Pages: 1 -->
<svg width="171pt" height="344pt"
 viewBox="0.00 0.00 171.00 344.00" xmlns="http://www.w3.org/2000/svg" xmlns:xlink="http://www.w3.org/1999/xlink">
<g id="graph0" class="graph" transform="scale(1 1) rotate(0) translate(4 340)">
<title>CodeSmile.Statemachine.Netcode.Actions.SetNetcodeRole</title>
<!-- Node1 -->
<g id="Node000001" class="node">
<title>Node1</title>
<g id="a_Node000001"><a xlink:title="Sets the role in the NetcodeConfig var to the given value (Server, Host, Client or None).">
<polygon fill="#999999" stroke="none" points="163,-96 0,-96 0,0 163,0 163,-96"/>
<text text-anchor="start" x="4.62" y="-82.5" font-family="Helvetica,sans-Serif" font-size="10.00">CodeSmile.Statemachine.Netcode.</text>
<text text-anchor="start" x="27.5" y="-70.5" font-family="Helvetica,sans-Serif" font-size="10.00">Actions.SetNetcodeRole</text>
<text text-anchor="start" x="80" y="-54.5" font-family="Helvetica,sans-Serif" font-size="10.00"> </text>
<text text-anchor="start" x="20.5" y="-38.5" font-family="Helvetica,sans-Serif" font-size="10.00">+</text>
<text text-anchor="start" x="47" y="-38.5" font-family="Helvetica,sans-Serif" font-size="10.00">SetNetcodeRole()</text>
<text text-anchor="start" x="20.5" y="-22.5" font-family="Helvetica,sans-Serif" font-size="10.00">+</text>
<text text-anchor="start" x="47" y="-22.5" font-family="Helvetica,sans-Serif" font-size="10.00">Execute()</text>
<text text-anchor="start" x="20.5" y="-6.5" font-family="Helvetica,sans-Serif" font-size="10.00">+</text>
<text text-anchor="start" x="47" y="-6.5" font-family="Helvetica,sans-Serif" font-size="10.00">ToDebugString()</text>
<polygon fill="#666666" stroke="#666666" points="0,-66 0,-66 163,-66 163,-66 0,-66"/>
<polygon fill="#666666" stroke="#666666" points="0,-50 0,-50 163,-50 163,-50 0,-50"/>
<polygon fill="none" stroke="#666666" points="0,0 0,-96 163,-96 163,0 0,0"/>
</a>
</g>
</g>
<!-- Node2 -->
<g id="Node000002" class="node">
<title>Node2</title>
<g id="a_Node000002"><a xlink:href="interface_code_smile_1_1_statemachine_1_1_i_action.html" target="_top" xlink:title="Marks a class as a FSM Action.">
<polygon fill="white" stroke="none" points="125.5,-200 37.5,-200 37.5,-132 125.5,-132 125.5,-200"/>
<text text-anchor="start" x="66.12" y="-186.5" font-family="Helvetica,sans-Serif" font-size="10.00">IAction</text>
<text text-anchor="start" x="80" y="-170.5" font-family="Helvetica,sans-Serif" font-size="10.00"> </text>
<text text-anchor="start" x="41.5" y="-154.5" font-family="Helvetica,sans-Serif" font-size="10.00">+</text>
<text text-anchor="start" x="51.5" y="-154.5" font-family="Helvetica,sans-Serif" font-size="10.00">Execute()</text>
<text text-anchor="start" x="41.5" y="-138.5" font-family="Helvetica,sans-Serif" font-size="10.00">+</text>
<text text-anchor="start" x="51.5" y="-138.5" font-family="Helvetica,sans-Serif" font-size="10.00">ToDebugString()</text>
<polygon fill="#666666" stroke="#666666" points="37.5,-182 37.5,-182 125.5,-182 125.5,-182 37.5,-182"/>
<polygon fill="#666666" stroke="#666666" points="37.5,-166 37.5,-166 125.5,-166 125.5,-166 37.5,-166"/>
<polygon fill="none" stroke="#666666" points="37.5,-132 37.5,-200 125.5,-200 125.5,-132 37.5,-132"/>
</a>
</g>
</g>
<!-- Node2&#45;&gt;Node1 -->
<g id="edge1_Node000001_Node000002" class="edge">
<title>Node2&#45;&gt;Node1</title>
<g id="a_edge1_Node000001_Node000002"><a xlink:title=" ">
<path fill="none" stroke="#63b8ff" d="M81.5,-120.57C81.5,-112.48 81.5,-104.02 81.5,-95.87"/>
<polygon fill="none" stroke="#63b8ff" points="78,-120.56 81.5,-130.56 85,-120.56 78,-120.56"/>
</a>
</g>
</g>
<!-- Node3 -->
<g id="Node000003" class="node">
<title>Node3</title>
<g id="a_Node000003"><a xlink:href="interface_code_smile_1_1_statemachine_1_1_i_statemachine_events.html" target="_top" xlink:title="Event methods that the Statemachine calls at specific times.">
<polygon fill="white" stroke="none" points="133,-336 30,-336 30,-236 133,-236 133,-336"/>
<text text-anchor="start" x="34.62" y="-322.5" font-family="Helvetica,sans-Serif" font-size="10.00">IStatemachineEvents</text>
<text text-anchor="start" x="80" y="-306.5" font-family="Helvetica,sans-Serif" font-size="10.00"> </text>
<text text-anchor="start" x="39" y="-290.5" font-family="Helvetica,sans-Serif" font-size="10.00">+</text>
<text text-anchor="start" x="54" y="-290.5" font-family="Helvetica,sans-Serif" font-size="10.00">OnStart()</text>
<text text-anchor="start" x="39" y="-274.5" font-family="Helvetica,sans-Serif" font-size="10.00">+</text>
<text text-anchor="start" x="54" y="-274.5" font-family="Helvetica,sans-Serif" font-size="10.00">OnStop()</text>
<text text-anchor="start" x="39" y="-258.5" font-family="Helvetica,sans-Serif" font-size="10.00">+</text>
<text text-anchor="start" x="54" y="-258.5" font-family="Helvetica,sans-Serif" font-size="10.00">OnEnterState()</text>
<text text-anchor="start" x="39" y="-242.5" font-family="Helvetica,sans-Serif" font-size="10.00">+</text>
<text text-anchor="start" x="54" y="-242.5" font-family="Helvetica,sans-Serif" font-size="10.00">OnExitState()</text>
<polygon fill="#666666" stroke="#666666" points="30,-318 30,-318 133,-318 133,-318 30,-318"/>
<polygon fill="#666666" stroke="#666666" points="30,-302 30,-302 133,-302 133,-302 30,-302"/>
<polygon fill="none" stroke="#666666" points="30,-236 30,-336 133,-336 133,-236 30,-236"/>
</a>
</g>
</g>
<!-- Node3&#45;&gt;Node2 -->
<g id="edge2_Node000002_Node000003" class="edge">
<title>Node3&#45;&gt;Node2</title>
<g id="a_edge2_Node000002_Node000003"><a xlink:title=" ">
<path fill="none" stroke="#63b8ff" d="M81.5,-224.96C81.5,-216.28 81.5,-207.62 81.5,-199.75"/>
<polygon fill="none" stroke="#63b8ff" points="78,-224.81 81.5,-234.81 85,-224.81 78,-224.81"/>
</a>
</g>
</g>
</g>
</svg>
