<?xml version="1.0" encoding="UTF-8" standalone="no"?>
<!DOCTYPE svg PUBLIC "-//W3C//DTD SVG 1.1//EN"
 "http://www.w3.org/Graphics/SVG/1.1/DTD/svg11.dtd">
<!-- Generated by graphviz version 12.1.2 (20240928.0832)
 -->
<!-- Title: PA1A.Player.Controller.JumpingState Pages: 1 -->
<svg width="158pt" height="224pt"
 viewBox="0.00 0.00 158.00 224.00" xmlns="http://www.w3.org/2000/svg" xmlns:xlink="http://www.w3.org/1999/xlink">

<svg id="main" version="1.1" xmlns="http://www.w3.org/2000/svg" xmlns:xlink="http://www.w3.org/1999/xlink" xml:space="preserve">

<style type="text/css"><![CDATA[
.node, .edge {opacity: 0.7;}
.node.selected, .edge.selected {opacity: 1;}
.edge:hover path { stroke: red; }
.edge:hover polygon { stroke: red; fill: red; }
]]></style>
<script type="application/ecmascript" xlink:href="svg.min.js"/>
<svg id="graph" class="graph">
<g id="graph0" class="graph" transform="scale(1 1) rotate(0) translate(4 220)">
<title>PA1A.Player.Controller.JumpingState</title>
<!-- Node1 -->
<g id="Node000001" class="node">
<title>Node1</title>
<g id="a_Node000001"><a xlink:title=" ">
<polygon fill="#999999" stroke="none" points="150,-80 0,-80 0,0 150,0 150,-80"/>
<text text-anchor="start" x="4.88" y="-66.5" font-family="Helvetica,sans-Serif" font-size="10.00">PA1A.Player.Controller.Jumping</text>
<text text-anchor="start" x="63.38" y="-54.5" font-family="Helvetica,sans-Serif" font-size="10.00">State</text>
<text text-anchor="start" x="73.5" y="-38.5" font-family="Helvetica,sans-Serif" font-size="10.00"> </text>
<text text-anchor="start" x="20.5" y="-22.5" font-family="Helvetica,sans-Serif" font-size="10.00">+</text>
<text text-anchor="start" x="47" y="-22.5" font-family="Helvetica,sans-Serif" font-size="10.00">JumpingState()</text>
<text text-anchor="start" x="20.5" y="-6.5" font-family="Helvetica,sans-Serif" font-size="10.00">+</text>
<text text-anchor="start" x="47" y="-6.5" font-family="Helvetica,sans-Serif" font-size="10.00">OnEnter()</text>
<polygon fill="#666666" stroke="#666666" points="0,-50 0,-50 150,-50 150,-50 0,-50"/>
<polygon fill="#666666" stroke="#666666" points="0,-34 0,-34 150,-34 150,-34 0,-34"/>
<polygon fill="none" stroke="#666666" points="0,0 0,-80 150,-80 150,0 0,0"/>
</a>
</g>
</g>
<!-- Node2 -->
<g id="Node000002" class="node">
<title>Node2</title>
<g id="a_Node000002"><a xlink:href="interface_unity_utils_1_1_state_machine_1_1_i_state.html" target="_top" xlink:title=" ">
<polygon fill="white" stroke="none" points="114.5,-216 35.5,-216 35.5,-116 114.5,-116 114.5,-216"/>
<text text-anchor="start" x="61.88" y="-202.5" font-family="Helvetica,sans-Serif" font-size="10.00">IState</text>
<text text-anchor="start" x="73.5" y="-186.5" font-family="Helvetica,sans-Serif" font-size="10.00"> </text>
<text text-anchor="start" x="39.5" y="-170.5" font-family="Helvetica,sans-Serif" font-size="10.00">+</text>
<text text-anchor="start" x="49.5" y="-170.5" font-family="Helvetica,sans-Serif" font-size="10.00">Update()</text>
<text text-anchor="start" x="39.5" y="-154.5" font-family="Helvetica,sans-Serif" font-size="10.00">+</text>
<text text-anchor="start" x="49.5" y="-154.5" font-family="Helvetica,sans-Serif" font-size="10.00">FixedUpdate()</text>
<text text-anchor="start" x="39.5" y="-138.5" font-family="Helvetica,sans-Serif" font-size="10.00">+</text>
<text text-anchor="start" x="49.5" y="-138.5" font-family="Helvetica,sans-Serif" font-size="10.00">OnEnter()</text>
<text text-anchor="start" x="39.5" y="-122.5" font-family="Helvetica,sans-Serif" font-size="10.00">+</text>
<text text-anchor="start" x="49.5" y="-122.5" font-family="Helvetica,sans-Serif" font-size="10.00">OnExit()</text>
<polygon fill="#666666" stroke="#666666" points="35.5,-198 35.5,-198 114.5,-198 114.5,-198 35.5,-198"/>
<polygon fill="#666666" stroke="#666666" points="35.5,-182 35.5,-182 114.5,-182 114.5,-182 35.5,-182"/>
<polygon fill="none" stroke="#666666" points="35.5,-116 35.5,-216 114.5,-216 114.5,-116 35.5,-116"/>
</a>
</g>
</g>
<!-- Node2&#45;&gt;Node1 -->
<g id="edge1_Node000001_Node000002" class="edge">
<title>Node2&#45;&gt;Node1</title>
<g id="a_edge1_Node000001_Node000002"><a xlink:title=" ">
<path fill="none" stroke="#63b8ff" d="M75,-104.88C75,-96.4 75,-87.88 75,-79.94"/>
<polygon fill="none" stroke="#63b8ff" points="71.5,-104.83 75,-114.83 78.5,-104.83 71.5,-104.83"/>
</a>
</g>
</g>
</g>
</svg>
</svg>

<style type='text/css'>
<![CDATA[
[data-mouse-over-selected='false'] { opacity: 0.7; }
[data-mouse-over-selected='true']  { opacity: 1.0; }
]]>
</style>
<script type="application/ecmascript"><![CDATA[
document.addEventListener('DOMContentLoaded', (event) => {
  highlightEdges();
  highlightAdjacentNodes();
});
]]></script>
</svg>
