<?xml version="1.0" encoding="UTF-8" standalone="no"?>
<!DOCTYPE svg PUBLIC "-//W3C//DTD SVG 1.1//EN"
 "http://www.w3.org/Graphics/SVG/1.1/DTD/svg11.dtd">
<!-- Generated by graphviz version 12.1.2 (20240928.0832)
 -->
<!-- Title: PA1A.Items.UI.ClassicContainerUI.Toggle Pages: 1 -->
<svg width="953pt" height="90pt"
 viewBox="0.00 0.00 952.75 90.00" xmlns="http://www.w3.org/2000/svg" xmlns:xlink="http://www.w3.org/1999/xlink">
<g id="graph0" class="graph" transform="scale(1 1) rotate(0) translate(4 86)">
<title>PA1A.Items.UI.ClassicContainerUI.Toggle</title>
<!-- Node1 -->
<g id="Node000001" class="node">
<title>Node1</title>
<g id="a_Node000001"><a xlink:title="Toggles the build state of the IContainer">
<polygon fill="#999999" stroke="#666666" points="160,-57 0,-57 0,-25 160,-25 160,-57"/>
<text text-anchor="start" x="8" y="-43.5" font-family="Helvetica,sans-Serif" font-size="10.00">PA1A.Items.UI.ClassicContainer</text>
<text text-anchor="middle" x="80" y="-31.5" font-family="Helvetica,sans-Serif" font-size="10.00">UI.Toggle</text>
</a>
</g>
</g>
<!-- Node2 -->
<g id="Node000002" class="node">
<title>Node2</title>
<g id="a_Node000002"><a xlink:href="class_p_a1_a_1_1_items_1_1_u_i_1_1_classic_container_u_i.html#a96ebb0047f59391770661c090ccb861c" target="_top" xlink:title="Builds the IContainerUI">
<polygon fill="white" stroke="#666666" points="356,-82 196,-82 196,-50 356,-50 356,-82"/>
<text text-anchor="start" x="204" y="-68.5" font-family="Helvetica,sans-Serif" font-size="10.00">PA1A.Items.UI.ClassicContainer</text>
<text text-anchor="middle" x="276" y="-56.5" font-family="Helvetica,sans-Serif" font-size="10.00">UI.Build</text>
</a>
</g>
</g>
<!-- Node1&#45;&gt;Node2 -->
<g id="edge1_Node000001_Node000002" class="edge">
<title>Node1&#45;&gt;Node2</title>
<g id="a_edge1_Node000001_Node000002"><a xlink:title=" ">
<path fill="none" stroke="#63b8ff" d="M160.47,-51.24C168.36,-52.26 176.42,-53.3 184.41,-54.33"/>
<polygon fill="#63b8ff" stroke="#63b8ff" points="183.79,-57.78 194.16,-55.58 184.68,-50.83 183.79,-57.78"/>
</a>
</g>
</g>
<!-- Node6 -->
<g id="Node000006" class="node">
<title>Node6</title>
<g id="a_Node000006"><a xlink:href="class_p_a1_a_1_1_items_1_1_u_i_1_1_classic_container_u_i.html#af9a7d16e628b37ca94c3aaf01a97986e" target="_top" xlink:title="Unbuilds the IContainerUI">
<polygon fill="white" stroke="#666666" points="356,-32 196,-32 196,0 356,0 356,-32"/>
<text text-anchor="start" x="204" y="-18.5" font-family="Helvetica,sans-Serif" font-size="10.00">PA1A.Items.UI.ClassicContainer</text>
<text text-anchor="middle" x="276" y="-6.5" font-family="Helvetica,sans-Serif" font-size="10.00">UI.Unbuild</text>
</a>
</g>
</g>
<!-- Node1&#45;&gt;Node6 -->
<g id="edge5_Node000001_Node000006" class="edge">
<title>Node1&#45;&gt;Node6</title>
<g id="a_edge5_Node000001_Node000006"><a xlink:title=" ">
<path fill="none" stroke="#63b8ff" d="M160.47,-30.76C168.36,-29.74 176.42,-28.7 184.41,-27.67"/>
<polygon fill="#63b8ff" stroke="#63b8ff" points="184.68,-31.17 194.16,-26.42 183.79,-24.22 184.68,-31.17"/>
</a>
</g>
</g>
<!-- Node3 -->
<g id="Node000003" class="node">
<title>Node3</title>
<g id="a_Node000003"><a xlink:href="class_p_a1_a_1_1_items_1_1_u_i_1_1_classic_container_u_i.html#ac896e7b6187fb41feb9567ef801b7527" target="_top" xlink:title="Builds the ISlotUI for the IContainer">
<polygon fill="white" stroke="#666666" points="552,-82 392,-82 392,-50 552,-50 552,-82"/>
<text text-anchor="start" x="400" y="-68.5" font-family="Helvetica,sans-Serif" font-size="10.00">PA1A.Items.UI.ClassicContainer</text>
<text text-anchor="middle" x="472" y="-56.5" font-family="Helvetica,sans-Serif" font-size="10.00">UI.BuildSlots</text>
</a>
</g>
</g>
<!-- Node2&#45;&gt;Node3 -->
<g id="edge2_Node000002_Node000003" class="edge">
<title>Node2&#45;&gt;Node3</title>
<g id="a_edge2_Node000002_Node000003"><a xlink:title=" ">
<path fill="none" stroke="#63b8ff" d="M356.47,-66C364.36,-66 372.42,-66 380.41,-66"/>
<polygon fill="#63b8ff" stroke="#63b8ff" points="380.14,-69.5 390.14,-66 380.14,-62.5 380.14,-69.5"/>
</a>
</g>
</g>
<!-- Node4 -->
<g id="Node000004" class="node">
<title>Node4</title>
<g id="a_Node000004"><a xlink:href="class_p_a1_a_1_1_items_1_1_u_i_1_1_classic_container_u_i.html#adee3fdf475cc6c0117352d36cf95a4f8" target="_top" xlink:title="Instantiates a ISlotUI for the specified ISlot.Index">
<polygon fill="white" stroke="#666666" points="748,-82 588,-82 588,-50 748,-50 748,-82"/>
<text text-anchor="start" x="596" y="-68.5" font-family="Helvetica,sans-Serif" font-size="10.00">PA1A.Items.UI.ClassicContainer</text>
<text text-anchor="middle" x="668" y="-56.5" font-family="Helvetica,sans-Serif" font-size="10.00">UI.CreateSlot</text>
</a>
</g>
</g>
<!-- Node3&#45;&gt;Node4 -->
<g id="edge3_Node000003_Node000004" class="edge">
<title>Node3&#45;&gt;Node4</title>
<g id="a_edge3_Node000003_Node000004"><a xlink:title=" ">
<path fill="none" stroke="#63b8ff" d="M552.47,-66C560.36,-66 568.42,-66 576.41,-66"/>
<polygon fill="#63b8ff" stroke="#63b8ff" points="576.14,-69.5 586.14,-66 576.14,-62.5 576.14,-69.5"/>
</a>
</g>
</g>
<!-- Node5 -->
<g id="Node000005" class="node">
<title>Node5</title>
<g id="a_Node000005"><a xlink:href="interface_p_a1_a_1_1_items_1_1_u_i_1_1_i_slot_u_i.html#ac0adc103957a58379083fb9d5b917c65" target="_top" xlink:title="Configures the ISlotUI for the specified IContainer and index.">
<polygon fill="white" stroke="#666666" points="944.75,-76 784,-76 784,-56 944.75,-56 944.75,-76"/>
<text text-anchor="middle" x="864.38" y="-62.5" font-family="Helvetica,sans-Serif" font-size="10.00">PA1A.Items.UI.ISlotUI.Configure</text>
</a>
</g>
</g>
<!-- Node4&#45;&gt;Node5 -->
<g id="edge4_Node000004_Node000005" class="edge">
<title>Node4&#45;&gt;Node5</title>
<g id="a_edge4_Node000004_Node000005"><a xlink:title=" ">
<path fill="none" stroke="#63b8ff" d="M748.34,-66C756.26,-66 764.34,-66 772.37,-66"/>
<polygon fill="#63b8ff" stroke="#63b8ff" points="772.14,-69.5 782.14,-66 772.14,-62.5 772.14,-69.5"/>
</a>
</g>
</g>
<!-- Node7 -->
<g id="Node000007" class="node">
<title>Node7</title>
<g id="a_Node000007"><a xlink:href="class_p_a1_a_1_1_items_1_1_u_i_1_1_classic_container_u_i.html#a512bf25e19e67e6eb28ef45ed563ec7c" target="_top" xlink:title="Unbuilds the ISlotUI of the IContainer">
<polygon fill="white" stroke="#666666" points="552,-32 392,-32 392,0 552,0 552,-32"/>
<text text-anchor="start" x="400" y="-18.5" font-family="Helvetica,sans-Serif" font-size="10.00">PA1A.Items.UI.ClassicContainer</text>
<text text-anchor="middle" x="472" y="-6.5" font-family="Helvetica,sans-Serif" font-size="10.00">UI.UnbuildSlots</text>
</a>
</g>
</g>
<!-- Node6&#45;&gt;Node7 -->
<g id="edge6_Node000006_Node000007" class="edge">
<title>Node6&#45;&gt;Node7</title>
<g id="a_edge6_Node000006_Node000007"><a xlink:title=" ">
<path fill="none" stroke="#63b8ff" d="M356.47,-16C364.36,-16 372.42,-16 380.41,-16"/>
<polygon fill="#63b8ff" stroke="#63b8ff" points="380.14,-19.5 390.14,-16 380.14,-12.5 380.14,-19.5"/>
</a>
</g>
</g>
<!-- Node8 -->
<g id="Node000008" class="node">
<title>Node8</title>
<g id="a_Node000008"><a xlink:href="interface_p_a1_a_1_1_items_1_1_u_i_1_1_i_slot_u_i.html#a4a9e27fed9987e5799ea7a7c4047fca1" target="_top" xlink:title="Destroys the ISlotUI">
<polygon fill="white" stroke="#666666" points="744.62,-26 591.38,-26 591.38,-6 744.62,-6 744.62,-26"/>
<text text-anchor="middle" x="668" y="-12.5" font-family="Helvetica,sans-Serif" font-size="10.00">PA1A.Items.UI.ISlotUI.Destroy</text>
</a>
</g>
</g>
<!-- Node7&#45;&gt;Node8 -->
<g id="edge7_Node000007_Node000008" class="edge">
<title>Node7&#45;&gt;Node8</title>
<g id="a_edge7_Node000007_Node000008"><a xlink:title=" ">
<path fill="none" stroke="#63b8ff" d="M552.47,-16C561.44,-16 570.63,-16 579.7,-16"/>
<polygon fill="#63b8ff" stroke="#63b8ff" points="579.58,-19.5 589.58,-16 579.58,-12.5 579.58,-19.5"/>
</a>
</g>
</g>
</g>
</svg>
