<?xml version="1.0" encoding="UTF-8" standalone="no"?>
<!DOCTYPE svg PUBLIC "-//W3C//DTD SVG 1.1//EN"
 "http://www.w3.org/Graphics/SVG/1.1/DTD/svg11.dtd">
<!-- Generated by graphviz version 12.1.2 (20240928.0832)
 -->
<!-- Title: Transition Pages: 1 -->
<svg width="127pt" height="208pt"
 viewBox="0.00 0.00 127.00 208.00" xmlns="http://www.w3.org/2000/svg" xmlns:xlink="http://www.w3.org/1999/xlink">

<svg id="main" version="1.1" xmlns="http://www.w3.org/2000/svg" xmlns:xlink="http://www.w3.org/1999/xlink" xml:space="preserve">

<style type="text/css"><![CDATA[
.node, .edge {opacity: 0.7;}
.node.selected, .edge.selected {opacity: 1;}
.edge:hover path { stroke: red; }
.edge:hover polygon { stroke: red; fill: red; }
]]></style>
<script type="application/ecmascript" xlink:href="svg.min.js"/>
<svg id="graph" class="graph">
<g id="graph0" class="graph" transform="scale(1 1) rotate(0) translate(4 204)">
<title>Transition</title>
<!-- Node1 -->
<g id="Node000001" class="node">
<title>Node1</title>
<g id="a_Node000001"><a xlink:title=" ">
<polygon fill="#999999" stroke="none" points="85.5,-200 33.5,-200 33.5,-148 85.5,-148 85.5,-200"/>
<text text-anchor="start" x="38.12" y="-186.5" font-family="Helvetica,sans-Serif" font-size="10.00">Transition</text>
<text text-anchor="start" x="58" y="-170.5" font-family="Helvetica,sans-Serif" font-size="10.00"> </text>
<text text-anchor="start" x="58" y="-154.5" font-family="Helvetica,sans-Serif" font-size="10.00"> </text>
<polygon fill="#666666" stroke="#666666" points="33.5,-182 33.5,-182 85.5,-182 85.5,-182 33.5,-182"/>
<polygon fill="#666666" stroke="#666666" points="33.5,-166 33.5,-166 85.5,-166 85.5,-166 33.5,-166"/>
<polygon fill="none" stroke="#666666" points="33.5,-148 33.5,-200 85.5,-200 85.5,-148 33.5,-148"/>
</a>
</g>
</g>
<!-- Node2 -->
<g id="Node000002" class="node">
<title>Node2</title>
<g id="a_Node000002"><a xlink:href="class_unity_utils_1_1_state_machine_1_1_transition.html" target="_top" xlink:title=" ">
<polygon fill="white" stroke="none" points="119,-112 0,-112 0,0 119,0 119,-112"/>
<text text-anchor="start" x="4.75" y="-98.5" font-family="Helvetica,sans-Serif" font-size="10.00">UnityUtils.StateMachine.</text>
<text text-anchor="start" x="26.5" y="-86.5" font-family="Helvetica,sans-Serif" font-size="10.00">Transition&lt; T &gt;</text>
<text text-anchor="start" x="17" y="-70.5" font-family="Helvetica,sans-Serif" font-size="10.00">+</text>
<text text-anchor="start" x="40" y="-70.5" font-family="Helvetica,sans-Serif" font-size="10.00">condition</text>
<text text-anchor="start" x="17" y="-54.5" font-family="Helvetica,sans-Serif" font-size="10.00">+</text>
<text text-anchor="start" x="40" y="-54.5" font-family="Helvetica,sans-Serif" font-size="10.00">To</text>
<text text-anchor="start" x="17" y="-38.5" font-family="Helvetica,sans-Serif" font-size="10.00">+</text>
<text text-anchor="start" x="40" y="-38.5" font-family="Helvetica,sans-Serif" font-size="10.00">Evaluate()</text>
<text text-anchor="start" x="17" y="-22.5" font-family="Helvetica,sans-Serif" font-size="10.00">+</text>
<text text-anchor="start" x="40" y="-22.5" font-family="Helvetica,sans-Serif" font-size="10.00">Transition()</text>
<text text-anchor="start" x="17" y="-6.5" font-family="Helvetica,sans-Serif" font-size="10.00">+</text>
<text text-anchor="start" x="40" y="-6.5" font-family="Helvetica,sans-Serif" font-size="10.00">Evaluate()</text>
<polygon fill="#666666" stroke="#666666" points="0,-82 0,-82 119,-82 119,-82 0,-82"/>
<polygon fill="#666666" stroke="#666666" points="0,-50 0,-50 38,-50 38,-50 0,-50"/>
<polygon fill="#666666" stroke="#666666" points="38,-50 38,-50 119,-50 119,-50 38,-50"/>
<polygon fill="none" stroke="#666666" points="0,0 0,-112 119,-112 119,0 0,0"/>
</a>
</g>
</g>
<!-- Node1&#45;&gt;Node2 -->
<g id="edge1_Node000001_Node000002" class="edge">
<title>Node1&#45;&gt;Node2</title>
<g id="a_edge1_Node000001_Node000002"><a xlink:title=" ">
<path fill="none" stroke="#63b8ff" d="M59.5,-136.71C59.5,-128.82 59.5,-120.31 59.5,-111.88"/>
<polygon fill="none" stroke="#63b8ff" points="56,-136.6 59.5,-146.6 63,-136.6 56,-136.6"/>
</a>
</g>
</g>
</g>
</svg>
</svg>

<style type='text/css'>
<![CDATA[
[data-mouse-over-selected='false'] { opacity: 0.7; }
[data-mouse-over-selected='true']  { opacity: 1.0; }
]]>
</style>
<script type="application/ecmascript"><![CDATA[
document.addEventListener('DOMContentLoaded', (event) => {
  highlightEdges();
  highlightAdjacentNodes();
});
]]></script>
</svg>
