<?xml version="1.0" encoding="UTF-8" standalone="no"?>
<!DOCTYPE svg PUBLIC "-//W3C//DTD SVG 1.1//EN"
 "http://www.w3.org/Graphics/SVG/1.1/DTD/svg11.dtd">
<!-- Generated by graphviz version 12.1.2 (20240928.0832)
 -->
<!-- Title: IReadOnlyList Pages: 1 -->
<svg width="159pt" height="400pt"
 viewBox="0.00 0.00 159.00 400.00" xmlns="http://www.w3.org/2000/svg" xmlns:xlink="http://www.w3.org/1999/xlink">

<svg id="main" version="1.1" xmlns="http://www.w3.org/2000/svg" xmlns:xlink="http://www.w3.org/1999/xlink" xml:space="preserve">

<style type="text/css"><![CDATA[
.node, .edge {opacity: 0.7;}
.node.selected, .edge.selected {opacity: 1;}
.edge:hover path { stroke: red; }
.edge:hover polygon { stroke: red; fill: red; }
]]></style>
<script type="application/ecmascript" xlink:href="svg.min.js"/>
<svg id="graph" class="graph">
<g id="graph0" class="graph" transform="scale(1 1) rotate(0) translate(4 396)">
<title>IReadOnlyList</title>
<!-- Node1 -->
<g id="Node000001" class="node">
<title>Node1</title>
<g id="a_Node000001"><a xlink:title=" ">
<polygon fill="#999999" stroke="none" points="111.5,-392 39.5,-392 39.5,-340 111.5,-340 111.5,-392"/>
<text text-anchor="start" x="44.38" y="-378.5" font-family="Helvetica,sans-Serif" font-size="10.00">IReadOnlyList</text>
<text text-anchor="start" x="74" y="-362.5" font-family="Helvetica,sans-Serif" font-size="10.00"> </text>
<text text-anchor="start" x="74" y="-346.5" font-family="Helvetica,sans-Serif" font-size="10.00"> </text>
<polygon fill="#666666" stroke="#666666" points="39.5,-374 39.5,-374 111.5,-374 111.5,-374 39.5,-374"/>
<polygon fill="#666666" stroke="#666666" points="39.5,-358 39.5,-358 111.5,-358 111.5,-358 39.5,-358"/>
<polygon fill="none" stroke="#666666" points="39.5,-340 39.5,-392 111.5,-392 111.5,-340 39.5,-340"/>
</a>
</g>
</g>
<!-- Node2 -->
<g id="Node000002" class="node">
<title>Node2</title>
<g id="a_Node000002"><a xlink:href="class_unity_1_1_netcode_1_1_network_standard_list.html" target="_top" xlink:title="Represents a List&lt;T&gt; that is synchronized as a List&lt;T&gt; &#160;This allows you to synchronize managed types ...">
<polygon fill="white" stroke="none" points="151,-304 0,-304 0,0 151,0 151,-304"/>
<text text-anchor="start" x="5" y="-290.5" font-family="Helvetica,sans-Serif" font-size="10.00">Unity.Netcode.NetworkStandard</text>
<text text-anchor="start" x="23.38" y="-278.5" font-family="Helvetica,sans-Serif" font-size="10.00">List&lt; TOriginal, TCast &gt;</text>
<text text-anchor="start" x="9" y="-262.5" font-family="Helvetica,sans-Serif" font-size="10.00">+</text>
<text text-anchor="start" x="24" y="-262.5" font-family="Helvetica,sans-Serif" font-size="10.00">Count</text>
<text text-anchor="start" x="9" y="-246.5" font-family="Helvetica,sans-Serif" font-size="10.00">+</text>
<text text-anchor="start" x="24" y="-246.5" font-family="Helvetica,sans-Serif" font-size="10.00">this[int index]</text>
<text text-anchor="start" x="9" y="-230.5" font-family="Helvetica,sans-Serif" font-size="10.00">+</text>
<text text-anchor="start" x="24" y="-230.5" font-family="Helvetica,sans-Serif" font-size="10.00">IsReadOnly</text>
<text text-anchor="start" x="9" y="-214.5" font-family="Helvetica,sans-Serif" font-size="10.00">+</text>
<text text-anchor="start" x="24" y="-214.5" font-family="Helvetica,sans-Serif" font-size="10.00">IsFixedSize</text>
<text text-anchor="start" x="9" y="-198.5" font-family="Helvetica,sans-Serif" font-size="10.00">+</text>
<text text-anchor="start" x="24" y="-198.5" font-family="Helvetica,sans-Serif" font-size="10.00">IsSynchronized</text>
<text text-anchor="start" x="9" y="-182.5" font-family="Helvetica,sans-Serif" font-size="10.00">+</text>
<text text-anchor="start" x="24" y="-182.5" font-family="Helvetica,sans-Serif" font-size="10.00">SyncRoot</text>
<text text-anchor="start" x="9" y="-166.5" font-family="Helvetica,sans-Serif" font-size="10.00">+</text>
<text text-anchor="start" x="24" y="-166.5" font-family="Helvetica,sans-Serif" font-size="10.00">OnListChangedDelegate()</text>
<text text-anchor="start" x="9" y="-150.5" font-family="Helvetica,sans-Serif" font-size="10.00">+</text>
<text text-anchor="start" x="24" y="-150.5" font-family="Helvetica,sans-Serif" font-size="10.00">NetworkStandardList()</text>
<text text-anchor="start" x="9" y="-134.5" font-family="Helvetica,sans-Serif" font-size="10.00">+</text>
<text text-anchor="start" x="24" y="-134.5" font-family="Helvetica,sans-Serif" font-size="10.00">NetworkStandardList()</text>
<text text-anchor="start" x="9" y="-118.5" font-family="Helvetica,sans-Serif" font-size="10.00">+</text>
<text text-anchor="start" x="24" y="-118.5" font-family="Helvetica,sans-Serif" font-size="10.00">NetworkStandardList()</text>
<text text-anchor="start" x="9" y="-102.5" font-family="Helvetica,sans-Serif" font-size="10.00">+</text>
<text text-anchor="start" x="24" y="-102.5" font-family="Helvetica,sans-Serif" font-size="10.00">ResetDirty()</text>
<text text-anchor="start" x="9" y="-86.5" font-family="Helvetica,sans-Serif" font-size="10.00">+</text>
<text text-anchor="start" x="24" y="-86.5" font-family="Helvetica,sans-Serif" font-size="10.00">IsDirty()</text>
<text text-anchor="start" x="9" y="-70.5" font-family="Helvetica,sans-Serif" font-size="10.00">+</text>
<text text-anchor="start" x="24" y="-70.5" font-family="Helvetica,sans-Serif" font-size="10.00">WriteDelta()</text>
<text text-anchor="start" x="9" y="-54.5" font-family="Helvetica,sans-Serif" font-size="10.00">+</text>
<text text-anchor="start" x="24" y="-54.5" font-family="Helvetica,sans-Serif" font-size="10.00">WriteField()</text>
<text text-anchor="start" x="9" y="-38.5" font-family="Helvetica,sans-Serif" font-size="10.00">+</text>
<text text-anchor="start" x="24" y="-38.5" font-family="Helvetica,sans-Serif" font-size="10.00">ReadField()</text>
<text text-anchor="start" x="9" y="-22.5" font-family="Helvetica,sans-Serif" font-size="10.00">+</text>
<text text-anchor="start" x="24" y="-22.5" font-family="Helvetica,sans-Serif" font-size="10.00">ReadDelta()</text>
<text text-anchor="start" x="24" y="-6.5" font-family="Helvetica,sans-Serif" font-size="10.00">and 9 more...</text>
<polygon fill="#666666" stroke="#666666" points="0,-274 0,-274 151,-274 151,-274 0,-274"/>
<polygon fill="#666666" stroke="#666666" points="0,-178 0,-178 22,-178 22,-178 0,-178"/>
<polygon fill="#666666" stroke="#666666" points="22,-178 22,-178 151,-178 151,-178 22,-178"/>
<polygon fill="none" stroke="#666666" points="0,0 0,-304 151,-304 151,0 0,0"/>
</a>
</g>
</g>
<!-- Node1&#45;&gt;Node2 -->
<g id="edge1_Node000001_Node000002" class="edge">
<title>Node1&#45;&gt;Node2</title>
<g id="a_edge1_Node000001_Node000002"><a xlink:title=" ">
<path fill="none" stroke="#63b8ff" d="M75.5,-328.96C75.5,-321.27 75.5,-312.69 75.5,-303.57"/>
<polygon fill="none" stroke="#63b8ff" points="72,-328.75 75.5,-338.75 79,-328.75 72,-328.75"/>
</a>
</g>
</g>
</g>
</svg>
</svg>

<style type='text/css'>
<![CDATA[
[data-mouse-over-selected='false'] { opacity: 0.7; }
[data-mouse-over-selected='true']  { opacity: 1.0; }
]]>
</style>
<script type="application/ecmascript"><![CDATA[
document.addEventListener('DOMContentLoaded', (event) => {
  highlightEdges();
  highlightAdjacentNodes();
});
]]></script>
</svg>
