<?xml version="1.0" encoding="UTF-8" standalone="no"?>
<!DOCTYPE svg PUBLIC "-//W3C//DTD SVG 1.1//EN"
 "http://www.w3.org/Graphics/SVG/1.1/DTD/svg11.dtd">
<!-- Generated by graphviz version 12.1.2 (20240928.0832)
 -->
<!-- Title: CodeSmile.Statemachine.FSM.CreateStates Pages: 1 -->
<!--zoomable 424 -->

<svg id="main" version="1.1" xmlns="http://www.w3.org/2000/svg" xmlns:xlink="http://www.w3.org/1999/xlink" xml:space="preserve" onload="init(evt)">

<style type="text/css"><![CDATA[
.node, .edge {opacity: 0.7;}
.node.selected, .edge.selected {opacity: 1;}
.edge:hover path { stroke: red; }
.edge:hover polygon { stroke: red; fill: red; }
]]></style>

<defs>
  <circle id="rim" cx="0" cy="0" r="7"/>
  <circle id="rim2" cx="0" cy="0" r="3.5"/>
  <g id="zoomPlus">
    <use xlink:href="#rim" fill="#404040"><set attributeName="fill" to="#808080" begin="zoomplus.mouseover" end="zoomplus.mouseout"/></use>
    <path d="M-4,0h8M0,-4v8" fill="none" stroke="white" stroke-width="1.5" pointer-events="none"/>
  </g>
  <g id="zoomMin">
    <use xlink:href="#rim" fill="#404040"><set attributeName="fill" to="#808080" begin="zoomminus.mouseover" end="zoomminus.mouseout"/></use>
    <path d="M-4,0h8" fill="none" stroke="white" stroke-width="1.5" pointer-events="none"/>
  </g>
  <g id="arrowUp" transform="translate(30 24)">
    <use xlink:href="#rim"/>
    <path pointer-events="none" fill="none" stroke="white" stroke-width="1.5" d="M0,-3.0v7 M-2.5,-0.5L0,-3.0L2.5,-0.5"/>
  </g>
  <g id="arrowRight" transform="rotate(90) translate(36 -43)">
    <use xlink:href="#rim"/>
    <path pointer-events="none" fill="none" stroke="white" stroke-width="1.5" d="M0,-3.0v7 M-2.5,-0.5L0,-3.0L2.5,-0.5"/>
  </g>
  <g id="arrowDown" transform="rotate(180) translate(-30 -48)">
    <use xlink:href="#rim"/>
    <path pointer-events="none" fill="none" stroke="white" stroke-width="1.5" d="M0,-3.0v7 M-2.5,-0.5L0,-3.0L2.5,-0.5"/>
  </g>
  <g id="arrowLeft" transform="rotate(270) translate(-36 17)">
    <use xlink:href="#rim"/>
    <path pointer-events="none" fill="none" stroke="white" stroke-width="1.5" d="M0,-3.0v7 M-2.5,-0.5L0,-3.0L2.5,-0.5"/>
  </g>
  <g id="resetDef">
    <use xlink:href="#rim2" fill="#404040"><set attributeName="fill" to="#808080" begin="reset.mouseover" end="reset.mouseout"/></use>
  </g>
</defs>
<script type="application/ecmascript">
var viewWidth = 606;
var viewHeight = 424;
var sectionId = 'dynsection-3';
</script>
<script type="application/ecmascript" xlink:href="svg.min.js"/>
<svg id="graph" class="graph">
<g id="viewport">
<title>CodeSmile.Statemachine.FSM.CreateStates</title>
<!-- Node1 -->
<g id="Node000001" class="node">
<title>Node1</title>
<g id="a_Node000001"><a xlink:title="Creates multiple States from strings.">
<polygon fill="#999999" stroke="#666666" points="597.75,-224 443.75,-224 443.75,-192 597.75,-192 597.75,-224"/>
<text text-anchor="start" x="451.75" y="-210.5" font-family="Helvetica,sans-Serif" font-size="10.00">CodeSmile.Statemachine.FSM.</text>
<text text-anchor="middle" x="520.75" y="-198.5" font-family="Helvetica,sans-Serif" font-size="10.00">CreateStates</text>
</a>
</g>
</g>
<!-- Node2 -->
<g id="Node000002" class="node">
<title>Node2</title>
<g id="a_Node000002"><a xlink:href="class_code_smile_1_1_statemachine_1_1_f_s_m.html#a7c1626a5062b29a369553aaf59efb720" target="_top" xlink:title="Creates several named States.">
<polygon fill="white" stroke="#666666" points="407.75,-224 253.75,-224 253.75,-192 407.75,-192 407.75,-224"/>
<text text-anchor="start" x="261.75" y="-210.5" font-family="Helvetica,sans-Serif" font-size="10.00">CodeSmile.Statemachine.FSM.</text>
<text text-anchor="middle" x="330.75" y="-198.5" font-family="Helvetica,sans-Serif" font-size="10.00">WithStates</text>
</a>
</g>
</g>
<!-- Node1&#45;&gt;Node2 -->
<g id="edge1_Node000001_Node000002" class="edge">
<title>Node1&#45;&gt;Node2</title>
<g id="a_edge1_Node000001_Node000002"><a xlink:title=" ">
<path fill="none" stroke="#63b8ff" d="M431.78,-208C423.89,-208 415.93,-208 408.15,-208"/>
<polygon fill="#63b8ff" stroke="#63b8ff" points="431.77,-211.5 441.77,-208 431.77,-204.5 431.77,-211.5"/>
</a>
</g>
</g>
<!-- Node2&#45;&gt;Node2 -->
<g id="edge9_Node000002_Node000002" class="edge">
<title>Node2&#45;&gt;Node2</title>
<g id="a_edge9_Node000002_Node000002"><a xlink:title=" ">
<path fill="none" stroke="#63b8ff" d="M362.41,-235.71C357.13,-239.48 346.58,-242 330.75,-242 301.8,-242 290.5,-233.58 296.83,-224.44"/>
<polygon fill="#63b8ff" stroke="#63b8ff" points="365.84,-236.42 364.37,-225.93 358.98,-235.04 365.84,-236.42"/>
</a>
</g>
</g>
<!-- Node3 -->
<g id="Node000003" class="node">
<title>Node3</title>
<g id="a_Node000003"><a xlink:href="class_code_smile_1_1_statemachine_1_1_tests_1_1_statemachine_tests.html#a8ab4bb426e356b205976b74c5aca0dbb" target="_top" xlink:title=" ">
<polygon fill="white" stroke="#666666" points="217.75,-416 0,-416 0,-372 217.75,-372 217.75,-416"/>
<text text-anchor="start" x="8" y="-402.5" font-family="Helvetica,sans-Serif" font-size="10.00">CodeSmile.Statemachine.Tests.</text>
<text text-anchor="start" x="8" y="-390.5" font-family="Helvetica,sans-Serif" font-size="10.00">StatemachineTests.FSM_InvalidStatemachine</text>
<text text-anchor="middle" x="108.88" y="-378.5" font-family="Helvetica,sans-Serif" font-size="10.00">Name_Throws</text>
</a>
</g>
</g>
<!-- Node2&#45;&gt;Node3 -->
<g id="edge2_Node000002_Node000003" class="edge">
<title>Node2&#45;&gt;Node3</title>
<g id="a_edge2_Node000002_Node000003"><a xlink:title=" ">
<path fill="none" stroke="#63b8ff" d="M317.5,-234.67C300.19,-269.39 265.3,-329.59 217.75,-363 213.21,-366.19 208.34,-369.06 203.27,-371.63"/>
<polygon fill="#63b8ff" stroke="#63b8ff" points="320.63,-236.24 321.84,-225.72 314.33,-233.19 320.63,-236.24"/>
</a>
</g>
</g>
<!-- Node4 -->
<g id="Node000004" class="node">
<title>Node4</title>
<g id="a_Node000004"><a xlink:href="class_code_smile_1_1_statemachine_1_1_tests_1_1_statemachine_tests.html#aca3f68fbd8e276e7c7ee5c7802defc43" target="_top" xlink:title=" ">
<polygon fill="white" stroke="#666666" points="199.38,-354 18.38,-354 18.38,-310 199.38,-310 199.38,-354"/>
<text text-anchor="start" x="26.38" y="-340.5" font-family="Helvetica,sans-Serif" font-size="10.00">CodeSmile.Statemachine.Tests.</text>
<text text-anchor="start" x="26.38" y="-328.5" font-family="Helvetica,sans-Serif" font-size="10.00">StatemachineTests.FSM_InvalidState</text>
<text text-anchor="middle" x="108.88" y="-316.5" font-family="Helvetica,sans-Serif" font-size="10.00">Name_Throws</text>
</a>
</g>
</g>
<!-- Node2&#45;&gt;Node4 -->
<g id="edge3_Node000002_Node000004" class="edge">
<title>Node2&#45;&gt;Node4</title>
<g id="a_edge3_Node000002_Node000004"><a xlink:title=" ">
<path fill="none" stroke="#63b8ff" d="M306.52,-232.3C285.23,-253.26 251.92,-282.93 217.75,-301 211.81,-304.14 205.51,-307 199.05,-309.6"/>
<polygon fill="#63b8ff" stroke="#63b8ff" points="308.96,-234.81 313.54,-225.26 304,-229.87 308.96,-234.81"/>
</a>
</g>
</g>
<!-- Node5 -->
<g id="Node000005" class="node">
<title>Node5</title>
<g id="a_Node000005"><a xlink:href="class_code_smile_1_1_statemachine_1_1_tests_1_1_statemachine_tests.html#aa410e9960cad8fcfd4804ec766bd5ba7" target="_top" xlink:title=" ">
<polygon fill="white" stroke="#666666" points="214.75,-292 3,-292 3,-248 214.75,-248 214.75,-292"/>
<text text-anchor="start" x="11" y="-278.5" font-family="Helvetica,sans-Serif" font-size="10.00">CodeSmile.Statemachine.Tests.</text>
<text text-anchor="start" x="11" y="-266.5" font-family="Helvetica,sans-Serif" font-size="10.00">StatemachineTests.FSM_LogicalOrCondition</text>
<text text-anchor="middle" x="108.88" y="-254.5" font-family="Helvetica,sans-Serif" font-size="10.00">_ExpectedOutcome</text>
</a>
</g>
</g>
<!-- Node2&#45;&gt;Node5 -->
<g id="edge4_Node000002_Node000005" class="edge">
<title>Node2&#45;&gt;Node5</title>
<g id="a_edge4_Node000002_Node000005"><a xlink:title=" ">
<path fill="none" stroke="#63b8ff" d="M260.58,-227.51C238.04,-233.86 212.85,-240.96 189.61,-247.52"/>
<polygon fill="#63b8ff" stroke="#63b8ff" points="261.27,-230.95 269.95,-224.86 259.37,-224.21 261.27,-230.95"/>
</a>
</g>
</g>
<!-- Node6 -->
<g id="Node000006" class="node">
<title>Node6</title>
<g id="a_Node000006"><a xlink:href="class_code_smile_1_1_statemachine_1_1_tests_1_1_statemachine_tests.html#aabd6228e94636d5d5e9171e1e9e99e78" target="_top" xlink:title=" ">
<polygon fill="white" stroke="#666666" points="200.12,-230 17.62,-230 17.62,-186 200.12,-186 200.12,-230"/>
<text text-anchor="start" x="25.62" y="-216.5" font-family="Helvetica,sans-Serif" font-size="10.00">CodeSmile.Statemachine.Tests.</text>
<text text-anchor="start" x="25.62" y="-204.5" font-family="Helvetica,sans-Serif" font-size="10.00">StatemachineTests.FSM_NonExisting</text>
<text text-anchor="middle" x="108.88" y="-192.5" font-family="Helvetica,sans-Serif" font-size="10.00">GotoState_Throws</text>
</a>
</g>
</g>
<!-- Node2&#45;&gt;Node6 -->
<g id="edge5_Node000002_Node000006" class="edge">
<title>Node2&#45;&gt;Node6</title>
<g id="a_edge5_Node000002_Node000006"><a xlink:title=" ">
<path fill="none" stroke="#63b8ff" d="M242.08,-208C228.37,-208 214.17,-208 200.39,-208"/>
<polygon fill="#63b8ff" stroke="#63b8ff" points="241.95,-211.5 251.95,-208 241.95,-204.5 241.95,-211.5"/>
</a>
</g>
</g>
<!-- Node7 -->
<g id="Node000007" class="node">
<title>Node7</title>
<g id="a_Node000007"><a xlink:href="class_code_smile_1_1_statemachine_1_1_tests_1_1_statemachine_tests.html#a0bf7d8d2296419acff49a3f8c5592f7d" target="_top" xlink:title=" ">
<polygon fill="white" stroke="#666666" points="210.25,-168 7.5,-168 7.5,-124 210.25,-124 210.25,-168"/>
<text text-anchor="start" x="15.5" y="-154.5" font-family="Helvetica,sans-Serif" font-size="10.00">CodeSmile.Statemachine.Tests.</text>
<text text-anchor="start" x="15.5" y="-142.5" font-family="Helvetica,sans-Serif" font-size="10.00">StatemachineTests.FSM_StartEndStates</text>
<text text-anchor="middle" x="108.88" y="-130.5" font-family="Helvetica,sans-Serif" font-size="10.00">_RunsToEndAndRaisesStateChangeEvent</text>
</a>
</g>
</g>
<!-- Node2&#45;&gt;Node7 -->
<g id="edge6_Node000002_Node000007" class="edge">
<title>Node2&#45;&gt;Node7</title>
<g id="a_edge6_Node000002_Node000007"><a xlink:title=" ">
<path fill="none" stroke="#63b8ff" d="M260.58,-188.49C238.04,-182.14 212.85,-175.04 189.61,-168.48"/>
<polygon fill="#63b8ff" stroke="#63b8ff" points="259.37,-191.79 269.95,-191.14 261.27,-185.05 259.37,-191.79"/>
</a>
</g>
</g>
<!-- Node8 -->
<g id="Node000008" class="node">
<title>Node8</title>
<g id="a_Node000008"><a xlink:href="class_code_smile_1_1_statemachine_1_1_tests_1_1_statemachine_tests.html#a3882d30482dc6b250d69e362bf86cec4" target="_top" xlink:title=" ">
<polygon fill="white" stroke="#666666" points="205.75,-106 12,-106 12,-62 205.75,-62 205.75,-106"/>
<text text-anchor="start" x="20" y="-92.5" font-family="Helvetica,sans-Serif" font-size="10.00">CodeSmile.Statemachine.Tests.</text>
<text text-anchor="start" x="20" y="-80.5" font-family="Helvetica,sans-Serif" font-size="10.00">StatemachineTests.FSM_StartNotCalled</text>
<text text-anchor="middle" x="108.88" y="-68.5" font-family="Helvetica,sans-Serif" font-size="10.00">BeforeEvaluate_Throws</text>
</a>
</g>
</g>
<!-- Node2&#45;&gt;Node8 -->
<g id="edge7_Node000002_Node000008" class="edge">
<title>Node2&#45;&gt;Node8</title>
<g id="a_edge7_Node000002_Node000008"><a xlink:title=" ">
<path fill="none" stroke="#63b8ff" d="M306.52,-183.7C285.23,-162.74 251.92,-133.07 217.75,-115 211.81,-111.86 205.51,-109 199.05,-106.4"/>
<polygon fill="#63b8ff" stroke="#63b8ff" points="304,-186.13 313.54,-190.74 308.96,-181.19 304,-186.13"/>
</a>
</g>
</g>
<!-- Node9 -->
<g id="Node000009" class="node">
<title>Node9</title>
<g id="a_Node000009"><a xlink:href="class_code_smile_1_1_statemachine_1_1_tests_1_1_statemachine_tests.html#a9c637f67eff602e7394b6892b2edfabb" target="_top" xlink:title=" ">
<polygon fill="white" stroke="#666666" points="202,-44 15.75,-44 15.75,0 202,0 202,-44"/>
<text text-anchor="start" x="23.75" y="-30.5" font-family="Helvetica,sans-Serif" font-size="10.00">CodeSmile.Statemachine.Tests.</text>
<text text-anchor="start" x="23.75" y="-18.5" font-family="Helvetica,sans-Serif" font-size="10.00">StatemachineTests.FSM_StateChange</text>
<text text-anchor="middle" x="108.88" y="-6.5" font-family="Helvetica,sans-Serif" font-size="10.00">_InvokesStateChangeEvent</text>
</a>
</g>
</g>
<!-- Node2&#45;&gt;Node9 -->
<g id="edge8_Node000002_Node000009" class="edge">
<title>Node2&#45;&gt;Node9</title>
<g id="a_edge8_Node000002_Node000009"><a xlink:title=" ">
<path fill="none" stroke="#63b8ff" d="M317.5,-181.33C300.19,-146.61 265.3,-86.41 217.75,-53 212.97,-49.64 207.82,-46.64 202.47,-43.97"/>
<polygon fill="#63b8ff" stroke="#63b8ff" points="314.33,-182.81 321.84,-190.28 320.63,-179.76 314.33,-182.81"/>
</a>
</g>
</g>
</g>
</svg>

<g id="navigator" transform="translate(0 0)" fill="#404254">
  <rect fill="#f2f5e9" fill-opacity="0.5" stroke="#606060" stroke-width=".5" x="0" y="0" width="60" height="60"/>
  <use id="zoomplus" xlink:href="#zoomPlus" x="17" y="9" onmousedown="handleZoom(evt,'in')"/>
  <use id="zoomminus" xlink:href="#zoomMin" x="42" y="9" onmousedown="handleZoom(evt,'out')"/>
  <use id="reset" xlink:href="#resetDef" x="30" y="36" onmousedown="handleReset()"/>
   <use id="arrowup" xlink:href="#arrowUp" x="0" y="0" onmousedown="handlePan(0,-1)"/>
  <use id="arrowright" xlink:href="#arrowRight" x="0" y="0" onmousedown="handlePan(1,0)"/>
  <use id="arrowdown" xlink:href="#arrowDown" x="0" y="0" onmousedown="handlePan(0,1)"/>
  <use id="arrowleft" xlink:href="#arrowLeft" x="0" y="0" onmousedown="handlePan(-1,0)"/>
</g>
<svg viewBox="0 0 15 15" width="100%" height="30px" preserveAspectRatio="xMaxYMin meet">
 <g id="arrow_out" transform="scale(0.3 0.3)">
  <a xlink:href="class_code_smile_1_1_statemachine_1_1_f_s_m_add395acb7b110b2d190c0070cfe00152_icgraph_org.svg" target="_base">
   <rect id="button" ry="5" rx="5" y="6" x="6" height="38" width="38"
        fill="#f2f5e9" fill-opacity="0.5" stroke="#606060" stroke-width="1.0"/>
   <path id="arrow"
     d="M 11.500037,31.436501 C 11.940474,20.09759 22.043105,11.32322 32.158766,21.979434 L 37.068811,17.246167 C 37.068811,17.246167 37.088388,32 37.088388,32 L 22.160133,31.978069 C 22.160133,31.978069 26.997745,27.140456 26.997745,27.140456 C 18.528582,18.264221 13.291696,25.230495 11.500037,31.436501 z"
     style="fill:#404040;"/>
  </a>
 </g>
</svg>

<style type='text/css'>
<![CDATA[
[data-mouse-over-selected='false'] { opacity: 0.7; }
[data-mouse-over-selected='true']  { opacity: 1.0; }
]]>
</style>
<script type="application/ecmascript"><![CDATA[
document.addEventListener('DOMContentLoaded', (event) => {
  highlightEdges();
  highlightAdjacentNodes();
});
]]></script>
</svg>
