<?xml version="1.0" encoding="UTF-8" standalone="no"?>
<!DOCTYPE svg PUBLIC "-//W3C//DTD SVG 1.1//EN"
 "http://www.w3.org/Graphics/SVG/1.1/DTD/svg11.dtd">
<!-- Generated by graphviz version 12.1.2 (20240928.0832)
 -->
<!-- Title: CodeSmile.MultiPal.Design.SpawnLocations Pages: 1 -->
<svg width="161pt" height="192pt"
 viewBox="0.00 0.00 161.00 192.00" xmlns="http://www.w3.org/2000/svg" xmlns:xlink="http://www.w3.org/1999/xlink">
<g id="graph0" class="graph" transform="scale(1 1) rotate(0) translate(4 188)">
<title>CodeSmile.MultiPal.Design.SpawnLocations</title>
<!-- Node1 -->
<g id="Node000001" class="node">
<title>Node1</title>
<g id="a_Node000001"><a xlink:title=" ">
<polygon fill="#999999" stroke="none" points="153,-96 0,-96 0,0 153,0 153,-96"/>
<text text-anchor="start" x="15" y="-82.5" font-family="Helvetica,sans-Serif" font-size="10.00">CodeSmile.MultiPal.Design.</text>
<text text-anchor="start" x="40.5" y="-70.5" font-family="Helvetica,sans-Serif" font-size="10.00">SpawnLocations</text>
<text text-anchor="start" x="4" y="-54.5" font-family="Helvetica,sans-Serif" font-size="10.00">+</text>
<text text-anchor="start" x="14" y="-54.5" font-family="Helvetica,sans-Serif" font-size="10.00">Count</text>
<text text-anchor="start" x="4" y="-38.5" font-family="Helvetica,sans-Serif" font-size="10.00">+</text>
<text text-anchor="start" x="14" y="-38.5" font-family="Helvetica,sans-Serif" font-size="10.00">GetRandomSpawnLocation()</text>
<text text-anchor="start" x="4" y="-22.5" font-family="Helvetica,sans-Serif" font-size="10.00">~</text>
<text text-anchor="start" x="14" y="-22.5" font-family="Helvetica,sans-Serif" font-size="10.00">RegisterEditorSceneEvents()</text>
<text text-anchor="start" x="4" y="-6.5" font-family="Helvetica,sans-Serif" font-size="10.00">~</text>
<text text-anchor="start" x="14" y="-6.5" font-family="Helvetica,sans-Serif" font-size="10.00">UnregisterEditorSceneEvents()</text>
<polygon fill="#666666" stroke="#666666" points="0,-66 0,-66 153,-66 153,-66 0,-66"/>
<polygon fill="#666666" stroke="#666666" points="0,-50 0,-50 12,-50 12,-50 0,-50"/>
<polygon fill="#666666" stroke="#666666" points="12,-50 12,-50 153,-50 153,-50 12,-50"/>
<polygon fill="none" stroke="#666666" points="0,0 0,-96 153,-96 153,0 0,0"/>
</a>
</g>
</g>
<!-- Node2 -->
<g id="Node000002" class="node">
<title>Node2</title>
<g id="a_Node000002"><a xlink:href="class_mono_behaviour.html" target="_top" xlink:title=" ">
<polygon fill="white" stroke="none" points="115,-184 38,-184 38,-132 115,-132 115,-184"/>
<text text-anchor="start" x="42.75" y="-170.5" font-family="Helvetica,sans-Serif" font-size="10.00">MonoBehaviour</text>
<text text-anchor="start" x="75" y="-154.5" font-family="Helvetica,sans-Serif" font-size="10.00"> </text>
<text text-anchor="start" x="75" y="-138.5" font-family="Helvetica,sans-Serif" font-size="10.00"> </text>
<polygon fill="#666666" stroke="#666666" points="38,-166 38,-166 115,-166 115,-166 38,-166"/>
<polygon fill="#666666" stroke="#666666" points="38,-150 38,-150 115,-150 115,-150 38,-150"/>
<polygon fill="none" stroke="#666666" points="38,-132 38,-184 115,-184 115,-132 38,-132"/>
</a>
</g>
</g>
<!-- Node2&#45;&gt;Node1 -->
<g id="edge1_Node000001_Node000002" class="edge">
<title>Node2&#45;&gt;Node1</title>
<g id="a_edge1_Node000001_Node000002"><a xlink:title=" ">
<path fill="none" stroke="#63b8ff" d="M76.5,-120.93C76.5,-112.86 76.5,-104.19 76.5,-95.75"/>
<polygon fill="none" stroke="#63b8ff" points="73,-120.71 76.5,-130.71 80,-120.71 73,-120.71"/>
</a>
</g>
</g>
</g>
</svg>
