<?xml version="1.0" encoding="UTF-8" standalone="no"?>
<!DOCTYPE svg PUBLIC "-//W3C//DTD SVG 1.1//EN"
 "http://www.w3.org/Graphics/SVG/1.1/DTD/svg11.dtd">
<!-- Generated by graphviz version 12.1.2 (20240928.0832)
 -->
<!-- Title: PA1A.Abilities.Fireability Pages: 1 -->
<svg width="370pt" height="412pt"
 viewBox="0.00 0.00 370.00 412.00" xmlns="http://www.w3.org/2000/svg" xmlns:xlink="http://www.w3.org/1999/xlink">

<svg id="main" version="1.1" xmlns="http://www.w3.org/2000/svg" xmlns:xlink="http://www.w3.org/1999/xlink" xml:space="preserve">

<style type="text/css"><![CDATA[
.node, .edge {opacity: 0.7;}
.node.selected, .edge.selected {opacity: 1;}
.edge:hover path { stroke: red; }
.edge:hover polygon { stroke: red; fill: red; }
]]></style>
<script type="application/ecmascript" xlink:href="svg.min.js"/>
<svg id="graph" class="graph">
<g id="graph0" class="graph" transform="scale(1 1) rotate(0) translate(4 408)">
<title>PA1A.Abilities.Fireability</title>
<!-- Node1 -->
<g id="Node000001" class="node">
<title>Node1</title>
<g id="a_Node000001"><a xlink:title="Represents a fire ability.">
<polygon fill="#999999" stroke="none" points="230.5,-84 113.5,-84 113.5,0 230.5,0 230.5,-84"/>
<text text-anchor="start" x="118.38" y="-70.5" font-family="Helvetica,sans-Serif" font-size="10.00">PA1A.Abilities.Fireability</text>
<text text-anchor="start" x="170.5" y="-54.5" font-family="Helvetica,sans-Serif" font-size="10.00"> </text>
<text text-anchor="start" x="131.5" y="-38.5" font-family="Helvetica,sans-Serif" font-size="10.00">+</text>
<text text-anchor="start" x="155.5" y="-38.5" font-family="Helvetica,sans-Serif" font-size="10.00">Apply()</text>
<text text-anchor="start" x="131.5" y="-22.5" font-family="Helvetica,sans-Serif" font-size="10.00">+</text>
<text text-anchor="start" x="155.5" y="-22.5" font-family="Helvetica,sans-Serif" font-size="10.00">Process()</text>
<text text-anchor="start" x="131.5" y="-6.5" font-family="Helvetica,sans-Serif" font-size="10.00">+</text>
<text text-anchor="start" x="155.5" y="-6.5" font-family="Helvetica,sans-Serif" font-size="10.00">UnApply()</text>
<polygon fill="#666666" stroke="#666666" points="113.5,-66 113.5,-66 230.5,-66 230.5,-66 113.5,-66"/>
<polygon fill="#666666" stroke="#666666" points="113.5,-50 113.5,-50 230.5,-50 230.5,-50 113.5,-50"/>
<polygon fill="none" stroke="#666666" points="113.5,0 113.5,-84 230.5,-84 230.5,0 113.5,0"/>
</a>
</g>
</g>
<!-- Node2 -->
<g id="Node000002" class="node">
<title>Node2</title>
<g id="a_Node000002"><a xlink:href="class_p_a1_a_1_1_abilities_1_1_ability.html" target="_top" xlink:title="Base class for all abilities.">
<polygon fill="white" stroke="none" points="225,-316 119,-316 119,-120 225,-120 225,-316"/>
<text text-anchor="start" x="158.5" y="-302.5" font-family="Helvetica,sans-Serif" font-size="10.00">Ability</text>
<text text-anchor="start" x="123" y="-286.5" font-family="Helvetica,sans-Serif" font-size="10.00">+</text>
<text text-anchor="start" x="133" y="-286.5" font-family="Helvetica,sans-Serif" font-size="10.00">GUID</text>
<text text-anchor="start" x="123" y="-270.5" font-family="Helvetica,sans-Serif" font-size="10.00">+</text>
<text text-anchor="start" x="133" y="-270.5" font-family="Helvetica,sans-Serif" font-size="10.00">FileID</text>
<text text-anchor="start" x="123" y="-254.5" font-family="Helvetica,sans-Serif" font-size="10.00">+</text>
<text text-anchor="start" x="133" y="-254.5" font-family="Helvetica,sans-Serif" font-size="10.00">Name</text>
<text text-anchor="start" x="123" y="-238.5" font-family="Helvetica,sans-Serif" font-size="10.00">+</text>
<text text-anchor="start" x="133" y="-238.5" font-family="Helvetica,sans-Serif" font-size="10.00">IsInstant</text>
<text text-anchor="start" x="123" y="-222.5" font-family="Helvetica,sans-Serif" font-size="10.00">+</text>
<text text-anchor="start" x="133" y="-222.5" font-family="Helvetica,sans-Serif" font-size="10.00">Duration</text>
<text text-anchor="start" x="123" y="-206.5" font-family="Helvetica,sans-Serif" font-size="10.00">+</text>
<text text-anchor="start" x="133" y="-206.5" font-family="Helvetica,sans-Serif" font-size="10.00">Apply()</text>
<text text-anchor="start" x="123" y="-190.5" font-family="Helvetica,sans-Serif" font-size="10.00">+</text>
<text text-anchor="start" x="133" y="-190.5" font-family="Helvetica,sans-Serif" font-size="10.00">Process()</text>
<text text-anchor="start" x="123" y="-174.5" font-family="Helvetica,sans-Serif" font-size="10.00">+</text>
<text text-anchor="start" x="133" y="-174.5" font-family="Helvetica,sans-Serif" font-size="10.00">UnApply()</text>
<text text-anchor="start" x="123" y="-158.5" font-family="Helvetica,sans-Serif" font-size="10.00">+</text>
<text text-anchor="start" x="133" y="-158.5" font-family="Helvetica,sans-Serif" font-size="10.00">OnAfterDeserialize()</text>
<text text-anchor="start" x="123" y="-142.5" font-family="Helvetica,sans-Serif" font-size="10.00">+</text>
<text text-anchor="start" x="133" y="-142.5" font-family="Helvetica,sans-Serif" font-size="10.00">OnBeforeSerialize()</text>
<text text-anchor="start" x="123" y="-126.5" font-family="Helvetica,sans-Serif" font-size="10.00">+</text>
<text text-anchor="start" x="133" y="-126.5" font-family="Helvetica,sans-Serif" font-size="10.00">Equals()</text>
<polygon fill="#666666" stroke="#666666" points="119,-298 119,-298 225,-298 225,-298 119,-298"/>
<polygon fill="#666666" stroke="#666666" points="119,-218 119,-218 131,-218 131,-218 119,-218"/>
<polygon fill="#666666" stroke="#666666" points="131,-218 131,-218 225,-218 225,-218 131,-218"/>
<polygon fill="none" stroke="#666666" points="119,-120 119,-316 225,-316 225,-120 119,-120"/>
</a>
</g>
</g>
<!-- Node2&#45;&gt;Node1 -->
<g id="edge1_Node000001_Node000002" class="edge">
<title>Node2&#45;&gt;Node1</title>
<g id="a_edge1_Node000001_Node000002"><a xlink:title=" ">
<path fill="none" stroke="#63b8ff" d="M172,-108.79C172,-99.98 172,-91.48 172,-83.68"/>
<polygon fill="none" stroke="#63b8ff" points="168.5,-108.57 172,-118.57 175.5,-108.57 168.5,-108.57"/>
</a>
</g>
</g>
<!-- Node3 -->
<g id="Node000003" class="node">
<title>Node3</title>
<g id="a_Node000003"><a xlink:href="class_scriptable_object.html" target="_top" xlink:title=" ">
<polygon fill="white" stroke="none" points="82,-404 0,-404 0,-352 82,-352 82,-404"/>
<text text-anchor="start" x="5" y="-390.5" font-family="Helvetica,sans-Serif" font-size="10.00">ScriptableObject</text>
<text text-anchor="start" x="39.5" y="-374.5" font-family="Helvetica,sans-Serif" font-size="10.00"> </text>
<text text-anchor="start" x="39.5" y="-358.5" font-family="Helvetica,sans-Serif" font-size="10.00"> </text>
<polygon fill="#666666" stroke="#666666" points="0,-386 0,-386 82,-386 82,-386 0,-386"/>
<polygon fill="#666666" stroke="#666666" points="0,-370 0,-370 82,-370 82,-370 0,-370"/>
<polygon fill="none" stroke="#666666" points="0,-352 0,-404 82,-404 82,-352 0,-352"/>
</a>
</g>
</g>
<!-- Node3&#45;&gt;Node2 -->
<g id="edge2_Node000002_Node000003" class="edge">
<title>Node3&#45;&gt;Node2</title>
<g id="a_edge2_Node000002_Node000003"><a xlink:title=" ">
<path fill="none" stroke="#63b8ff" d="M68.76,-343.52C83.42,-325.83 101.92,-303.53 119.19,-282.7"/>
<polygon fill="none" stroke="#63b8ff" points="66.12,-341.22 62.43,-351.15 71.51,-345.68 66.12,-341.22"/>
</a>
</g>
</g>
<!-- Node4 -->
<g id="Node000004" class="node">
<title>Node4</title>
<g id="a_Node000004"><a xlink:href="class_i_serialization_callback_receiver.html" target="_top" xlink:title=" ">
<polygon fill="white" stroke="none" points="243.5,-404 100.5,-404 100.5,-352 243.5,-352 243.5,-404"/>
<text text-anchor="start" x="105.25" y="-390.5" font-family="Helvetica,sans-Serif" font-size="10.00">ISerializationCallbackReceiver</text>
<text text-anchor="start" x="170.5" y="-374.5" font-family="Helvetica,sans-Serif" font-size="10.00"> </text>
<text text-anchor="start" x="170.5" y="-358.5" font-family="Helvetica,sans-Serif" font-size="10.00"> </text>
<polygon fill="#666666" stroke="#666666" points="100.5,-386 100.5,-386 243.5,-386 243.5,-386 100.5,-386"/>
<polygon fill="#666666" stroke="#666666" points="100.5,-370 100.5,-370 243.5,-370 243.5,-370 100.5,-370"/>
<polygon fill="none" stroke="#666666" points="100.5,-352 100.5,-404 243.5,-404 243.5,-352 100.5,-352"/>
</a>
</g>
</g>
<!-- Node4&#45;&gt;Node2 -->
<g id="edge3_Node000002_Node000004" class="edge">
<title>Node4&#45;&gt;Node2</title>
<g id="a_edge3_Node000002_Node000004"><a xlink:title=" ">
<path fill="none" stroke="#63b8ff" d="M172,-340.88C172,-333.15 172,-324.63 172,-315.8"/>
<polygon fill="none" stroke="#63b8ff" points="168.5,-340.8 172,-350.8 175.5,-340.8 168.5,-340.8"/>
</a>
</g>
</g>
<!-- Node5 -->
<g id="Node000005" class="node">
<title>Node5</title>
<g id="a_Node000005"><a xlink:href="class_i_equatable.html" target="_top" xlink:title=" ">
<polygon fill="white" stroke="none" points="362,-404 262,-404 262,-352 362,-352 362,-404"/>
<text text-anchor="start" x="266.62" y="-390.5" font-family="Helvetica,sans-Serif" font-size="10.00">IEquatable&lt; Ability &gt;</text>
<text text-anchor="start" x="310.5" y="-374.5" font-family="Helvetica,sans-Serif" font-size="10.00"> </text>
<text text-anchor="start" x="310.5" y="-358.5" font-family="Helvetica,sans-Serif" font-size="10.00"> </text>
<polygon fill="#666666" stroke="#666666" points="262,-386 262,-386 362,-386 362,-386 262,-386"/>
<polygon fill="#666666" stroke="#666666" points="262,-370 262,-370 362,-370 362,-370 262,-370"/>
<polygon fill="none" stroke="#666666" points="262,-352 262,-404 362,-404 362,-352 262,-352"/>
</a>
</g>
</g>
<!-- Node5&#45;&gt;Node2 -->
<g id="edge4_Node000002_Node000005" class="edge">
<title>Node5&#45;&gt;Node2</title>
<g id="a_edge4_Node000002_Node000005"><a xlink:title=" ">
<path fill="none" stroke="#63b8ff" d="M282.56,-343.77C265.83,-324.89 244.37,-300.68 224.83,-278.62"/>
<polygon fill="none" stroke="#63b8ff" points="279.87,-346.02 289.12,-351.18 285.11,-341.37 279.87,-346.02"/>
</a>
</g>
</g>
</g>
</svg>
</svg>

<style type='text/css'>
<![CDATA[
[data-mouse-over-selected='false'] { opacity: 0.7; }
[data-mouse-over-selected='true']  { opacity: 1.0; }
]]>
</style>
<script type="application/ecmascript"><![CDATA[
document.addEventListener('DOMContentLoaded', (event) => {
  highlightEdges();
  highlightAdjacentNodes();
});
]]></script>
</svg>
