<?xml version="1.0" encoding="UTF-8" standalone="no"?>
<!DOCTYPE svg PUBLIC "-//W3C//DTD SVG 1.1//EN"
 "http://www.w3.org/Graphics/SVG/1.1/DTD/svg11.dtd">
<!-- Generated by graphviz version 12.1.2 (20240928.0832)
 -->
<!-- Title: PA1A.Characters.Character.ProcessAffectingAbilities Pages: 1 -->
<svg width="331pt" height="78pt"
 viewBox="0.00 0.00 331.00 78.00" xmlns="http://www.w3.org/2000/svg" xmlns:xlink="http://www.w3.org/1999/xlink">
<g id="graph0" class="graph" transform="scale(1 1) rotate(0) translate(4 74)">
<title>PA1A.Characters.Character.ProcessAffectingAbilities</title>
<!-- Node1 -->
<g id="Node000001" class="node">
<title>Node1</title>
<g id="a_Node000001"><a xlink:title=" ">
<polygon fill="#999999" stroke="#666666" points="140.5,-54 0,-54 0,-22 140.5,-22 140.5,-54"/>
<text text-anchor="start" x="8" y="-40.5" font-family="Helvetica,sans-Serif" font-size="10.00">PA1A.Characters.Character.</text>
<text text-anchor="middle" x="70.25" y="-28.5" font-family="Helvetica,sans-Serif" font-size="10.00">ProcessAffectingAbilities</text>
</a>
</g>
</g>
<!-- Node2 -->
<g id="Node000002" class="node">
<title>Node2</title>
<g id="a_Node000002"><a xlink:href="class_p_a1_a_1_1_abilities_1_1_ability.html#a5a11c29a82b4915cd91db061c7b042c5" target="_top" xlink:title="Process the ability on the specified target.">
<polygon fill="white" stroke="#666666" points="323,-70 176.5,-70 176.5,-50 323,-50 323,-70"/>
<text text-anchor="middle" x="249.75" y="-56.5" font-family="Helvetica,sans-Serif" font-size="10.00">PA1A.Abilities.Ability.Process</text>
</a>
</g>
</g>
<!-- Node1&#45;&gt;Node2 -->
<g id="edge1_Node000001_Node000002" class="edge">
<title>Node1&#45;&gt;Node2</title>
<g id="a_edge1_Node000001_Node000002"><a xlink:title=" ">
<path fill="none" stroke="#63b8ff" d="M140.89,-46.63C148.75,-47.61 156.81,-48.61 164.83,-49.6"/>
<polygon fill="#63b8ff" stroke="#63b8ff" points="164.24,-53.05 174.59,-50.81 165.1,-46.1 164.24,-53.05"/>
</a>
</g>
</g>
<!-- Node3 -->
<g id="Node000003" class="node">
<title>Node3</title>
<g id="a_Node000003"><a xlink:href="class_p_a1_a_1_1_abilities_1_1_ability.html#a735a9b8cbfdae12d8c8cfebc1e5fca1b" target="_top" xlink:title="Called when the ability is last applied to the target.">
<polygon fill="white" stroke="#666666" points="311.38,-32 188.12,-32 188.12,0 311.38,0 311.38,-32"/>
<text text-anchor="start" x="196.12" y="-18.5" font-family="Helvetica,sans-Serif" font-size="10.00">PA1A.Abilities.Ability.Un</text>
<text text-anchor="middle" x="249.75" y="-6.5" font-family="Helvetica,sans-Serif" font-size="10.00">Apply</text>
</a>
</g>
</g>
<!-- Node1&#45;&gt;Node3 -->
<g id="edge2_Node000001_Node000003" class="edge">
<title>Node1&#45;&gt;Node3</title>
<g id="a_edge2_Node000001_Node000003"><a xlink:title=" ">
<path fill="none" stroke="#63b8ff" d="M140.89,-29.37C152.6,-27.92 164.76,-26.41 176.53,-24.95"/>
<polygon fill="#63b8ff" stroke="#63b8ff" points="176.66,-28.46 186.16,-23.76 175.8,-21.51 176.66,-28.46"/>
</a>
</g>
</g>
</g>
</svg>
