<?xml version="1.0" encoding="UTF-8" standalone="no"?>
<!DOCTYPE svg PUBLIC "-//W3C//DTD SVG 1.1//EN"
 "http://www.w3.org/Graphics/SVG/1.1/DTD/svg11.dtd">
<!-- Generated by graphviz version 12.1.2 (20240928.0832)
 -->
<!-- Title: PA1A.Building.PlacementData Pages: 1 -->
<svg width="150pt" height="212pt"
 viewBox="0.00 0.00 150.00 212.00" xmlns="http://www.w3.org/2000/svg" xmlns:xlink="http://www.w3.org/1999/xlink">

<svg id="main" version="1.1" xmlns="http://www.w3.org/2000/svg" xmlns:xlink="http://www.w3.org/1999/xlink" xml:space="preserve">

<style type="text/css"><![CDATA[
.node, .edge {opacity: 0.7;}
.node.selected, .edge.selected {opacity: 1;}
.edge:hover path { stroke: red; }
.edge:hover polygon { stroke: red; fill: red; }
]]></style>
<script type="application/ecmascript" xlink:href="svg.min.js"/>
<svg id="graph" class="graph">
<g id="graph0" class="graph" transform="scale(1 1) rotate(0) translate(4 208)">
<title>PA1A.Building.PlacementData</title>
<!-- Node1 -->
<g id="Node000001" class="node">
<title>Node1</title>
<g id="a_Node000001"><a xlink:title="Represents the data for object placement in the game.">
<polygon fill="#999999" stroke="none" points="142,-116 0,-116 0,0 142,0 142,-116"/>
<text text-anchor="start" x="4.62" y="-102.5" font-family="Helvetica,sans-Serif" font-size="10.00">PA1A.Building.PlacementData</text>
<text text-anchor="start" x="9" y="-86.5" font-family="Helvetica,sans-Serif" font-size="10.00">+</text>
<text text-anchor="start" x="24" y="-86.5" font-family="Helvetica,sans-Serif" font-size="10.00">occupiedPositions</text>
<text text-anchor="start" x="9" y="-70.5" font-family="Helvetica,sans-Serif" font-size="10.00">+</text>
<text text-anchor="start" x="24" y="-70.5" font-family="Helvetica,sans-Serif" font-size="10.00">ID</text>
<text text-anchor="start" x="9" y="-54.5" font-family="Helvetica,sans-Serif" font-size="10.00">+</text>
<text text-anchor="start" x="24" y="-54.5" font-family="Helvetica,sans-Serif" font-size="10.00">PlacedObjectIndex</text>
<text text-anchor="start" x="9" y="-38.5" font-family="Helvetica,sans-Serif" font-size="10.00">+</text>
<text text-anchor="start" x="24" y="-38.5" font-family="Helvetica,sans-Serif" font-size="10.00">PlacementData()</text>
<text text-anchor="start" x="9" y="-22.5" font-family="Helvetica,sans-Serif" font-size="10.00">+</text>
<text text-anchor="start" x="24" y="-22.5" font-family="Helvetica,sans-Serif" font-size="10.00">PlacementData()</text>
<text text-anchor="start" x="9" y="-6.5" font-family="Helvetica,sans-Serif" font-size="10.00">+</text>
<text text-anchor="start" x="24" y="-6.5" font-family="Helvetica,sans-Serif" font-size="10.00">NetworkSerialize&lt; T &gt;()</text>
<polygon fill="#666666" stroke="#666666" points="0,-98 0,-98 142,-98 142,-98 0,-98"/>
<polygon fill="#666666" stroke="#666666" points="0,-50 0,-50 22,-50 22,-50 0,-50"/>
<polygon fill="#666666" stroke="#666666" points="22,-50 22,-50 142,-50 142,-50 22,-50"/>
<polygon fill="none" stroke="#666666" points="0,0 0,-116 142,-116 142,0 0,0"/>
</a>
</g>
</g>
<!-- Node2 -->
<g id="Node000002" class="node">
<title>Node2</title>
<g id="a_Node000002"><a xlink:href="class_i_network_serializable.html" target="_top" xlink:title=" ">
<polygon fill="white" stroke="none" points="121,-204 21,-204 21,-152 121,-152 121,-204"/>
<text text-anchor="start" x="26" y="-190.5" font-family="Helvetica,sans-Serif" font-size="10.00">INetworkSerializable</text>
<text text-anchor="start" x="69.5" y="-174.5" font-family="Helvetica,sans-Serif" font-size="10.00"> </text>
<text text-anchor="start" x="69.5" y="-158.5" font-family="Helvetica,sans-Serif" font-size="10.00"> </text>
<polygon fill="#666666" stroke="#666666" points="21,-186 21,-186 121,-186 121,-186 21,-186"/>
<polygon fill="#666666" stroke="#666666" points="21,-170 21,-170 121,-170 121,-170 21,-170"/>
<polygon fill="none" stroke="#666666" points="21,-152 21,-204 121,-204 121,-152 21,-152"/>
</a>
</g>
</g>
<!-- Node2&#45;&gt;Node1 -->
<g id="edge1_Node000001_Node000002" class="edge">
<title>Node2&#45;&gt;Node1</title>
<g id="a_edge1_Node000001_Node000002"><a xlink:title=" ">
<path fill="none" stroke="#63b8ff" d="M71,-140.82C71,-132.89 71,-124.31 71,-115.79"/>
<polygon fill="none" stroke="#63b8ff" points="67.5,-140.75 71,-150.75 74.5,-140.75 67.5,-140.75"/>
</a>
</g>
</g>
</g>
</svg>
</svg>

<style type='text/css'>
<![CDATA[
[data-mouse-over-selected='false'] { opacity: 0.7; }
[data-mouse-over-selected='true']  { opacity: 1.0; }
]]>
</style>
<script type="application/ecmascript"><![CDATA[
document.addEventListener('DOMContentLoaded', (event) => {
  highlightEdges();
  highlightAdjacentNodes();
});
]]></script>
</svg>
