<?xml version="1.0" encoding="UTF-8" standalone="no"?>
<!DOCTYPE svg PUBLIC "-//W3C//DTD SVG 1.1//EN"
 "http://www.w3.org/Graphics/SVG/1.1/DTD/svg11.dtd">
<!-- Generated by graphviz version 12.1.2 (20240928.0832)
 -->
<!-- Title: PA1A.Abilities.Ability Pages: 1 -->
<svg width="423pt" height="412pt"
 viewBox="0.00 0.00 422.50 412.00" xmlns="http://www.w3.org/2000/svg" xmlns:xlink="http://www.w3.org/1999/xlink">
<g id="graph0" class="graph" transform="scale(1 1) rotate(0) translate(4 408)">
<title>PA1A.Abilities.Ability</title>
<!-- Node1 -->
<g id="Node000001" class="node">
<title>Node1</title>
<g id="a_Node000001"><a xlink:title="Base class for all abilities.">
<polygon fill="#999999" stroke="none" points="268.5,-316 162.5,-316 162.5,-120 268.5,-120 268.5,-316"/>
<text text-anchor="start" x="169.38" y="-302.5" font-family="Helvetica,sans-Serif" font-size="10.00">PA1A.Abilities.Ability</text>
<text text-anchor="start" x="166.5" y="-286.5" font-family="Helvetica,sans-Serif" font-size="10.00">+</text>
<text text-anchor="start" x="176.5" y="-286.5" font-family="Helvetica,sans-Serif" font-size="10.00">GUID</text>
<text text-anchor="start" x="166.5" y="-270.5" font-family="Helvetica,sans-Serif" font-size="10.00">+</text>
<text text-anchor="start" x="176.5" y="-270.5" font-family="Helvetica,sans-Serif" font-size="10.00">FileID</text>
<text text-anchor="start" x="166.5" y="-254.5" font-family="Helvetica,sans-Serif" font-size="10.00">+</text>
<text text-anchor="start" x="176.5" y="-254.5" font-family="Helvetica,sans-Serif" font-size="10.00">Name</text>
<text text-anchor="start" x="166.5" y="-238.5" font-family="Helvetica,sans-Serif" font-size="10.00">+</text>
<text text-anchor="start" x="176.5" y="-238.5" font-family="Helvetica,sans-Serif" font-size="10.00">IsInstant</text>
<text text-anchor="start" x="166.5" y="-222.5" font-family="Helvetica,sans-Serif" font-size="10.00">+</text>
<text text-anchor="start" x="176.5" y="-222.5" font-family="Helvetica,sans-Serif" font-size="10.00">Duration</text>
<text text-anchor="start" x="166.5" y="-206.5" font-family="Helvetica,sans-Serif" font-size="10.00">+</text>
<text text-anchor="start" x="176.5" y="-206.5" font-family="Helvetica,sans-Serif" font-size="10.00">Apply()</text>
<text text-anchor="start" x="166.5" y="-190.5" font-family="Helvetica,sans-Serif" font-size="10.00">+</text>
<text text-anchor="start" x="176.5" y="-190.5" font-family="Helvetica,sans-Serif" font-size="10.00">Process()</text>
<text text-anchor="start" x="166.5" y="-174.5" font-family="Helvetica,sans-Serif" font-size="10.00">+</text>
<text text-anchor="start" x="176.5" y="-174.5" font-family="Helvetica,sans-Serif" font-size="10.00">UnApply()</text>
<text text-anchor="start" x="166.5" y="-158.5" font-family="Helvetica,sans-Serif" font-size="10.00">+</text>
<text text-anchor="start" x="176.5" y="-158.5" font-family="Helvetica,sans-Serif" font-size="10.00">OnAfterDeserialize()</text>
<text text-anchor="start" x="166.5" y="-142.5" font-family="Helvetica,sans-Serif" font-size="10.00">+</text>
<text text-anchor="start" x="176.5" y="-142.5" font-family="Helvetica,sans-Serif" font-size="10.00">OnBeforeSerialize()</text>
<text text-anchor="start" x="166.5" y="-126.5" font-family="Helvetica,sans-Serif" font-size="10.00">+</text>
<text text-anchor="start" x="176.5" y="-126.5" font-family="Helvetica,sans-Serif" font-size="10.00">Equals()</text>
<polygon fill="#666666" stroke="#666666" points="162.5,-298 162.5,-298 268.5,-298 268.5,-298 162.5,-298"/>
<polygon fill="#666666" stroke="#666666" points="162.5,-218 162.5,-218 174.5,-218 174.5,-218 162.5,-218"/>
<polygon fill="#666666" stroke="#666666" points="174.5,-218 174.5,-218 268.5,-218 268.5,-218 174.5,-218"/>
<polygon fill="none" stroke="#666666" points="162.5,-120 162.5,-316 268.5,-316 268.5,-120 162.5,-120"/>
</a>
</g>
</g>
<!-- Node5 -->
<g id="Node000005" class="node">
<title>Node5</title>
<g id="a_Node000005"><a xlink:href="class_p_a1_a_1_1_abilities_1_1_damage_ability.html" target="_top" xlink:title="Represents a damage ability that can be used by a character to inflict damage on a target.">
<polygon fill="white" stroke="none" points="139,-68 0,-68 0,-16 139,-16 139,-68"/>
<text text-anchor="start" x="5" y="-54.5" font-family="Helvetica,sans-Serif" font-size="10.00">PA1A.Abilities.DamageAbility</text>
<text text-anchor="start" x="17" y="-38.5" font-family="Helvetica,sans-Serif" font-size="10.00">+</text>
<text text-anchor="start" x="40" y="-38.5" font-family="Helvetica,sans-Serif" font-size="10.00">damageAmount</text>
<text text-anchor="start" x="17" y="-22.5" font-family="Helvetica,sans-Serif" font-size="10.00">+</text>
<text text-anchor="start" x="40" y="-22.5" font-family="Helvetica,sans-Serif" font-size="10.00">Apply()</text>
<polygon fill="#666666" stroke="#666666" points="0,-50 0,-50 139,-50 139,-50 0,-50"/>
<polygon fill="#666666" stroke="#666666" points="0,-34 0,-34 38,-34 38,-34 0,-34"/>
<polygon fill="#666666" stroke="#666666" points="38,-34 38,-34 139,-34 139,-34 38,-34"/>
<polygon fill="none" stroke="#666666" points="0,-16 0,-68 139,-68 139,-16 0,-16"/>
</a>
</g>
</g>
<!-- Node1&#45;&gt;Node5 -->
<g id="edge4_Node000001_Node000005" class="edge">
<title>Node1&#45;&gt;Node5</title>
<g id="a_edge4_Node000001_Node000005"><a xlink:title=" ">
<path fill="none" stroke="#63b8ff" d="M155.63,-145.65C132.35,-117.9 107.22,-87.95 90.15,-67.61"/>
<polygon fill="none" stroke="#63b8ff" points="152.71,-147.61 161.82,-153.02 158.07,-143.11 152.71,-147.61"/>
</a>
</g>
</g>
<!-- Node6 -->
<g id="Node000006" class="node">
<title>Node6</title>
<g id="a_Node000006"><a xlink:href="class_p_a1_a_1_1_abilities_1_1_fireability.html" target="_top" xlink:title="Represents a fire ability.">
<polygon fill="white" stroke="none" points="274,-84 157,-84 157,0 274,0 274,-84"/>
<text text-anchor="start" x="161.88" y="-70.5" font-family="Helvetica,sans-Serif" font-size="10.00">PA1A.Abilities.Fireability</text>
<text text-anchor="start" x="214" y="-54.5" font-family="Helvetica,sans-Serif" font-size="10.00"> </text>
<text text-anchor="start" x="175" y="-38.5" font-family="Helvetica,sans-Serif" font-size="10.00">+</text>
<text text-anchor="start" x="199" y="-38.5" font-family="Helvetica,sans-Serif" font-size="10.00">Apply()</text>
<text text-anchor="start" x="175" y="-22.5" font-family="Helvetica,sans-Serif" font-size="10.00">+</text>
<text text-anchor="start" x="199" y="-22.5" font-family="Helvetica,sans-Serif" font-size="10.00">Process()</text>
<text text-anchor="start" x="175" y="-6.5" font-family="Helvetica,sans-Serif" font-size="10.00">+</text>
<text text-anchor="start" x="199" y="-6.5" font-family="Helvetica,sans-Serif" font-size="10.00">UnApply()</text>
<polygon fill="#666666" stroke="#666666" points="157,-66 157,-66 274,-66 274,-66 157,-66"/>
<polygon fill="#666666" stroke="#666666" points="157,-50 157,-50 274,-50 274,-50 157,-50"/>
<polygon fill="none" stroke="#666666" points="157,0 157,-84 274,-84 274,0 157,0"/>
</a>
</g>
</g>
<!-- Node1&#45;&gt;Node6 -->
<g id="edge5_Node000001_Node000006" class="edge">
<title>Node1&#45;&gt;Node6</title>
<g id="a_edge5_Node000001_Node000006"><a xlink:title=" ">
<path fill="none" stroke="#63b8ff" d="M215.5,-108.79C215.5,-99.98 215.5,-91.48 215.5,-83.68"/>
<polygon fill="none" stroke="#63b8ff" points="212,-108.57 215.5,-118.57 219,-108.57 212,-108.57"/>
</a>
</g>
</g>
<!-- Node7 -->
<g id="Node000007" class="node">
<title>Node7</title>
<g id="a_Node000007"><a xlink:href="class_p_a1_a_1_1_abilities_1_1_heal_ability.html" target="_top" xlink:title="Represents a heal ability that can be used to restore health to a target.">
<polygon fill="white" stroke="none" points="414.5,-68 292.5,-68 292.5,-16 414.5,-16 414.5,-68"/>
<text text-anchor="start" x="297.25" y="-54.5" font-family="Helvetica,sans-Serif" font-size="10.00">PA1A.Abilities.HealAbility</text>
<text text-anchor="start" x="309.5" y="-38.5" font-family="Helvetica,sans-Serif" font-size="10.00">+</text>
<text text-anchor="start" x="332.5" y="-38.5" font-family="Helvetica,sans-Serif" font-size="10.00">healAmount</text>
<text text-anchor="start" x="309.5" y="-22.5" font-family="Helvetica,sans-Serif" font-size="10.00">+</text>
<text text-anchor="start" x="332.5" y="-22.5" font-family="Helvetica,sans-Serif" font-size="10.00">Apply()</text>
<polygon fill="#666666" stroke="#666666" points="292.5,-50 292.5,-50 414.5,-50 414.5,-50 292.5,-50"/>
<polygon fill="#666666" stroke="#666666" points="292.5,-34 292.5,-34 330.5,-34 330.5,-34 292.5,-34"/>
<polygon fill="#666666" stroke="#666666" points="330.5,-34 330.5,-34 414.5,-34 414.5,-34 330.5,-34"/>
<polygon fill="none" stroke="#666666" points="292.5,-16 292.5,-68 414.5,-68 414.5,-16 292.5,-16"/>
</a>
</g>
</g>
<!-- Node1&#45;&gt;Node7 -->
<g id="edge6_Node000001_Node000007" class="edge">
<title>Node1&#45;&gt;Node7</title>
<g id="a_edge6_Node000001_Node000007"><a xlink:title=" ">
<path fill="none" stroke="#63b8ff" d="M275.52,-141.32C296.5,-114.87 318.61,-87 333.9,-67.71"/>
<polygon fill="none" stroke="#63b8ff" points="272.87,-139.03 269.4,-149.04 278.36,-143.38 272.87,-139.03"/>
</a>
</g>
</g>
<!-- Node2 -->
<g id="Node000002" class="node">
<title>Node2</title>
<g id="a_Node000002"><a xlink:href="class_scriptable_object.html" target="_top" xlink:title=" ">
<polygon fill="white" stroke="none" points="125.5,-404 43.5,-404 43.5,-352 125.5,-352 125.5,-404"/>
<text text-anchor="start" x="48.5" y="-390.5" font-family="Helvetica,sans-Serif" font-size="10.00">ScriptableObject</text>
<text text-anchor="start" x="83" y="-374.5" font-family="Helvetica,sans-Serif" font-size="10.00"> </text>
<text text-anchor="start" x="83" y="-358.5" font-family="Helvetica,sans-Serif" font-size="10.00"> </text>
<polygon fill="#666666" stroke="#666666" points="43.5,-386 43.5,-386 125.5,-386 125.5,-386 43.5,-386"/>
<polygon fill="#666666" stroke="#666666" points="43.5,-370 43.5,-370 125.5,-370 125.5,-370 43.5,-370"/>
<polygon fill="none" stroke="#666666" points="43.5,-352 43.5,-404 125.5,-404 125.5,-352 43.5,-352"/>
</a>
</g>
</g>
<!-- Node2&#45;&gt;Node1 -->
<g id="edge1_Node000001_Node000002" class="edge">
<title>Node2&#45;&gt;Node1</title>
<g id="a_edge1_Node000001_Node000002"><a xlink:title=" ">
<path fill="none" stroke="#63b8ff" d="M112.26,-343.52C126.92,-325.83 145.42,-303.53 162.69,-282.7"/>
<polygon fill="none" stroke="#63b8ff" points="109.62,-341.22 105.93,-351.15 115.01,-345.68 109.62,-341.22"/>
</a>
</g>
</g>
<!-- Node3 -->
<g id="Node000003" class="node">
<title>Node3</title>
<g id="a_Node000003"><a xlink:href="class_i_serialization_callback_receiver.html" target="_top" xlink:title=" ">
<polygon fill="white" stroke="none" points="287,-404 144,-404 144,-352 287,-352 287,-404"/>
<text text-anchor="start" x="148.75" y="-390.5" font-family="Helvetica,sans-Serif" font-size="10.00">ISerializationCallbackReceiver</text>
<text text-anchor="start" x="214" y="-374.5" font-family="Helvetica,sans-Serif" font-size="10.00"> </text>
<text text-anchor="start" x="214" y="-358.5" font-family="Helvetica,sans-Serif" font-size="10.00"> </text>
<polygon fill="#666666" stroke="#666666" points="144,-386 144,-386 287,-386 287,-386 144,-386"/>
<polygon fill="#666666" stroke="#666666" points="144,-370 144,-370 287,-370 287,-370 144,-370"/>
<polygon fill="none" stroke="#666666" points="144,-352 144,-404 287,-404 287,-352 144,-352"/>
</a>
</g>
</g>
<!-- Node3&#45;&gt;Node1 -->
<g id="edge2_Node000001_Node000003" class="edge">
<title>Node3&#45;&gt;Node1</title>
<g id="a_edge2_Node000001_Node000003"><a xlink:title=" ">
<path fill="none" stroke="#63b8ff" d="M215.5,-340.88C215.5,-333.15 215.5,-324.63 215.5,-315.8"/>
<polygon fill="none" stroke="#63b8ff" points="212,-340.8 215.5,-350.8 219,-340.8 212,-340.8"/>
</a>
</g>
</g>
<!-- Node4 -->
<g id="Node000004" class="node">
<title>Node4</title>
<g id="a_Node000004"><a xlink:href="class_i_equatable.html" target="_top" xlink:title=" ">
<polygon fill="white" stroke="none" points="405.5,-404 305.5,-404 305.5,-352 405.5,-352 405.5,-404"/>
<text text-anchor="start" x="310.12" y="-390.5" font-family="Helvetica,sans-Serif" font-size="10.00">IEquatable&lt; Ability &gt;</text>
<text text-anchor="start" x="354" y="-374.5" font-family="Helvetica,sans-Serif" font-size="10.00"> </text>
<text text-anchor="start" x="354" y="-358.5" font-family="Helvetica,sans-Serif" font-size="10.00"> </text>
<polygon fill="#666666" stroke="#666666" points="305.5,-386 305.5,-386 405.5,-386 405.5,-386 305.5,-386"/>
<polygon fill="#666666" stroke="#666666" points="305.5,-370 305.5,-370 405.5,-370 405.5,-370 305.5,-370"/>
<polygon fill="none" stroke="#666666" points="305.5,-352 305.5,-404 405.5,-404 405.5,-352 305.5,-352"/>
</a>
</g>
</g>
<!-- Node4&#45;&gt;Node1 -->
<g id="edge3_Node000001_Node000004" class="edge">
<title>Node4&#45;&gt;Node1</title>
<g id="a_edge3_Node000001_Node000004"><a xlink:title=" ">
<path fill="none" stroke="#63b8ff" d="M326.06,-343.77C309.33,-324.89 287.87,-300.68 268.33,-278.62"/>
<polygon fill="none" stroke="#63b8ff" points="323.37,-346.02 332.62,-351.18 328.61,-341.37 323.37,-346.02"/>
</a>
</g>
</g>
</g>
</svg>
