<?xml version="1.0" encoding="UTF-8" standalone="no"?>
<!DOCTYPE svg PUBLIC "-//W3C//DTD SVG 1.1//EN"
 "http://www.w3.org/Graphics/SVG/1.1/DTD/svg11.dtd">
<!-- Generated by graphviz version 12.1.2 (20240928.0832)
 -->
<!-- Title: UnityUtils.StateMachine.StatefulEntity Pages: 1 -->
<svg width="127pt" height="224pt"
 viewBox="0.00 0.00 127.00 224.00" xmlns="http://www.w3.org/2000/svg" xmlns:xlink="http://www.w3.org/1999/xlink">
<g id="graph0" class="graph" transform="scale(1 1) rotate(0) translate(4 220)">
<title>UnityUtils.StateMachine.StatefulEntity</title>
<!-- Node1 -->
<g id="Node000001" class="node">
<title>Node1</title>
<g id="a_Node000001"><a xlink:title=" ">
<polygon fill="#999999" stroke="none" points="119,-128 0,-128 0,0 119,0 119,-128"/>
<text text-anchor="start" x="4.75" y="-114.5" font-family="Helvetica,sans-Serif" font-size="10.00">UnityUtils.StateMachine.</text>
<text text-anchor="start" x="29.88" y="-102.5" font-family="Helvetica,sans-Serif" font-size="10.00">StatefulEntity</text>
<text text-anchor="start" x="13.88" y="-86.5" font-family="Helvetica,sans-Serif" font-size="10.00">#</text>
<text text-anchor="start" x="33" y="-86.5" font-family="Helvetica,sans-Serif" font-size="10.00">stateMachine</text>
<text text-anchor="start" x="13.88" y="-70.5" font-family="Helvetica,sans-Serif" font-size="10.00">#</text>
<text text-anchor="start" x="33" y="-70.5" font-family="Helvetica,sans-Serif" font-size="10.00">Awake()</text>
<text text-anchor="start" x="13.88" y="-54.5" font-family="Helvetica,sans-Serif" font-size="10.00">#</text>
<text text-anchor="start" x="33" y="-54.5" font-family="Helvetica,sans-Serif" font-size="10.00">Update()</text>
<text text-anchor="start" x="13.88" y="-38.5" font-family="Helvetica,sans-Serif" font-size="10.00">#</text>
<text text-anchor="start" x="33" y="-38.5" font-family="Helvetica,sans-Serif" font-size="10.00">FixedUpdate()</text>
<text text-anchor="start" x="13.88" y="-22.5" font-family="Helvetica,sans-Serif" font-size="10.00">#</text>
<text text-anchor="start" x="33" y="-22.5" font-family="Helvetica,sans-Serif" font-size="10.00">At&lt; T &gt;()</text>
<text text-anchor="start" x="13.88" y="-6.5" font-family="Helvetica,sans-Serif" font-size="10.00">#</text>
<text text-anchor="start" x="33" y="-6.5" font-family="Helvetica,sans-Serif" font-size="10.00">Any&lt; T &gt;()</text>
<polygon fill="#666666" stroke="#666666" points="0,-98 0,-98 119,-98 119,-98 0,-98"/>
<polygon fill="#666666" stroke="#666666" points="0,-82 0,-82 31,-82 31,-82 0,-82"/>
<polygon fill="#666666" stroke="#666666" points="31,-82 31,-82 119,-82 119,-82 31,-82"/>
<polygon fill="none" stroke="#666666" points="0,0 0,-128 119,-128 119,0 0,0"/>
</a>
</g>
</g>
<!-- Node2 -->
<g id="Node000002" class="node">
<title>Node2</title>
<g id="a_Node000002"><a xlink:href="class_mono_behaviour.html" target="_top" xlink:title=" ">
<polygon fill="white" stroke="none" points="98,-216 21,-216 21,-164 98,-164 98,-216"/>
<text text-anchor="start" x="25.75" y="-202.5" font-family="Helvetica,sans-Serif" font-size="10.00">MonoBehaviour</text>
<text text-anchor="start" x="58" y="-186.5" font-family="Helvetica,sans-Serif" font-size="10.00"> </text>
<text text-anchor="start" x="58" y="-170.5" font-family="Helvetica,sans-Serif" font-size="10.00"> </text>
<polygon fill="#666666" stroke="#666666" points="21,-198 21,-198 98,-198 98,-198 21,-198"/>
<polygon fill="#666666" stroke="#666666" points="21,-182 21,-182 98,-182 98,-182 21,-182"/>
<polygon fill="none" stroke="#666666" points="21,-164 21,-216 98,-216 98,-164 21,-164"/>
</a>
</g>
</g>
<!-- Node2&#45;&gt;Node1 -->
<g id="edge1_Node000001_Node000002" class="edge">
<title>Node2&#45;&gt;Node1</title>
<g id="a_edge1_Node000001_Node000002"><a xlink:title=" ">
<path fill="none" stroke="#63b8ff" d="M59.5,-152.83C59.5,-144.93 59.5,-136.35 59.5,-127.75"/>
<polygon fill="none" stroke="#63b8ff" points="56,-152.69 59.5,-162.69 63,-152.69 56,-152.69"/>
</a>
</g>
</g>
</g>
</svg>
