<?xml version="1.0" encoding="UTF-8" standalone="no"?>
<!DOCTYPE svg PUBLIC "-//W3C//DTD SVG 1.1//EN"
 "http://www.w3.org/Graphics/SVG/1.1/DTD/svg11.dtd">
<!-- Generated by graphviz version 12.1.2 (20240928.0832)
 -->
<!-- Title: Unity.Netcode.NetworkStandardList.ReadDelta Pages: 1 -->
<svg width="358pt" height="90pt"
 viewBox="0.00 0.00 358.00 90.00" xmlns="http://www.w3.org/2000/svg" xmlns:xlink="http://www.w3.org/1999/xlink">
<g id="graph0" class="graph" transform="scale(1 1) rotate(0) translate(4 86)">
<title>Unity.Netcode.NetworkStandardList.ReadDelta</title>
<!-- Node1 -->
<g id="Node000001" class="node">
<title>Node1</title>
<g id="a_Node000001"><a xlink:title=" ">
<polygon fill="#999999" stroke="#666666" points="157,-57 0,-57 0,-25 157,-25 157,-57"/>
<text text-anchor="start" x="8" y="-43.5" font-family="Helvetica,sans-Serif" font-size="10.00">Unity.Netcode.NetworkStandard</text>
<text text-anchor="middle" x="78.5" y="-31.5" font-family="Helvetica,sans-Serif" font-size="10.00">List.ReadDelta</text>
</a>
</g>
</g>
<!-- Node2 -->
<g id="Node000002" class="node">
<title>Node2</title>
<g id="a_Node000002"><a xlink:href="class_unity_1_1_netcode_1_1_network_standard_list.html#a7dca6a56ee888e98cfc1bf0f31403c30" target="_top" xlink:title=" ">
<polygon fill="white" stroke="#666666" points="350,-82 193,-82 193,-50 350,-50 350,-82"/>
<text text-anchor="start" x="201" y="-68.5" font-family="Helvetica,sans-Serif" font-size="10.00">Unity.Netcode.NetworkStandard</text>
<text text-anchor="middle" x="271.5" y="-56.5" font-family="Helvetica,sans-Serif" font-size="10.00">List.ReadField</text>
</a>
</g>
</g>
<!-- Node1&#45;&gt;Node2 -->
<g id="edge1_Node000001_Node000002" class="edge">
<title>Node1&#45;&gt;Node2</title>
<g id="a_edge1_Node000001_Node000002"><a xlink:title=" ">
<path fill="none" stroke="#63b8ff" d="M157.46,-51.2C165.39,-52.24 173.47,-53.3 181.5,-54.35"/>
<polygon fill="#63b8ff" stroke="#63b8ff" points="180.92,-57.8 191.29,-55.63 181.82,-50.86 180.92,-57.8"/>
</a>
</g>
</g>
<!-- Node3 -->
<g id="Node000003" class="node">
<title>Node3</title>
<g id="a_Node000003"><a xlink:href="class_unity_1_1_netcode_1_1_network_standard_list.html#a0243aa018ef48a607bafc11e4cd5717b" target="_top" xlink:title=" ">
<polygon fill="white" stroke="#666666" points="350,-32 193,-32 193,0 350,0 350,-32"/>
<text text-anchor="start" x="201" y="-18.5" font-family="Helvetica,sans-Serif" font-size="10.00">Unity.Netcode.NetworkStandard</text>
<text text-anchor="middle" x="271.5" y="-6.5" font-family="Helvetica,sans-Serif" font-size="10.00">List.ResetDirty</text>
</a>
</g>
</g>
<!-- Node1&#45;&gt;Node3 -->
<g id="edge2_Node000001_Node000003" class="edge">
<title>Node1&#45;&gt;Node3</title>
<g id="a_edge2_Node000001_Node000003"><a xlink:title=" ">
<path fill="none" stroke="#63b8ff" d="M157.46,-30.8C165.39,-29.76 173.47,-28.7 181.5,-27.65"/>
<polygon fill="#63b8ff" stroke="#63b8ff" points="181.82,-31.14 191.29,-26.37 180.92,-24.2 181.82,-31.14"/>
</a>
</g>
</g>
</g>
</svg>
