<?xml version="1.0" encoding="UTF-8" standalone="no"?>
<!DOCTYPE svg PUBLIC "-//W3C//DTD SVG 1.1//EN"
 "http://www.w3.org/Graphics/SVG/1.1/DTD/svg11.dtd">
<!-- Generated by graphviz version 12.1.2 (20240928.0832)
 -->
<!-- Title: PA1A.Items.UI.SlotUI Pages: 1 -->
<svg width="170pt" height="332pt"
 viewBox="0.00 0.00 169.50 332.00" xmlns="http://www.w3.org/2000/svg" xmlns:xlink="http://www.w3.org/1999/xlink">

<svg id="main" version="1.1" xmlns="http://www.w3.org/2000/svg" xmlns:xlink="http://www.w3.org/1999/xlink" xml:space="preserve">

<style type="text/css"><![CDATA[
.node, .edge {opacity: 0.7;}
.node.selected, .edge.selected {opacity: 1;}
.edge:hover path { stroke: red; }
.edge:hover polygon { stroke: red; fill: red; }
]]></style>
<script type="application/ecmascript" xlink:href="svg.min.js"/>
<svg id="graph" class="graph">
<g id="graph0" class="graph" transform="scale(1 1) rotate(0) translate(4 328)">
<title>PA1A.Items.UI.SlotUI</title>
<!-- Node1 -->
<g id="Node000001" class="node">
<title>Node1</title>
<g id="a_Node000001"><a xlink:title="Base implementation of ISlotUI that is linked to an IContainer">
<polygon fill="#999999" stroke="none" points="136.5,-204 30.5,-204 30.5,-104 136.5,-104 136.5,-204"/>
<text text-anchor="start" x="35.12" y="-190.5" font-family="Helvetica,sans-Serif" font-size="10.00">PA1A.Items.UI.SlotUI</text>
<text text-anchor="start" x="44.5" y="-174.5" font-family="Helvetica,sans-Serif" font-size="10.00">+</text>
<text text-anchor="start" x="64.5" y="-174.5" font-family="Helvetica,sans-Serif" font-size="10.00">Container</text>
<text text-anchor="start" x="44.5" y="-158.5" font-family="Helvetica,sans-Serif" font-size="10.00">+</text>
<text text-anchor="start" x="64.5" y="-158.5" font-family="Helvetica,sans-Serif" font-size="10.00">Index</text>
<text text-anchor="start" x="44.5" y="-142.5" font-family="Helvetica,sans-Serif" font-size="10.00">+</text>
<text text-anchor="start" x="64.5" y="-142.5" font-family="Helvetica,sans-Serif" font-size="10.00">Configure()</text>
<text text-anchor="start" x="44.5" y="-126.5" font-family="Helvetica,sans-Serif" font-size="10.00">+</text>
<text text-anchor="start" x="64.5" y="-126.5" font-family="Helvetica,sans-Serif" font-size="10.00">Refresh()</text>
<text text-anchor="start" x="44.5" y="-110.5" font-family="Helvetica,sans-Serif" font-size="10.00">+</text>
<text text-anchor="start" x="64.5" y="-110.5" font-family="Helvetica,sans-Serif" font-size="10.00">Destroy()</text>
<polygon fill="#666666" stroke="#666666" points="30.5,-186 30.5,-186 136.5,-186 136.5,-186 30.5,-186"/>
<polygon fill="#666666" stroke="#666666" points="30.5,-154 30.5,-154 62.5,-154 62.5,-154 30.5,-154"/>
<polygon fill="#666666" stroke="#666666" points="62.5,-154 62.5,-154 136.5,-154 136.5,-154 62.5,-154"/>
<polygon fill="none" stroke="#666666" points="30.5,-104 30.5,-204 136.5,-204 136.5,-104 30.5,-104"/>
</a>
</g>
</g>
<!-- Node4 -->
<g id="Node000004" class="node">
<title>Node4</title>
<g id="a_Node000004"><a xlink:href="class_p_a1_a_1_1_items_1_1_u_i_1_1_classic_slot_u_i.html" target="_top" xlink:title="Classic ISlotUI that only displays the Item.Sprite and ItemStack.StackSize">
<polygon fill="white" stroke="none" points="153,-68 14,-68 14,0 153,0 153,-68"/>
<text text-anchor="start" x="18.62" y="-54.5" font-family="Helvetica,sans-Serif" font-size="10.00">PA1A.Items.UI.ClassicSlotUI</text>
<text text-anchor="start" x="38" y="-38.5" font-family="Helvetica,sans-Serif" font-size="10.00">+</text>
<text text-anchor="start" x="68" y="-38.5" font-family="Helvetica,sans-Serif" font-size="10.00">Header</text>
<text text-anchor="start" x="38" y="-22.5" font-family="Helvetica,sans-Serif" font-size="10.00">+</text>
<text text-anchor="start" x="68" y="-22.5" font-family="Helvetica,sans-Serif" font-size="10.00">Content</text>
<text text-anchor="start" x="38" y="-6.5" font-family="Helvetica,sans-Serif" font-size="10.00">+</text>
<text text-anchor="start" x="68" y="-6.5" font-family="Helvetica,sans-Serif" font-size="10.00">Refresh()</text>
<polygon fill="#666666" stroke="#666666" points="14,-50 14,-50 153,-50 153,-50 14,-50"/>
<polygon fill="#666666" stroke="#666666" points="14,-18 14,-18 66,-18 66,-18 14,-18"/>
<polygon fill="#666666" stroke="#666666" points="66,-18 66,-18 153,-18 153,-18 66,-18"/>
<polygon fill="none" stroke="#666666" points="14,0 14,-68 153,-68 153,0 14,0"/>
</a>
</g>
</g>
<!-- Node1&#45;&gt;Node4 -->
<g id="edge3_Node000001_Node000004" class="edge">
<title>Node1&#45;&gt;Node4</title>
<g id="a_edge3_Node000001_Node000004"><a xlink:title=" ">
<path fill="none" stroke="#63b8ff" d="M83.5,-92.96C83.5,-84.28 83.5,-75.62 83.5,-67.75"/>
<polygon fill="none" stroke="#63b8ff" points="80,-92.81 83.5,-102.81 87,-92.81 80,-92.81"/>
</a>
</g>
</g>
<!-- Node2 -->
<g id="Node000002" class="node">
<title>Node2</title>
<g id="a_Node000002"><a xlink:href="class_mono_behaviour.html" target="_top" xlink:title=" ">
<polygon fill="white" stroke="none" points="77,-308 0,-308 0,-256 77,-256 77,-308"/>
<text text-anchor="start" x="4.75" y="-294.5" font-family="Helvetica,sans-Serif" font-size="10.00">MonoBehaviour</text>
<text text-anchor="start" x="37" y="-278.5" font-family="Helvetica,sans-Serif" font-size="10.00"> </text>
<text text-anchor="start" x="37" y="-262.5" font-family="Helvetica,sans-Serif" font-size="10.00"> </text>
<polygon fill="#666666" stroke="#666666" points="0,-290 0,-290 77,-290 77,-290 0,-290"/>
<polygon fill="#666666" stroke="#666666" points="0,-274 0,-274 77,-274 77,-274 0,-274"/>
<polygon fill="none" stroke="#666666" points="0,-256 0,-308 77,-308 77,-256 0,-256"/>
</a>
</g>
</g>
<!-- Node2&#45;&gt;Node1 -->
<g id="edge1_Node000001_Node000002" class="edge">
<title>Node2&#45;&gt;Node1</title>
<g id="a_edge1_Node000001_Node000002"><a xlink:title=" ">
<path fill="none" stroke="#63b8ff" d="M51.24,-245.34C55.84,-232.44 61.12,-217.65 66.06,-203.83"/>
<polygon fill="none" stroke="#63b8ff" points="47.97,-244.09 47.9,-254.68 54.56,-246.44 47.97,-244.09"/>
</a>
</g>
</g>
<!-- Node3 -->
<g id="Node000003" class="node">
<title>Node3</title>
<g id="a_Node000003"><a xlink:href="interface_p_a1_a_1_1_items_1_1_u_i_1_1_i_slot_u_i.html" target="_top" xlink:title="Represents a ISlotUI that will display a specific ItemStack">
<polygon fill="white" stroke="none" points="161.5,-324 95.5,-324 95.5,-240 161.5,-240 161.5,-324"/>
<text text-anchor="start" x="113.12" y="-310.5" font-family="Helvetica,sans-Serif" font-size="10.00">ISlotUI</text>
<text text-anchor="start" x="127" y="-294.5" font-family="Helvetica,sans-Serif" font-size="10.00"> </text>
<text text-anchor="start" x="99.5" y="-278.5" font-family="Helvetica,sans-Serif" font-size="10.00">+</text>
<text text-anchor="start" x="109.5" y="-278.5" font-family="Helvetica,sans-Serif" font-size="10.00">Configure()</text>
<text text-anchor="start" x="99.5" y="-262.5" font-family="Helvetica,sans-Serif" font-size="10.00">+</text>
<text text-anchor="start" x="109.5" y="-262.5" font-family="Helvetica,sans-Serif" font-size="10.00">Destroy()</text>
<text text-anchor="start" x="99.5" y="-246.5" font-family="Helvetica,sans-Serif" font-size="10.00">+</text>
<text text-anchor="start" x="109.5" y="-246.5" font-family="Helvetica,sans-Serif" font-size="10.00">Refresh()</text>
<polygon fill="#666666" stroke="#666666" points="95.5,-306 95.5,-306 161.5,-306 161.5,-306 95.5,-306"/>
<polygon fill="#666666" stroke="#666666" points="95.5,-290 95.5,-290 161.5,-290 161.5,-290 95.5,-290"/>
<polygon fill="none" stroke="#666666" points="95.5,-240 95.5,-324 161.5,-324 161.5,-240 95.5,-240"/>
</a>
</g>
</g>
<!-- Node3&#45;&gt;Node1 -->
<g id="edge2_Node000001_Node000003" class="edge">
<title>Node3&#45;&gt;Node1</title>
<g id="a_edge2_Node000001_Node000003"><a xlink:title=" ">
<path fill="none" stroke="#63b8ff" d="M110.1,-229.47C107.04,-220.92 103.89,-212.08 100.86,-203.61"/>
<polygon fill="none" stroke="#63b8ff" points="106.72,-230.43 113.38,-238.67 113.31,-228.07 106.72,-230.43"/>
</a>
</g>
</g>
</g>
</svg>
</svg>

<style type='text/css'>
<![CDATA[
[data-mouse-over-selected='false'] { opacity: 0.7; }
[data-mouse-over-selected='true']  { opacity: 1.0; }
]]>
</style>
<script type="application/ecmascript"><![CDATA[
document.addEventListener('DOMContentLoaded', (event) => {
  highlightEdges();
  highlightAdjacentNodes();
});
]]></script>
</svg>
