<?xml version="1.0" encoding="UTF-8" standalone="no"?>
<!DOCTYPE svg PUBLIC "-//W3C//DTD SVG 1.1//EN"
 "http://www.w3.org/Graphics/SVG/1.1/DTD/svg11.dtd">
<!-- Generated by graphviz version 12.1.2 (20240928.0832)
 -->
<!-- Title: PredefinedAssemblyUtil.GetTypes Pages: 1 -->
<svg width="297pt" height="58pt"
 viewBox="0.00 0.00 296.50 58.00" xmlns="http://www.w3.org/2000/svg" xmlns:xlink="http://www.w3.org/1999/xlink">
<g id="graph0" class="graph" transform="scale(1 1) rotate(0) translate(4 54)">
<title>PredefinedAssemblyUtil.GetTypes</title>
<!-- Node1 -->
<g id="Node000001" class="node">
<title>Node1</title>
<g id="a_Node000001"><a xlink:title="Gets all Types from all assemblies in the current AppDomain that implement the provided interface typ...">
<polygon fill="#999999" stroke="#666666" points="288.5,-32 148.75,-32 148.75,0 288.5,0 288.5,-32"/>
<text text-anchor="start" x="156.75" y="-18.5" font-family="Helvetica,sans-Serif" font-size="10.00">PredefinedAssemblyUtil.Get</text>
<text text-anchor="middle" x="218.62" y="-6.5" font-family="Helvetica,sans-Serif" font-size="10.00">Types</text>
</a>
</g>
</g>
<!-- Node1&#45;&gt;Node1 -->
<g id="edge1_Node000001_Node000001" class="edge">
<title>Node1&#45;&gt;Node1</title>
<g id="a_edge1_Node000001_Node000001"><a xlink:title=" ">
<path fill="none" stroke="#63b8ff" d="M245.66,-43.71C241.16,-47.48 232.14,-50 218.62,-50 193.91,-50 184.25,-41.58 189.66,-32.44"/>
<polygon fill="#63b8ff" stroke="#63b8ff" points="249.1,-44.38 247.34,-33.93 242.2,-43.2 249.1,-44.38"/>
</a>
</g>
</g>
<!-- Node2 -->
<g id="Node000002" class="node">
<title>Node2</title>
<g id="a_Node000002"><a xlink:href="class_event_bus_util.html#ab7300c23989b3bc3e01a75f28339455f" target="_top" xlink:title="Initializes the EventBusUtil class at runtime before the loading of any scene.">
<polygon fill="white" stroke="#666666" points="112.75,-26 0,-26 0,-6 112.75,-6 112.75,-26"/>
<text text-anchor="middle" x="56.38" y="-12.5" font-family="Helvetica,sans-Serif" font-size="10.00">EventBusUtil.Initialize</text>
</a>
</g>
</g>
<!-- Node1&#45;&gt;Node2 -->
<g id="edge2_Node000001_Node000002" class="edge">
<title>Node1&#45;&gt;Node2</title>
<g id="a_edge2_Node000001_Node000002"><a xlink:title=" ">
<path fill="none" stroke="#63b8ff" d="M136.83,-16C128.71,-16 120.61,-16 112.84,-16"/>
<polygon fill="#63b8ff" stroke="#63b8ff" points="136.76,-19.5 146.76,-16 136.76,-12.5 136.76,-19.5"/>
</a>
</g>
</g>
</g>
</svg>
