<?xml version="1.0" encoding="UTF-8" standalone="no"?>
<!DOCTYPE svg PUBLIC "-//W3C//DTD SVG 1.1//EN"
 "http://www.w3.org/Graphics/SVG/1.1/DTD/svg11.dtd">
<!-- Generated by graphviz version 12.1.2 (20240928.0832)
 -->
<!-- Title: PA1A.Player.Controller.PlayerController.OnFallStart Pages: 1 -->
<svg width="343pt" height="90pt"
 viewBox="0.00 0.00 343.00 90.00" xmlns="http://www.w3.org/2000/svg" xmlns:xlink="http://www.w3.org/1999/xlink">
<g id="graph0" class="graph" transform="scale(1 1) rotate(0) translate(4 86)">
<title>PA1A.Player.Controller.PlayerController.OnFallStart</title>
<!-- Node1 -->
<g id="Node000001" class="node">
<title>Node1</title>
<g id="a_Node000001"><a xlink:title=" ">
<polygon fill="#999999" stroke="#666666" points="147.25,-57 0,-57 0,-25 147.25,-25 147.25,-57"/>
<text text-anchor="start" x="8" y="-43.5" font-family="Helvetica,sans-Serif" font-size="10.00">PA1A.Player.Controller.Player</text>
<text text-anchor="middle" x="73.62" y="-31.5" font-family="Helvetica,sans-Serif" font-size="10.00">Controller.OnFallStart</text>
</a>
</g>
</g>
<!-- Node2 -->
<g id="Node000002" class="node">
<title>Node2</title>
<g id="a_Node000002"><a xlink:href="class_unity_utils_1_1_vector_math.html#ab2f8182df73d95397b0ae0856f9d82ac" target="_top" xlink:title="Extracts and returns the component of a vector that is in the direction of a given vector.">
<polygon fill="white" stroke="#666666" points="332.38,-82 185.88,-82 185.88,-50 332.38,-50 332.38,-82"/>
<text text-anchor="start" x="193.88" y="-68.5" font-family="Helvetica,sans-Serif" font-size="10.00">UnityUtils.VectorMath.Extract</text>
<text text-anchor="middle" x="259.12" y="-56.5" font-family="Helvetica,sans-Serif" font-size="10.00">DotVector</text>
</a>
</g>
</g>
<!-- Node1&#45;&gt;Node2 -->
<g id="edge1_Node000001_Node000002" class="edge">
<title>Node1&#45;&gt;Node2</title>
<g id="a_edge1_Node000001_Node000002"><a xlink:title=" ">
<path fill="none" stroke="#63b8ff" d="M147.68,-50.95C156.46,-52.15 165.48,-53.38 174.4,-54.59"/>
<polygon fill="#63b8ff" stroke="#63b8ff" points="173.74,-58.04 184.12,-55.92 174.69,-51.1 173.74,-58.04"/>
</a>
</g>
</g>
<!-- Node3 -->
<g id="Node000003" class="node">
<title>Node3</title>
<g id="a_Node000003"><a xlink:href="class_unity_utils_1_1_vector_math.html#aa45c35521dd615927346f3b867e34150" target="_top" xlink:title="Removes the component of a vector that is in the direction of a given vector.">
<polygon fill="white" stroke="#666666" points="335,-32 183.25,-32 183.25,0 335,0 335,-32"/>
<text text-anchor="start" x="191.25" y="-18.5" font-family="Helvetica,sans-Serif" font-size="10.00">UnityUtils.VectorMath.Remove</text>
<text text-anchor="middle" x="259.12" y="-6.5" font-family="Helvetica,sans-Serif" font-size="10.00">DotVector</text>
</a>
</g>
</g>
<!-- Node1&#45;&gt;Node3 -->
<g id="edge2_Node000001_Node000003" class="edge">
<title>Node1&#45;&gt;Node3</title>
<g id="a_edge2_Node000001_Node000003"><a xlink:title=" ">
<path fill="none" stroke="#63b8ff" d="M147.68,-31.05C155.56,-29.97 163.63,-28.87 171.65,-27.78"/>
<polygon fill="#63b8ff" stroke="#63b8ff" points="171.99,-31.27 181.42,-26.45 171.04,-24.33 171.99,-31.27"/>
</a>
</g>
</g>
</g>
</svg>
