<?xml version="1.0" encoding="UTF-8" standalone="no"?>
<!DOCTYPE svg PUBLIC "-//W3C//DTD SVG 1.1//EN"
 "http://www.w3.org/Graphics/SVG/1.1/DTD/svg11.dtd">
<!-- Generated by graphviz version 12.1.2 (20240928.0832)
 -->
<!-- Title: CodeSmile.Statemachine.Netcode.Conditions.IsNetcodeRole Pages: 1 -->
<svg width="171pt" height="476pt"
 viewBox="0.00 0.00 171.00 476.00" xmlns="http://www.w3.org/2000/svg" xmlns:xlink="http://www.w3.org/1999/xlink">
<g id="graph0" class="graph" transform="scale(1 1) rotate(0) translate(4 472)">
<title>CodeSmile.Statemachine.Netcode.Conditions.IsNetcodeRole</title>
<!-- Node1 -->
<g id="Node000001" class="node">
<title>Node1</title>
<g id="a_Node000001"><a xlink:title="Tests if the config variable&#39;s NetcodeRole matches the parameter.">
<polygon fill="#999999" stroke="none" points="163,-228 0,-228 0,-132 163,-132 163,-228"/>
<text text-anchor="start" x="4.62" y="-214.5" font-family="Helvetica,sans-Serif" font-size="10.00">CodeSmile.Statemachine.Netcode.</text>
<text text-anchor="start" x="24.12" y="-202.5" font-family="Helvetica,sans-Serif" font-size="10.00">Conditions.IsNetcodeRole</text>
<text text-anchor="start" x="22.88" y="-186.5" font-family="Helvetica,sans-Serif" font-size="10.00">#</text>
<text text-anchor="start" x="51" y="-186.5" font-family="Helvetica,sans-Serif" font-size="10.00">m_Role</text>
<text text-anchor="start" x="22.5" y="-170.5" font-family="Helvetica,sans-Serif" font-size="10.00">+</text>
<text text-anchor="start" x="51" y="-170.5" font-family="Helvetica,sans-Serif" font-size="10.00">IsNetcodeRole()</text>
<text text-anchor="start" x="22.5" y="-154.5" font-family="Helvetica,sans-Serif" font-size="10.00">+</text>
<text text-anchor="start" x="51" y="-154.5" font-family="Helvetica,sans-Serif" font-size="10.00">IsSatisfied()</text>
<text text-anchor="start" x="22.5" y="-138.5" font-family="Helvetica,sans-Serif" font-size="10.00">+</text>
<text text-anchor="start" x="51" y="-138.5" font-family="Helvetica,sans-Serif" font-size="10.00">ToDebugString()</text>
<polygon fill="#666666" stroke="#666666" points="0,-198 0,-198 163,-198 163,-198 0,-198"/>
<polygon fill="#666666" stroke="#666666" points="0,-182 0,-182 49,-182 49,-182 0,-182"/>
<polygon fill="#666666" stroke="#666666" points="49,-182 49,-182 163,-182 163,-182 49,-182"/>
<polygon fill="none" stroke="#666666" points="0,-132 0,-228 163,-228 163,-132 0,-132"/>
</a>
</g>
</g>
<!-- Node4 -->
<g id="Node000004" class="node">
<title>Node4</title>
<g id="a_Node000004"><a xlink:href="class_code_smile_1_1_statemachine_1_1_netcode_1_1_conditions_1_1_is_not_netcode_role.html" target="_top" xlink:title="Is true if the Netcode variable&#39;s role does not match the parameter.">
<polygon fill="white" stroke="none" points="163,-96 0,-96 0,0 163,0 163,-96"/>
<text text-anchor="start" x="4.62" y="-82.5" font-family="Helvetica,sans-Serif" font-size="10.00">CodeSmile.Statemachine.Netcode.</text>
<text text-anchor="start" x="16.25" y="-70.5" font-family="Helvetica,sans-Serif" font-size="10.00">Conditions.IsNotNetcodeRole</text>
<text text-anchor="start" x="80" y="-54.5" font-family="Helvetica,sans-Serif" font-size="10.00"> </text>
<text text-anchor="start" x="18.5" y="-38.5" font-family="Helvetica,sans-Serif" font-size="10.00">+</text>
<text text-anchor="start" x="43" y="-38.5" font-family="Helvetica,sans-Serif" font-size="10.00">IsNotNetcodeRole()</text>
<text text-anchor="start" x="18.5" y="-22.5" font-family="Helvetica,sans-Serif" font-size="10.00">+</text>
<text text-anchor="start" x="43" y="-22.5" font-family="Helvetica,sans-Serif" font-size="10.00">IsSatisfied()</text>
<text text-anchor="start" x="18.5" y="-6.5" font-family="Helvetica,sans-Serif" font-size="10.00">+</text>
<text text-anchor="start" x="43" y="-6.5" font-family="Helvetica,sans-Serif" font-size="10.00">ToDebugString()</text>
<polygon fill="#666666" stroke="#666666" points="0,-66 0,-66 163,-66 163,-66 0,-66"/>
<polygon fill="#666666" stroke="#666666" points="0,-50 0,-50 163,-50 163,-50 0,-50"/>
<polygon fill="none" stroke="#666666" points="0,0 0,-96 163,-96 163,0 0,0"/>
</a>
</g>
</g>
<!-- Node1&#45;&gt;Node4 -->
<g id="edge3_Node000001_Node000004" class="edge">
<title>Node1&#45;&gt;Node4</title>
<g id="a_edge3_Node000001_Node000004"><a xlink:title=" ">
<path fill="none" stroke="#63b8ff" d="M81.5,-120.82C81.5,-112.47 81.5,-103.96 81.5,-95.86"/>
<polygon fill="none" stroke="#63b8ff" points="78,-120.55 81.5,-130.55 85,-120.55 78,-120.55"/>
</a>
</g>
</g>
<!-- Node2 -->
<g id="Node000002" class="node">
<title>Node2</title>
<g id="a_Node000002"><a xlink:href="interface_code_smile_1_1_statemachine_1_1_i_condition.html" target="_top" xlink:title="Marks a class as a FSM Condition.">
<polygon fill="white" stroke="none" points="125.5,-332 37.5,-332 37.5,-264 125.5,-264 125.5,-332"/>
<text text-anchor="start" x="59.38" y="-318.5" font-family="Helvetica,sans-Serif" font-size="10.00">ICondition</text>
<text text-anchor="start" x="80" y="-302.5" font-family="Helvetica,sans-Serif" font-size="10.00"> </text>
<text text-anchor="start" x="41.5" y="-286.5" font-family="Helvetica,sans-Serif" font-size="10.00">+</text>
<text text-anchor="start" x="51.5" y="-286.5" font-family="Helvetica,sans-Serif" font-size="10.00">IsSatisfied()</text>
<text text-anchor="start" x="41.5" y="-270.5" font-family="Helvetica,sans-Serif" font-size="10.00">+</text>
<text text-anchor="start" x="51.5" y="-270.5" font-family="Helvetica,sans-Serif" font-size="10.00">ToDebugString()</text>
<polygon fill="#666666" stroke="#666666" points="37.5,-314 37.5,-314 125.5,-314 125.5,-314 37.5,-314"/>
<polygon fill="#666666" stroke="#666666" points="37.5,-298 37.5,-298 125.5,-298 125.5,-298 37.5,-298"/>
<polygon fill="none" stroke="#666666" points="37.5,-264 37.5,-332 125.5,-332 125.5,-264 37.5,-264"/>
</a>
</g>
</g>
<!-- Node2&#45;&gt;Node1 -->
<g id="edge1_Node000001_Node000002" class="edge">
<title>Node2&#45;&gt;Node1</title>
<g id="a_edge1_Node000001_Node000002"><a xlink:title=" ">
<path fill="none" stroke="#63b8ff" d="M81.5,-252.57C81.5,-244.48 81.5,-236.02 81.5,-227.87"/>
<polygon fill="none" stroke="#63b8ff" points="78,-252.56 81.5,-262.56 85,-252.56 78,-252.56"/>
</a>
</g>
</g>
<!-- Node3 -->
<g id="Node000003" class="node">
<title>Node3</title>
<g id="a_Node000003"><a xlink:href="interface_code_smile_1_1_statemachine_1_1_i_statemachine_events.html" target="_top" xlink:title="Event methods that the Statemachine calls at specific times.">
<polygon fill="white" stroke="none" points="133,-468 30,-468 30,-368 133,-368 133,-468"/>
<text text-anchor="start" x="34.62" y="-454.5" font-family="Helvetica,sans-Serif" font-size="10.00">IStatemachineEvents</text>
<text text-anchor="start" x="80" y="-438.5" font-family="Helvetica,sans-Serif" font-size="10.00"> </text>
<text text-anchor="start" x="39" y="-422.5" font-family="Helvetica,sans-Serif" font-size="10.00">+</text>
<text text-anchor="start" x="54" y="-422.5" font-family="Helvetica,sans-Serif" font-size="10.00">OnStart()</text>
<text text-anchor="start" x="39" y="-406.5" font-family="Helvetica,sans-Serif" font-size="10.00">+</text>
<text text-anchor="start" x="54" y="-406.5" font-family="Helvetica,sans-Serif" font-size="10.00">OnStop()</text>
<text text-anchor="start" x="39" y="-390.5" font-family="Helvetica,sans-Serif" font-size="10.00">+</text>
<text text-anchor="start" x="54" y="-390.5" font-family="Helvetica,sans-Serif" font-size="10.00">OnEnterState()</text>
<text text-anchor="start" x="39" y="-374.5" font-family="Helvetica,sans-Serif" font-size="10.00">+</text>
<text text-anchor="start" x="54" y="-374.5" font-family="Helvetica,sans-Serif" font-size="10.00">OnExitState()</text>
<polygon fill="#666666" stroke="#666666" points="30,-450 30,-450 133,-450 133,-450 30,-450"/>
<polygon fill="#666666" stroke="#666666" points="30,-434 30,-434 133,-434 133,-434 30,-434"/>
<polygon fill="none" stroke="#666666" points="30,-368 30,-468 133,-468 133,-368 30,-368"/>
</a>
</g>
</g>
<!-- Node3&#45;&gt;Node2 -->
<g id="edge2_Node000002_Node000003" class="edge">
<title>Node3&#45;&gt;Node2</title>
<g id="a_edge2_Node000002_Node000003"><a xlink:title=" ">
<path fill="none" stroke="#63b8ff" d="M81.5,-356.96C81.5,-348.28 81.5,-339.62 81.5,-331.75"/>
<polygon fill="none" stroke="#63b8ff" points="78,-356.81 81.5,-366.81 85,-356.81 78,-356.81"/>
</a>
</g>
</g>
</g>
</svg>
