<?xml version="1.0" encoding="UTF-8" standalone="no"?>
<!DOCTYPE svg PUBLIC "-//W3C//DTD SVG 1.1//EN"
 "http://www.w3.org/Graphics/SVG/1.1/DTD/svg11.dtd">
<!-- Generated by graphviz version 12.1.2 (20240928.0832)
 -->
<!-- Title: CodeSmile.Statemachine.IntVar Pages: 1 -->
<svg width="212pt" height="548pt"
 viewBox="0.00 0.00 212.00 548.00" xmlns="http://www.w3.org/2000/svg" xmlns:xlink="http://www.w3.org/1999/xlink">
<g id="graph0" class="graph" transform="scale(1 1) rotate(0) translate(4 544)">
<title>CodeSmile.Statemachine.IntVar</title>
<!-- Node1 -->
<g id="Node000001" class="node">
<title>Node1</title>
<g id="a_Node000001"><a xlink:title="Represents an integer FSM variable.">
<polygon fill="#999999" stroke="none" points="172.5,-260 23.5,-260 23.5,0 172.5,0 172.5,-260"/>
<text text-anchor="start" x="28.25" y="-246.5" font-family="Helvetica,sans-Serif" font-size="10.00">CodeSmile.Statemachine.IntVar</text>
<text text-anchor="start" x="43" y="-230.5" font-family="Helvetica,sans-Serif" font-size="10.00">+</text>
<text text-anchor="start" x="68.5" y="-230.5" font-family="Helvetica,sans-Serif" font-size="10.00">Value</text>
<text text-anchor="start" x="43" y="-214.5" font-family="Helvetica,sans-Serif" font-size="10.00">+</text>
<text text-anchor="start" x="68.5" y="-214.5" font-family="Helvetica,sans-Serif" font-size="10.00">IntVar()</text>
<text text-anchor="start" x="43" y="-198.5" font-family="Helvetica,sans-Serif" font-size="10.00">+</text>
<text text-anchor="start" x="68.5" y="-198.5" font-family="Helvetica,sans-Serif" font-size="10.00">Equals()</text>
<text text-anchor="start" x="43" y="-182.5" font-family="Helvetica,sans-Serif" font-size="10.00">+</text>
<text text-anchor="start" x="68.5" y="-182.5" font-family="Helvetica,sans-Serif" font-size="10.00">Equals()</text>
<text text-anchor="start" x="43" y="-166.5" font-family="Helvetica,sans-Serif" font-size="10.00">+</text>
<text text-anchor="start" x="68.5" y="-166.5" font-family="Helvetica,sans-Serif" font-size="10.00">GetHashCode()</text>
<text text-anchor="start" x="43" y="-150.5" font-family="Helvetica,sans-Serif" font-size="10.00">+</text>
<text text-anchor="start" x="68.5" y="-150.5" font-family="Helvetica,sans-Serif" font-size="10.00">ToString()</text>
<text text-anchor="start" x="43" y="-134.5" font-family="Helvetica,sans-Serif" font-size="10.00">+</text>
<text text-anchor="start" x="68.5" y="-134.5" font-family="Helvetica,sans-Serif" font-size="10.00">SetValue()</text>
<text text-anchor="start" x="43" y="-118.5" font-family="Helvetica,sans-Serif" font-size="10.00">+</text>
<text text-anchor="start" x="68.5" y="-118.5" font-family="Helvetica,sans-Serif" font-size="10.00">AddValue()</text>
<text text-anchor="start" x="43" y="-102.5" font-family="Helvetica,sans-Serif" font-size="10.00">+</text>
<text text-anchor="start" x="68.5" y="-102.5" font-family="Helvetica,sans-Serif" font-size="10.00">SubtractValue()</text>
<text text-anchor="start" x="43" y="-86.5" font-family="Helvetica,sans-Serif" font-size="10.00">+</text>
<text text-anchor="start" x="68.5" y="-86.5" font-family="Helvetica,sans-Serif" font-size="10.00">MultiplyValue()</text>
<text text-anchor="start" x="43" y="-70.5" font-family="Helvetica,sans-Serif" font-size="10.00">+</text>
<text text-anchor="start" x="68.5" y="-70.5" font-family="Helvetica,sans-Serif" font-size="10.00">DivideValue()</text>
<text text-anchor="start" x="43" y="-54.5" font-family="Helvetica,sans-Serif" font-size="10.00">+</text>
<text text-anchor="start" x="68.5" y="-54.5" font-family="Helvetica,sans-Serif" font-size="10.00">operator&lt;()</text>
<text text-anchor="start" x="43" y="-38.5" font-family="Helvetica,sans-Serif" font-size="10.00">+</text>
<text text-anchor="start" x="68.5" y="-38.5" font-family="Helvetica,sans-Serif" font-size="10.00">operator&gt;()</text>
<text text-anchor="start" x="43" y="-22.5" font-family="Helvetica,sans-Serif" font-size="10.00">+</text>
<text text-anchor="start" x="68.5" y="-22.5" font-family="Helvetica,sans-Serif" font-size="10.00">operator&lt;=()</text>
<text text-anchor="start" x="43" y="-6.5" font-family="Helvetica,sans-Serif" font-size="10.00">+</text>
<text text-anchor="start" x="68.5" y="-6.5" font-family="Helvetica,sans-Serif" font-size="10.00">operator&gt;=()</text>
<polygon fill="#666666" stroke="#666666" points="23.5,-242 23.5,-242 172.5,-242 172.5,-242 23.5,-242"/>
<polygon fill="#666666" stroke="#666666" points="23.5,-226 23.5,-226 66.5,-226 66.5,-226 23.5,-226"/>
<polygon fill="#666666" stroke="#666666" points="66.5,-226 66.5,-226 172.5,-226 172.5,-226 66.5,-226"/>
<polygon fill="none" stroke="#666666" points="23.5,0 23.5,-260 172.5,-260 172.5,0 23.5,0"/>
</a>
</g>
</g>
<!-- Node2 -->
<g id="Node000002" class="node">
<title>Node2</title>
<g id="a_Node000002"><a xlink:href="class_code_smile_1_1_statemachine_1_1_variable_base.html" target="_top" xlink:title="Base class for all FSM variables.">
<polygon fill="white" stroke="none" points="86,-540 0,-540 0,-296 86,-296 86,-540"/>
<text text-anchor="start" x="14.5" y="-526.5" font-family="Helvetica,sans-Serif" font-size="10.00">VariableBase</text>
<text text-anchor="start" x="41.5" y="-510.5" font-family="Helvetica,sans-Serif" font-size="10.00"> </text>
<text text-anchor="start" x="4" y="-494.5" font-family="Helvetica,sans-Serif" font-size="10.00">+</text>
<text text-anchor="start" x="14" y="-494.5" font-family="Helvetica,sans-Serif" font-size="10.00">Equals()</text>
<text text-anchor="start" x="4" y="-478.5" font-family="Helvetica,sans-Serif" font-size="10.00">+</text>
<text text-anchor="start" x="14" y="-478.5" font-family="Helvetica,sans-Serif" font-size="10.00">GetHashCode()</text>
<text text-anchor="start" x="4" y="-462.5" font-family="Helvetica,sans-Serif" font-size="10.00">+</text>
<text text-anchor="start" x="14" y="-462.5" font-family="Helvetica,sans-Serif" font-size="10.00">SetValue()</text>
<text text-anchor="start" x="4" y="-446.5" font-family="Helvetica,sans-Serif" font-size="10.00">+</text>
<text text-anchor="start" x="14" y="-446.5" font-family="Helvetica,sans-Serif" font-size="10.00">AddValue()</text>
<text text-anchor="start" x="4" y="-430.5" font-family="Helvetica,sans-Serif" font-size="10.00">+</text>
<text text-anchor="start" x="14" y="-430.5" font-family="Helvetica,sans-Serif" font-size="10.00">SubtractValue()</text>
<text text-anchor="start" x="4" y="-414.5" font-family="Helvetica,sans-Serif" font-size="10.00">+</text>
<text text-anchor="start" x="14" y="-414.5" font-family="Helvetica,sans-Serif" font-size="10.00">MultiplyValue()</text>
<text text-anchor="start" x="4" y="-398.5" font-family="Helvetica,sans-Serif" font-size="10.00">+</text>
<text text-anchor="start" x="14" y="-398.5" font-family="Helvetica,sans-Serif" font-size="10.00">DivideValue()</text>
<text text-anchor="start" x="4" y="-382.5" font-family="Helvetica,sans-Serif" font-size="10.00">+</text>
<text text-anchor="start" x="14" y="-382.5" font-family="Helvetica,sans-Serif" font-size="10.00">operator==()</text>
<text text-anchor="start" x="4" y="-366.5" font-family="Helvetica,sans-Serif" font-size="10.00">+</text>
<text text-anchor="start" x="14" y="-366.5" font-family="Helvetica,sans-Serif" font-size="10.00">operator!=()</text>
<text text-anchor="start" x="4" y="-350.5" font-family="Helvetica,sans-Serif" font-size="10.00">+</text>
<text text-anchor="start" x="14" y="-350.5" font-family="Helvetica,sans-Serif" font-size="10.00">operator&lt;()</text>
<text text-anchor="start" x="4" y="-334.5" font-family="Helvetica,sans-Serif" font-size="10.00">+</text>
<text text-anchor="start" x="14" y="-334.5" font-family="Helvetica,sans-Serif" font-size="10.00">operator&gt;()</text>
<text text-anchor="start" x="4" y="-318.5" font-family="Helvetica,sans-Serif" font-size="10.00">+</text>
<text text-anchor="start" x="14" y="-318.5" font-family="Helvetica,sans-Serif" font-size="10.00">operator&lt;=()</text>
<text text-anchor="start" x="4" y="-302.5" font-family="Helvetica,sans-Serif" font-size="10.00">+</text>
<text text-anchor="start" x="14" y="-302.5" font-family="Helvetica,sans-Serif" font-size="10.00">operator&gt;=()</text>
<polygon fill="#666666" stroke="#666666" points="0,-522 0,-522 86,-522 86,-522 0,-522"/>
<polygon fill="#666666" stroke="#666666" points="0,-506 0,-506 86,-506 86,-506 0,-506"/>
<polygon fill="none" stroke="#666666" points="0,-296 0,-540 86,-540 86,-296 0,-296"/>
</a>
</g>
</g>
<!-- Node2&#45;&gt;Node1 -->
<g id="edge1_Node000001_Node000002" class="edge">
<title>Node2&#45;&gt;Node1</title>
<g id="a_edge1_Node000001_Node000002"><a xlink:title=" ">
<path fill="none" stroke="#63b8ff" d="M68.37,-285.07C70,-276.62 71.63,-268.13 73.25,-259.7"/>
<polygon fill="none" stroke="#63b8ff" points="64.98,-284.16 66.53,-294.64 71.86,-285.48 64.98,-284.16"/>
</a>
</g>
</g>
<!-- Node3 -->
<g id="Node000003" class="node">
<title>Node3</title>
<g id="a_Node000003"><a xlink:href="class_i_equatable.html" target="_top" xlink:title=" ">
<polygon fill="white" stroke="none" points="204,-444 104,-444 104,-392 204,-392 204,-444"/>
<text text-anchor="start" x="109" y="-430.5" font-family="Helvetica,sans-Serif" font-size="10.00">IEquatable&lt; IntVar &gt;</text>
<text text-anchor="start" x="152.5" y="-414.5" font-family="Helvetica,sans-Serif" font-size="10.00"> </text>
<text text-anchor="start" x="152.5" y="-398.5" font-family="Helvetica,sans-Serif" font-size="10.00"> </text>
<polygon fill="#666666" stroke="#666666" points="104,-426 104,-426 204,-426 204,-426 104,-426"/>
<polygon fill="#666666" stroke="#666666" points="104,-410 104,-410 204,-410 204,-410 104,-410"/>
<polygon fill="none" stroke="#666666" points="104,-392 104,-444 204,-444 204,-392 104,-392"/>
</a>
</g>
</g>
<!-- Node3&#45;&gt;Node1 -->
<g id="edge2_Node000001_Node000003" class="edge">
<title>Node3&#45;&gt;Node1</title>
<g id="a_edge2_Node000001_Node000003"><a xlink:title=" ">
<path fill="none" stroke="#63b8ff" d="M146.98,-381.13C140.95,-350.38 131.9,-304.13 123.21,-259.74"/>
<polygon fill="none" stroke="#63b8ff" points="143.48,-381.49 148.84,-390.63 150.35,-380.15 143.48,-381.49"/>
</a>
</g>
</g>
</g>
</svg>
