<?xml version="1.0" encoding="UTF-8" standalone="no"?>
<!DOCTYPE svg PUBLIC "-//W3C//DTD SVG 1.1//EN"
 "http://www.w3.org/Graphics/SVG/1.1/DTD/svg11.dtd">
<!-- Generated by graphviz version 12.1.2 (20240928.0832)
 -->
<!-- Title: CodeSmile.Statemachine.Variable.Actions.DecValue Pages: 1 -->
<svg width="169pt" height="328pt"
 viewBox="0.00 0.00 169.00 328.00" xmlns="http://www.w3.org/2000/svg" xmlns:xlink="http://www.w3.org/1999/xlink">

<svg id="main" version="1.1" xmlns="http://www.w3.org/2000/svg" xmlns:xlink="http://www.w3.org/1999/xlink" xml:space="preserve">

<style type="text/css"><![CDATA[
.node, .edge {opacity: 0.7;}
.node.selected, .edge.selected {opacity: 1;}
.edge:hover path { stroke: red; }
.edge:hover polygon { stroke: red; fill: red; }
]]></style>
<script type="application/ecmascript" xlink:href="svg.min.js"/>
<svg id="graph" class="graph">
<g id="graph0" class="graph" transform="scale(1 1) rotate(0) translate(4 324)">
<title>CodeSmile.Statemachine.Variable.Actions.DecValue</title>
<!-- Node1 -->
<g id="Node000001" class="node">
<title>Node1</title>
<g id="a_Node000001"><a xlink:title="Decrements an integer variable by 1.">
<polygon fill="#999999" stroke="none" points="161,-80 0,-80 0,0 161,0 161,-80"/>
<text text-anchor="start" x="4.75" y="-66.5" font-family="Helvetica,sans-Serif" font-size="10.00">CodeSmile.Statemachine.Variable.</text>
<text text-anchor="start" x="41.5" y="-54.5" font-family="Helvetica,sans-Serif" font-size="10.00">Actions.DecValue</text>
<text text-anchor="start" x="79" y="-38.5" font-family="Helvetica,sans-Serif" font-size="10.00"> </text>
<text text-anchor="start" x="22" y="-22.5" font-family="Helvetica,sans-Serif" font-size="10.00">+</text>
<text text-anchor="start" x="50" y="-22.5" font-family="Helvetica,sans-Serif" font-size="10.00">Execute()</text>
<text text-anchor="start" x="22" y="-6.5" font-family="Helvetica,sans-Serif" font-size="10.00">+</text>
<text text-anchor="start" x="50" y="-6.5" font-family="Helvetica,sans-Serif" font-size="10.00">ToDebugString()</text>
<polygon fill="#666666" stroke="#666666" points="0,-50 0,-50 161,-50 161,-50 0,-50"/>
<polygon fill="#666666" stroke="#666666" points="0,-34 0,-34 161,-34 161,-34 0,-34"/>
<polygon fill="none" stroke="#666666" points="0,0 0,-80 161,-80 161,0 0,0"/>
</a>
</g>
</g>
<!-- Node2 -->
<g id="Node000002" class="node">
<title>Node2</title>
<g id="a_Node000002"><a xlink:href="interface_code_smile_1_1_statemachine_1_1_i_action.html" target="_top" xlink:title="Marks a class as a FSM Action.">
<polygon fill="white" stroke="none" points="124.5,-184 36.5,-184 36.5,-116 124.5,-116 124.5,-184"/>
<text text-anchor="start" x="65.12" y="-170.5" font-family="Helvetica,sans-Serif" font-size="10.00">IAction</text>
<text text-anchor="start" x="79" y="-154.5" font-family="Helvetica,sans-Serif" font-size="10.00"> </text>
<text text-anchor="start" x="40.5" y="-138.5" font-family="Helvetica,sans-Serif" font-size="10.00">+</text>
<text text-anchor="start" x="50.5" y="-138.5" font-family="Helvetica,sans-Serif" font-size="10.00">Execute()</text>
<text text-anchor="start" x="40.5" y="-122.5" font-family="Helvetica,sans-Serif" font-size="10.00">+</text>
<text text-anchor="start" x="50.5" y="-122.5" font-family="Helvetica,sans-Serif" font-size="10.00">ToDebugString()</text>
<polygon fill="#666666" stroke="#666666" points="36.5,-166 36.5,-166 124.5,-166 124.5,-166 36.5,-166"/>
<polygon fill="#666666" stroke="#666666" points="36.5,-150 36.5,-150 124.5,-150 124.5,-150 36.5,-150"/>
<polygon fill="none" stroke="#666666" points="36.5,-116 36.5,-184 124.5,-184 124.5,-116 36.5,-116"/>
</a>
</g>
</g>
<!-- Node2&#45;&gt;Node1 -->
<g id="edge1_Node000001_Node000002" class="edge">
<title>Node2&#45;&gt;Node1</title>
<g id="a_edge1_Node000001_Node000002"><a xlink:title=" ">
<path fill="none" stroke="#63b8ff" d="M80.5,-104.67C80.5,-96.44 80.5,-87.91 80.5,-79.86"/>
<polygon fill="none" stroke="#63b8ff" points="77,-104.5 80.5,-114.5 84,-104.5 77,-104.5"/>
</a>
</g>
</g>
<!-- Node3 -->
<g id="Node000003" class="node">
<title>Node3</title>
<g id="a_Node000003"><a xlink:href="interface_code_smile_1_1_statemachine_1_1_i_statemachine_events.html" target="_top" xlink:title="Event methods that the Statemachine calls at specific times.">
<polygon fill="white" stroke="none" points="132,-320 29,-320 29,-220 132,-220 132,-320"/>
<text text-anchor="start" x="33.62" y="-306.5" font-family="Helvetica,sans-Serif" font-size="10.00">IStatemachineEvents</text>
<text text-anchor="start" x="79" y="-290.5" font-family="Helvetica,sans-Serif" font-size="10.00"> </text>
<text text-anchor="start" x="38" y="-274.5" font-family="Helvetica,sans-Serif" font-size="10.00">+</text>
<text text-anchor="start" x="53" y="-274.5" font-family="Helvetica,sans-Serif" font-size="10.00">OnStart()</text>
<text text-anchor="start" x="38" y="-258.5" font-family="Helvetica,sans-Serif" font-size="10.00">+</text>
<text text-anchor="start" x="53" y="-258.5" font-family="Helvetica,sans-Serif" font-size="10.00">OnStop()</text>
<text text-anchor="start" x="38" y="-242.5" font-family="Helvetica,sans-Serif" font-size="10.00">+</text>
<text text-anchor="start" x="53" y="-242.5" font-family="Helvetica,sans-Serif" font-size="10.00">OnEnterState()</text>
<text text-anchor="start" x="38" y="-226.5" font-family="Helvetica,sans-Serif" font-size="10.00">+</text>
<text text-anchor="start" x="53" y="-226.5" font-family="Helvetica,sans-Serif" font-size="10.00">OnExitState()</text>
<polygon fill="#666666" stroke="#666666" points="29,-302 29,-302 132,-302 132,-302 29,-302"/>
<polygon fill="#666666" stroke="#666666" points="29,-286 29,-286 132,-286 132,-286 29,-286"/>
<polygon fill="none" stroke="#666666" points="29,-220 29,-320 132,-320 132,-220 29,-220"/>
</a>
</g>
</g>
<!-- Node3&#45;&gt;Node2 -->
<g id="edge2_Node000002_Node000003" class="edge">
<title>Node3&#45;&gt;Node2</title>
<g id="a_edge2_Node000002_Node000003"><a xlink:title=" ">
<path fill="none" stroke="#63b8ff" d="M80.5,-208.96C80.5,-200.28 80.5,-191.62 80.5,-183.75"/>
<polygon fill="none" stroke="#63b8ff" points="77,-208.81 80.5,-218.81 84,-208.81 77,-208.81"/>
</a>
</g>
</g>
</g>
</svg>
</svg>

<style type='text/css'>
<![CDATA[
[data-mouse-over-selected='false'] { opacity: 0.7; }
[data-mouse-over-selected='true']  { opacity: 1.0; }
]]>
</style>
<script type="application/ecmascript"><![CDATA[
document.addEventListener('DOMContentLoaded', (event) => {
  highlightEdges();
  highlightAdjacentNodes();
});
]]></script>
</svg>
