<?xml version="1.0" encoding="UTF-8" standalone="no"?>
<!DOCTYPE svg PUBLIC "-//W3C//DTD SVG 1.1//EN"
 "http://www.w3.org/Graphics/SVG/1.1/DTD/svg11.dtd">
<!-- Generated by graphviz version 12.1.2 (20240928.0832)
 -->
<!-- Title: PA1A.Items.Rarity Pages: 1 -->
<svg width="99pt" height="180pt"
 viewBox="0.00 0.00 99.00 180.00" xmlns="http://www.w3.org/2000/svg" xmlns:xlink="http://www.w3.org/1999/xlink">
<g id="graph0" class="graph" transform="scale(1 1) rotate(0) translate(4 176)">
<title>PA1A.Items.Rarity</title>
<!-- Node1 -->
<g id="Node000001" class="node">
<title>Node1</title>
<g id="a_Node000001"><a xlink:title="Represents the rarity of an item.">
<polygon fill="#999999" stroke="none" points="91,-84 0,-84 0,0 91,0 91,-84"/>
<text text-anchor="start" x="4.62" y="-70.5" font-family="Helvetica,sans-Serif" font-size="10.00">PA1A.Items.Rarity</text>
<text text-anchor="start" x="5.5" y="-54.5" font-family="Helvetica,sans-Serif" font-size="10.00">+</text>
<text text-anchor="start" x="17" y="-54.5" font-family="Helvetica,sans-Serif" font-size="10.00">Name</text>
<text text-anchor="start" x="5.5" y="-38.5" font-family="Helvetica,sans-Serif" font-size="10.00">+</text>
<text text-anchor="start" x="17" y="-38.5" font-family="Helvetica,sans-Serif" font-size="10.00">TextColor</text>
<text text-anchor="start" x="5.5" y="-22.5" font-family="Helvetica,sans-Serif" font-size="10.00">+</text>
<text text-anchor="start" x="17" y="-22.5" font-family="Helvetica,sans-Serif" font-size="10.00">ValueMultiplyer</text>
<text text-anchor="start" x="44" y="-6.5" font-family="Helvetica,sans-Serif" font-size="10.00"> </text>
<polygon fill="#666666" stroke="#666666" points="0,-66 0,-66 91,-66 91,-66 0,-66"/>
<polygon fill="#666666" stroke="#666666" points="0,-18 0,-18 15,-18 15,-18 0,-18"/>
<polygon fill="#666666" stroke="#666666" points="15,-18 15,-18 91,-18 91,-18 15,-18"/>
<polygon fill="none" stroke="#666666" points="0,0 0,-84 91,-84 91,0 0,0"/>
</a>
</g>
</g>
<!-- Node2 -->
<g id="Node000002" class="node">
<title>Node2</title>
<g id="a_Node000002"><a xlink:href="class_scriptable_object.html" target="_top" xlink:title=" ">
<polygon fill="white" stroke="none" points="86.5,-172 4.5,-172 4.5,-120 86.5,-120 86.5,-172"/>
<text text-anchor="start" x="9.5" y="-158.5" font-family="Helvetica,sans-Serif" font-size="10.00">ScriptableObject</text>
<text text-anchor="start" x="44" y="-142.5" font-family="Helvetica,sans-Serif" font-size="10.00"> </text>
<text text-anchor="start" x="44" y="-126.5" font-family="Helvetica,sans-Serif" font-size="10.00"> </text>
<polygon fill="#666666" stroke="#666666" points="4.5,-154 4.5,-154 86.5,-154 86.5,-154 4.5,-154"/>
<polygon fill="#666666" stroke="#666666" points="4.5,-138 4.5,-138 86.5,-138 86.5,-138 4.5,-138"/>
<polygon fill="none" stroke="#666666" points="4.5,-120 4.5,-172 86.5,-172 86.5,-120 4.5,-120"/>
</a>
</g>
</g>
<!-- Node2&#45;&gt;Node1 -->
<g id="edge1_Node000001_Node000002" class="edge">
<title>Node2&#45;&gt;Node1</title>
<g id="a_edge1_Node000001_Node000002"><a xlink:title=" ">
<path fill="none" stroke="#63b8ff" d="M45.5,-108.77C45.5,-100.75 45.5,-92.19 45.5,-83.99"/>
<polygon fill="none" stroke="#63b8ff" points="42,-108.53 45.5,-118.53 49,-108.53 42,-108.53"/>
</a>
</g>
</g>
</g>
</svg>
