<?xml version="1.0" encoding="UTF-8" standalone="no"?>
<!DOCTYPE svg PUBLIC "-//W3C//DTD SVG 1.1//EN"
 "http://www.w3.org/Graphics/SVG/1.1/DTD/svg11.dtd">
<!-- Generated by graphviz version 12.1.2 (20240928.0832)
 -->
<!-- Title: PA1A.Building.PlacementSystem Pages: 1 -->
<svg width="163pt" height="180pt"
 viewBox="0.00 0.00 163.00 180.00" xmlns="http://www.w3.org/2000/svg" xmlns:xlink="http://www.w3.org/1999/xlink">
<g id="graph0" class="graph" transform="scale(1 1) rotate(0) translate(4 176)">
<title>PA1A.Building.PlacementSystem</title>
<!-- Node1 -->
<g id="Node000001" class="node">
<title>Node1</title>
<g id="a_Node000001"><a xlink:title="Manages the placement of buildings in the game.">
<polygon fill="#999999" stroke="none" points="155,-84 0,-84 0,0 155,0 155,-84"/>
<text text-anchor="start" x="4.75" y="-70.5" font-family="Helvetica,sans-Serif" font-size="10.00">PA1A.Building.PlacementSystem</text>
<text text-anchor="start" x="76" y="-54.5" font-family="Helvetica,sans-Serif" font-size="10.00"> </text>
<text text-anchor="start" x="20" y="-38.5" font-family="Helvetica,sans-Serif" font-size="10.00">+</text>
<text text-anchor="start" x="46" y="-38.5" font-family="Helvetica,sans-Serif" font-size="10.00">StopPlacement()</text>
<text text-anchor="start" x="20" y="-22.5" font-family="Helvetica,sans-Serif" font-size="10.00">+</text>
<text text-anchor="start" x="46" y="-22.5" font-family="Helvetica,sans-Serif" font-size="10.00">StartPlacement()</text>
<text text-anchor="start" x="20" y="-6.5" font-family="Helvetica,sans-Serif" font-size="10.00">+</text>
<text text-anchor="start" x="46" y="-6.5" font-family="Helvetica,sans-Serif" font-size="10.00">StartRemoving()</text>
<polygon fill="#666666" stroke="#666666" points="0,-66 0,-66 155,-66 155,-66 0,-66"/>
<polygon fill="#666666" stroke="#666666" points="0,-50 0,-50 155,-50 155,-50 0,-50"/>
<polygon fill="none" stroke="#666666" points="0,0 0,-84 155,-84 155,0 0,0"/>
</a>
</g>
</g>
<!-- Node2 -->
<g id="Node000002" class="node">
<title>Node2</title>
<g id="a_Node000002"><a xlink:href="class_mono_behaviour.html" target="_top" xlink:title=" ">
<polygon fill="white" stroke="none" points="116,-172 39,-172 39,-120 116,-120 116,-172"/>
<text text-anchor="start" x="43.75" y="-158.5" font-family="Helvetica,sans-Serif" font-size="10.00">MonoBehaviour</text>
<text text-anchor="start" x="76" y="-142.5" font-family="Helvetica,sans-Serif" font-size="10.00"> </text>
<text text-anchor="start" x="76" y="-126.5" font-family="Helvetica,sans-Serif" font-size="10.00"> </text>
<polygon fill="#666666" stroke="#666666" points="39,-154 39,-154 116,-154 116,-154 39,-154"/>
<polygon fill="#666666" stroke="#666666" points="39,-138 39,-138 116,-138 116,-138 39,-138"/>
<polygon fill="none" stroke="#666666" points="39,-120 39,-172 116,-172 116,-120 39,-120"/>
</a>
</g>
</g>
<!-- Node2&#45;&gt;Node1 -->
<g id="edge1_Node000001_Node000002" class="edge">
<title>Node2&#45;&gt;Node1</title>
<g id="a_edge1_Node000001_Node000002"><a xlink:title=" ">
<path fill="none" stroke="#63b8ff" d="M77.5,-108.77C77.5,-100.75 77.5,-92.19 77.5,-83.99"/>
<polygon fill="none" stroke="#63b8ff" points="74,-108.53 77.5,-118.53 81,-108.53 74,-108.53"/>
</a>
</g>
</g>
</g>
</svg>
