<?xml version="1.0" encoding="UTF-8" standalone="no"?>
<!DOCTYPE svg PUBLIC "-//W3C//DTD SVG 1.1//EN"
 "http://www.w3.org/Graphics/SVG/1.1/DTD/svg11.dtd">
<!-- Generated by graphviz version 12.1.2 (20240928.0832)
 -->
<!-- Title: PA1A.Items.Container.AddSlot Pages: 1 -->
<svg width="385pt" height="128pt"
 viewBox="0.00 0.00 385.00 128.00" xmlns="http://www.w3.org/2000/svg" xmlns:xlink="http://www.w3.org/1999/xlink">
<g id="graph0" class="graph" transform="scale(1 1) rotate(0) translate(4 124)">
<title>PA1A.Items.Container.AddSlot</title>
<!-- Node1 -->
<g id="Node000001" class="node">
<title>Node1</title>
<g id="a_Node000001"><a xlink:title="Adds the specified ISlot to the Container">
<polygon fill="#999999" stroke="#666666" points="377,-76 226,-76 226,-56 377,-56 377,-76"/>
<text text-anchor="middle" x="301.5" y="-62.5" font-family="Helvetica,sans-Serif" font-size="10.00">PA1A.Items.Container.AddSlot</text>
</a>
</g>
</g>
<!-- Node2 -->
<g id="Node000002" class="node">
<title>Node2</title>
<g id="a_Node000002"><a xlink:href="class_p_a1_a_1_1_items_1_1_flexible_size_container.html#a332421f40986f665c3e8cd0efb8e289f" target="_top" xlink:title="Gives the specified ItemStack to the IStackContainer and substracts the given amount from the ItemSta...">
<polygon fill="white" stroke="#666666" points="190,-120 0,-120 0,-100 190,-100 190,-120"/>
<text text-anchor="middle" x="95" y="-106.5" font-family="Helvetica,sans-Serif" font-size="10.00">PA1A.Items.FlexibleSizeContainer.Give</text>
</a>
</g>
</g>
<!-- Node1&#45;&gt;Node2 -->
<g id="edge1_Node000001_Node000002" class="edge">
<title>Node1&#45;&gt;Node2</title>
<g id="a_edge1_Node000001_Node000002"><a xlink:title=" ">
<path fill="none" stroke="#63b8ff" d="M244.27,-78.99C226.89,-82.93 207.67,-87.22 190,-91 176.65,-93.86 162.21,-96.84 148.74,-99.56"/>
<polygon fill="#63b8ff" stroke="#63b8ff" points="244.94,-82.42 253.92,-76.79 243.39,-75.6 244.94,-82.42"/>
</a>
</g>
</g>
<!-- Node3 -->
<g id="Node000003" class="node">
<title>Node3</title>
<g id="a_Node000003"><a xlink:href="class_p_a1_a_1_1_items_1_1_flexible_size_container.html#a79193821182a3c22b2bf23f32e79abad" target="_top" xlink:title=" ">
<polygon fill="white" stroke="#666666" points="179.88,-82 10.12,-82 10.12,-50 179.88,-50 179.88,-82"/>
<text text-anchor="start" x="18.12" y="-68.5" font-family="Helvetica,sans-Serif" font-size="10.00">PA1A.Items.FlexibleSizeContainer.</text>
<text text-anchor="middle" x="95" y="-56.5" font-family="Helvetica,sans-Serif" font-size="10.00">OnContainerUpdate</text>
</a>
</g>
</g>
<!-- Node1&#45;&gt;Node3 -->
<g id="edge2_Node000001_Node000003" class="edge">
<title>Node1&#45;&gt;Node3</title>
<g id="a_edge2_Node000001_Node000003"><a xlink:title=" ">
<path fill="none" stroke="#63b8ff" d="M214,-66C202.84,-66 191.43,-66 180.31,-66"/>
<polygon fill="#63b8ff" stroke="#63b8ff" points="214,-69.5 224,-66 214,-62.5 214,-69.5"/>
</a>
</g>
</g>
<!-- Node4 -->
<g id="Node000004" class="node">
<title>Node4</title>
<g id="a_Node000004"><a xlink:href="class_p_a1_a_1_1_items_1_1_player_inventory.html#a5b7a95a06020f588f0507f0140a409f7" target="_top" xlink:title=" ">
<polygon fill="white" stroke="#666666" points="166,-32 24,-32 24,0 166,0 166,-32"/>
<text text-anchor="start" x="32" y="-18.5" font-family="Helvetica,sans-Serif" font-size="10.00">PA1A.Items.PlayerInventory.</text>
<text text-anchor="middle" x="95" y="-6.5" font-family="Helvetica,sans-Serif" font-size="10.00">OnNetworkSpawn</text>
</a>
</g>
</g>
<!-- Node1&#45;&gt;Node4 -->
<g id="edge3_Node000001_Node000004" class="edge">
<title>Node1&#45;&gt;Node4</title>
<g id="a_edge3_Node000001_Node000004"><a xlink:title=" ">
<path fill="none" stroke="#63b8ff" d="M246.68,-52.84C221.16,-46.6 190.41,-39.08 163.37,-32.47"/>
<polygon fill="#63b8ff" stroke="#63b8ff" points="245.61,-56.18 256.16,-55.16 247.28,-49.38 245.61,-56.18"/>
</a>
</g>
</g>
</g>
</svg>
