<?xml version="1.0" encoding="UTF-8" standalone="no"?>
<!DOCTYPE svg PUBLIC "-//W3C//DTD SVG 1.1//EN"
 "http://www.w3.org/Graphics/SVG/1.1/DTD/svg11.dtd">
<!-- Generated by graphviz version 12.1.2 (20240928.0832)
 -->
<!-- Title: CodeSmile.MultiPal.Settings.PlayerCameraPrefabs Pages: 1 -->
<svg width="174pt" height="308pt"
 viewBox="0.00 0.00 173.50 308.00" xmlns="http://www.w3.org/2000/svg" xmlns:xlink="http://www.w3.org/1999/xlink">

<svg id="main" version="1.1" xmlns="http://www.w3.org/2000/svg" xmlns:xlink="http://www.w3.org/1999/xlink" xml:space="preserve">

<style type="text/css"><![CDATA[
.node, .edge {opacity: 0.7;}
.node.selected, .edge.selected {opacity: 1;}
.edge:hover path { stroke: red; }
.edge:hover polygon { stroke: red; fill: red; }
]]></style>
<script type="application/ecmascript" xlink:href="svg.min.js"/>
<svg id="graph" class="graph">
<g id="graph0" class="graph" transform="scale(1 1) rotate(0) translate(4 304)">
<title>CodeSmile.MultiPal.Settings.PlayerCameraPrefabs</title>
<!-- Node1 -->
<g id="Node000001" class="node">
<title>Node1</title>
<g id="a_Node000001"><a xlink:title=" ">
<polygon fill="#999999" stroke="none" points="155,-64 17,-64 17,0 155,0 155,-64"/>
<text text-anchor="start" x="21.88" y="-50.5" font-family="Helvetica,sans-Serif" font-size="10.00">CodeSmile.MultiPal.Settings.</text>
<text text-anchor="start" x="38" y="-38.5" font-family="Helvetica,sans-Serif" font-size="10.00">PlayerCameraPrefabs</text>
<text text-anchor="start" x="84.5" y="-22.5" font-family="Helvetica,sans-Serif" font-size="10.00"> </text>
<text text-anchor="start" x="84.5" y="-6.5" font-family="Helvetica,sans-Serif" font-size="10.00"> </text>
<polygon fill="#666666" stroke="#666666" points="17,-34 17,-34 155,-34 155,-34 17,-34"/>
<polygon fill="#666666" stroke="#666666" points="17,-18 17,-18 155,-18 155,-18 17,-18"/>
<polygon fill="none" stroke="#666666" points="17,0 17,-64 155,-64 155,0 17,0"/>
</a>
</g>
</g>
<!-- Node2 -->
<g id="Node000002" class="node">
<title>Node2</title>
<g id="a_Node000002"><a xlink:href="class_code_smile_1_1_multi_pal_1_1_settings_1_1_prefabs_list_base.html" target="_top" xlink:title=" ">
<polygon fill="white" stroke="none" points="165.5,-212 6.5,-212 6.5,-100 165.5,-100 165.5,-212"/>
<text text-anchor="start" x="50" y="-198.5" font-family="Helvetica,sans-Serif" font-size="10.00">PrefabsListBase</text>
<text text-anchor="start" x="10.5" y="-182.5" font-family="Helvetica,sans-Serif" font-size="10.00">+</text>
<text text-anchor="start" x="20.5" y="-182.5" font-family="Helvetica,sans-Serif" font-size="10.00">this[Int32 index]</text>
<text text-anchor="start" x="10.5" y="-166.5" font-family="Helvetica,sans-Serif" font-size="10.00">+</text>
<text text-anchor="start" x="20.5" y="-166.5" font-family="Helvetica,sans-Serif" font-size="10.00">Count</text>
<text text-anchor="start" x="10.88" y="-150.5" font-family="Helvetica,sans-Serif" font-size="10.00">#</text>
<text text-anchor="start" x="20.5" y="-150.5" font-family="Helvetica,sans-Serif" font-size="10.00">m_Prefabs</text>
<text text-anchor="start" x="10.5" y="-134.5" font-family="Helvetica,sans-Serif" font-size="10.00">+</text>
<text text-anchor="start" x="20.5" y="-134.5" font-family="Helvetica,sans-Serif" font-size="10.00">GetEnumerator()</text>
<text text-anchor="start" x="10.5" y="-118.5" font-family="Helvetica,sans-Serif" font-size="10.00">+</text>
<text text-anchor="start" x="20.5" y="-118.5" font-family="Helvetica,sans-Serif" font-size="10.00">ValidatePrefabsHaveComponent</text>
<text text-anchor="start" x="20.5" y="-106.5" font-family="Helvetica,sans-Serif" font-size="10.00">&lt; T &gt;()</text>
<polygon fill="#666666" stroke="#666666" points="6.5,-194 6.5,-194 165.5,-194 165.5,-194 6.5,-194"/>
<polygon fill="#666666" stroke="#666666" points="6.5,-146 6.5,-146 18.5,-146 18.5,-146 6.5,-146"/>
<polygon fill="#666666" stroke="#666666" points="18.5,-146 18.5,-146 165.5,-146 165.5,-146 18.5,-146"/>
<polygon fill="none" stroke="#666666" points="6.5,-100 6.5,-212 165.5,-212 165.5,-100 6.5,-100"/>
</a>
</g>
</g>
<!-- Node2&#45;&gt;Node1 -->
<g id="edge1_Node000001_Node000002" class="edge">
<title>Node2&#45;&gt;Node1</title>
<g id="a_edge1_Node000001_Node000002"><a xlink:title=" ">
<path fill="none" stroke="#63b8ff" d="M86,-88.7C86,-80.07 86,-71.59 86,-63.94"/>
<polygon fill="none" stroke="#63b8ff" points="82.5,-88.55 86,-98.55 89.5,-88.55 82.5,-88.55"/>
</a>
</g>
</g>
<!-- Node3 -->
<g id="Node000003" class="node">
<title>Node3</title>
<g id="a_Node000003"><a xlink:href="class_scriptable_object.html" target="_top" xlink:title=" ">
<polygon fill="white" stroke="none" points="82,-300 0,-300 0,-248 82,-248 82,-300"/>
<text text-anchor="start" x="5" y="-286.5" font-family="Helvetica,sans-Serif" font-size="10.00">ScriptableObject</text>
<text text-anchor="start" x="39.5" y="-270.5" font-family="Helvetica,sans-Serif" font-size="10.00"> </text>
<text text-anchor="start" x="39.5" y="-254.5" font-family="Helvetica,sans-Serif" font-size="10.00"> </text>
<polygon fill="#666666" stroke="#666666" points="0,-282 0,-282 82,-282 82,-282 0,-282"/>
<polygon fill="#666666" stroke="#666666" points="0,-266 0,-266 82,-266 82,-266 0,-266"/>
<polygon fill="none" stroke="#666666" points="0,-248 0,-300 82,-300 82,-248 0,-248"/>
</a>
</g>
</g>
<!-- Node3&#45;&gt;Node2 -->
<g id="edge2_Node000002_Node000003" class="edge">
<title>Node3&#45;&gt;Node2</title>
<g id="a_edge2_Node000002_Node000003"><a xlink:title=" ">
<path fill="none" stroke="#63b8ff" d="M54.75,-237.55C57.9,-229.43 61.33,-220.61 64.71,-211.88"/>
<polygon fill="none" stroke="#63b8ff" points="51.55,-236.12 51.2,-246.7 58.08,-238.65 51.55,-236.12"/>
</a>
</g>
</g>
<!-- Node4 -->
<g id="Node000004" class="node">
<title>Node4</title>
<g id="a_Node000004"><a xlink:href="class_i_enumerable.html" target="_top" xlink:title=" ">
<polygon fill="white" stroke="none" points="164,-300 100,-300 100,-248 164,-248 164,-300"/>
<text text-anchor="start" x="104.62" y="-286.5" font-family="Helvetica,sans-Serif" font-size="10.00">IEnumerable</text>
<text text-anchor="start" x="130.5" y="-270.5" font-family="Helvetica,sans-Serif" font-size="10.00"> </text>
<text text-anchor="start" x="130.5" y="-254.5" font-family="Helvetica,sans-Serif" font-size="10.00"> </text>
<polygon fill="#666666" stroke="#666666" points="100,-282 100,-282 164,-282 164,-282 100,-282"/>
<polygon fill="#666666" stroke="#666666" points="100,-266 100,-266 164,-266 164,-266 100,-266"/>
<polygon fill="none" stroke="#666666" points="100,-248 100,-300 164,-300 164,-248 100,-248"/>
</a>
</g>
</g>
<!-- Node4&#45;&gt;Node2 -->
<g id="edge3_Node000002_Node000004" class="edge">
<title>Node4&#45;&gt;Node2</title>
<g id="a_edge3_Node000002_Node000004"><a xlink:title=" ">
<path fill="none" stroke="#63b8ff" d="M117.94,-237.55C114.72,-229.43 111.22,-220.61 107.76,-211.88"/>
<polygon fill="none" stroke="#63b8ff" points="114.63,-238.7 121.57,-246.71 121.14,-236.12 114.63,-238.7"/>
</a>
</g>
</g>
</g>
</svg>
</svg>

<style type='text/css'>
<![CDATA[
[data-mouse-over-selected='false'] { opacity: 0.7; }
[data-mouse-over-selected='true']  { opacity: 1.0; }
]]>
</style>
<script type="application/ecmascript"><![CDATA[
document.addEventListener('DOMContentLoaded', (event) => {
  highlightEdges();
  highlightAdjacentNodes();
});
]]></script>
</svg>
