<?xml version="1.0" encoding="UTF-8" standalone="no"?>
<!DOCTYPE svg PUBLIC "-//W3C//DTD SVG 1.1//EN"
 "http://www.w3.org/Graphics/SVG/1.1/DTD/svg11.dtd">
<!-- Generated by graphviz version 12.1.2 (20240928.0832)
 -->
<!-- Title: NetworkBehaviour Pages: 1 -->
<svg width="1588pt" height="492pt"
 viewBox="0.00 0.00 1588.00 492.00" xmlns="http://www.w3.org/2000/svg" xmlns:xlink="http://www.w3.org/1999/xlink">
<g id="graph0" class="graph" transform="scale(1 1) rotate(0) translate(4 488)">
<title>NetworkBehaviour</title>
<!-- Node1 -->
<g id="Node000001" class="node">
<title>Node1</title>
<g id="a_Node000001"><a xlink:title=" ">
<polygon fill="#999999" stroke="none" points="818.5,-484 728.5,-484 728.5,-432 818.5,-432 818.5,-484"/>
<text text-anchor="start" x="733.38" y="-470.5" font-family="Helvetica,sans-Serif" font-size="10.00">NetworkBehaviour</text>
<text text-anchor="start" x="772" y="-454.5" font-family="Helvetica,sans-Serif" font-size="10.00"> </text>
<text text-anchor="start" x="772" y="-438.5" font-family="Helvetica,sans-Serif" font-size="10.00"> </text>
<polygon fill="#666666" stroke="#666666" points="728.5,-466 728.5,-466 818.5,-466 818.5,-466 728.5,-466"/>
<polygon fill="#666666" stroke="#666666" points="728.5,-450 728.5,-450 818.5,-450 818.5,-450 728.5,-450"/>
<polygon fill="none" stroke="#666666" points="728.5,-432 728.5,-484 818.5,-484 818.5,-432 728.5,-432"/>
</a>
</g>
</g>
<!-- Node2 -->
<g id="Node000002" class="node">
<title>Node2</title>
<g id="a_Node000002"><a xlink:href="class_code_smile_1_1_multi_pal_1_1_players_1_1_couch_1_1_couch_players.html" target="_top" xlink:title="Represents the group of players (1&#45;4) playing on a single client.">
<polygon fill="white" stroke="none" points="135,-346 0,-346 0,-186 135,-186 135,-346"/>
<text text-anchor="start" x="4.88" y="-332.5" font-family="Helvetica,sans-Serif" font-size="10.00">CodeSmile.MultiPal.Players.</text>
<text text-anchor="start" x="21" y="-320.5" font-family="Helvetica,sans-Serif" font-size="10.00">Couch.CouchPlayers</text>
<text text-anchor="start" x="9" y="-304.5" font-family="Helvetica,sans-Serif" font-size="10.00">+</text>
<text text-anchor="start" x="24" y="-304.5" font-family="Helvetica,sans-Serif" font-size="10.00">this[Int32 index]</text>
<text text-anchor="start" x="9" y="-288.5" font-family="Helvetica,sans-Serif" font-size="10.00">+</text>
<text text-anchor="start" x="24" y="-288.5" font-family="Helvetica,sans-Serif" font-size="10.00">PlayerCount</text>
<text text-anchor="start" x="9" y="-272.5" font-family="Helvetica,sans-Serif" font-size="10.00">+</text>
<text text-anchor="start" x="24" y="-272.5" font-family="Helvetica,sans-Serif" font-size="10.00">GetEnumerator()</text>
<text text-anchor="start" x="9" y="-256.5" font-family="Helvetica,sans-Serif" font-size="10.00">+</text>
<text text-anchor="start" x="24" y="-256.5" font-family="Helvetica,sans-Serif" font-size="10.00">OnNetworkSpawn()</text>
<text text-anchor="start" x="9" y="-240.5" font-family="Helvetica,sans-Serif" font-size="10.00">+</text>
<text text-anchor="start" x="24" y="-240.5" font-family="Helvetica,sans-Serif" font-size="10.00">OnNetworkDespawn()</text>
<text text-anchor="start" x="9" y="-224.5" font-family="Helvetica,sans-Serif" font-size="10.00">+</text>
<text text-anchor="start" x="24" y="-224.5" font-family="Helvetica,sans-Serif" font-size="10.00">StartSpawnPlayers()</text>
<text text-anchor="start" x="9" y="-208.5" font-family="Helvetica,sans-Serif" font-size="10.00">~</text>
<text text-anchor="start" x="24" y="-208.5" font-family="Helvetica,sans-Serif" font-size="10.00">RemotePlayerJoined()</text>
<text text-anchor="start" x="9" y="-192.5" font-family="Helvetica,sans-Serif" font-size="10.00">~</text>
<text text-anchor="start" x="24" y="-192.5" font-family="Helvetica,sans-Serif" font-size="10.00">RemotePlayerLeft()</text>
<polygon fill="#666666" stroke="#666666" points="0,-316 0,-316 135,-316 135,-316 0,-316"/>
<polygon fill="#666666" stroke="#666666" points="0,-284 0,-284 22,-284 22,-284 0,-284"/>
<polygon fill="#666666" stroke="#666666" points="22,-284 22,-284 135,-284 135,-284 22,-284"/>
<polygon fill="none" stroke="#666666" points="0,-186 0,-346 135,-346 135,-186 0,-186"/>
</a>
</g>
</g>
<!-- Node1&#45;&gt;Node2 -->
<g id="edge1_Node000001_Node000002" class="edge">
<title>Node1&#45;&gt;Node2</title>
<g id="a_edge1_Node000001_Node000002"><a xlink:title=" ">
<path fill="none" stroke="#63b8ff" d="M717.73,-454.46C572.84,-447.44 192.38,-426.33 144.5,-396 125.44,-383.93 110.47,-365.28 99,-345.89"/>
<polygon fill="none" stroke="#63b8ff" points="717.31,-457.94 727.46,-454.92 717.64,-450.95 717.31,-457.94"/>
</a>
</g>
</g>
<!-- Node3 -->
<g id="Node000003" class="node">
<title>Node3</title>
<g id="a_Node000003"><a xlink:title=" ">
<polygon fill="white" stroke="none" points="293.5,-314 153.5,-314 153.5,-218 293.5,-218 293.5,-314"/>
<text text-anchor="start" x="160.88" y="-300.5" font-family="Helvetica,sans-Serif" font-size="10.00">CodeSmile.MultiPal.Players.</text>
<text text-anchor="start" x="164.25" y="-288.5" font-family="Helvetica,sans-Serif" font-size="10.00">Couch.CouchPlayersClient</text>
<text text-anchor="start" x="222" y="-272.5" font-family="Helvetica,sans-Serif" font-size="10.00"> </text>
<text text-anchor="start" x="157.5" y="-256.5" font-family="Helvetica,sans-Serif" font-size="10.00">~</text>
<text text-anchor="start" x="167.5" y="-256.5" font-family="Helvetica,sans-Serif" font-size="10.00">Spawn()</text>
<text text-anchor="start" x="157.5" y="-240.5" font-family="Helvetica,sans-Serif" font-size="10.00">~</text>
<text text-anchor="start" x="167.5" y="-240.5" font-family="Helvetica,sans-Serif" font-size="10.00">DidSpawnPlayerClientRpc()</text>
<text text-anchor="start" x="157.5" y="-224.5" font-family="Helvetica,sans-Serif" font-size="10.00">~</text>
<text text-anchor="start" x="167.5" y="-224.5" font-family="Helvetica,sans-Serif" font-size="10.00">Despawn()</text>
<polygon fill="#666666" stroke="#666666" points="153.5,-284 153.5,-284 293.5,-284 293.5,-284 153.5,-284"/>
<polygon fill="#666666" stroke="#666666" points="153.5,-268 153.5,-268 293.5,-268 293.5,-268 153.5,-268"/>
<polygon fill="none" stroke="#666666" points="153.5,-218 153.5,-314 293.5,-314 293.5,-218 153.5,-218"/>
</a>
</g>
</g>
<!-- Node1&#45;&gt;Node3 -->
<g id="edge2_Node000001_Node000003" class="edge">
<title>Node1&#45;&gt;Node3</title>
<g id="a_edge2_Node000001_Node000003"><a xlink:title=" ">
<path fill="none" stroke="#63b8ff" d="M717.07,-455.64C607.51,-452.06 370.82,-439.38 303.5,-396 273.82,-376.87 253.29,-342.43 240.46,-313.94"/>
<polygon fill="none" stroke="#63b8ff" points="716.91,-459.14 727.01,-455.95 717.13,-452.14 716.91,-459.14"/>
</a>
</g>
</g>
<!-- Node4 -->
<g id="Node000004" class="node">
<title>Node4</title>
<g id="a_Node000004"><a xlink:title=" ">
<polygon fill="white" stroke="none" points="451,-314 312,-314 312,-218 451,-218 451,-314"/>
<text text-anchor="start" x="318.88" y="-300.5" font-family="Helvetica,sans-Serif" font-size="10.00">CodeSmile.MultiPal.Players.</text>
<text text-anchor="start" x="320.75" y="-288.5" font-family="Helvetica,sans-Serif" font-size="10.00">Couch.CouchPlayersServer</text>
<text text-anchor="start" x="380" y="-272.5" font-family="Helvetica,sans-Serif" font-size="10.00"> </text>
<text text-anchor="start" x="316" y="-256.5" font-family="Helvetica,sans-Serif" font-size="10.00">+</text>
<text text-anchor="start" x="326" y="-256.5" font-family="Helvetica,sans-Serif" font-size="10.00">OnDestroy()</text>
<text text-anchor="start" x="316" y="-240.5" font-family="Helvetica,sans-Serif" font-size="10.00">+</text>
<text text-anchor="start" x="326" y="-240.5" font-family="Helvetica,sans-Serif" font-size="10.00">DespawnPlayerServerRpc()</text>
<text text-anchor="start" x="316" y="-224.5" font-family="Helvetica,sans-Serif" font-size="10.00">~</text>
<text text-anchor="start" x="326" y="-224.5" font-family="Helvetica,sans-Serif" font-size="10.00">SpawnPlayerServerRpc()</text>
<polygon fill="#666666" stroke="#666666" points="312,-284 312,-284 451,-284 451,-284 312,-284"/>
<polygon fill="#666666" stroke="#666666" points="312,-268 312,-268 451,-268 451,-268 312,-268"/>
<polygon fill="none" stroke="#666666" points="312,-218 312,-314 451,-314 451,-218 312,-218"/>
</a>
</g>
</g>
<!-- Node1&#45;&gt;Node4 -->
<g id="edge3_Node000001_Node000004" class="edge">
<title>Node1&#45;&gt;Node4</title>
<g id="a_edge3_Node000001_Node000004"><a xlink:title=" ">
<path fill="none" stroke="#63b8ff" d="M717.5,-451.53C639.03,-442.96 501.35,-424.36 460.5,-396 431.81,-376.08 411.61,-342.04 398.82,-313.93"/>
<polygon fill="none" stroke="#63b8ff" points="716.81,-454.98 727.13,-452.56 717.56,-448.01 716.81,-454.98"/>
</a>
</g>
</g>
<!-- Node5 -->
<g id="Node000005" class="node">
<title>Node5</title>
<g id="a_Node000005"><a xlink:href="class_code_smile_1_1_multi_pal_1_1_players_1_1_couch_1_1_couch_players_vars.html" target="_top" xlink:title=" ">
<polygon fill="white" stroke="none" points="604,-314 469,-314 469,-218 604,-218 604,-314"/>
<text text-anchor="start" x="473.88" y="-300.5" font-family="Helvetica,sans-Serif" font-size="10.00">CodeSmile.MultiPal.Players.</text>
<text text-anchor="start" x="480.25" y="-288.5" font-family="Helvetica,sans-Serif" font-size="10.00">Couch.CouchPlayersVars</text>
<text text-anchor="start" x="535" y="-272.5" font-family="Helvetica,sans-Serif" font-size="10.00"> </text>
<text text-anchor="start" x="478" y="-256.5" font-family="Helvetica,sans-Serif" font-size="10.00">+</text>
<text text-anchor="start" x="493" y="-256.5" font-family="Helvetica,sans-Serif" font-size="10.00">OnNetworkSpawn()</text>
<text text-anchor="start" x="478" y="-240.5" font-family="Helvetica,sans-Serif" font-size="10.00">+</text>
<text text-anchor="start" x="493" y="-240.5" font-family="Helvetica,sans-Serif" font-size="10.00">OnNetworkDespawn()</text>
<text text-anchor="start" x="478" y="-224.5" font-family="Helvetica,sans-Serif" font-size="10.00">~</text>
<text text-anchor="start" x="493" y="-224.5" font-family="Helvetica,sans-Serif" font-size="10.00">SetPlayerReference()</text>
<polygon fill="#666666" stroke="#666666" points="469,-284 469,-284 604,-284 604,-284 469,-284"/>
<polygon fill="#666666" stroke="#666666" points="469,-268 469,-268 604,-268 604,-268 469,-268"/>
<polygon fill="none" stroke="#666666" points="469,-218 469,-314 604,-314 604,-218 469,-218"/>
</a>
</g>
</g>
<!-- Node1&#45;&gt;Node5 -->
<g id="edge4_Node000001_Node000005" class="edge">
<title>Node1&#45;&gt;Node5</title>
<g id="a_edge4_Node000001_Node000005"><a xlink:title=" ">
<path fill="none" stroke="#63b8ff" d="M717.77,-445.52C684.63,-436.47 643.36,-421.07 613.5,-396 587.43,-374.11 567.93,-341.02 555.08,-313.83"/>
<polygon fill="none" stroke="#63b8ff" points="716.65,-448.84 727.21,-447.97 718.41,-442.07 716.65,-448.84"/>
</a>
</g>
</g>
<!-- Node6 -->
<g id="Node000006" class="node">
<title>Node6</title>
<g id="a_Node000006"><a xlink:href="class_code_smile_1_1_multi_pal_1_1_players_1_1_player.html" target="_top" xlink:title=" ">
<polygon fill="white" stroke="none" points="767,-394 622,-394 622,-138 767,-138 767,-394"/>
<text text-anchor="start" x="631.88" y="-380.5" font-family="Helvetica,sans-Serif" font-size="10.00">CodeSmile.MultiPal.Players.</text>
<text text-anchor="start" x="680.62" y="-368.5" font-family="Helvetica,sans-Serif" font-size="10.00">Player</text>
<text text-anchor="start" x="626" y="-352.5" font-family="Helvetica,sans-Serif" font-size="10.00">+</text>
<text text-anchor="start" x="636" y="-352.5" font-family="Helvetica,sans-Serif" font-size="10.00">Camera</text>
<text text-anchor="start" x="626" y="-336.5" font-family="Helvetica,sans-Serif" font-size="10.00">+</text>
<text text-anchor="start" x="636" y="-336.5" font-family="Helvetica,sans-Serif" font-size="10.00">AvatarIndex</text>
<text text-anchor="start" x="626" y="-320.5" font-family="Helvetica,sans-Serif" font-size="10.00">+</text>
<text text-anchor="start" x="636" y="-320.5" font-family="Helvetica,sans-Serif" font-size="10.00">PlayerIndex</text>
<text text-anchor="start" x="626" y="-304.5" font-family="Helvetica,sans-Serif" font-size="10.00">+</text>
<text text-anchor="start" x="636" y="-304.5" font-family="Helvetica,sans-Serif" font-size="10.00">OnPlayerSpawn()</text>
<text text-anchor="start" x="626" y="-288.5" font-family="Helvetica,sans-Serif" font-size="10.00">+</text>
<text text-anchor="start" x="636" y="-288.5" font-family="Helvetica,sans-Serif" font-size="10.00">OnPlayerDespawn()</text>
<text text-anchor="start" x="626" y="-272.5" font-family="Helvetica,sans-Serif" font-size="10.00">+</text>
<text text-anchor="start" x="636" y="-272.5" font-family="Helvetica,sans-Serif" font-size="10.00">OnNetworkSpawn()</text>
<text text-anchor="start" x="626" y="-256.5" font-family="Helvetica,sans-Serif" font-size="10.00">+</text>
<text text-anchor="start" x="636" y="-256.5" font-family="Helvetica,sans-Serif" font-size="10.00">OnNetworkDespawn()</text>
<text text-anchor="start" x="626" y="-240.5" font-family="Helvetica,sans-Serif" font-size="10.00">+</text>
<text text-anchor="start" x="636" y="-240.5" font-family="Helvetica,sans-Serif" font-size="10.00">OnOpenIngameMenu()</text>
<text text-anchor="start" x="626" y="-224.5" font-family="Helvetica,sans-Serif" font-size="10.00">+</text>
<text text-anchor="start" x="636" y="-224.5" font-family="Helvetica,sans-Serif" font-size="10.00">OnCloseIngameMenu()</text>
<text text-anchor="start" x="626" y="-208.5" font-family="Helvetica,sans-Serif" font-size="10.00">~</text>
<text text-anchor="start" x="636" y="-208.5" font-family="Helvetica,sans-Serif" font-size="10.00">SwitchCamera()</text>
<text text-anchor="start" x="626" y="-192.5" font-family="Helvetica,sans-Serif" font-size="10.00">~</text>
<text text-anchor="start" x="636" y="-192.5" font-family="Helvetica,sans-Serif" font-size="10.00">SwitchController()</text>
<text text-anchor="start" x="626" y="-176.5" font-family="Helvetica,sans-Serif" font-size="10.00">~</text>
<text text-anchor="start" x="636" y="-176.5" font-family="Helvetica,sans-Serif" font-size="10.00">RequestToggleIngameMenu()</text>
<text text-anchor="start" x="626" y="-160.5" font-family="Helvetica,sans-Serif" font-size="10.00">~</text>
<text text-anchor="start" x="636" y="-160.5" font-family="Helvetica,sans-Serif" font-size="10.00">Die()</text>
<text text-anchor="start" x="626" y="-144.5" font-family="Helvetica,sans-Serif" font-size="10.00">~</text>
<text text-anchor="start" x="636" y="-144.5" font-family="Helvetica,sans-Serif" font-size="10.00">Respawn()</text>
<polygon fill="#666666" stroke="#666666" points="622,-364 622,-364 767,-364 767,-364 622,-364"/>
<polygon fill="#666666" stroke="#666666" points="622,-316 622,-316 634,-316 634,-316 622,-316"/>
<polygon fill="#666666" stroke="#666666" points="634,-316 634,-316 767,-316 767,-316 634,-316"/>
<polygon fill="none" stroke="#666666" points="622,-138 622,-394 767,-394 767,-138 622,-138"/>
</a>
</g>
</g>
<!-- Node1&#45;&gt;Node6 -->
<g id="edge5_Node000001_Node000006" class="edge">
<title>Node1&#45;&gt;Node6</title>
<g id="a_edge5_Node000001_Node000006"><a xlink:title=" ">
<path fill="none" stroke="#63b8ff" d="M758.83,-421.72C755.32,-413.27 751.37,-403.77 747.2,-393.74"/>
<polygon fill="none" stroke="#63b8ff" points="755.52,-422.87 762.59,-430.76 761.98,-420.19 755.52,-422.87"/>
</a>
</g>
</g>
<!-- Node7 -->
<g id="Node000007" class="node">
<title>Node7</title>
<g id="a_Node000007"><a xlink:href="class_code_smile_1_1_multi_pal_1_1_players_1_1_player_client.html" target="_top" xlink:title=" ">
<polygon fill="white" stroke="none" points="921.5,-330 785.5,-330 785.5,-202 921.5,-202 921.5,-330"/>
<text text-anchor="start" x="790.88" y="-316.5" font-family="Helvetica,sans-Serif" font-size="10.00">CodeSmile.MultiPal.Players.</text>
<text text-anchor="start" x="826.88" y="-304.5" font-family="Helvetica,sans-Serif" font-size="10.00">PlayerClient</text>
<text text-anchor="start" x="789.5" y="-288.5" font-family="Helvetica,sans-Serif" font-size="10.00">+</text>
<text text-anchor="start" x="799.5" y="-288.5" font-family="Helvetica,sans-Serif" font-size="10.00">AnimatorController</text>
<text text-anchor="start" x="789.5" y="-272.5" font-family="Helvetica,sans-Serif" font-size="10.00">+</text>
<text text-anchor="start" x="799.5" y="-272.5" font-family="Helvetica,sans-Serif" font-size="10.00">AnimatorParameters</text>
<text text-anchor="start" x="789.5" y="-256.5" font-family="Helvetica,sans-Serif" font-size="10.00">+</text>
<text text-anchor="start" x="799.5" y="-256.5" font-family="Helvetica,sans-Serif" font-size="10.00">OnNetworkSpawn()</text>
<text text-anchor="start" x="789.5" y="-240.5" font-family="Helvetica,sans-Serif" font-size="10.00">+</text>
<text text-anchor="start" x="799.5" y="-240.5" font-family="Helvetica,sans-Serif" font-size="10.00">OnNetworkDespawn()</text>
<text text-anchor="start" x="789.5" y="-224.5" font-family="Helvetica,sans-Serif" font-size="10.00">+</text>
<text text-anchor="start" x="799.5" y="-224.5" font-family="Helvetica,sans-Serif" font-size="10.00">KillPlayerClientRpc()</text>
<text text-anchor="start" x="789.5" y="-208.5" font-family="Helvetica,sans-Serif" font-size="10.00">+</text>
<text text-anchor="start" x="799.5" y="-208.5" font-family="Helvetica,sans-Serif" font-size="10.00">RespawnPlayerClientRpc()</text>
<polygon fill="#666666" stroke="#666666" points="785.5,-300 785.5,-300 921.5,-300 921.5,-300 785.5,-300"/>
<polygon fill="#666666" stroke="#666666" points="785.5,-268 785.5,-268 797.5,-268 797.5,-268 785.5,-268"/>
<polygon fill="#666666" stroke="#666666" points="797.5,-268 797.5,-268 921.5,-268 921.5,-268 797.5,-268"/>
<polygon fill="none" stroke="#666666" points="785.5,-202 785.5,-330 921.5,-330 921.5,-202 785.5,-202"/>
</a>
</g>
</g>
<!-- Node1&#45;&gt;Node7 -->
<g id="edge6_Node000001_Node000007" class="edge">
<title>Node1&#45;&gt;Node7</title>
<g id="a_edge6_Node000001_Node000007"><a xlink:title=" ">
<path fill="none" stroke="#63b8ff" d="M788.33,-421.78C799.17,-396.03 814.16,-360.43 827.03,-329.86"/>
<polygon fill="none" stroke="#63b8ff" points="785.2,-420.19 784.55,-430.77 791.65,-422.91 785.2,-420.19"/>
</a>
</g>
</g>
<!-- Node8 -->
<g id="Node000008" class="node">
<title>Node8</title>
<g id="a_Node000008"><a xlink:title=" ">
<polygon fill="white" stroke="none" points="1075,-298 940,-298 940,-234 1075,-234 1075,-298"/>
<text text-anchor="start" x="944.88" y="-284.5" font-family="Helvetica,sans-Serif" font-size="10.00">CodeSmile.MultiPal.Players.</text>
<text text-anchor="start" x="979.38" y="-272.5" font-family="Helvetica,sans-Serif" font-size="10.00">PlayerServer</text>
<text text-anchor="start" x="1006" y="-256.5" font-family="Helvetica,sans-Serif" font-size="10.00"> </text>
<text text-anchor="start" x="1006" y="-240.5" font-family="Helvetica,sans-Serif" font-size="10.00"> </text>
<polygon fill="#666666" stroke="#666666" points="940,-268 940,-268 1075,-268 1075,-268 940,-268"/>
<polygon fill="#666666" stroke="#666666" points="940,-252 940,-252 1075,-252 1075,-252 940,-252"/>
<polygon fill="none" stroke="#666666" points="940,-234 940,-298 1075,-298 1075,-234 940,-234"/>
</a>
</g>
</g>
<!-- Node1&#45;&gt;Node8 -->
<g id="edge7_Node000001_Node000008" class="edge">
<title>Node1&#45;&gt;Node8</title>
<g id="a_edge7_Node000001_Node000008"><a xlink:title=" ">
<path fill="none" stroke="#63b8ff" d="M829.28,-444.98C861.61,-435.81 901.53,-420.48 930.5,-396 961.88,-369.49 983.79,-326.77 996.01,-297.82"/>
<polygon fill="none" stroke="#63b8ff" points="828.39,-441.6 819.65,-447.58 830.22,-448.36 828.39,-441.6"/>
</a>
</g>
</g>
<!-- Node9 -->
<g id="Node000009" class="node">
<title>Node9</title>
<g id="a_Node000009"><a xlink:title=" ">
<polygon fill="white" stroke="none" points="1228,-322 1093,-322 1093,-210 1228,-210 1228,-322"/>
<text text-anchor="start" x="1097.88" y="-308.5" font-family="Helvetica,sans-Serif" font-size="10.00">CodeSmile.MultiPal.Players.</text>
<text text-anchor="start" x="1136.88" y="-296.5" font-family="Helvetica,sans-Serif" font-size="10.00">PlayerVars</text>
<text text-anchor="start" x="1102" y="-280.5" font-family="Helvetica,sans-Serif" font-size="10.00">+</text>
<text text-anchor="start" x="1117" y="-280.5" font-family="Helvetica,sans-Serif" font-size="10.00">AvatarIndex</text>
<text text-anchor="start" x="1102" y="-264.5" font-family="Helvetica,sans-Serif" font-size="10.00">+</text>
<text text-anchor="start" x="1117" y="-264.5" font-family="Helvetica,sans-Serif" font-size="10.00">OnPlayerSpawn()</text>
<text text-anchor="start" x="1102" y="-248.5" font-family="Helvetica,sans-Serif" font-size="10.00">+</text>
<text text-anchor="start" x="1117" y="-248.5" font-family="Helvetica,sans-Serif" font-size="10.00">OnPlayerDespawn()</text>
<text text-anchor="start" x="1102" y="-232.5" font-family="Helvetica,sans-Serif" font-size="10.00">+</text>
<text text-anchor="start" x="1117" y="-232.5" font-family="Helvetica,sans-Serif" font-size="10.00">OnNetworkSpawn()</text>
<text text-anchor="start" x="1102" y="-216.5" font-family="Helvetica,sans-Serif" font-size="10.00">+</text>
<text text-anchor="start" x="1117" y="-216.5" font-family="Helvetica,sans-Serif" font-size="10.00">OnNetworkDespawn()</text>
<polygon fill="#666666" stroke="#666666" points="1093,-292 1093,-292 1228,-292 1228,-292 1093,-292"/>
<polygon fill="#666666" stroke="#666666" points="1093,-276 1093,-276 1115,-276 1115,-276 1093,-276"/>
<polygon fill="#666666" stroke="#666666" points="1115,-276 1115,-276 1228,-276 1228,-276 1115,-276"/>
<polygon fill="none" stroke="#666666" points="1093,-210 1093,-322 1228,-322 1228,-210 1093,-210"/>
</a>
</g>
</g>
<!-- Node1&#45;&gt;Node9 -->
<g id="edge8_Node000001_Node000009" class="edge">
<title>Node1&#45;&gt;Node9</title>
<g id="a_edge8_Node000001_Node000009"><a xlink:title=" ">
<path fill="none" stroke="#63b8ff" d="M829.52,-451.55C907.62,-443.03 1044.21,-424.52 1084.5,-396 1110.06,-377.9 1128.4,-348.26 1140.65,-321.95"/>
<polygon fill="none" stroke="#63b8ff" points="829.51,-448.03 819.94,-452.57 830.26,-454.99 829.51,-448.03"/>
</a>
</g>
</g>
<!-- Node10 -->
<g id="Node000010" class="node">
<title>Node10</title>
<g id="a_Node000010"><a xlink:href="class_network_singleton.html" target="_top" xlink:title="Represents a singleton network behaviour that can be accessed globally.">
<polygon fill="white" stroke="none" points="1356.5,-300 1246.5,-300 1246.5,-232 1356.5,-232 1356.5,-300"/>
<text text-anchor="start" x="1251.25" y="-286.5" font-family="Helvetica,sans-Serif" font-size="10.00">NetworkSingleton&lt; T &gt;</text>
<text text-anchor="start" x="1260" y="-270.5" font-family="Helvetica,sans-Serif" font-size="10.00">+</text>
<text text-anchor="start" x="1279.5" y="-270.5" font-family="Helvetica,sans-Serif" font-size="10.00">Instance</text>
<text text-anchor="start" x="1260" y="-254.5" font-family="Helvetica,sans-Serif" font-size="10.00">+</text>
<text text-anchor="start" x="1279.5" y="-254.5" font-family="Helvetica,sans-Serif" font-size="10.00">Awake()</text>
<text text-anchor="start" x="1260" y="-238.5" font-family="Helvetica,sans-Serif" font-size="10.00">+</text>
<text text-anchor="start" x="1279.5" y="-238.5" font-family="Helvetica,sans-Serif" font-size="10.00">OnDestroy()</text>
<polygon fill="#666666" stroke="#666666" points="1246.5,-282 1246.5,-282 1356.5,-282 1356.5,-282 1246.5,-282"/>
<polygon fill="#666666" stroke="#666666" points="1246.5,-266 1246.5,-266 1277.5,-266 1277.5,-266 1246.5,-266"/>
<polygon fill="#666666" stroke="#666666" points="1277.5,-266 1277.5,-266 1356.5,-266 1356.5,-266 1277.5,-266"/>
<polygon fill="none" stroke="#666666" points="1246.5,-232 1246.5,-300 1356.5,-300 1356.5,-232 1246.5,-232"/>
</a>
</g>
</g>
<!-- Node1&#45;&gt;Node10 -->
<g id="edge9_Node000001_Node000010" class="edge">
<title>Node1&#45;&gt;Node10</title>
<g id="a_edge9_Node000001_Node000010"><a xlink:title=" ">
<path fill="none" stroke="#63b8ff" d="M829.58,-456.09C938.39,-453.3 1173.16,-441.98 1237.5,-396 1269.43,-373.18 1286.27,-329.83 1294.52,-299.72"/>
<polygon fill="none" stroke="#63b8ff" points="829.62,-452.59 819.71,-456.33 829.79,-459.59 829.62,-452.59"/>
</a>
</g>
</g>
<!-- Node11 -->
<g id="Node000011" class="node">
<title>Node11</title>
<g id="a_Node000011"><a xlink:href="class_p_a1_a_1_1_items_1_1_container.html" target="_top" xlink:title=" ">
<polygon fill="white" stroke="none" points="1488.5,-396 1374.5,-396 1374.5,-136 1488.5,-136 1488.5,-396"/>
<text text-anchor="start" x="1382.75" y="-382.5" font-family="Helvetica,sans-Serif" font-size="10.00">PA1A.Items.Container</text>
<text text-anchor="start" x="1378.5" y="-366.5" font-family="Helvetica,sans-Serif" font-size="10.00">+</text>
<text text-anchor="start" x="1388.5" y="-366.5" font-family="Helvetica,sans-Serif" font-size="10.00">Size</text>
<text text-anchor="start" x="1378.5" y="-350.5" font-family="Helvetica,sans-Serif" font-size="10.00">+</text>
<text text-anchor="start" x="1388.5" y="-350.5" font-family="Helvetica,sans-Serif" font-size="10.00">this[int i]</text>
<text text-anchor="start" x="1378.5" y="-334.5" font-family="Helvetica,sans-Serif" font-size="10.00">+</text>
<text text-anchor="start" x="1388.5" y="-334.5" font-family="Helvetica,sans-Serif" font-size="10.00">GetSlot()</text>
<text text-anchor="start" x="1378.5" y="-318.5" font-family="Helvetica,sans-Serif" font-size="10.00">+</text>
<text text-anchor="start" x="1388.5" y="-318.5" font-family="Helvetica,sans-Serif" font-size="10.00">OnNetworkSpawn()</text>
<text text-anchor="start" x="1378.5" y="-302.5" font-family="Helvetica,sans-Serif" font-size="10.00">+</text>
<text text-anchor="start" x="1388.5" y="-302.5" font-family="Helvetica,sans-Serif" font-size="10.00">OnNetworkDespawn()</text>
<text text-anchor="start" x="1378.5" y="-286.5" font-family="Helvetica,sans-Serif" font-size="10.00">+</text>
<text text-anchor="start" x="1388.5" y="-286.5" font-family="Helvetica,sans-Serif" font-size="10.00">Give()</text>
<text text-anchor="start" x="1378.5" y="-270.5" font-family="Helvetica,sans-Serif" font-size="10.00">+</text>
<text text-anchor="start" x="1388.5" y="-270.5" font-family="Helvetica,sans-Serif" font-size="10.00">Take()</text>
<text text-anchor="start" x="1378.5" y="-254.5" font-family="Helvetica,sans-Serif" font-size="10.00">+</text>
<text text-anchor="start" x="1388.5" y="-254.5" font-family="Helvetica,sans-Serif" font-size="10.00">CanBeGiven()</text>
<text text-anchor="start" x="1378.5" y="-238.5" font-family="Helvetica,sans-Serif" font-size="10.00">+</text>
<text text-anchor="start" x="1388.5" y="-238.5" font-family="Helvetica,sans-Serif" font-size="10.00">CanBeTaken()</text>
<text text-anchor="start" x="1378.5" y="-222.5" font-family="Helvetica,sans-Serif" font-size="10.00">+</text>
<text text-anchor="start" x="1388.5" y="-222.5" font-family="Helvetica,sans-Serif" font-size="10.00">Clear()</text>
<text text-anchor="start" x="1378.88" y="-206.5" font-family="Helvetica,sans-Serif" font-size="10.00">#</text>
<text text-anchor="start" x="1388.5" y="-206.5" font-family="Helvetica,sans-Serif" font-size="10.00">Awake()</text>
<text text-anchor="start" x="1378.88" y="-190.5" font-family="Helvetica,sans-Serif" font-size="10.00">#</text>
<text text-anchor="start" x="1388.5" y="-190.5" font-family="Helvetica,sans-Serif" font-size="10.00">OnContainerUpdate()</text>
<text text-anchor="start" x="1378.88" y="-174.5" font-family="Helvetica,sans-Serif" font-size="10.00">#</text>
<text text-anchor="start" x="1388.5" y="-174.5" font-family="Helvetica,sans-Serif" font-size="10.00">AddSlot()</text>
<text text-anchor="start" x="1378.88" y="-158.5" font-family="Helvetica,sans-Serif" font-size="10.00">#</text>
<text text-anchor="start" x="1388.5" y="-158.5" font-family="Helvetica,sans-Serif" font-size="10.00">RemoveSlot()</text>
<text text-anchor="start" x="1378.88" y="-142.5" font-family="Helvetica,sans-Serif" font-size="10.00">#</text>
<text text-anchor="start" x="1388.5" y="-142.5" font-family="Helvetica,sans-Serif" font-size="10.00">ClearSlots()</text>
<polygon fill="#666666" stroke="#666666" points="1374.5,-378 1374.5,-378 1488.5,-378 1488.5,-378 1374.5,-378"/>
<polygon fill="#666666" stroke="#666666" points="1374.5,-346 1374.5,-346 1386.5,-346 1386.5,-346 1374.5,-346"/>
<polygon fill="#666666" stroke="#666666" points="1386.5,-346 1386.5,-346 1488.5,-346 1488.5,-346 1386.5,-346"/>
<polygon fill="none" stroke="#666666" points="1374.5,-136 1374.5,-396 1488.5,-396 1488.5,-136 1374.5,-136"/>
</a>
</g>
</g>
<!-- Node1&#45;&gt;Node11 -->
<g id="edge10_Node000001_Node000011" class="edge">
<title>Node1&#45;&gt;Node11</title>
<g id="a_edge10_Node000001_Node000011"><a xlink:title=" ">
<path fill="none" stroke="#63b8ff" d="M829.63,-457.87C960.11,-458.85 1279.33,-454.99 1365.5,-396 1368.72,-393.8 1371.79,-391.39 1374.72,-388.81"/>
<polygon fill="none" stroke="#63b8ff" points="829.88,-454.37 819.85,-457.78 829.82,-461.37 829.88,-454.37"/>
</a>
</g>
</g>
<!-- Node12 -->
<g id="Node000012" class="node">
<title>Node12</title>
<g id="a_Node000012"><a xlink:href="class_p_a1_a_1_1_items_1_1_flexible_size_container.html" target="_top" xlink:title=" ">
<polygon fill="white" stroke="none" points="1428.5,-100 1268.5,-100 1268.5,0 1428.5,0 1428.5,-100"/>
<text text-anchor="start" x="1273.12" y="-86.5" font-family="Helvetica,sans-Serif" font-size="10.00">PA1A.Items.FlexibleSizeContainer</text>
<text text-anchor="start" x="1347" y="-70.5" font-family="Helvetica,sans-Serif" font-size="10.00"> </text>
<text text-anchor="start" x="1285" y="-54.5" font-family="Helvetica,sans-Serif" font-size="10.00">+</text>
<text text-anchor="start" x="1307.5" y="-54.5" font-family="Helvetica,sans-Serif" font-size="10.00">Give()</text>
<text text-anchor="start" x="1285" y="-38.5" font-family="Helvetica,sans-Serif" font-size="10.00">+</text>
<text text-anchor="start" x="1307.5" y="-38.5" font-family="Helvetica,sans-Serif" font-size="10.00">Take()</text>
<text text-anchor="start" x="1285" y="-22.5" font-family="Helvetica,sans-Serif" font-size="10.00">+</text>
<text text-anchor="start" x="1307.5" y="-22.5" font-family="Helvetica,sans-Serif" font-size="10.00">Clear()</text>
<text text-anchor="start" x="1285.38" y="-6.5" font-family="Helvetica,sans-Serif" font-size="10.00">#</text>
<text text-anchor="start" x="1307.5" y="-6.5" font-family="Helvetica,sans-Serif" font-size="10.00">OnContainerUpdate()</text>
<polygon fill="#666666" stroke="#666666" points="1268.5,-82 1268.5,-82 1428.5,-82 1428.5,-82 1268.5,-82"/>
<polygon fill="#666666" stroke="#666666" points="1268.5,-66 1268.5,-66 1428.5,-66 1428.5,-66 1268.5,-66"/>
<polygon fill="none" stroke="#666666" points="1268.5,0 1268.5,-100 1428.5,-100 1428.5,0 1268.5,0"/>
</a>
</g>
</g>
<!-- Node11&#45;&gt;Node12 -->
<g id="edge11_Node000011_Node000012" class="edge">
<title>Node11&#45;&gt;Node12</title>
<g id="a_edge11_Node000011_Node000012"><a xlink:title=" ">
<path fill="none" stroke="#63b8ff" d="M1377.48,-125.71C1373.92,-116.54 1370.5,-107.72 1367.33,-99.55"/>
<polygon fill="none" stroke="#63b8ff" points="1374.12,-126.72 1380.99,-134.78 1380.64,-124.19 1374.12,-126.72"/>
</a>
</g>
</g>
<!-- Node13 -->
<g id="Node000013" class="node">
<title>Node13</title>
<g id="a_Node000013"><a xlink:href="class_p_a1_a_1_1_items_1_1_player_inventory.html" target="_top" xlink:title="Fixed size IContainer with fixed number of ISlot">
<polygon fill="white" stroke="none" points="1580,-100 1447,-100 1447,0 1580,0 1580,-100"/>
<text text-anchor="start" x="1451.62" y="-86.5" font-family="Helvetica,sans-Serif" font-size="10.00">PA1A.Items.PlayerInventory</text>
<text text-anchor="start" x="1512" y="-70.5" font-family="Helvetica,sans-Serif" font-size="10.00"> </text>
<text text-anchor="start" x="1458.5" y="-54.5" font-family="Helvetica,sans-Serif" font-size="10.00">+</text>
<text text-anchor="start" x="1476" y="-54.5" font-family="Helvetica,sans-Serif" font-size="10.00">OnNetworkSpawn()</text>
<text text-anchor="start" x="1458.5" y="-38.5" font-family="Helvetica,sans-Serif" font-size="10.00">+</text>
<text text-anchor="start" x="1476" y="-38.5" font-family="Helvetica,sans-Serif" font-size="10.00">Give()</text>
<text text-anchor="start" x="1458.5" y="-22.5" font-family="Helvetica,sans-Serif" font-size="10.00">+</text>
<text text-anchor="start" x="1476" y="-22.5" font-family="Helvetica,sans-Serif" font-size="10.00">Take()</text>
<text text-anchor="start" x="1458.5" y="-6.5" font-family="Helvetica,sans-Serif" font-size="10.00">+</text>
<text text-anchor="start" x="1476" y="-6.5" font-family="Helvetica,sans-Serif" font-size="10.00">Clear()</text>
<polygon fill="#666666" stroke="#666666" points="1447,-82 1447,-82 1580,-82 1580,-82 1447,-82"/>
<polygon fill="#666666" stroke="#666666" points="1447,-66 1447,-66 1580,-66 1580,-66 1447,-66"/>
<polygon fill="none" stroke="#666666" points="1447,0 1447,-100 1580,-100 1580,0 1447,0"/>
</a>
</g>
</g>
<!-- Node11&#45;&gt;Node13 -->
<g id="edge12_Node000011_Node000013" class="edge">
<title>Node11&#45;&gt;Node13</title>
<g id="a_edge12_Node000011_Node000013"><a xlink:title=" ">
<path fill="none" stroke="#63b8ff" d="M1484.87,-125.71C1488.39,-116.54 1491.77,-107.72 1494.9,-99.55"/>
<polygon fill="none" stroke="#63b8ff" points="1481.71,-124.19 1481.4,-134.78 1488.24,-126.69 1481.71,-124.19"/>
</a>
</g>
</g>
</g>
</svg>
