<?xml version="1.0" encoding="UTF-8" standalone="no"?>
<!DOCTYPE svg PUBLIC "-//W3C//DTD SVG 1.1//EN"
 "http://www.w3.org/Graphics/SVG/1.1/DTD/svg11.dtd">
<!-- Generated by graphviz version 12.1.2 (20240928.0832)
 -->
<!-- Title: PA1A.Characters.Character.FixedUpdate Pages: 1 -->
<svg width="508pt" height="78pt"
 viewBox="0.00 0.00 507.50 78.00" xmlns="http://www.w3.org/2000/svg" xmlns:xlink="http://www.w3.org/1999/xlink">
<g id="graph0" class="graph" transform="scale(1 1) rotate(0) translate(4 74)">
<title>PA1A.Characters.Character.FixedUpdate</title>
<!-- Node1 -->
<g id="Node000001" class="node">
<title>Node1</title>
<g id="a_Node000001"><a xlink:title=" ">
<polygon fill="#999999" stroke="#666666" points="140.5,-54 0,-54 0,-22 140.5,-22 140.5,-54"/>
<text text-anchor="start" x="8" y="-40.5" font-family="Helvetica,sans-Serif" font-size="10.00">PA1A.Characters.Character.</text>
<text text-anchor="middle" x="70.25" y="-28.5" font-family="Helvetica,sans-Serif" font-size="10.00">FixedUpdate</text>
</a>
</g>
</g>
<!-- Node2 -->
<g id="Node000002" class="node">
<title>Node2</title>
<g id="a_Node000002"><a xlink:href="class_p_a1_a_1_1_characters_1_1_character.html#a14a55dfadfa0965134c0fa8a33d81113" target="_top" xlink:title=" ">
<polygon fill="white" stroke="#666666" points="317,-54 176.5,-54 176.5,-22 317,-22 317,-54"/>
<text text-anchor="start" x="184.5" y="-40.5" font-family="Helvetica,sans-Serif" font-size="10.00">PA1A.Characters.Character.</text>
<text text-anchor="middle" x="246.75" y="-28.5" font-family="Helvetica,sans-Serif" font-size="10.00">ProcessAffectingAbilities</text>
</a>
</g>
</g>
<!-- Node1&#45;&gt;Node2 -->
<g id="edge1_Node000001_Node000002" class="edge">
<title>Node1&#45;&gt;Node2</title>
<g id="a_edge1_Node000001_Node000002"><a xlink:title=" ">
<path fill="none" stroke="#63b8ff" d="M140.97,-38C148.75,-38 156.73,-38 164.63,-38"/>
<polygon fill="#63b8ff" stroke="#63b8ff" points="164.63,-41.5 174.63,-38 164.63,-34.5 164.63,-41.5"/>
</a>
</g>
</g>
<!-- Node3 -->
<g id="Node000003" class="node">
<title>Node3</title>
<g id="a_Node000003"><a xlink:href="class_p_a1_a_1_1_abilities_1_1_ability.html#a5a11c29a82b4915cd91db061c7b042c5" target="_top" xlink:title="Process the ability on the specified target.">
<polygon fill="white" stroke="#666666" points="499.5,-70 353,-70 353,-50 499.5,-50 499.5,-70"/>
<text text-anchor="middle" x="426.25" y="-56.5" font-family="Helvetica,sans-Serif" font-size="10.00">PA1A.Abilities.Ability.Process</text>
</a>
</g>
</g>
<!-- Node2&#45;&gt;Node3 -->
<g id="edge2_Node000002_Node000003" class="edge">
<title>Node2&#45;&gt;Node3</title>
<g id="a_edge2_Node000002_Node000003"><a xlink:title=" ">
<path fill="none" stroke="#63b8ff" d="M317.39,-46.63C325.25,-47.61 333.31,-48.61 341.33,-49.6"/>
<polygon fill="#63b8ff" stroke="#63b8ff" points="340.74,-53.05 351.09,-50.81 341.6,-46.1 340.74,-53.05"/>
</a>
</g>
</g>
<!-- Node4 -->
<g id="Node000004" class="node">
<title>Node4</title>
<g id="a_Node000004"><a xlink:href="class_p_a1_a_1_1_abilities_1_1_ability.html#a735a9b8cbfdae12d8c8cfebc1e5fca1b" target="_top" xlink:title="Called when the ability is last applied to the target.">
<polygon fill="white" stroke="#666666" points="487.88,-32 364.62,-32 364.62,0 487.88,0 487.88,-32"/>
<text text-anchor="start" x="372.62" y="-18.5" font-family="Helvetica,sans-Serif" font-size="10.00">PA1A.Abilities.Ability.Un</text>
<text text-anchor="middle" x="426.25" y="-6.5" font-family="Helvetica,sans-Serif" font-size="10.00">Apply</text>
</a>
</g>
</g>
<!-- Node2&#45;&gt;Node4 -->
<g id="edge3_Node000002_Node000004" class="edge">
<title>Node2&#45;&gt;Node4</title>
<g id="a_edge3_Node000002_Node000004"><a xlink:title=" ">
<path fill="none" stroke="#63b8ff" d="M317.39,-29.37C329.1,-27.92 341.26,-26.41 353.03,-24.95"/>
<polygon fill="#63b8ff" stroke="#63b8ff" points="353.16,-28.46 362.66,-23.76 352.3,-21.51 353.16,-28.46"/>
</a>
</g>
</g>
</g>
</svg>
