<?xml version="1.0" encoding="UTF-8" standalone="no"?>
<!DOCTYPE svg PUBLIC "-//W3C//DTD SVG 1.1//EN"
 "http://www.w3.org/Graphics/SVG/1.1/DTD/svg11.dtd">
<!-- Generated by graphviz version 12.1.2 (20240928.0832)
 -->
<!-- Title: PA1A.Items.InventoryItem Pages: 1 -->
<svg width="379pt" height="700pt"
 viewBox="0.00 0.00 379.00 700.00" xmlns="http://www.w3.org/2000/svg" xmlns:xlink="http://www.w3.org/1999/xlink">
<g id="graph0" class="graph" transform="scale(1 1) rotate(0) translate(4 696)">
<title>PA1A.Items.InventoryItem</title>
<!-- Node1 -->
<g id="Node000001" class="node">
<title>Node1</title>
<g id="a_Node000001"><a xlink:title="Represents an abstract base class for items in the game that can be stored in an inventory.">
<polygon fill="#999999" stroke="none" points="242.5,-340 101.5,-340 101.5,-192 242.5,-192 242.5,-340"/>
<text text-anchor="start" x="114.25" y="-326.5" font-family="Helvetica,sans-Serif" font-size="10.00">PA1A.Items.InventoryItem</text>
<text text-anchor="start" x="105.5" y="-310.5" font-family="Helvetica,sans-Serif" font-size="10.00">+</text>
<text text-anchor="start" x="115.5" y="-310.5" font-family="Helvetica,sans-Serif" font-size="10.00">ColoredName</text>
<text text-anchor="start" x="105.5" y="-294.5" font-family="Helvetica,sans-Serif" font-size="10.00">+</text>
<text text-anchor="start" x="115.5" y="-294.5" font-family="Helvetica,sans-Serif" font-size="10.00">Value</text>
<text text-anchor="start" x="105.5" y="-278.5" font-family="Helvetica,sans-Serif" font-size="10.00">+</text>
<text text-anchor="start" x="115.5" y="-278.5" font-family="Helvetica,sans-Serif" font-size="10.00">Rarity</text>
<text text-anchor="start" x="105.5" y="-262.5" font-family="Helvetica,sans-Serif" font-size="10.00">+</text>
<text text-anchor="start" x="115.5" y="-262.5" font-family="Helvetica,sans-Serif" font-size="10.00">ItemPrefab</text>
<text text-anchor="start" x="105.5" y="-246.5" font-family="Helvetica,sans-Serif" font-size="10.00">+</text>
<text text-anchor="start" x="115.5" y="-246.5" font-family="Helvetica,sans-Serif" font-size="10.00">Animation</text>
<text text-anchor="start" x="105.5" y="-230.5" font-family="Helvetica,sans-Serif" font-size="10.00">+</text>
<text text-anchor="start" x="115.5" y="-230.5" font-family="Helvetica,sans-Serif" font-size="10.00">Process()</text>
<text text-anchor="start" x="105.5" y="-214.5" font-family="Helvetica,sans-Serif" font-size="10.00">+</text>
<text text-anchor="start" x="115.5" y="-214.5" font-family="Helvetica,sans-Serif" font-size="10.00">GetNameDisplayText()</text>
<text text-anchor="start" x="105.5" y="-198.5" font-family="Helvetica,sans-Serif" font-size="10.00">+</text>
<text text-anchor="start" x="115.5" y="-198.5" font-family="Helvetica,sans-Serif" font-size="10.00">GetDescriptionDisplayText()</text>
<polygon fill="#666666" stroke="#666666" points="101.5,-322 101.5,-322 242.5,-322 242.5,-322 101.5,-322"/>
<polygon fill="#666666" stroke="#666666" points="101.5,-242 101.5,-242 113.5,-242 113.5,-242 101.5,-242"/>
<polygon fill="#666666" stroke="#666666" points="113.5,-242 113.5,-242 242.5,-242 242.5,-242 113.5,-242"/>
<polygon fill="none" stroke="#666666" points="101.5,-192 101.5,-340 242.5,-340 242.5,-192 101.5,-192"/>
</a>
</g>
</g>
<!-- Node6 -->
<g id="Node000006" class="node">
<title>Node6</title>
<g id="a_Node000006"><a xlink:href="class_p_a1_a_1_1_items_1_1_consumable_item.html" target="_top" xlink:title=" ">
<polygon fill="white" stroke="none" points="167.5,-156 28.5,-156 28.5,-104 167.5,-104 167.5,-156"/>
<text text-anchor="start" x="33.12" y="-142.5" font-family="Helvetica,sans-Serif" font-size="10.00">PA1A.Items.ConsumableItem</text>
<text text-anchor="start" x="52" y="-126.5" font-family="Helvetica,sans-Serif" font-size="10.00">+</text>
<text text-anchor="start" x="81.5" y="-126.5" font-family="Helvetica,sans-Serif" font-size="10.00">ability</text>
<text text-anchor="start" x="52" y="-110.5" font-family="Helvetica,sans-Serif" font-size="10.00">+</text>
<text text-anchor="start" x="81.5" y="-110.5" font-family="Helvetica,sans-Serif" font-size="10.00">Process()</text>
<polygon fill="#666666" stroke="#666666" points="28.5,-138 28.5,-138 167.5,-138 167.5,-138 28.5,-138"/>
<polygon fill="#666666" stroke="#666666" points="28.5,-122 28.5,-122 79.5,-122 79.5,-122 28.5,-122"/>
<polygon fill="#666666" stroke="#666666" points="79.5,-122 79.5,-122 167.5,-122 167.5,-122 79.5,-122"/>
<polygon fill="none" stroke="#666666" points="28.5,-104 28.5,-156 167.5,-156 167.5,-104 28.5,-104"/>
</a>
</g>
</g>
<!-- Node1&#45;&gt;Node6 -->
<g id="edge5_Node000001_Node000006" class="edge">
<title>Node1&#45;&gt;Node6</title>
<g id="a_edge5_Node000001_Node000006"><a xlink:title=" ">
<path fill="none" stroke="#63b8ff" d="M126.25,-182.15C121.03,-172.7 116.06,-163.7 111.78,-155.96"/>
<polygon fill="none" stroke="#63b8ff" points="123.12,-183.73 131.02,-190.79 129.25,-180.35 123.12,-183.73"/>
</a>
</g>
</g>
<!-- Node7 -->
<g id="Node000007" class="node">
<title>Node7</title>
<g id="a_Node000007"><a xlink:href="class_p_a1_a_1_1_items_1_1_weapon_item.html" target="_top" xlink:title="Represents an abstract base class for weapon items in the game.">
<polygon fill="white" stroke="none" points="306,-156 186,-156 186,-104 306,-104 306,-156"/>
<text text-anchor="start" x="190.88" y="-142.5" font-family="Helvetica,sans-Serif" font-size="10.00">PA1A.Items.WeaponItem</text>
<text text-anchor="start" x="200.5" y="-126.5" font-family="Helvetica,sans-Serif" font-size="10.00">+</text>
<text text-anchor="start" x="221" y="-126.5" font-family="Helvetica,sans-Serif" font-size="10.00">weaponAbility</text>
<text text-anchor="start" x="244.5" y="-110.5" font-family="Helvetica,sans-Serif" font-size="10.00"> </text>
<polygon fill="#666666" stroke="#666666" points="186,-138 186,-138 306,-138 306,-138 186,-138"/>
<polygon fill="#666666" stroke="#666666" points="186,-122 186,-122 219,-122 219,-122 186,-122"/>
<polygon fill="#666666" stroke="#666666" points="219,-122 219,-122 306,-122 306,-122 219,-122"/>
<polygon fill="none" stroke="#666666" points="186,-104 186,-156 306,-156 306,-104 186,-104"/>
</a>
</g>
</g>
<!-- Node1&#45;&gt;Node7 -->
<g id="edge6_Node000001_Node000007" class="edge">
<title>Node1&#45;&gt;Node7</title>
<g id="a_edge6_Node000001_Node000007"><a xlink:title=" ">
<path fill="none" stroke="#63b8ff" d="M217.75,-182.15C222.97,-172.7 227.94,-163.7 232.22,-155.96"/>
<polygon fill="none" stroke="#63b8ff" points="214.75,-180.35 212.98,-190.79 220.88,-183.73 214.75,-180.35"/>
</a>
</g>
</g>
<!-- Node2 -->
<g id="Node000002" class="node">
<title>Node2</title>
<g id="a_Node000002"><a xlink:href="class_p_a1_a_1_1_items_1_1_item.html" target="_top" xlink:title="Represents an abstract base class for items in the game.">
<polygon fill="white" stroke="none" points="242.5,-604 101.5,-604 101.5,-376 242.5,-376 242.5,-604"/>
<text text-anchor="start" x="162.25" y="-590.5" font-family="Helvetica,sans-Serif" font-size="10.00">Item</text>
<text text-anchor="start" x="105.5" y="-574.5" font-family="Helvetica,sans-Serif" font-size="10.00">+</text>
<text text-anchor="start" x="115.5" y="-574.5" font-family="Helvetica,sans-Serif" font-size="10.00">Name</text>
<text text-anchor="start" x="105.5" y="-558.5" font-family="Helvetica,sans-Serif" font-size="10.00">+</text>
<text text-anchor="start" x="115.5" y="-558.5" font-family="Helvetica,sans-Serif" font-size="10.00">Description</text>
<text text-anchor="start" x="105.5" y="-542.5" font-family="Helvetica,sans-Serif" font-size="10.00">+</text>
<text text-anchor="start" x="115.5" y="-542.5" font-family="Helvetica,sans-Serif" font-size="10.00">GUID</text>
<text text-anchor="start" x="105.5" y="-526.5" font-family="Helvetica,sans-Serif" font-size="10.00">+</text>
<text text-anchor="start" x="115.5" y="-526.5" font-family="Helvetica,sans-Serif" font-size="10.00">FileID</text>
<text text-anchor="start" x="105.5" y="-510.5" font-family="Helvetica,sans-Serif" font-size="10.00">+</text>
<text text-anchor="start" x="115.5" y="-510.5" font-family="Helvetica,sans-Serif" font-size="10.00">Icon</text>
<text text-anchor="start" x="105.5" y="-494.5" font-family="Helvetica,sans-Serif" font-size="10.00">+</text>
<text text-anchor="start" x="115.5" y="-494.5" font-family="Helvetica,sans-Serif" font-size="10.00">MaxStack</text>
<text text-anchor="start" x="105.5" y="-478.5" font-family="Helvetica,sans-Serif" font-size="10.00">+</text>
<text text-anchor="start" x="115.5" y="-478.5" font-family="Helvetica,sans-Serif" font-size="10.00">GetDescriptionDisplayText()</text>
<text text-anchor="start" x="105.5" y="-462.5" font-family="Helvetica,sans-Serif" font-size="10.00">+</text>
<text text-anchor="start" x="115.5" y="-462.5" font-family="Helvetica,sans-Serif" font-size="10.00">GetNameDisplayText()</text>
<text text-anchor="start" x="105.5" y="-446.5" font-family="Helvetica,sans-Serif" font-size="10.00">+</text>
<text text-anchor="start" x="115.5" y="-446.5" font-family="Helvetica,sans-Serif" font-size="10.00">OnAfterDeserialize()</text>
<text text-anchor="start" x="105.5" y="-430.5" font-family="Helvetica,sans-Serif" font-size="10.00">+</text>
<text text-anchor="start" x="115.5" y="-430.5" font-family="Helvetica,sans-Serif" font-size="10.00">OnBeforeSerialize()</text>
<text text-anchor="start" x="105.5" y="-414.5" font-family="Helvetica,sans-Serif" font-size="10.00">+</text>
<text text-anchor="start" x="115.5" y="-414.5" font-family="Helvetica,sans-Serif" font-size="10.00">Equals()</text>
<text text-anchor="start" x="105.5" y="-398.5" font-family="Helvetica,sans-Serif" font-size="10.00">+</text>
<text text-anchor="start" x="115.5" y="-398.5" font-family="Helvetica,sans-Serif" font-size="10.00">CreateItemStack()</text>
<text text-anchor="start" x="105.5" y="-382.5" font-family="Helvetica,sans-Serif" font-size="10.00">+</text>
<text text-anchor="start" x="115.5" y="-382.5" font-family="Helvetica,sans-Serif" font-size="10.00">CreateItemStack()</text>
<polygon fill="#666666" stroke="#666666" points="101.5,-586 101.5,-586 242.5,-586 242.5,-586 101.5,-586"/>
<polygon fill="#666666" stroke="#666666" points="101.5,-490 101.5,-490 113.5,-490 113.5,-490 101.5,-490"/>
<polygon fill="#666666" stroke="#666666" points="113.5,-490 113.5,-490 242.5,-490 242.5,-490 113.5,-490"/>
<polygon fill="none" stroke="#666666" points="101.5,-376 101.5,-604 242.5,-604 242.5,-376 101.5,-376"/>
</a>
</g>
</g>
<!-- Node2&#45;&gt;Node1 -->
<g id="edge1_Node000001_Node000002" class="edge">
<title>Node2&#45;&gt;Node1</title>
<g id="a_edge1_Node000001_Node000002"><a xlink:title=" ">
<path fill="none" stroke="#63b8ff" d="M172,-364.82C172,-356.3 172,-347.9 172,-339.8"/>
<polygon fill="none" stroke="#63b8ff" points="168.5,-364.54 172,-374.54 175.5,-364.54 168.5,-364.54"/>
</a>
</g>
</g>
<!-- Node3 -->
<g id="Node000003" class="node">
<title>Node3</title>
<g id="a_Node000003"><a xlink:href="class_scriptable_object.html" target="_top" xlink:title=" ">
<polygon fill="white" stroke="none" points="82,-692 0,-692 0,-640 82,-640 82,-692"/>
<text text-anchor="start" x="5" y="-678.5" font-family="Helvetica,sans-Serif" font-size="10.00">ScriptableObject</text>
<text text-anchor="start" x="39.5" y="-662.5" font-family="Helvetica,sans-Serif" font-size="10.00"> </text>
<text text-anchor="start" x="39.5" y="-646.5" font-family="Helvetica,sans-Serif" font-size="10.00"> </text>
<polygon fill="#666666" stroke="#666666" points="0,-674 0,-674 82,-674 82,-674 0,-674"/>
<polygon fill="#666666" stroke="#666666" points="0,-658 0,-658 82,-658 82,-658 0,-658"/>
<polygon fill="none" stroke="#666666" points="0,-640 0,-692 82,-692 82,-640 0,-640"/>
</a>
</g>
</g>
<!-- Node3&#45;&gt;Node2 -->
<g id="edge2_Node000002_Node000003" class="edge">
<title>Node3&#45;&gt;Node2</title>
<g id="a_edge2_Node000002_Node000003"><a xlink:title=" ">
<path fill="none" stroke="#63b8ff" d="M66.48,-631.16C76.69,-617.6 89,-601.24 101.56,-584.56"/>
<polygon fill="none" stroke="#63b8ff" points="63.9,-628.77 60.68,-638.86 69.49,-632.98 63.9,-628.77"/>
</a>
</g>
</g>
<!-- Node4 -->
<g id="Node000004" class="node">
<title>Node4</title>
<g id="a_Node000004"><a xlink:href="class_i_serialization_callback_receiver.html" target="_top" xlink:title=" ">
<polygon fill="white" stroke="none" points="243.5,-692 100.5,-692 100.5,-640 243.5,-640 243.5,-692"/>
<text text-anchor="start" x="105.25" y="-678.5" font-family="Helvetica,sans-Serif" font-size="10.00">ISerializationCallbackReceiver</text>
<text text-anchor="start" x="170.5" y="-662.5" font-family="Helvetica,sans-Serif" font-size="10.00"> </text>
<text text-anchor="start" x="170.5" y="-646.5" font-family="Helvetica,sans-Serif" font-size="10.00"> </text>
<polygon fill="#666666" stroke="#666666" points="100.5,-674 100.5,-674 243.5,-674 243.5,-674 100.5,-674"/>
<polygon fill="#666666" stroke="#666666" points="100.5,-658 100.5,-658 243.5,-658 243.5,-658 100.5,-658"/>
<polygon fill="none" stroke="#666666" points="100.5,-640 100.5,-692 243.5,-692 243.5,-640 100.5,-640"/>
</a>
</g>
</g>
<!-- Node4&#45;&gt;Node2 -->
<g id="edge3_Node000002_Node000004" class="edge">
<title>Node4&#45;&gt;Node2</title>
<g id="a_edge3_Node000002_Node000004"><a xlink:title=" ">
<path fill="none" stroke="#63b8ff" d="M172,-628.72C172,-621.03 172,-612.53 172,-603.64"/>
<polygon fill="none" stroke="#63b8ff" points="168.5,-628.56 172,-638.56 175.5,-628.56 168.5,-628.56"/>
</a>
</g>
</g>
<!-- Node5 -->
<g id="Node000005" class="node">
<title>Node5</title>
<g id="a_Node000005"><a xlink:href="class_i_equatable.html" target="_top" xlink:title=" ">
<polygon fill="white" stroke="none" points="356,-692 262,-692 262,-640 356,-640 356,-692"/>
<text text-anchor="start" x="267" y="-678.5" font-family="Helvetica,sans-Serif" font-size="10.00">IEquatable&lt; Item &gt;</text>
<text text-anchor="start" x="307.5" y="-662.5" font-family="Helvetica,sans-Serif" font-size="10.00"> </text>
<text text-anchor="start" x="307.5" y="-646.5" font-family="Helvetica,sans-Serif" font-size="10.00"> </text>
<polygon fill="#666666" stroke="#666666" points="262,-674 262,-674 356,-674 356,-674 262,-674"/>
<polygon fill="#666666" stroke="#666666" points="262,-658 262,-658 356,-658 356,-658 262,-658"/>
<polygon fill="none" stroke="#666666" points="262,-640 262,-692 356,-692 356,-640 262,-640"/>
</a>
</g>
</g>
<!-- Node5&#45;&gt;Node2 -->
<g id="edge4_Node000002_Node000005" class="edge">
<title>Node5&#45;&gt;Node2</title>
<g id="a_edge4_Node000002_Node000005"><a xlink:title=" ">
<path fill="none" stroke="#63b8ff" d="M282.5,-631.35C270.89,-616.6 256.65,-598.51 242.31,-580.3"/>
<polygon fill="none" stroke="#63b8ff" points="279.5,-633.19 288.43,-638.88 285,-628.86 279.5,-633.19"/>
</a>
</g>
</g>
<!-- Node8 -->
<g id="Node000008" class="node">
<title>Node8</title>
<g id="a_Node000008"><a xlink:href="class_p_a1_a_1_1_items_1_1_melee_item.html" target="_top" xlink:title="Represents a melee weapon item in the game.">
<polygon fill="white" stroke="none" points="234.5,-68 123.5,-68 123.5,0 234.5,0 234.5,-68"/>
<text text-anchor="start" x="128.38" y="-54.5" font-family="Helvetica,sans-Serif" font-size="10.00">PA1A.Items.MeleeItem</text>
<text text-anchor="start" x="135" y="-38.5" font-family="Helvetica,sans-Serif" font-size="10.00">+</text>
<text text-anchor="start" x="152.5" y="-38.5" font-family="Helvetica,sans-Serif" font-size="10.00">sweepAngle</text>
<text text-anchor="start" x="135" y="-22.5" font-family="Helvetica,sans-Serif" font-size="10.00">+</text>
<text text-anchor="start" x="152.5" y="-22.5" font-family="Helvetica,sans-Serif" font-size="10.00">weaponRange</text>
<text text-anchor="start" x="135" y="-6.5" font-family="Helvetica,sans-Serif" font-size="10.00">+</text>
<text text-anchor="start" x="152.5" y="-6.5" font-family="Helvetica,sans-Serif" font-size="10.00">Process()</text>
<polygon fill="#666666" stroke="#666666" points="123.5,-50 123.5,-50 234.5,-50 234.5,-50 123.5,-50"/>
<polygon fill="#666666" stroke="#666666" points="123.5,-18 123.5,-18 150.5,-18 150.5,-18 123.5,-18"/>
<polygon fill="#666666" stroke="#666666" points="150.5,-18 150.5,-18 234.5,-18 234.5,-18 150.5,-18"/>
<polygon fill="none" stroke="#666666" points="123.5,0 123.5,-68 234.5,-68 234.5,0 123.5,0"/>
</a>
</g>
</g>
<!-- Node7&#45;&gt;Node8 -->
<g id="edge7_Node000007_Node000008" class="edge">
<title>Node7&#45;&gt;Node8</title>
<g id="a_edge7_Node000007_Node000008"><a xlink:title=" ">
<path fill="none" stroke="#63b8ff" d="M221.75,-94.97C215.4,-86.07 208.58,-76.5 202.28,-67.67"/>
<polygon fill="none" stroke="#63b8ff" points="218.86,-96.96 227.52,-103.07 224.56,-92.9 218.86,-96.96"/>
</a>
</g>
</g>
<!-- Node9 -->
<g id="Node000009" class="node">
<title>Node9</title>
<g id="a_Node000009"><a xlink:href="class_p_a1_a_1_1_items_1_1_ranged_item.html" target="_top" xlink:title="Represents a ranged weapon item in the game.">
<polygon fill="white" stroke="none" points="371,-60 253,-60 253,-8 371,-8 371,-60"/>
<text text-anchor="start" x="257.62" y="-46.5" font-family="Helvetica,sans-Serif" font-size="10.00">PA1A.Items.RangedItem</text>
<text text-anchor="start" x="271.5" y="-30.5" font-family="Helvetica,sans-Serif" font-size="10.00">+</text>
<text text-anchor="start" x="296" y="-30.5" font-family="Helvetica,sans-Serif" font-size="10.00">projectile</text>
<text text-anchor="start" x="271.5" y="-14.5" font-family="Helvetica,sans-Serif" font-size="10.00">+</text>
<text text-anchor="start" x="296" y="-14.5" font-family="Helvetica,sans-Serif" font-size="10.00">Process()</text>
<polygon fill="#666666" stroke="#666666" points="253,-42 253,-42 371,-42 371,-42 253,-42"/>
<polygon fill="#666666" stroke="#666666" points="253,-26 253,-26 294,-26 294,-26 253,-26"/>
<polygon fill="#666666" stroke="#666666" points="294,-26 294,-26 371,-26 371,-26 294,-26"/>
<polygon fill="none" stroke="#666666" points="253,-8 253,-60 371,-60 371,-8 253,-8"/>
</a>
</g>
</g>
<!-- Node7&#45;&gt;Node9 -->
<g id="edge8_Node000007_Node000009" class="edge">
<title>Node7&#45;&gt;Node9</title>
<g id="a_edge8_Node000007_Node000009"><a xlink:title=" ">
<path fill="none" stroke="#63b8ff" d="M269.94,-94.9C278.08,-83.31 287.01,-70.59 294.55,-59.86"/>
<polygon fill="none" stroke="#63b8ff" points="267.09,-92.87 264.21,-103.06 272.82,-96.89 267.09,-92.87"/>
</a>
</g>
</g>
</g>
</svg>
