<?xml version="1.0" encoding="UTF-8" standalone="no"?>
<!DOCTYPE svg PUBLIC "-//W3C//DTD SVG 1.1//EN"
 "http://www.w3.org/Graphics/SVG/1.1/DTD/svg11.dtd">
<!-- Generated by graphviz version 12.1.2 (20240928.0832)
 -->
<!-- Title: PA1A.Building.GridData Pages: 1 -->
<svg width="240pt" height="228pt"
 viewBox="0.00 0.00 239.50 228.00" xmlns="http://www.w3.org/2000/svg" xmlns:xlink="http://www.w3.org/1999/xlink">

<svg id="main" version="1.1" xmlns="http://www.w3.org/2000/svg" xmlns:xlink="http://www.w3.org/1999/xlink" xml:space="preserve">

<style type="text/css"><![CDATA[
.node, .edge {opacity: 0.7;}
.node.selected, .edge.selected {opacity: 1;}
.edge:hover path { stroke: red; }
.edge:hover polygon { stroke: red; fill: red; }
]]></style>
<script type="application/ecmascript" xlink:href="svg.min.js"/>
<svg id="graph" class="graph">
<g id="graph0" class="graph" transform="scale(1 1) rotate(0) translate(4 224)">
<title>PA1A.Building.GridData</title>
<!-- Node1 -->
<g id="Node000001" class="node">
<title>Node1</title>
<g id="a_Node000001"><a xlink:title="Represents the grid data for object placement.">
<polygon fill="#999999" stroke="none" points="176.5,-132 47.5,-132 47.5,0 176.5,0 176.5,-132"/>
<text text-anchor="start" x="59.88" y="-118.5" font-family="Helvetica,sans-Serif" font-size="10.00">PA1A.Building.GridData</text>
<text text-anchor="start" x="110.5" y="-102.5" font-family="Helvetica,sans-Serif" font-size="10.00"> </text>
<text text-anchor="start" x="51.5" y="-86.5" font-family="Helvetica,sans-Serif" font-size="10.00">+</text>
<text text-anchor="start" x="61.5" y="-86.5" font-family="Helvetica,sans-Serif" font-size="10.00">AddObjectAt()</text>
<text text-anchor="start" x="51.5" y="-70.5" font-family="Helvetica,sans-Serif" font-size="10.00">+</text>
<text text-anchor="start" x="61.5" y="-70.5" font-family="Helvetica,sans-Serif" font-size="10.00">CanPlaceObjectAt()</text>
<text text-anchor="start" x="51.5" y="-54.5" font-family="Helvetica,sans-Serif" font-size="10.00">+</text>
<text text-anchor="start" x="61.5" y="-54.5" font-family="Helvetica,sans-Serif" font-size="10.00">NetworkSerialize&lt; T &gt;()</text>
<text text-anchor="start" x="51.5" y="-38.5" font-family="Helvetica,sans-Serif" font-size="10.00">+</text>
<text text-anchor="start" x="61.5" y="-38.5" font-family="Helvetica,sans-Serif" font-size="10.00">Equals()</text>
<text text-anchor="start" x="51.5" y="-22.5" font-family="Helvetica,sans-Serif" font-size="10.00">~</text>
<text text-anchor="start" x="61.5" y="-22.5" font-family="Helvetica,sans-Serif" font-size="10.00">GetRepresentationIndex()</text>
<text text-anchor="start" x="51.5" y="-6.5" font-family="Helvetica,sans-Serif" font-size="10.00">~</text>
<text text-anchor="start" x="61.5" y="-6.5" font-family="Helvetica,sans-Serif" font-size="10.00">RemoveObjectAt()</text>
<polygon fill="#666666" stroke="#666666" points="47.5,-114 47.5,-114 176.5,-114 176.5,-114 47.5,-114"/>
<polygon fill="#666666" stroke="#666666" points="47.5,-98 47.5,-98 176.5,-98 176.5,-98 47.5,-98"/>
<polygon fill="none" stroke="#666666" points="47.5,0 47.5,-132 176.5,-132 176.5,0 47.5,0"/>
</a>
</g>
</g>
<!-- Node2 -->
<g id="Node000002" class="node">
<title>Node2</title>
<g id="a_Node000002"><a xlink:href="class_i_network_serializable.html" target="_top" xlink:title=" ">
<polygon fill="white" stroke="none" points="100,-220 0,-220 0,-168 100,-168 100,-220"/>
<text text-anchor="start" x="5" y="-206.5" font-family="Helvetica,sans-Serif" font-size="10.00">INetworkSerializable</text>
<text text-anchor="start" x="48.5" y="-190.5" font-family="Helvetica,sans-Serif" font-size="10.00"> </text>
<text text-anchor="start" x="48.5" y="-174.5" font-family="Helvetica,sans-Serif" font-size="10.00"> </text>
<polygon fill="#666666" stroke="#666666" points="0,-202 0,-202 100,-202 100,-202 0,-202"/>
<polygon fill="#666666" stroke="#666666" points="0,-186 0,-186 100,-186 100,-186 0,-186"/>
<polygon fill="none" stroke="#666666" points="0,-168 0,-220 100,-220 100,-168 0,-168"/>
</a>
</g>
</g>
<!-- Node2&#45;&gt;Node1 -->
<g id="edge1_Node000001_Node000002" class="edge">
<title>Node2&#45;&gt;Node1</title>
<g id="a_edge1_Node000001_Node000002"><a xlink:title=" ">
<path fill="none" stroke="#63b8ff" d="M67.27,-157.9C71.29,-149.74 75.68,-140.8 80.11,-131.82"/>
<polygon fill="none" stroke="#63b8ff" points="64.19,-156.23 62.92,-166.75 70.47,-159.32 64.19,-156.23"/>
</a>
</g>
</g>
<!-- Node3 -->
<g id="Node000003" class="node">
<title>Node3</title>
<g id="a_Node000003"><a xlink:href="class_i_equatable.html" target="_top" xlink:title=" ">
<polygon fill="white" stroke="none" points="231.5,-220 118.5,-220 118.5,-168 231.5,-168 231.5,-220"/>
<text text-anchor="start" x="123.25" y="-206.5" font-family="Helvetica,sans-Serif" font-size="10.00">IEquatable&lt; GridData &gt;</text>
<text text-anchor="start" x="173.5" y="-190.5" font-family="Helvetica,sans-Serif" font-size="10.00"> </text>
<text text-anchor="start" x="173.5" y="-174.5" font-family="Helvetica,sans-Serif" font-size="10.00"> </text>
<polygon fill="#666666" stroke="#666666" points="118.5,-202 118.5,-202 231.5,-202 231.5,-202 118.5,-202"/>
<polygon fill="#666666" stroke="#666666" points="118.5,-186 118.5,-186 231.5,-186 231.5,-186 118.5,-186"/>
<polygon fill="none" stroke="#666666" points="118.5,-168 118.5,-220 231.5,-220 231.5,-168 118.5,-168"/>
</a>
</g>
</g>
<!-- Node3&#45;&gt;Node1 -->
<g id="edge2_Node000001_Node000003" class="edge">
<title>Node3&#45;&gt;Node1</title>
<g id="a_edge2_Node000001_Node000003"><a xlink:title=" ">
<path fill="none" stroke="#63b8ff" d="M157.45,-157.9C153.37,-149.74 148.9,-140.8 144.41,-131.82"/>
<polygon fill="none" stroke="#63b8ff" points="154.27,-159.37 161.88,-166.75 160.53,-156.24 154.27,-159.37"/>
</a>
</g>
</g>
</g>
</svg>
</svg>

<style type='text/css'>
<![CDATA[
[data-mouse-over-selected='false'] { opacity: 0.7; }
[data-mouse-over-selected='true']  { opacity: 1.0; }
]]>
</style>
<script type="application/ecmascript"><![CDATA[
document.addEventListener('DOMContentLoaded', (event) => {
  highlightEdges();
  highlightAdjacentNodes();
});
]]></script>
</svg>
