<?xml version="1.0" encoding="UTF-8" standalone="no"?>
<!DOCTYPE svg PUBLIC "-//W3C//DTD SVG 1.1//EN"
 "http://www.w3.org/Graphics/SVG/1.1/DTD/svg11.dtd">
<!-- Generated by graphviz version 12.1.2 (20240928.0832)
 -->
<!-- Title: PA1A.Items.UI.SlotUI.OnPointerClick Pages: 1 -->
<svg width="357pt" height="172pt"
 viewBox="0.00 0.00 356.50 172.00" xmlns="http://www.w3.org/2000/svg" xmlns:xlink="http://www.w3.org/1999/xlink">

<svg id="main" version="1.1" xmlns="http://www.w3.org/2000/svg" xmlns:xlink="http://www.w3.org/1999/xlink" xml:space="preserve">

<style type="text/css"><![CDATA[
.node, .edge {opacity: 0.7;}
.node.selected, .edge.selected {opacity: 1;}
.edge:hover path { stroke: red; }
.edge:hover polygon { stroke: red; fill: red; }
]]></style>
<script type="application/ecmascript" xlink:href="svg.min.js"/>
<svg id="graph" class="graph">
<g id="graph0" class="graph" transform="scale(1 1) rotate(0) translate(4 168)">
<title>PA1A.Items.UI.SlotUI.OnPointerClick</title>
<!-- Node1 -->
<g id="Node000001" class="node">
<title>Node1</title>
<g id="a_Node000001"><a xlink:title=" ">
<polygon fill="#999999" stroke="#666666" points="159.25,-110 0,-110 0,-78 159.25,-78 159.25,-110"/>
<text text-anchor="start" x="8" y="-96.5" font-family="Helvetica,sans-Serif" font-size="10.00">PA1A.Items.UI.SlotUI.OnPointer</text>
<text text-anchor="middle" x="79.62" y="-84.5" font-family="Helvetica,sans-Serif" font-size="10.00">Click</text>
</a>
</g>
</g>
<!-- Node2 -->
<g id="Node000002" class="node">
<title>Node2</title>
<g id="a_Node000002"><a xlink:href="interface_p_a1_a_1_1_items_1_1_i_slot.html#a2bd8350f765a7d52e9914fce154d311c" target="_top" xlink:title=" ">
<polygon fill="white" stroke="#666666" points="348.5,-164 195.25,-164 195.25,-144 348.5,-144 348.5,-164"/>
<text text-anchor="middle" x="271.88" y="-150.5" font-family="Helvetica,sans-Serif" font-size="10.00">PA1A.Items.ISlot.ContainsItem</text>
</a>
</g>
</g>
<!-- Node1&#45;&gt;Node2 -->
<g id="edge1_Node000001_Node000002" class="edge">
<title>Node1&#45;&gt;Node2</title>
<g id="a_edge1_Node000001_Node000002"><a xlink:title=" ">
<path fill="none" stroke="#63b8ff" d="M123.57,-110.48C144.95,-118.4 171.29,-127.72 195.25,-135 201.8,-136.99 208.7,-138.93 215.58,-140.77"/>
<polygon fill="#63b8ff" stroke="#63b8ff" points="214.26,-144.04 224.82,-143.18 216.03,-137.27 214.26,-144.04"/>
</a>
</g>
</g>
<!-- Node3 -->
<g id="Node000003" class="node">
<title>Node3</title>
<g id="a_Node000003"><a xlink:href="class_p_a1_a_1_1_items_1_1_container.html#a98ff3f63fc221151628a03cd4f31ed79" target="_top" xlink:title=" ">
<polygon fill="white" stroke="#666666" points="346.62,-126 197.12,-126 197.12,-106 346.62,-106 346.62,-126"/>
<text text-anchor="middle" x="271.88" y="-112.5" font-family="Helvetica,sans-Serif" font-size="10.00">PA1A.Items.Container.GetSlot</text>
</a>
</g>
</g>
<!-- Node1&#45;&gt;Node3 -->
<g id="edge2_Node000001_Node000003" class="edge">
<title>Node1&#45;&gt;Node3</title>
<g id="a_edge2_Node000001_Node000003"><a xlink:title=" ">
<path fill="none" stroke="#63b8ff" d="M159.66,-103.14C168.17,-104.12 176.87,-105.13 185.46,-106.12"/>
<polygon fill="#63b8ff" stroke="#63b8ff" points="184.82,-109.57 195.16,-107.24 185.63,-102.62 184.82,-109.57"/>
</a>
</g>
</g>
<!-- Node4 -->
<g id="Node000004" class="node">
<title>Node4</title>
<g id="a_Node000004"><a xlink:href="class_p_a1_a_1_1_items_1_1_consumable_item.html#ad553edb67c6303708445c73219177cf5" target="_top" xlink:title=" ">
<polygon fill="white" stroke="#666666" points="346.25,-88 197.5,-88 197.5,-56 346.25,-56 346.25,-88"/>
<text text-anchor="start" x="205.5" y="-74.5" font-family="Helvetica,sans-Serif" font-size="10.00">PA1A.Items.ConsumableItem.</text>
<text text-anchor="middle" x="271.88" y="-62.5" font-family="Helvetica,sans-Serif" font-size="10.00">Process</text>
</a>
</g>
</g>
<!-- Node1&#45;&gt;Node4 -->
<g id="edge3_Node000001_Node000004" class="edge">
<title>Node1&#45;&gt;Node4</title>
<g id="a_edge3_Node000001_Node000004"><a xlink:title=" ">
<path fill="none" stroke="#63b8ff" d="M159.66,-84.86C168.32,-83.86 177.16,-82.84 185.89,-81.83"/>
<polygon fill="#63b8ff" stroke="#63b8ff" points="186.24,-85.31 195.77,-80.69 185.43,-78.36 186.24,-85.31"/>
</a>
</g>
</g>
<!-- Node5 -->
<g id="Node000005" class="node">
<title>Node5</title>
<g id="a_Node000005"><a xlink:href="class_p_a1_a_1_1_items_1_1_container.html#ac0b462f2fb872ed56158cd9e38ba8e52" target="_top" xlink:title="Takes the specified ItemStack from the IStackContainer and substracts the taken amount from the ItemS...">
<polygon fill="white" stroke="#666666" points="340.62,-20 203.12,-20 203.12,0 340.62,0 340.62,-20"/>
<text text-anchor="middle" x="271.88" y="-6.5" font-family="Helvetica,sans-Serif" font-size="10.00">PA1A.Items.Container.Take</text>
</a>
</g>
</g>
<!-- Node1&#45;&gt;Node5 -->
<g id="edge4_Node000001_Node000005" class="edge">
<title>Node1&#45;&gt;Node5</title>
<g id="a_edge4_Node000001_Node000005"><a xlink:title=" ">
<path fill="none" stroke="#63b8ff" d="M117.76,-77.6C152.4,-62.31 203.63,-39.69 237.13,-24.9"/>
<polygon fill="#63b8ff" stroke="#63b8ff" points="238.22,-28.24 245.96,-21 235.4,-21.84 238.22,-28.24"/>
</a>
</g>
</g>
<!-- Node5&#45;&gt;Node5 -->
<g id="edge5_Node000005_Node000005" class="edge">
<title>Node5&#45;&gt;Node5</title>
<g id="a_edge5_Node000005_Node000005"><a xlink:title=" ">
<path fill="none" stroke="#63b8ff" d="M241.33,-20.34C228.27,-28.98 238.46,-38 271.88,-38 290.67,-38 302.12,-35.14 306.21,-31.11"/>
<polygon fill="#63b8ff" stroke="#63b8ff" points="309.55,-30.04 302.92,-21.77 302.94,-32.36 309.55,-30.04"/>
</a>
</g>
</g>
</g>
</svg>
</svg>

<style type='text/css'>
<![CDATA[
[data-mouse-over-selected='false'] { opacity: 0.7; }
[data-mouse-over-selected='true']  { opacity: 1.0; }
]]>
</style>
<script type="application/ecmascript"><![CDATA[
document.addEventListener('DOMContentLoaded', (event) => {
  highlightEdges();
  highlightAdjacentNodes();
});
]]></script>
</svg>
