<?xml version="1.0" encoding="UTF-8" standalone="no"?>
<!DOCTYPE svg PUBLIC "-//W3C//DTD SVG 1.1//EN"
 "http://www.w3.org/Graphics/SVG/1.1/DTD/svg11.dtd">
<!-- Generated by graphviz version 12.1.2 (20240928.0832)
 -->
<!-- Title: PA1A.Items.ISlotExtensions.GetCount Pages: 1 -->
<svg width="353pt" height="78pt"
 viewBox="0.00 0.00 352.75 78.00" xmlns="http://www.w3.org/2000/svg" xmlns:xlink="http://www.w3.org/1999/xlink">
<g id="graph0" class="graph" transform="scale(1 1) rotate(0) translate(4 74)">
<title>PA1A.Items.ISlotExtensions.GetCount</title>
<!-- Node1 -->
<g id="Node000001" class="node">
<title>Node1</title>
<g id="a_Node000001"><a xlink:title="Determines the total number of ItemStack that could be taken from the ISlot">
<polygon fill="#999999" stroke="#666666" points="143.5,-48 0,-48 0,-16 143.5,-16 143.5,-48"/>
<text text-anchor="start" x="8" y="-34.5" font-family="Helvetica,sans-Serif" font-size="10.00">PA1A.Items.ISlotExtensions.</text>
<text text-anchor="middle" x="71.75" y="-22.5" font-family="Helvetica,sans-Serif" font-size="10.00">GetCount</text>
</a>
</g>
</g>
<!-- Node2 -->
<g id="Node000002" class="node">
<title>Node2</title>
<g id="a_Node000002"><a xlink:href="interface_p_a1_a_1_1_items_1_1_i_stack_container.html#aba5e1bdbf73ff89905465bb996027d21" target="_top" xlink:title="Determines if the ItemStack is allowed by the IStackContainer to be taken from it &#160;This methods only ...">
<polygon fill="white" stroke="#666666" points="334.62,-70 189.62,-70 189.62,-38 334.62,-38 334.62,-70"/>
<text text-anchor="start" x="197.62" y="-56.5" font-family="Helvetica,sans-Serif" font-size="10.00">PA1A.Items.IStackContainer.</text>
<text text-anchor="middle" x="262.12" y="-44.5" font-family="Helvetica,sans-Serif" font-size="10.00">CanBeTaken</text>
</a>
</g>
</g>
<!-- Node1&#45;&gt;Node2 -->
<g id="edge1_Node000001_Node000002" class="edge">
<title>Node1&#45;&gt;Node2</title>
<g id="a_edge1_Node000001_Node000002"><a xlink:title=" ">
<path fill="none" stroke="#63b8ff" d="M143.97,-40.32C155.06,-41.61 166.61,-42.96 177.95,-44.29"/>
<polygon fill="#63b8ff" stroke="#63b8ff" points="177.34,-47.74 187.68,-45.42 178.15,-40.79 177.34,-47.74"/>
</a>
</g>
</g>
<!-- Node3 -->
<g id="Node000003" class="node">
<title>Node3</title>
<g id="a_Node000003"><a xlink:href="class_p_a1_a_1_1_items_1_1_item_stack.html#accc7136840d27aaa1c6b2a19dbe9f74b" target="_top" xlink:title="Determines if both the ItemStack are the same (can be combined in a single ItemStack)">
<polygon fill="white" stroke="#666666" points="344.75,-20 179.5,-20 179.5,0 344.75,0 344.75,-20"/>
<text text-anchor="middle" x="262.12" y="-6.5" font-family="Helvetica,sans-Serif" font-size="10.00">PA1A.Items.ItemStack.IsSameAs</text>
</a>
</g>
</g>
<!-- Node1&#45;&gt;Node3 -->
<g id="edge2_Node000001_Node000003" class="edge">
<title>Node1&#45;&gt;Node3</title>
<g id="a_edge2_Node000001_Node000003"><a xlink:title=" ">
<path fill="none" stroke="#63b8ff" d="M143.97,-23.68C151.76,-22.77 159.77,-21.84 167.77,-20.9"/>
<polygon fill="#63b8ff" stroke="#63b8ff" points="168.03,-24.4 177.56,-19.76 167.22,-17.44 168.03,-24.4"/>
</a>
</g>
</g>
</g>
</svg>
