<?xml version="1.0" encoding="UTF-8" standalone="no"?>
<!DOCTYPE svg PUBLIC "-//W3C//DTD SVG 1.1//EN"
 "http://www.w3.org/Graphics/SVG/1.1/DTD/svg11.dtd">
<!-- Generated by graphviz version 12.1.2 (20240928.0832)
 -->
<!-- Title: PA1A.Building.PlacementSystem.StartPlacement Pages: 1 -->
<svg width="554pt" height="58pt"
 viewBox="0.00 0.00 554.00 58.00" xmlns="http://www.w3.org/2000/svg" xmlns:xlink="http://www.w3.org/1999/xlink">
<g id="graph0" class="graph" transform="scale(1 1) rotate(0) translate(4 54)">
<title>PA1A.Building.PlacementSystem.StartPlacement</title>
<!-- Node1 -->
<g id="Node000001" class="node">
<title>Node1</title>
<g id="a_Node000001"><a xlink:title="Starts the placement of a building with the specified ID.">
<polygon fill="#999999" stroke="#666666" points="164.5,-32 0,-32 0,0 164.5,0 164.5,-32"/>
<text text-anchor="start" x="8" y="-18.5" font-family="Helvetica,sans-Serif" font-size="10.00">PA1A.Building.PlacementSystem.</text>
<text text-anchor="middle" x="82.25" y="-6.5" font-family="Helvetica,sans-Serif" font-size="10.00">StartPlacement</text>
</a>
</g>
</g>
<!-- Node2 -->
<g id="Node000002" class="node">
<title>Node2</title>
<g id="a_Node000002"><a xlink:href="class_p_a1_a_1_1_building_1_1_placement_system.html#ae762a90199bf3b51302b9eeb0a02fa4a" target="_top" xlink:title="Stops the placement of buildings.">
<polygon fill="white" stroke="#666666" points="365,-32 200.5,-32 200.5,0 365,0 365,-32"/>
<text text-anchor="start" x="208.5" y="-18.5" font-family="Helvetica,sans-Serif" font-size="10.00">PA1A.Building.PlacementSystem.</text>
<text text-anchor="middle" x="282.75" y="-6.5" font-family="Helvetica,sans-Serif" font-size="10.00">StopPlacement</text>
</a>
</g>
</g>
<!-- Node1&#45;&gt;Node2 -->
<g id="edge1_Node000001_Node000002" class="edge">
<title>Node1&#45;&gt;Node2</title>
<g id="a_edge1_Node000001_Node000002"><a xlink:title=" ">
<path fill="none" stroke="#63b8ff" d="M164.85,-16C172.77,-16 180.85,-16 188.87,-16"/>
<polygon fill="#63b8ff" stroke="#63b8ff" points="188.64,-19.5 198.64,-16 188.64,-12.5 188.64,-19.5"/>
</a>
</g>
</g>
<!-- Node2&#45;&gt;Node2 -->
<g id="edge3_Node000002_Node000002" class="edge">
<title>Node2&#45;&gt;Node2</title>
<g id="a_edge3_Node000002_Node000002"><a xlink:title=" ">
<path fill="none" stroke="#63b8ff" d="M248.7,-32.44C242.34,-41.58 253.69,-50 282.75,-50 298.64,-50 309.24,-47.48 314.54,-43.71"/>
<polygon fill="#63b8ff" stroke="#63b8ff" points="317.96,-44.42 316.51,-33.93 311.1,-43.04 317.96,-44.42"/>
</a>
</g>
</g>
<!-- Node3 -->
<g id="Node000003" class="node">
<title>Node3</title>
<g id="a_Node000003"><a xlink:href="interface_p_a1_a_1_1_building_1_1_i_building_state.html#afba2b96975fe9a003c491007beff1237" target="_top" xlink:title="Ends the current state of the building.">
<polygon fill="white" stroke="#666666" points="546,-32 401,-32 401,0 546,0 546,-32"/>
<text text-anchor="start" x="409" y="-18.5" font-family="Helvetica,sans-Serif" font-size="10.00">PA1A.Building.IBuildingState.</text>
<text text-anchor="middle" x="473.5" y="-6.5" font-family="Helvetica,sans-Serif" font-size="10.00">EndState</text>
</a>
</g>
</g>
<!-- Node2&#45;&gt;Node3 -->
<g id="edge2_Node000002_Node000003" class="edge">
<title>Node2&#45;&gt;Node3</title>
<g id="a_edge2_Node000002_Node000003"><a xlink:title=" ">
<path fill="none" stroke="#63b8ff" d="M365.44,-16C373.34,-16 381.36,-16 389.27,-16"/>
<polygon fill="#63b8ff" stroke="#63b8ff" points="389.25,-19.5 399.25,-16 389.25,-12.5 389.25,-19.5"/>
</a>
</g>
</g>
</g>
</svg>
