<?xml version="1.0" encoding="UTF-8" standalone="no"?>
<!DOCTYPE svg PUBLIC "-//W3C//DTD SVG 1.1//EN"
 "http://www.w3.org/Graphics/SVG/1.1/DTD/svg11.dtd">
<!-- Generated by graphviz version 12.1.2 (20240928.0832)
 -->
<!-- Title: PA1A.Items.UI.ClassicContainerUI.Unbuild Pages: 1 -->
<svg width="553pt" height="40pt"
 viewBox="0.00 0.00 553.25 40.00" xmlns="http://www.w3.org/2000/svg" xmlns:xlink="http://www.w3.org/1999/xlink">
<g id="graph0" class="graph" transform="scale(1 1) rotate(0) translate(4 36)">
<title>PA1A.Items.UI.ClassicContainerUI.Unbuild</title>
<!-- Node1 -->
<g id="Node000001" class="node">
<title>Node1</title>
<g id="a_Node000001"><a xlink:title="Unbuilds the IContainerUI">
<polygon fill="#999999" stroke="#666666" points="160,-32 0,-32 0,0 160,0 160,-32"/>
<text text-anchor="start" x="8" y="-18.5" font-family="Helvetica,sans-Serif" font-size="10.00">PA1A.Items.UI.ClassicContainer</text>
<text text-anchor="middle" x="80" y="-6.5" font-family="Helvetica,sans-Serif" font-size="10.00">UI.Unbuild</text>
</a>
</g>
</g>
<!-- Node2 -->
<g id="Node000002" class="node">
<title>Node2</title>
<g id="a_Node000002"><a xlink:href="class_p_a1_a_1_1_items_1_1_u_i_1_1_classic_container_u_i.html#a512bf25e19e67e6eb28ef45ed563ec7c" target="_top" xlink:title="Unbuilds the ISlotUI of the IContainer">
<polygon fill="white" stroke="#666666" points="356,-32 196,-32 196,0 356,0 356,-32"/>
<text text-anchor="start" x="204" y="-18.5" font-family="Helvetica,sans-Serif" font-size="10.00">PA1A.Items.UI.ClassicContainer</text>
<text text-anchor="middle" x="276" y="-6.5" font-family="Helvetica,sans-Serif" font-size="10.00">UI.UnbuildSlots</text>
</a>
</g>
</g>
<!-- Node1&#45;&gt;Node2 -->
<g id="edge1_Node000001_Node000002" class="edge">
<title>Node1&#45;&gt;Node2</title>
<g id="a_edge1_Node000001_Node000002"><a xlink:title=" ">
<path fill="none" stroke="#63b8ff" d="M160.47,-16C168.36,-16 176.42,-16 184.41,-16"/>
<polygon fill="#63b8ff" stroke="#63b8ff" points="184.14,-19.5 194.14,-16 184.14,-12.5 184.14,-19.5"/>
</a>
</g>
</g>
<!-- Node3 -->
<g id="Node000003" class="node">
<title>Node3</title>
<g id="a_Node000003"><a xlink:href="interface_p_a1_a_1_1_items_1_1_u_i_1_1_i_slot_u_i.html#a4a9e27fed9987e5799ea7a7c4047fca1" target="_top" xlink:title="Destroys the ISlotUI">
<polygon fill="white" stroke="#666666" points="545.25,-26 392,-26 392,-6 545.25,-6 545.25,-26"/>
<text text-anchor="middle" x="468.62" y="-12.5" font-family="Helvetica,sans-Serif" font-size="10.00">PA1A.Items.UI.ISlotUI.Destroy</text>
</a>
</g>
</g>
<!-- Node2&#45;&gt;Node3 -->
<g id="edge2_Node000002_Node000003" class="edge">
<title>Node2&#45;&gt;Node3</title>
<g id="a_edge2_Node000002_Node000003"><a xlink:title=" ">
<path fill="none" stroke="#63b8ff" d="M356.46,-16C364.29,-16 372.26,-16 380.16,-16"/>
<polygon fill="#63b8ff" stroke="#63b8ff" points="380.14,-19.5 390.14,-16 380.14,-12.5 380.14,-19.5"/>
</a>
</g>
</g>
</g>
</svg>
