<?xml version="1.0" encoding="UTF-8" standalone="no"?>
<!DOCTYPE svg PUBLIC "-//W3C//DTD SVG 1.1//EN"
 "http://www.w3.org/Graphics/SVG/1.1/DTD/svg11.dtd">
<!-- Generated by graphviz version 12.1.2 (20240928.0832)
 -->
<!-- Title: PA1A.Items.ISlotExtensions.Swap Pages: 1 -->
<svg width="357pt" height="90pt"
 viewBox="0.00 0.00 357.25 90.00" xmlns="http://www.w3.org/2000/svg" xmlns:xlink="http://www.w3.org/1999/xlink">
<g id="graph0" class="graph" transform="scale(1 1) rotate(0) translate(4 86)">
<title>PA1A.Items.ISlotExtensions.Swap</title>
<!-- Node1 -->
<g id="Node000001" class="node">
<title>Node1</title>
<g id="a_Node000001"><a xlink:title="Swaps ItemStack of the two specified ISlot">
<polygon fill="#999999" stroke="#666666" points="168.25,-51 0,-51 0,-31 168.25,-31 168.25,-51"/>
<text text-anchor="middle" x="84.12" y="-37.5" font-family="Helvetica,sans-Serif" font-size="10.00">PA1A.Items.ISlotExtensions.Swap</text>
</a>
</g>
</g>
<!-- Node2 -->
<g id="Node000002" class="node">
<title>Node2</title>
<g id="a_Node000002"><a xlink:href="interface_p_a1_a_1_1_items_1_1_i_stack_container.html#a53cdc70c7f250f8cd3372e053449c0ff" target="_top" xlink:title="Determines if the ItemStack is allowed by the IStackContainer to be given to it &#160;This methods only ac...">
<polygon fill="white" stroke="#666666" points="349.25,-82 204.25,-82 204.25,-50 349.25,-50 349.25,-82"/>
<text text-anchor="start" x="212.25" y="-68.5" font-family="Helvetica,sans-Serif" font-size="10.00">PA1A.Items.IStackContainer.</text>
<text text-anchor="middle" x="276.75" y="-56.5" font-family="Helvetica,sans-Serif" font-size="10.00">CanBeGiven</text>
</a>
</g>
</g>
<!-- Node1&#45;&gt;Node2 -->
<g id="edge1_Node000001_Node000002" class="edge">
<title>Node1&#45;&gt;Node2</title>
<g id="a_edge1_Node000001_Node000002"><a xlink:title=" ">
<path fill="none" stroke="#63b8ff" d="M165.14,-51.49C174.17,-52.68 183.38,-53.89 192.45,-55.08"/>
<polygon fill="#63b8ff" stroke="#63b8ff" points="191.96,-58.54 202.33,-56.37 192.87,-51.6 191.96,-58.54"/>
</a>
</g>
</g>
<!-- Node3 -->
<g id="Node000003" class="node">
<title>Node3</title>
<g id="a_Node000003"><a xlink:href="interface_p_a1_a_1_1_items_1_1_i_stack_container.html#aba5e1bdbf73ff89905465bb996027d21" target="_top" xlink:title="Determines if the ItemStack is allowed by the IStackContainer to be taken from it &#160;This methods only ...">
<polygon fill="white" stroke="#666666" points="349.25,-32 204.25,-32 204.25,0 349.25,0 349.25,-32"/>
<text text-anchor="start" x="212.25" y="-18.5" font-family="Helvetica,sans-Serif" font-size="10.00">PA1A.Items.IStackContainer.</text>
<text text-anchor="middle" x="276.75" y="-6.5" font-family="Helvetica,sans-Serif" font-size="10.00">CanBeTaken</text>
</a>
</g>
</g>
<!-- Node1&#45;&gt;Node3 -->
<g id="edge2_Node000001_Node000003" class="edge">
<title>Node1&#45;&gt;Node3</title>
<g id="a_edge2_Node000001_Node000003"><a xlink:title=" ">
<path fill="none" stroke="#63b8ff" d="M165.14,-30.51C174.17,-29.32 183.38,-28.11 192.45,-26.92"/>
<polygon fill="#63b8ff" stroke="#63b8ff" points="192.87,-30.4 202.33,-25.63 191.96,-23.46 192.87,-30.4"/>
</a>
</g>
</g>
</g>
</svg>
