<?xml version="1.0" encoding="UTF-8" standalone="no"?>
<!DOCTYPE svg PUBLIC "-//W3C//DTD SVG 1.1//EN"
 "http://www.w3.org/Graphics/SVG/1.1/DTD/svg11.dtd">
<!-- Generated by graphviz version 12.1.2 (20240928.0832)
 -->
<!-- Title: PA1A.Player.Controller.PlayerController.GetMomentum Pages: 1 -->
<!--zoomable 277 -->

<svg id="main" version="1.1" xmlns="http://www.w3.org/2000/svg" xmlns:xlink="http://www.w3.org/1999/xlink" xml:space="preserve" onload="init(evt)">

<style type="text/css"><![CDATA[
.node, .edge {opacity: 0.7;}
.node.selected, .edge.selected {opacity: 1;}
.edge:hover path { stroke: red; }
.edge:hover polygon { stroke: red; fill: red; }
]]></style>

<defs>
  <circle id="rim" cx="0" cy="0" r="7"/>
  <circle id="rim2" cx="0" cy="0" r="3.5"/>
  <g id="zoomPlus">
    <use xlink:href="#rim" fill="#404040"><set attributeName="fill" to="#808080" begin="zoomplus.mouseover" end="zoomplus.mouseout"/></use>
    <path d="M-4,0h8M0,-4v8" fill="none" stroke="white" stroke-width="1.5" pointer-events="none"/>
  </g>
  <g id="zoomMin">
    <use xlink:href="#rim" fill="#404040"><set attributeName="fill" to="#808080" begin="zoomminus.mouseover" end="zoomminus.mouseout"/></use>
    <path d="M-4,0h8" fill="none" stroke="white" stroke-width="1.5" pointer-events="none"/>
  </g>
  <g id="arrowUp" transform="translate(30 24)">
    <use xlink:href="#rim"/>
    <path pointer-events="none" fill="none" stroke="white" stroke-width="1.5" d="M0,-3.0v7 M-2.5,-0.5L0,-3.0L2.5,-0.5"/>
  </g>
  <g id="arrowRight" transform="rotate(90) translate(36 -43)">
    <use xlink:href="#rim"/>
    <path pointer-events="none" fill="none" stroke="white" stroke-width="1.5" d="M0,-3.0v7 M-2.5,-0.5L0,-3.0L2.5,-0.5"/>
  </g>
  <g id="arrowDown" transform="rotate(180) translate(-30 -48)">
    <use xlink:href="#rim"/>
    <path pointer-events="none" fill="none" stroke="white" stroke-width="1.5" d="M0,-3.0v7 M-2.5,-0.5L0,-3.0L2.5,-0.5"/>
  </g>
  <g id="arrowLeft" transform="rotate(270) translate(-36 17)">
    <use xlink:href="#rim"/>
    <path pointer-events="none" fill="none" stroke="white" stroke-width="1.5" d="M0,-3.0v7 M-2.5,-0.5L0,-3.0L2.5,-0.5"/>
  </g>
  <g id="resetDef">
    <use xlink:href="#rim2" fill="#404040"><set attributeName="fill" to="#808080" begin="reset.mouseover" end="reset.mouseout"/></use>
  </g>
</defs>
<script type="application/ecmascript">
var viewWidth = 535;
var viewHeight = 277;
var sectionId = 'dynsection-1';
</script>
<script type="application/ecmascript" xlink:href="svg.min.js"/>
<svg id="graph" class="graph">
<g id="viewport">
<title>PA1A.Player.Controller.PlayerController.GetMomentum</title>
<!-- Node1 -->
<g id="Node000001" class="node">
<title>Node1</title>
<g id="a_Node000001"><a xlink:title="Gets the momentum of the player.">
<polygon fill="#999999" stroke="#666666" points="147.25,-107 0,-107 0,-75 147.25,-75 147.25,-107"/>
<text text-anchor="start" x="8" y="-93.5" font-family="Helvetica,sans-Serif" font-size="10.00">PA1A.Player.Controller.Player</text>
<text text-anchor="middle" x="73.62" y="-81.5" font-family="Helvetica,sans-Serif" font-size="10.00">Controller.GetMomentum</text>
</a>
</g>
</g>
<!-- Node2 -->
<g id="Node000002" class="node">
<title>Node2</title>
<g id="a_Node000002"><a xlink:href="class_p_a1_a_1_1_player_1_1_controller_1_1_player_mover.html#a9d3a9284a00f5ef34a557a10004e253f" target="_top" xlink:title=" ">
<polygon fill="white" stroke="#666666" points="332.38,-194 185.12,-194 185.12,-162 332.38,-162 332.38,-194"/>
<text text-anchor="start" x="193.12" y="-180.5" font-family="Helvetica,sans-Serif" font-size="10.00">PA1A.Player.Controller.Player</text>
<text text-anchor="middle" x="258.75" y="-168.5" font-family="Helvetica,sans-Serif" font-size="10.00">Mover.CheckForGround</text>
</a>
</g>
</g>
<!-- Node1&#45;&gt;Node2 -->
<g id="edge1_Node000001_Node000002" class="edge">
<title>Node1&#45;&gt;Node2</title>
<g id="a_edge1_Node000001_Node000002"><a xlink:title=" ">
<path fill="none" stroke="#63b8ff" d="M109.07,-107.36C138.52,-121.35 181.09,-141.58 213.14,-156.81"/>
<polygon fill="#63b8ff" stroke="#63b8ff" points="211.25,-159.78 221.78,-160.91 214.25,-153.46 211.25,-159.78"/>
</a>
</g>
</g>
<!-- Node6 -->
<g id="Node000006" class="node">
<title>Node6</title>
<g id="a_Node000006"><a xlink:href="class_unity_utils_1_1_state_machine_1_1_state_machine.html#a3d8b3508c1fb26a730bb87dce2441ba7" target="_top" xlink:title=" ">
<polygon fill="white" stroke="#666666" points="326,-132 191.5,-132 191.5,-100 326,-100 326,-132"/>
<text text-anchor="start" x="199.5" y="-118.5" font-family="Helvetica,sans-Serif" font-size="10.00">UnityUtils.StateMachine.</text>
<text text-anchor="middle" x="258.75" y="-106.5" font-family="Helvetica,sans-Serif" font-size="10.00">StateMachine.FixedUpdate</text>
</a>
</g>
</g>
<!-- Node1&#45;&gt;Node6 -->
<g id="edge5_Node000001_Node000006" class="edge">
<title>Node1&#45;&gt;Node6</title>
<g id="a_edge5_Node000001_Node000006"><a xlink:title=" ">
<path fill="none" stroke="#63b8ff" d="M147.53,-100.95C158.19,-102.41 169.2,-103.91 179.95,-105.38"/>
<polygon fill="#63b8ff" stroke="#63b8ff" points="179.16,-108.8 189.54,-106.69 180.1,-101.87 179.16,-108.8"/>
</a>
</g>
</g>
<!-- Node8 -->
<g id="Node000008" class="node">
<title>Node8</title>
<g id="a_Node000008"><a xlink:href="class_p_a1_a_1_1_player_1_1_controller_1_1_player_mover.html#a54dca5d1de663a4fa213f373482af131" target="_top" xlink:title=" ">
<polygon fill="white" stroke="#666666" points="334.25,-82 183.25,-82 183.25,-50 334.25,-50 334.25,-82"/>
<text text-anchor="start" x="191.25" y="-68.5" font-family="Helvetica,sans-Serif" font-size="10.00">PA1A.Player.Controller.Player</text>
<text text-anchor="middle" x="258.75" y="-56.5" font-family="Helvetica,sans-Serif" font-size="10.00">Mover.SetExtendSensorRange</text>
</a>
</g>
</g>
<!-- Node1&#45;&gt;Node8 -->
<g id="edge7_Node000001_Node000008" class="edge">
<title>Node1&#45;&gt;Node8</title>
<g id="a_edge7_Node000001_Node000008"><a xlink:title=" ">
<path fill="none" stroke="#63b8ff" d="M147.53,-81.05C155.46,-79.96 163.59,-78.86 171.66,-77.75"/>
<polygon fill="#63b8ff" stroke="#63b8ff" points="172.07,-81.23 181.5,-76.41 171.12,-74.29 172.07,-81.23"/>
</a>
</g>
</g>
<!-- Node9 -->
<g id="Node000009" class="node">
<title>Node9</title>
<g id="a_Node000009"><a xlink:href="class_p_a1_a_1_1_player_1_1_controller_1_1_player_mover.html#a03dff5edf5e243cb52f692be9a00aeb3" target="_top" xlink:title=" ">
<polygon fill="white" stroke="#666666" points="332.38,-32 185.12,-32 185.12,0 332.38,0 332.38,-32"/>
<text text-anchor="start" x="193.12" y="-18.5" font-family="Helvetica,sans-Serif" font-size="10.00">PA1A.Player.Controller.Player</text>
<text text-anchor="middle" x="258.75" y="-6.5" font-family="Helvetica,sans-Serif" font-size="10.00">Mover.SetVelocity</text>
</a>
</g>
</g>
<!-- Node1&#45;&gt;Node9 -->
<g id="edge8_Node000001_Node000009" class="edge">
<title>Node1&#45;&gt;Node9</title>
<g id="a_edge8_Node000001_Node000009"><a xlink:title=" ">
<path fill="none" stroke="#63b8ff" d="M107.98,-74.51C129.27,-64.28 157.58,-51.18 183.25,-41 187.27,-39.4 191.44,-37.82 195.66,-36.27"/>
<polygon fill="#63b8ff" stroke="#63b8ff" points="196.53,-39.68 204.77,-33.01 194.17,-33.09 196.53,-39.68"/>
</a>
</g>
</g>
<!-- Node3 -->
<g id="Node000003" class="node">
<title>Node3</title>
<g id="a_Node000003"><a xlink:href="class_p_a1_a_1_1_player_1_1_controller_1_1_raycast_sensor.html#ae5faded6088a87b4cc7e82879b6db213" target="_top" xlink:title="Casts a raycast in the specified direction.">
<polygon fill="white" stroke="#666666" points="526.5,-269 370.25,-269 370.25,-237 526.5,-237 526.5,-269"/>
<text text-anchor="start" x="378.25" y="-255.5" font-family="Helvetica,sans-Serif" font-size="10.00">PA1A.Player.Controller.Raycast</text>
<text text-anchor="middle" x="448.38" y="-243.5" font-family="Helvetica,sans-Serif" font-size="10.00">Sensor.Cast</text>
</a>
</g>
</g>
<!-- Node2&#45;&gt;Node3 -->
<g id="edge2_Node000002_Node000003" class="edge">
<title>Node2&#45;&gt;Node3</title>
<g id="a_edge2_Node000002_Node000003"><a xlink:title=" ">
<path fill="none" stroke="#63b8ff" d="M293.19,-194.31C314.89,-204.6 343.94,-217.82 370.25,-228 374.53,-229.66 378.98,-231.3 383.47,-232.9"/>
<polygon fill="#63b8ff" stroke="#63b8ff" points="381.97,-236.08 392.57,-236.06 384.27,-229.47 381.97,-236.08"/>
</a>
</g>
</g>
<!-- Node4 -->
<g id="Node000004" class="node">
<title>Node4</title>
<g id="a_Node000004"><a xlink:href="class_p_a1_a_1_1_player_1_1_controller_1_1_raycast_sensor.html#a7855ea8c8a046a3352fe65059e977d79" target="_top" xlink:title="Gets the distance to the hit point.">
<polygon fill="white" stroke="#666666" points="526.5,-219 370.25,-219 370.25,-187 526.5,-187 526.5,-219"/>
<text text-anchor="start" x="378.25" y="-205.5" font-family="Helvetica,sans-Serif" font-size="10.00">PA1A.Player.Controller.Raycast</text>
<text text-anchor="middle" x="448.38" y="-193.5" font-family="Helvetica,sans-Serif" font-size="10.00">Sensor.GetDistance</text>
</a>
</g>
</g>
<!-- Node2&#45;&gt;Node4 -->
<g id="edge3_Node000002_Node000004" class="edge">
<title>Node2&#45;&gt;Node4</title>
<g id="a_edge3_Node000002_Node000004"><a xlink:title=" ">
<path fill="none" stroke="#63b8ff" d="M332.83,-187.74C341.27,-188.86 349.95,-190.02 358.57,-191.17"/>
<polygon fill="#63b8ff" stroke="#63b8ff" points="357.97,-194.62 368.35,-192.47 358.9,-187.68 357.97,-194.62"/>
</a>
</g>
</g>
<!-- Node5 -->
<g id="Node000005" class="node">
<title>Node5</title>
<g id="a_Node000005"><a xlink:href="class_p_a1_a_1_1_player_1_1_controller_1_1_raycast_sensor.html#ac4321982308b2b9ec388d93bcea78fc6" target="_top" xlink:title="Checks if a hit has been detected.">
<polygon fill="white" stroke="#666666" points="526.5,-169 370.25,-169 370.25,-137 526.5,-137 526.5,-169"/>
<text text-anchor="start" x="378.25" y="-155.5" font-family="Helvetica,sans-Serif" font-size="10.00">PA1A.Player.Controller.Raycast</text>
<text text-anchor="middle" x="448.38" y="-143.5" font-family="Helvetica,sans-Serif" font-size="10.00">Sensor.HasDetectedHit</text>
</a>
</g>
</g>
<!-- Node2&#45;&gt;Node5 -->
<g id="edge4_Node000002_Node000005" class="edge">
<title>Node2&#45;&gt;Node5</title>
<g id="a_edge4_Node000002_Node000005"><a xlink:title=" ">
<path fill="none" stroke="#63b8ff" d="M332.83,-168.26C341.27,-167.14 349.95,-165.98 358.57,-164.83"/>
<polygon fill="#63b8ff" stroke="#63b8ff" points="358.9,-168.32 368.35,-163.53 357.97,-161.38 358.9,-168.32"/>
</a>
</g>
</g>
<!-- Node7 -->
<g id="Node000007" class="node">
<title>Node7</title>
<g id="a_Node000007"><a xlink:href="interface_unity_utils_1_1_state_machine_1_1_i_state.html#a992ddc3773119ca9ab30338da056cdd5" target="_top" xlink:title=" ">
<polygon fill="white" stroke="#666666" points="511.12,-119 385.62,-119 385.62,-87 511.12,-87 511.12,-119"/>
<text text-anchor="start" x="393.62" y="-105.5" font-family="Helvetica,sans-Serif" font-size="10.00">UnityUtils.StateMachine.</text>
<text text-anchor="middle" x="448.38" y="-93.5" font-family="Helvetica,sans-Serif" font-size="10.00">IState.FixedUpdate</text>
</a>
</g>
</g>
<!-- Node6&#45;&gt;Node7 -->
<g id="edge6_Node000006_Node000007" class="edge">
<title>Node6&#45;&gt;Node7</title>
<g id="a_edge6_Node000006_Node000007"><a xlink:title=" ">
<path fill="none" stroke="#63b8ff" d="M326.43,-111.38C341.85,-110.31 358.35,-109.17 374.04,-108.08"/>
<polygon fill="#63b8ff" stroke="#63b8ff" points="374.06,-111.59 383.79,-107.41 373.57,-104.61 374.06,-111.59"/>
</a>
</g>
</g>
</g>
</svg>

<g id="navigator" transform="translate(0 0)" fill="#404254">
  <rect fill="#f2f5e9" fill-opacity="0.5" stroke="#606060" stroke-width=".5" x="0" y="0" width="60" height="60"/>
  <use id="zoomplus" xlink:href="#zoomPlus" x="17" y="9" onmousedown="handleZoom(evt,'in')"/>
  <use id="zoomminus" xlink:href="#zoomMin" x="42" y="9" onmousedown="handleZoom(evt,'out')"/>
  <use id="reset" xlink:href="#resetDef" x="30" y="36" onmousedown="handleReset()"/>
   <use id="arrowup" xlink:href="#arrowUp" x="0" y="0" onmousedown="handlePan(0,-1)"/>
  <use id="arrowright" xlink:href="#arrowRight" x="0" y="0" onmousedown="handlePan(1,0)"/>
  <use id="arrowdown" xlink:href="#arrowDown" x="0" y="0" onmousedown="handlePan(0,1)"/>
  <use id="arrowleft" xlink:href="#arrowLeft" x="0" y="0" onmousedown="handlePan(-1,0)"/>
</g>
<svg viewBox="0 0 15 15" width="100%" height="30px" preserveAspectRatio="xMaxYMin meet">
 <g id="arrow_out" transform="scale(0.3 0.3)">
  <a xlink:href="class_p_a1_a_1_1_player_1_1_controller_1_1_player_controller_a4e18b4694328e291c151c8cd2d5fc542_cgraph_org.svg" target="_base">
   <rect id="button" ry="5" rx="5" y="6" x="6" height="38" width="38"
        fill="#f2f5e9" fill-opacity="0.5" stroke="#606060" stroke-width="1.0"/>
   <path id="arrow"
     d="M 11.500037,31.436501 C 11.940474,20.09759 22.043105,11.32322 32.158766,21.979434 L 37.068811,17.246167 C 37.068811,17.246167 37.088388,32 37.088388,32 L 22.160133,31.978069 C 22.160133,31.978069 26.997745,27.140456 26.997745,27.140456 C 18.528582,18.264221 13.291696,25.230495 11.500037,31.436501 z"
     style="fill:#404040;"/>
  </a>
 </g>
</svg>

<style type='text/css'>
<![CDATA[
[data-mouse-over-selected='false'] { opacity: 0.7; }
[data-mouse-over-selected='true']  { opacity: 1.0; }
]]>
</style>
<script type="application/ecmascript"><![CDATA[
document.addEventListener('DOMContentLoaded', (event) => {
  highlightEdges();
  highlightAdjacentNodes();
});
]]></script>
</svg>
