<?xml version="1.0" encoding="UTF-8" standalone="no"?>
<!DOCTYPE svg PUBLIC "-//W3C//DTD SVG 1.1//EN"
 "http://www.w3.org/Graphics/SVG/1.1/DTD/svg11.dtd">
<!-- Generated by graphviz version 12.1.2 (20240928.0832)
 -->
<!-- Title: PA1A.Building.BuildingSystemNetworkManager Pages: 1 -->
<svg width="151pt" height="268pt"
 viewBox="0.00 0.00 151.00 268.00" xmlns="http://www.w3.org/2000/svg" xmlns:xlink="http://www.w3.org/1999/xlink">

<svg id="main" version="1.1" xmlns="http://www.w3.org/2000/svg" xmlns:xlink="http://www.w3.org/1999/xlink" xml:space="preserve">

<style type="text/css"><![CDATA[
.node, .edge {opacity: 0.7;}
.node.selected, .edge.selected {opacity: 1;}
.edge:hover path { stroke: red; }
.edge:hover polygon { stroke: red; fill: red; }
]]></style>
<script type="application/ecmascript" xlink:href="svg.min.js"/>
<svg id="graph" class="graph">
<g id="graph0" class="graph" transform="scale(1 1) rotate(0) translate(4 264)">
<title>PA1A.Building.BuildingSystemNetworkManager</title>
<!-- Node1 -->
<g id="Node000001" class="node">
<title>Node1</title>
<g id="a_Node000001"><a xlink:title="Represents a network manager for the building system.">
<polygon fill="#999999" stroke="none" points="143,-128 0,-128 0,0 143,0 143,-128"/>
<text text-anchor="start" x="4.75" y="-114.5" font-family="Helvetica,sans-Serif" font-size="10.00">PA1A.Building.BuildingSystem</text>
<text text-anchor="start" x="34.38" y="-102.5" font-family="Helvetica,sans-Serif" font-size="10.00">NetworkManager</text>
<text text-anchor="start" x="70" y="-86.5" font-family="Helvetica,sans-Serif" font-size="10.00"> </text>
<text text-anchor="start" x="7.5" y="-70.5" font-family="Helvetica,sans-Serif" font-size="10.00">+</text>
<text text-anchor="start" x="21" y="-70.5" font-family="Helvetica,sans-Serif" font-size="10.00">OnNetworkSpawn()</text>
<text text-anchor="start" x="7.5" y="-54.5" font-family="Helvetica,sans-Serif" font-size="10.00">+</text>
<text text-anchor="start" x="21" y="-54.5" font-family="Helvetica,sans-Serif" font-size="10.00">GetRepresentationIndex()</text>
<text text-anchor="start" x="7.5" y="-38.5" font-family="Helvetica,sans-Serif" font-size="10.00">+</text>
<text text-anchor="start" x="21" y="-38.5" font-family="Helvetica,sans-Serif" font-size="10.00">AddObjectAtRpc()</text>
<text text-anchor="start" x="7.5" y="-22.5" font-family="Helvetica,sans-Serif" font-size="10.00">+</text>
<text text-anchor="start" x="21" y="-22.5" font-family="Helvetica,sans-Serif" font-size="10.00">CanPlaceObjectAt()</text>
<text text-anchor="start" x="7.5" y="-6.5" font-family="Helvetica,sans-Serif" font-size="10.00">+</text>
<text text-anchor="start" x="21" y="-6.5" font-family="Helvetica,sans-Serif" font-size="10.00">RemoveObjectAtRpc()</text>
<polygon fill="#666666" stroke="#666666" points="0,-98 0,-98 143,-98 143,-98 0,-98"/>
<polygon fill="#666666" stroke="#666666" points="0,-82 0,-82 143,-82 143,-82 0,-82"/>
<polygon fill="none" stroke="#666666" points="0,0 0,-128 143,-128 143,0 0,0"/>
</a>
</g>
</g>
<!-- Node2 -->
<g id="Node000002" class="node">
<title>Node2</title>
<g id="a_Node000002"><a xlink:href="class_network_singleton.html" target="_top" xlink:title=" ">
<polygon fill="white" stroke="none" points="136.5,-260 6.5,-260 6.5,-164 136.5,-164 136.5,-260"/>
<text text-anchor="start" x="11.12" y="-246.5" font-family="Helvetica,sans-Serif" font-size="10.00">NetworkSingleton&lt; Building</text>
<text text-anchor="start" x="13" y="-234.5" font-family="Helvetica,sans-Serif" font-size="10.00">SystemNetworkManager &gt;</text>
<text text-anchor="start" x="25" y="-218.5" font-family="Helvetica,sans-Serif" font-size="10.00">+</text>
<text text-anchor="start" x="49.5" y="-218.5" font-family="Helvetica,sans-Serif" font-size="10.00">Instance</text>
<text text-anchor="start" x="25" y="-202.5" font-family="Helvetica,sans-Serif" font-size="10.00">+</text>
<text text-anchor="start" x="49.5" y="-202.5" font-family="Helvetica,sans-Serif" font-size="10.00">Awake()</text>
<text text-anchor="start" x="25" y="-186.5" font-family="Helvetica,sans-Serif" font-size="10.00">+</text>
<text text-anchor="start" x="49.5" y="-186.5" font-family="Helvetica,sans-Serif" font-size="10.00">OnDestroy()</text>
<text text-anchor="start" x="25" y="-170.5" font-family="Helvetica,sans-Serif" font-size="10.00">+</text>
<text text-anchor="start" x="49.5" y="-170.5" font-family="Helvetica,sans-Serif" font-size="10.00">OnEnable()</text>
<polygon fill="#666666" stroke="#666666" points="6.5,-230 6.5,-230 136.5,-230 136.5,-230 6.5,-230"/>
<polygon fill="#666666" stroke="#666666" points="6.5,-214 6.5,-214 47.5,-214 47.5,-214 6.5,-214"/>
<polygon fill="#666666" stroke="#666666" points="47.5,-214 47.5,-214 136.5,-214 136.5,-214 47.5,-214"/>
<polygon fill="none" stroke="#666666" points="6.5,-164 6.5,-260 136.5,-260 136.5,-164 6.5,-164"/>
</a>
</g>
</g>
<!-- Node2&#45;&gt;Node1 -->
<g id="edge1_Node000001_Node000002" class="edge">
<title>Node2&#45;&gt;Node1</title>
<g id="a_edge1_Node000001_Node000002"><a xlink:title=" ">
<path fill="none" stroke="#63b8ff" d="M71.5,-152.69C71.5,-144.53 71.5,-136.12 71.5,-127.89"/>
<polygon fill="none" stroke="#63b8ff" points="68,-152.49 71.5,-162.49 75,-152.49 68,-152.49"/>
</a>
</g>
</g>
</g>
</svg>
</svg>

<style type='text/css'>
<![CDATA[
[data-mouse-over-selected='false'] { opacity: 0.7; }
[data-mouse-over-selected='true']  { opacity: 1.0; }
]]>
</style>
<script type="application/ecmascript"><![CDATA[
document.addEventListener('DOMContentLoaded', (event) => {
  highlightEdges();
  highlightAdjacentNodes();
});
]]></script>
</svg>
