<?xml version="1.0" encoding="UTF-8" standalone="no"?>
<!DOCTYPE svg PUBLIC "-//W3C//DTD SVG 1.1//EN"
 "http://www.w3.org/Graphics/SVG/1.1/DTD/svg11.dtd">
<!-- Generated by graphviz version 12.1.2 (20240928.0832)
 -->
<!-- Title: IEnumerable Pages: 1 -->
<svg width="466pt" height="356pt"
 viewBox="0.00 0.00 465.50 356.00" xmlns="http://www.w3.org/2000/svg" xmlns:xlink="http://www.w3.org/1999/xlink">
<g id="graph0" class="graph" transform="scale(1 1) rotate(0) translate(4 352)">
<title>IEnumerable</title>
<!-- Node1 -->
<g id="Node000001" class="node">
<title>Node1</title>
<g id="a_Node000001"><a xlink:title=" ">
<polygon fill="#999999" stroke="none" points="181.5,-348 117.5,-348 117.5,-296 181.5,-296 181.5,-348"/>
<text text-anchor="start" x="122.12" y="-334.5" font-family="Helvetica,sans-Serif" font-size="10.00">IEnumerable</text>
<text text-anchor="start" x="148" y="-318.5" font-family="Helvetica,sans-Serif" font-size="10.00"> </text>
<text text-anchor="start" x="148" y="-302.5" font-family="Helvetica,sans-Serif" font-size="10.00"> </text>
<polygon fill="#666666" stroke="#666666" points="117.5,-330 117.5,-330 181.5,-330 181.5,-330 117.5,-330"/>
<polygon fill="#666666" stroke="#666666" points="117.5,-314 117.5,-314 181.5,-314 181.5,-314 117.5,-314"/>
<polygon fill="none" stroke="#666666" points="117.5,-296 117.5,-348 181.5,-348 181.5,-296 117.5,-296"/>
</a>
</g>
</g>
<!-- Node2 -->
<g id="Node000002" class="node">
<title>Node2</title>
<g id="a_Node000002"><a xlink:href="class_code_smile_1_1_multi_pal_1_1_players_1_1_couch_1_1_couch_players.html" target="_top" xlink:title="Represents the group of players (1&#45;4) playing on a single client.">
<polygon fill="white" stroke="none" points="135,-260 0,-260 0,-100 135,-100 135,-260"/>
<text text-anchor="start" x="4.88" y="-246.5" font-family="Helvetica,sans-Serif" font-size="10.00">CodeSmile.MultiPal.Players.</text>
<text text-anchor="start" x="21" y="-234.5" font-family="Helvetica,sans-Serif" font-size="10.00">Couch.CouchPlayers</text>
<text text-anchor="start" x="9" y="-218.5" font-family="Helvetica,sans-Serif" font-size="10.00">+</text>
<text text-anchor="start" x="24" y="-218.5" font-family="Helvetica,sans-Serif" font-size="10.00">this[Int32 index]</text>
<text text-anchor="start" x="9" y="-202.5" font-family="Helvetica,sans-Serif" font-size="10.00">+</text>
<text text-anchor="start" x="24" y="-202.5" font-family="Helvetica,sans-Serif" font-size="10.00">PlayerCount</text>
<text text-anchor="start" x="9" y="-186.5" font-family="Helvetica,sans-Serif" font-size="10.00">+</text>
<text text-anchor="start" x="24" y="-186.5" font-family="Helvetica,sans-Serif" font-size="10.00">GetEnumerator()</text>
<text text-anchor="start" x="9" y="-170.5" font-family="Helvetica,sans-Serif" font-size="10.00">+</text>
<text text-anchor="start" x="24" y="-170.5" font-family="Helvetica,sans-Serif" font-size="10.00">OnNetworkSpawn()</text>
<text text-anchor="start" x="9" y="-154.5" font-family="Helvetica,sans-Serif" font-size="10.00">+</text>
<text text-anchor="start" x="24" y="-154.5" font-family="Helvetica,sans-Serif" font-size="10.00">OnNetworkDespawn()</text>
<text text-anchor="start" x="9" y="-138.5" font-family="Helvetica,sans-Serif" font-size="10.00">+</text>
<text text-anchor="start" x="24" y="-138.5" font-family="Helvetica,sans-Serif" font-size="10.00">StartSpawnPlayers()</text>
<text text-anchor="start" x="9" y="-122.5" font-family="Helvetica,sans-Serif" font-size="10.00">~</text>
<text text-anchor="start" x="24" y="-122.5" font-family="Helvetica,sans-Serif" font-size="10.00">RemotePlayerJoined()</text>
<text text-anchor="start" x="9" y="-106.5" font-family="Helvetica,sans-Serif" font-size="10.00">~</text>
<text text-anchor="start" x="24" y="-106.5" font-family="Helvetica,sans-Serif" font-size="10.00">RemotePlayerLeft()</text>
<polygon fill="#666666" stroke="#666666" points="0,-230 0,-230 135,-230 135,-230 0,-230"/>
<polygon fill="#666666" stroke="#666666" points="0,-198 0,-198 22,-198 22,-198 0,-198"/>
<polygon fill="#666666" stroke="#666666" points="22,-198 22,-198 135,-198 135,-198 22,-198"/>
<polygon fill="none" stroke="#666666" points="0,-100 0,-260 135,-260 135,-100 0,-100"/>
</a>
</g>
</g>
<!-- Node1&#45;&gt;Node2 -->
<g id="edge1_Node000001_Node000002" class="edge">
<title>Node1&#45;&gt;Node2</title>
<g id="a_edge1_Node000001_Node000002"><a xlink:title=" ">
<path fill="none" stroke="#63b8ff" d="M129.25,-286.42C124.44,-278.22 119.12,-269.13 113.67,-259.83"/>
<polygon fill="none" stroke="#63b8ff" points="126.19,-288.13 134.26,-294.99 132.23,-284.59 126.19,-288.13"/>
</a>
</g>
</g>
<!-- Node3 -->
<g id="Node000003" class="node">
<title>Node3</title>
<g id="a_Node000003"><a xlink:href="class_code_smile_1_1_multi_pal_1_1_settings_1_1_prefabs_list_base.html" target="_top" xlink:title=" ">
<polygon fill="white" stroke="none" points="312,-242 153,-242 153,-118 312,-118 312,-242"/>
<text text-anchor="start" x="168.38" y="-228.5" font-family="Helvetica,sans-Serif" font-size="10.00">CodeSmile.MultiPal.Settings.</text>
<text text-anchor="start" x="196.5" y="-216.5" font-family="Helvetica,sans-Serif" font-size="10.00">PrefabsListBase</text>
<text text-anchor="start" x="157" y="-200.5" font-family="Helvetica,sans-Serif" font-size="10.00">+</text>
<text text-anchor="start" x="167" y="-200.5" font-family="Helvetica,sans-Serif" font-size="10.00">this[Int32 index]</text>
<text text-anchor="start" x="157" y="-184.5" font-family="Helvetica,sans-Serif" font-size="10.00">+</text>
<text text-anchor="start" x="167" y="-184.5" font-family="Helvetica,sans-Serif" font-size="10.00">Count</text>
<text text-anchor="start" x="157.38" y="-168.5" font-family="Helvetica,sans-Serif" font-size="10.00">#</text>
<text text-anchor="start" x="167" y="-168.5" font-family="Helvetica,sans-Serif" font-size="10.00">m_Prefabs</text>
<text text-anchor="start" x="157" y="-152.5" font-family="Helvetica,sans-Serif" font-size="10.00">+</text>
<text text-anchor="start" x="167" y="-152.5" font-family="Helvetica,sans-Serif" font-size="10.00">GetEnumerator()</text>
<text text-anchor="start" x="157" y="-136.5" font-family="Helvetica,sans-Serif" font-size="10.00">+</text>
<text text-anchor="start" x="167" y="-136.5" font-family="Helvetica,sans-Serif" font-size="10.00">ValidatePrefabsHaveComponent</text>
<text text-anchor="start" x="167" y="-124.5" font-family="Helvetica,sans-Serif" font-size="10.00">&lt; T &gt;()</text>
<polygon fill="#666666" stroke="#666666" points="153,-212 153,-212 312,-212 312,-212 153,-212"/>
<polygon fill="#666666" stroke="#666666" points="153,-164 153,-164 165,-164 165,-164 153,-164"/>
<polygon fill="#666666" stroke="#666666" points="165,-164 165,-164 312,-164 312,-164 165,-164"/>
<polygon fill="none" stroke="#666666" points="153,-118 153,-242 312,-242 312,-118 153,-118"/>
</a>
</g>
</g>
<!-- Node1&#45;&gt;Node3 -->
<g id="edge2_Node000001_Node000003" class="edge">
<title>Node1&#45;&gt;Node3</title>
<g id="a_edge2_Node000001_Node000003"><a xlink:title=" ">
<path fill="none" stroke="#63b8ff" d="M169.96,-286.5C177.95,-273.01 187.36,-257.14 196.42,-241.85"/>
<polygon fill="none" stroke="#63b8ff" points="167.01,-284.6 164.92,-294.99 173.03,-288.17 167.01,-284.6"/>
</a>
</g>
</g>
<!-- Node4 -->
<g id="Node000004" class="node">
<title>Node4</title>
<g id="a_Node000004"><a xlink:href="class_code_smile_1_1_multi_pal_1_1_settings_1_1_player_avatar_prefabs.html" target="_top" xlink:title=" ">
<polygon fill="white" stroke="none" points="145.5,-64 7.5,-64 7.5,0 145.5,0 145.5,-64"/>
<text text-anchor="start" x="12.38" y="-50.5" font-family="Helvetica,sans-Serif" font-size="10.00">CodeSmile.MultiPal.Settings.</text>
<text text-anchor="start" x="31.5" y="-38.5" font-family="Helvetica,sans-Serif" font-size="10.00">PlayerAvatarPrefabs</text>
<text text-anchor="start" x="75" y="-22.5" font-family="Helvetica,sans-Serif" font-size="10.00"> </text>
<text text-anchor="start" x="75" y="-6.5" font-family="Helvetica,sans-Serif" font-size="10.00"> </text>
<polygon fill="#666666" stroke="#666666" points="7.5,-34 7.5,-34 145.5,-34 145.5,-34 7.5,-34"/>
<polygon fill="#666666" stroke="#666666" points="7.5,-18 7.5,-18 145.5,-18 145.5,-18 7.5,-18"/>
<polygon fill="none" stroke="#666666" points="7.5,0 7.5,-64 145.5,-64 145.5,0 7.5,0"/>
</a>
</g>
</g>
<!-- Node3&#45;&gt;Node4 -->
<g id="edge3_Node000003_Node000004" class="edge">
<title>Node3&#45;&gt;Node4</title>
<g id="a_edge3_Node000003_Node000004"><a xlink:title=" ">
<path fill="none" stroke="#63b8ff" d="M159.64,-110.81C142.03,-94.33 124.06,-77.51 109.36,-63.75"/>
<polygon fill="none" stroke="#63b8ff" points="156.9,-113.04 166.59,-117.32 161.68,-107.93 156.9,-113.04"/>
</a>
</g>
</g>
<!-- Node5 -->
<g id="Node000005" class="node">
<title>Node5</title>
<g id="a_Node000005"><a xlink:href="class_code_smile_1_1_multi_pal_1_1_settings_1_1_player_camera_prefabs.html" target="_top" xlink:title=" ">
<polygon fill="white" stroke="none" points="301.5,-64 163.5,-64 163.5,0 301.5,0 301.5,-64"/>
<text text-anchor="start" x="168.38" y="-50.5" font-family="Helvetica,sans-Serif" font-size="10.00">CodeSmile.MultiPal.Settings.</text>
<text text-anchor="start" x="184.5" y="-38.5" font-family="Helvetica,sans-Serif" font-size="10.00">PlayerCameraPrefabs</text>
<text text-anchor="start" x="231" y="-22.5" font-family="Helvetica,sans-Serif" font-size="10.00"> </text>
<text text-anchor="start" x="231" y="-6.5" font-family="Helvetica,sans-Serif" font-size="10.00"> </text>
<polygon fill="#666666" stroke="#666666" points="163.5,-34 163.5,-34 301.5,-34 301.5,-34 163.5,-34"/>
<polygon fill="#666666" stroke="#666666" points="163.5,-18 163.5,-18 301.5,-18 301.5,-18 163.5,-18"/>
<polygon fill="none" stroke="#666666" points="163.5,0 163.5,-64 301.5,-64 301.5,0 163.5,0"/>
</a>
</g>
</g>
<!-- Node3&#45;&gt;Node5 -->
<g id="edge4_Node000003_Node000005" class="edge">
<title>Node3&#45;&gt;Node5</title>
<g id="a_edge4_Node000003_Node000005"><a xlink:title=" ">
<path fill="none" stroke="#63b8ff" d="M232.5,-107.24C232.5,-91.92 232.5,-76.52 232.5,-63.75"/>
<polygon fill="none" stroke="#63b8ff" points="229,-106.84 232.5,-116.84 236,-106.84 229,-106.84"/>
</a>
</g>
</g>
<!-- Node6 -->
<g id="Node000006" class="node">
<title>Node6</title>
<g id="a_Node000006"><a xlink:href="class_code_smile_1_1_multi_pal_1_1_settings_1_1_player_controller_prefabs.html" target="_top" xlink:title=" ">
<polygon fill="white" stroke="none" points="457.5,-64 319.5,-64 319.5,0 457.5,0 457.5,-64"/>
<text text-anchor="start" x="324.38" y="-50.5" font-family="Helvetica,sans-Serif" font-size="10.00">CodeSmile.MultiPal.Settings.</text>
<text text-anchor="start" x="336.75" y="-38.5" font-family="Helvetica,sans-Serif" font-size="10.00">PlayerControllerPrefabs</text>
<text text-anchor="start" x="387" y="-22.5" font-family="Helvetica,sans-Serif" font-size="10.00"> </text>
<text text-anchor="start" x="387" y="-6.5" font-family="Helvetica,sans-Serif" font-size="10.00"> </text>
<polygon fill="#666666" stroke="#666666" points="319.5,-34 319.5,-34 457.5,-34 457.5,-34 319.5,-34"/>
<polygon fill="#666666" stroke="#666666" points="319.5,-18 319.5,-18 457.5,-18 457.5,-18 319.5,-18"/>
<polygon fill="none" stroke="#666666" points="319.5,0 319.5,-64 457.5,-64 457.5,0 319.5,0"/>
</a>
</g>
</g>
<!-- Node3&#45;&gt;Node6 -->
<g id="edge5_Node000003_Node000006" class="edge">
<title>Node3&#45;&gt;Node6</title>
<g id="a_edge5_Node000003_Node000006"><a xlink:title=" ">
<path fill="none" stroke="#63b8ff" d="M305.36,-110.81C322.97,-94.33 340.94,-77.51 355.64,-63.75"/>
<polygon fill="none" stroke="#63b8ff" points="303.32,-107.93 298.41,-117.32 308.1,-113.04 303.32,-107.93"/>
</a>
</g>
</g>
</g>
</svg>
