<?xml version="1.0" encoding="UTF-8" standalone="no"?>
<!DOCTYPE svg PUBLIC "-//W3C//DTD SVG 1.1//EN"
 "http://www.w3.org/Graphics/SVG/1.1/DTD/svg11.dtd">
<!-- Generated by graphviz version 12.1.2 (20240928.0832)
 -->
<!-- Title: CodeSmile.MultiPal.Players.PlayerCamera Pages: 1 -->
<svg width="208pt" height="240pt"
 viewBox="0.00 0.00 208.00 240.00" xmlns="http://www.w3.org/2000/svg" xmlns:xlink="http://www.w3.org/1999/xlink">
<g id="graph0" class="graph" transform="scale(1 1) rotate(0) translate(4 236)">
<title>CodeSmile.MultiPal.Players.PlayerCamera</title>
<!-- Node1 -->
<g id="Node000001" class="node">
<title>Node1</title>
<g id="a_Node000001"><a xlink:title=" ">
<polygon fill="#999999" stroke="none" points="160,-96 25,-96 25,0 160,0 160,-96"/>
<text text-anchor="start" x="29.88" y="-82.5" font-family="Helvetica,sans-Serif" font-size="10.00">CodeSmile.MultiPal.Players.</text>
<text text-anchor="start" x="61.38" y="-70.5" font-family="Helvetica,sans-Serif" font-size="10.00">PlayerCamera</text>
<text text-anchor="start" x="36.5" y="-54.5" font-family="Helvetica,sans-Serif" font-size="10.00">+</text>
<text text-anchor="start" x="54" y="-54.5" font-family="Helvetica,sans-Serif" font-size="10.00">TrackingTarget</text>
<text text-anchor="start" x="36.5" y="-38.5" font-family="Helvetica,sans-Serif" font-size="10.00">+</text>
<text text-anchor="start" x="54" y="-38.5" font-family="Helvetica,sans-Serif" font-size="10.00">LookAtTarget</text>
<text text-anchor="start" x="36.5" y="-22.5" font-family="Helvetica,sans-Serif" font-size="10.00">+</text>
<text text-anchor="start" x="54" y="-22.5" font-family="Helvetica,sans-Serif" font-size="10.00">OnPlayerSpawn()</text>
<text text-anchor="start" x="36.5" y="-6.5" font-family="Helvetica,sans-Serif" font-size="10.00">+</text>
<text text-anchor="start" x="54" y="-6.5" font-family="Helvetica,sans-Serif" font-size="10.00">OnPlayerDespawn()</text>
<polygon fill="#666666" stroke="#666666" points="25,-66 25,-66 160,-66 160,-66 25,-66"/>
<polygon fill="#666666" stroke="#666666" points="25,-34 25,-34 52,-34 52,-34 25,-34"/>
<polygon fill="#666666" stroke="#666666" points="52,-34 52,-34 160,-34 160,-34 52,-34"/>
<polygon fill="none" stroke="#666666" points="25,0 25,-96 160,-96 160,0 25,0"/>
</a>
</g>
</g>
<!-- Node2 -->
<g id="Node000002" class="node">
<title>Node2</title>
<g id="a_Node000002"><a xlink:href="class_mono_behaviour.html" target="_top" xlink:title=" ">
<polygon fill="white" stroke="none" points="77,-208 0,-208 0,-156 77,-156 77,-208"/>
<text text-anchor="start" x="4.75" y="-194.5" font-family="Helvetica,sans-Serif" font-size="10.00">MonoBehaviour</text>
<text text-anchor="start" x="37" y="-178.5" font-family="Helvetica,sans-Serif" font-size="10.00"> </text>
<text text-anchor="start" x="37" y="-162.5" font-family="Helvetica,sans-Serif" font-size="10.00"> </text>
<polygon fill="#666666" stroke="#666666" points="0,-190 0,-190 77,-190 77,-190 0,-190"/>
<polygon fill="#666666" stroke="#666666" points="0,-174 0,-174 77,-174 77,-174 0,-174"/>
<polygon fill="none" stroke="#666666" points="0,-156 0,-208 77,-208 77,-156 0,-156"/>
</a>
</g>
</g>
<!-- Node2&#45;&gt;Node1 -->
<g id="edge1_Node000001_Node000002" class="edge">
<title>Node2&#45;&gt;Node1</title>
<g id="a_edge1_Node000001_Node000002"><a xlink:title=" ">
<path fill="none" stroke="#63b8ff" d="M52.98,-145.61C59.22,-130.34 66.62,-112.26 73.32,-95.89"/>
<polygon fill="none" stroke="#63b8ff" points="49.78,-144.19 49.23,-154.77 56.26,-146.84 49.78,-144.19"/>
</a>
</g>
</g>
<!-- Node3 -->
<g id="Node000003" class="node">
<title>Node3</title>
<g id="a_Node000003"><a xlink:href="interface_code_smile_1_1_multi_pal_1_1_players_1_1_i_player_component.html" target="_top" xlink:title=" ">
<polygon fill="white" stroke="none" points="200,-232 95,-232 95,-132 200,-132 200,-232"/>
<text text-anchor="start" x="107" y="-218.5" font-family="Helvetica,sans-Serif" font-size="10.00">IPlayerComponent</text>
<text text-anchor="start" x="146" y="-202.5" font-family="Helvetica,sans-Serif" font-size="10.00"> </text>
<text text-anchor="start" x="99" y="-186.5" font-family="Helvetica,sans-Serif" font-size="10.00">+</text>
<text text-anchor="start" x="109" y="-186.5" font-family="Helvetica,sans-Serif" font-size="10.00">OnPlayerSpawn()</text>
<text text-anchor="start" x="99" y="-170.5" font-family="Helvetica,sans-Serif" font-size="10.00">+</text>
<text text-anchor="start" x="109" y="-170.5" font-family="Helvetica,sans-Serif" font-size="10.00">OnPlayerDespawn()</text>
<text text-anchor="start" x="99" y="-154.5" font-family="Helvetica,sans-Serif" font-size="10.00">+</text>
<text text-anchor="start" x="109" y="-154.5" font-family="Helvetica,sans-Serif" font-size="10.00">OnPlayerDeath()</text>
<text text-anchor="start" x="99" y="-138.5" font-family="Helvetica,sans-Serif" font-size="10.00">+</text>
<text text-anchor="start" x="109" y="-138.5" font-family="Helvetica,sans-Serif" font-size="10.00">OnPlayerRespawn()</text>
<polygon fill="#666666" stroke="#666666" points="95,-214 95,-214 200,-214 200,-214 95,-214"/>
<polygon fill="#666666" stroke="#666666" points="95,-198 95,-198 200,-198 200,-198 95,-198"/>
<polygon fill="none" stroke="#666666" points="95,-132 95,-232 200,-232 200,-132 95,-132"/>
</a>
</g>
</g>
<!-- Node3&#45;&gt;Node1 -->
<g id="edge2_Node000001_Node000003" class="edge">
<title>Node3&#45;&gt;Node1</title>
<g id="a_edge2_Node000001_Node000003"><a xlink:title=" ">
<path fill="none" stroke="#63b8ff" d="M122.81,-121.75C119.19,-113.06 115.51,-104.21 112.01,-95.82"/>
<polygon fill="none" stroke="#63b8ff" points="119.52,-122.94 126.59,-130.83 125.98,-120.25 119.52,-122.94"/>
</a>
</g>
</g>
</g>
</svg>
