<?xml version="1.0" encoding="UTF-8" standalone="no"?>
<!DOCTYPE svg PUBLIC "-//W3C//DTD SVG 1.1//EN"
 "http://www.w3.org/Graphics/SVG/1.1/DTD/svg11.dtd">
<!-- Generated by graphviz version 12.1.2 (20240928.0832)
 -->
<!-- Title: PA1A.Building.PlacementState Pages: 1 -->
<svg width="153pt" height="228pt"
 viewBox="0.00 0.00 153.00 228.00" xmlns="http://www.w3.org/2000/svg" xmlns:xlink="http://www.w3.org/1999/xlink">
<g id="graph0" class="graph" transform="scale(1 1) rotate(0) translate(4 224)">
<title>PA1A.Building.PlacementState</title>
<!-- Node1 -->
<g id="Node000001" class="node">
<title>Node1</title>
<g id="a_Node000001"><a xlink:title="Represents the state of object placement in the building system.">
<polygon fill="#999999" stroke="none" points="145,-100 0,-100 0,0 145,0 145,-100"/>
<text text-anchor="start" x="5" y="-86.5" font-family="Helvetica,sans-Serif" font-size="10.00">PA1A.Building.PlacementState</text>
<text text-anchor="start" x="71" y="-70.5" font-family="Helvetica,sans-Serif" font-size="10.00"> </text>
<text text-anchor="start" x="17" y="-54.5" font-family="Helvetica,sans-Serif" font-size="10.00">+</text>
<text text-anchor="start" x="40" y="-54.5" font-family="Helvetica,sans-Serif" font-size="10.00">PlacementState()</text>
<text text-anchor="start" x="17" y="-38.5" font-family="Helvetica,sans-Serif" font-size="10.00">+</text>
<text text-anchor="start" x="40" y="-38.5" font-family="Helvetica,sans-Serif" font-size="10.00">EndState()</text>
<text text-anchor="start" x="17" y="-22.5" font-family="Helvetica,sans-Serif" font-size="10.00">+</text>
<text text-anchor="start" x="40" y="-22.5" font-family="Helvetica,sans-Serif" font-size="10.00">OnAction()</text>
<text text-anchor="start" x="17" y="-6.5" font-family="Helvetica,sans-Serif" font-size="10.00">+</text>
<text text-anchor="start" x="40" y="-6.5" font-family="Helvetica,sans-Serif" font-size="10.00">UpdateState()</text>
<polygon fill="#666666" stroke="#666666" points="0,-82 0,-82 145,-82 145,-82 0,-82"/>
<polygon fill="#666666" stroke="#666666" points="0,-66 0,-66 145,-66 145,-66 0,-66"/>
<polygon fill="none" stroke="#666666" points="0,0 0,-100 145,-100 145,0 0,0"/>
</a>
</g>
</g>
<!-- Node2 -->
<g id="Node000002" class="node">
<title>Node2</title>
<g id="a_Node000002"><a xlink:href="interface_p_a1_a_1_1_building_1_1_i_building_state.html" target="_top" xlink:title="Represents the state of a building.">
<polygon fill="white" stroke="none" points="111.5,-220 33.5,-220 33.5,-136 111.5,-136 111.5,-220"/>
<text text-anchor="start" x="42.12" y="-206.5" font-family="Helvetica,sans-Serif" font-size="10.00">IBuildingState</text>
<text text-anchor="start" x="71" y="-190.5" font-family="Helvetica,sans-Serif" font-size="10.00"> </text>
<text text-anchor="start" x="37.5" y="-174.5" font-family="Helvetica,sans-Serif" font-size="10.00">+</text>
<text text-anchor="start" x="47.5" y="-174.5" font-family="Helvetica,sans-Serif" font-size="10.00">EndState()</text>
<text text-anchor="start" x="37.5" y="-158.5" font-family="Helvetica,sans-Serif" font-size="10.00">+</text>
<text text-anchor="start" x="47.5" y="-158.5" font-family="Helvetica,sans-Serif" font-size="10.00">OnAction()</text>
<text text-anchor="start" x="37.5" y="-142.5" font-family="Helvetica,sans-Serif" font-size="10.00">+</text>
<text text-anchor="start" x="47.5" y="-142.5" font-family="Helvetica,sans-Serif" font-size="10.00">UpdateState()</text>
<polygon fill="#666666" stroke="#666666" points="33.5,-202 33.5,-202 111.5,-202 111.5,-202 33.5,-202"/>
<polygon fill="#666666" stroke="#666666" points="33.5,-186 33.5,-186 111.5,-186 111.5,-186 33.5,-186"/>
<polygon fill="none" stroke="#666666" points="33.5,-136 33.5,-220 111.5,-220 111.5,-136 33.5,-136"/>
</a>
</g>
</g>
<!-- Node2&#45;&gt;Node1 -->
<g id="edge1_Node000001_Node000002" class="edge">
<title>Node2&#45;&gt;Node1</title>
<g id="a_edge1_Node000001_Node000002"><a xlink:title=" ">
<path fill="none" stroke="#63b8ff" d="M72.5,-124.61C72.5,-116.33 72.5,-107.8 72.5,-99.61"/>
<polygon fill="none" stroke="#63b8ff" points="69,-124.58 72.5,-134.58 76,-124.58 69,-124.58"/>
</a>
</g>
</g>
</g>
</svg>
