<?xml version="1.0" encoding="UTF-8" standalone="no"?>
<!DOCTYPE svg PUBLIC "-//W3C//DTD SVG 1.1//EN"
 "http://www.w3.org/Graphics/SVG/1.1/DTD/svg11.dtd">
<!-- Generated by graphviz version 12.1.2 (20240928.0832)
 -->
<!-- Title: PA1A.Items.Container Pages: 1 -->
<svg width="320pt" height="708pt"
 viewBox="0.00 0.00 319.50 708.00" xmlns="http://www.w3.org/2000/svg" xmlns:xlink="http://www.w3.org/1999/xlink">
<g id="graph0" class="graph" transform="scale(1 1) rotate(0) translate(4 704)">
<title>PA1A.Items.Container</title>
<!-- Node1 -->
<g id="Node000001" class="node">
<title>Node1</title>
<g id="a_Node000001"><a xlink:title=" ">
<polygon fill="#999999" stroke="none" points="219,-412 105,-412 105,-136 219,-136 219,-412"/>
<text text-anchor="start" x="113.25" y="-398.5" font-family="Helvetica,sans-Serif" font-size="10.00">PA1A.Items.Container</text>
<text text-anchor="start" x="109" y="-382.5" font-family="Helvetica,sans-Serif" font-size="10.00">+</text>
<text text-anchor="start" x="119" y="-382.5" font-family="Helvetica,sans-Serif" font-size="10.00">Size</text>
<text text-anchor="start" x="109" y="-366.5" font-family="Helvetica,sans-Serif" font-size="10.00">+</text>
<text text-anchor="start" x="119" y="-366.5" font-family="Helvetica,sans-Serif" font-size="10.00">this[int i]</text>
<text text-anchor="start" x="109" y="-350.5" font-family="Helvetica,sans-Serif" font-size="10.00">+</text>
<text text-anchor="start" x="119" y="-350.5" font-family="Helvetica,sans-Serif" font-size="10.00">GetSlot()</text>
<text text-anchor="start" x="109" y="-334.5" font-family="Helvetica,sans-Serif" font-size="10.00">+</text>
<text text-anchor="start" x="119" y="-334.5" font-family="Helvetica,sans-Serif" font-size="10.00">OnNetworkSpawn()</text>
<text text-anchor="start" x="109" y="-318.5" font-family="Helvetica,sans-Serif" font-size="10.00">+</text>
<text text-anchor="start" x="119" y="-318.5" font-family="Helvetica,sans-Serif" font-size="10.00">OnNetworkDespawn()</text>
<text text-anchor="start" x="109" y="-302.5" font-family="Helvetica,sans-Serif" font-size="10.00">+</text>
<text text-anchor="start" x="119" y="-302.5" font-family="Helvetica,sans-Serif" font-size="10.00">Give()</text>
<text text-anchor="start" x="109" y="-286.5" font-family="Helvetica,sans-Serif" font-size="10.00">+</text>
<text text-anchor="start" x="119" y="-286.5" font-family="Helvetica,sans-Serif" font-size="10.00">Take()</text>
<text text-anchor="start" x="109" y="-270.5" font-family="Helvetica,sans-Serif" font-size="10.00">+</text>
<text text-anchor="start" x="119" y="-270.5" font-family="Helvetica,sans-Serif" font-size="10.00">Take()</text>
<text text-anchor="start" x="109" y="-254.5" font-family="Helvetica,sans-Serif" font-size="10.00">+</text>
<text text-anchor="start" x="119" y="-254.5" font-family="Helvetica,sans-Serif" font-size="10.00">CanBeGiven()</text>
<text text-anchor="start" x="109" y="-238.5" font-family="Helvetica,sans-Serif" font-size="10.00">+</text>
<text text-anchor="start" x="119" y="-238.5" font-family="Helvetica,sans-Serif" font-size="10.00">CanBeTaken()</text>
<text text-anchor="start" x="109" y="-222.5" font-family="Helvetica,sans-Serif" font-size="10.00">+</text>
<text text-anchor="start" x="119" y="-222.5" font-family="Helvetica,sans-Serif" font-size="10.00">Clear()</text>
<text text-anchor="start" x="109.38" y="-206.5" font-family="Helvetica,sans-Serif" font-size="10.00">#</text>
<text text-anchor="start" x="119" y="-206.5" font-family="Helvetica,sans-Serif" font-size="10.00">Awake()</text>
<text text-anchor="start" x="109.38" y="-190.5" font-family="Helvetica,sans-Serif" font-size="10.00">#</text>
<text text-anchor="start" x="119" y="-190.5" font-family="Helvetica,sans-Serif" font-size="10.00">OnContainerUpdate()</text>
<text text-anchor="start" x="109.38" y="-174.5" font-family="Helvetica,sans-Serif" font-size="10.00">#</text>
<text text-anchor="start" x="119" y="-174.5" font-family="Helvetica,sans-Serif" font-size="10.00">AddSlot()</text>
<text text-anchor="start" x="109.38" y="-158.5" font-family="Helvetica,sans-Serif" font-size="10.00">#</text>
<text text-anchor="start" x="119" y="-158.5" font-family="Helvetica,sans-Serif" font-size="10.00">RemoveSlot()</text>
<text text-anchor="start" x="109.38" y="-142.5" font-family="Helvetica,sans-Serif" font-size="10.00">#</text>
<text text-anchor="start" x="119" y="-142.5" font-family="Helvetica,sans-Serif" font-size="10.00">ClearSlots()</text>
<polygon fill="#666666" stroke="#666666" points="105,-394 105,-394 219,-394 219,-394 105,-394"/>
<polygon fill="#666666" stroke="#666666" points="105,-362 105,-362 117,-362 117,-362 105,-362"/>
<polygon fill="#666666" stroke="#666666" points="117,-362 117,-362 219,-362 219,-362 117,-362"/>
<polygon fill="none" stroke="#666666" points="105,-136 105,-412 219,-412 219,-136 105,-136"/>
</a>
</g>
</g>
<!-- Node5 -->
<g id="Node000005" class="node">
<title>Node5</title>
<g id="a_Node000005"><a xlink:href="class_p_a1_a_1_1_items_1_1_flexible_size_container.html" target="_top" xlink:title=" ">
<polygon fill="white" stroke="none" points="160,-100 0,-100 0,0 160,0 160,-100"/>
<text text-anchor="start" x="4.62" y="-86.5" font-family="Helvetica,sans-Serif" font-size="10.00">PA1A.Items.FlexibleSizeContainer</text>
<text text-anchor="start" x="78.5" y="-70.5" font-family="Helvetica,sans-Serif" font-size="10.00"> </text>
<text text-anchor="start" x="16.5" y="-54.5" font-family="Helvetica,sans-Serif" font-size="10.00">+</text>
<text text-anchor="start" x="39" y="-54.5" font-family="Helvetica,sans-Serif" font-size="10.00">Give()</text>
<text text-anchor="start" x="16.5" y="-38.5" font-family="Helvetica,sans-Serif" font-size="10.00">+</text>
<text text-anchor="start" x="39" y="-38.5" font-family="Helvetica,sans-Serif" font-size="10.00">Take()</text>
<text text-anchor="start" x="16.5" y="-22.5" font-family="Helvetica,sans-Serif" font-size="10.00">+</text>
<text text-anchor="start" x="39" y="-22.5" font-family="Helvetica,sans-Serif" font-size="10.00">Clear()</text>
<text text-anchor="start" x="16.88" y="-6.5" font-family="Helvetica,sans-Serif" font-size="10.00">#</text>
<text text-anchor="start" x="39" y="-6.5" font-family="Helvetica,sans-Serif" font-size="10.00">OnContainerUpdate()</text>
<polygon fill="#666666" stroke="#666666" points="0,-82 0,-82 160,-82 160,-82 0,-82"/>
<polygon fill="#666666" stroke="#666666" points="0,-66 0,-66 160,-66 160,-66 0,-66"/>
<polygon fill="none" stroke="#666666" points="0,0 0,-100 160,-100 160,0 0,0"/>
</a>
</g>
</g>
<!-- Node1&#45;&gt;Node5 -->
<g id="edge4_Node000001_Node000005" class="edge">
<title>Node1&#45;&gt;Node5</title>
<g id="a_edge4_Node000001_Node000005"><a xlink:title=" ">
<path fill="none" stroke="#63b8ff" d="M107.51,-125.49C104.19,-116.49 101,-107.86 98.05,-99.86"/>
<polygon fill="none" stroke="#63b8ff" points="104.2,-126.61 110.94,-134.78 110.76,-124.18 104.2,-126.61"/>
</a>
</g>
</g>
<!-- Node6 -->
<g id="Node000006" class="node">
<title>Node6</title>
<g id="a_Node000006"><a xlink:href="class_p_a1_a_1_1_items_1_1_player_inventory.html" target="_top" xlink:title="Fixed size IContainer with fixed number of ISlot">
<polygon fill="white" stroke="none" points="311.5,-100 178.5,-100 178.5,0 311.5,0 311.5,-100"/>
<text text-anchor="start" x="183.12" y="-86.5" font-family="Helvetica,sans-Serif" font-size="10.00">PA1A.Items.PlayerInventory</text>
<text text-anchor="start" x="243.5" y="-70.5" font-family="Helvetica,sans-Serif" font-size="10.00"> </text>
<text text-anchor="start" x="190" y="-54.5" font-family="Helvetica,sans-Serif" font-size="10.00">+</text>
<text text-anchor="start" x="207.5" y="-54.5" font-family="Helvetica,sans-Serif" font-size="10.00">OnNetworkSpawn()</text>
<text text-anchor="start" x="190" y="-38.5" font-family="Helvetica,sans-Serif" font-size="10.00">+</text>
<text text-anchor="start" x="207.5" y="-38.5" font-family="Helvetica,sans-Serif" font-size="10.00">Give()</text>
<text text-anchor="start" x="190" y="-22.5" font-family="Helvetica,sans-Serif" font-size="10.00">+</text>
<text text-anchor="start" x="207.5" y="-22.5" font-family="Helvetica,sans-Serif" font-size="10.00">Take()</text>
<text text-anchor="start" x="190" y="-6.5" font-family="Helvetica,sans-Serif" font-size="10.00">+</text>
<text text-anchor="start" x="207.5" y="-6.5" font-family="Helvetica,sans-Serif" font-size="10.00">Clear()</text>
<polygon fill="#666666" stroke="#666666" points="178.5,-82 178.5,-82 311.5,-82 311.5,-82 178.5,-82"/>
<polygon fill="#666666" stroke="#666666" points="178.5,-66 178.5,-66 311.5,-66 311.5,-66 178.5,-66"/>
<polygon fill="none" stroke="#666666" points="178.5,0 178.5,-100 311.5,-100 311.5,0 178.5,0"/>
</a>
</g>
</g>
<!-- Node1&#45;&gt;Node6 -->
<g id="edge5_Node000001_Node000006" class="edge">
<title>Node1&#45;&gt;Node6</title>
<g id="a_edge5_Node000001_Node000006"><a xlink:title=" ">
<path fill="none" stroke="#63b8ff" d="M217.15,-125.49C220.51,-116.49 223.74,-107.86 226.73,-99.86"/>
<polygon fill="none" stroke="#63b8ff" points="213.9,-124.19 213.68,-134.78 220.46,-126.64 213.9,-124.19"/>
</a>
</g>
</g>
<!-- Node2 -->
<g id="Node000002" class="node">
<title>Node2</title>
<g id="a_Node000002"><a xlink:href="class_network_behaviour.html" target="_top" xlink:title=" ">
<polygon fill="white" stroke="none" points="138,-516 48,-516 48,-464 138,-464 138,-516"/>
<text text-anchor="start" x="52.88" y="-502.5" font-family="Helvetica,sans-Serif" font-size="10.00">NetworkBehaviour</text>
<text text-anchor="start" x="91.5" y="-486.5" font-family="Helvetica,sans-Serif" font-size="10.00"> </text>
<text text-anchor="start" x="91.5" y="-470.5" font-family="Helvetica,sans-Serif" font-size="10.00"> </text>
<polygon fill="#666666" stroke="#666666" points="48,-498 48,-498 138,-498 138,-498 48,-498"/>
<polygon fill="#666666" stroke="#666666" points="48,-482 48,-482 138,-482 138,-482 48,-482"/>
<polygon fill="none" stroke="#666666" points="48,-464 48,-516 138,-516 138,-464 48,-464"/>
</a>
</g>
</g>
<!-- Node2&#45;&gt;Node1 -->
<g id="edge1_Node000001_Node000002" class="edge">
<title>Node2&#45;&gt;Node1</title>
<g id="a_edge1_Node000001_Node000002"><a xlink:title=" ">
<path fill="none" stroke="#63b8ff" d="M104.55,-453.17C108.45,-441.09 113.06,-426.79 117.94,-411.63"/>
<polygon fill="none" stroke="#63b8ff" points="101.25,-452 101.51,-462.59 107.91,-454.15 101.25,-452"/>
</a>
</g>
</g>
<!-- Node3 -->
<g id="Node000003" class="node">
<title>Node3</title>
<g id="a_Node000003"><a xlink:href="interface_p_a1_a_1_1_items_1_1_i_container.html" target="_top" xlink:title=" ">
<polygon fill="white" stroke="none" points="305.5,-532 156.5,-532 156.5,-448 305.5,-448 305.5,-532"/>
<text text-anchor="start" x="208.5" y="-518.5" font-family="Helvetica,sans-Serif" font-size="10.00">IContainer</text>
<text text-anchor="start" x="160.5" y="-502.5" font-family="Helvetica,sans-Serif" font-size="10.00">+</text>
<text text-anchor="start" x="170.5" y="-502.5" font-family="Helvetica,sans-Serif" font-size="10.00">Size</text>
<text text-anchor="start" x="160.5" y="-486.5" font-family="Helvetica,sans-Serif" font-size="10.00">+</text>
<text text-anchor="start" x="170.5" y="-486.5" font-family="Helvetica,sans-Serif" font-size="10.00">this[int i]</text>
<text text-anchor="start" x="160.5" y="-470.5" font-family="Helvetica,sans-Serif" font-size="10.00">+</text>
<text text-anchor="start" x="170.5" y="-470.5" font-family="Helvetica,sans-Serif" font-size="10.00">GetSlot()</text>
<text text-anchor="start" x="160.5" y="-454.5" font-family="Helvetica,sans-Serif" font-size="10.00">+</text>
<text text-anchor="start" x="170.5" y="-454.5" font-family="Helvetica,sans-Serif" font-size="10.00">OnContainerUpdateDelegate()</text>
<polygon fill="#666666" stroke="#666666" points="156.5,-514 156.5,-514 305.5,-514 305.5,-514 156.5,-514"/>
<polygon fill="#666666" stroke="#666666" points="156.5,-482 156.5,-482 168.5,-482 168.5,-482 156.5,-482"/>
<polygon fill="#666666" stroke="#666666" points="168.5,-482 168.5,-482 305.5,-482 305.5,-482 168.5,-482"/>
<polygon fill="none" stroke="#666666" points="156.5,-448 156.5,-532 305.5,-532 305.5,-448 156.5,-448"/>
</a>
</g>
</g>
<!-- Node3&#45;&gt;Node1 -->
<g id="edge2_Node000001_Node000003" class="edge">
<title>Node3&#45;&gt;Node1</title>
<g id="a_edge2_Node000001_Node000003"><a xlink:title=" ">
<path fill="none" stroke="#63b8ff" d="M214.34,-437.32C211.75,-429.3 208.98,-420.71 206.12,-411.82"/>
<polygon fill="none" stroke="#63b8ff" points="210.99,-438.36 217.39,-446.8 217.66,-436.21 210.99,-438.36"/>
</a>
</g>
</g>
<!-- Node4 -->
<g id="Node000004" class="node">
<title>Node4</title>
<g id="a_Node000004"><a xlink:href="interface_p_a1_a_1_1_items_1_1_i_stack_container.html" target="_top" xlink:title=" ">
<polygon fill="white" stroke="none" points="271,-700 191,-700 191,-568 271,-568 271,-700"/>
<text text-anchor="start" x="195.75" y="-686.5" font-family="Helvetica,sans-Serif" font-size="10.00">IStackContainer</text>
<text text-anchor="start" x="229.5" y="-670.5" font-family="Helvetica,sans-Serif" font-size="10.00"> </text>
<text text-anchor="start" x="195" y="-654.5" font-family="Helvetica,sans-Serif" font-size="10.00">+</text>
<text text-anchor="start" x="205" y="-654.5" font-family="Helvetica,sans-Serif" font-size="10.00">Give()</text>
<text text-anchor="start" x="195" y="-638.5" font-family="Helvetica,sans-Serif" font-size="10.00">+</text>
<text text-anchor="start" x="205" y="-638.5" font-family="Helvetica,sans-Serif" font-size="10.00">Take()</text>
<text text-anchor="start" x="195" y="-622.5" font-family="Helvetica,sans-Serif" font-size="10.00">+</text>
<text text-anchor="start" x="205" y="-622.5" font-family="Helvetica,sans-Serif" font-size="10.00">Take()</text>
<text text-anchor="start" x="195" y="-606.5" font-family="Helvetica,sans-Serif" font-size="10.00">+</text>
<text text-anchor="start" x="205" y="-606.5" font-family="Helvetica,sans-Serif" font-size="10.00">CanBeGiven()</text>
<text text-anchor="start" x="195" y="-590.5" font-family="Helvetica,sans-Serif" font-size="10.00">+</text>
<text text-anchor="start" x="205" y="-590.5" font-family="Helvetica,sans-Serif" font-size="10.00">CanBeTaken()</text>
<text text-anchor="start" x="195" y="-574.5" font-family="Helvetica,sans-Serif" font-size="10.00">+</text>
<text text-anchor="start" x="205" y="-574.5" font-family="Helvetica,sans-Serif" font-size="10.00">Clear()</text>
<polygon fill="#666666" stroke="#666666" points="191,-682 191,-682 271,-682 271,-682 191,-682"/>
<polygon fill="#666666" stroke="#666666" points="191,-666 191,-666 271,-666 271,-666 191,-666"/>
<polygon fill="none" stroke="#666666" points="191,-568 191,-700 271,-700 271,-568 191,-568"/>
</a>
</g>
</g>
<!-- Node4&#45;&gt;Node3 -->
<g id="edge3_Node000003_Node000004" class="edge">
<title>Node4&#45;&gt;Node3</title>
<g id="a_edge3_Node000003_Node000004"><a xlink:title=" ">
<path fill="none" stroke="#63b8ff" d="M231,-556.84C231,-548.18 231,-539.63 231,-531.7"/>
<polygon fill="none" stroke="#63b8ff" points="227.5,-556.72 231,-566.72 234.5,-556.72 227.5,-556.72"/>
</a>
</g>
</g>
</g>
</svg>
