<?xml version="1.0" encoding="UTF-8" standalone="no"?>
<!DOCTYPE svg PUBLIC "-//W3C//DTD SVG 1.1//EN"
 "http://www.w3.org/Graphics/SVG/1.1/DTD/svg11.dtd">
<!-- Generated by graphviz version 12.1.2 (20240928.0832)
 -->
<!-- Title: PA1A.Items.RangedItem Pages: 1 -->
<svg width="364pt" height="684pt"
 viewBox="0.00 0.00 364.00 684.00" xmlns="http://www.w3.org/2000/svg" xmlns:xlink="http://www.w3.org/1999/xlink">
<g id="graph0" class="graph" transform="scale(1 1) rotate(0) translate(4 680)">
<title>PA1A.Items.RangedItem</title>
<!-- Node1 -->
<g id="Node000001" class="node">
<title>Node1</title>
<g id="a_Node000001"><a xlink:title="Represents a ranged weapon item in the game.">
<polygon fill="#999999" stroke="none" points="231,-52 113,-52 113,0 231,0 231,-52"/>
<text text-anchor="start" x="117.62" y="-38.5" font-family="Helvetica,sans-Serif" font-size="10.00">PA1A.Items.RangedItem</text>
<text text-anchor="start" x="131.5" y="-22.5" font-family="Helvetica,sans-Serif" font-size="10.00">+</text>
<text text-anchor="start" x="156" y="-22.5" font-family="Helvetica,sans-Serif" font-size="10.00">projectile</text>
<text text-anchor="start" x="131.5" y="-6.5" font-family="Helvetica,sans-Serif" font-size="10.00">+</text>
<text text-anchor="start" x="156" y="-6.5" font-family="Helvetica,sans-Serif" font-size="10.00">Process()</text>
<polygon fill="#666666" stroke="#666666" points="113,-34 113,-34 231,-34 231,-34 113,-34"/>
<polygon fill="#666666" stroke="#666666" points="113,-18 113,-18 154,-18 154,-18 113,-18"/>
<polygon fill="#666666" stroke="#666666" points="154,-18 154,-18 231,-18 231,-18 154,-18"/>
<polygon fill="none" stroke="#666666" points="113,0 113,-52 231,-52 231,0 113,0"/>
</a>
</g>
</g>
<!-- Node2 -->
<g id="Node000002" class="node">
<title>Node2</title>
<g id="a_Node000002"><a xlink:href="class_p_a1_a_1_1_items_1_1_weapon_item.html" target="_top" xlink:title="Represents an abstract base class for weapon items in the game.">
<polygon fill="white" stroke="none" points="215,-140 129,-140 129,-88 215,-88 215,-140"/>
<text text-anchor="start" x="144.62" y="-126.5" font-family="Helvetica,sans-Serif" font-size="10.00">WeaponItem</text>
<text text-anchor="start" x="133" y="-110.5" font-family="Helvetica,sans-Serif" font-size="10.00">+</text>
<text text-anchor="start" x="143" y="-110.5" font-family="Helvetica,sans-Serif" font-size="10.00">weaponAbilities</text>
<text text-anchor="start" x="170.5" y="-94.5" font-family="Helvetica,sans-Serif" font-size="10.00"> </text>
<polygon fill="#666666" stroke="#666666" points="129,-122 129,-122 215,-122 215,-122 129,-122"/>
<polygon fill="#666666" stroke="#666666" points="129,-106 129,-106 141,-106 141,-106 129,-106"/>
<polygon fill="#666666" stroke="#666666" points="141,-106 141,-106 215,-106 215,-106 141,-106"/>
<polygon fill="none" stroke="#666666" points="129,-88 129,-140 215,-140 215,-88 129,-88"/>
</a>
</g>
</g>
<!-- Node2&#45;&gt;Node1 -->
<g id="edge1_Node000001_Node000002" class="edge">
<title>Node2&#45;&gt;Node1</title>
<g id="a_edge1_Node000001_Node000002"><a xlink:title=" ">
<path fill="none" stroke="#63b8ff" d="M172,-76.66C172,-68.29 172,-59.57 172,-51.82"/>
<polygon fill="none" stroke="#63b8ff" points="168.5,-76.61 172,-86.61 175.5,-76.61 168.5,-76.61"/>
</a>
</g>
</g>
<!-- Node3 -->
<g id="Node000003" class="node">
<title>Node3</title>
<g id="a_Node000003"><a xlink:href="class_p_a1_a_1_1_items_1_1_inventory_item.html" target="_top" xlink:title="Represents an abstract base class for items in the game that can be stored in an inventory.">
<polygon fill="white" stroke="none" points="242.5,-324 101.5,-324 101.5,-176 242.5,-176 242.5,-324"/>
<text text-anchor="start" x="142" y="-310.5" font-family="Helvetica,sans-Serif" font-size="10.00">InventoryItem</text>
<text text-anchor="start" x="105.5" y="-294.5" font-family="Helvetica,sans-Serif" font-size="10.00">+</text>
<text text-anchor="start" x="115.5" y="-294.5" font-family="Helvetica,sans-Serif" font-size="10.00">ColoredName</text>
<text text-anchor="start" x="105.5" y="-278.5" font-family="Helvetica,sans-Serif" font-size="10.00">+</text>
<text text-anchor="start" x="115.5" y="-278.5" font-family="Helvetica,sans-Serif" font-size="10.00">Value</text>
<text text-anchor="start" x="105.5" y="-262.5" font-family="Helvetica,sans-Serif" font-size="10.00">+</text>
<text text-anchor="start" x="115.5" y="-262.5" font-family="Helvetica,sans-Serif" font-size="10.00">Rarity</text>
<text text-anchor="start" x="105.5" y="-246.5" font-family="Helvetica,sans-Serif" font-size="10.00">+</text>
<text text-anchor="start" x="115.5" y="-246.5" font-family="Helvetica,sans-Serif" font-size="10.00">ItemPrefab</text>
<text text-anchor="start" x="105.5" y="-230.5" font-family="Helvetica,sans-Serif" font-size="10.00">+</text>
<text text-anchor="start" x="115.5" y="-230.5" font-family="Helvetica,sans-Serif" font-size="10.00">Animation</text>
<text text-anchor="start" x="105.5" y="-214.5" font-family="Helvetica,sans-Serif" font-size="10.00">+</text>
<text text-anchor="start" x="115.5" y="-214.5" font-family="Helvetica,sans-Serif" font-size="10.00">Process()</text>
<text text-anchor="start" x="105.5" y="-198.5" font-family="Helvetica,sans-Serif" font-size="10.00">+</text>
<text text-anchor="start" x="115.5" y="-198.5" font-family="Helvetica,sans-Serif" font-size="10.00">GetNameDisplayText()</text>
<text text-anchor="start" x="105.5" y="-182.5" font-family="Helvetica,sans-Serif" font-size="10.00">+</text>
<text text-anchor="start" x="115.5" y="-182.5" font-family="Helvetica,sans-Serif" font-size="10.00">GetDescriptionDisplayText()</text>
<polygon fill="#666666" stroke="#666666" points="101.5,-306 101.5,-306 242.5,-306 242.5,-306 101.5,-306"/>
<polygon fill="#666666" stroke="#666666" points="101.5,-226 101.5,-226 113.5,-226 113.5,-226 101.5,-226"/>
<polygon fill="#666666" stroke="#666666" points="113.5,-226 113.5,-226 242.5,-226 242.5,-226 113.5,-226"/>
<polygon fill="none" stroke="#666666" points="101.5,-176 101.5,-324 242.5,-324 242.5,-176 101.5,-176"/>
</a>
</g>
</g>
<!-- Node3&#45;&gt;Node2 -->
<g id="edge2_Node000002_Node000003" class="edge">
<title>Node3&#45;&gt;Node2</title>
<g id="a_edge2_Node000002_Node000003"><a xlink:title=" ">
<path fill="none" stroke="#63b8ff" d="M172,-164.66C172,-155.76 172,-147.29 172,-139.96"/>
<polygon fill="none" stroke="#63b8ff" points="168.5,-164.6 172,-174.6 175.5,-164.6 168.5,-164.6"/>
</a>
</g>
</g>
<!-- Node4 -->
<g id="Node000004" class="node">
<title>Node4</title>
<g id="a_Node000004"><a xlink:href="class_p_a1_a_1_1_items_1_1_item.html" target="_top" xlink:title="Represents an abstract base class for items in the game.">
<polygon fill="white" stroke="none" points="242.5,-588 101.5,-588 101.5,-360 242.5,-360 242.5,-588"/>
<text text-anchor="start" x="162.25" y="-574.5" font-family="Helvetica,sans-Serif" font-size="10.00">Item</text>
<text text-anchor="start" x="105.5" y="-558.5" font-family="Helvetica,sans-Serif" font-size="10.00">+</text>
<text text-anchor="start" x="115.5" y="-558.5" font-family="Helvetica,sans-Serif" font-size="10.00">Name</text>
<text text-anchor="start" x="105.5" y="-542.5" font-family="Helvetica,sans-Serif" font-size="10.00">+</text>
<text text-anchor="start" x="115.5" y="-542.5" font-family="Helvetica,sans-Serif" font-size="10.00">Description</text>
<text text-anchor="start" x="105.5" y="-526.5" font-family="Helvetica,sans-Serif" font-size="10.00">+</text>
<text text-anchor="start" x="115.5" y="-526.5" font-family="Helvetica,sans-Serif" font-size="10.00">GUID</text>
<text text-anchor="start" x="105.5" y="-510.5" font-family="Helvetica,sans-Serif" font-size="10.00">+</text>
<text text-anchor="start" x="115.5" y="-510.5" font-family="Helvetica,sans-Serif" font-size="10.00">FileID</text>
<text text-anchor="start" x="105.5" y="-494.5" font-family="Helvetica,sans-Serif" font-size="10.00">+</text>
<text text-anchor="start" x="115.5" y="-494.5" font-family="Helvetica,sans-Serif" font-size="10.00">Icon</text>
<text text-anchor="start" x="105.5" y="-478.5" font-family="Helvetica,sans-Serif" font-size="10.00">+</text>
<text text-anchor="start" x="115.5" y="-478.5" font-family="Helvetica,sans-Serif" font-size="10.00">MaxStack</text>
<text text-anchor="start" x="105.5" y="-462.5" font-family="Helvetica,sans-Serif" font-size="10.00">+</text>
<text text-anchor="start" x="115.5" y="-462.5" font-family="Helvetica,sans-Serif" font-size="10.00">GetDescriptionDisplayText()</text>
<text text-anchor="start" x="105.5" y="-446.5" font-family="Helvetica,sans-Serif" font-size="10.00">+</text>
<text text-anchor="start" x="115.5" y="-446.5" font-family="Helvetica,sans-Serif" font-size="10.00">GetNameDisplayText()</text>
<text text-anchor="start" x="105.5" y="-430.5" font-family="Helvetica,sans-Serif" font-size="10.00">+</text>
<text text-anchor="start" x="115.5" y="-430.5" font-family="Helvetica,sans-Serif" font-size="10.00">OnAfterDeserialize()</text>
<text text-anchor="start" x="105.5" y="-414.5" font-family="Helvetica,sans-Serif" font-size="10.00">+</text>
<text text-anchor="start" x="115.5" y="-414.5" font-family="Helvetica,sans-Serif" font-size="10.00">OnBeforeSerialize()</text>
<text text-anchor="start" x="105.5" y="-398.5" font-family="Helvetica,sans-Serif" font-size="10.00">+</text>
<text text-anchor="start" x="115.5" y="-398.5" font-family="Helvetica,sans-Serif" font-size="10.00">Equals()</text>
<text text-anchor="start" x="105.5" y="-382.5" font-family="Helvetica,sans-Serif" font-size="10.00">+</text>
<text text-anchor="start" x="115.5" y="-382.5" font-family="Helvetica,sans-Serif" font-size="10.00">CreateItemStack()</text>
<text text-anchor="start" x="105.5" y="-366.5" font-family="Helvetica,sans-Serif" font-size="10.00">+</text>
<text text-anchor="start" x="115.5" y="-366.5" font-family="Helvetica,sans-Serif" font-size="10.00">CreateItemStack()</text>
<polygon fill="#666666" stroke="#666666" points="101.5,-570 101.5,-570 242.5,-570 242.5,-570 101.5,-570"/>
<polygon fill="#666666" stroke="#666666" points="101.5,-474 101.5,-474 113.5,-474 113.5,-474 101.5,-474"/>
<polygon fill="#666666" stroke="#666666" points="113.5,-474 113.5,-474 242.5,-474 242.5,-474 113.5,-474"/>
<polygon fill="none" stroke="#666666" points="101.5,-360 101.5,-588 242.5,-588 242.5,-360 101.5,-360"/>
</a>
</g>
</g>
<!-- Node4&#45;&gt;Node3 -->
<g id="edge3_Node000003_Node000004" class="edge">
<title>Node4&#45;&gt;Node3</title>
<g id="a_edge3_Node000003_Node000004"><a xlink:title=" ">
<path fill="none" stroke="#63b8ff" d="M172,-348.82C172,-340.3 172,-331.9 172,-323.8"/>
<polygon fill="none" stroke="#63b8ff" points="168.5,-348.54 172,-358.54 175.5,-348.54 168.5,-348.54"/>
</a>
</g>
</g>
<!-- Node5 -->
<g id="Node000005" class="node">
<title>Node5</title>
<g id="a_Node000005"><a xlink:href="class_scriptable_object.html" target="_top" xlink:title=" ">
<polygon fill="white" stroke="none" points="82,-676 0,-676 0,-624 82,-624 82,-676"/>
<text text-anchor="start" x="5" y="-662.5" font-family="Helvetica,sans-Serif" font-size="10.00">ScriptableObject</text>
<text text-anchor="start" x="39.5" y="-646.5" font-family="Helvetica,sans-Serif" font-size="10.00"> </text>
<text text-anchor="start" x="39.5" y="-630.5" font-family="Helvetica,sans-Serif" font-size="10.00"> </text>
<polygon fill="#666666" stroke="#666666" points="0,-658 0,-658 82,-658 82,-658 0,-658"/>
<polygon fill="#666666" stroke="#666666" points="0,-642 0,-642 82,-642 82,-642 0,-642"/>
<polygon fill="none" stroke="#666666" points="0,-624 0,-676 82,-676 82,-624 0,-624"/>
</a>
</g>
</g>
<!-- Node5&#45;&gt;Node4 -->
<g id="edge4_Node000004_Node000005" class="edge">
<title>Node5&#45;&gt;Node4</title>
<g id="a_edge4_Node000004_Node000005"><a xlink:title=" ">
<path fill="none" stroke="#63b8ff" d="M66.48,-615.16C76.69,-601.6 89,-585.24 101.56,-568.56"/>
<polygon fill="none" stroke="#63b8ff" points="63.9,-612.77 60.68,-622.86 69.49,-616.98 63.9,-612.77"/>
</a>
</g>
</g>
<!-- Node6 -->
<g id="Node000006" class="node">
<title>Node6</title>
<g id="a_Node000006"><a xlink:href="class_i_serialization_callback_receiver.html" target="_top" xlink:title=" ">
<polygon fill="white" stroke="none" points="243.5,-676 100.5,-676 100.5,-624 243.5,-624 243.5,-676"/>
<text text-anchor="start" x="105.25" y="-662.5" font-family="Helvetica,sans-Serif" font-size="10.00">ISerializationCallbackReceiver</text>
<text text-anchor="start" x="170.5" y="-646.5" font-family="Helvetica,sans-Serif" font-size="10.00"> </text>
<text text-anchor="start" x="170.5" y="-630.5" font-family="Helvetica,sans-Serif" font-size="10.00"> </text>
<polygon fill="#666666" stroke="#666666" points="100.5,-658 100.5,-658 243.5,-658 243.5,-658 100.5,-658"/>
<polygon fill="#666666" stroke="#666666" points="100.5,-642 100.5,-642 243.5,-642 243.5,-642 100.5,-642"/>
<polygon fill="none" stroke="#666666" points="100.5,-624 100.5,-676 243.5,-676 243.5,-624 100.5,-624"/>
</a>
</g>
</g>
<!-- Node6&#45;&gt;Node4 -->
<g id="edge5_Node000004_Node000006" class="edge">
<title>Node6&#45;&gt;Node4</title>
<g id="a_edge5_Node000004_Node000006"><a xlink:title=" ">
<path fill="none" stroke="#63b8ff" d="M172,-612.72C172,-605.03 172,-596.53 172,-587.64"/>
<polygon fill="none" stroke="#63b8ff" points="168.5,-612.56 172,-622.56 175.5,-612.56 168.5,-612.56"/>
</a>
</g>
</g>
<!-- Node7 -->
<g id="Node000007" class="node">
<title>Node7</title>
<g id="a_Node000007"><a xlink:href="class_i_equatable.html" target="_top" xlink:title=" ">
<polygon fill="white" stroke="none" points="356,-676 262,-676 262,-624 356,-624 356,-676"/>
<text text-anchor="start" x="267" y="-662.5" font-family="Helvetica,sans-Serif" font-size="10.00">IEquatable&lt; Item &gt;</text>
<text text-anchor="start" x="307.5" y="-646.5" font-family="Helvetica,sans-Serif" font-size="10.00"> </text>
<text text-anchor="start" x="307.5" y="-630.5" font-family="Helvetica,sans-Serif" font-size="10.00"> </text>
<polygon fill="#666666" stroke="#666666" points="262,-658 262,-658 356,-658 356,-658 262,-658"/>
<polygon fill="#666666" stroke="#666666" points="262,-642 262,-642 356,-642 356,-642 262,-642"/>
<polygon fill="none" stroke="#666666" points="262,-624 262,-676 356,-676 356,-624 262,-624"/>
</a>
</g>
</g>
<!-- Node7&#45;&gt;Node4 -->
<g id="edge6_Node000004_Node000007" class="edge">
<title>Node7&#45;&gt;Node4</title>
<g id="a_edge6_Node000004_Node000007"><a xlink:title=" ">
<path fill="none" stroke="#63b8ff" d="M282.5,-615.35C270.89,-600.6 256.65,-582.51 242.31,-564.3"/>
<polygon fill="none" stroke="#63b8ff" points="279.5,-617.19 288.43,-622.88 285,-612.86 279.5,-617.19"/>
</a>
</g>
</g>
</g>
</svg>
