<?xml version="1.0" encoding="UTF-8" standalone="no"?>
<!DOCTYPE svg PUBLIC "-//W3C//DTD SVG 1.1//EN"
 "http://www.w3.org/Graphics/SVG/1.1/DTD/svg11.dtd">
<!-- Generated by graphviz version 12.1.2 (20240928.0832)
 -->
<!-- Title: CodeSmile.MultiPal.PlayerController.PlayerControllerBase Pages: 1 -->
<svg width="422pt" height="620pt"
 viewBox="0.00 0.00 421.50 620.00" xmlns="http://www.w3.org/2000/svg" xmlns:xlink="http://www.w3.org/1999/xlink">
<g id="graph0" class="graph" transform="scale(1 1) rotate(0) translate(4 616)">
<title>CodeSmile.MultiPal.PlayerController.PlayerControllerBase</title>
<!-- Node1 -->
<g id="Node000001" class="node">
<title>Node1</title>
<g id="a_Node000001"><a xlink:title=" ">
<polygon fill="#999999" stroke="none" points="250,-448 103,-448 103,0 250,0 250,-448"/>
<text text-anchor="start" x="107.88" y="-434.5" font-family="Helvetica,sans-Serif" font-size="10.00">CodeSmile.MultiPal.Player</text>
<text text-anchor="start" x="107.88" y="-422.5" font-family="Helvetica,sans-Serif" font-size="10.00">Controller.PlayerControllerBase</text>
<text text-anchor="start" x="117" y="-406.5" font-family="Helvetica,sans-Serif" font-size="10.00">+</text>
<text text-anchor="start" x="137" y="-406.5" font-family="Helvetica,sans-Serif" font-size="10.00">AnimatorParameters</text>
<text text-anchor="start" x="117" y="-390.5" font-family="Helvetica,sans-Serif" font-size="10.00">+</text>
<text text-anchor="start" x="137" y="-390.5" font-family="Helvetica,sans-Serif" font-size="10.00">DefaultTilt</text>
<text text-anchor="start" x="117" y="-374.5" font-family="Helvetica,sans-Serif" font-size="10.00">+</text>
<text text-anchor="start" x="137" y="-374.5" font-family="Helvetica,sans-Serif" font-size="10.00">DefaultPan</text>
<text text-anchor="start" x="117" y="-358.5" font-family="Helvetica,sans-Serif" font-size="10.00">+</text>
<text text-anchor="start" x="137" y="-358.5" font-family="Helvetica,sans-Serif" font-size="10.00">DefaultRoll</text>
<text text-anchor="start" x="117" y="-342.5" font-family="Helvetica,sans-Serif" font-size="10.00">+</text>
<text text-anchor="start" x="137" y="-342.5" font-family="Helvetica,sans-Serif" font-size="10.00">MotionTarget</text>
<text text-anchor="start" x="117" y="-326.5" font-family="Helvetica,sans-Serif" font-size="10.00">+</text>
<text text-anchor="start" x="137" y="-326.5" font-family="Helvetica,sans-Serif" font-size="10.00">CameraTarget</text>
<text text-anchor="start" x="117" y="-310.5" font-family="Helvetica,sans-Serif" font-size="10.00">+</text>
<text text-anchor="start" x="137" y="-310.5" font-family="Helvetica,sans-Serif" font-size="10.00">CharController</text>
<text text-anchor="start" x="117" y="-294.5" font-family="Helvetica,sans-Serif" font-size="10.00">+</text>
<text text-anchor="start" x="137" y="-294.5" font-family="Helvetica,sans-Serif" font-size="10.00">Velocity</text>
<text text-anchor="start" x="117" y="-278.5" font-family="Helvetica,sans-Serif" font-size="10.00">+</text>
<text text-anchor="start" x="137" y="-278.5" font-family="Helvetica,sans-Serif" font-size="10.00">MoveSensitivity</text>
<text text-anchor="start" x="117" y="-262.5" font-family="Helvetica,sans-Serif" font-size="10.00">+</text>
<text text-anchor="start" x="137" y="-262.5" font-family="Helvetica,sans-Serif" font-size="10.00">LookSensitivity</text>
<text text-anchor="start" x="117" y="-246.5" font-family="Helvetica,sans-Serif" font-size="10.00">+</text>
<text text-anchor="start" x="137" y="-246.5" font-family="Helvetica,sans-Serif" font-size="10.00">PlayerIndex</text>
<text text-anchor="start" x="117.38" y="-230.5" font-family="Helvetica,sans-Serif" font-size="10.00">#</text>
<text text-anchor="start" x="137" y="-230.5" font-family="Helvetica,sans-Serif" font-size="10.00">m_Sideways</text>
<text text-anchor="start" x="117.38" y="-214.5" font-family="Helvetica,sans-Serif" font-size="10.00">#</text>
<text text-anchor="start" x="137" y="-214.5" font-family="Helvetica,sans-Serif" font-size="10.00">m_Vertical</text>
<text text-anchor="start" x="117.38" y="-198.5" font-family="Helvetica,sans-Serif" font-size="10.00">#</text>
<text text-anchor="start" x="137" y="-198.5" font-family="Helvetica,sans-Serif" font-size="10.00">m_Forward</text>
<text text-anchor="start" x="117.38" y="-182.5" font-family="Helvetica,sans-Serif" font-size="10.00">#</text>
<text text-anchor="start" x="137" y="-182.5" font-family="Helvetica,sans-Serif" font-size="10.00">m_Tilt</text>
<text text-anchor="start" x="117.38" y="-166.5" font-family="Helvetica,sans-Serif" font-size="10.00">#</text>
<text text-anchor="start" x="137" y="-166.5" font-family="Helvetica,sans-Serif" font-size="10.00">m_Pan</text>
<text text-anchor="start" x="117.38" y="-150.5" font-family="Helvetica,sans-Serif" font-size="10.00">#</text>
<text text-anchor="start" x="137" y="-150.5" font-family="Helvetica,sans-Serif" font-size="10.00">m_Roll</text>
<text text-anchor="start" x="117" y="-134.5" font-family="Helvetica,sans-Serif" font-size="10.00">+</text>
<text text-anchor="start" x="137" y="-134.5" font-family="Helvetica,sans-Serif" font-size="10.00">OnMove()</text>
<text text-anchor="start" x="117" y="-118.5" font-family="Helvetica,sans-Serif" font-size="10.00">+</text>
<text text-anchor="start" x="137" y="-118.5" font-family="Helvetica,sans-Serif" font-size="10.00">OnLook()</text>
<text text-anchor="start" x="117" y="-102.5" font-family="Helvetica,sans-Serif" font-size="10.00">+</text>
<text text-anchor="start" x="137" y="-102.5" font-family="Helvetica,sans-Serif" font-size="10.00">OnCrouch()</text>
<text text-anchor="start" x="117" y="-86.5" font-family="Helvetica,sans-Serif" font-size="10.00">+</text>
<text text-anchor="start" x="137" y="-86.5" font-family="Helvetica,sans-Serif" font-size="10.00">OnJump()</text>
<text text-anchor="start" x="117" y="-70.5" font-family="Helvetica,sans-Serif" font-size="10.00">+</text>
<text text-anchor="start" x="137" y="-70.5" font-family="Helvetica,sans-Serif" font-size="10.00">OnSprint()</text>
<text text-anchor="start" x="117.38" y="-54.5" font-family="Helvetica,sans-Serif" font-size="10.00">#</text>
<text text-anchor="start" x="137" y="-54.5" font-family="Helvetica,sans-Serif" font-size="10.00">OnEnable()</text>
<text text-anchor="start" x="117.38" y="-38.5" font-family="Helvetica,sans-Serif" font-size="10.00">#</text>
<text text-anchor="start" x="137" y="-38.5" font-family="Helvetica,sans-Serif" font-size="10.00">OnDisable()</text>
<text text-anchor="start" x="117.38" y="-22.5" font-family="Helvetica,sans-Serif" font-size="10.00">#</text>
<text text-anchor="start" x="137" y="-22.5" font-family="Helvetica,sans-Serif" font-size="10.00">Move()</text>
<text text-anchor="start" x="117.38" y="-6.5" font-family="Helvetica,sans-Serif" font-size="10.00">#</text>
<text text-anchor="start" x="137" y="-6.5" font-family="Helvetica,sans-Serif" font-size="10.00">Rotate()</text>
<polygon fill="#666666" stroke="#666666" points="103,-418 103,-418 250,-418 250,-418 103,-418"/>
<polygon fill="#666666" stroke="#666666" points="103,-146 103,-146 135,-146 135,-146 103,-146"/>
<polygon fill="#666666" stroke="#666666" points="135,-146 135,-146 250,-146 250,-146 135,-146"/>
<polygon fill="none" stroke="#666666" points="103,0 103,-448 250,-448 250,0 103,0"/>
</a>
</g>
</g>
<!-- Node2 -->
<g id="Node000002" class="node">
<title>Node2</title>
<g id="a_Node000002"><a xlink:href="class_mono_behaviour.html" target="_top" xlink:title=" ">
<polygon fill="white" stroke="none" points="77,-574 0,-574 0,-522 77,-522 77,-574"/>
<text text-anchor="start" x="4.75" y="-560.5" font-family="Helvetica,sans-Serif" font-size="10.00">MonoBehaviour</text>
<text text-anchor="start" x="37" y="-544.5" font-family="Helvetica,sans-Serif" font-size="10.00"> </text>
<text text-anchor="start" x="37" y="-528.5" font-family="Helvetica,sans-Serif" font-size="10.00"> </text>
<polygon fill="#666666" stroke="#666666" points="0,-556 0,-556 77,-556 77,-556 0,-556"/>
<polygon fill="#666666" stroke="#666666" points="0,-540 0,-540 77,-540 77,-540 0,-540"/>
<polygon fill="none" stroke="#666666" points="0,-522 0,-574 77,-574 77,-522 0,-522"/>
</a>
</g>
</g>
<!-- Node2&#45;&gt;Node1 -->
<g id="edge1_Node000001_Node000002" class="edge">
<title>Node2&#45;&gt;Node1</title>
<g id="a_edge1_Node000001_Node000002"><a xlink:title=" ">
<path fill="none" stroke="#63b8ff" d="M53.62,-511.71C65.93,-483 84.28,-440.19 103.07,-396.34"/>
<polygon fill="none" stroke="#63b8ff" points="50.53,-510.04 49.81,-520.61 56.97,-512.8 50.53,-510.04"/>
</a>
</g>
</g>
<!-- Node3 -->
<g id="Node000003" class="node">
<title>Node3</title>
<g id="a_Node000003"><a xlink:href="interface_code_smile_1_1_multi_pal_1_1_input_1_1_generated_input_1_1_i_player_kinematics_actions.html" target="_top" xlink:title=" ">
<polygon fill="white" stroke="none" points="257.5,-612 95.5,-612 95.5,-484 257.5,-484 257.5,-612"/>
<text text-anchor="start" x="100.38" y="-598.5" font-family="Helvetica,sans-Serif" font-size="10.00">GeneratedInput::IPlayerKinematics</text>
<text text-anchor="start" x="160" y="-586.5" font-family="Helvetica,sans-Serif" font-size="10.00">Actions</text>
<text text-anchor="start" x="175" y="-570.5" font-family="Helvetica,sans-Serif" font-size="10.00"> </text>
<text text-anchor="start" x="123" y="-554.5" font-family="Helvetica,sans-Serif" font-size="10.00">+</text>
<text text-anchor="start" x="156.5" y="-554.5" font-family="Helvetica,sans-Serif" font-size="10.00">OnMove()</text>
<text text-anchor="start" x="123" y="-538.5" font-family="Helvetica,sans-Serif" font-size="10.00">+</text>
<text text-anchor="start" x="156.5" y="-538.5" font-family="Helvetica,sans-Serif" font-size="10.00">OnLook()</text>
<text text-anchor="start" x="123" y="-522.5" font-family="Helvetica,sans-Serif" font-size="10.00">+</text>
<text text-anchor="start" x="156.5" y="-522.5" font-family="Helvetica,sans-Serif" font-size="10.00">OnCrouch()</text>
<text text-anchor="start" x="123" y="-506.5" font-family="Helvetica,sans-Serif" font-size="10.00">+</text>
<text text-anchor="start" x="156.5" y="-506.5" font-family="Helvetica,sans-Serif" font-size="10.00">OnJump()</text>
<text text-anchor="start" x="123" y="-490.5" font-family="Helvetica,sans-Serif" font-size="10.00">+</text>
<text text-anchor="start" x="156.5" y="-490.5" font-family="Helvetica,sans-Serif" font-size="10.00">OnSprint()</text>
<polygon fill="#666666" stroke="#666666" points="95.5,-582 95.5,-582 257.5,-582 257.5,-582 95.5,-582"/>
<polygon fill="#666666" stroke="#666666" points="95.5,-566 95.5,-566 257.5,-566 257.5,-566 95.5,-566"/>
<polygon fill="none" stroke="#666666" points="95.5,-484 95.5,-612 257.5,-612 257.5,-484 95.5,-484"/>
</a>
</g>
</g>
<!-- Node3&#45;&gt;Node1 -->
<g id="edge2_Node000001_Node000003" class="edge">
<title>Node3&#45;&gt;Node1</title>
<g id="a_edge2_Node000001_Node000003"><a xlink:title=" ">
<path fill="none" stroke="#63b8ff" d="M176.5,-472.75C176.5,-464.76 176.5,-456.37 176.5,-447.69"/>
<polygon fill="none" stroke="#63b8ff" points="173,-472.64 176.5,-482.64 180,-472.64 173,-472.64"/>
</a>
</g>
</g>
<!-- Node4 -->
<g id="Node000004" class="node">
<title>Node4</title>
<g id="a_Node000004"><a xlink:href="interface_code_smile_1_1_multi_pal_1_1_animation_1_1_i_animator_parameters_provider.html" target="_top" xlink:title=" ">
<polygon fill="white" stroke="none" points="413.5,-574 275.5,-574 275.5,-522 413.5,-522 413.5,-574"/>
<text text-anchor="start" x="280.38" y="-560.5" font-family="Helvetica,sans-Serif" font-size="10.00">IAnimatorParametersProvider</text>
<text text-anchor="start" x="287" y="-544.5" font-family="Helvetica,sans-Serif" font-size="10.00">+</text>
<text text-anchor="start" x="304.5" y="-544.5" font-family="Helvetica,sans-Serif" font-size="10.00">AnimatorParameters</text>
<text text-anchor="start" x="343" y="-528.5" font-family="Helvetica,sans-Serif" font-size="10.00"> </text>
<polygon fill="#666666" stroke="#666666" points="275.5,-556 275.5,-556 413.5,-556 413.5,-556 275.5,-556"/>
<polygon fill="#666666" stroke="#666666" points="275.5,-540 275.5,-540 302.5,-540 302.5,-540 275.5,-540"/>
<polygon fill="#666666" stroke="#666666" points="302.5,-540 302.5,-540 413.5,-540 413.5,-540 302.5,-540"/>
<polygon fill="none" stroke="#666666" points="275.5,-522 275.5,-574 413.5,-574 413.5,-522 275.5,-522"/>
</a>
</g>
</g>
<!-- Node4&#45;&gt;Node1 -->
<g id="edge3_Node000001_Node000004" class="edge">
<title>Node4&#45;&gt;Node1</title>
<g id="a_edge3_Node000001_Node000004"><a xlink:title=" ">
<path fill="none" stroke="#63b8ff" d="M326.33,-512.18C307.86,-476.77 278.01,-419.57 249.81,-365.5"/>
<polygon fill="none" stroke="#63b8ff" points="323.03,-513.41 330.76,-520.66 329.23,-510.17 323.03,-513.41"/>
</a>
</g>
</g>
</g>
</svg>
