<?xml version="1.0" encoding="UTF-8" standalone="no"?>
<!DOCTYPE svg PUBLIC "-//W3C//DTD SVG 1.1//EN"
 "http://www.w3.org/Graphics/SVG/1.1/DTD/svg11.dtd">
<!-- Generated by graphviz version 12.1.2 (20240928.0832)
 -->
<!-- Title: PA1A.Building.BuildingSystemNetworkManager Pages: 1 -->
<svg width="151pt" height="252pt"
 viewBox="0.00 0.00 151.00 252.00" xmlns="http://www.w3.org/2000/svg" xmlns:xlink="http://www.w3.org/1999/xlink">
<g id="graph0" class="graph" transform="scale(1 1) rotate(0) translate(4 248)">
<title>PA1A.Building.BuildingSystemNetworkManager</title>
<!-- Node1 -->
<g id="Node000001" class="node">
<title>Node1</title>
<g id="a_Node000001"><a xlink:title="Represents a network manager for the building system.">
<polygon fill="#999999" stroke="none" points="143,-128 0,-128 0,0 143,0 143,-128"/>
<text text-anchor="start" x="4.75" y="-114.5" font-family="Helvetica,sans-Serif" font-size="10.00">PA1A.Building.BuildingSystem</text>
<text text-anchor="start" x="34.38" y="-102.5" font-family="Helvetica,sans-Serif" font-size="10.00">NetworkManager</text>
<text text-anchor="start" x="70" y="-86.5" font-family="Helvetica,sans-Serif" font-size="10.00"> </text>
<text text-anchor="start" x="7.5" y="-70.5" font-family="Helvetica,sans-Serif" font-size="10.00">+</text>
<text text-anchor="start" x="21" y="-70.5" font-family="Helvetica,sans-Serif" font-size="10.00">OnNetworkSpawn()</text>
<text text-anchor="start" x="7.5" y="-54.5" font-family="Helvetica,sans-Serif" font-size="10.00">+</text>
<text text-anchor="start" x="21" y="-54.5" font-family="Helvetica,sans-Serif" font-size="10.00">GetRepresentationIndex()</text>
<text text-anchor="start" x="7.5" y="-38.5" font-family="Helvetica,sans-Serif" font-size="10.00">+</text>
<text text-anchor="start" x="21" y="-38.5" font-family="Helvetica,sans-Serif" font-size="10.00">AddObjectAtRpc()</text>
<text text-anchor="start" x="7.5" y="-22.5" font-family="Helvetica,sans-Serif" font-size="10.00">+</text>
<text text-anchor="start" x="21" y="-22.5" font-family="Helvetica,sans-Serif" font-size="10.00">CanPlaceObjectAt()</text>
<text text-anchor="start" x="7.5" y="-6.5" font-family="Helvetica,sans-Serif" font-size="10.00">+</text>
<text text-anchor="start" x="21" y="-6.5" font-family="Helvetica,sans-Serif" font-size="10.00">RemoveObjectAtRpc()</text>
<polygon fill="#666666" stroke="#666666" points="0,-98 0,-98 143,-98 143,-98 0,-98"/>
<polygon fill="#666666" stroke="#666666" points="0,-82 0,-82 143,-82 143,-82 0,-82"/>
<polygon fill="none" stroke="#666666" points="0,0 0,-128 143,-128 143,0 0,0"/>
</a>
</g>
</g>
<!-- Node2 -->
<g id="Node000002" class="node">
<title>Node2</title>
<g id="a_Node000002"><a xlink:href="class_network_singleton.html" target="_top" xlink:title=" ">
<polygon fill="white" stroke="none" points="136.5,-244 6.5,-244 6.5,-164 136.5,-164 136.5,-244"/>
<text text-anchor="start" x="11.12" y="-230.5" font-family="Helvetica,sans-Serif" font-size="10.00">NetworkSingleton&lt; Building</text>
<text text-anchor="start" x="13" y="-218.5" font-family="Helvetica,sans-Serif" font-size="10.00">SystemNetworkManager &gt;</text>
<text text-anchor="start" x="25" y="-202.5" font-family="Helvetica,sans-Serif" font-size="10.00">+</text>
<text text-anchor="start" x="49.5" y="-202.5" font-family="Helvetica,sans-Serif" font-size="10.00">Instance</text>
<text text-anchor="start" x="25" y="-186.5" font-family="Helvetica,sans-Serif" font-size="10.00">+</text>
<text text-anchor="start" x="49.5" y="-186.5" font-family="Helvetica,sans-Serif" font-size="10.00">Awake()</text>
<text text-anchor="start" x="25" y="-170.5" font-family="Helvetica,sans-Serif" font-size="10.00">+</text>
<text text-anchor="start" x="49.5" y="-170.5" font-family="Helvetica,sans-Serif" font-size="10.00">OnDestroy()</text>
<polygon fill="#666666" stroke="#666666" points="6.5,-214 6.5,-214 136.5,-214 136.5,-214 6.5,-214"/>
<polygon fill="#666666" stroke="#666666" points="6.5,-198 6.5,-198 47.5,-198 47.5,-198 6.5,-198"/>
<polygon fill="#666666" stroke="#666666" points="47.5,-198 47.5,-198 136.5,-198 136.5,-198 47.5,-198"/>
<polygon fill="none" stroke="#666666" points="6.5,-164 6.5,-244 136.5,-244 136.5,-164 6.5,-164"/>
</a>
</g>
</g>
<!-- Node2&#45;&gt;Node1 -->
<g id="edge1_Node000001_Node000002" class="edge">
<title>Node2&#45;&gt;Node1</title>
<g id="a_edge1_Node000001_Node000002"><a xlink:title=" ">
<path fill="none" stroke="#63b8ff" d="M71.5,-152.95C71.5,-144.78 71.5,-136.23 71.5,-127.8"/>
<polygon fill="none" stroke="#63b8ff" points="68,-152.68 71.5,-162.68 75,-152.68 68,-152.68"/>
</a>
</g>
</g>
</g>
</svg>
