<?xml version="1.0" encoding="UTF-8" standalone="no"?>
<!DOCTYPE svg PUBLIC "-//W3C//DTD SVG 1.1//EN"
 "http://www.w3.org/Graphics/SVG/1.1/DTD/svg11.dtd">
<!-- Generated by graphviz version 12.1.2 (20240928.0832)
 -->
<!-- Title: PA1A.Building.BuildablesDatabaseSO Pages: 1 -->
<svg width="137pt" height="172pt"
 viewBox="0.00 0.00 137.00 172.00" xmlns="http://www.w3.org/2000/svg" xmlns:xlink="http://www.w3.org/1999/xlink">
<g id="graph0" class="graph" transform="scale(1 1) rotate(0) translate(4 168)">
<title>PA1A.Building.BuildablesDatabaseSO</title>
<!-- Node1 -->
<g id="Node000001" class="node">
<title>Node1</title>
<g id="a_Node000001"><a xlink:title="Represents a database of buildable objects.">
<polygon fill="#999999" stroke="none" points="124.5,-64 4.5,-64 4.5,0 124.5,0 124.5,-64"/>
<text text-anchor="start" x="9.38" y="-50.5" font-family="Helvetica,sans-Serif" font-size="10.00">PA1A.Building.Buildables</text>
<text text-anchor="start" x="36.38" y="-38.5" font-family="Helvetica,sans-Serif" font-size="10.00">DatabaseSO</text>
<text text-anchor="start" x="21" y="-22.5" font-family="Helvetica,sans-Serif" font-size="10.00">+</text>
<text text-anchor="start" x="43.5" y="-22.5" font-family="Helvetica,sans-Serif" font-size="10.00">objectsData</text>
<text text-anchor="start" x="63" y="-6.5" font-family="Helvetica,sans-Serif" font-size="10.00"> </text>
<polygon fill="#666666" stroke="#666666" points="4.5,-34 4.5,-34 124.5,-34 124.5,-34 4.5,-34"/>
<polygon fill="#666666" stroke="#666666" points="4.5,-18 4.5,-18 41.5,-18 41.5,-18 4.5,-18"/>
<polygon fill="#666666" stroke="#666666" points="41.5,-18 41.5,-18 124.5,-18 124.5,-18 41.5,-18"/>
<polygon fill="none" stroke="#666666" points="4.5,0 4.5,-64 124.5,-64 124.5,0 4.5,0"/>
</a>
</g>
</g>
<!-- Node2 -->
<g id="Node000002" class="node">
<title>Node2</title>
<g id="a_Node000002"><a xlink:href="class_scriptable_singleton.html" target="_top" xlink:title=" ">
<polygon fill="white" stroke="none" points="129,-164 0,-164 0,-100 129,-100 129,-164"/>
<text text-anchor="start" x="4.88" y="-150.5" font-family="Helvetica,sans-Serif" font-size="10.00">ScriptableSingleton</text>
<text text-anchor="start" x="4.88" y="-138.5" font-family="Helvetica,sans-Serif" font-size="10.00">&lt; BuildablesDatabaseSO &gt;</text>
<text text-anchor="start" x="22.5" y="-122.5" font-family="Helvetica,sans-Serif" font-size="10.00">+</text>
<text text-anchor="start" x="51" y="-122.5" font-family="Helvetica,sans-Serif" font-size="10.00">Instance</text>
<text text-anchor="start" x="63" y="-106.5" font-family="Helvetica,sans-Serif" font-size="10.00"> </text>
<polygon fill="#666666" stroke="#666666" points="0,-134 0,-134 129,-134 129,-134 0,-134"/>
<polygon fill="#666666" stroke="#666666" points="0,-118 0,-118 49,-118 49,-118 0,-118"/>
<polygon fill="#666666" stroke="#666666" points="49,-118 49,-118 129,-118 129,-118 49,-118"/>
<polygon fill="none" stroke="#666666" points="0,-100 0,-164 129,-164 129,-100 0,-100"/>
</a>
</g>
</g>
<!-- Node2&#45;&gt;Node1 -->
<g id="edge1_Node000001_Node000002" class="edge">
<title>Node2&#45;&gt;Node1</title>
<g id="a_edge1_Node000001_Node000002"><a xlink:title=" ">
<path fill="none" stroke="#63b8ff" d="M64.5,-88.77C64.5,-80.44 64.5,-71.84 64.5,-63.97"/>
<polygon fill="none" stroke="#63b8ff" points="61,-88.75 64.5,-98.75 68,-88.75 61,-88.75"/>
</a>
</g>
</g>
</g>
</svg>
