<?xml version="1.0" encoding="UTF-8" standalone="no"?>
<!DOCTYPE svg PUBLIC "-//W3C//DTD SVG 1.1//EN"
 "http://www.w3.org/Graphics/SVG/1.1/DTD/svg11.dtd">
<!-- Generated by graphviz version 12.1.2 (20240928.0832)
 -->
<!-- Title: PA1A.Items.FlexibleSizeContainer.OnContainerUpdate Pages: 1 -->
<svg width="384pt" height="116pt"
 viewBox="0.00 0.00 384.25 116.00" xmlns="http://www.w3.org/2000/svg" xmlns:xlink="http://www.w3.org/1999/xlink">
<g id="graph0" class="graph" transform="scale(1 1) rotate(0) translate(4 112)">
<title>PA1A.Items.FlexibleSizeContainer.OnContainerUpdate</title>
<!-- Node1 -->
<g id="Node000001" class="node">
<title>Node1</title>
<g id="a_Node000001"><a xlink:title=" ">
<polygon fill="#999999" stroke="#666666" points="169.75,-70 0,-70 0,-38 169.75,-38 169.75,-70"/>
<text text-anchor="start" x="8" y="-56.5" font-family="Helvetica,sans-Serif" font-size="10.00">PA1A.Items.FlexibleSizeContainer.</text>
<text text-anchor="middle" x="84.88" y="-44.5" font-family="Helvetica,sans-Serif" font-size="10.00">OnContainerUpdate</text>
</a>
</g>
</g>
<!-- Node2 -->
<g id="Node000002" class="node">
<title>Node2</title>
<g id="a_Node000002"><a xlink:href="class_p_a1_a_1_1_items_1_1_container.html#a1307c9556d9ea68977203ecdc5aa8049" target="_top" xlink:title="Adds the specified ISlot to the Container">
<polygon fill="white" stroke="#666666" points="366.5,-108 215.5,-108 215.5,-88 366.5,-88 366.5,-108"/>
<text text-anchor="middle" x="291" y="-94.5" font-family="Helvetica,sans-Serif" font-size="10.00">PA1A.Items.Container.AddSlot</text>
</a>
</g>
</g>
<!-- Node1&#45;&gt;Node2 -->
<g id="edge1_Node000001_Node000002" class="edge">
<title>Node1&#45;&gt;Node2</title>
<g id="a_edge1_Node000001_Node000002"><a xlink:title=" ">
<path fill="none" stroke="#63b8ff" d="M162.17,-70.45C184.64,-75.29 208.88,-80.51 230.15,-85.1"/>
<polygon fill="#63b8ff" stroke="#63b8ff" points="229.31,-88.5 239.82,-87.18 230.79,-81.66 229.31,-88.5"/>
</a>
</g>
</g>
<!-- Node3 -->
<g id="Node000003" class="node">
<title>Node3</title>
<g id="a_Node000003"><a xlink:href="class_p_a1_a_1_1_items_1_1_container.html#a9e1cc2a7589e7b0d8e1d97fd7d94b808" target="_top" xlink:title="Clears all the ISlot from the Container">
<polygon fill="white" stroke="#666666" points="360.88,-70 221.12,-70 221.12,-38 360.88,-38 360.88,-70"/>
<text text-anchor="start" x="229.12" y="-56.5" font-family="Helvetica,sans-Serif" font-size="10.00">PA1A.Items.Container.Clear</text>
<text text-anchor="middle" x="291" y="-44.5" font-family="Helvetica,sans-Serif" font-size="10.00">Slots</text>
</a>
</g>
</g>
<!-- Node1&#45;&gt;Node3 -->
<g id="edge2_Node000001_Node000003" class="edge">
<title>Node1&#45;&gt;Node3</title>
<g id="a_edge2_Node000001_Node000003"><a xlink:title=" ">
<path fill="none" stroke="#63b8ff" d="M170.08,-54C183.16,-54 196.64,-54 209.64,-54"/>
<polygon fill="#63b8ff" stroke="#63b8ff" points="209.39,-57.5 219.39,-54 209.39,-50.5 209.39,-57.5"/>
</a>
</g>
</g>
<!-- Node4 -->
<g id="Node000004" class="node">
<title>Node4</title>
<g id="a_Node000004"><a xlink:href="class_p_a1_a_1_1_items_1_1_container.html#a04a7d7b3a897c8b05ca45e4fcbdc3431" target="_top" xlink:title="Removes the ISlot at the specified index from the Container">
<polygon fill="white" stroke="#666666" points="376.25,-20 205.75,-20 205.75,0 376.25,0 376.25,-20"/>
<text text-anchor="middle" x="291" y="-6.5" font-family="Helvetica,sans-Serif" font-size="10.00">PA1A.Items.Container.RemoveSlot</text>
</a>
</g>
</g>
<!-- Node1&#45;&gt;Node4 -->
<g id="edge3_Node000001_Node000004" class="edge">
<title>Node1&#45;&gt;Node4</title>
<g id="a_edge3_Node000001_Node000004"><a xlink:title=" ">
<path fill="none" stroke="#63b8ff" d="M162.17,-37.55C184.64,-32.71 208.88,-27.49 230.15,-22.9"/>
<polygon fill="#63b8ff" stroke="#63b8ff" points="230.79,-26.34 239.82,-20.82 229.31,-19.5 230.79,-26.34"/>
</a>
</g>
</g>
</g>
</svg>
