<?xml version="1.0" encoding="UTF-8" standalone="no"?>
<!DOCTYPE svg PUBLIC "-//W3C//DTD SVG 1.1//EN"
 "http://www.w3.org/Graphics/SVG/1.1/DTD/svg11.dtd">
<!-- Generated by graphviz version 12.1.2 (20240928.0832)
 -->
<!-- Title: PA1A.Items.Container.ClearSlots Pages: 1 -->
<svg width="354pt" height="90pt"
 viewBox="0.00 0.00 353.50 90.00" xmlns="http://www.w3.org/2000/svg" xmlns:xlink="http://www.w3.org/1999/xlink">
<g id="graph0" class="graph" transform="scale(1 1) rotate(0) translate(4 86)">
<title>PA1A.Items.Container.ClearSlots</title>
<!-- Node1 -->
<g id="Node000001" class="node">
<title>Node1</title>
<g id="a_Node000001"><a xlink:title="Clears all the ISlot from the Container">
<polygon fill="#999999" stroke="#666666" points="345.5,-57 205.75,-57 205.75,-25 345.5,-25 345.5,-57"/>
<text text-anchor="start" x="213.75" y="-43.5" font-family="Helvetica,sans-Serif" font-size="10.00">PA1A.Items.Container.Clear</text>
<text text-anchor="middle" x="275.62" y="-31.5" font-family="Helvetica,sans-Serif" font-size="10.00">Slots</text>
</a>
</g>
</g>
<!-- Node2 -->
<g id="Node000002" class="node">
<title>Node2</title>
<g id="a_Node000002"><a xlink:href="class_p_a1_a_1_1_items_1_1_flexible_size_container.html#a79193821182a3c22b2bf23f32e79abad" target="_top" xlink:title=" ">
<polygon fill="white" stroke="#666666" points="169.75,-82 0,-82 0,-50 169.75,-50 169.75,-82"/>
<text text-anchor="start" x="8" y="-68.5" font-family="Helvetica,sans-Serif" font-size="10.00">PA1A.Items.FlexibleSizeContainer.</text>
<text text-anchor="middle" x="84.88" y="-56.5" font-family="Helvetica,sans-Serif" font-size="10.00">OnContainerUpdate</text>
</a>
</g>
</g>
<!-- Node1&#45;&gt;Node2 -->
<g id="edge1_Node000001_Node000002" class="edge">
<title>Node1&#45;&gt;Node2</title>
<g id="a_edge1_Node000001_Node000002"><a xlink:title=" ">
<path fill="none" stroke="#63b8ff" d="M194.25,-51.65C186.28,-52.7 178.17,-53.78 170.15,-54.84"/>
<polygon fill="#63b8ff" stroke="#63b8ff" points="194.46,-55.15 203.91,-50.37 193.54,-48.21 194.46,-55.15"/>
</a>
</g>
</g>
<!-- Node3 -->
<g id="Node000003" class="node">
<title>Node3</title>
<g id="a_Node000003"><a xlink:href="class_p_a1_a_1_1_items_1_1_container.html#a166fd9b1fb3bb00c0d99a4b727413589" target="_top" xlink:title=" ">
<polygon fill="white" stroke="#666666" points="167.88,-32 1.88,-32 1.88,0 167.88,0 167.88,-32"/>
<text text-anchor="start" x="9.88" y="-18.5" font-family="Helvetica,sans-Serif" font-size="10.00">PA1A.Items.Container.OnNetwork</text>
<text text-anchor="middle" x="84.88" y="-6.5" font-family="Helvetica,sans-Serif" font-size="10.00">Despawn</text>
</a>
</g>
</g>
<!-- Node1&#45;&gt;Node3 -->
<g id="edge2_Node000001_Node000003" class="edge">
<title>Node1&#45;&gt;Node3</title>
<g id="a_edge2_Node000001_Node000003"><a xlink:title=" ">
<path fill="none" stroke="#63b8ff" d="M194.21,-30.35C185.6,-29.21 176.84,-28.05 168.21,-26.9"/>
<polygon fill="#63b8ff" stroke="#63b8ff" points="193.54,-33.79 203.91,-31.63 194.46,-26.85 193.54,-33.79"/>
</a>
</g>
</g>
</g>
</svg>
