<?xml version="1.0" encoding="UTF-8" standalone="no"?>
<!DOCTYPE svg PUBLIC "-//W3C//DTD SVG 1.1//EN"
 "http://www.w3.org/Graphics/SVG/1.1/DTD/svg11.dtd">
<!-- Generated by graphviz version 12.1.2 (20240928.0832)
 -->
<!-- Title: PA1A.Items.IContainerExtensions.GetSpace Pages: 1 -->
<svg width="365pt" height="78pt"
 viewBox="0.00 0.00 364.75 78.00" xmlns="http://www.w3.org/2000/svg" xmlns:xlink="http://www.w3.org/1999/xlink">
<g id="graph0" class="graph" transform="scale(1 1) rotate(0) translate(4 74)">
<title>PA1A.Items.IContainerExtensions.GetSpace</title>
<!-- Node1 -->
<g id="Node000001" class="node">
<title>Node1</title>
<g id="a_Node000001"><a xlink:title="Determines the remaining space for ItemStack that could be given to the IContainer">
<polygon fill="#999999" stroke="#666666" points="168.25,-48 0,-48 0,-16 168.25,-16 168.25,-48"/>
<text text-anchor="start" x="8" y="-34.5" font-family="Helvetica,sans-Serif" font-size="10.00">PA1A.Items.IContainerExtensions.</text>
<text text-anchor="middle" x="84.12" y="-22.5" font-family="Helvetica,sans-Serif" font-size="10.00">GetSpace</text>
</a>
</g>
</g>
<!-- Node2 -->
<g id="Node000002" class="node">
<title>Node2</title>
<g id="a_Node000002"><a xlink:href="interface_p_a1_a_1_1_items_1_1_i_stack_container.html#a53cdc70c7f250f8cd3372e053449c0ff" target="_top" xlink:title="Determines if the ItemStack is allowed by the IStackContainer to be given to it &#160;This methods only ac...">
<polygon fill="white" stroke="#666666" points="353,-70 208,-70 208,-38 353,-38 353,-70"/>
<text text-anchor="start" x="216" y="-56.5" font-family="Helvetica,sans-Serif" font-size="10.00">PA1A.Items.IStackContainer.</text>
<text text-anchor="middle" x="280.5" y="-44.5" font-family="Helvetica,sans-Serif" font-size="10.00">CanBeGiven</text>
</a>
</g>
</g>
<!-- Node1&#45;&gt;Node2 -->
<g id="edge1_Node000001_Node000002" class="edge">
<title>Node1&#45;&gt;Node2</title>
<g id="a_edge1_Node000001_Node000002"><a xlink:title=" ">
<path fill="none" stroke="#63b8ff" d="M168.69,-41.46C177.8,-42.49 187.08,-43.54 196.19,-44.57"/>
<polygon fill="#63b8ff" stroke="#63b8ff" points="195.79,-48.05 206.12,-45.69 196.58,-41.09 195.79,-48.05"/>
</a>
</g>
</g>
<!-- Node3 -->
<g id="Node000003" class="node">
<title>Node3</title>
<g id="a_Node000003"><a xlink:href="interface_p_a1_a_1_1_items_1_1_i_container.html#aedad92708735e6706254350491c006f2" target="_top" xlink:title=" ">
<polygon fill="white" stroke="#666666" points="356.75,-20 204.25,-20 204.25,0 356.75,0 356.75,-20"/>
<text text-anchor="middle" x="280.5" y="-6.5" font-family="Helvetica,sans-Serif" font-size="10.00">PA1A.Items.IContainer.GetSlot</text>
</a>
</g>
</g>
<!-- Node1&#45;&gt;Node3 -->
<g id="edge2_Node000001_Node000003" class="edge">
<title>Node1&#45;&gt;Node3</title>
<g id="a_edge2_Node000001_Node000003"><a xlink:title=" ">
<path fill="none" stroke="#63b8ff" d="M168.69,-22.54C176.66,-21.64 184.76,-20.72 192.76,-19.82"/>
<polygon fill="#63b8ff" stroke="#63b8ff" points="192.94,-23.32 202.48,-18.72 192.15,-16.36 192.94,-23.32"/>
</a>
</g>
</g>
</g>
</svg>
