<?xml version="1.0" encoding="UTF-8" standalone="no"?>
<!DOCTYPE svg PUBLIC "-//W3C//DTD SVG 1.1//EN"
 "http://www.w3.org/Graphics/SVG/1.1/DTD/svg11.dtd">
<!-- Generated by graphviz version 12.1.2 (20240928.0832)
 -->
<!-- Title: PA1A.Items.UI.ClassicSlotUI Pages: 1 -->
<svg width="201pt" height="332pt"
 viewBox="0.00 0.00 201.00 332.00" xmlns="http://www.w3.org/2000/svg" xmlns:xlink="http://www.w3.org/1999/xlink">

<svg id="main" version="1.1" xmlns="http://www.w3.org/2000/svg" xmlns:xlink="http://www.w3.org/1999/xlink" xml:space="preserve">

<style type="text/css"><![CDATA[
.node, .edge {opacity: 0.7;}
.node.selected, .edge.selected {opacity: 1;}
.edge:hover path { stroke: red; }
.edge:hover polygon { stroke: red; fill: red; }
]]></style>
<script type="application/ecmascript" xlink:href="svg.min.js"/>
<svg id="graph" class="graph">
<g id="graph0" class="graph" transform="scale(1 1) rotate(0) translate(4 328)">
<title>PA1A.Items.UI.ClassicSlotUI</title>
<!-- Node1 -->
<g id="Node000001" class="node">
<title>Node1</title>
<g id="a_Node000001"><a xlink:title="Classic ISlotUI that only displays the Item.Sprite and ItemStack.StackSize">
<polygon fill="#999999" stroke="none" points="193,-68 54,-68 54,0 193,0 193,-68"/>
<text text-anchor="start" x="58.62" y="-54.5" font-family="Helvetica,sans-Serif" font-size="10.00">PA1A.Items.UI.ClassicSlotUI</text>
<text text-anchor="start" x="78" y="-38.5" font-family="Helvetica,sans-Serif" font-size="10.00">+</text>
<text text-anchor="start" x="108" y="-38.5" font-family="Helvetica,sans-Serif" font-size="10.00">Header</text>
<text text-anchor="start" x="78" y="-22.5" font-family="Helvetica,sans-Serif" font-size="10.00">+</text>
<text text-anchor="start" x="108" y="-22.5" font-family="Helvetica,sans-Serif" font-size="10.00">Content</text>
<text text-anchor="start" x="78" y="-6.5" font-family="Helvetica,sans-Serif" font-size="10.00">+</text>
<text text-anchor="start" x="108" y="-6.5" font-family="Helvetica,sans-Serif" font-size="10.00">Refresh()</text>
<polygon fill="#666666" stroke="#666666" points="54,-50 54,-50 193,-50 193,-50 54,-50"/>
<polygon fill="#666666" stroke="#666666" points="54,-18 54,-18 106,-18 106,-18 54,-18"/>
<polygon fill="#666666" stroke="#666666" points="106,-18 106,-18 193,-18 193,-18 106,-18"/>
<polygon fill="none" stroke="#666666" points="54,0 54,-68 193,-68 193,0 54,0"/>
</a>
</g>
</g>
<!-- Node2 -->
<g id="Node000002" class="node">
<title>Node2</title>
<g id="a_Node000002"><a xlink:href="class_p_a1_a_1_1_items_1_1_u_i_1_1_slot_u_i.html" target="_top" xlink:title="Base implementation of ISlotUI that is linked to an IContainer">
<polygon fill="white" stroke="none" points="116.5,-204 50.5,-204 50.5,-104 116.5,-104 116.5,-204"/>
<text text-anchor="start" x="69.62" y="-190.5" font-family="Helvetica,sans-Serif" font-size="10.00">SlotUI</text>
<text text-anchor="start" x="54.5" y="-174.5" font-family="Helvetica,sans-Serif" font-size="10.00">+</text>
<text text-anchor="start" x="64.5" y="-174.5" font-family="Helvetica,sans-Serif" font-size="10.00">Container</text>
<text text-anchor="start" x="54.5" y="-158.5" font-family="Helvetica,sans-Serif" font-size="10.00">+</text>
<text text-anchor="start" x="64.5" y="-158.5" font-family="Helvetica,sans-Serif" font-size="10.00">Index</text>
<text text-anchor="start" x="54.5" y="-142.5" font-family="Helvetica,sans-Serif" font-size="10.00">+</text>
<text text-anchor="start" x="64.5" y="-142.5" font-family="Helvetica,sans-Serif" font-size="10.00">Configure()</text>
<text text-anchor="start" x="54.5" y="-126.5" font-family="Helvetica,sans-Serif" font-size="10.00">+</text>
<text text-anchor="start" x="64.5" y="-126.5" font-family="Helvetica,sans-Serif" font-size="10.00">Refresh()</text>
<text text-anchor="start" x="54.5" y="-110.5" font-family="Helvetica,sans-Serif" font-size="10.00">+</text>
<text text-anchor="start" x="64.5" y="-110.5" font-family="Helvetica,sans-Serif" font-size="10.00">Destroy()</text>
<polygon fill="#666666" stroke="#666666" points="50.5,-186 50.5,-186 116.5,-186 116.5,-186 50.5,-186"/>
<polygon fill="#666666" stroke="#666666" points="50.5,-154 50.5,-154 62.5,-154 62.5,-154 50.5,-154"/>
<polygon fill="#666666" stroke="#666666" points="62.5,-154 62.5,-154 116.5,-154 116.5,-154 62.5,-154"/>
<polygon fill="none" stroke="#666666" points="50.5,-104 50.5,-204 116.5,-204 116.5,-104 50.5,-104"/>
</a>
</g>
</g>
<!-- Node2&#45;&gt;Node1 -->
<g id="edge1_Node000001_Node000002" class="edge">
<title>Node2&#45;&gt;Node1</title>
<g id="a_edge1_Node000001_Node000002"><a xlink:title=" ">
<path fill="none" stroke="#63b8ff" d="M103.66,-93.54C106.66,-84.66 109.67,-75.8 112.4,-67.75"/>
<polygon fill="none" stroke="#63b8ff" points="100.38,-92.3 100.49,-102.89 107.01,-94.54 100.38,-92.3"/>
</a>
</g>
</g>
<!-- Node3 -->
<g id="Node000003" class="node">
<title>Node3</title>
<g id="a_Node000003"><a xlink:href="class_mono_behaviour.html" target="_top" xlink:title=" ">
<polygon fill="white" stroke="none" points="77,-308 0,-308 0,-256 77,-256 77,-308"/>
<text text-anchor="start" x="4.75" y="-294.5" font-family="Helvetica,sans-Serif" font-size="10.00">MonoBehaviour</text>
<text text-anchor="start" x="37" y="-278.5" font-family="Helvetica,sans-Serif" font-size="10.00"> </text>
<text text-anchor="start" x="37" y="-262.5" font-family="Helvetica,sans-Serif" font-size="10.00"> </text>
<polygon fill="#666666" stroke="#666666" points="0,-290 0,-290 77,-290 77,-290 0,-290"/>
<polygon fill="#666666" stroke="#666666" points="0,-274 0,-274 77,-274 77,-274 0,-274"/>
<polygon fill="none" stroke="#666666" points="0,-256 0,-308 77,-308 77,-256 0,-256"/>
</a>
</g>
</g>
<!-- Node3&#45;&gt;Node2 -->
<g id="edge2_Node000002_Node000003" class="edge">
<title>Node3&#45;&gt;Node2</title>
<g id="a_edge2_Node000002_Node000003"><a xlink:title=" ">
<path fill="none" stroke="#63b8ff" d="M51.24,-245.34C55.84,-232.44 61.12,-217.65 66.06,-203.83"/>
<polygon fill="none" stroke="#63b8ff" points="47.97,-244.09 47.9,-254.68 54.56,-246.44 47.97,-244.09"/>
</a>
</g>
</g>
<!-- Node4 -->
<g id="Node000004" class="node">
<title>Node4</title>
<g id="a_Node000004"><a xlink:href="interface_p_a1_a_1_1_items_1_1_u_i_1_1_i_slot_u_i.html" target="_top" xlink:title="Represents a ISlotUI that will display a specific ItemStack">
<polygon fill="white" stroke="none" points="161.5,-324 95.5,-324 95.5,-240 161.5,-240 161.5,-324"/>
<text text-anchor="start" x="113.12" y="-310.5" font-family="Helvetica,sans-Serif" font-size="10.00">ISlotUI</text>
<text text-anchor="start" x="127" y="-294.5" font-family="Helvetica,sans-Serif" font-size="10.00"> </text>
<text text-anchor="start" x="99.5" y="-278.5" font-family="Helvetica,sans-Serif" font-size="10.00">+</text>
<text text-anchor="start" x="109.5" y="-278.5" font-family="Helvetica,sans-Serif" font-size="10.00">Configure()</text>
<text text-anchor="start" x="99.5" y="-262.5" font-family="Helvetica,sans-Serif" font-size="10.00">+</text>
<text text-anchor="start" x="109.5" y="-262.5" font-family="Helvetica,sans-Serif" font-size="10.00">Destroy()</text>
<text text-anchor="start" x="99.5" y="-246.5" font-family="Helvetica,sans-Serif" font-size="10.00">+</text>
<text text-anchor="start" x="109.5" y="-246.5" font-family="Helvetica,sans-Serif" font-size="10.00">Refresh()</text>
<polygon fill="#666666" stroke="#666666" points="95.5,-306 95.5,-306 161.5,-306 161.5,-306 95.5,-306"/>
<polygon fill="#666666" stroke="#666666" points="95.5,-290 95.5,-290 161.5,-290 161.5,-290 95.5,-290"/>
<polygon fill="none" stroke="#666666" points="95.5,-240 95.5,-324 161.5,-324 161.5,-240 95.5,-240"/>
</a>
</g>
</g>
<!-- Node4&#45;&gt;Node2 -->
<g id="edge3_Node000002_Node000004" class="edge">
<title>Node4&#45;&gt;Node2</title>
<g id="a_edge3_Node000002_Node000004"><a xlink:title=" ">
<path fill="none" stroke="#63b8ff" d="M110.1,-229.47C107.04,-220.92 103.89,-212.08 100.86,-203.61"/>
<polygon fill="none" stroke="#63b8ff" points="106.72,-230.43 113.38,-238.67 113.31,-228.07 106.72,-230.43"/>
</a>
</g>
</g>
<!-- Node5 -->
<g id="Node000005" class="node">
<title>Node5</title>
<g id="a_Node000005"><a xlink:title=" ">
<polygon fill="white" stroke="none" points="192.5,-188 134.5,-188 134.5,-120 192.5,-120 192.5,-188"/>
<text text-anchor="start" x="139.5" y="-174.5" font-family="Helvetica,sans-Serif" font-size="10.00">ITooltipInfo</text>
<text text-anchor="start" x="140" y="-158.5" font-family="Helvetica,sans-Serif" font-size="10.00">+</text>
<text text-anchor="start" x="151.5" y="-158.5" font-family="Helvetica,sans-Serif" font-size="10.00">Header</text>
<text text-anchor="start" x="140" y="-142.5" font-family="Helvetica,sans-Serif" font-size="10.00">+</text>
<text text-anchor="start" x="151.5" y="-142.5" font-family="Helvetica,sans-Serif" font-size="10.00">Content</text>
<text text-anchor="start" x="162" y="-126.5" font-family="Helvetica,sans-Serif" font-size="10.00"> </text>
<polygon fill="#666666" stroke="#666666" points="134.5,-170 134.5,-170 192.5,-170 192.5,-170 134.5,-170"/>
<polygon fill="#666666" stroke="#666666" points="134.5,-138 134.5,-138 149.5,-138 149.5,-138 134.5,-138"/>
<polygon fill="#666666" stroke="#666666" points="149.5,-138 149.5,-138 192.5,-138 192.5,-138 149.5,-138"/>
<polygon fill="none" stroke="#666666" points="134.5,-120 134.5,-188 192.5,-188 192.5,-120 134.5,-120"/>
</a>
</g>
</g>
<!-- Node5&#45;&gt;Node1 -->
<g id="edge4_Node000001_Node000005" class="edge">
<title>Node5&#45;&gt;Node1</title>
<g id="a_edge4_Node000001_Node000005"><a xlink:title=" ">
<path fill="none" stroke="#63b8ff" d="M148.72,-109.39C144.04,-95.59 138.95,-80.59 134.58,-67.69"/>
<polygon fill="none" stroke="#63b8ff" points="145.35,-110.35 151.87,-118.7 151.98,-108.1 145.35,-110.35"/>
</a>
</g>
</g>
</g>
</svg>
</svg>

<style type='text/css'>
<![CDATA[
[data-mouse-over-selected='false'] { opacity: 0.7; }
[data-mouse-over-selected='true']  { opacity: 1.0; }
]]>
</style>
<script type="application/ecmascript"><![CDATA[
document.addEventListener('DOMContentLoaded', (event) => {
  highlightEdges();
  highlightAdjacentNodes();
});
]]></script>
</svg>
