<?xml version="1.0" encoding="UTF-8" standalone="no"?>
<!DOCTYPE svg PUBLIC "-//W3C//DTD SVG 1.1//EN"
 "http://www.w3.org/Graphics/SVG/1.1/DTD/svg11.dtd">
<!-- Generated by graphviz version 12.1.2 (20240928.0832)
 -->
<!-- Title: PA1A.Abilities.Ability.UnApply Pages: 1 -->
<svg width="661pt" height="90pt"
 viewBox="0.00 0.00 660.75 90.00" xmlns="http://www.w3.org/2000/svg" xmlns:xlink="http://www.w3.org/1999/xlink">
<g id="graph0" class="graph" transform="scale(1 1) rotate(0) translate(4 86)">
<title>PA1A.Abilities.Ability.UnApply</title>
<!-- Node1 -->
<g id="Node000001" class="node">
<title>Node1</title>
<g id="a_Node000001"><a xlink:title="Called when the ability is last applied to the target.">
<polygon fill="#999999" stroke="#666666" points="652.75,-57 529.5,-57 529.5,-25 652.75,-25 652.75,-57"/>
<text text-anchor="start" x="537.5" y="-43.5" font-family="Helvetica,sans-Serif" font-size="10.00">PA1A.Abilities.Ability.Un</text>
<text text-anchor="middle" x="591.12" y="-31.5" font-family="Helvetica,sans-Serif" font-size="10.00">Apply</text>
</a>
</g>
</g>
<!-- Node2 -->
<g id="Node000002" class="node">
<title>Node2</title>
<g id="a_Node000002"><a xlink:href="class_p_a1_a_1_1_characters_1_1_character.html#a037dca5b89595d597065de0f5b5c7cde" target="_top" xlink:title=" ">
<polygon fill="white" stroke="#666666" points="493.5,-82 353,-82 353,-50 493.5,-50 493.5,-82"/>
<text text-anchor="start" x="361" y="-68.5" font-family="Helvetica,sans-Serif" font-size="10.00">PA1A.Characters.Character.</text>
<text text-anchor="middle" x="423.25" y="-56.5" font-family="Helvetica,sans-Serif" font-size="10.00">ClearAffectsClientRPC</text>
</a>
</g>
</g>
<!-- Node1&#45;&gt;Node2 -->
<g id="edge1_Node000001_Node000002" class="edge">
<title>Node1&#45;&gt;Node2</title>
<g id="a_edge1_Node000001_Node000002"><a xlink:title=" ">
<path fill="none" stroke="#63b8ff" d="M518.04,-51.86C509.98,-53.08 501.79,-54.31 493.76,-55.52"/>
<polygon fill="#63b8ff" stroke="#63b8ff" points="518.44,-55.34 527.8,-50.39 517.39,-48.42 518.44,-55.34"/>
</a>
</g>
</g>
<!-- Node5 -->
<g id="Node000005" class="node">
<title>Node5</title>
<g id="a_Node000005"><a xlink:href="class_p_a1_a_1_1_characters_1_1_character.html#a14a55dfadfa0965134c0fa8a33d81113" target="_top" xlink:title=" ">
<polygon fill="white" stroke="#666666" points="493.5,-32 353,-32 353,0 493.5,0 493.5,-32"/>
<text text-anchor="start" x="361" y="-18.5" font-family="Helvetica,sans-Serif" font-size="10.00">PA1A.Characters.Character.</text>
<text text-anchor="middle" x="423.25" y="-6.5" font-family="Helvetica,sans-Serif" font-size="10.00">ProcessAffectingAbilities</text>
</a>
</g>
</g>
<!-- Node1&#45;&gt;Node5 -->
<g id="edge4_Node000001_Node000005" class="edge">
<title>Node1&#45;&gt;Node5</title>
<g id="a_edge4_Node000001_Node000005"><a xlink:title=" ">
<path fill="none" stroke="#63b8ff" d="M518.04,-30.14C509.98,-28.92 501.79,-27.69 493.76,-26.48"/>
<polygon fill="#63b8ff" stroke="#63b8ff" points="517.39,-33.58 527.8,-31.61 518.44,-26.66 517.39,-33.58"/>
</a>
</g>
</g>
<!-- Node3 -->
<g id="Node000003" class="node">
<title>Node3</title>
<g id="a_Node000003"><a xlink:href="class_p_a1_a_1_1_characters_1_1_character.html#aa57c93481546ece781e9ecb3abba16d3" target="_top" xlink:title=" ">
<polygon fill="white" stroke="#666666" points="317,-82 176.5,-82 176.5,-50 317,-50 317,-82"/>
<text text-anchor="start" x="184.5" y="-68.5" font-family="Helvetica,sans-Serif" font-size="10.00">PA1A.Characters.Character.</text>
<text text-anchor="middle" x="246.75" y="-56.5" font-family="Helvetica,sans-Serif" font-size="10.00">ClearAffectsServerRPC</text>
</a>
</g>
</g>
<!-- Node2&#45;&gt;Node3 -->
<g id="edge2_Node000002_Node000003" class="edge">
<title>Node2&#45;&gt;Node3</title>
<g id="a_edge2_Node000002_Node000003"><a xlink:title=" ">
<path fill="none" stroke="#63b8ff" d="M341.02,-66C333.11,-66 325.14,-66 317.36,-66"/>
<polygon fill="#63b8ff" stroke="#63b8ff" points="341.02,-69.5 351.02,-66 341.02,-62.5 341.02,-69.5"/>
</a>
</g>
</g>
<!-- Node4 -->
<g id="Node000004" class="node">
<title>Node4</title>
<g id="a_Node000004"><a xlink:href="class_p_a1_a_1_1_characters_1_1_character.html#a957a099f79d51b886f9674422062d13b" target="_top" xlink:title=" ">
<polygon fill="white" stroke="#666666" points="140.5,-82 0,-82 0,-50 140.5,-50 140.5,-82"/>
<text text-anchor="start" x="8" y="-68.5" font-family="Helvetica,sans-Serif" font-size="10.00">PA1A.Characters.Character.</text>
<text text-anchor="middle" x="70.25" y="-56.5" font-family="Helvetica,sans-Serif" font-size="10.00">ClearAffects</text>
</a>
</g>
</g>
<!-- Node3&#45;&gt;Node4 -->
<g id="edge3_Node000003_Node000004" class="edge">
<title>Node3&#45;&gt;Node4</title>
<g id="a_edge3_Node000003_Node000004"><a xlink:title=" ">
<path fill="none" stroke="#63b8ff" d="M164.52,-66C156.61,-66 148.64,-66 140.86,-66"/>
<polygon fill="#63b8ff" stroke="#63b8ff" points="164.52,-69.5 174.52,-66 164.52,-62.5 164.52,-69.5"/>
</a>
</g>
</g>
<!-- Node6 -->
<g id="Node000006" class="node">
<title>Node6</title>
<g id="a_Node000006"><a xlink:href="class_p_a1_a_1_1_characters_1_1_character.html#a7a64aea4280cdea1c8cc59fbd7ae510b" target="_top" xlink:title=" ">
<polygon fill="white" stroke="#666666" points="317,-32 176.5,-32 176.5,0 317,0 317,-32"/>
<text text-anchor="start" x="184.5" y="-18.5" font-family="Helvetica,sans-Serif" font-size="10.00">PA1A.Characters.Character.</text>
<text text-anchor="middle" x="246.75" y="-6.5" font-family="Helvetica,sans-Serif" font-size="10.00">FixedUpdate</text>
</a>
</g>
</g>
<!-- Node5&#45;&gt;Node6 -->
<g id="edge5_Node000005_Node000006" class="edge">
<title>Node5&#45;&gt;Node6</title>
<g id="a_edge5_Node000005_Node000006"><a xlink:title=" ">
<path fill="none" stroke="#63b8ff" d="M341.02,-16C333.11,-16 325.14,-16 317.36,-16"/>
<polygon fill="#63b8ff" stroke="#63b8ff" points="341.02,-19.5 351.02,-16 341.02,-12.5 341.02,-19.5"/>
</a>
</g>
</g>
</g>
</svg>
