<?xml version="1.0" encoding="UTF-8" standalone="no"?>
<!DOCTYPE svg PUBLIC "-//W3C//DTD SVG 1.1//EN"
 "http://www.w3.org/Graphics/SVG/1.1/DTD/svg11.dtd">
<!-- Generated by graphviz version 12.1.2 (20240928.0832)
 -->
<!-- Title: CodeSmile.Statemachine.Netcode.Conditions.IsNetworkManagerSingletonAssigned Pages: 1 -->
<svg width="190pt" height="324pt"
 viewBox="0.00 0.00 190.00 324.00" xmlns="http://www.w3.org/2000/svg" xmlns:xlink="http://www.w3.org/1999/xlink">
<g id="graph0" class="graph" transform="scale(1 1) rotate(0) translate(4 320)">
<title>CodeSmile.Statemachine.Netcode.Conditions.IsNetworkManagerSingletonAssigned</title>
<!-- Node1 -->
<g id="Node000001" class="node">
<title>Node1</title>
<g id="a_Node000001"><a xlink:title="Is true once NetworkManager singleton no longer returns null.">
<polygon fill="#999999" stroke="none" points="182,-76 0,-76 0,0 182,0 182,-76"/>
<text text-anchor="start" x="4.75" y="-62.5" font-family="Helvetica,sans-Serif" font-size="10.00">CodeSmile.Statemachine.Netcode.</text>
<text text-anchor="start" x="4.75" y="-50.5" font-family="Helvetica,sans-Serif" font-size="10.00">Conditions.IsNetworkManagerSingleton</text>
<text text-anchor="start" x="70.75" y="-38.5" font-family="Helvetica,sans-Serif" font-size="10.00">Assigned</text>
<text text-anchor="start" x="89.5" y="-22.5" font-family="Helvetica,sans-Serif" font-size="10.00"> </text>
<text text-anchor="start" x="32" y="-6.5" font-family="Helvetica,sans-Serif" font-size="10.00">+</text>
<text text-anchor="start" x="70" y="-6.5" font-family="Helvetica,sans-Serif" font-size="10.00">IsSatisfied()</text>
<polygon fill="#666666" stroke="#666666" points="0,-34 0,-34 182,-34 182,-34 0,-34"/>
<polygon fill="#666666" stroke="#666666" points="0,-18 0,-18 182,-18 182,-18 0,-18"/>
<polygon fill="none" stroke="#666666" points="0,0 0,-76 182,-76 182,0 0,0"/>
</a>
</g>
</g>
<!-- Node2 -->
<g id="Node000002" class="node">
<title>Node2</title>
<g id="a_Node000002"><a xlink:href="interface_code_smile_1_1_statemachine_1_1_i_condition.html" target="_top" xlink:title="Marks a class as a FSM Condition.">
<polygon fill="white" stroke="none" points="135,-180 47,-180 47,-112 135,-112 135,-180"/>
<text text-anchor="start" x="68.88" y="-166.5" font-family="Helvetica,sans-Serif" font-size="10.00">ICondition</text>
<text text-anchor="start" x="89.5" y="-150.5" font-family="Helvetica,sans-Serif" font-size="10.00"> </text>
<text text-anchor="start" x="51" y="-134.5" font-family="Helvetica,sans-Serif" font-size="10.00">+</text>
<text text-anchor="start" x="61" y="-134.5" font-family="Helvetica,sans-Serif" font-size="10.00">IsSatisfied()</text>
<text text-anchor="start" x="51" y="-118.5" font-family="Helvetica,sans-Serif" font-size="10.00">+</text>
<text text-anchor="start" x="61" y="-118.5" font-family="Helvetica,sans-Serif" font-size="10.00">ToDebugString()</text>
<polygon fill="#666666" stroke="#666666" points="47,-162 47,-162 135,-162 135,-162 47,-162"/>
<polygon fill="#666666" stroke="#666666" points="47,-146 47,-146 135,-146 135,-146 47,-146"/>
<polygon fill="none" stroke="#666666" points="47,-112 47,-180 135,-180 135,-112 47,-112"/>
</a>
</g>
</g>
<!-- Node2&#45;&gt;Node1 -->
<g id="edge1_Node000001_Node000002" class="edge">
<title>Node2&#45;&gt;Node1</title>
<g id="a_edge1_Node000001_Node000002"><a xlink:title=" ">
<path fill="none" stroke="#63b8ff" d="M91,-100.58C91,-92.27 91,-83.67 91,-75.63"/>
<polygon fill="none" stroke="#63b8ff" points="87.5,-100.53 91,-110.53 94.5,-100.53 87.5,-100.53"/>
</a>
</g>
</g>
<!-- Node3 -->
<g id="Node000003" class="node">
<title>Node3</title>
<g id="a_Node000003"><a xlink:href="interface_code_smile_1_1_statemachine_1_1_i_statemachine_events.html" target="_top" xlink:title="Event methods that the Statemachine calls at specific times.">
<polygon fill="white" stroke="none" points="142.5,-316 39.5,-316 39.5,-216 142.5,-216 142.5,-316"/>
<text text-anchor="start" x="44.12" y="-302.5" font-family="Helvetica,sans-Serif" font-size="10.00">IStatemachineEvents</text>
<text text-anchor="start" x="89.5" y="-286.5" font-family="Helvetica,sans-Serif" font-size="10.00"> </text>
<text text-anchor="start" x="48.5" y="-270.5" font-family="Helvetica,sans-Serif" font-size="10.00">+</text>
<text text-anchor="start" x="63.5" y="-270.5" font-family="Helvetica,sans-Serif" font-size="10.00">OnStart()</text>
<text text-anchor="start" x="48.5" y="-254.5" font-family="Helvetica,sans-Serif" font-size="10.00">+</text>
<text text-anchor="start" x="63.5" y="-254.5" font-family="Helvetica,sans-Serif" font-size="10.00">OnStop()</text>
<text text-anchor="start" x="48.5" y="-238.5" font-family="Helvetica,sans-Serif" font-size="10.00">+</text>
<text text-anchor="start" x="63.5" y="-238.5" font-family="Helvetica,sans-Serif" font-size="10.00">OnEnterState()</text>
<text text-anchor="start" x="48.5" y="-222.5" font-family="Helvetica,sans-Serif" font-size="10.00">+</text>
<text text-anchor="start" x="63.5" y="-222.5" font-family="Helvetica,sans-Serif" font-size="10.00">OnExitState()</text>
<polygon fill="#666666" stroke="#666666" points="39.5,-298 39.5,-298 142.5,-298 142.5,-298 39.5,-298"/>
<polygon fill="#666666" stroke="#666666" points="39.5,-282 39.5,-282 142.5,-282 142.5,-282 39.5,-282"/>
<polygon fill="none" stroke="#666666" points="39.5,-216 39.5,-316 142.5,-316 142.5,-216 39.5,-216"/>
</a>
</g>
</g>
<!-- Node3&#45;&gt;Node2 -->
<g id="edge2_Node000002_Node000003" class="edge">
<title>Node3&#45;&gt;Node2</title>
<g id="a_edge2_Node000002_Node000003"><a xlink:title=" ">
<path fill="none" stroke="#63b8ff" d="M91,-204.96C91,-196.28 91,-187.62 91,-179.75"/>
<polygon fill="none" stroke="#63b8ff" points="87.5,-204.81 91,-214.81 94.5,-204.81 87.5,-204.81"/>
</a>
</g>
</g>
</g>
</svg>
