<?xml version="1.0" encoding="UTF-8" standalone="no"?>
<!DOCTYPE svg PUBLIC "-//W3C//DTD SVG 1.1//EN"
 "http://www.w3.org/Graphics/SVG/1.1/DTD/svg11.dtd">
<!-- Generated by graphviz version 12.1.2 (20240928.0832)
 -->
<!-- Title: CodeSmile.Statemachine.Netcode.Conditions.IsLocalClientStarted Pages: 1 -->
<svg width="171pt" height="444pt"
 viewBox="0.00 0.00 171.00 444.00" xmlns="http://www.w3.org/2000/svg" xmlns:xlink="http://www.w3.org/1999/xlink">
<g id="graph0" class="graph" transform="scale(1 1) rotate(0) translate(4 440)">
<title>CodeSmile.Statemachine.Netcode.Conditions.IsLocalClientStarted</title>
<!-- Node1 -->
<g id="Node000001" class="node">
<title>Node1</title>
<g id="a_Node000001"><a xlink:title="Is true after NetworkManager StartClient has been called until the client stops or a transport failur...">
<polygon fill="#999999" stroke="none" points="163,-196 0,-196 0,-100 163,-100 163,-196"/>
<text text-anchor="start" x="4.62" y="-182.5" font-family="Helvetica,sans-Serif" font-size="10.00">CodeSmile.Statemachine.Netcode.</text>
<text text-anchor="start" x="12.5" y="-170.5" font-family="Helvetica,sans-Serif" font-size="10.00">Conditions.IsLocalClientStarted</text>
<text text-anchor="start" x="80" y="-154.5" font-family="Helvetica,sans-Serif" font-size="10.00"> </text>
<text text-anchor="start" x="27" y="-138.5" font-family="Helvetica,sans-Serif" font-size="10.00">+</text>
<text text-anchor="start" x="60" y="-138.5" font-family="Helvetica,sans-Serif" font-size="10.00">OnStart()</text>
<text text-anchor="start" x="27" y="-122.5" font-family="Helvetica,sans-Serif" font-size="10.00">+</text>
<text text-anchor="start" x="60" y="-122.5" font-family="Helvetica,sans-Serif" font-size="10.00">OnStop()</text>
<text text-anchor="start" x="27" y="-106.5" font-family="Helvetica,sans-Serif" font-size="10.00">+</text>
<text text-anchor="start" x="60" y="-106.5" font-family="Helvetica,sans-Serif" font-size="10.00">IsSatisfied()</text>
<polygon fill="#666666" stroke="#666666" points="0,-166 0,-166 163,-166 163,-166 0,-166"/>
<polygon fill="#666666" stroke="#666666" points="0,-150 0,-150 163,-150 163,-150 0,-150"/>
<polygon fill="none" stroke="#666666" points="0,-100 0,-196 163,-196 163,-100 0,-100"/>
</a>
</g>
</g>
<!-- Node4 -->
<g id="Node000004" class="node">
<title>Node4</title>
<g id="a_Node000004"><a xlink:href="class_code_smile_1_1_statemachine_1_1_netcode_1_1_conditions_1_1_is_local_client_stopped.html" target="_top" xlink:title="Tests if the client is not in the started state.">
<polygon fill="white" stroke="none" points="163,-64 0,-64 0,0 163,0 163,-64"/>
<text text-anchor="start" x="4.62" y="-50.5" font-family="Helvetica,sans-Serif" font-size="10.00">CodeSmile.Statemachine.Netcode.</text>
<text text-anchor="start" x="10.25" y="-38.5" font-family="Helvetica,sans-Serif" font-size="10.00">Conditions.IsLocalClientStopped</text>
<text text-anchor="start" x="80" y="-22.5" font-family="Helvetica,sans-Serif" font-size="10.00"> </text>
<text text-anchor="start" x="27" y="-6.5" font-family="Helvetica,sans-Serif" font-size="10.00">+</text>
<text text-anchor="start" x="60" y="-6.5" font-family="Helvetica,sans-Serif" font-size="10.00">IsSatisfied()</text>
<polygon fill="#666666" stroke="#666666" points="0,-34 0,-34 163,-34 163,-34 0,-34"/>
<polygon fill="#666666" stroke="#666666" points="0,-18 0,-18 163,-18 163,-18 0,-18"/>
<polygon fill="none" stroke="#666666" points="0,0 0,-64 163,-64 163,0 0,0"/>
</a>
</g>
</g>
<!-- Node1&#45;&gt;Node4 -->
<g id="edge3_Node000001_Node000004" class="edge">
<title>Node1&#45;&gt;Node4</title>
<g id="a_edge3_Node000001_Node000004"><a xlink:title=" ">
<path fill="none" stroke="#63b8ff" d="M81.5,-88.95C81.5,-80.27 81.5,-71.62 81.5,-63.82"/>
<polygon fill="none" stroke="#63b8ff" points="78,-88.79 81.5,-98.79 85,-88.79 78,-88.79"/>
</a>
</g>
</g>
<!-- Node2 -->
<g id="Node000002" class="node">
<title>Node2</title>
<g id="a_Node000002"><a xlink:href="interface_code_smile_1_1_statemachine_1_1_i_condition.html" target="_top" xlink:title="Marks a class as a FSM Condition.">
<polygon fill="white" stroke="none" points="125.5,-300 37.5,-300 37.5,-232 125.5,-232 125.5,-300"/>
<text text-anchor="start" x="59.38" y="-286.5" font-family="Helvetica,sans-Serif" font-size="10.00">ICondition</text>
<text text-anchor="start" x="80" y="-270.5" font-family="Helvetica,sans-Serif" font-size="10.00"> </text>
<text text-anchor="start" x="41.5" y="-254.5" font-family="Helvetica,sans-Serif" font-size="10.00">+</text>
<text text-anchor="start" x="51.5" y="-254.5" font-family="Helvetica,sans-Serif" font-size="10.00">IsSatisfied()</text>
<text text-anchor="start" x="41.5" y="-238.5" font-family="Helvetica,sans-Serif" font-size="10.00">+</text>
<text text-anchor="start" x="51.5" y="-238.5" font-family="Helvetica,sans-Serif" font-size="10.00">ToDebugString()</text>
<polygon fill="#666666" stroke="#666666" points="37.5,-282 37.5,-282 125.5,-282 125.5,-282 37.5,-282"/>
<polygon fill="#666666" stroke="#666666" points="37.5,-266 37.5,-266 125.5,-266 125.5,-266 37.5,-266"/>
<polygon fill="none" stroke="#666666" points="37.5,-232 37.5,-300 125.5,-300 125.5,-232 37.5,-232"/>
</a>
</g>
</g>
<!-- Node2&#45;&gt;Node1 -->
<g id="edge1_Node000001_Node000002" class="edge">
<title>Node2&#45;&gt;Node1</title>
<g id="a_edge1_Node000001_Node000002"><a xlink:title=" ">
<path fill="none" stroke="#63b8ff" d="M81.5,-220.57C81.5,-212.48 81.5,-204.02 81.5,-195.87"/>
<polygon fill="none" stroke="#63b8ff" points="78,-220.56 81.5,-230.56 85,-220.56 78,-220.56"/>
</a>
</g>
</g>
<!-- Node3 -->
<g id="Node000003" class="node">
<title>Node3</title>
<g id="a_Node000003"><a xlink:href="interface_code_smile_1_1_statemachine_1_1_i_statemachine_events.html" target="_top" xlink:title="Event methods that the Statemachine calls at specific times.">
<polygon fill="white" stroke="none" points="133,-436 30,-436 30,-336 133,-336 133,-436"/>
<text text-anchor="start" x="34.62" y="-422.5" font-family="Helvetica,sans-Serif" font-size="10.00">IStatemachineEvents</text>
<text text-anchor="start" x="80" y="-406.5" font-family="Helvetica,sans-Serif" font-size="10.00"> </text>
<text text-anchor="start" x="39" y="-390.5" font-family="Helvetica,sans-Serif" font-size="10.00">+</text>
<text text-anchor="start" x="54" y="-390.5" font-family="Helvetica,sans-Serif" font-size="10.00">OnStart()</text>
<text text-anchor="start" x="39" y="-374.5" font-family="Helvetica,sans-Serif" font-size="10.00">+</text>
<text text-anchor="start" x="54" y="-374.5" font-family="Helvetica,sans-Serif" font-size="10.00">OnStop()</text>
<text text-anchor="start" x="39" y="-358.5" font-family="Helvetica,sans-Serif" font-size="10.00">+</text>
<text text-anchor="start" x="54" y="-358.5" font-family="Helvetica,sans-Serif" font-size="10.00">OnEnterState()</text>
<text text-anchor="start" x="39" y="-342.5" font-family="Helvetica,sans-Serif" font-size="10.00">+</text>
<text text-anchor="start" x="54" y="-342.5" font-family="Helvetica,sans-Serif" font-size="10.00">OnExitState()</text>
<polygon fill="#666666" stroke="#666666" points="30,-418 30,-418 133,-418 133,-418 30,-418"/>
<polygon fill="#666666" stroke="#666666" points="30,-402 30,-402 133,-402 133,-402 30,-402"/>
<polygon fill="none" stroke="#666666" points="30,-336 30,-436 133,-436 133,-336 30,-336"/>
</a>
</g>
</g>
<!-- Node3&#45;&gt;Node2 -->
<g id="edge2_Node000002_Node000003" class="edge">
<title>Node3&#45;&gt;Node2</title>
<g id="a_edge2_Node000002_Node000003"><a xlink:title=" ">
<path fill="none" stroke="#63b8ff" d="M81.5,-324.96C81.5,-316.28 81.5,-307.62 81.5,-299.75"/>
<polygon fill="none" stroke="#63b8ff" points="78,-324.81 81.5,-334.81 85,-324.81 78,-324.81"/>
</a>
</g>
</g>
</g>
</svg>
