<?xml version="1.0" encoding="UTF-8" standalone="no"?>
<!DOCTYPE svg PUBLIC "-//W3C//DTD SVG 1.1//EN"
 "http://www.w3.org/Graphics/SVG/1.1/DTD/svg11.dtd">
<!-- Generated by graphviz version 12.1.2 (20240928.0832)
 -->
<!-- Title: PA1A.Player.Controller.FallingState Pages: 1 -->
<svg width="150pt" height="224pt"
 viewBox="0.00 0.00 150.00 224.00" xmlns="http://www.w3.org/2000/svg" xmlns:xlink="http://www.w3.org/1999/xlink">
<g id="graph0" class="graph" transform="scale(1 1) rotate(0) translate(4 220)">
<title>PA1A.Player.Controller.FallingState</title>
<!-- Node1 -->
<g id="Node000001" class="node">
<title>Node1</title>
<g id="a_Node000001"><a xlink:title=" ">
<polygon fill="#999999" stroke="none" points="142,-80 0,-80 0,0 142,0 142,-80"/>
<text text-anchor="start" x="5" y="-66.5" font-family="Helvetica,sans-Serif" font-size="10.00">PA1A.Player.Controller.Falling</text>
<text text-anchor="start" x="59.38" y="-54.5" font-family="Helvetica,sans-Serif" font-size="10.00">State</text>
<text text-anchor="start" x="69.5" y="-38.5" font-family="Helvetica,sans-Serif" font-size="10.00"> </text>
<text text-anchor="start" x="20.5" y="-22.5" font-family="Helvetica,sans-Serif" font-size="10.00">+</text>
<text text-anchor="start" x="47" y="-22.5" font-family="Helvetica,sans-Serif" font-size="10.00">FallingState()</text>
<text text-anchor="start" x="20.5" y="-6.5" font-family="Helvetica,sans-Serif" font-size="10.00">+</text>
<text text-anchor="start" x="47" y="-6.5" font-family="Helvetica,sans-Serif" font-size="10.00">OnEnter()</text>
<polygon fill="#666666" stroke="#666666" points="0,-50 0,-50 142,-50 142,-50 0,-50"/>
<polygon fill="#666666" stroke="#666666" points="0,-34 0,-34 142,-34 142,-34 0,-34"/>
<polygon fill="none" stroke="#666666" points="0,0 0,-80 142,-80 142,0 0,0"/>
</a>
</g>
</g>
<!-- Node2 -->
<g id="Node000002" class="node">
<title>Node2</title>
<g id="a_Node000002"><a xlink:href="interface_unity_utils_1_1_state_machine_1_1_i_state.html" target="_top" xlink:title=" ">
<polygon fill="white" stroke="none" points="110.5,-216 31.5,-216 31.5,-116 110.5,-116 110.5,-216"/>
<text text-anchor="start" x="57.88" y="-202.5" font-family="Helvetica,sans-Serif" font-size="10.00">IState</text>
<text text-anchor="start" x="69.5" y="-186.5" font-family="Helvetica,sans-Serif" font-size="10.00"> </text>
<text text-anchor="start" x="35.5" y="-170.5" font-family="Helvetica,sans-Serif" font-size="10.00">+</text>
<text text-anchor="start" x="45.5" y="-170.5" font-family="Helvetica,sans-Serif" font-size="10.00">Update()</text>
<text text-anchor="start" x="35.5" y="-154.5" font-family="Helvetica,sans-Serif" font-size="10.00">+</text>
<text text-anchor="start" x="45.5" y="-154.5" font-family="Helvetica,sans-Serif" font-size="10.00">FixedUpdate()</text>
<text text-anchor="start" x="35.5" y="-138.5" font-family="Helvetica,sans-Serif" font-size="10.00">+</text>
<text text-anchor="start" x="45.5" y="-138.5" font-family="Helvetica,sans-Serif" font-size="10.00">OnEnter()</text>
<text text-anchor="start" x="35.5" y="-122.5" font-family="Helvetica,sans-Serif" font-size="10.00">+</text>
<text text-anchor="start" x="45.5" y="-122.5" font-family="Helvetica,sans-Serif" font-size="10.00">OnExit()</text>
<polygon fill="#666666" stroke="#666666" points="31.5,-198 31.5,-198 110.5,-198 110.5,-198 31.5,-198"/>
<polygon fill="#666666" stroke="#666666" points="31.5,-182 31.5,-182 110.5,-182 110.5,-182 31.5,-182"/>
<polygon fill="none" stroke="#666666" points="31.5,-116 31.5,-216 110.5,-216 110.5,-116 31.5,-116"/>
</a>
</g>
</g>
<!-- Node2&#45;&gt;Node1 -->
<g id="edge1_Node000001_Node000002" class="edge">
<title>Node2&#45;&gt;Node1</title>
<g id="a_edge1_Node000001_Node000002"><a xlink:title=" ">
<path fill="none" stroke="#63b8ff" d="M71,-104.88C71,-96.4 71,-87.88 71,-79.94"/>
<polygon fill="none" stroke="#63b8ff" points="67.5,-104.83 71,-114.83 74.5,-104.83 67.5,-104.83"/>
</a>
</g>
</g>
</g>
</svg>
