<?xml version="1.0" encoding="UTF-8" standalone="no"?>
<!DOCTYPE svg PUBLIC "-//W3C//DTD SVG 1.1//EN"
 "http://www.w3.org/Graphics/SVG/1.1/DTD/svg11.dtd">
<!-- Generated by graphviz version 12.1.2 (20240928.0832)
 -->
<!-- Title: CodeSmile.MultiPal.Players.PlayerUi Pages: 1 -->
<svg width="383pt" height="320pt"
 viewBox="0.00 0.00 383.00 320.00" xmlns="http://www.w3.org/2000/svg" xmlns:xlink="http://www.w3.org/1999/xlink">
<g id="graph0" class="graph" transform="scale(1 1) rotate(0) translate(4 316)">
<title>CodeSmile.MultiPal.Players.PlayerUi</title>
<!-- Node1 -->
<g id="Node000001" class="node">
<title>Node1</title>
<g id="a_Node000001"><a xlink:title=" ">
<polygon fill="#999999" stroke="none" points="215,-160 80,-160 80,0 215,0 215,-160"/>
<text text-anchor="start" x="84.88" y="-146.5" font-family="Helvetica,sans-Serif" font-size="10.00">CodeSmile.MultiPal.Players.</text>
<text text-anchor="start" x="128.75" y="-134.5" font-family="Helvetica,sans-Serif" font-size="10.00">PlayerUi</text>
<text text-anchor="start" x="146" y="-118.5" font-family="Helvetica,sans-Serif" font-size="10.00"> </text>
<text text-anchor="start" x="91.5" y="-102.5" font-family="Helvetica,sans-Serif" font-size="10.00">+</text>
<text text-anchor="start" x="109" y="-102.5" font-family="Helvetica,sans-Serif" font-size="10.00">OnPlayerSpawn()</text>
<text text-anchor="start" x="91.5" y="-86.5" font-family="Helvetica,sans-Serif" font-size="10.00">+</text>
<text text-anchor="start" x="109" y="-86.5" font-family="Helvetica,sans-Serif" font-size="10.00">OnPlayerDespawn()</text>
<text text-anchor="start" x="91.5" y="-70.5" font-family="Helvetica,sans-Serif" font-size="10.00">+</text>
<text text-anchor="start" x="109" y="-70.5" font-family="Helvetica,sans-Serif" font-size="10.00">OnRequestMenu()</text>
<text text-anchor="start" x="91.5" y="-54.5" font-family="Helvetica,sans-Serif" font-size="10.00">+</text>
<text text-anchor="start" x="109" y="-54.5" font-family="Helvetica,sans-Serif" font-size="10.00">OnPrevious()</text>
<text text-anchor="start" x="91.5" y="-38.5" font-family="Helvetica,sans-Serif" font-size="10.00">+</text>
<text text-anchor="start" x="109" y="-38.5" font-family="Helvetica,sans-Serif" font-size="10.00">OnNext()</text>
<text text-anchor="start" x="91.5" y="-22.5" font-family="Helvetica,sans-Serif" font-size="10.00">+</text>
<text text-anchor="start" x="109" y="-22.5" font-family="Helvetica,sans-Serif" font-size="10.00">OnUp()</text>
<text text-anchor="start" x="91.5" y="-6.5" font-family="Helvetica,sans-Serif" font-size="10.00">+</text>
<text text-anchor="start" x="109" y="-6.5" font-family="Helvetica,sans-Serif" font-size="10.00">OnDown()</text>
<polygon fill="#666666" stroke="#666666" points="80,-130 80,-130 215,-130 215,-130 80,-130"/>
<polygon fill="#666666" stroke="#666666" points="80,-114 80,-114 215,-114 215,-114 80,-114"/>
<polygon fill="none" stroke="#666666" points="80,0 80,-160 215,-160 215,0 80,0"/>
</a>
</g>
</g>
<!-- Node2 -->
<g id="Node000002" class="node">
<title>Node2</title>
<g id="a_Node000002"><a xlink:href="class_mono_behaviour.html" target="_top" xlink:title=" ">
<polygon fill="white" stroke="none" points="77,-280 0,-280 0,-228 77,-228 77,-280"/>
<text text-anchor="start" x="4.75" y="-266.5" font-family="Helvetica,sans-Serif" font-size="10.00">MonoBehaviour</text>
<text text-anchor="start" x="37" y="-250.5" font-family="Helvetica,sans-Serif" font-size="10.00"> </text>
<text text-anchor="start" x="37" y="-234.5" font-family="Helvetica,sans-Serif" font-size="10.00"> </text>
<polygon fill="#666666" stroke="#666666" points="0,-262 0,-262 77,-262 77,-262 0,-262"/>
<polygon fill="#666666" stroke="#666666" points="0,-246 0,-246 77,-246 77,-246 0,-246"/>
<polygon fill="none" stroke="#666666" points="0,-228 0,-280 77,-280 77,-228 0,-228"/>
</a>
</g>
</g>
<!-- Node2&#45;&gt;Node1 -->
<g id="edge1_Node000001_Node000002" class="edge">
<title>Node2&#45;&gt;Node1</title>
<g id="a_edge1_Node000001_Node000002"><a xlink:title=" ">
<path fill="none" stroke="#63b8ff" d="M60.13,-218.87C70.92,-201.84 84.46,-180.47 97.64,-159.68"/>
<polygon fill="none" stroke="#63b8ff" points="57.32,-216.76 54.93,-227.08 63.24,-220.5 57.32,-216.76"/>
</a>
</g>
</g>
<!-- Node3 -->
<g id="Node000003" class="node">
<title>Node3</title>
<g id="a_Node000003"><a xlink:href="interface_code_smile_1_1_multi_pal_1_1_players_1_1_i_player_component.html" target="_top" xlink:title=" ">
<polygon fill="white" stroke="none" points="200,-304 95,-304 95,-204 200,-204 200,-304"/>
<text text-anchor="start" x="107" y="-290.5" font-family="Helvetica,sans-Serif" font-size="10.00">IPlayerComponent</text>
<text text-anchor="start" x="146" y="-274.5" font-family="Helvetica,sans-Serif" font-size="10.00"> </text>
<text text-anchor="start" x="99" y="-258.5" font-family="Helvetica,sans-Serif" font-size="10.00">+</text>
<text text-anchor="start" x="109" y="-258.5" font-family="Helvetica,sans-Serif" font-size="10.00">OnPlayerSpawn()</text>
<text text-anchor="start" x="99" y="-242.5" font-family="Helvetica,sans-Serif" font-size="10.00">+</text>
<text text-anchor="start" x="109" y="-242.5" font-family="Helvetica,sans-Serif" font-size="10.00">OnPlayerDespawn()</text>
<text text-anchor="start" x="99" y="-226.5" font-family="Helvetica,sans-Serif" font-size="10.00">+</text>
<text text-anchor="start" x="109" y="-226.5" font-family="Helvetica,sans-Serif" font-size="10.00">OnPlayerDeath()</text>
<text text-anchor="start" x="99" y="-210.5" font-family="Helvetica,sans-Serif" font-size="10.00">+</text>
<text text-anchor="start" x="109" y="-210.5" font-family="Helvetica,sans-Serif" font-size="10.00">OnPlayerRespawn()</text>
<polygon fill="#666666" stroke="#666666" points="95,-286 95,-286 200,-286 200,-286 95,-286"/>
<polygon fill="#666666" stroke="#666666" points="95,-270 95,-270 200,-270 200,-270 95,-270"/>
<polygon fill="none" stroke="#666666" points="95,-204 95,-304 200,-304 200,-204 95,-204"/>
</a>
</g>
</g>
<!-- Node3&#45;&gt;Node1 -->
<g id="edge2_Node000001_Node000003" class="edge">
<title>Node3&#45;&gt;Node1</title>
<g id="a_edge2_Node000001_Node000003"><a xlink:title=" ">
<path fill="none" stroke="#63b8ff" d="M147.5,-192.87C147.5,-182.21 147.5,-170.97 147.5,-159.89"/>
<polygon fill="none" stroke="#63b8ff" points="144,-192.66 147.5,-202.66 151,-192.66 144,-192.66"/>
</a>
</g>
</g>
<!-- Node4 -->
<g id="Node000004" class="node">
<title>Node4</title>
<g id="a_Node000004"><a xlink:href="interface_code_smile_1_1_multi_pal_1_1_input_1_1_generated_input_1_1_i_player_u_i_actions.html" target="_top" xlink:title=" ">
<polygon fill="white" stroke="none" points="375,-312 218,-312 218,-196 375,-196 375,-312"/>
<text text-anchor="start" x="223" y="-298.5" font-family="Helvetica,sans-Serif" font-size="10.00">GeneratedInput::IPlayerUIActions</text>
<text text-anchor="start" x="295" y="-282.5" font-family="Helvetica,sans-Serif" font-size="10.00"> </text>
<text text-anchor="start" x="237" y="-266.5" font-family="Helvetica,sans-Serif" font-size="10.00">+</text>
<text text-anchor="start" x="262" y="-266.5" font-family="Helvetica,sans-Serif" font-size="10.00">OnRequestMenu()</text>
<text text-anchor="start" x="237" y="-250.5" font-family="Helvetica,sans-Serif" font-size="10.00">+</text>
<text text-anchor="start" x="262" y="-250.5" font-family="Helvetica,sans-Serif" font-size="10.00">OnPrevious()</text>
<text text-anchor="start" x="237" y="-234.5" font-family="Helvetica,sans-Serif" font-size="10.00">+</text>
<text text-anchor="start" x="262" y="-234.5" font-family="Helvetica,sans-Serif" font-size="10.00">OnNext()</text>
<text text-anchor="start" x="237" y="-218.5" font-family="Helvetica,sans-Serif" font-size="10.00">+</text>
<text text-anchor="start" x="262" y="-218.5" font-family="Helvetica,sans-Serif" font-size="10.00">OnUp()</text>
<text text-anchor="start" x="237" y="-202.5" font-family="Helvetica,sans-Serif" font-size="10.00">+</text>
<text text-anchor="start" x="262" y="-202.5" font-family="Helvetica,sans-Serif" font-size="10.00">OnDown()</text>
<polygon fill="#666666" stroke="#666666" points="218,-294 218,-294 375,-294 375,-294 218,-294"/>
<polygon fill="#666666" stroke="#666666" points="218,-278 218,-278 375,-278 375,-278 218,-278"/>
<polygon fill="none" stroke="#666666" points="218,-196 218,-312 375,-312 375,-196 218,-196"/>
</a>
</g>
</g>
<!-- Node4&#45;&gt;Node1 -->
<g id="edge3_Node000001_Node000004" class="edge">
<title>Node4&#45;&gt;Node1</title>
<g id="a_edge3_Node000001_Node000004"><a xlink:title=" ">
<path fill="none" stroke="#63b8ff" d="M239.92,-187.68C231.77,-178.28 223.33,-168.53 215,-158.92"/>
<polygon fill="none" stroke="#63b8ff" points="237.11,-189.79 246.31,-195.06 242.41,-185.21 237.11,-189.79"/>
</a>
</g>
</g>
</g>
</svg>
