<?xml version="1.0" encoding="UTF-8" standalone="no"?>
<!DOCTYPE svg PUBLIC "-//W3C//DTD SVG 1.1//EN"
 "http://www.w3.org/Graphics/SVG/1.1/DTD/svg11.dtd">
<!-- Generated by graphviz version 12.1.2 (20240928.0832)
 -->
<!-- Title: PA1A.Items.UI.ClassicContainerUI.OnContainerStopped Pages: 1 -->
<svg width="560pt" height="90pt"
 viewBox="0.00 0.00 560.00 90.00" xmlns="http://www.w3.org/2000/svg" xmlns:xlink="http://www.w3.org/1999/xlink">
<g id="graph0" class="graph" transform="scale(1 1) rotate(0) translate(4 86)">
<title>PA1A.Items.UI.ClassicContainerUI.OnContainerStopped</title>
<!-- Node1 -->
<g id="Node000001" class="node">
<title>Node1</title>
<g id="a_Node000001"><a xlink:title=" ">
<polygon fill="#999999" stroke="#666666" points="552,-57 392,-57 392,-25 552,-25 552,-57"/>
<text text-anchor="start" x="400" y="-43.5" font-family="Helvetica,sans-Serif" font-size="10.00">PA1A.Items.UI.ClassicContainer</text>
<text text-anchor="middle" x="472" y="-31.5" font-family="Helvetica,sans-Serif" font-size="10.00">UI.OnContainerStopped</text>
</a>
</g>
</g>
<!-- Node2 -->
<g id="Node000002" class="node">
<title>Node2</title>
<g id="a_Node000002"><a xlink:href="class_p_a1_a_1_1_items_1_1_u_i_1_1_classic_container_u_i.html#ad64e42f88793cbdad5b678e6b5829314" target="_top" xlink:title=" ">
<polygon fill="white" stroke="#666666" points="356,-82 196,-82 196,-50 356,-50 356,-82"/>
<text text-anchor="start" x="204" y="-68.5" font-family="Helvetica,sans-Serif" font-size="10.00">PA1A.Items.UI.ClassicContainer</text>
<text text-anchor="middle" x="276" y="-56.5" font-family="Helvetica,sans-Serif" font-size="10.00">UI.AwaitPlayerInventoryLoad</text>
</a>
</g>
</g>
<!-- Node1&#45;&gt;Node2 -->
<g id="edge1_Node000001_Node000002" class="edge">
<title>Node1&#45;&gt;Node2</title>
<g id="a_edge1_Node000001_Node000002"><a xlink:title=" ">
<path fill="none" stroke="#63b8ff" d="M380.29,-52.69C372.29,-53.72 364.24,-54.76 356.34,-55.78"/>
<polygon fill="#63b8ff" stroke="#63b8ff" points="380.56,-56.18 390.03,-51.43 379.67,-49.24 380.56,-56.18"/>
</a>
</g>
</g>
<!-- Node4 -->
<g id="Node000004" class="node">
<title>Node4</title>
<g id="a_Node000004"><a xlink:href="class_p_a1_a_1_1_items_1_1_u_i_1_1_classic_container_u_i.html#a2bf19e5eea5ea0220806267effe2c80d" target="_top" xlink:title=" ">
<polygon fill="white" stroke="#666666" points="356,-32 196,-32 196,0 356,0 356,-32"/>
<text text-anchor="start" x="204" y="-18.5" font-family="Helvetica,sans-Serif" font-size="10.00">PA1A.Items.UI.ClassicContainer</text>
<text text-anchor="middle" x="276" y="-6.5" font-family="Helvetica,sans-Serif" font-size="10.00">UI.OnDestroy</text>
</a>
</g>
</g>
<!-- Node1&#45;&gt;Node4 -->
<g id="edge3_Node000001_Node000004" class="edge">
<title>Node1&#45;&gt;Node4</title>
<g id="a_edge3_Node000001_Node000004"><a xlink:title=" ">
<path fill="none" stroke="#63b8ff" d="M380.29,-29.31C372.29,-28.28 364.24,-27.24 356.34,-26.22"/>
<polygon fill="#63b8ff" stroke="#63b8ff" points="379.67,-32.76 390.03,-30.57 380.56,-25.82 379.67,-32.76"/>
</a>
</g>
</g>
<!-- Node3 -->
<g id="Node000003" class="node">
<title>Node3</title>
<g id="a_Node000003"><a xlink:href="class_p_a1_a_1_1_items_1_1_u_i_1_1_classic_container_u_i.html#ab83e4db17a3a7c1f81ee269dfd459b7a" target="_top" xlink:title=" ">
<polygon fill="white" stroke="#666666" points="160,-82 0,-82 0,-50 160,-50 160,-82"/>
<text text-anchor="start" x="8" y="-68.5" font-family="Helvetica,sans-Serif" font-size="10.00">PA1A.Items.UI.ClassicContainer</text>
<text text-anchor="middle" x="80" y="-56.5" font-family="Helvetica,sans-Serif" font-size="10.00">UI.OnEnable</text>
</a>
</g>
</g>
<!-- Node2&#45;&gt;Node3 -->
<g id="edge2_Node000002_Node000003" class="edge">
<title>Node2&#45;&gt;Node3</title>
<g id="a_edge2_Node000002_Node000003"><a xlink:title=" ">
<path fill="none" stroke="#63b8ff" d="M184.29,-66C176.29,-66 168.24,-66 160.34,-66"/>
<polygon fill="#63b8ff" stroke="#63b8ff" points="184.02,-69.5 194.02,-66 184.02,-62.5 184.02,-69.5"/>
</a>
</g>
</g>
</g>
</svg>
