<?xml version="1.0" encoding="UTF-8" standalone="no"?>
<!DOCTYPE svg PUBLIC "-//W3C//DTD SVG 1.1//EN"
 "http://www.w3.org/Graphics/SVG/1.1/DTD/svg11.dtd">
<!-- Generated by graphviz version 12.1.2 (20240928.0832)
 -->
<!-- Title: PA1A.Player.Controller.PlayerMover Pages: 1 -->
<svg width="149pt" height="224pt"
 viewBox="0.00 0.00 149.00 224.00" xmlns="http://www.w3.org/2000/svg" xmlns:xlink="http://www.w3.org/1999/xlink">

<svg id="main" version="1.1" xmlns="http://www.w3.org/2000/svg" xmlns:xlink="http://www.w3.org/1999/xlink" xml:space="preserve">

<style type="text/css"><![CDATA[
.node, .edge {opacity: 0.7;}
.node.selected, .edge.selected {opacity: 1;}
.edge:hover path { stroke: red; }
.edge:hover polygon { stroke: red; fill: red; }
]]></style>
<script type="application/ecmascript" xlink:href="svg.min.js"/>
<svg id="graph" class="graph">
<g id="graph0" class="graph" transform="scale(1 1) rotate(0) translate(4 220)">
<title>PA1A.Player.Controller.PlayerMover</title>
<!-- Node1 -->
<g id="Node000001" class="node">
<title>Node1</title>
<g id="a_Node000001"><a xlink:title=" ">
<polygon fill="#999999" stroke="none" points="141,-128 0,-128 0,0 141,0 141,-128"/>
<text text-anchor="start" x="4.88" y="-114.5" font-family="Helvetica,sans-Serif" font-size="10.00">PA1A.Player.Controller.Player</text>
<text text-anchor="start" x="57" y="-102.5" font-family="Helvetica,sans-Serif" font-size="10.00">Mover</text>
<text text-anchor="start" x="69" y="-86.5" font-family="Helvetica,sans-Serif" font-size="10.00"> </text>
<text text-anchor="start" x="7" y="-70.5" font-family="Helvetica,sans-Serif" font-size="10.00">+</text>
<text text-anchor="start" x="20" y="-70.5" font-family="Helvetica,sans-Serif" font-size="10.00">CheckForGround()</text>
<text text-anchor="start" x="7" y="-54.5" font-family="Helvetica,sans-Serif" font-size="10.00">+</text>
<text text-anchor="start" x="20" y="-54.5" font-family="Helvetica,sans-Serif" font-size="10.00">IsGrounded()</text>
<text text-anchor="start" x="7" y="-38.5" font-family="Helvetica,sans-Serif" font-size="10.00">+</text>
<text text-anchor="start" x="20" y="-38.5" font-family="Helvetica,sans-Serif" font-size="10.00">GetGroundNormal()</text>
<text text-anchor="start" x="7" y="-22.5" font-family="Helvetica,sans-Serif" font-size="10.00">+</text>
<text text-anchor="start" x="20" y="-22.5" font-family="Helvetica,sans-Serif" font-size="10.00">SetVelocity()</text>
<text text-anchor="start" x="7" y="-6.5" font-family="Helvetica,sans-Serif" font-size="10.00">+</text>
<text text-anchor="start" x="20" y="-6.5" font-family="Helvetica,sans-Serif" font-size="10.00">SetExtendSensorRange()</text>
<polygon fill="#666666" stroke="#666666" points="0,-98 0,-98 141,-98 141,-98 0,-98"/>
<polygon fill="#666666" stroke="#666666" points="0,-82 0,-82 141,-82 141,-82 0,-82"/>
<polygon fill="none" stroke="#666666" points="0,0 0,-128 141,-128 141,0 0,0"/>
</a>
</g>
</g>
<!-- Node2 -->
<g id="Node000002" class="node">
<title>Node2</title>
<g id="a_Node000002"><a xlink:href="class_mono_behaviour.html" target="_top" xlink:title=" ">
<polygon fill="white" stroke="none" points="109,-216 32,-216 32,-164 109,-164 109,-216"/>
<text text-anchor="start" x="36.75" y="-202.5" font-family="Helvetica,sans-Serif" font-size="10.00">MonoBehaviour</text>
<text text-anchor="start" x="69" y="-186.5" font-family="Helvetica,sans-Serif" font-size="10.00"> </text>
<text text-anchor="start" x="69" y="-170.5" font-family="Helvetica,sans-Serif" font-size="10.00"> </text>
<polygon fill="#666666" stroke="#666666" points="32,-198 32,-198 109,-198 109,-198 32,-198"/>
<polygon fill="#666666" stroke="#666666" points="32,-182 32,-182 109,-182 109,-182 32,-182"/>
<polygon fill="none" stroke="#666666" points="32,-164 32,-216 109,-216 109,-164 32,-164"/>
</a>
</g>
</g>
<!-- Node2&#45;&gt;Node1 -->
<g id="edge1_Node000001_Node000002" class="edge">
<title>Node2&#45;&gt;Node1</title>
<g id="a_edge1_Node000001_Node000002"><a xlink:title=" ">
<path fill="none" stroke="#63b8ff" d="M70.5,-152.83C70.5,-144.93 70.5,-136.35 70.5,-127.75"/>
<polygon fill="none" stroke="#63b8ff" points="67,-152.69 70.5,-162.69 74,-152.69 67,-152.69"/>
</a>
</g>
</g>
</g>
</svg>
</svg>

<style type='text/css'>
<![CDATA[
[data-mouse-over-selected='false'] { opacity: 0.7; }
[data-mouse-over-selected='true']  { opacity: 1.0; }
]]>
</style>
<script type="application/ecmascript"><![CDATA[
document.addEventListener('DOMContentLoaded', (event) => {
  highlightEdges();
  highlightAdjacentNodes();
});
]]></script>
</svg>
