<?xml version="1.0" encoding="UTF-8" standalone="no"?>
<!DOCTYPE svg PUBLIC "-//W3C//DTD SVG 1.1//EN"
 "http://www.w3.org/Graphics/SVG/1.1/DTD/svg11.dtd">
<!-- Generated by graphviz version 12.1.2 (20240928.0832)
 -->
<!-- Title: PA1A.Items.Container.GetSlot Pages: 1 -->
<svg width="384pt" height="242pt"
 viewBox="0.00 0.00 384.25 242.00" xmlns="http://www.w3.org/2000/svg" xmlns:xlink="http://www.w3.org/1999/xlink">
<g id="graph0" class="graph" transform="scale(1 1) rotate(0) translate(4 238)">
<title>PA1A.Items.Container.GetSlot</title>
<!-- Node1 -->
<g id="Node000001" class="node">
<title>Node1</title>
<g id="a_Node000001"><a xlink:title=" ">
<polygon fill="#999999" stroke="#666666" points="376.25,-124 226.75,-124 226.75,-104 376.25,-104 376.25,-124"/>
<text text-anchor="middle" x="301.5" y="-110.5" font-family="Helvetica,sans-Serif" font-size="10.00">PA1A.Items.Container.GetSlot</text>
</a>
</g>
</g>
<!-- Node2 -->
<g id="Node000002" class="node">
<title>Node2</title>
<g id="a_Node000002"><a xlink:href="class_p_a1_a_1_1_items_1_1_player_inventory.html#a97b47c3c78c0fdf489178b69eb00b7b0" target="_top" xlink:title="Clears the IStackContainer contained ItemStack">
<polygon fill="white" stroke="#666666" points="166.38,-234 24.38,-234 24.38,-202 166.38,-202 166.38,-234"/>
<text text-anchor="start" x="32.38" y="-220.5" font-family="Helvetica,sans-Serif" font-size="10.00">PA1A.Items.PlayerInventory.</text>
<text text-anchor="middle" x="95.38" y="-208.5" font-family="Helvetica,sans-Serif" font-size="10.00">Clear</text>
</a>
</g>
</g>
<!-- Node1&#45;&gt;Node2 -->
<g id="edge1_Node000001_Node000002" class="edge">
<title>Node1&#45;&gt;Node2</title>
<g id="a_edge1_Node000001_Node000002"><a xlink:title=" ">
<path fill="none" stroke="#63b8ff" d="M280.61,-131.79C259.65,-149.67 224.99,-176.82 190.75,-193 183.16,-196.58 174.98,-199.72 166.72,-202.44"/>
<polygon fill="#63b8ff" stroke="#63b8ff" points="282.83,-134.5 288.08,-125.3 278.24,-129.22 282.83,-134.5"/>
</a>
</g>
</g>
<!-- Node3 -->
<g id="Node000003" class="node">
<title>Node3</title>
<g id="a_Node000003"><a xlink:href="class_p_a1_a_1_1_items_1_1_flexible_size_container.html#a332421f40986f665c3e8cd0efb8e289f" target="_top" xlink:title="Gives the specified ItemStack to the IStackContainer and substracts the given amount from the ItemSta...">
<polygon fill="white" stroke="#666666" points="190.38,-184 0.38,-184 0.38,-164 190.38,-164 190.38,-184"/>
<text text-anchor="middle" x="95.38" y="-170.5" font-family="Helvetica,sans-Serif" font-size="10.00">PA1A.Items.FlexibleSizeContainer.Give</text>
</a>
</g>
</g>
<!-- Node1&#45;&gt;Node3 -->
<g id="edge2_Node000001_Node000003" class="edge">
<title>Node1&#45;&gt;Node3</title>
<g id="a_edge2_Node000001_Node000003"><a xlink:title=" ">
<path fill="none" stroke="#63b8ff" d="M265.53,-128.69C244.2,-137.24 216.23,-147.72 190.75,-155 179.58,-158.19 167.52,-161.05 155.88,-163.52"/>
<polygon fill="#63b8ff" stroke="#63b8ff" points="266.68,-132 274.63,-124.99 264.05,-125.51 266.68,-132"/>
</a>
</g>
</g>
<!-- Node4 -->
<g id="Node000004" class="node">
<title>Node4</title>
<g id="a_Node000004"><a xlink:href="class_p_a1_a_1_1_items_1_1_player_inventory.html#a1d2af4b81e701e9e2241a05a3a72cdcb" target="_top" xlink:title="Gives the specified ItemStack to the IStackContainer and substracts the given amount from the ItemSta...">
<polygon fill="white" stroke="#666666" points="176.5,-146 14.25,-146 14.25,-126 176.5,-126 176.5,-146"/>
<text text-anchor="middle" x="95.38" y="-132.5" font-family="Helvetica,sans-Serif" font-size="10.00">PA1A.Items.PlayerInventory.Give</text>
</a>
</g>
</g>
<!-- Node1&#45;&gt;Node4 -->
<g id="edge3_Node000001_Node000004" class="edge">
<title>Node1&#45;&gt;Node4</title>
<g id="a_edge3_Node000001_Node000004"><a xlink:title=" ">
<path fill="none" stroke="#63b8ff" d="M215.37,-123.18C202.55,-124.56 189.37,-125.98 176.66,-127.35"/>
<polygon fill="#63b8ff" stroke="#63b8ff" points="215.45,-126.69 225.01,-122.14 214.7,-119.73 215.45,-126.69"/>
</a>
</g>
</g>
<!-- Node5 -->
<g id="Node000005" class="node">
<title>Node5</title>
<g id="a_Node000005"><a xlink:href="class_p_a1_a_1_1_items_1_1_u_i_1_1_slot_u_i.html#a44ae4af293348ca9cd7af64f634b6e94" target="_top" xlink:title=" ">
<polygon fill="white" stroke="#666666" points="175,-108 15.75,-108 15.75,-76 175,-76 175,-108"/>
<text text-anchor="start" x="23.75" y="-94.5" font-family="Helvetica,sans-Serif" font-size="10.00">PA1A.Items.UI.SlotUI.OnPointer</text>
<text text-anchor="middle" x="95.38" y="-82.5" font-family="Helvetica,sans-Serif" font-size="10.00">Click</text>
</a>
</g>
</g>
<!-- Node1&#45;&gt;Node5 -->
<g id="edge4_Node000001_Node000005" class="edge">
<title>Node1&#45;&gt;Node5</title>
<g id="a_edge4_Node000001_Node000005"><a xlink:title=" ">
<path fill="none" stroke="#63b8ff" d="M215.45,-104.83C202.14,-103.4 188.43,-101.92 175.27,-100.5"/>
<polygon fill="#63b8ff" stroke="#63b8ff" points="214.7,-108.27 225.01,-105.86 215.45,-101.31 214.7,-108.27"/>
</a>
</g>
</g>
<!-- Node6 -->
<g id="Node000006" class="node">
<title>Node6</title>
<g id="a_Node000006"><a xlink:href="class_p_a1_a_1_1_items_1_1_flexible_size_container.html#a8c03a40b4c7c6ca478f42c2b686af17e" target="_top" xlink:title=" ">
<polygon fill="white" stroke="#666666" points="190.75,-58 0,-58 0,-38 190.75,-38 190.75,-58"/>
<text text-anchor="middle" x="95.38" y="-44.5" font-family="Helvetica,sans-Serif" font-size="10.00">PA1A.Items.FlexibleSizeContainer.Take</text>
</a>
</g>
</g>
<!-- Node1&#45;&gt;Node6 -->
<g id="edge5_Node000001_Node000006" class="edge">
<title>Node1&#45;&gt;Node6</title>
<g id="a_edge5_Node000001_Node000006"><a xlink:title=" ">
<path fill="none" stroke="#63b8ff" d="M269.73,-98.79C248.07,-88.6 218.18,-75.53 190.75,-67 180.22,-63.72 168.84,-60.87 157.76,-58.45"/>
<polygon fill="#63b8ff" stroke="#63b8ff" points="268.05,-101.87 278.58,-103.03 271.07,-95.55 268.05,-101.87"/>
</a>
</g>
</g>
<!-- Node7 -->
<g id="Node000007" class="node">
<title>Node7</title>
<g id="a_Node000007"><a xlink:href="class_p_a1_a_1_1_items_1_1_player_inventory.html#a47f9c37eca0997a554980dd4800acf10" target="_top" xlink:title=" ">
<polygon fill="white" stroke="#666666" points="176.88,-20 13.88,-20 13.88,0 176.88,0 176.88,-20"/>
<text text-anchor="middle" x="95.38" y="-6.5" font-family="Helvetica,sans-Serif" font-size="10.00">PA1A.Items.PlayerInventory.Take</text>
</a>
</g>
</g>
<!-- Node1&#45;&gt;Node7 -->
<g id="edge6_Node000001_Node000007" class="edge">
<title>Node1&#45;&gt;Node7</title>
<g id="a_edge6_Node000001_Node000007"><a xlink:title=" ">
<path fill="none" stroke="#63b8ff" d="M282.65,-95.86C262.27,-76.25 227.03,-45.59 190.75,-29 183.3,-25.59 175.25,-22.8 167.09,-20.5"/>
<polygon fill="#63b8ff" stroke="#63b8ff" points="280.02,-98.18 289.6,-102.7 284.93,-93.19 280.02,-98.18"/>
</a>
</g>
</g>
</g>
</svg>
