<?xml version="1.0" encoding="UTF-8" standalone="no"?>
<!DOCTYPE svg PUBLIC "-//W3C//DTD SVG 1.1//EN"
 "http://www.w3.org/Graphics/SVG/1.1/DTD/svg11.dtd">
<!-- Generated by graphviz version 12.1.2 (20240928.0832)
 -->
<!-- Title: PA1A.Items.Item Pages: 1 -->
<svg width="415pt" height="700pt"
 viewBox="0.00 0.00 414.50 700.00" xmlns="http://www.w3.org/2000/svg" xmlns:xlink="http://www.w3.org/1999/xlink">
<g id="graph0" class="graph" transform="scale(1 1) rotate(0) translate(4 696)">
<title>PA1A.Items.Item</title>
<!-- Node1 -->
<g id="Node000001" class="node">
<title>Node1</title>
<g id="a_Node000001"><a xlink:title="Represents an abstract base class for items in the game.">
<polygon fill="#999999" stroke="none" points="293,-604 152,-604 152,-376 293,-376 293,-604"/>
<text text-anchor="start" x="185" y="-590.5" font-family="Helvetica,sans-Serif" font-size="10.00">PA1A.Items.Item</text>
<text text-anchor="start" x="156" y="-574.5" font-family="Helvetica,sans-Serif" font-size="10.00">+</text>
<text text-anchor="start" x="166" y="-574.5" font-family="Helvetica,sans-Serif" font-size="10.00">Name</text>
<text text-anchor="start" x="156" y="-558.5" font-family="Helvetica,sans-Serif" font-size="10.00">+</text>
<text text-anchor="start" x="166" y="-558.5" font-family="Helvetica,sans-Serif" font-size="10.00">Description</text>
<text text-anchor="start" x="156" y="-542.5" font-family="Helvetica,sans-Serif" font-size="10.00">+</text>
<text text-anchor="start" x="166" y="-542.5" font-family="Helvetica,sans-Serif" font-size="10.00">GUID</text>
<text text-anchor="start" x="156" y="-526.5" font-family="Helvetica,sans-Serif" font-size="10.00">+</text>
<text text-anchor="start" x="166" y="-526.5" font-family="Helvetica,sans-Serif" font-size="10.00">FileID</text>
<text text-anchor="start" x="156" y="-510.5" font-family="Helvetica,sans-Serif" font-size="10.00">+</text>
<text text-anchor="start" x="166" y="-510.5" font-family="Helvetica,sans-Serif" font-size="10.00">Icon</text>
<text text-anchor="start" x="156" y="-494.5" font-family="Helvetica,sans-Serif" font-size="10.00">+</text>
<text text-anchor="start" x="166" y="-494.5" font-family="Helvetica,sans-Serif" font-size="10.00">MaxStack</text>
<text text-anchor="start" x="156" y="-478.5" font-family="Helvetica,sans-Serif" font-size="10.00">+</text>
<text text-anchor="start" x="166" y="-478.5" font-family="Helvetica,sans-Serif" font-size="10.00">GetDescriptionDisplayText()</text>
<text text-anchor="start" x="156" y="-462.5" font-family="Helvetica,sans-Serif" font-size="10.00">+</text>
<text text-anchor="start" x="166" y="-462.5" font-family="Helvetica,sans-Serif" font-size="10.00">GetNameDisplayText()</text>
<text text-anchor="start" x="156" y="-446.5" font-family="Helvetica,sans-Serif" font-size="10.00">+</text>
<text text-anchor="start" x="166" y="-446.5" font-family="Helvetica,sans-Serif" font-size="10.00">OnAfterDeserialize()</text>
<text text-anchor="start" x="156" y="-430.5" font-family="Helvetica,sans-Serif" font-size="10.00">+</text>
<text text-anchor="start" x="166" y="-430.5" font-family="Helvetica,sans-Serif" font-size="10.00">OnBeforeSerialize()</text>
<text text-anchor="start" x="156" y="-414.5" font-family="Helvetica,sans-Serif" font-size="10.00">+</text>
<text text-anchor="start" x="166" y="-414.5" font-family="Helvetica,sans-Serif" font-size="10.00">Equals()</text>
<text text-anchor="start" x="156" y="-398.5" font-family="Helvetica,sans-Serif" font-size="10.00">+</text>
<text text-anchor="start" x="166" y="-398.5" font-family="Helvetica,sans-Serif" font-size="10.00">CreateItemStack()</text>
<text text-anchor="start" x="156" y="-382.5" font-family="Helvetica,sans-Serif" font-size="10.00">+</text>
<text text-anchor="start" x="166" y="-382.5" font-family="Helvetica,sans-Serif" font-size="10.00">CreateItemStack()</text>
<polygon fill="#666666" stroke="#666666" points="152,-586 152,-586 293,-586 293,-586 152,-586"/>
<polygon fill="#666666" stroke="#666666" points="152,-490 152,-490 164,-490 164,-490 152,-490"/>
<polygon fill="#666666" stroke="#666666" points="164,-490 164,-490 293,-490 293,-490 164,-490"/>
<polygon fill="none" stroke="#666666" points="152,-376 152,-604 293,-604 293,-376 152,-376"/>
</a>
</g>
</g>
<!-- Node5 -->
<g id="Node000005" class="node">
<title>Node5</title>
<g id="a_Node000005"><a xlink:href="class_p_a1_a_1_1_items_1_1_inventory_item.html" target="_top" xlink:title="Represents an abstract base class for items in the game that can be stored in an inventory.">
<polygon fill="white" stroke="none" points="214,-340 73,-340 73,-192 214,-192 214,-340"/>
<text text-anchor="start" x="85.75" y="-326.5" font-family="Helvetica,sans-Serif" font-size="10.00">PA1A.Items.InventoryItem</text>
<text text-anchor="start" x="77" y="-310.5" font-family="Helvetica,sans-Serif" font-size="10.00">+</text>
<text text-anchor="start" x="87" y="-310.5" font-family="Helvetica,sans-Serif" font-size="10.00">ColoredName</text>
<text text-anchor="start" x="77" y="-294.5" font-family="Helvetica,sans-Serif" font-size="10.00">+</text>
<text text-anchor="start" x="87" y="-294.5" font-family="Helvetica,sans-Serif" font-size="10.00">Value</text>
<text text-anchor="start" x="77" y="-278.5" font-family="Helvetica,sans-Serif" font-size="10.00">+</text>
<text text-anchor="start" x="87" y="-278.5" font-family="Helvetica,sans-Serif" font-size="10.00">Rarity</text>
<text text-anchor="start" x="77" y="-262.5" font-family="Helvetica,sans-Serif" font-size="10.00">+</text>
<text text-anchor="start" x="87" y="-262.5" font-family="Helvetica,sans-Serif" font-size="10.00">ItemPrefab</text>
<text text-anchor="start" x="77" y="-246.5" font-family="Helvetica,sans-Serif" font-size="10.00">+</text>
<text text-anchor="start" x="87" y="-246.5" font-family="Helvetica,sans-Serif" font-size="10.00">Animation</text>
<text text-anchor="start" x="77" y="-230.5" font-family="Helvetica,sans-Serif" font-size="10.00">+</text>
<text text-anchor="start" x="87" y="-230.5" font-family="Helvetica,sans-Serif" font-size="10.00">Process()</text>
<text text-anchor="start" x="77" y="-214.5" font-family="Helvetica,sans-Serif" font-size="10.00">+</text>
<text text-anchor="start" x="87" y="-214.5" font-family="Helvetica,sans-Serif" font-size="10.00">GetNameDisplayText()</text>
<text text-anchor="start" x="77" y="-198.5" font-family="Helvetica,sans-Serif" font-size="10.00">+</text>
<text text-anchor="start" x="87" y="-198.5" font-family="Helvetica,sans-Serif" font-size="10.00">GetDescriptionDisplayText()</text>
<polygon fill="#666666" stroke="#666666" points="73,-322 73,-322 214,-322 214,-322 73,-322"/>
<polygon fill="#666666" stroke="#666666" points="73,-242 73,-242 85,-242 85,-242 73,-242"/>
<polygon fill="#666666" stroke="#666666" points="85,-242 85,-242 214,-242 214,-242 85,-242"/>
<polygon fill="none" stroke="#666666" points="73,-192 73,-340 214,-340 214,-192 73,-192"/>
</a>
</g>
</g>
<!-- Node1&#45;&gt;Node5 -->
<g id="edge4_Node000001_Node000005" class="edge">
<title>Node1&#45;&gt;Node5</title>
<g id="a_edge4_Node000001_Node000005"><a xlink:title=" ">
<path fill="none" stroke="#63b8ff" d="M178.51,-365.39C175.41,-356.68 172.35,-348.08 169.41,-339.8"/>
<polygon fill="none" stroke="#63b8ff" points="175.15,-366.38 181.8,-374.62 181.74,-364.03 175.15,-366.38"/>
</a>
</g>
</g>
<!-- Node10 -->
<g id="Node000010" class="node">
<title>Node10</title>
<g id="a_Node000010"><a xlink:href="class_p_a1_a_1_1_items_1_1_resource_item.html" target="_top" xlink:title="Represents a resource item in the game.">
<polygon fill="white" stroke="none" points="373,-300 232,-300 232,-232 373,-232 373,-300"/>
<text text-anchor="start" x="244" y="-286.5" font-family="Helvetica,sans-Serif" font-size="10.00">PA1A.Items.ResourceItem</text>
<text text-anchor="start" x="301" y="-270.5" font-family="Helvetica,sans-Serif" font-size="10.00"> </text>
<text text-anchor="start" x="236" y="-254.5" font-family="Helvetica,sans-Serif" font-size="10.00">+</text>
<text text-anchor="start" x="246" y="-254.5" font-family="Helvetica,sans-Serif" font-size="10.00">GetNameDisplayText()</text>
<text text-anchor="start" x="236" y="-238.5" font-family="Helvetica,sans-Serif" font-size="10.00">+</text>
<text text-anchor="start" x="246" y="-238.5" font-family="Helvetica,sans-Serif" font-size="10.00">GetDescriptionDisplayText()</text>
<polygon fill="#666666" stroke="#666666" points="232,-282 232,-282 373,-282 373,-282 232,-282"/>
<polygon fill="#666666" stroke="#666666" points="232,-266 232,-266 373,-266 373,-266 232,-266"/>
<polygon fill="none" stroke="#666666" points="232,-232 232,-300 373,-300 373,-232 232,-232"/>
</a>
</g>
</g>
<!-- Node1&#45;&gt;Node10 -->
<g id="edge9_Node000001_Node000010" class="edge">
<title>Node1&#45;&gt;Node10</title>
<g id="a_edge9_Node000001_Node000010"><a xlink:title=" ">
<path fill="none" stroke="#63b8ff" d="M267.11,-365.22C275.86,-340.91 284.32,-317.44 290.78,-299.54"/>
<polygon fill="none" stroke="#63b8ff" points="263.81,-364.03 263.72,-374.63 270.4,-366.4 263.81,-364.03"/>
</a>
</g>
</g>
<!-- Node2 -->
<g id="Node000002" class="node">
<title>Node2</title>
<g id="a_Node000002"><a xlink:href="class_scriptable_object.html" target="_top" xlink:title=" ">
<polygon fill="white" stroke="none" points="132.5,-692 50.5,-692 50.5,-640 132.5,-640 132.5,-692"/>
<text text-anchor="start" x="55.5" y="-678.5" font-family="Helvetica,sans-Serif" font-size="10.00">ScriptableObject</text>
<text text-anchor="start" x="90" y="-662.5" font-family="Helvetica,sans-Serif" font-size="10.00"> </text>
<text text-anchor="start" x="90" y="-646.5" font-family="Helvetica,sans-Serif" font-size="10.00"> </text>
<polygon fill="#666666" stroke="#666666" points="50.5,-674 50.5,-674 132.5,-674 132.5,-674 50.5,-674"/>
<polygon fill="#666666" stroke="#666666" points="50.5,-658 50.5,-658 132.5,-658 132.5,-658 50.5,-658"/>
<polygon fill="none" stroke="#666666" points="50.5,-640 50.5,-692 132.5,-692 132.5,-640 50.5,-640"/>
</a>
</g>
</g>
<!-- Node2&#45;&gt;Node1 -->
<g id="edge1_Node000001_Node000002" class="edge">
<title>Node2&#45;&gt;Node1</title>
<g id="a_edge1_Node000001_Node000002"><a xlink:title=" ">
<path fill="none" stroke="#63b8ff" d="M116.98,-631.16C127.19,-617.6 139.5,-601.24 152.06,-584.56"/>
<polygon fill="none" stroke="#63b8ff" points="114.4,-628.77 111.18,-638.86 119.99,-632.98 114.4,-628.77"/>
</a>
</g>
</g>
<!-- Node3 -->
<g id="Node000003" class="node">
<title>Node3</title>
<g id="a_Node000003"><a xlink:href="class_i_serialization_callback_receiver.html" target="_top" xlink:title=" ">
<polygon fill="white" stroke="none" points="294,-692 151,-692 151,-640 294,-640 294,-692"/>
<text text-anchor="start" x="155.75" y="-678.5" font-family="Helvetica,sans-Serif" font-size="10.00">ISerializationCallbackReceiver</text>
<text text-anchor="start" x="221" y="-662.5" font-family="Helvetica,sans-Serif" font-size="10.00"> </text>
<text text-anchor="start" x="221" y="-646.5" font-family="Helvetica,sans-Serif" font-size="10.00"> </text>
<polygon fill="#666666" stroke="#666666" points="151,-674 151,-674 294,-674 294,-674 151,-674"/>
<polygon fill="#666666" stroke="#666666" points="151,-658 151,-658 294,-658 294,-658 151,-658"/>
<polygon fill="none" stroke="#666666" points="151,-640 151,-692 294,-692 294,-640 151,-640"/>
</a>
</g>
</g>
<!-- Node3&#45;&gt;Node1 -->
<g id="edge2_Node000001_Node000003" class="edge">
<title>Node3&#45;&gt;Node1</title>
<g id="a_edge2_Node000001_Node000003"><a xlink:title=" ">
<path fill="none" stroke="#63b8ff" d="M222.5,-628.72C222.5,-621.03 222.5,-612.53 222.5,-603.64"/>
<polygon fill="none" stroke="#63b8ff" points="219,-628.56 222.5,-638.56 226,-628.56 219,-628.56"/>
</a>
</g>
</g>
<!-- Node4 -->
<g id="Node000004" class="node">
<title>Node4</title>
<g id="a_Node000004"><a xlink:href="class_i_equatable.html" target="_top" xlink:title=" ">
<polygon fill="white" stroke="none" points="406.5,-692 312.5,-692 312.5,-640 406.5,-640 406.5,-692"/>
<text text-anchor="start" x="317.5" y="-678.5" font-family="Helvetica,sans-Serif" font-size="10.00">IEquatable&lt; Item &gt;</text>
<text text-anchor="start" x="358" y="-662.5" font-family="Helvetica,sans-Serif" font-size="10.00"> </text>
<text text-anchor="start" x="358" y="-646.5" font-family="Helvetica,sans-Serif" font-size="10.00"> </text>
<polygon fill="#666666" stroke="#666666" points="312.5,-674 312.5,-674 406.5,-674 406.5,-674 312.5,-674"/>
<polygon fill="#666666" stroke="#666666" points="312.5,-658 312.5,-658 406.5,-658 406.5,-658 312.5,-658"/>
<polygon fill="none" stroke="#666666" points="312.5,-640 312.5,-692 406.5,-692 406.5,-640 312.5,-640"/>
</a>
</g>
</g>
<!-- Node4&#45;&gt;Node1 -->
<g id="edge3_Node000001_Node000004" class="edge">
<title>Node4&#45;&gt;Node1</title>
<g id="a_edge3_Node000001_Node000004"><a xlink:title=" ">
<path fill="none" stroke="#63b8ff" d="M333,-631.35C321.39,-616.6 307.15,-598.51 292.81,-580.3"/>
<polygon fill="none" stroke="#63b8ff" points="330,-633.19 338.93,-638.88 335.5,-628.86 330,-633.19"/>
</a>
</g>
</g>
<!-- Node6 -->
<g id="Node000006" class="node">
<title>Node6</title>
<g id="a_Node000006"><a xlink:href="class_p_a1_a_1_1_items_1_1_consumable_item.html" target="_top" xlink:title=" ">
<polygon fill="white" stroke="none" points="139,-156 0,-156 0,-104 139,-104 139,-156"/>
<text text-anchor="start" x="4.62" y="-142.5" font-family="Helvetica,sans-Serif" font-size="10.00">PA1A.Items.ConsumableItem</text>
<text text-anchor="start" x="23.5" y="-126.5" font-family="Helvetica,sans-Serif" font-size="10.00">+</text>
<text text-anchor="start" x="53" y="-126.5" font-family="Helvetica,sans-Serif" font-size="10.00">ability</text>
<text text-anchor="start" x="23.5" y="-110.5" font-family="Helvetica,sans-Serif" font-size="10.00">+</text>
<text text-anchor="start" x="53" y="-110.5" font-family="Helvetica,sans-Serif" font-size="10.00">Process()</text>
<polygon fill="#666666" stroke="#666666" points="0,-138 0,-138 139,-138 139,-138 0,-138"/>
<polygon fill="#666666" stroke="#666666" points="0,-122 0,-122 51,-122 51,-122 0,-122"/>
<polygon fill="#666666" stroke="#666666" points="51,-122 51,-122 139,-122 139,-122 51,-122"/>
<polygon fill="none" stroke="#666666" points="0,-104 0,-156 139,-156 139,-104 0,-104"/>
</a>
</g>
</g>
<!-- Node5&#45;&gt;Node6 -->
<g id="edge5_Node000005_Node000006" class="edge">
<title>Node5&#45;&gt;Node6</title>
<g id="a_edge5_Node000005_Node000006"><a xlink:title=" ">
<path fill="none" stroke="#63b8ff" d="M97.75,-182.15C92.53,-172.7 87.56,-163.7 83.28,-155.96"/>
<polygon fill="none" stroke="#63b8ff" points="94.62,-183.73 102.52,-190.79 100.75,-180.35 94.62,-183.73"/>
</a>
</g>
</g>
<!-- Node7 -->
<g id="Node000007" class="node">
<title>Node7</title>
<g id="a_Node000007"><a xlink:href="class_p_a1_a_1_1_items_1_1_weapon_item.html" target="_top" xlink:title="Represents an abstract base class for weapon items in the game.">
<polygon fill="white" stroke="none" points="277.5,-156 157.5,-156 157.5,-104 277.5,-104 277.5,-156"/>
<text text-anchor="start" x="162.38" y="-142.5" font-family="Helvetica,sans-Serif" font-size="10.00">PA1A.Items.WeaponItem</text>
<text text-anchor="start" x="172" y="-126.5" font-family="Helvetica,sans-Serif" font-size="10.00">+</text>
<text text-anchor="start" x="192.5" y="-126.5" font-family="Helvetica,sans-Serif" font-size="10.00">weaponAbility</text>
<text text-anchor="start" x="216" y="-110.5" font-family="Helvetica,sans-Serif" font-size="10.00"> </text>
<polygon fill="#666666" stroke="#666666" points="157.5,-138 157.5,-138 277.5,-138 277.5,-138 157.5,-138"/>
<polygon fill="#666666" stroke="#666666" points="157.5,-122 157.5,-122 190.5,-122 190.5,-122 157.5,-122"/>
<polygon fill="#666666" stroke="#666666" points="190.5,-122 190.5,-122 277.5,-122 277.5,-122 190.5,-122"/>
<polygon fill="none" stroke="#666666" points="157.5,-104 157.5,-156 277.5,-156 277.5,-104 157.5,-104"/>
</a>
</g>
</g>
<!-- Node5&#45;&gt;Node7 -->
<g id="edge6_Node000005_Node000007" class="edge">
<title>Node5&#45;&gt;Node7</title>
<g id="a_edge6_Node000005_Node000007"><a xlink:title=" ">
<path fill="none" stroke="#63b8ff" d="M189.25,-182.15C194.47,-172.7 199.44,-163.7 203.72,-155.96"/>
<polygon fill="none" stroke="#63b8ff" points="186.25,-180.35 184.48,-190.79 192.38,-183.73 186.25,-180.35"/>
</a>
</g>
</g>
<!-- Node8 -->
<g id="Node000008" class="node">
<title>Node8</title>
<g id="a_Node000008"><a xlink:href="class_p_a1_a_1_1_items_1_1_melee_item.html" target="_top" xlink:title="Represents a melee weapon item in the game.">
<polygon fill="white" stroke="none" points="206,-68 95,-68 95,0 206,0 206,-68"/>
<text text-anchor="start" x="99.88" y="-54.5" font-family="Helvetica,sans-Serif" font-size="10.00">PA1A.Items.MeleeItem</text>
<text text-anchor="start" x="106.5" y="-38.5" font-family="Helvetica,sans-Serif" font-size="10.00">+</text>
<text text-anchor="start" x="124" y="-38.5" font-family="Helvetica,sans-Serif" font-size="10.00">sweepAngle</text>
<text text-anchor="start" x="106.5" y="-22.5" font-family="Helvetica,sans-Serif" font-size="10.00">+</text>
<text text-anchor="start" x="124" y="-22.5" font-family="Helvetica,sans-Serif" font-size="10.00">weaponRange</text>
<text text-anchor="start" x="106.5" y="-6.5" font-family="Helvetica,sans-Serif" font-size="10.00">+</text>
<text text-anchor="start" x="124" y="-6.5" font-family="Helvetica,sans-Serif" font-size="10.00">Process()</text>
<polygon fill="#666666" stroke="#666666" points="95,-50 95,-50 206,-50 206,-50 95,-50"/>
<polygon fill="#666666" stroke="#666666" points="95,-18 95,-18 122,-18 122,-18 95,-18"/>
<polygon fill="#666666" stroke="#666666" points="122,-18 122,-18 206,-18 206,-18 122,-18"/>
<polygon fill="none" stroke="#666666" points="95,0 95,-68 206,-68 206,0 95,0"/>
</a>
</g>
</g>
<!-- Node7&#45;&gt;Node8 -->
<g id="edge7_Node000007_Node000008" class="edge">
<title>Node7&#45;&gt;Node8</title>
<g id="a_edge7_Node000007_Node000008"><a xlink:title=" ">
<path fill="none" stroke="#63b8ff" d="M193.25,-94.97C186.9,-86.07 180.08,-76.5 173.78,-67.67"/>
<polygon fill="none" stroke="#63b8ff" points="190.36,-96.96 199.02,-103.07 196.06,-92.9 190.36,-96.96"/>
</a>
</g>
</g>
<!-- Node9 -->
<g id="Node000009" class="node">
<title>Node9</title>
<g id="a_Node000009"><a xlink:href="class_p_a1_a_1_1_items_1_1_ranged_item.html" target="_top" xlink:title="Represents a ranged weapon item in the game.">
<polygon fill="white" stroke="none" points="342.5,-60 224.5,-60 224.5,-8 342.5,-8 342.5,-60"/>
<text text-anchor="start" x="229.12" y="-46.5" font-family="Helvetica,sans-Serif" font-size="10.00">PA1A.Items.RangedItem</text>
<text text-anchor="start" x="243" y="-30.5" font-family="Helvetica,sans-Serif" font-size="10.00">+</text>
<text text-anchor="start" x="267.5" y="-30.5" font-family="Helvetica,sans-Serif" font-size="10.00">projectile</text>
<text text-anchor="start" x="243" y="-14.5" font-family="Helvetica,sans-Serif" font-size="10.00">+</text>
<text text-anchor="start" x="267.5" y="-14.5" font-family="Helvetica,sans-Serif" font-size="10.00">Process()</text>
<polygon fill="#666666" stroke="#666666" points="224.5,-42 224.5,-42 342.5,-42 342.5,-42 224.5,-42"/>
<polygon fill="#666666" stroke="#666666" points="224.5,-26 224.5,-26 265.5,-26 265.5,-26 224.5,-26"/>
<polygon fill="#666666" stroke="#666666" points="265.5,-26 265.5,-26 342.5,-26 342.5,-26 265.5,-26"/>
<polygon fill="none" stroke="#666666" points="224.5,-8 224.5,-60 342.5,-60 342.5,-8 224.5,-8"/>
</a>
</g>
</g>
<!-- Node7&#45;&gt;Node9 -->
<g id="edge8_Node000007_Node000009" class="edge">
<title>Node7&#45;&gt;Node9</title>
<g id="a_edge8_Node000007_Node000009"><a xlink:title=" ">
<path fill="none" stroke="#63b8ff" d="M241.44,-94.9C249.58,-83.31 258.51,-70.59 266.05,-59.86"/>
<polygon fill="none" stroke="#63b8ff" points="238.59,-92.87 235.71,-103.06 244.32,-96.89 238.59,-92.87"/>
</a>
</g>
</g>
</g>
</svg>
