<?xml version="1.0" encoding="UTF-8" standalone="no"?>
<!DOCTYPE svg PUBLIC "-//W3C//DTD SVG 1.1//EN"
 "http://www.w3.org/Graphics/SVG/1.1/DTD/svg11.dtd">
<!-- Generated by graphviz version 12.1.2 (20240928.0832)
 -->
<!-- Title: CodeSmile.MultiPal.Settings.GameStateConditionBase Pages: 1 -->
<svg width="478pt" height="324pt"
 viewBox="0.00 0.00 477.50 324.00" xmlns="http://www.w3.org/2000/svg" xmlns:xlink="http://www.w3.org/1999/xlink">

<svg id="main" version="1.1" xmlns="http://www.w3.org/2000/svg" xmlns:xlink="http://www.w3.org/1999/xlink" xml:space="preserve">

<style type="text/css"><![CDATA[
.node, .edge {opacity: 0.7;}
.node.selected, .edge.selected {opacity: 1;}
.edge:hover path { stroke: red; }
.edge:hover polygon { stroke: red; fill: red; }
]]></style>
<script type="application/ecmascript" xlink:href="svg.min.js"/>
<svg id="graph" class="graph">
<g id="graph0" class="graph" transform="scale(1 1) rotate(0) translate(4 320)">
<title>CodeSmile.MultiPal.Settings.GameStateConditionBase</title>
<!-- Node1 -->
<g id="Node000001" class="node">
<title>Node1</title>
<g id="a_Node000001"><a xlink:title=" ">
<polygon fill="#999999" stroke="none" points="313.5,-228 175.5,-228 175.5,-132 313.5,-132 313.5,-228"/>
<text text-anchor="start" x="180.38" y="-214.5" font-family="Helvetica,sans-Serif" font-size="10.00">CodeSmile.MultiPal.Settings.</text>
<text text-anchor="start" x="187.88" y="-202.5" font-family="Helvetica,sans-Serif" font-size="10.00">GameStateConditionBase</text>
<text text-anchor="start" x="243" y="-186.5" font-family="Helvetica,sans-Serif" font-size="10.00"> </text>
<text text-anchor="start" x="193" y="-170.5" font-family="Helvetica,sans-Serif" font-size="10.00">+</text>
<text text-anchor="start" x="216.5" y="-170.5" font-family="Helvetica,sans-Serif" font-size="10.00">OnEnterState()</text>
<text text-anchor="start" x="193" y="-154.5" font-family="Helvetica,sans-Serif" font-size="10.00">+</text>
<text text-anchor="start" x="216.5" y="-154.5" font-family="Helvetica,sans-Serif" font-size="10.00">OnExitState()</text>
<text text-anchor="start" x="193" y="-138.5" font-family="Helvetica,sans-Serif" font-size="10.00">+</text>
<text text-anchor="start" x="216.5" y="-138.5" font-family="Helvetica,sans-Serif" font-size="10.00">IsSatisfied()</text>
<polygon fill="#666666" stroke="#666666" points="175.5,-198 175.5,-198 313.5,-198 313.5,-198 175.5,-198"/>
<polygon fill="#666666" stroke="#666666" points="175.5,-182 175.5,-182 313.5,-182 313.5,-182 175.5,-182"/>
<polygon fill="none" stroke="#666666" points="175.5,-132 175.5,-228 313.5,-228 313.5,-132 175.5,-132"/>
</a>
</g>
</g>
<!-- Node3 -->
<g id="Node000003" class="node">
<title>Node3</title>
<g id="a_Node000003"><a xlink:href="class_code_smile_1_1_multi_pal_1_1_settings_1_1_game_states_1_1_on_timeout_condition.html" target="_top" xlink:title=" ">
<polygon fill="white" stroke="none" points="157,-88 0,-88 0,-8 157,-8 157,-88"/>
<text text-anchor="start" x="5" y="-74.5" font-family="Helvetica,sans-Serif" font-size="10.00">CodeSmile.MultiPal.Settings.</text>
<text text-anchor="start" x="5" y="-62.5" font-family="Helvetica,sans-Serif" font-size="10.00">GameStates.OnTimeoutCondition</text>
<text text-anchor="start" x="77" y="-46.5" font-family="Helvetica,sans-Serif" font-size="10.00"> </text>
<text text-anchor="start" x="22.5" y="-30.5" font-family="Helvetica,sans-Serif" font-size="10.00">+</text>
<text text-anchor="start" x="51" y="-30.5" font-family="Helvetica,sans-Serif" font-size="10.00">OnEnterState()</text>
<text text-anchor="start" x="22.5" y="-14.5" font-family="Helvetica,sans-Serif" font-size="10.00">+</text>
<text text-anchor="start" x="51" y="-14.5" font-family="Helvetica,sans-Serif" font-size="10.00">IsSatisfied()</text>
<polygon fill="#666666" stroke="#666666" points="0,-58 0,-58 157,-58 157,-58 0,-58"/>
<polygon fill="#666666" stroke="#666666" points="0,-42 0,-42 157,-42 157,-42 0,-42"/>
<polygon fill="none" stroke="#666666" points="0,-8 0,-88 157,-88 157,-8 0,-8"/>
</a>
</g>
</g>
<!-- Node1&#45;&gt;Node3 -->
<g id="edge2_Node000001_Node000003" class="edge">
<title>Node1&#45;&gt;Node3</title>
<g id="a_edge2_Node000001_Node000003"><a xlink:title=" ">
<path fill="none" stroke="#63b8ff" d="M175.8,-125.2C159.86,-112.71 143.18,-99.66 128.24,-87.95"/>
<polygon fill="none" stroke="#63b8ff" points="173.35,-127.72 183.38,-131.13 177.66,-122.21 173.35,-127.72"/>
</a>
</g>
</g>
<!-- Node4 -->
<g id="Node000004" class="node">
<title>Node4</title>
<g id="a_Node000004"><a xlink:href="class_code_smile_1_1_multi_pal_1_1_settings_1_1_game_states_1_1_on_went_offline.html" target="_top" xlink:title=" ">
<polygon fill="white" stroke="none" points="313.5,-96 175.5,-96 175.5,0 313.5,0 313.5,-96"/>
<text text-anchor="start" x="180.38" y="-82.5" font-family="Helvetica,sans-Serif" font-size="10.00">CodeSmile.MultiPal.Settings.</text>
<text text-anchor="start" x="184.12" y="-70.5" font-family="Helvetica,sans-Serif" font-size="10.00">GameStates.OnWentOffline</text>
<text text-anchor="start" x="243" y="-54.5" font-family="Helvetica,sans-Serif" font-size="10.00"> </text>
<text text-anchor="start" x="193" y="-38.5" font-family="Helvetica,sans-Serif" font-size="10.00">+</text>
<text text-anchor="start" x="216.5" y="-38.5" font-family="Helvetica,sans-Serif" font-size="10.00">OnEnterState()</text>
<text text-anchor="start" x="193" y="-22.5" font-family="Helvetica,sans-Serif" font-size="10.00">+</text>
<text text-anchor="start" x="216.5" y="-22.5" font-family="Helvetica,sans-Serif" font-size="10.00">OnExitState()</text>
<text text-anchor="start" x="193" y="-6.5" font-family="Helvetica,sans-Serif" font-size="10.00">+</text>
<text text-anchor="start" x="216.5" y="-6.5" font-family="Helvetica,sans-Serif" font-size="10.00">IsSatisfied()</text>
<polygon fill="#666666" stroke="#666666" points="175.5,-66 175.5,-66 313.5,-66 313.5,-66 175.5,-66"/>
<polygon fill="#666666" stroke="#666666" points="175.5,-50 175.5,-50 313.5,-50 313.5,-50 175.5,-50"/>
<polygon fill="none" stroke="#666666" points="175.5,0 175.5,-96 313.5,-96 313.5,0 175.5,0"/>
</a>
</g>
</g>
<!-- Node1&#45;&gt;Node4 -->
<g id="edge3_Node000001_Node000004" class="edge">
<title>Node1&#45;&gt;Node4</title>
<g id="a_edge3_Node000001_Node000004"><a xlink:title=" ">
<path fill="none" stroke="#63b8ff" d="M244.5,-120.82C244.5,-112.47 244.5,-103.96 244.5,-95.86"/>
<polygon fill="none" stroke="#63b8ff" points="241,-120.55 244.5,-130.55 248,-120.55 241,-120.55"/>
</a>
</g>
</g>
<!-- Node5 -->
<g id="Node000005" class="node">
<title>Node5</title>
<g id="a_Node000005"><a xlink:href="class_code_smile_1_1_multi_pal_1_1_settings_1_1_game_states_1_1_on_went_online.html" target="_top" xlink:title=" ">
<polygon fill="white" stroke="none" points="469.5,-96 331.5,-96 331.5,0 469.5,0 469.5,-96"/>
<text text-anchor="start" x="336.38" y="-82.5" font-family="Helvetica,sans-Serif" font-size="10.00">CodeSmile.MultiPal.Settings.</text>
<text text-anchor="start" x="340.12" y="-70.5" font-family="Helvetica,sans-Serif" font-size="10.00">GameStates.OnWentOnline</text>
<text text-anchor="start" x="399" y="-54.5" font-family="Helvetica,sans-Serif" font-size="10.00"> </text>
<text text-anchor="start" x="349" y="-38.5" font-family="Helvetica,sans-Serif" font-size="10.00">+</text>
<text text-anchor="start" x="372.5" y="-38.5" font-family="Helvetica,sans-Serif" font-size="10.00">OnEnterState()</text>
<text text-anchor="start" x="349" y="-22.5" font-family="Helvetica,sans-Serif" font-size="10.00">+</text>
<text text-anchor="start" x="372.5" y="-22.5" font-family="Helvetica,sans-Serif" font-size="10.00">OnExitState()</text>
<text text-anchor="start" x="349" y="-6.5" font-family="Helvetica,sans-Serif" font-size="10.00">+</text>
<text text-anchor="start" x="372.5" y="-6.5" font-family="Helvetica,sans-Serif" font-size="10.00">IsSatisfied()</text>
<polygon fill="#666666" stroke="#666666" points="331.5,-66 331.5,-66 469.5,-66 469.5,-66 331.5,-66"/>
<polygon fill="#666666" stroke="#666666" points="331.5,-50 331.5,-50 469.5,-50 469.5,-50 331.5,-50"/>
<polygon fill="none" stroke="#666666" points="331.5,0 331.5,-96 469.5,-96 469.5,0 331.5,0"/>
</a>
</g>
</g>
<!-- Node1&#45;&gt;Node5 -->
<g id="edge4_Node000001_Node000005" class="edge">
<title>Node1&#45;&gt;Node5</title>
<g id="a_edge4_Node000001_Node000005"><a xlink:title=" ">
<path fill="none" stroke="#63b8ff" d="M309.55,-124.8C321.08,-115.18 333,-105.25 344.26,-95.86"/>
<polygon fill="none" stroke="#63b8ff" points="307.42,-122.01 301.98,-131.1 311.91,-127.38 307.42,-122.01"/>
</a>
</g>
</g>
<!-- Node2 -->
<g id="Node000002" class="node">
<title>Node2</title>
<g id="a_Node000002"><a xlink:href="class_scriptable_object.html" target="_top" xlink:title=" ">
<polygon fill="white" stroke="none" points="285.5,-316 203.5,-316 203.5,-264 285.5,-264 285.5,-316"/>
<text text-anchor="start" x="208.5" y="-302.5" font-family="Helvetica,sans-Serif" font-size="10.00">ScriptableObject</text>
<text text-anchor="start" x="243" y="-286.5" font-family="Helvetica,sans-Serif" font-size="10.00"> </text>
<text text-anchor="start" x="243" y="-270.5" font-family="Helvetica,sans-Serif" font-size="10.00"> </text>
<polygon fill="#666666" stroke="#666666" points="203.5,-298 203.5,-298 285.5,-298 285.5,-298 203.5,-298"/>
<polygon fill="#666666" stroke="#666666" points="203.5,-282 203.5,-282 285.5,-282 285.5,-282 203.5,-282"/>
<polygon fill="none" stroke="#666666" points="203.5,-264 203.5,-316 285.5,-316 285.5,-264 203.5,-264"/>
</a>
</g>
</g>
<!-- Node2&#45;&gt;Node1 -->
<g id="edge1_Node000001_Node000002" class="edge">
<title>Node2&#45;&gt;Node1</title>
<g id="a_edge1_Node000001_Node000002"><a xlink:title=" ">
<path fill="none" stroke="#63b8ff" d="M244.5,-252.93C244.5,-244.86 244.5,-236.19 244.5,-227.75"/>
<polygon fill="none" stroke="#63b8ff" points="241,-252.71 244.5,-262.71 248,-252.71 241,-252.71"/>
</a>
</g>
</g>
</g>
</svg>
</svg>

<style type='text/css'>
<![CDATA[
[data-mouse-over-selected='false'] { opacity: 0.7; }
[data-mouse-over-selected='true']  { opacity: 1.0; }
]]>
</style>
<script type="application/ecmascript"><![CDATA[
document.addEventListener('DOMContentLoaded', (event) => {
  highlightEdges();
  highlightAdjacentNodes();
});
]]></script>
</svg>
