<?xml version="1.0" encoding="UTF-8" standalone="no"?>
<!DOCTYPE svg PUBLIC "-//W3C//DTD SVG 1.1//EN"
 "http://www.w3.org/Graphics/SVG/1.1/DTD/svg11.dtd">
<!-- Generated by graphviz version 12.1.2 (20240928.0832)
 -->
<!-- Title: CodeSmile.Statemachine.Netcode.Conditions.IsNetworkOffline Pages: 1 -->
<svg width="171pt" height="312pt"
 viewBox="0.00 0.00 171.00 312.00" xmlns="http://www.w3.org/2000/svg" xmlns:xlink="http://www.w3.org/1999/xlink">
<g id="graph0" class="graph" transform="scale(1 1) rotate(0) translate(4 308)">
<title>CodeSmile.Statemachine.Netcode.Conditions.IsNetworkOffline</title>
<!-- Node1 -->
<g id="Node000001" class="node">
<title>Node1</title>
<g id="a_Node000001"><a xlink:title="Tests if network is fully offline &#45; the server/host is not immediately offline after calling Shutdown...">
<polygon fill="#999999" stroke="none" points="163,-64 0,-64 0,0 163,0 163,-64"/>
<text text-anchor="start" x="4.62" y="-50.5" font-family="Helvetica,sans-Serif" font-size="10.00">CodeSmile.Statemachine.Netcode.</text>
<text text-anchor="start" x="20.38" y="-38.5" font-family="Helvetica,sans-Serif" font-size="10.00">Conditions.IsNetworkOffline</text>
<text text-anchor="start" x="80" y="-22.5" font-family="Helvetica,sans-Serif" font-size="10.00"> </text>
<text text-anchor="start" x="27" y="-6.5" font-family="Helvetica,sans-Serif" font-size="10.00">+</text>
<text text-anchor="start" x="60" y="-6.5" font-family="Helvetica,sans-Serif" font-size="10.00">IsSatisfied()</text>
<polygon fill="#666666" stroke="#666666" points="0,-34 0,-34 163,-34 163,-34 0,-34"/>
<polygon fill="#666666" stroke="#666666" points="0,-18 0,-18 163,-18 163,-18 0,-18"/>
<polygon fill="none" stroke="#666666" points="0,0 0,-64 163,-64 163,0 0,0"/>
</a>
</g>
</g>
<!-- Node2 -->
<g id="Node000002" class="node">
<title>Node2</title>
<g id="a_Node000002"><a xlink:href="interface_code_smile_1_1_statemachine_1_1_i_condition.html" target="_top" xlink:title="Marks a class as a FSM Condition.">
<polygon fill="white" stroke="none" points="125.5,-168 37.5,-168 37.5,-100 125.5,-100 125.5,-168"/>
<text text-anchor="start" x="59.38" y="-154.5" font-family="Helvetica,sans-Serif" font-size="10.00">ICondition</text>
<text text-anchor="start" x="80" y="-138.5" font-family="Helvetica,sans-Serif" font-size="10.00"> </text>
<text text-anchor="start" x="41.5" y="-122.5" font-family="Helvetica,sans-Serif" font-size="10.00">+</text>
<text text-anchor="start" x="51.5" y="-122.5" font-family="Helvetica,sans-Serif" font-size="10.00">IsSatisfied()</text>
<text text-anchor="start" x="41.5" y="-106.5" font-family="Helvetica,sans-Serif" font-size="10.00">+</text>
<text text-anchor="start" x="51.5" y="-106.5" font-family="Helvetica,sans-Serif" font-size="10.00">ToDebugString()</text>
<polygon fill="#666666" stroke="#666666" points="37.5,-150 37.5,-150 125.5,-150 125.5,-150 37.5,-150"/>
<polygon fill="#666666" stroke="#666666" points="37.5,-134 37.5,-134 125.5,-134 125.5,-134 37.5,-134"/>
<polygon fill="none" stroke="#666666" points="37.5,-100 37.5,-168 125.5,-168 125.5,-100 37.5,-100"/>
</a>
</g>
</g>
<!-- Node2&#45;&gt;Node1 -->
<g id="edge1_Node000001_Node000002" class="edge">
<title>Node2&#45;&gt;Node1</title>
<g id="a_edge1_Node000001_Node000002"><a xlink:title=" ">
<path fill="none" stroke="#63b8ff" d="M81.5,-88.93C81.5,-80.44 81.5,-71.73 81.5,-63.78"/>
<polygon fill="none" stroke="#63b8ff" points="78,-88.74 81.5,-98.74 85,-88.74 78,-88.74"/>
</a>
</g>
</g>
<!-- Node3 -->
<g id="Node000003" class="node">
<title>Node3</title>
<g id="a_Node000003"><a xlink:href="interface_code_smile_1_1_statemachine_1_1_i_statemachine_events.html" target="_top" xlink:title="Event methods that the Statemachine calls at specific times.">
<polygon fill="white" stroke="none" points="133,-304 30,-304 30,-204 133,-204 133,-304"/>
<text text-anchor="start" x="34.62" y="-290.5" font-family="Helvetica,sans-Serif" font-size="10.00">IStatemachineEvents</text>
<text text-anchor="start" x="80" y="-274.5" font-family="Helvetica,sans-Serif" font-size="10.00"> </text>
<text text-anchor="start" x="39" y="-258.5" font-family="Helvetica,sans-Serif" font-size="10.00">+</text>
<text text-anchor="start" x="54" y="-258.5" font-family="Helvetica,sans-Serif" font-size="10.00">OnStart()</text>
<text text-anchor="start" x="39" y="-242.5" font-family="Helvetica,sans-Serif" font-size="10.00">+</text>
<text text-anchor="start" x="54" y="-242.5" font-family="Helvetica,sans-Serif" font-size="10.00">OnStop()</text>
<text text-anchor="start" x="39" y="-226.5" font-family="Helvetica,sans-Serif" font-size="10.00">+</text>
<text text-anchor="start" x="54" y="-226.5" font-family="Helvetica,sans-Serif" font-size="10.00">OnEnterState()</text>
<text text-anchor="start" x="39" y="-210.5" font-family="Helvetica,sans-Serif" font-size="10.00">+</text>
<text text-anchor="start" x="54" y="-210.5" font-family="Helvetica,sans-Serif" font-size="10.00">OnExitState()</text>
<polygon fill="#666666" stroke="#666666" points="30,-286 30,-286 133,-286 133,-286 30,-286"/>
<polygon fill="#666666" stroke="#666666" points="30,-270 30,-270 133,-270 133,-270 30,-270"/>
<polygon fill="none" stroke="#666666" points="30,-204 30,-304 133,-304 133,-204 30,-204"/>
</a>
</g>
</g>
<!-- Node3&#45;&gt;Node2 -->
<g id="edge2_Node000002_Node000003" class="edge">
<title>Node3&#45;&gt;Node2</title>
<g id="a_edge2_Node000002_Node000003"><a xlink:title=" ">
<path fill="none" stroke="#63b8ff" d="M81.5,-192.96C81.5,-184.28 81.5,-175.62 81.5,-167.75"/>
<polygon fill="none" stroke="#63b8ff" points="78,-192.81 81.5,-202.81 85,-192.81 78,-192.81"/>
</a>
</g>
</g>
</g>
</svg>
