<?xml version="1.0" encoding="UTF-8" standalone="no"?>
<!DOCTYPE svg PUBLIC "-//W3C//DTD SVG 1.1//EN"
 "http://www.w3.org/Graphics/SVG/1.1/DTD/svg11.dtd">
<!-- Generated by graphviz version 12.1.2 (20240928.0832)
 -->
<!-- Title: PA1A.Characters.Character.ClearAffects Pages: 1 -->
<svg width="661pt" height="40pt"
 viewBox="0.00 0.00 660.75 40.00" xmlns="http://www.w3.org/2000/svg" xmlns:xlink="http://www.w3.org/1999/xlink">
<g id="graph0" class="graph" transform="scale(1 1) rotate(0) translate(4 36)">
<title>PA1A.Characters.Character.ClearAffects</title>
<!-- Node1 -->
<g id="Node000001" class="node">
<title>Node1</title>
<g id="a_Node000001"><a xlink:title=" ">
<polygon fill="#999999" stroke="#666666" points="140.5,-32 0,-32 0,0 140.5,0 140.5,-32"/>
<text text-anchor="start" x="8" y="-18.5" font-family="Helvetica,sans-Serif" font-size="10.00">PA1A.Characters.Character.</text>
<text text-anchor="middle" x="70.25" y="-6.5" font-family="Helvetica,sans-Serif" font-size="10.00">ClearAffects</text>
</a>
</g>
</g>
<!-- Node2 -->
<g id="Node000002" class="node">
<title>Node2</title>
<g id="a_Node000002"><a xlink:href="class_p_a1_a_1_1_characters_1_1_character.html#aa57c93481546ece781e9ecb3abba16d3" target="_top" xlink:title=" ">
<polygon fill="white" stroke="#666666" points="317,-32 176.5,-32 176.5,0 317,0 317,-32"/>
<text text-anchor="start" x="184.5" y="-18.5" font-family="Helvetica,sans-Serif" font-size="10.00">PA1A.Characters.Character.</text>
<text text-anchor="middle" x="246.75" y="-6.5" font-family="Helvetica,sans-Serif" font-size="10.00">ClearAffectsServerRPC</text>
</a>
</g>
</g>
<!-- Node1&#45;&gt;Node2 -->
<g id="edge1_Node000001_Node000002" class="edge">
<title>Node1&#45;&gt;Node2</title>
<g id="a_edge1_Node000001_Node000002"><a xlink:title=" ">
<path fill="none" stroke="#63b8ff" d="M140.97,-16C148.75,-16 156.73,-16 164.63,-16"/>
<polygon fill="#63b8ff" stroke="#63b8ff" points="164.63,-19.5 174.63,-16 164.63,-12.5 164.63,-19.5"/>
</a>
</g>
</g>
<!-- Node3 -->
<g id="Node000003" class="node">
<title>Node3</title>
<g id="a_Node000003"><a xlink:href="class_p_a1_a_1_1_characters_1_1_character.html#a037dca5b89595d597065de0f5b5c7cde" target="_top" xlink:title=" ">
<polygon fill="white" stroke="#666666" points="493.5,-32 353,-32 353,0 493.5,0 493.5,-32"/>
<text text-anchor="start" x="361" y="-18.5" font-family="Helvetica,sans-Serif" font-size="10.00">PA1A.Characters.Character.</text>
<text text-anchor="middle" x="423.25" y="-6.5" font-family="Helvetica,sans-Serif" font-size="10.00">ClearAffectsClientRPC</text>
</a>
</g>
</g>
<!-- Node2&#45;&gt;Node3 -->
<g id="edge2_Node000002_Node000003" class="edge">
<title>Node2&#45;&gt;Node3</title>
<g id="a_edge2_Node000002_Node000003"><a xlink:title=" ">
<path fill="none" stroke="#63b8ff" d="M317.47,-16C325.25,-16 333.23,-16 341.13,-16"/>
<polygon fill="#63b8ff" stroke="#63b8ff" points="341.13,-19.5 351.13,-16 341.13,-12.5 341.13,-19.5"/>
</a>
</g>
</g>
<!-- Node4 -->
<g id="Node000004" class="node">
<title>Node4</title>
<g id="a_Node000004"><a xlink:href="class_p_a1_a_1_1_abilities_1_1_ability.html#a735a9b8cbfdae12d8c8cfebc1e5fca1b" target="_top" xlink:title="Called when the ability is last applied to the target.">
<polygon fill="white" stroke="#666666" points="652.75,-32 529.5,-32 529.5,0 652.75,0 652.75,-32"/>
<text text-anchor="start" x="537.5" y="-18.5" font-family="Helvetica,sans-Serif" font-size="10.00">PA1A.Abilities.Ability.Un</text>
<text text-anchor="middle" x="591.12" y="-6.5" font-family="Helvetica,sans-Serif" font-size="10.00">Apply</text>
</a>
</g>
</g>
<!-- Node3&#45;&gt;Node4 -->
<g id="edge3_Node000003_Node000004" class="edge">
<title>Node3&#45;&gt;Node4</title>
<g id="a_edge3_Node000003_Node000004"><a xlink:title=" ">
<path fill="none" stroke="#63b8ff" d="M493.63,-16C501.66,-16 509.86,-16 517.92,-16"/>
<polygon fill="#63b8ff" stroke="#63b8ff" points="517.68,-19.5 527.68,-16 517.68,-12.5 517.68,-19.5"/>
</a>
</g>
</g>
</g>
</svg>
