<?xml version="1.0" encoding="UTF-8" standalone="no"?>
<!DOCTYPE svg PUBLIC "-//W3C//DTD SVG 1.1//EN"
 "http://www.w3.org/Graphics/SVG/1.1/DTD/svg11.dtd">
<!-- Generated by graphviz version 12.1.2 (20240928.0832)
 -->
<!-- Title: UnityUtils.StateMachine.FuncPredicate Pages: 1 -->
<svg width="127pt" height="176pt"
 viewBox="0.00 0.00 127.00 176.00" xmlns="http://www.w3.org/2000/svg" xmlns:xlink="http://www.w3.org/1999/xlink">

<svg id="main" version="1.1" xmlns="http://www.w3.org/2000/svg" xmlns:xlink="http://www.w3.org/1999/xlink" xml:space="preserve">

<style type="text/css"><![CDATA[
.node, .edge {opacity: 0.7;}
.node.selected, .edge.selected {opacity: 1;}
.edge:hover path { stroke: red; }
.edge:hover polygon { stroke: red; fill: red; }
]]></style>
<script type="application/ecmascript" xlink:href="svg.min.js"/>
<svg id="graph" class="graph">
<g id="graph0" class="graph" transform="scale(1 1) rotate(0) translate(4 172)">
<title>UnityUtils.StateMachine.FuncPredicate</title>
<!-- Node1 -->
<g id="Node000001" class="node">
<title>Node1</title>
<g id="a_Node000001"><a xlink:title="Represents a predicate that uses a Func delegate to evaluate a condition.">
<polygon fill="#999999" stroke="none" points="119,-80 0,-80 0,0 119,0 119,-80"/>
<text text-anchor="start" x="4.75" y="-66.5" font-family="Helvetica,sans-Serif" font-size="10.00">UnityUtils.StateMachine.</text>
<text text-anchor="start" x="28" y="-54.5" font-family="Helvetica,sans-Serif" font-size="10.00">FuncPredicate</text>
<text text-anchor="start" x="58" y="-38.5" font-family="Helvetica,sans-Serif" font-size="10.00"> </text>
<text text-anchor="start" x="12" y="-22.5" font-family="Helvetica,sans-Serif" font-size="10.00">+</text>
<text text-anchor="start" x="30" y="-22.5" font-family="Helvetica,sans-Serif" font-size="10.00">FuncPredicate()</text>
<text text-anchor="start" x="12" y="-6.5" font-family="Helvetica,sans-Serif" font-size="10.00">+</text>
<text text-anchor="start" x="30" y="-6.5" font-family="Helvetica,sans-Serif" font-size="10.00">Evaluate()</text>
<polygon fill="#666666" stroke="#666666" points="0,-50 0,-50 119,-50 119,-50 0,-50"/>
<polygon fill="#666666" stroke="#666666" points="0,-34 0,-34 119,-34 119,-34 0,-34"/>
<polygon fill="none" stroke="#666666" points="0,0 0,-80 119,-80 119,0 0,0"/>
</a>
</g>
</g>
<!-- Node2 -->
<g id="Node000002" class="node">
<title>Node2</title>
<g id="a_Node000002"><a xlink:href="interface_unity_utils_1_1_i_predicate.html" target="_top" xlink:title=" ">
<polygon fill="white" stroke="none" points="90.5,-168 28.5,-168 28.5,-116 90.5,-116 90.5,-168"/>
<text text-anchor="start" x="37.38" y="-154.5" font-family="Helvetica,sans-Serif" font-size="10.00">IPredicate</text>
<text text-anchor="start" x="58" y="-138.5" font-family="Helvetica,sans-Serif" font-size="10.00"> </text>
<text text-anchor="start" x="32.5" y="-122.5" font-family="Helvetica,sans-Serif" font-size="10.00">+</text>
<text text-anchor="start" x="42.5" y="-122.5" font-family="Helvetica,sans-Serif" font-size="10.00">Evaluate()</text>
<polygon fill="#666666" stroke="#666666" points="28.5,-150 28.5,-150 90.5,-150 90.5,-150 28.5,-150"/>
<polygon fill="#666666" stroke="#666666" points="28.5,-134 28.5,-134 90.5,-134 90.5,-134 28.5,-134"/>
<polygon fill="none" stroke="#666666" points="28.5,-116 28.5,-168 90.5,-168 90.5,-116 28.5,-116"/>
</a>
</g>
</g>
<!-- Node2&#45;&gt;Node1 -->
<g id="edge1_Node000001_Node000002" class="edge">
<title>Node2&#45;&gt;Node1</title>
<g id="a_edge1_Node000001_Node000002"><a xlink:title=" ">
<path fill="none" stroke="#63b8ff" d="M59.5,-104.61C59.5,-96.5 59.5,-87.86 59.5,-79.65"/>
<polygon fill="none" stroke="#63b8ff" points="56,-104.51 59.5,-114.51 63,-104.51 56,-104.51"/>
</a>
</g>
</g>
</g>
</svg>
</svg>

<style type='text/css'>
<![CDATA[
[data-mouse-over-selected='false'] { opacity: 0.7; }
[data-mouse-over-selected='true']  { opacity: 1.0; }
]]>
</style>
<script type="application/ecmascript"><![CDATA[
document.addEventListener('DOMContentLoaded', (event) => {
  highlightEdges();
  highlightAdjacentNodes();
});
]]></script>
</svg>
