<?xml version="1.0" encoding="UTF-8" standalone="no"?>
<!DOCTYPE svg PUBLIC "-//W3C//DTD SVG 1.1//EN"
 "http://www.w3.org/Graphics/SVG/1.1/DTD/svg11.dtd">
<!-- Generated by graphviz version 12.1.2 (20240928.0832)
 -->
<!-- Title: PA1A.Abilities.Ability Pages: 1 -->
<svg width="423pt" height="316pt"
 viewBox="0.00 0.00 422.50 316.00" xmlns="http://www.w3.org/2000/svg" xmlns:xlink="http://www.w3.org/1999/xlink">

<svg id="main" version="1.1" xmlns="http://www.w3.org/2000/svg" xmlns:xlink="http://www.w3.org/1999/xlink" xml:space="preserve">

<style type="text/css"><![CDATA[
.node, .edge {opacity: 0.7;}
.node.selected, .edge.selected {opacity: 1;}
.edge:hover path { stroke: red; }
.edge:hover polygon { stroke: red; fill: red; }
]]></style>
<script type="application/ecmascript" xlink:href="svg.min.js"/>
<svg id="graph" class="graph">
<g id="graph0" class="graph" transform="scale(1 1) rotate(0) translate(4 312)">
<title>PA1A.Abilities.Ability</title>
<!-- Node1 -->
<g id="Node000001" class="node">
<title>Node1</title>
<g id="a_Node000001"><a xlink:title="Base class for all abilities.">
<polygon fill="#999999" stroke="none" points="268.5,-220 162.5,-220 162.5,-88 268.5,-88 268.5,-220"/>
<text text-anchor="start" x="169.38" y="-206.5" font-family="Helvetica,sans-Serif" font-size="10.00">PA1A.Abilities.Ability</text>
<text text-anchor="start" x="166.5" y="-190.5" font-family="Helvetica,sans-Serif" font-size="10.00">+</text>
<text text-anchor="start" x="176.5" y="-190.5" font-family="Helvetica,sans-Serif" font-size="10.00">GUID</text>
<text text-anchor="start" x="166.5" y="-174.5" font-family="Helvetica,sans-Serif" font-size="10.00">+</text>
<text text-anchor="start" x="176.5" y="-174.5" font-family="Helvetica,sans-Serif" font-size="10.00">FileID</text>
<text text-anchor="start" x="166.5" y="-158.5" font-family="Helvetica,sans-Serif" font-size="10.00">+</text>
<text text-anchor="start" x="176.5" y="-158.5" font-family="Helvetica,sans-Serif" font-size="10.00">Name</text>
<text text-anchor="start" x="166.5" y="-142.5" font-family="Helvetica,sans-Serif" font-size="10.00">+</text>
<text text-anchor="start" x="176.5" y="-142.5" font-family="Helvetica,sans-Serif" font-size="10.00">Process()</text>
<text text-anchor="start" x="166.5" y="-126.5" font-family="Helvetica,sans-Serif" font-size="10.00">+</text>
<text text-anchor="start" x="176.5" y="-126.5" font-family="Helvetica,sans-Serif" font-size="10.00">OnAfterDeserialize()</text>
<text text-anchor="start" x="166.5" y="-110.5" font-family="Helvetica,sans-Serif" font-size="10.00">+</text>
<text text-anchor="start" x="176.5" y="-110.5" font-family="Helvetica,sans-Serif" font-size="10.00">OnBeforeSerialize()</text>
<text text-anchor="start" x="166.5" y="-94.5" font-family="Helvetica,sans-Serif" font-size="10.00">+</text>
<text text-anchor="start" x="176.5" y="-94.5" font-family="Helvetica,sans-Serif" font-size="10.00">Equals()</text>
<polygon fill="#666666" stroke="#666666" points="162.5,-202 162.5,-202 268.5,-202 268.5,-202 162.5,-202"/>
<polygon fill="#666666" stroke="#666666" points="162.5,-154 162.5,-154 174.5,-154 174.5,-154 162.5,-154"/>
<polygon fill="#666666" stroke="#666666" points="174.5,-154 174.5,-154 268.5,-154 268.5,-154 174.5,-154"/>
<polygon fill="none" stroke="#666666" points="162.5,-88 162.5,-220 268.5,-220 268.5,-88 162.5,-88"/>
</a>
</g>
</g>
<!-- Node5 -->
<g id="Node000005" class="node">
<title>Node5</title>
<g id="a_Node000005"><a xlink:href="class_p_a1_a_1_1_abilities_1_1_damage_ability.html" target="_top" xlink:title="Represents a damage ability that can be used by a character to inflict damage on a target.">
<polygon fill="white" stroke="none" points="139,-52 0,-52 0,0 139,0 139,-52"/>
<text text-anchor="start" x="5" y="-38.5" font-family="Helvetica,sans-Serif" font-size="10.00">PA1A.Abilities.DamageAbility</text>
<text text-anchor="start" x="17" y="-22.5" font-family="Helvetica,sans-Serif" font-size="10.00">+</text>
<text text-anchor="start" x="40" y="-22.5" font-family="Helvetica,sans-Serif" font-size="10.00">damageAmount</text>
<text text-anchor="start" x="17" y="-6.5" font-family="Helvetica,sans-Serif" font-size="10.00">+</text>
<text text-anchor="start" x="40" y="-6.5" font-family="Helvetica,sans-Serif" font-size="10.00">Process()</text>
<polygon fill="#666666" stroke="#666666" points="0,-34 0,-34 139,-34 139,-34 0,-34"/>
<polygon fill="#666666" stroke="#666666" points="0,-18 0,-18 38,-18 38,-18 0,-18"/>
<polygon fill="#666666" stroke="#666666" points="38,-18 38,-18 139,-18 139,-18 38,-18"/>
<polygon fill="none" stroke="#666666" points="0,0 0,-52 139,-52 139,0 0,0"/>
</a>
</g>
</g>
<!-- Node1&#45;&gt;Node5 -->
<g id="edge4_Node000001_Node000005" class="edge">
<title>Node1&#45;&gt;Node5</title>
<g id="a_edge4_Node000001_Node000005"><a xlink:title=" ">
<path fill="none" stroke="#63b8ff" d="M154.28,-100.16C134.89,-83.43 114.36,-65.72 98.37,-51.91"/>
<polygon fill="none" stroke="#63b8ff" points="151.79,-102.64 161.64,-106.52 156.36,-97.34 151.79,-102.64"/>
</a>
</g>
</g>
<!-- Node6 -->
<g id="Node000006" class="node">
<title>Node6</title>
<g id="a_Node000006"><a xlink:href="class_p_a1_a_1_1_abilities_1_1_fireability.html" target="_top" xlink:title="Represents a fire ability.">
<polygon fill="white" stroke="none" points="274,-52 157,-52 157,0 274,0 274,-52"/>
<text text-anchor="start" x="161.88" y="-38.5" font-family="Helvetica,sans-Serif" font-size="10.00">PA1A.Abilities.Fireability</text>
<text text-anchor="start" x="214" y="-22.5" font-family="Helvetica,sans-Serif" font-size="10.00"> </text>
<text text-anchor="start" x="175" y="-6.5" font-family="Helvetica,sans-Serif" font-size="10.00">+</text>
<text text-anchor="start" x="199" y="-6.5" font-family="Helvetica,sans-Serif" font-size="10.00">Process()</text>
<polygon fill="#666666" stroke="#666666" points="157,-34 157,-34 274,-34 274,-34 157,-34"/>
<polygon fill="#666666" stroke="#666666" points="157,-18 157,-18 274,-18 274,-18 157,-18"/>
<polygon fill="none" stroke="#666666" points="157,0 157,-52 274,-52 274,0 157,0"/>
</a>
</g>
</g>
<!-- Node1&#45;&gt;Node6 -->
<g id="edge5_Node000001_Node000006" class="edge">
<title>Node1&#45;&gt;Node6</title>
<g id="a_edge5_Node000001_Node000006"><a xlink:title=" ">
<path fill="none" stroke="#63b8ff" d="M215.5,-76.75C215.5,-67.85 215.5,-59.32 215.5,-51.92"/>
<polygon fill="none" stroke="#63b8ff" points="212,-76.64 215.5,-86.64 219,-76.64 212,-76.64"/>
</a>
</g>
</g>
<!-- Node7 -->
<g id="Node000007" class="node">
<title>Node7</title>
<g id="a_Node000007"><a xlink:href="class_p_a1_a_1_1_abilities_1_1_heal_ability.html" target="_top" xlink:title="Represents a heal ability that can be used to restore health to a target.">
<polygon fill="white" stroke="none" points="414.5,-52 292.5,-52 292.5,0 414.5,0 414.5,-52"/>
<text text-anchor="start" x="297.25" y="-38.5" font-family="Helvetica,sans-Serif" font-size="10.00">PA1A.Abilities.HealAbility</text>
<text text-anchor="start" x="309.5" y="-22.5" font-family="Helvetica,sans-Serif" font-size="10.00">+</text>
<text text-anchor="start" x="332.5" y="-22.5" font-family="Helvetica,sans-Serif" font-size="10.00">healAmount</text>
<text text-anchor="start" x="309.5" y="-6.5" font-family="Helvetica,sans-Serif" font-size="10.00">+</text>
<text text-anchor="start" x="332.5" y="-6.5" font-family="Helvetica,sans-Serif" font-size="10.00">Process()</text>
<polygon fill="#666666" stroke="#666666" points="292.5,-34 292.5,-34 414.5,-34 414.5,-34 292.5,-34"/>
<polygon fill="#666666" stroke="#666666" points="292.5,-18 292.5,-18 330.5,-18 330.5,-18 292.5,-18"/>
<polygon fill="#666666" stroke="#666666" points="330.5,-18 330.5,-18 414.5,-18 414.5,-18 330.5,-18"/>
<polygon fill="none" stroke="#666666" points="292.5,0 292.5,-52 414.5,-52 414.5,0 292.5,0"/>
</a>
</g>
</g>
<!-- Node1&#45;&gt;Node7 -->
<g id="edge6_Node000001_Node000007" class="edge">
<title>Node1&#45;&gt;Node7</title>
<g id="a_edge6_Node000001_Node000007"><a xlink:title=" ">
<path fill="none" stroke="#63b8ff" d="M276.89,-96.95C294.2,-81.14 312.16,-64.74 326.34,-51.8"/>
<polygon fill="none" stroke="#63b8ff" points="274.6,-94.3 269.58,-103.62 279.32,-99.47 274.6,-94.3"/>
</a>
</g>
</g>
<!-- Node2 -->
<g id="Node000002" class="node">
<title>Node2</title>
<g id="a_Node000002"><a xlink:href="class_scriptable_object.html" target="_top" xlink:title=" ">
<polygon fill="white" stroke="none" points="125.5,-308 43.5,-308 43.5,-256 125.5,-256 125.5,-308"/>
<text text-anchor="start" x="48.5" y="-294.5" font-family="Helvetica,sans-Serif" font-size="10.00">ScriptableObject</text>
<text text-anchor="start" x="83" y="-278.5" font-family="Helvetica,sans-Serif" font-size="10.00"> </text>
<text text-anchor="start" x="83" y="-262.5" font-family="Helvetica,sans-Serif" font-size="10.00"> </text>
<polygon fill="#666666" stroke="#666666" points="43.5,-290 43.5,-290 125.5,-290 125.5,-290 43.5,-290"/>
<polygon fill="#666666" stroke="#666666" points="43.5,-274 43.5,-274 125.5,-274 125.5,-274 43.5,-274"/>
<polygon fill="none" stroke="#666666" points="43.5,-256 43.5,-308 125.5,-308 125.5,-256 43.5,-256"/>
</a>
</g>
</g>
<!-- Node2&#45;&gt;Node1 -->
<g id="edge1_Node000001_Node000002" class="edge">
<title>Node2&#45;&gt;Node1</title>
<g id="a_edge1_Node000001_Node000002"><a xlink:title=" ">
<path fill="none" stroke="#63b8ff" d="M118.43,-248.36C131.89,-235.42 147.69,-220.22 162.58,-205.9"/>
<polygon fill="none" stroke="#63b8ff" points="116.25,-245.6 111.47,-255.06 121.11,-250.65 116.25,-245.6"/>
</a>
</g>
</g>
<!-- Node3 -->
<g id="Node000003" class="node">
<title>Node3</title>
<g id="a_Node000003"><a xlink:href="class_i_serialization_callback_receiver.html" target="_top" xlink:title=" ">
<polygon fill="white" stroke="none" points="287,-308 144,-308 144,-256 287,-256 287,-308"/>
<text text-anchor="start" x="148.75" y="-294.5" font-family="Helvetica,sans-Serif" font-size="10.00">ISerializationCallbackReceiver</text>
<text text-anchor="start" x="214" y="-278.5" font-family="Helvetica,sans-Serif" font-size="10.00"> </text>
<text text-anchor="start" x="214" y="-262.5" font-family="Helvetica,sans-Serif" font-size="10.00"> </text>
<polygon fill="#666666" stroke="#666666" points="144,-290 144,-290 287,-290 287,-290 144,-290"/>
<polygon fill="#666666" stroke="#666666" points="144,-274 144,-274 287,-274 287,-274 144,-274"/>
<polygon fill="none" stroke="#666666" points="144,-256 144,-308 287,-308 287,-256 144,-256"/>
</a>
</g>
</g>
<!-- Node3&#45;&gt;Node1 -->
<g id="edge2_Node000001_Node000003" class="edge">
<title>Node3&#45;&gt;Node1</title>
<g id="a_edge2_Node000001_Node000003"><a xlink:title=" ">
<path fill="none" stroke="#63b8ff" d="M215.5,-244.79C215.5,-236.94 215.5,-228.4 215.5,-219.82"/>
<polygon fill="none" stroke="#63b8ff" points="212,-244.59 215.5,-254.59 219,-244.59 212,-244.59"/>
</a>
</g>
</g>
<!-- Node4 -->
<g id="Node000004" class="node">
<title>Node4</title>
<g id="a_Node000004"><a xlink:href="class_i_equatable.html" target="_top" xlink:title=" ">
<polygon fill="white" stroke="none" points="405.5,-308 305.5,-308 305.5,-256 405.5,-256 405.5,-308"/>
<text text-anchor="start" x="310.12" y="-294.5" font-family="Helvetica,sans-Serif" font-size="10.00">IEquatable&lt; Ability &gt;</text>
<text text-anchor="start" x="354" y="-278.5" font-family="Helvetica,sans-Serif" font-size="10.00"> </text>
<text text-anchor="start" x="354" y="-262.5" font-family="Helvetica,sans-Serif" font-size="10.00"> </text>
<polygon fill="#666666" stroke="#666666" points="305.5,-290 305.5,-290 405.5,-290 405.5,-290 305.5,-290"/>
<polygon fill="#666666" stroke="#666666" points="305.5,-274 305.5,-274 405.5,-274 405.5,-274 305.5,-274"/>
<polygon fill="none" stroke="#666666" points="305.5,-256 305.5,-308 405.5,-308 405.5,-256 305.5,-256"/>
</a>
</g>
</g>
<!-- Node4&#45;&gt;Node1 -->
<g id="edge3_Node000001_Node000004" class="edge">
<title>Node4&#45;&gt;Node1</title>
<g id="a_edge3_Node000001_Node000004"><a xlink:title=" ">
<path fill="none" stroke="#63b8ff" d="M319.52,-248.62C303.95,-234.61 285.41,-217.92 268.32,-202.54"/>
<polygon fill="none" stroke="#63b8ff" points="316.94,-251.01 326.72,-255.09 321.62,-245.8 316.94,-251.01"/>
</a>
</g>
</g>
</g>
</svg>
</svg>

<style type='text/css'>
<![CDATA[
[data-mouse-over-selected='false'] { opacity: 0.7; }
[data-mouse-over-selected='true']  { opacity: 1.0; }
]]>
</style>
<script type="application/ecmascript"><![CDATA[
document.addEventListener('DOMContentLoaded', (event) => {
  highlightEdges();
  highlightAdjacentNodes();
});
]]></script>
</svg>
