<?xml version="1.0" encoding="UTF-8" standalone="no"?>
<!DOCTYPE svg PUBLIC "-//W3C//DTD SVG 1.1//EN"
 "http://www.w3.org/Graphics/SVG/1.1/DTD/svg11.dtd">
<!-- Generated by graphviz version 12.1.2 (20240928.0832)
 -->
<!-- Title: CodeSmile.MultiPal.Players.Couch.CouchPlayersVars Pages: 1 -->
<svg width="143pt" height="192pt"
 viewBox="0.00 0.00 143.00 192.00" xmlns="http://www.w3.org/2000/svg" xmlns:xlink="http://www.w3.org/1999/xlink">
<g id="graph0" class="graph" transform="scale(1 1) rotate(0) translate(4 188)">
<title>CodeSmile.MultiPal.Players.Couch.CouchPlayersVars</title>
<!-- Node1 -->
<g id="Node000001" class="node">
<title>Node1</title>
<g id="a_Node000001"><a xlink:title=" ">
<polygon fill="#999999" stroke="none" points="135,-96 0,-96 0,0 135,0 135,-96"/>
<text text-anchor="start" x="4.88" y="-82.5" font-family="Helvetica,sans-Serif" font-size="10.00">CodeSmile.MultiPal.Players.</text>
<text text-anchor="start" x="11.25" y="-70.5" font-family="Helvetica,sans-Serif" font-size="10.00">Couch.CouchPlayersVars</text>
<text text-anchor="start" x="66" y="-54.5" font-family="Helvetica,sans-Serif" font-size="10.00"> </text>
<text text-anchor="start" x="9" y="-38.5" font-family="Helvetica,sans-Serif" font-size="10.00">+</text>
<text text-anchor="start" x="24" y="-38.5" font-family="Helvetica,sans-Serif" font-size="10.00">OnNetworkSpawn()</text>
<text text-anchor="start" x="9" y="-22.5" font-family="Helvetica,sans-Serif" font-size="10.00">+</text>
<text text-anchor="start" x="24" y="-22.5" font-family="Helvetica,sans-Serif" font-size="10.00">OnNetworkDespawn()</text>
<text text-anchor="start" x="9" y="-6.5" font-family="Helvetica,sans-Serif" font-size="10.00">~</text>
<text text-anchor="start" x="24" y="-6.5" font-family="Helvetica,sans-Serif" font-size="10.00">SetPlayerReference()</text>
<polygon fill="#666666" stroke="#666666" points="0,-66 0,-66 135,-66 135,-66 0,-66"/>
<polygon fill="#666666" stroke="#666666" points="0,-50 0,-50 135,-50 135,-50 0,-50"/>
<polygon fill="none" stroke="#666666" points="0,0 0,-96 135,-96 135,0 0,0"/>
</a>
</g>
</g>
<!-- Node2 -->
<g id="Node000002" class="node">
<title>Node2</title>
<g id="a_Node000002"><a xlink:href="class_network_behaviour.html" target="_top" xlink:title=" ">
<polygon fill="white" stroke="none" points="112.5,-184 22.5,-184 22.5,-132 112.5,-132 112.5,-184"/>
<text text-anchor="start" x="27.38" y="-170.5" font-family="Helvetica,sans-Serif" font-size="10.00">NetworkBehaviour</text>
<text text-anchor="start" x="66" y="-154.5" font-family="Helvetica,sans-Serif" font-size="10.00"> </text>
<text text-anchor="start" x="66" y="-138.5" font-family="Helvetica,sans-Serif" font-size="10.00"> </text>
<polygon fill="#666666" stroke="#666666" points="22.5,-166 22.5,-166 112.5,-166 112.5,-166 22.5,-166"/>
<polygon fill="#666666" stroke="#666666" points="22.5,-150 22.5,-150 112.5,-150 112.5,-150 22.5,-150"/>
<polygon fill="none" stroke="#666666" points="22.5,-132 22.5,-184 112.5,-184 112.5,-132 22.5,-132"/>
</a>
</g>
</g>
<!-- Node2&#45;&gt;Node1 -->
<g id="edge1_Node000001_Node000002" class="edge">
<title>Node2&#45;&gt;Node1</title>
<g id="a_edge1_Node000001_Node000002"><a xlink:title=" ">
<path fill="none" stroke="#63b8ff" d="M67.5,-120.93C67.5,-112.86 67.5,-104.19 67.5,-95.75"/>
<polygon fill="none" stroke="#63b8ff" points="64,-120.71 67.5,-130.71 71,-120.71 64,-120.71"/>
</a>
</g>
</g>
</g>
</svg>
