<?xml version="1.0" encoding="UTF-8" standalone="no"?>
<!DOCTYPE svg PUBLIC "-//W3C//DTD SVG 1.1//EN"
 "http://www.w3.org/Graphics/SVG/1.1/DTD/svg11.dtd">
<!-- Generated by graphviz version 12.1.2 (20240928.0832)
 -->
<!-- Title: C:/Users/profe/Unity/Dungeon Descender/Assets/Scripts/Utility/Statemachine Pages: 1 -->
<!--zoomable 96 -->

<svg id="main" version="1.1" xmlns="http://www.w3.org/2000/svg" xmlns:xlink="http://www.w3.org/1999/xlink" xml:space="preserve" onload="init(evt)">

<style type="text/css"><![CDATA[
.node, .edge {opacity: 0.7;}
.node.selected, .edge.selected {opacity: 1;}
.edge:hover path { stroke: red; }
.edge:hover polygon { stroke: red; fill: red; }
]]></style>

<defs>
  <circle id="rim" cx="0" cy="0" r="7"/>
  <circle id="rim2" cx="0" cy="0" r="3.5"/>
  <g id="zoomPlus">
    <use xlink:href="#rim" fill="#404040"><set attributeName="fill" to="#808080" begin="zoomplus.mouseover" end="zoomplus.mouseout"/></use>
    <path d="M-4,0h8M0,-4v8" fill="none" stroke="white" stroke-width="1.5" pointer-events="none"/>
  </g>
  <g id="zoomMin">
    <use xlink:href="#rim" fill="#404040"><set attributeName="fill" to="#808080" begin="zoomminus.mouseover" end="zoomminus.mouseout"/></use>
    <path d="M-4,0h8" fill="none" stroke="white" stroke-width="1.5" pointer-events="none"/>
  </g>
  <g id="arrowUp" transform="translate(30 24)">
    <use xlink:href="#rim"/>
    <path pointer-events="none" fill="none" stroke="white" stroke-width="1.5" d="M0,-3.0v7 M-2.5,-0.5L0,-3.0L2.5,-0.5"/>
  </g>
  <g id="arrowRight" transform="rotate(90) translate(36 -43)">
    <use xlink:href="#rim"/>
    <path pointer-events="none" fill="none" stroke="white" stroke-width="1.5" d="M0,-3.0v7 M-2.5,-0.5L0,-3.0L2.5,-0.5"/>
  </g>
  <g id="arrowDown" transform="rotate(180) translate(-30 -48)">
    <use xlink:href="#rim"/>
    <path pointer-events="none" fill="none" stroke="white" stroke-width="1.5" d="M0,-3.0v7 M-2.5,-0.5L0,-3.0L2.5,-0.5"/>
  </g>
  <g id="arrowLeft" transform="rotate(270) translate(-36 17)">
    <use xlink:href="#rim"/>
    <path pointer-events="none" fill="none" stroke="white" stroke-width="1.5" d="M0,-3.0v7 M-2.5,-0.5L0,-3.0L2.5,-0.5"/>
  </g>
  <g id="resetDef">
    <use xlink:href="#rim2" fill="#404040"><set attributeName="fill" to="#808080" begin="reset.mouseover" end="reset.mouseout"/></use>
  </g>
</defs>
<script type="application/ecmascript">
var viewWidth = 550;
var viewHeight = 96;
var sectionId = 'dynsection-0';
</script>
<script type="application/ecmascript" xlink:href="svg.min.js"/>
<svg id="graph" class="graph">
<g id="viewport">
<title>C:/Users/profe/Unity/Dungeon Descender/Assets/Scripts/Utility/Statemachine</title>
<g id="clust1" class="cluster">
<title>clusterdir_bb6faf50f576cdf733307d85a6d675ac</title>
<g id="a_clust1"><a xlink:href="dir_bb6faf50f576cdf733307d85a6d675ac.html" target="_top" xlink:title="Utility">
<polygon fill="#edf0f7" stroke="#7f7f7f" stroke-dasharray="5,2" points="8,-8 8,-80 534,-80 534,-8 8,-8"/>
<text text-anchor="middle" x="271" y="-66.5" font-family="Helvetica,sans-Serif" font-size="10.00">Utility</text>
</a>
</g>
</g>
<g id="clust2" class="cluster">
<title>clusterdir_bdb4411002cd7f501f04526fbc0fdf77</title>
<g id="a_clust2"><a xlink:href="dir_bdb4411002cd7f501f04526fbc0fdf77.html" target="_top">
<polygon fill="#edf0f7" stroke="#404040" stroke-width="2" points="16,-16 16,-52 526,-52 526,-16 16,-16"/>
</a>
</g>
</g>
<!-- dir_bdb4411002cd7f501f04526fbc0fdf77 -->
<g id="node1" class="node">
<title>dir_bdb4411002cd7f501f04526fbc0fdf77</title>
<text text-anchor="middle" x="62" y="-30.5" font-family="Helvetica,sans-Serif" font-size="10.00">Statemachine</text>
</g>
<!-- dir_1316116c0e78671fa29464029d0314fd -->
<g id="node2" class="node">
<title>dir_1316116c0e78671fa29464029d0314fd</title>
<g id="a_node2"><a xlink:href="dir_1316116c0e78671fa29464029d0314fd.html" target="_top" xlink:title="Actions">
<polygon fill="#a2b4d6" stroke="#404040" points="167.5,-44 118.5,-44 118.5,-24 167.5,-24 167.5,-44"/>
<text text-anchor="middle" x="143" y="-30.5" font-family="Helvetica,sans-Serif" font-size="10.00">Actions</text>
</a>
</g>
</g>
<!-- dir_651131779fee3c070edd7c4a87956309 -->
<g id="node3" class="node">
<title>dir_651131779fee3c070edd7c4a87956309</title>
<g id="a_node3"><a xlink:href="dir_651131779fee3c070edd7c4a87956309.html" target="_top" xlink:title="Conditions">
<polygon fill="#a2b4d6" stroke="#404040" points="248.25,-44 185.75,-44 185.75,-24 248.25,-24 248.25,-44"/>
<text text-anchor="middle" x="217" y="-30.5" font-family="Helvetica,sans-Serif" font-size="10.00">Conditions</text>
</a>
</g>
</g>
<!-- dir_d516cd459efb5e50c1868bf1c0c4c771 -->
<g id="node4" class="node">
<title>dir_d516cd459efb5e50c1868bf1c0c4c771</title>
<g id="a_node4"><a xlink:href="dir_d516cd459efb5e50c1868bf1c0c4c771.html" target="_top" xlink:title="Netcode">
<polygon fill="#a2b4d6" stroke="#404040" points="319.38,-44 266.62,-44 266.62,-24 319.38,-24 319.38,-44"/>
<text text-anchor="middle" x="293" y="-30.5" font-family="Helvetica,sans-Serif" font-size="10.00">Netcode</text>
</a>
</g>
</g>
<!-- dir_4e892bbbe782c6b360f569360f2d6fc4 -->
<g id="node5" class="node">
<title>dir_4e892bbbe782c6b360f569360f2d6fc4</title>
<g id="a_node5"><a xlink:href="dir_4e892bbbe782c6b360f569360f2d6fc4.html" target="_top" xlink:title="Services">
<polygon fill="#a2b4d6" stroke="#404040" points="392.12,-44 337.88,-44 337.88,-24 392.12,-24 392.12,-44"/>
<text text-anchor="middle" x="365" y="-30.5" font-family="Helvetica,sans-Serif" font-size="10.00">Services</text>
</a>
</g>
</g>
<!-- dir_adfebea30b3beaeb190e6b2455101792 -->
<g id="node6" class="node">
<title>dir_adfebea30b3beaeb190e6b2455101792</title>
<g id="a_node6"><a xlink:href="dir_adfebea30b3beaeb190e6b2455101792.html" target="_top" xlink:title="Tests">
<polygon fill="#a2b4d6" stroke="#404040" points="450,-44 410,-44 410,-24 450,-24 450,-44"/>
<text text-anchor="middle" x="430" y="-30.5" font-family="Helvetica,sans-Serif" font-size="10.00">Tests</text>
</a>
</g>
</g>
<!-- dir_a9034582e7747396edfc0490e09d9b93 -->
<g id="node7" class="node">
<title>dir_a9034582e7747396edfc0490e09d9b93</title>
<g id="a_node7"><a xlink:href="dir_a9034582e7747396edfc0490e09d9b93.html" target="_top" xlink:title="Variable">
<polygon fill="#a2b4d6" stroke="#404040" points="518.25,-44 467.75,-44 467.75,-24 518.25,-24 518.25,-44"/>
<text text-anchor="middle" x="493" y="-30.5" font-family="Helvetica,sans-Serif" font-size="10.00">Variable</text>
</a>
</g>
</g>
</g>
</svg>

<g id="navigator" transform="translate(0 0)" fill="#404254">
  <rect fill="#f2f5e9" fill-opacity="0.5" stroke="#606060" stroke-width=".5" x="0" y="0" width="60" height="60"/>
  <use id="zoomplus" xlink:href="#zoomPlus" x="17" y="9" onmousedown="handleZoom(evt,'in')"/>
  <use id="zoomminus" xlink:href="#zoomMin" x="42" y="9" onmousedown="handleZoom(evt,'out')"/>
  <use id="reset" xlink:href="#resetDef" x="30" y="36" onmousedown="handleReset()"/>
   <use id="arrowup" xlink:href="#arrowUp" x="0" y="0" onmousedown="handlePan(0,-1)"/>
  <use id="arrowright" xlink:href="#arrowRight" x="0" y="0" onmousedown="handlePan(1,0)"/>
  <use id="arrowdown" xlink:href="#arrowDown" x="0" y="0" onmousedown="handlePan(0,1)"/>
  <use id="arrowleft" xlink:href="#arrowLeft" x="0" y="0" onmousedown="handlePan(-1,0)"/>
</g>
<svg viewBox="0 0 15 15" width="100%" height="30px" preserveAspectRatio="xMaxYMin meet">
 <g id="arrow_out" transform="scale(0.3 0.3)">
  <a xlink:href="dir_bdb4411002cd7f501f04526fbc0fdf77_dep_org.svg" target="_base">
   <rect id="button" ry="5" rx="5" y="6" x="6" height="38" width="38"
        fill="#f2f5e9" fill-opacity="0.5" stroke="#606060" stroke-width="1.0"/>
   <path id="arrow"
     d="M 11.500037,31.436501 C 11.940474,20.09759 22.043105,11.32322 32.158766,21.979434 L 37.068811,17.246167 C 37.068811,17.246167 37.088388,32 37.088388,32 L 22.160133,31.978069 C 22.160133,31.978069 26.997745,27.140456 26.997745,27.140456 C 18.528582,18.264221 13.291696,25.230495 11.500037,31.436501 z"
     style="fill:#404040;"/>
  </a>
 </g>
</svg>

<style type='text/css'>
<![CDATA[
[data-mouse-over-selected='false'] { opacity: 0.7; }
[data-mouse-over-selected='true']  { opacity: 1.0; }
]]>
</style>
<script type="application/ecmascript"><![CDATA[
document.addEventListener('DOMContentLoaded', (event) => {
  highlightEdges();
  highlightAdjacentNodes();
});
]]></script>
</svg>
