<?xml version="1.0" encoding="UTF-8" standalone="no"?>
<!DOCTYPE svg PUBLIC "-//W3C//DTD SVG 1.1//EN"
 "http://www.w3.org/Graphics/SVG/1.1/DTD/svg11.dtd">
<!-- Generated by graphviz version 12.1.2 (20240928.0832)
 -->
<!-- Title: C:/Users/profe/Unity/Dungeon Descender/Assets/Scripts Pages: 1 -->
<!--zoomable 96 -->

<svg id="main" version="1.1" xmlns="http://www.w3.org/2000/svg" xmlns:xlink="http://www.w3.org/1999/xlink" xml:space="preserve" onload="init(evt)">

<style type="text/css"><![CDATA[
.node, .edge {opacity: 0.7;}
.node.selected, .edge.selected {opacity: 1;}
.edge:hover path { stroke: red; }
.edge:hover polygon { stroke: red; fill: red; }
]]></style>

<defs>
  <circle id="rim" cx="0" cy="0" r="7"/>
  <circle id="rim2" cx="0" cy="0" r="3.5"/>
  <g id="zoomPlus">
    <use xlink:href="#rim" fill="#404040"><set attributeName="fill" to="#808080" begin="zoomplus.mouseover" end="zoomplus.mouseout"/></use>
    <path d="M-4,0h8M0,-4v8" fill="none" stroke="white" stroke-width="1.5" pointer-events="none"/>
  </g>
  <g id="zoomMin">
    <use xlink:href="#rim" fill="#404040"><set attributeName="fill" to="#808080" begin="zoomminus.mouseover" end="zoomminus.mouseout"/></use>
    <path d="M-4,0h8" fill="none" stroke="white" stroke-width="1.5" pointer-events="none"/>
  </g>
  <g id="arrowUp" transform="translate(30 24)">
    <use xlink:href="#rim"/>
    <path pointer-events="none" fill="none" stroke="white" stroke-width="1.5" d="M0,-3.0v7 M-2.5,-0.5L0,-3.0L2.5,-0.5"/>
  </g>
  <g id="arrowRight" transform="rotate(90) translate(36 -43)">
    <use xlink:href="#rim"/>
    <path pointer-events="none" fill="none" stroke="white" stroke-width="1.5" d="M0,-3.0v7 M-2.5,-0.5L0,-3.0L2.5,-0.5"/>
  </g>
  <g id="arrowDown" transform="rotate(180) translate(-30 -48)">
    <use xlink:href="#rim"/>
    <path pointer-events="none" fill="none" stroke="white" stroke-width="1.5" d="M0,-3.0v7 M-2.5,-0.5L0,-3.0L2.5,-0.5"/>
  </g>
  <g id="arrowLeft" transform="rotate(270) translate(-36 17)">
    <use xlink:href="#rim"/>
    <path pointer-events="none" fill="none" stroke="white" stroke-width="1.5" d="M0,-3.0v7 M-2.5,-0.5L0,-3.0L2.5,-0.5"/>
  </g>
  <g id="resetDef">
    <use xlink:href="#rim2" fill="#404040"><set attributeName="fill" to="#808080" begin="reset.mouseover" end="reset.mouseout"/></use>
  </g>
</defs>
<script type="application/ecmascript">
var viewWidth = 1246;
var viewHeight = 96;
var sectionId = 'dynsection-0';
</script>
<script type="application/ecmascript" xlink:href="svg.min.js"/>
<svg id="graph" class="graph">
<g id="viewport">
<title>C:/Users/profe/Unity/Dungeon Descender/Assets/Scripts</title>
<g id="clust1" class="cluster">
<title>clusterdir_84bbf7b3c7f28a5a18725745e1505219</title>
<g id="a_clust1"><a xlink:href="dir_84bbf7b3c7f28a5a18725745e1505219.html" target="_top" xlink:title="Assets">
<polygon fill="#edf0f7" stroke="#404040" stroke-dasharray="5,2" points="8,-8 8,-80 1230,-80 1230,-8 8,-8"/>
<text text-anchor="middle" x="619" y="-66.5" font-family="Helvetica,sans-Serif" font-size="10.00">Assets</text>
</a>
</g>
</g>
<g id="clust2" class="cluster">
<title>clusterdir_f13b41af88cf68434578284aaf699e39</title>
<g id="a_clust2"><a xlink:href="dir_f13b41af88cf68434578284aaf699e39.html" target="_top">
<polygon fill="#edf0f7" stroke="#404040" stroke-width="2" points="16,-16 16,-52 1222,-52 1222,-16 16,-16"/>
</a>
</g>
</g>
<!-- dir_f13b41af88cf68434578284aaf699e39 -->
<g id="node1" class="node">
<title>dir_f13b41af88cf68434578284aaf699e39</title>
<text text-anchor="middle" x="47" y="-30.5" font-family="Helvetica,sans-Serif" font-size="10.00">Scripts</text>
</g>
<!-- dir_ebe48340aecbad4981a51369f14ec615 -->
<g id="node2" class="node">
<title>dir_ebe48340aecbad4981a51369f14ec615</title>
<g id="a_node2"><a xlink:href="dir_ebe48340aecbad4981a51369f14ec615.html" target="_top" xlink:title="Abilities">
<polygon fill="#a2b4d6" stroke="#404040" points="139.25,-44 88.75,-44 88.75,-24 139.25,-24 139.25,-44"/>
<text text-anchor="middle" x="114" y="-30.5" font-family="Helvetica,sans-Serif" font-size="10.00">Abilities</text>
</a>
</g>
</g>
<!-- dir_caa6cb601e4c74e6752991944d371be7 -->
<g id="node3" class="node">
<title>dir_caa6cb601e4c74e6752991944d371be7</title>
<g id="a_node3"><a xlink:href="dir_caa6cb601e4c74e6752991944d371be7.html" target="_top" xlink:title="Animation">
<polygon fill="#a2b4d6" stroke="#404040" points="216.75,-44 157.25,-44 157.25,-24 216.75,-24 216.75,-44"/>
<text text-anchor="middle" x="187" y="-30.5" font-family="Helvetica,sans-Serif" font-size="10.00">Animation</text>
</a>
</g>
</g>
<!-- dir_cfffa9b729e33cf96825d5e522e7937e -->
<g id="node4" class="node">
<title>dir_cfffa9b729e33cf96825d5e522e7937e</title>
<g id="a_node4"><a xlink:href="dir_cfffa9b729e33cf96825d5e522e7937e.html" target="_top" xlink:title="Building">
<polygon fill="#a2b4d6" stroke="#404040" points="285.25,-44 234.75,-44 234.75,-24 285.25,-24 285.25,-44"/>
<text text-anchor="middle" x="260" y="-30.5" font-family="Helvetica,sans-Serif" font-size="10.00">Building</text>
</a>
</g>
</g>
<!-- dir_bf53d0db9048da6b5c95efa9fb059aa7 -->
<g id="node5" class="node">
<title>dir_bf53d0db9048da6b5c95efa9fb059aa7</title>
<g id="a_node5"><a xlink:href="dir_bf53d0db9048da6b5c95efa9fb059aa7.html" target="_top" xlink:title="Character">
<polygon fill="#a2b4d6" stroke="#404040" points="362.38,-44 303.62,-44 303.62,-24 362.38,-24 362.38,-44"/>
<text text-anchor="middle" x="333" y="-30.5" font-family="Helvetica,sans-Serif" font-size="10.00">Character</text>
</a>
</g>
</g>
<!-- dir_88a36b863f87de7d55d6abc630e75ec1 -->
<g id="node6" class="node">
<title>dir_88a36b863f87de7d55d6abc630e75ec1</title>
<g id="a_node6"><a xlink:href="dir_88a36b863f87de7d55d6abc630e75ec1.html" target="_top" xlink:title="Design">
<polygon fill="#a2b4d6" stroke="#404040" points="427.38,-44 380.62,-44 380.62,-24 427.38,-24 427.38,-44"/>
<text text-anchor="middle" x="404" y="-30.5" font-family="Helvetica,sans-Serif" font-size="10.00">Design</text>
</a>
</g>
</g>
<!-- dir_c5dab6a90e0a01ac7a2db0a18504d8a1 -->
<g id="node7" class="node">
<title>dir_c5dab6a90e0a01ac7a2db0a18504d8a1</title>
<g id="a_node7"><a xlink:href="dir_c5dab6a90e0a01ac7a2db0a18504d8a1.html" target="_top" xlink:title="Dev">
<polygon fill="#a2b4d6" stroke="#404040" points="479,-44 445,-44 445,-24 479,-24 479,-44"/>
<text text-anchor="middle" x="462" y="-30.5" font-family="Helvetica,sans-Serif" font-size="10.00">Dev</text>
</a>
</g>
</g>
<!-- dir_97161c682fa67994867ae1232e5282d1 -->
<g id="node8" class="node">
<title>dir_97161c682fa67994867ae1232e5282d1</title>
<g id="a_node8"><a xlink:href="dir_97161c682fa67994867ae1232e5282d1.html" target="_top" xlink:title="EventBus">
<polygon fill="#a2b4d6" stroke="#404040" points="555.38,-44 496.62,-44 496.62,-24 555.38,-24 555.38,-44"/>
<text text-anchor="middle" x="526" y="-30.5" font-family="Helvetica,sans-Serif" font-size="10.00">EventBus</text>
</a>
</g>
</g>
<!-- dir_271d57cfb727bcc40e256ec6a90f8fb0 -->
<g id="node9" class="node">
<title>dir_271d57cfb727bcc40e256ec6a90f8fb0</title>
<g id="a_node9"><a xlink:href="dir_271d57cfb727bcc40e256ec6a90f8fb0.html" target="_top" xlink:title="Extensions">
<polygon fill="#a2b4d6" stroke="#404040" points="638.38,-44 573.62,-44 573.62,-24 638.38,-24 638.38,-44"/>
<text text-anchor="middle" x="606" y="-30.5" font-family="Helvetica,sans-Serif" font-size="10.00">Extensions</text>
</a>
</g>
</g>
<!-- dir_48ff895dac047e27383a1771a23a56d3 -->
<g id="node10" class="node">
<title>dir_48ff895dac047e27383a1771a23a56d3</title>
<g id="a_node10"><a xlink:href="dir_48ff895dac047e27383a1771a23a56d3.html" target="_top" xlink:title="GameState">
<polygon fill="#a2b4d6" stroke="#404040" points="721.75,-44 656.25,-44 656.25,-24 721.75,-24 721.75,-44"/>
<text text-anchor="middle" x="689" y="-30.5" font-family="Helvetica,sans-Serif" font-size="10.00">GameState</text>
</a>
</g>
</g>
<!-- dir_02995fe90f7a956a5539218b014355ff -->
<g id="node11" class="node">
<title>dir_02995fe90f7a956a5539218b014355ff</title>
<g id="a_node11"><a xlink:href="dir_02995fe90f7a956a5539218b014355ff.html" target="_top" xlink:title="GUI">
<polygon fill="#a2b4d6" stroke="#404040" points="774,-44 740,-44 740,-24 774,-24 774,-44"/>
<text text-anchor="middle" x="757" y="-30.5" font-family="Helvetica,sans-Serif" font-size="10.00">GUI</text>
</a>
</g>
</g>
<!-- dir_82bf5dcf5f07f0970851629866abc1ad -->
<g id="node12" class="node">
<title>dir_82bf5dcf5f07f0970851629866abc1ad</title>
<g id="a_node12"><a xlink:href="dir_82bf5dcf5f07f0970851629866abc1ad.html" target="_top" xlink:title="Input">
<polygon fill="#a2b4d6" stroke="#404040" points="829.88,-44 792.12,-44 792.12,-24 829.88,-24 829.88,-44"/>
<text text-anchor="middle" x="811" y="-30.5" font-family="Helvetica,sans-Serif" font-size="10.00">Input</text>
</a>
</g>
</g>
<!-- dir_b69c87bf33e8dda0f2f20ca100857900 -->
<g id="node13" class="node">
<title>dir_b69c87bf33e8dda0f2f20ca100857900</title>
<g id="a_node13"><a xlink:href="dir_b69c87bf33e8dda0f2f20ca100857900.html" target="_top" xlink:title="Items">
<polygon fill="#a2b4d6" stroke="#404040" points="888.38,-44 847.62,-44 847.62,-24 888.38,-24 888.38,-44"/>
<text text-anchor="middle" x="868" y="-30.5" font-family="Helvetica,sans-Serif" font-size="10.00">Items</text>
</a>
</g>
</g>
<!-- dir_9199ac66caa809019ee38a5bab94cd8e -->
<g id="node14" class="node">
<title>dir_9199ac66caa809019ee38a5bab94cd8e</title>
<g id="a_node14"><a xlink:href="dir_9199ac66caa809019ee38a5bab94cd8e.html" target="_top" xlink:title="Network Statemachine">
<polygon fill="#a2b4d6" stroke="#404040" points="1021.88,-44 906.12,-44 906.12,-24 1021.88,-24 1021.88,-44"/>
<text text-anchor="middle" x="964" y="-30.5" font-family="Helvetica,sans-Serif" font-size="10.00">Network Statemachine</text>
</a>
</g>
</g>
<!-- dir_3e5ecfec803c1831b8558be38955a579 -->
<g id="node15" class="node">
<title>dir_3e5ecfec803c1831b8558be38955a579</title>
<g id="a_node15"><a xlink:href="dir_3e5ecfec803c1831b8558be38955a579.html" target="_top" xlink:title="Scene">
<polygon fill="#a2b4d6" stroke="#404040" points="1083.88,-44 1040.12,-44 1040.12,-24 1083.88,-24 1083.88,-44"/>
<text text-anchor="middle" x="1062" y="-30.5" font-family="Helvetica,sans-Serif" font-size="10.00">Scene</text>
</a>
</g>
</g>
<!-- dir_fc052712d8e75855b959addac20ac67f -->
<g id="node16" class="node">
<title>dir_fc052712d8e75855b959addac20ac67f</title>
<g id="a_node16"><a xlink:href="dir_fc052712d8e75855b959addac20ac67f.html" target="_top" xlink:title="Settings">
<polygon fill="#a2b4d6" stroke="#404040" points="1154,-44 1102,-44 1102,-24 1154,-24 1154,-44"/>
<text text-anchor="middle" x="1128" y="-30.5" font-family="Helvetica,sans-Serif" font-size="10.00">Settings</text>
</a>
</g>
</g>
<!-- dir_bb6faf50f576cdf733307d85a6d675ac -->
<g id="node17" class="node">
<title>dir_bb6faf50f576cdf733307d85a6d675ac</title>
<g id="a_node17"><a xlink:href="dir_bb6faf50f576cdf733307d85a6d675ac.html" target="_top" xlink:title="Utility">
<polygon fill="#a2b4d6" stroke="#404040" points="1213.75,-44 1172.25,-44 1172.25,-24 1213.75,-24 1213.75,-44"/>
<text text-anchor="middle" x="1193" y="-30.5" font-family="Helvetica,sans-Serif" font-size="10.00">Utility</text>
</a>
</g>
</g>
</g>
</svg>

<g id="navigator" transform="translate(0 0)" fill="#404254">
  <rect fill="#f2f5e9" fill-opacity="0.5" stroke="#606060" stroke-width=".5" x="0" y="0" width="60" height="60"/>
  <use id="zoomplus" xlink:href="#zoomPlus" x="17" y="9" onmousedown="handleZoom(evt,'in')"/>
  <use id="zoomminus" xlink:href="#zoomMin" x="42" y="9" onmousedown="handleZoom(evt,'out')"/>
  <use id="reset" xlink:href="#resetDef" x="30" y="36" onmousedown="handleReset()"/>
   <use id="arrowup" xlink:href="#arrowUp" x="0" y="0" onmousedown="handlePan(0,-1)"/>
  <use id="arrowright" xlink:href="#arrowRight" x="0" y="0" onmousedown="handlePan(1,0)"/>
  <use id="arrowdown" xlink:href="#arrowDown" x="0" y="0" onmousedown="handlePan(0,1)"/>
  <use id="arrowleft" xlink:href="#arrowLeft" x="0" y="0" onmousedown="handlePan(-1,0)"/>
</g>
<svg viewBox="0 0 15 15" width="100%" height="30px" preserveAspectRatio="xMaxYMin meet">
 <g id="arrow_out" transform="scale(0.3 0.3)">
  <a xlink:href="dir_f13b41af88cf68434578284aaf699e39_dep_org.svg" target="_base">
   <rect id="button" ry="5" rx="5" y="6" x="6" height="38" width="38"
        fill="#f2f5e9" fill-opacity="0.5" stroke="#606060" stroke-width="1.0"/>
   <path id="arrow"
     d="M 11.500037,31.436501 C 11.940474,20.09759 22.043105,11.32322 32.158766,21.979434 L 37.068811,17.246167 C 37.068811,17.246167 37.088388,32 37.088388,32 L 22.160133,31.978069 C 22.160133,31.978069 26.997745,27.140456 26.997745,27.140456 C 18.528582,18.264221 13.291696,25.230495 11.500037,31.436501 z"
     style="fill:#404040;"/>
  </a>
 </g>
</svg>

<style type='text/css'>
<![CDATA[
[data-mouse-over-selected='false'] { opacity: 0.7; }
[data-mouse-over-selected='true']  { opacity: 1.0; }
]]>
</style>
<script type="application/ecmascript"><![CDATA[
document.addEventListener('DOMContentLoaded', (event) => {
  highlightEdges();
  highlightAdjacentNodes();
});
]]></script>
</svg>
