<?xml version="1.0" encoding="UTF-8" standalone="no"?>
<!DOCTYPE svg PUBLIC "-//W3C//DTD SVG 1.1//EN"
 "http://www.w3.org/Graphics/SVG/1.1/DTD/svg11.dtd">
<!-- Generated by graphviz version 12.1.2 (20240928.0832)
 -->
<!-- Title: Graphical Class Hierarchy Pages: 1 -->
<svg width="337pt" height="66pt"
 viewBox="0.00 0.00 337.00 66.00" xmlns="http://www.w3.org/2000/svg" xmlns:xlink="http://www.w3.org/1999/xlink">
<g id="graph0" class="graph" transform="scale(1 1) rotate(0) translate(4 62)">
<title>Graphical Class Hierarchy</title>
<!-- Node0 -->
<g id="Node000000" class="node">
<title>Node0</title>
<g id="a_Node000000"><a xlink:href="interface_p_a1_a_1_1_building_1_1_i_building_state.html" target="_top" xlink:title="Represents the state of a building.">
<polygon fill="white" stroke="#666666" points="142,-39 0,-39 0,-19 142,-19 142,-39"/>
<text text-anchor="middle" x="71" y="-25.5" font-family="Helvetica,sans-Serif" font-size="10.00">PA1A.Building.IBuildingState</text>
</a>
</g>
</g>
<!-- Node1 -->
<g id="Node000001" class="node">
<title>Node1</title>
<g id="a_Node000001"><a xlink:href="class_p_a1_a_1_1_building_1_1_placement_state.html" target="_top" xlink:title="Represents the state of object placement in the building system.">
<polygon fill="white" stroke="#666666" points="329,-58 178,-58 178,-38 329,-38 329,-58"/>
<text text-anchor="middle" x="253.5" y="-44.5" font-family="Helvetica,sans-Serif" font-size="10.00">PA1A.Building.PlacementState</text>
</a>
</g>
</g>
<!-- Node0&#45;&gt;Node1 -->
<g id="edge174_Node000000_Node000001" class="edge">
<title>Node0&#45;&gt;Node1</title>
<g id="a_edge174_Node000000_Node000001"><a xlink:title=" ">
<path fill="none" stroke="#63b8ff" d="M153.55,-37.58C161.56,-38.43 169.67,-39.28 177.62,-40.12"/>
<polygon fill="#63b8ff" stroke="#63b8ff" points="154.12,-34.12 143.81,-36.56 153.39,-41.09 154.12,-34.12"/>
</a>
</g>
</g>
<!-- Node2 -->
<g id="Node000002" class="node">
<title>Node2</title>
<g id="a_Node000002"><a xlink:href="class_p_a1_a_1_1_building_1_1_remove_state.html" target="_top" xlink:title="Represents the state of removing a building.">
<polygon fill="white" stroke="#666666" points="324.12,-20 182.88,-20 182.88,0 324.12,0 324.12,-20"/>
<text text-anchor="middle" x="253.5" y="-6.5" font-family="Helvetica,sans-Serif" font-size="10.00">PA1A.Building.RemoveState</text>
</a>
</g>
</g>
<!-- Node0&#45;&gt;Node2 -->
<g id="edge175_Node000000_Node000002" class="edge">
<title>Node0&#45;&gt;Node2</title>
<g id="a_edge175_Node000000_Node000002"><a xlink:title=" ">
<path fill="none" stroke="#63b8ff" d="M153.53,-20.42C163.16,-19.4 172.93,-18.38 182.39,-17.38"/>
<polygon fill="#63b8ff" stroke="#63b8ff" points="153.39,-16.91 143.81,-21.44 154.12,-23.88 153.39,-16.91"/>
</a>
</g>
</g>
</g>
</svg>
