<?xml version="1.0" encoding="UTF-8" standalone="no"?>
<!DOCTYPE svg PUBLIC "-//W3C//DTD SVG 1.1//EN"
 "http://www.w3.org/Graphics/SVG/1.1/DTD/svg11.dtd">
<!-- Generated by graphviz version 12.1.2 (20240928.0832)
 -->
<!-- Title: Graphical Class Hierarchy Pages: 1 -->
<svg width="276pt" height="204pt"
 viewBox="0.00 0.00 276.25 204.00" xmlns="http://www.w3.org/2000/svg" xmlns:xlink="http://www.w3.org/1999/xlink">
<g id="graph0" class="graph" transform="scale(1 1) rotate(0) translate(4 200)">
<title>Graphical Class Hierarchy</title>
<!-- Node0 -->
<g id="Node000000" class="node">
<title>Node0</title>
<g id="a_Node000000"><a xlink:href="interface_unity_utils_1_1_i_predicate.html" target="_top" xlink:title=" ">
<polygon fill="white" stroke="#666666" points="106.75,-120 0,-120 0,-100 106.75,-100 106.75,-120"/>
<text text-anchor="middle" x="53.38" y="-106.5" font-family="Helvetica,sans-Serif" font-size="10.00">UnityUtils.IPredicate</text>
</a>
</g>
</g>
<!-- Node1 -->
<g id="Node000001" class="node">
<title>Node1</title>
<g id="a_Node000001"><a xlink:href="class_unity_utils_1_1_and.html" target="_top" xlink:title=" ">
<polygon fill="white" stroke="#666666" points="245.38,-196 165.62,-196 165.62,-176 245.38,-176 245.38,-196"/>
<text text-anchor="middle" x="205.5" y="-182.5" font-family="Helvetica,sans-Serif" font-size="10.00">UnityUtils.And</text>
</a>
</g>
</g>
<!-- Node0&#45;&gt;Node1 -->
<g id="edge185_Node000000_Node000001" class="edge">
<title>Node0&#45;&gt;Node1</title>
<g id="a_edge185_Node000000_Node000001"><a xlink:title=" ">
<path fill="none" stroke="#63b8ff" d="M77.02,-127.09C94.3,-139.5 119.09,-155.99 142.75,-167 149.87,-170.31 157.71,-173.24 165.35,-175.73"/>
<polygon fill="#63b8ff" stroke="#63b8ff" points="79.13,-124.3 68.99,-121.22 75,-129.95 79.13,-124.3"/>
</a>
</g>
</g>
<!-- Node2 -->
<g id="Node000002" class="node">
<title>Node2</title>
<g id="a_Node000002"><a xlink:href="class_unity_utils_1_1_not.html" target="_top" xlink:title=" ">
<polygon fill="white" stroke="#666666" points="244.62,-158 166.38,-158 166.38,-138 244.62,-138 244.62,-158"/>
<text text-anchor="middle" x="205.5" y="-144.5" font-family="Helvetica,sans-Serif" font-size="10.00">UnityUtils.Not</text>
</a>
</g>
</g>
<!-- Node0&#45;&gt;Node2 -->
<g id="edge186_Node000000_Node000002" class="edge">
<title>Node0&#45;&gt;Node2</title>
<g id="a_edge186_Node000000_Node000002"><a xlink:title=" ">
<path fill="none" stroke="#63b8ff" d="M106.95,-123.31C126.4,-128.23 148.08,-133.72 166.05,-138.27"/>
<polygon fill="#63b8ff" stroke="#63b8ff" points="107.82,-119.92 97.26,-120.86 106.1,-126.7 107.82,-119.92"/>
</a>
</g>
</g>
<!-- Node3 -->
<g id="Node000003" class="node">
<title>Node3</title>
<g id="a_Node000003"><a xlink:href="class_unity_utils_1_1_or.html" target="_top" xlink:title=" ">
<polygon fill="white" stroke="#666666" points="242,-120 169,-120 169,-100 242,-100 242,-120"/>
<text text-anchor="middle" x="205.5" y="-106.5" font-family="Helvetica,sans-Serif" font-size="10.00">UnityUtils.Or</text>
</a>
</g>
</g>
<!-- Node0&#45;&gt;Node3 -->
<g id="edge187_Node000000_Node000003" class="edge">
<title>Node0&#45;&gt;Node3</title>
<g id="a_edge187_Node000000_Node000003"><a xlink:title=" ">
<path fill="none" stroke="#63b8ff" d="M118.11,-110C135.44,-110 153.59,-110 168.76,-110"/>
<polygon fill="#63b8ff" stroke="#63b8ff" points="118.4,-106.5 108.39,-110 118.39,-113.5 118.4,-106.5"/>
</a>
</g>
</g>
<!-- Node4 -->
<g id="Node000004" class="node">
<title>Node4</title>
<g id="a_Node000004"><a xlink:href="class_unity_utils_1_1_state_machine_1_1_action_predicate.html" target="_top" xlink:title="Represents a predicate that encapsulates an action and evaluates to true once the action has been inv...">
<polygon fill="white" stroke="#666666" points="268.25,-82 142.75,-82 142.75,-50 268.25,-50 268.25,-82"/>
<text text-anchor="start" x="150.75" y="-68.5" font-family="Helvetica,sans-Serif" font-size="10.00">UnityUtils.StateMachine.</text>
<text text-anchor="middle" x="205.5" y="-56.5" font-family="Helvetica,sans-Serif" font-size="10.00">ActionPredicate</text>
</a>
</g>
</g>
<!-- Node0&#45;&gt;Node4 -->
<g id="edge188_Node000000_Node000004" class="edge">
<title>Node0&#45;&gt;Node4</title>
<g id="a_edge188_Node000000_Node000004"><a xlink:title=" ">
<path fill="none" stroke="#63b8ff" d="M100.58,-96.46C115.67,-92.04 132.6,-87.07 148.34,-82.46"/>
<polygon fill="#63b8ff" stroke="#63b8ff" points="100.02,-92.98 91.4,-99.15 101.99,-99.69 100.02,-92.98"/>
</a>
</g>
</g>
<!-- Node5 -->
<g id="Node000005" class="node">
<title>Node5</title>
<g id="a_Node000005"><a xlink:href="class_unity_utils_1_1_state_machine_1_1_func_predicate.html" target="_top" xlink:title="Represents a predicate that uses a Func delegate to evaluate a condition.">
<polygon fill="white" stroke="#666666" points="268.25,-32 142.75,-32 142.75,0 268.25,0 268.25,-32"/>
<text text-anchor="start" x="150.75" y="-18.5" font-family="Helvetica,sans-Serif" font-size="10.00">UnityUtils.StateMachine.</text>
<text text-anchor="middle" x="205.5" y="-6.5" font-family="Helvetica,sans-Serif" font-size="10.00">FuncPredicate</text>
</a>
</g>
</g>
<!-- Node0&#45;&gt;Node5 -->
<g id="edge189_Node000000_Node000005" class="edge">
<title>Node0&#45;&gt;Node5</title>
<g id="a_edge189_Node000000_Node000005"><a xlink:title=" ">
<path fill="none" stroke="#63b8ff" d="M74.21,-91.87C91.41,-76.84 117.43,-55.62 142.75,-41 148.06,-37.93 153.81,-35.07 159.61,-32.45"/>
<polygon fill="#63b8ff" stroke="#63b8ff" points="71.91,-89.24 66.76,-98.51 76.56,-94.47 71.91,-89.24"/>
</a>
</g>
</g>
</g>
</svg>
