<?xml version="1.0" encoding="UTF-8" standalone="no"?>
<!DOCTYPE svg PUBLIC "-//W3C//DTD SVG 1.1//EN"
 "http://www.w3.org/Graphics/SVG/1.1/DTD/svg11.dtd">
<!-- Generated by graphviz version 12.1.2 (20240928.0832)
 -->
<!-- Title: Graphical Class Hierarchy Pages: 1 -->
<svg width="291pt" height="66pt"
 viewBox="0.00 0.00 291.25 66.00" xmlns="http://www.w3.org/2000/svg" xmlns:xlink="http://www.w3.org/1999/xlink">
<g id="graph0" class="graph" transform="scale(1 1) rotate(0) translate(4 62)">
<title>Graphical Class Hierarchy</title>
<!-- Node0 -->
<g id="Node000000" class="node">
<title>Node0</title>
<g id="a_Node000000"><a xlink:href="class_i_disposable.html" target="_top" xlink:title=" ">
<polygon fill="white" stroke="#666666" points="92.5,-58 24.75,-58 24.75,-38 92.5,-38 92.5,-58"/>
<text text-anchor="middle" x="58.62" y="-44.5" font-family="Helvetica,sans-Serif" font-size="10.00">IDisposable</text>
</a>
</g>
</g>
<!-- Node1 -->
<g id="Node000001" class="node">
<title>Node1</title>
<g id="a_Node000001"><a xlink:href="class_code_smile_1_1_multi_pal_1_1_input_1_1_generated_input.html" target="_top" xlink:title=" ">
<polygon fill="white" stroke="#666666" points="283.25,-45 153.25,-45 153.25,-13 283.25,-13 283.25,-45"/>
<text text-anchor="start" x="161.25" y="-31.5" font-family="Helvetica,sans-Serif" font-size="10.00">CodeSmile.MultiPal.Input.</text>
<text text-anchor="middle" x="218.25" y="-19.5" font-family="Helvetica,sans-Serif" font-size="10.00">GeneratedInput</text>
</a>
</g>
</g>
<!-- Node0&#45;&gt;Node1 -->
<g id="edge163_Node000000_Node000001" class="edge">
<title>Node0&#45;&gt;Node1</title>
<g id="a_edge163_Node000000_Node000001"><a xlink:title=" ">
<path fill="none" stroke="#63b8ff" d="M103.86,-42.67C119.11,-40.83 136.52,-38.73 153.04,-36.74"/>
<polygon fill="#63b8ff" stroke="#63b8ff" points="103.68,-39.16 94.17,-43.84 104.52,-46.11 103.68,-39.16"/>
</a>
</g>
</g>
<!-- Node2 -->
<g id="Node000002" class="node">
<title>Node2</title>
<g id="a_Node000002"><a xlink:href="class_i_input_action_collection2.html" target="_top" xlink:title=" ">
<polygon fill="white" stroke="#666666" points="117.25,-20 0,-20 0,0 117.25,0 117.25,-20"/>
<text text-anchor="middle" x="58.62" y="-6.5" font-family="Helvetica,sans-Serif" font-size="10.00">IInputActionCollection2</text>
</a>
</g>
</g>
<!-- Node2&#45;&gt;Node1 -->
<g id="edge164_Node000002_Node000001" class="edge">
<title>Node2&#45;&gt;Node1</title>
<g id="a_edge164_Node000002_Node000001"><a xlink:title=" ">
<path fill="none" stroke="#63b8ff" d="M128.65,-18.32C136.68,-19.29 144.84,-20.27 152.81,-21.23"/>
<polygon fill="#63b8ff" stroke="#63b8ff" points="129.27,-14.87 118.93,-17.15 128.44,-21.82 129.27,-14.87"/>
</a>
</g>
</g>
</g>
</svg>
