<?xml version="1.0" encoding="UTF-8" standalone="no"?>
<!DOCTYPE svg PUBLIC "-//W3C//DTD SVG 1.1//EN"
 "http://www.w3.org/Graphics/SVG/1.1/DTD/svg11.dtd">
<!-- Generated by graphviz version 12.1.2 (20240928.0832)
 -->
<!-- Title: Graphical Class Hierarchy Pages: 1 -->
<svg width="331pt" height="190pt"
 viewBox="0.00 0.00 331.00 190.00" xmlns="http://www.w3.org/2000/svg" xmlns:xlink="http://www.w3.org/1999/xlink">
<g id="graph0" class="graph" transform="scale(1 1) rotate(0) translate(4 186)">
<title>Graphical Class Hierarchy</title>
<!-- Node0 -->
<g id="Node000000" class="node">
<title>Node0</title>
<g id="a_Node000000"><a xlink:href="interface_unity_utils_1_1_state_machine_1_1_i_state.html" target="_top" xlink:title=" ">
<polygon fill="white" stroke="#666666" points="125.5,-107 0,-107 0,-75 125.5,-75 125.5,-107"/>
<text text-anchor="start" x="8" y="-93.5" font-family="Helvetica,sans-Serif" font-size="10.00">UnityUtils.StateMachine.</text>
<text text-anchor="middle" x="62.75" y="-81.5" font-family="Helvetica,sans-Serif" font-size="10.00">IState</text>
</a>
</g>
</g>
<!-- Node1 -->
<g id="Node000001" class="node">
<title>Node1</title>
<g id="a_Node000001"><a xlink:href="class_p_a1_a_1_1_player_1_1_controller_1_1_falling_state.html" target="_top" xlink:title=" ">
<polygon fill="white" stroke="#666666" points="316.25,-182 168.25,-182 168.25,-150 316.25,-150 316.25,-182"/>
<text text-anchor="start" x="176.25" y="-168.5" font-family="Helvetica,sans-Serif" font-size="10.00">PA1A.Player.Controller.Falling</text>
<text text-anchor="middle" x="242.25" y="-156.5" font-family="Helvetica,sans-Serif" font-size="10.00">State</text>
</a>
</g>
</g>
<!-- Node0&#45;&gt;Node1 -->
<g id="edge190_Node000000_Node000001" class="edge">
<title>Node0&#45;&gt;Node1</title>
<g id="a_edge190_Node000000_Node000001"><a xlink:title=" ">
<path fill="none" stroke="#63b8ff" d="M102.58,-112.78C120.24,-122.18 141.59,-132.86 161.5,-141 168.89,-144.02 176.78,-146.9 184.62,-149.55"/>
<polygon fill="#63b8ff" stroke="#63b8ff" points="104.45,-109.81 93.99,-108.14 101.13,-115.97 104.45,-109.81"/>
</a>
</g>
</g>
<!-- Node2 -->
<g id="Node000002" class="node">
<title>Node2</title>
<g id="a_Node000002"><a xlink:href="class_p_a1_a_1_1_player_1_1_controller_1_1_grounded_state.html" target="_top" xlink:title=" ">
<polygon fill="white" stroke="#666666" points="323,-132 161.5,-132 161.5,-100 323,-100 323,-132"/>
<text text-anchor="start" x="169.5" y="-118.5" font-family="Helvetica,sans-Serif" font-size="10.00">PA1A.Player.Controller.Grounded</text>
<text text-anchor="middle" x="242.25" y="-106.5" font-family="Helvetica,sans-Serif" font-size="10.00">State</text>
</a>
</g>
</g>
<!-- Node0&#45;&gt;Node2 -->
<g id="edge191_Node000000_Node000002" class="edge">
<title>Node0&#45;&gt;Node2</title>
<g id="a_edge191_Node000000_Node000002"><a xlink:title=" ">
<path fill="none" stroke="#63b8ff" d="M137.23,-101.35C145.11,-102.46 153.16,-103.59 161.11,-104.71"/>
<polygon fill="#63b8ff" stroke="#63b8ff" points="137.72,-97.88 127.33,-99.95 136.74,-104.82 137.72,-97.88"/>
</a>
</g>
</g>
<!-- Node3 -->
<g id="Node000003" class="node">
<title>Node3</title>
<g id="a_Node000003"><a xlink:href="class_p_a1_a_1_1_player_1_1_controller_1_1_jumping_state.html" target="_top" xlink:title=" ">
<polygon fill="white" stroke="#666666" points="320.38,-82 164.12,-82 164.12,-50 320.38,-50 320.38,-82"/>
<text text-anchor="start" x="172.12" y="-68.5" font-family="Helvetica,sans-Serif" font-size="10.00">PA1A.Player.Controller.Jumping</text>
<text text-anchor="middle" x="242.25" y="-56.5" font-family="Helvetica,sans-Serif" font-size="10.00">State</text>
</a>
</g>
</g>
<!-- Node0&#45;&gt;Node3 -->
<g id="edge192_Node000000_Node000003" class="edge">
<title>Node0&#45;&gt;Node3</title>
<g id="a_edge192_Node000000_Node000003"><a xlink:title=" ">
<path fill="none" stroke="#63b8ff" d="M136.95,-80.69C145.85,-79.44 154.96,-78.15 163.91,-76.89"/>
<polygon fill="#63b8ff" stroke="#63b8ff" points="136.74,-77.18 127.33,-82.05 137.72,-84.12 136.74,-77.18"/>
</a>
</g>
</g>
<!-- Node4 -->
<g id="Node000004" class="node">
<title>Node4</title>
<g id="a_Node000004"><a xlink:href="class_p_a1_a_1_1_player_1_1_controller_1_1_rising_state.html" target="_top" xlink:title=" ">
<polygon fill="white" stroke="#666666" points="315.88,-32 168.62,-32 168.62,0 315.88,0 315.88,-32"/>
<text text-anchor="start" x="176.62" y="-18.5" font-family="Helvetica,sans-Serif" font-size="10.00">PA1A.Player.Controller.Rising</text>
<text text-anchor="middle" x="242.25" y="-6.5" font-family="Helvetica,sans-Serif" font-size="10.00">State</text>
</a>
</g>
</g>
<!-- Node0&#45;&gt;Node4 -->
<g id="edge193_Node000000_Node000004" class="edge">
<title>Node0&#45;&gt;Node4</title>
<g id="a_edge193_Node000000_Node000004"><a xlink:title=" ">
<path fill="none" stroke="#63b8ff" d="M102.58,-69.22C120.24,-59.82 141.59,-49.14 161.5,-41 168.89,-37.98 176.78,-35.1 184.62,-32.45"/>
<polygon fill="#63b8ff" stroke="#63b8ff" points="101.13,-66.03 93.99,-73.86 104.45,-72.19 101.13,-66.03"/>
</a>
</g>
</g>
</g>
</svg>
