<?xml version="1.0" encoding="UTF-8" standalone="no"?>
<!DOCTYPE svg PUBLIC "-//W3C//DTD SVG 1.1//EN"
 "http://www.w3.org/Graphics/SVG/1.1/DTD/svg11.dtd">
<!-- Generated by graphviz version 12.1.2 (20240928.0832)
 -->
<!-- Title: Graphical Class Hierarchy Pages: 1 -->
<svg width="347pt" height="90pt"
 viewBox="0.00 0.00 346.75 90.00" xmlns="http://www.w3.org/2000/svg" xmlns:xlink="http://www.w3.org/1999/xlink">
<g id="graph0" class="graph" transform="scale(1 1) rotate(0) translate(4 86)">
<title>Graphical Class Hierarchy</title>
<!-- Node0 -->
<g id="Node000000" class="node">
<title>Node0</title>
<g id="a_Node000000"><a xlink:href="interface_p_a1_a_1_1_event_bus_1_1_events_1_1_i_event.html" target="_top" xlink:title=" ">
<polygon fill="white" stroke="#666666" points="151.75,-51 0,-51 0,-31 151.75,-31 151.75,-51"/>
<text text-anchor="middle" x="75.88" y="-37.5" font-family="Helvetica,sans-Serif" font-size="10.00">PA1A.EventBus.Events.IEvent</text>
</a>
</g>
</g>
<!-- Node1 -->
<g id="Node000001" class="node">
<title>Node1</title>
<g id="a_Node000001"><a xlink:href="struct_p_a1_a_1_1_event_bus_1_1_events_1_1_player_event.html" target="_top" xlink:title=" ">
<polygon fill="white" stroke="#666666" points="338.75,-82 187.75,-82 187.75,-50 338.75,-50 338.75,-82"/>
<text text-anchor="start" x="195.75" y="-68.5" font-family="Helvetica,sans-Serif" font-size="10.00">PA1A.EventBus.Events.Player</text>
<text text-anchor="middle" x="263.25" y="-56.5" font-family="Helvetica,sans-Serif" font-size="10.00">Event</text>
</a>
</g>
</g>
<!-- Node0&#45;&gt;Node1 -->
<g id="edge176_Node000000_Node000001" class="edge">
<title>Node0&#45;&gt;Node1</title>
<g id="a_edge176_Node000000_Node000001"><a xlink:title=" ">
<path fill="none" stroke="#63b8ff" d="M163.29,-52.65C171.31,-53.74 179.4,-54.83 187.31,-55.89"/>
<polygon fill="#63b8ff" stroke="#63b8ff" points="163.88,-49.2 153.51,-51.33 162.95,-56.14 163.88,-49.2"/>
</a>
</g>
</g>
<!-- Node2 -->
<g id="Node000002" class="node">
<title>Node2</title>
<g id="a_Node000002"><a xlink:href="struct_p_a1_a_1_1_event_bus_1_1_events_1_1_test_event.html" target="_top" xlink:title=" ">
<polygon fill="white" stroke="#666666" points="334.25,-32 192.25,-32 192.25,0 334.25,0 334.25,-32"/>
<text text-anchor="start" x="200.25" y="-18.5" font-family="Helvetica,sans-Serif" font-size="10.00">PA1A.EventBus.Events.Test</text>
<text text-anchor="middle" x="263.25" y="-6.5" font-family="Helvetica,sans-Serif" font-size="10.00">Event</text>
</a>
</g>
</g>
<!-- Node0&#45;&gt;Node2 -->
<g id="edge177_Node000000_Node000002" class="edge">
<title>Node0&#45;&gt;Node2</title>
<g id="a_edge177_Node000000_Node000002"><a xlink:title=" ">
<path fill="none" stroke="#63b8ff" d="M163.19,-29.36C172.78,-28.07 182.45,-26.76 191.81,-25.5"/>
<polygon fill="#63b8ff" stroke="#63b8ff" points="162.95,-25.86 153.51,-30.67 163.88,-32.8 162.95,-25.86"/>
</a>
</g>
</g>
</g>
</svg>
