<?xml version="1.0" encoding="UTF-8" standalone="no"?>
<!DOCTYPE svg PUBLIC "-//W3C//DTD SVG 1.1//EN"
 "http://www.w3.org/Graphics/SVG/1.1/DTD/svg11.dtd">
<!-- Generated by graphviz version 12.1.2 (20240928.0832)
 -->
<!-- Title: Graphical Class Hierarchy Pages: 1 -->
<svg width="358pt" height="154pt"
 viewBox="0.00 0.00 358.00 154.00" xmlns="http://www.w3.org/2000/svg" xmlns:xlink="http://www.w3.org/1999/xlink">
<g id="graph0" class="graph" transform="scale(1 1) rotate(0) translate(4 150)">
<title>Graphical Class Hierarchy</title>
<!-- Node0 -->
<g id="Node000000" class="node">
<title>Node0</title>
<g id="a_Node000000"><a xlink:href="class_i_list.html" target="_top" xlink:title=" ">
<polygon fill="white" stroke="#666666" points="95.88,-146 61.12,-146 61.12,-126 95.88,-126 95.88,-146"/>
<text text-anchor="middle" x="78.5" y="-132.5" font-family="Helvetica,sans-Serif" font-size="10.00">IList</text>
</a>
</g>
</g>
<!-- Node1 -->
<g id="Node000001" class="node">
<title>Node1</title>
<g id="a_Node000001"><a xlink:href="class_unity_1_1_netcode_1_1_network_standard_list.html" target="_top" xlink:title="Represents a List&lt;T&gt; that is synchronized as a List&lt;T&gt; &#160;This allows you to synchronize managed types ...">
<polygon fill="white" stroke="#666666" points="350,-92 193,-92 193,-60 350,-60 350,-92"/>
<text text-anchor="start" x="201" y="-78.5" font-family="Helvetica,sans-Serif" font-size="10.00">Unity.Netcode.NetworkStandard</text>
<text text-anchor="middle" x="271.5" y="-66.5" font-family="Helvetica,sans-Serif" font-size="10.00">List&lt; TOriginal, TCast &gt;</text>
</a>
</g>
</g>
<!-- Node0&#45;&gt;Node1 -->
<g id="edge168_Node000000_Node000001" class="edge">
<title>Node0&#45;&gt;Node1</title>
<g id="a_edge168_Node000000_Node000001"><a xlink:title=" ">
<path fill="none" stroke="#63b8ff" d="M107.28,-129.94C122.13,-126.52 140.68,-121.93 157,-117 180.87,-109.79 207.07,-100.42 228.28,-92.46"/>
<polygon fill="#63b8ff" stroke="#63b8ff" points="106.73,-126.48 97.74,-132.1 108.27,-133.31 106.73,-126.48"/>
</a>
</g>
</g>
<!-- Node2 -->
<g id="Node000002" class="node">
<title>Node2</title>
<g id="a_Node000002"><a xlink:href="class_i_read_only_list.html" target="_top" xlink:title=" ">
<polygon fill="white" stroke="#666666" points="117.62,-108 39.38,-108 39.38,-88 117.62,-88 117.62,-108"/>
<text text-anchor="middle" x="78.5" y="-94.5" font-family="Helvetica,sans-Serif" font-size="10.00">IReadOnlyList</text>
</a>
</g>
</g>
<!-- Node2&#45;&gt;Node1 -->
<g id="edge169_Node000002_Node000001" class="edge">
<title>Node2&#45;&gt;Node1</title>
<g id="a_edge169_Node000002_Node000001"><a xlink:title=" ">
<path fill="none" stroke="#63b8ff" d="M128.98,-92.3C148.35,-90.07 171.04,-87.46 192.5,-84.98"/>
<polygon fill="#63b8ff" stroke="#63b8ff" points="128.73,-88.81 119.2,-93.43 129.53,-95.76 128.73,-88.81"/>
</a>
</g>
</g>
<!-- Node3 -->
<g id="Node000003" class="node">
<title>Node3</title>
<g id="a_Node000003"><a xlink:href="class_unity_1_1_netcode_1_1_network_standard_list.html" target="_top" xlink:title=" ">
<polygon fill="white" stroke="#666666" points="157,-70 0,-70 0,-38 157,-38 157,-70"/>
<text text-anchor="start" x="8" y="-56.5" font-family="Helvetica,sans-Serif" font-size="10.00">Unity.Netcode.NetworkStandard</text>
<text text-anchor="middle" x="78.5" y="-44.5" font-family="Helvetica,sans-Serif" font-size="10.00">List&lt; T, T &gt;</text>
</a>
</g>
</g>
<!-- Node3&#45;&gt;Node1 -->
<g id="edge170_Node000003_Node000001" class="edge">
<title>Node3&#45;&gt;Node1</title>
<g id="a_edge170_Node000003_Node000001"><a xlink:title=" ">
<path fill="none" stroke="#63b8ff" d="M168.75,-64.28C176.78,-65.2 184.87,-66.14 192.79,-67.05"/>
<polygon fill="#63b8ff" stroke="#63b8ff" points="169.3,-60.82 158.97,-63.15 168.5,-67.77 169.3,-60.82"/>
</a>
</g>
</g>
<!-- Node4 -->
<g id="Node000004" class="node">
<title>Node4</title>
<g id="a_Node000004"><a xlink:href="class_network_variable_base.html" target="_top" xlink:title=" ">
<polygon fill="white" stroke="#666666" points="133.38,-20 23.62,-20 23.62,0 133.38,0 133.38,-20"/>
<text text-anchor="middle" x="78.5" y="-6.5" font-family="Helvetica,sans-Serif" font-size="10.00">NetworkVariableBase</text>
</a>
</g>
</g>
<!-- Node4&#45;&gt;Node1 -->
<g id="edge171_Node000004_Node000001" class="edge">
<title>Node4&#45;&gt;Node1</title>
<g id="a_edge171_Node000004_Node000001"><a xlink:title=" ">
<path fill="none" stroke="#63b8ff" d="M137.85,-23.29C144.35,-25.07 150.84,-26.98 157,-29 183.55,-37.7 212.65,-49.8 234.74,-59.55"/>
<polygon fill="#63b8ff" stroke="#63b8ff" points="138.98,-19.97 128.42,-20.81 137.2,-26.74 138.98,-19.97"/>
</a>
</g>
</g>
</g>
</svg>
