<?xml version="1.0" encoding="UTF-8" standalone="no"?>
<!DOCTYPE svg PUBLIC "-//W3C//DTD SVG 1.1//EN"
 "http://www.w3.org/Graphics/SVG/1.1/DTD/svg11.dtd">
<!-- Generated by graphviz version 12.1.2 (20240928.0832)
 -->
<!-- Title: Graphical Class Hierarchy Pages: 1 -->
<svg width="208pt" height="66pt"
 viewBox="0.00 0.00 208.00 66.00" xmlns="http://www.w3.org/2000/svg" xmlns:xlink="http://www.w3.org/1999/xlink">
<g id="graph0" class="graph" transform="scale(1 1) rotate(0) translate(4 62)">
<title>Graphical Class Hierarchy</title>
<!-- Node0 -->
<g id="Node000000" class="node">
<title>Node0</title>
<g id="a_Node000000"><a xlink:href="class_button.html" target="_top" xlink:title=" ">
<polygon fill="white" stroke="#666666" points="44.5,-39 0,-39 0,-19 44.5,-19 44.5,-39"/>
<text text-anchor="middle" x="22.25" y="-25.5" font-family="Helvetica,sans-Serif" font-size="10.00">Button</text>
</a>
</g>
</g>
<!-- Node1 -->
<g id="Node000001" class="node">
<title>Node1</title>
<g id="a_Node000001"><a xlink:href="class_p_a1_a_1_1_dev_1_1_ability_button.html" target="_top" xlink:title="Represents a button that corresponds to a specific ability.">
<polygon fill="white" stroke="#666666" points="200,-58 80.5,-58 80.5,-38 200,-38 200,-58"/>
<text text-anchor="middle" x="140.25" y="-44.5" font-family="Helvetica,sans-Serif" font-size="10.00">PA1A.Dev.AbilityButton</text>
</a>
</g>
</g>
<!-- Node0&#45;&gt;Node1 -->
<g id="edge1_Node000000_Node000001" class="edge">
<title>Node0&#45;&gt;Node1</title>
<g id="a_edge1_Node000000_Node000001"><a xlink:title=" ">
<path fill="none" stroke="#63b8ff" d="M55.98,-34.36C63.53,-35.6 71.8,-36.95 80.09,-38.31"/>
<polygon fill="#63b8ff" stroke="#63b8ff" points="56.72,-30.94 46.29,-32.77 55.59,-37.84 56.72,-30.94"/>
</a>
</g>
</g>
<!-- Node2 -->
<g id="Node000002" class="node">
<title>Node2</title>
<g id="a_Node000002"><a xlink:href="class_p_a1_a_1_1_dev_1_1_item_button.html" target="_top" xlink:title="Represents a button that displays an inventory item and allows the player to use its ability.">
<polygon fill="white" stroke="#666666" points="196.25,-20 84.25,-20 84.25,0 196.25,0 196.25,-20"/>
<text text-anchor="middle" x="140.25" y="-6.5" font-family="Helvetica,sans-Serif" font-size="10.00">PA1A.Dev.ItemButton</text>
</a>
</g>
</g>
<!-- Node0&#45;&gt;Node2 -->
<g id="edge2_Node000000_Node000002" class="edge">
<title>Node0&#45;&gt;Node2</title>
<g id="a_edge2_Node000000_Node000002"><a xlink:title=" ">
<path fill="none" stroke="#63b8ff" d="M56.02,-23.63C64.76,-22.2 74.45,-20.61 84.03,-19.04"/>
<polygon fill="#63b8ff" stroke="#63b8ff" points="55.59,-20.16 46.29,-25.23 56.72,-27.06 55.59,-20.16"/>
</a>
</g>
</g>
</g>
</svg>
