<?xml version="1.0" encoding="UTF-8" standalone="no"?>
<!DOCTYPE svg PUBLIC "-//W3C//DTD SVG 1.1//EN"
 "http://www.w3.org/Graphics/SVG/1.1/DTD/svg11.dtd">
<!-- Generated by graphviz version 12.1.2 (20240928.0832)
 -->
<!-- Title: CodeSmile.MultiPal.Players.IPlayerComponent Pages: 1 -->
<svg width="918pt" height="412pt"
 viewBox="0.00 0.00 918.00 412.00" xmlns="http://www.w3.org/2000/svg" xmlns:xlink="http://www.w3.org/1999/xlink">
<g id="graph0" class="graph" transform="scale(1 1) rotate(0) translate(4 408)">
<title>CodeSmile.MultiPal.Players.IPlayerComponent</title>
<!-- Node1 -->
<g id="Node000001" class="node">
<title>Node1</title>
<g id="a_Node000001"><a xlink:title=" ">
<polygon fill="#999999" stroke="none" points="527,-404 392,-404 392,-292 527,-292 527,-404"/>
<text text-anchor="start" x="396.88" y="-390.5" font-family="Helvetica,sans-Serif" font-size="10.00">CodeSmile.MultiPal.Players.</text>
<text text-anchor="start" x="419" y="-378.5" font-family="Helvetica,sans-Serif" font-size="10.00">IPlayerComponent</text>
<text text-anchor="start" x="458" y="-362.5" font-family="Helvetica,sans-Serif" font-size="10.00"> </text>
<text text-anchor="start" x="403.5" y="-346.5" font-family="Helvetica,sans-Serif" font-size="10.00">+</text>
<text text-anchor="start" x="421" y="-346.5" font-family="Helvetica,sans-Serif" font-size="10.00">OnPlayerSpawn()</text>
<text text-anchor="start" x="403.5" y="-330.5" font-family="Helvetica,sans-Serif" font-size="10.00">+</text>
<text text-anchor="start" x="421" y="-330.5" font-family="Helvetica,sans-Serif" font-size="10.00">OnPlayerDespawn()</text>
<text text-anchor="start" x="403.5" y="-314.5" font-family="Helvetica,sans-Serif" font-size="10.00">+</text>
<text text-anchor="start" x="421" y="-314.5" font-family="Helvetica,sans-Serif" font-size="10.00">OnPlayerDeath()</text>
<text text-anchor="start" x="403.5" y="-298.5" font-family="Helvetica,sans-Serif" font-size="10.00">+</text>
<text text-anchor="start" x="421" y="-298.5" font-family="Helvetica,sans-Serif" font-size="10.00">OnPlayerRespawn()</text>
<polygon fill="#666666" stroke="#666666" points="392,-374 392,-374 527,-374 527,-374 392,-374"/>
<polygon fill="#666666" stroke="#666666" points="392,-358 392,-358 527,-358 527,-358 392,-358"/>
<polygon fill="none" stroke="#666666" points="392,-292 392,-404 527,-404 527,-292 392,-292"/>
</a>
</g>
</g>
<!-- Node2 -->
<g id="Node000002" class="node">
<title>Node2</title>
<g id="a_Node000002"><a xlink:href="class_code_smile_1_1_multi_pal_1_1_players_1_1_player.html" target="_top" xlink:title=" ">
<polygon fill="white" stroke="none" points="145,-256 0,-256 0,0 145,0 145,-256"/>
<text text-anchor="start" x="9.88" y="-242.5" font-family="Helvetica,sans-Serif" font-size="10.00">CodeSmile.MultiPal.Players.</text>
<text text-anchor="start" x="58.62" y="-230.5" font-family="Helvetica,sans-Serif" font-size="10.00">Player</text>
<text text-anchor="start" x="4" y="-214.5" font-family="Helvetica,sans-Serif" font-size="10.00">+</text>
<text text-anchor="start" x="14" y="-214.5" font-family="Helvetica,sans-Serif" font-size="10.00">Camera</text>
<text text-anchor="start" x="4" y="-198.5" font-family="Helvetica,sans-Serif" font-size="10.00">+</text>
<text text-anchor="start" x="14" y="-198.5" font-family="Helvetica,sans-Serif" font-size="10.00">AvatarIndex</text>
<text text-anchor="start" x="4" y="-182.5" font-family="Helvetica,sans-Serif" font-size="10.00">+</text>
<text text-anchor="start" x="14" y="-182.5" font-family="Helvetica,sans-Serif" font-size="10.00">PlayerIndex</text>
<text text-anchor="start" x="4" y="-166.5" font-family="Helvetica,sans-Serif" font-size="10.00">+</text>
<text text-anchor="start" x="14" y="-166.5" font-family="Helvetica,sans-Serif" font-size="10.00">OnPlayerSpawn()</text>
<text text-anchor="start" x="4" y="-150.5" font-family="Helvetica,sans-Serif" font-size="10.00">+</text>
<text text-anchor="start" x="14" y="-150.5" font-family="Helvetica,sans-Serif" font-size="10.00">OnPlayerDespawn()</text>
<text text-anchor="start" x="4" y="-134.5" font-family="Helvetica,sans-Serif" font-size="10.00">+</text>
<text text-anchor="start" x="14" y="-134.5" font-family="Helvetica,sans-Serif" font-size="10.00">OnNetworkSpawn()</text>
<text text-anchor="start" x="4" y="-118.5" font-family="Helvetica,sans-Serif" font-size="10.00">+</text>
<text text-anchor="start" x="14" y="-118.5" font-family="Helvetica,sans-Serif" font-size="10.00">OnNetworkDespawn()</text>
<text text-anchor="start" x="4" y="-102.5" font-family="Helvetica,sans-Serif" font-size="10.00">+</text>
<text text-anchor="start" x="14" y="-102.5" font-family="Helvetica,sans-Serif" font-size="10.00">OnOpenIngameMenu()</text>
<text text-anchor="start" x="4" y="-86.5" font-family="Helvetica,sans-Serif" font-size="10.00">+</text>
<text text-anchor="start" x="14" y="-86.5" font-family="Helvetica,sans-Serif" font-size="10.00">OnCloseIngameMenu()</text>
<text text-anchor="start" x="4" y="-70.5" font-family="Helvetica,sans-Serif" font-size="10.00">~</text>
<text text-anchor="start" x="14" y="-70.5" font-family="Helvetica,sans-Serif" font-size="10.00">SwitchCamera()</text>
<text text-anchor="start" x="4" y="-54.5" font-family="Helvetica,sans-Serif" font-size="10.00">~</text>
<text text-anchor="start" x="14" y="-54.5" font-family="Helvetica,sans-Serif" font-size="10.00">SwitchController()</text>
<text text-anchor="start" x="4" y="-38.5" font-family="Helvetica,sans-Serif" font-size="10.00">~</text>
<text text-anchor="start" x="14" y="-38.5" font-family="Helvetica,sans-Serif" font-size="10.00">RequestToggleIngameMenu()</text>
<text text-anchor="start" x="4" y="-22.5" font-family="Helvetica,sans-Serif" font-size="10.00">~</text>
<text text-anchor="start" x="14" y="-22.5" font-family="Helvetica,sans-Serif" font-size="10.00">Die()</text>
<text text-anchor="start" x="4" y="-6.5" font-family="Helvetica,sans-Serif" font-size="10.00">~</text>
<text text-anchor="start" x="14" y="-6.5" font-family="Helvetica,sans-Serif" font-size="10.00">Respawn()</text>
<polygon fill="#666666" stroke="#666666" points="0,-226 0,-226 145,-226 145,-226 0,-226"/>
<polygon fill="#666666" stroke="#666666" points="0,-178 0,-178 12,-178 12,-178 0,-178"/>
<polygon fill="#666666" stroke="#666666" points="12,-178 12,-178 145,-178 145,-178 12,-178"/>
<polygon fill="none" stroke="#666666" points="0,0 0,-256 145,-256 145,0 0,0"/>
</a>
</g>
</g>
<!-- Node1&#45;&gt;Node2 -->
<g id="edge1_Node000001_Node000002" class="edge">
<title>Node1&#45;&gt;Node2</title>
<g id="a_edge1_Node000001_Node000002"><a xlink:title=" ">
<path fill="none" stroke="#63b8ff" d="M381.04,-339.06C314.8,-329 220.33,-306.39 153.5,-256 150.58,-253.8 147.73,-251.45 144.96,-248.99"/>
<polygon fill="none" stroke="#63b8ff" points="380.34,-342.5 390.74,-340.47 381.35,-335.57 380.34,-342.5"/>
</a>
</g>
</g>
<!-- Node3 -->
<g id="Node000003" class="node">
<title>Node3</title>
<g id="a_Node000003"><a xlink:title=" ">
<polygon fill="white" stroke="none" points="298,-208 163,-208 163,-48 298,-48 298,-208"/>
<text text-anchor="start" x="167.88" y="-194.5" font-family="Helvetica,sans-Serif" font-size="10.00">CodeSmile.MultiPal.Players.</text>
<text text-anchor="start" x="202.38" y="-182.5" font-family="Helvetica,sans-Serif" font-size="10.00">PlayerAvatar</text>
<text text-anchor="start" x="168.5" y="-166.5" font-family="Helvetica,sans-Serif" font-size="10.00">+</text>
<text text-anchor="start" x="180" y="-166.5" font-family="Helvetica,sans-Serif" font-size="10.00">PreviousIndex</text>
<text text-anchor="start" x="168.5" y="-150.5" font-family="Helvetica,sans-Serif" font-size="10.00">+</text>
<text text-anchor="start" x="180" y="-150.5" font-family="Helvetica,sans-Serif" font-size="10.00">NextIndex</text>
<text text-anchor="start" x="168.5" y="-134.5" font-family="Helvetica,sans-Serif" font-size="10.00">+</text>
<text text-anchor="start" x="180" y="-134.5" font-family="Helvetica,sans-Serif" font-size="10.00">OnPlayerSpawn()</text>
<text text-anchor="start" x="168.5" y="-118.5" font-family="Helvetica,sans-Serif" font-size="10.00">+</text>
<text text-anchor="start" x="180" y="-118.5" font-family="Helvetica,sans-Serif" font-size="10.00">OnPlayerDespawn()</text>
<text text-anchor="start" x="168.5" y="-102.5" font-family="Helvetica,sans-Serif" font-size="10.00">+</text>
<text text-anchor="start" x="180" y="-102.5" font-family="Helvetica,sans-Serif" font-size="10.00">OnPlayerDeath()</text>
<text text-anchor="start" x="168.5" y="-86.5" font-family="Helvetica,sans-Serif" font-size="10.00">+</text>
<text text-anchor="start" x="180" y="-86.5" font-family="Helvetica,sans-Serif" font-size="10.00">OnPlayerRespawn()</text>
<text text-anchor="start" x="168.5" y="-70.5" font-family="Helvetica,sans-Serif" font-size="10.00">~</text>
<text text-anchor="start" x="180" y="-70.5" font-family="Helvetica,sans-Serif" font-size="10.00">SetAvatar()</text>
<text text-anchor="start" x="168.5" y="-54.5" font-family="Helvetica,sans-Serif" font-size="10.00">~</text>
<text text-anchor="start" x="180" y="-54.5" font-family="Helvetica,sans-Serif" font-size="10.00">OnAvatarIndexChanged()</text>
<polygon fill="#666666" stroke="#666666" points="163,-178 163,-178 298,-178 298,-178 163,-178"/>
<polygon fill="#666666" stroke="#666666" points="163,-146 163,-146 178,-146 178,-146 163,-146"/>
<polygon fill="#666666" stroke="#666666" points="178,-146 178,-146 298,-146 298,-146 178,-146"/>
<polygon fill="none" stroke="#666666" points="163,-48 163,-208 298,-208 298,-48 163,-48"/>
</a>
</g>
</g>
<!-- Node1&#45;&gt;Node3 -->
<g id="edge2_Node000001_Node000003" class="edge">
<title>Node1&#45;&gt;Node3</title>
<g id="a_edge2_Node000001_Node000003"><a xlink:title=" ">
<path fill="none" stroke="#63b8ff" d="M382.49,-311.01C356.38,-296.39 328.33,-277.77 306.5,-256 292.49,-242.03 280.03,-224.97 269.46,-207.95"/>
<polygon fill="none" stroke="#63b8ff" points="380.6,-313.97 391.05,-315.69 383.95,-307.83 380.6,-313.97"/>
</a>
</g>
</g>
<!-- Node4 -->
<g id="Node000004" class="node">
<title>Node4</title>
<g id="a_Node000004"><a xlink:href="class_code_smile_1_1_multi_pal_1_1_players_1_1_player_camera.html" target="_top" xlink:title=" ">
<polygon fill="white" stroke="none" points="451,-176 316,-176 316,-80 451,-80 451,-176"/>
<text text-anchor="start" x="320.88" y="-162.5" font-family="Helvetica,sans-Serif" font-size="10.00">CodeSmile.MultiPal.Players.</text>
<text text-anchor="start" x="352.38" y="-150.5" font-family="Helvetica,sans-Serif" font-size="10.00">PlayerCamera</text>
<text text-anchor="start" x="327.5" y="-134.5" font-family="Helvetica,sans-Serif" font-size="10.00">+</text>
<text text-anchor="start" x="345" y="-134.5" font-family="Helvetica,sans-Serif" font-size="10.00">TrackingTarget</text>
<text text-anchor="start" x="327.5" y="-118.5" font-family="Helvetica,sans-Serif" font-size="10.00">+</text>
<text text-anchor="start" x="345" y="-118.5" font-family="Helvetica,sans-Serif" font-size="10.00">LookAtTarget</text>
<text text-anchor="start" x="327.5" y="-102.5" font-family="Helvetica,sans-Serif" font-size="10.00">+</text>
<text text-anchor="start" x="345" y="-102.5" font-family="Helvetica,sans-Serif" font-size="10.00">OnPlayerSpawn()</text>
<text text-anchor="start" x="327.5" y="-86.5" font-family="Helvetica,sans-Serif" font-size="10.00">+</text>
<text text-anchor="start" x="345" y="-86.5" font-family="Helvetica,sans-Serif" font-size="10.00">OnPlayerDespawn()</text>
<polygon fill="#666666" stroke="#666666" points="316,-146 316,-146 451,-146 451,-146 316,-146"/>
<polygon fill="#666666" stroke="#666666" points="316,-114 316,-114 343,-114 343,-114 316,-114"/>
<polygon fill="#666666" stroke="#666666" points="343,-114 343,-114 451,-114 451,-114 343,-114"/>
<polygon fill="none" stroke="#666666" points="316,-80 316,-176 451,-176 451,-80 316,-80"/>
</a>
</g>
</g>
<!-- Node1&#45;&gt;Node4 -->
<g id="edge3_Node000001_Node000004" class="edge">
<title>Node1&#45;&gt;Node4</title>
<g id="a_edge3_Node000001_Node000004"><a xlink:title=" ">
<path fill="none" stroke="#63b8ff" d="M436.66,-281.5C424.82,-247.52 410.62,-206.8 399.88,-175.99"/>
<polygon fill="none" stroke="#63b8ff" points="433.32,-282.55 439.92,-290.84 439.93,-280.25 433.32,-282.55"/>
</a>
</g>
</g>
<!-- Node5 -->
<g id="Node000005" class="node">
<title>Node5</title>
<g id="a_Node000005"><a xlink:href="class_code_smile_1_1_multi_pal_1_1_players_1_1_player_interaction.html" target="_top" xlink:title=" ">
<polygon fill="white" stroke="none" points="604,-184 469,-184 469,-72 604,-72 604,-184"/>
<text text-anchor="start" x="473.88" y="-170.5" font-family="Helvetica,sans-Serif" font-size="10.00">CodeSmile.MultiPal.Players.</text>
<text text-anchor="start" x="499.75" y="-158.5" font-family="Helvetica,sans-Serif" font-size="10.00">PlayerInteraction</text>
<text text-anchor="start" x="535" y="-142.5" font-family="Helvetica,sans-Serif" font-size="10.00"> </text>
<text text-anchor="start" x="480.5" y="-126.5" font-family="Helvetica,sans-Serif" font-size="10.00">+</text>
<text text-anchor="start" x="498" y="-126.5" font-family="Helvetica,sans-Serif" font-size="10.00">OnPlayerSpawn()</text>
<text text-anchor="start" x="480.5" y="-110.5" font-family="Helvetica,sans-Serif" font-size="10.00">+</text>
<text text-anchor="start" x="498" y="-110.5" font-family="Helvetica,sans-Serif" font-size="10.00">OnPlayerDespawn()</text>
<text text-anchor="start" x="480.5" y="-94.5" font-family="Helvetica,sans-Serif" font-size="10.00">+</text>
<text text-anchor="start" x="498" y="-94.5" font-family="Helvetica,sans-Serif" font-size="10.00">OnAttack()</text>
<text text-anchor="start" x="480.5" y="-78.5" font-family="Helvetica,sans-Serif" font-size="10.00">+</text>
<text text-anchor="start" x="498" y="-78.5" font-family="Helvetica,sans-Serif" font-size="10.00">OnInteract()</text>
<polygon fill="#666666" stroke="#666666" points="469,-154 469,-154 604,-154 604,-154 469,-154"/>
<polygon fill="#666666" stroke="#666666" points="469,-138 469,-138 604,-138 604,-138 469,-138"/>
<polygon fill="none" stroke="#666666" points="469,-72 469,-184 604,-184 604,-72 469,-72"/>
</a>
</g>
</g>
<!-- Node1&#45;&gt;Node5 -->
<g id="edge4_Node000001_Node000005" class="edge">
<title>Node1&#45;&gt;Node5</title>
<g id="a_edge4_Node000001_Node000005"><a xlink:title=" ">
<path fill="none" stroke="#63b8ff" d="M482.64,-281.5C493.65,-250.3 506.68,-213.43 517.16,-183.75"/>
<polygon fill="none" stroke="#63b8ff" points="479.37,-280.25 479.34,-290.84 485.97,-282.58 479.37,-280.25"/>
</a>
</g>
</g>
<!-- Node6 -->
<g id="Node000006" class="node">
<title>Node6</title>
<g id="a_Node000006"><a xlink:href="class_code_smile_1_1_multi_pal_1_1_players_1_1_player_ui.html" target="_top" xlink:title=" ">
<polygon fill="white" stroke="none" points="757,-208 622,-208 622,-48 757,-48 757,-208"/>
<text text-anchor="start" x="626.88" y="-194.5" font-family="Helvetica,sans-Serif" font-size="10.00">CodeSmile.MultiPal.Players.</text>
<text text-anchor="start" x="670.75" y="-182.5" font-family="Helvetica,sans-Serif" font-size="10.00">PlayerUi</text>
<text text-anchor="start" x="688" y="-166.5" font-family="Helvetica,sans-Serif" font-size="10.00"> </text>
<text text-anchor="start" x="633.5" y="-150.5" font-family="Helvetica,sans-Serif" font-size="10.00">+</text>
<text text-anchor="start" x="651" y="-150.5" font-family="Helvetica,sans-Serif" font-size="10.00">OnPlayerSpawn()</text>
<text text-anchor="start" x="633.5" y="-134.5" font-family="Helvetica,sans-Serif" font-size="10.00">+</text>
<text text-anchor="start" x="651" y="-134.5" font-family="Helvetica,sans-Serif" font-size="10.00">OnPlayerDespawn()</text>
<text text-anchor="start" x="633.5" y="-118.5" font-family="Helvetica,sans-Serif" font-size="10.00">+</text>
<text text-anchor="start" x="651" y="-118.5" font-family="Helvetica,sans-Serif" font-size="10.00">OnRequestMenu()</text>
<text text-anchor="start" x="633.5" y="-102.5" font-family="Helvetica,sans-Serif" font-size="10.00">+</text>
<text text-anchor="start" x="651" y="-102.5" font-family="Helvetica,sans-Serif" font-size="10.00">OnPrevious()</text>
<text text-anchor="start" x="633.5" y="-86.5" font-family="Helvetica,sans-Serif" font-size="10.00">+</text>
<text text-anchor="start" x="651" y="-86.5" font-family="Helvetica,sans-Serif" font-size="10.00">OnNext()</text>
<text text-anchor="start" x="633.5" y="-70.5" font-family="Helvetica,sans-Serif" font-size="10.00">+</text>
<text text-anchor="start" x="651" y="-70.5" font-family="Helvetica,sans-Serif" font-size="10.00">OnUp()</text>
<text text-anchor="start" x="633.5" y="-54.5" font-family="Helvetica,sans-Serif" font-size="10.00">+</text>
<text text-anchor="start" x="651" y="-54.5" font-family="Helvetica,sans-Serif" font-size="10.00">OnDown()</text>
<polygon fill="#666666" stroke="#666666" points="622,-178 622,-178 757,-178 757,-178 622,-178"/>
<polygon fill="#666666" stroke="#666666" points="622,-162 622,-162 757,-162 757,-162 622,-162"/>
<polygon fill="none" stroke="#666666" points="622,-48 622,-208 757,-208 757,-48 622,-48"/>
</a>
</g>
</g>
<!-- Node1&#45;&gt;Node6 -->
<g id="edge5_Node000001_Node000006" class="edge">
<title>Node1&#45;&gt;Node6</title>
<g id="a_edge5_Node000001_Node000006"><a xlink:title=" ">
<path fill="none" stroke="#63b8ff" d="M536.67,-311.29C563.05,-296.65 591.44,-277.94 613.5,-256 627.53,-242.05 639.99,-225 650.57,-207.98"/>
<polygon fill="none" stroke="#63b8ff" points="535.14,-308.14 528.01,-315.98 538.47,-314.3 535.14,-308.14"/>
</a>
</g>
</g>
<!-- Node7 -->
<g id="Node000007" class="node">
<title>Node7</title>
<g id="a_Node000007"><a xlink:title=" ">
<polygon fill="white" stroke="none" points="910,-184 775,-184 775,-72 910,-72 910,-184"/>
<text text-anchor="start" x="779.88" y="-170.5" font-family="Helvetica,sans-Serif" font-size="10.00">CodeSmile.MultiPal.Players.</text>
<text text-anchor="start" x="818.88" y="-158.5" font-family="Helvetica,sans-Serif" font-size="10.00">PlayerVars</text>
<text text-anchor="start" x="784" y="-142.5" font-family="Helvetica,sans-Serif" font-size="10.00">+</text>
<text text-anchor="start" x="799" y="-142.5" font-family="Helvetica,sans-Serif" font-size="10.00">AvatarIndex</text>
<text text-anchor="start" x="784" y="-126.5" font-family="Helvetica,sans-Serif" font-size="10.00">+</text>
<text text-anchor="start" x="799" y="-126.5" font-family="Helvetica,sans-Serif" font-size="10.00">OnPlayerSpawn()</text>
<text text-anchor="start" x="784" y="-110.5" font-family="Helvetica,sans-Serif" font-size="10.00">+</text>
<text text-anchor="start" x="799" y="-110.5" font-family="Helvetica,sans-Serif" font-size="10.00">OnPlayerDespawn()</text>
<text text-anchor="start" x="784" y="-94.5" font-family="Helvetica,sans-Serif" font-size="10.00">+</text>
<text text-anchor="start" x="799" y="-94.5" font-family="Helvetica,sans-Serif" font-size="10.00">OnNetworkSpawn()</text>
<text text-anchor="start" x="784" y="-78.5" font-family="Helvetica,sans-Serif" font-size="10.00">+</text>
<text text-anchor="start" x="799" y="-78.5" font-family="Helvetica,sans-Serif" font-size="10.00">OnNetworkDespawn()</text>
<polygon fill="#666666" stroke="#666666" points="775,-154 775,-154 910,-154 910,-154 775,-154"/>
<polygon fill="#666666" stroke="#666666" points="775,-138 775,-138 797,-138 797,-138 775,-138"/>
<polygon fill="#666666" stroke="#666666" points="797,-138 797,-138 910,-138 910,-138 797,-138"/>
<polygon fill="none" stroke="#666666" points="775,-72 775,-184 910,-184 910,-72 775,-72"/>
</a>
</g>
</g>
<!-- Node1&#45;&gt;Node7 -->
<g id="edge6_Node000001_Node000007" class="edge">
<title>Node1&#45;&gt;Node7</title>
<g id="a_edge6_Node000001_Node000007"><a xlink:title=" ">
<path fill="none" stroke="#63b8ff" d="M538.27,-339.65C604.97,-329.94 700.07,-307.54 766.5,-256 790.46,-237.41 808.47,-208.98 820.94,-183.72"/>
<polygon fill="none" stroke="#63b8ff" points="537.92,-336.16 528.49,-341 538.87,-343.1 537.92,-336.16"/>
</a>
</g>
</g>
</g>
</svg>
