<?xml version="1.0" encoding="UTF-8" standalone="no"?>
<!DOCTYPE svg PUBLIC "-//W3C//DTD SVG 1.1//EN"
 "http://www.w3.org/Graphics/SVG/1.1/DTD/svg11.dtd">
<!-- Generated by graphviz version 12.1.2 (20240928.0832)
 -->
<!-- Title: PA1A.Building.IBuildingState.EndState Pages: 1 -->
<svg width="554pt" height="90pt"
 viewBox="0.00 0.00 554.00 90.00" xmlns="http://www.w3.org/2000/svg" xmlns:xlink="http://www.w3.org/1999/xlink">
<g id="graph0" class="graph" transform="scale(1 1) rotate(0) translate(4 86)">
<title>PA1A.Building.IBuildingState.EndState</title>
<!-- Node1 -->
<g id="Node000001" class="node">
<title>Node1</title>
<g id="a_Node000001"><a xlink:title="Ends the current state of the building.">
<polygon fill="#999999" stroke="#666666" points="546,-57 401,-57 401,-25 546,-25 546,-57"/>
<text text-anchor="start" x="409" y="-43.5" font-family="Helvetica,sans-Serif" font-size="10.00">PA1A.Building.IBuildingState.</text>
<text text-anchor="middle" x="473.5" y="-31.5" font-family="Helvetica,sans-Serif" font-size="10.00">EndState</text>
</a>
</g>
</g>
<!-- Node2 -->
<g id="Node000002" class="node">
<title>Node2</title>
<g id="a_Node000002"><a xlink:href="class_p_a1_a_1_1_building_1_1_placement_system.html#ae762a90199bf3b51302b9eeb0a02fa4a" target="_top" xlink:title="Stops the placement of buildings.">
<polygon fill="white" stroke="#666666" points="365,-57 200.5,-57 200.5,-25 365,-25 365,-57"/>
<text text-anchor="start" x="208.5" y="-43.5" font-family="Helvetica,sans-Serif" font-size="10.00">PA1A.Building.PlacementSystem.</text>
<text text-anchor="middle" x="282.75" y="-31.5" font-family="Helvetica,sans-Serif" font-size="10.00">StopPlacement</text>
</a>
</g>
</g>
<!-- Node1&#45;&gt;Node2 -->
<g id="edge1_Node000001_Node000002" class="edge">
<title>Node1&#45;&gt;Node2</title>
<g id="a_edge1_Node000001_Node000002"><a xlink:title=" ">
<path fill="none" stroke="#63b8ff" d="M389.09,-41C381.17,-41 373.14,-41 365.23,-41"/>
<polygon fill="#63b8ff" stroke="#63b8ff" points="389.09,-44.5 399.09,-41 389.09,-37.5 389.09,-44.5"/>
</a>
</g>
</g>
<!-- Node2&#45;&gt;Node2 -->
<g id="edge4_Node000002_Node000002" class="edge">
<title>Node2&#45;&gt;Node2</title>
<g id="a_edge4_Node000002_Node000002"><a xlink:title=" ">
<path fill="none" stroke="#63b8ff" d="M314.54,-68.71C309.24,-72.48 298.64,-75 282.75,-75 253.69,-75 242.34,-66.58 248.7,-57.44"/>
<polygon fill="#63b8ff" stroke="#63b8ff" points="317.96,-69.42 316.51,-58.93 311.1,-68.04 317.96,-69.42"/>
</a>
</g>
</g>
<!-- Node3 -->
<g id="Node000003" class="node">
<title>Node3</title>
<g id="a_Node000003"><a xlink:href="class_p_a1_a_1_1_building_1_1_placement_system.html#a056866139acd56dabcc6e27f5823e2a4" target="_top" xlink:title="Starts the placement of a building with the specified ID.">
<polygon fill="white" stroke="#666666" points="164.5,-82 0,-82 0,-50 164.5,-50 164.5,-82"/>
<text text-anchor="start" x="8" y="-68.5" font-family="Helvetica,sans-Serif" font-size="10.00">PA1A.Building.PlacementSystem.</text>
<text text-anchor="middle" x="82.25" y="-56.5" font-family="Helvetica,sans-Serif" font-size="10.00">StartPlacement</text>
</a>
</g>
</g>
<!-- Node2&#45;&gt;Node3 -->
<g id="edge2_Node000002_Node000003" class="edge">
<title>Node2&#45;&gt;Node3</title>
<g id="a_edge2_Node000002_Node000003"><a xlink:title=" ">
<path fill="none" stroke="#63b8ff" d="M188.87,-52.7C180.85,-53.71 172.77,-54.73 164.85,-55.72"/>
<polygon fill="#63b8ff" stroke="#63b8ff" points="189.17,-56.19 198.65,-51.47 188.29,-49.24 189.17,-56.19"/>
</a>
</g>
</g>
<!-- Node4 -->
<g id="Node000004" class="node">
<title>Node4</title>
<g id="a_Node000004"><a xlink:href="class_p_a1_a_1_1_building_1_1_placement_system.html#a38c6c54f58d900665185f8a14c0fba3a" target="_top" xlink:title="Starts the removal of a building.">
<polygon fill="white" stroke="#666666" points="164.5,-32 0,-32 0,0 164.5,0 164.5,-32"/>
<text text-anchor="start" x="8" y="-18.5" font-family="Helvetica,sans-Serif" font-size="10.00">PA1A.Building.PlacementSystem.</text>
<text text-anchor="middle" x="82.25" y="-6.5" font-family="Helvetica,sans-Serif" font-size="10.00">StartRemoving</text>
</a>
</g>
</g>
<!-- Node2&#45;&gt;Node4 -->
<g id="edge3_Node000002_Node000004" class="edge">
<title>Node2&#45;&gt;Node4</title>
<g id="a_edge3_Node000002_Node000004"><a xlink:title=" ">
<path fill="none" stroke="#63b8ff" d="M188.87,-29.3C180.85,-28.29 172.77,-27.27 164.85,-26.28"/>
<polygon fill="#63b8ff" stroke="#63b8ff" points="188.29,-32.76 198.65,-30.53 189.17,-25.81 188.29,-32.76"/>
</a>
</g>
</g>
</g>
</svg>
