<?xml version="1.0" encoding="UTF-8" standalone="no"?>
<!DOCTYPE svg PUBLIC "-//W3C//DTD SVG 1.1//EN"
 "http://www.w3.org/Graphics/SVG/1.1/DTD/svg11.dtd">
<!-- Generated by graphviz version 12.1.2 (20240928.0832)
 -->
<!-- Title: UnityUtils.StateMachine.IState.FixedUpdate Pages: 1 -->
<svg width="487pt" height="40pt"
 viewBox="0.00 0.00 487.25 40.00" xmlns="http://www.w3.org/2000/svg" xmlns:xlink="http://www.w3.org/1999/xlink">
<g id="graph0" class="graph" transform="scale(1 1) rotate(0) translate(4 36)">
<title>UnityUtils.StateMachine.IState.FixedUpdate</title>
<!-- Node1 -->
<g id="Node000001" class="node">
<title>Node1</title>
<g id="a_Node000001"><a xlink:title=" ">
<polygon fill="#999999" stroke="#666666" points="479.25,-32 353.75,-32 353.75,0 479.25,0 479.25,-32"/>
<text text-anchor="start" x="361.75" y="-18.5" font-family="Helvetica,sans-Serif" font-size="10.00">UnityUtils.StateMachine.</text>
<text text-anchor="middle" x="416.5" y="-6.5" font-family="Helvetica,sans-Serif" font-size="10.00">IState.FixedUpdate</text>
</a>
</g>
</g>
<!-- Node2 -->
<g id="Node000002" class="node">
<title>Node2</title>
<g id="a_Node000002"><a xlink:href="class_unity_utils_1_1_state_machine_1_1_state_machine.html#a3d8b3508c1fb26a730bb87dce2441ba7" target="_top" xlink:title=" ">
<polygon fill="white" stroke="#666666" points="317.75,-32 183.25,-32 183.25,0 317.75,0 317.75,-32"/>
<text text-anchor="start" x="191.25" y="-18.5" font-family="Helvetica,sans-Serif" font-size="10.00">UnityUtils.StateMachine.</text>
<text text-anchor="middle" x="250.5" y="-6.5" font-family="Helvetica,sans-Serif" font-size="10.00">StateMachine.FixedUpdate</text>
</a>
</g>
</g>
<!-- Node1&#45;&gt;Node2 -->
<g id="edge1_Node000001_Node000002" class="edge">
<title>Node1&#45;&gt;Node2</title>
<g id="a_edge1_Node000001_Node000002"><a xlink:title=" ">
<path fill="none" stroke="#63b8ff" d="M342.01,-16C334.1,-16 326.07,-16 318.24,-16"/>
<polygon fill="#63b8ff" stroke="#63b8ff" points="341.99,-19.5 351.99,-16 341.99,-12.5 341.99,-19.5"/>
</a>
</g>
</g>
<!-- Node3 -->
<g id="Node000003" class="node">
<title>Node3</title>
<g id="a_Node000003"><a xlink:href="class_p_a1_a_1_1_player_1_1_controller_1_1_player_controller.html#a4e18b4694328e291c151c8cd2d5fc542" target="_top" xlink:title="Gets the momentum of the player.">
<polygon fill="white" stroke="#666666" points="147.25,-32 0,-32 0,0 147.25,0 147.25,-32"/>
<text text-anchor="start" x="8" y="-18.5" font-family="Helvetica,sans-Serif" font-size="10.00">PA1A.Player.Controller.Player</text>
<text text-anchor="middle" x="73.62" y="-6.5" font-family="Helvetica,sans-Serif" font-size="10.00">Controller.GetMomentum</text>
</a>
</g>
</g>
<!-- Node2&#45;&gt;Node3 -->
<g id="edge2_Node000002_Node000003" class="edge">
<title>Node2&#45;&gt;Node3</title>
<g id="a_edge2_Node000002_Node000003"><a xlink:title=" ">
<path fill="none" stroke="#63b8ff" d="M171.63,-16C163.59,-16 155.45,-16 147.47,-16"/>
<polygon fill="#63b8ff" stroke="#63b8ff" points="171.37,-19.5 181.37,-16 171.37,-12.5 171.37,-19.5"/>
</a>
</g>
</g>
</g>
</svg>
