<?xml version="1.0" encoding="UTF-8" standalone="no"?>
<!DOCTYPE svg PUBLIC "-//W3C//DTD SVG 1.1//EN"
 "http://www.w3.org/Graphics/SVG/1.1/DTD/svg11.dtd">
<!-- Generated by graphviz version 12.1.2 (20240928.0832)
 -->
<!-- Title: CodeSmile.Statemachine.IAsyncAction Pages: 1 -->
<svg width="607pt" height="428pt"
 viewBox="0.00 0.00 606.50 428.00" xmlns="http://www.w3.org/2000/svg" xmlns:xlink="http://www.w3.org/1999/xlink">
<g id="graph0" class="graph" transform="scale(1 1) rotate(0) translate(4 424)">
<title>CodeSmile.Statemachine.IAsyncAction</title>
<!-- Node1 -->
<g id="Node000001" class="node">
<title>Node1</title>
<g id="a_Node000001"><a xlink:title="Marks a class as an asynchronous (awaitable) FSM Action.">
<polygon fill="#999999" stroke="none" points="376,-180 222,-180 222,-116 376,-116 376,-180"/>
<text text-anchor="start" x="226.62" y="-166.5" font-family="Helvetica,sans-Serif" font-size="10.00">CodeSmile.Statemachine.IAsync</text>
<text text-anchor="start" x="285.12" y="-154.5" font-family="Helvetica,sans-Serif" font-size="10.00">Action</text>
<text text-anchor="start" x="297.5" y="-138.5" font-family="Helvetica,sans-Serif" font-size="10.00"> </text>
<text text-anchor="start" x="242.5" y="-122.5" font-family="Helvetica,sans-Serif" font-size="10.00">+</text>
<text text-anchor="start" x="269" y="-122.5" font-family="Helvetica,sans-Serif" font-size="10.00">ExecuteAsync()</text>
<polygon fill="#666666" stroke="#666666" points="222,-150 222,-150 376,-150 376,-150 222,-150"/>
<polygon fill="#666666" stroke="#666666" points="222,-134 222,-134 376,-134 376,-134 222,-134"/>
<polygon fill="none" stroke="#666666" points="222,-116 222,-180 376,-180 376,-116 222,-116"/>
</a>
</g>
</g>
<!-- Node4 -->
<g id="Node000004" class="node">
<title>Node4</title>
<g id="a_Node000004"><a xlink:href="class_code_smile_1_1_statemachine_1_1_services_1_1_authentication_1_1_actions_1_1_sign_in_anonymously.html" target="_top" xlink:title="Calls SignInAnonymouslyAsync.">
<polygon fill="white" stroke="none" points="198,-72 0,-72 0,-8 198,-8 198,-72"/>
<text text-anchor="start" x="4.88" y="-58.5" font-family="Helvetica,sans-Serif" font-size="10.00">CodeSmile.Statemachine.Services.</text>
<text text-anchor="start" x="4.88" y="-46.5" font-family="Helvetica,sans-Serif" font-size="10.00">Authentication.Actions.SignInAnonymously</text>
<text text-anchor="start" x="97.5" y="-30.5" font-family="Helvetica,sans-Serif" font-size="10.00"> </text>
<text text-anchor="start" x="31.5" y="-14.5" font-family="Helvetica,sans-Serif" font-size="10.00">+</text>
<text text-anchor="start" x="69" y="-14.5" font-family="Helvetica,sans-Serif" font-size="10.00">ExecuteAsync()</text>
<polygon fill="#666666" stroke="#666666" points="0,-42 0,-42 198,-42 198,-42 0,-42"/>
<polygon fill="#666666" stroke="#666666" points="0,-26 0,-26 198,-26 198,-26 0,-26"/>
<polygon fill="none" stroke="#666666" points="0,-8 0,-72 198,-72 198,-8 0,-8"/>
</a>
</g>
</g>
<!-- Node1&#45;&gt;Node4 -->
<g id="edge3_Node000001_Node000004" class="edge">
<title>Node1&#45;&gt;Node4</title>
<g id="a_edge3_Node000001_Node000004"><a xlink:title=" ">
<path fill="none" stroke="#63b8ff" d="M230.6,-110.75C206.81,-98.14 180.37,-84.12 157.46,-71.98"/>
<polygon fill="none" stroke="#63b8ff" points="228.8,-113.76 239.28,-115.35 232.08,-107.57 228.8,-113.76"/>
</a>
</g>
</g>
<!-- Node5 -->
<g id="Node000005" class="node">
<title>Node5</title>
<g id="a_Node000005"><a xlink:href="class_code_smile_1_1_statemachine_1_1_services_1_1_core_1_1_actions_1_1_unity_services_init.html" target="_top" xlink:title="Initialize Unity Gaming Services.">
<polygon fill="white" stroke="none" points="381.5,-72 216.5,-72 216.5,-8 381.5,-8 381.5,-72"/>
<text text-anchor="start" x="221.38" y="-58.5" font-family="Helvetica,sans-Serif" font-size="10.00">CodeSmile.Statemachine.Services.</text>
<text text-anchor="start" x="231.5" y="-46.5" font-family="Helvetica,sans-Serif" font-size="10.00">Core.Actions.UnityServicesInit</text>
<text text-anchor="start" x="297.5" y="-30.5" font-family="Helvetica,sans-Serif" font-size="10.00"> </text>
<text text-anchor="start" x="240" y="-14.5" font-family="Helvetica,sans-Serif" font-size="10.00">+</text>
<text text-anchor="start" x="269.5" y="-14.5" font-family="Helvetica,sans-Serif" font-size="10.00">ExecuteAsync()</text>
<polygon fill="#666666" stroke="#666666" points="216.5,-42 216.5,-42 381.5,-42 381.5,-42 216.5,-42"/>
<polygon fill="#666666" stroke="#666666" points="216.5,-26 216.5,-26 381.5,-26 381.5,-26 216.5,-26"/>
<polygon fill="none" stroke="#666666" points="216.5,-8 216.5,-72 381.5,-72 381.5,-8 216.5,-8"/>
</a>
</g>
</g>
<!-- Node1&#45;&gt;Node5 -->
<g id="edge4_Node000001_Node000005" class="edge">
<title>Node1&#45;&gt;Node5</title>
<g id="a_edge4_Node000001_Node000005"><a xlink:title=" ">
<path fill="none" stroke="#63b8ff" d="M299,-104.87C299,-93.83 299,-82.13 299,-71.8"/>
<polygon fill="none" stroke="#63b8ff" points="295.5,-104.54 299,-114.54 302.5,-104.54 295.5,-104.54"/>
</a>
</g>
</g>
<!-- Node6 -->
<g id="Node000006" class="node">
<title>Node6</title>
<g id="a_Node000006"><a xlink:href="class_code_smile_1_1_statemachine_1_1_services_1_1_relay_1_1_actions_1_1_relay_create_or_join_allocation.html" target="_top" xlink:title="Initializes Relay.">
<polygon fill="white" stroke="none" points="598.5,-80 399.5,-80 399.5,0 598.5,0 598.5,-80"/>
<text text-anchor="start" x="404.12" y="-66.5" font-family="Helvetica,sans-Serif" font-size="10.00">CodeSmile.Statemachine.Services.</text>
<text text-anchor="start" x="404.12" y="-54.5" font-family="Helvetica,sans-Serif" font-size="10.00">Relay.Actions.RelayCreateOrJoinAllocation</text>
<text text-anchor="start" x="497.5" y="-38.5" font-family="Helvetica,sans-Serif" font-size="10.00"> </text>
<text text-anchor="start" x="415.5" y="-22.5" font-family="Helvetica,sans-Serif" font-size="10.00">+</text>
<text text-anchor="start" x="437.5" y="-22.5" font-family="Helvetica,sans-Serif" font-size="10.00">RelayCreateOrJoinAllocation()</text>
<text text-anchor="start" x="415.5" y="-6.5" font-family="Helvetica,sans-Serif" font-size="10.00">+</text>
<text text-anchor="start" x="437.5" y="-6.5" font-family="Helvetica,sans-Serif" font-size="10.00">ExecuteAsync()</text>
<polygon fill="#666666" stroke="#666666" points="399.5,-50 399.5,-50 598.5,-50 598.5,-50 399.5,-50"/>
<polygon fill="#666666" stroke="#666666" points="399.5,-34 399.5,-34 598.5,-34 598.5,-34 399.5,-34"/>
<polygon fill="none" stroke="#666666" points="399.5,0 399.5,-80 598.5,-80 598.5,0 399.5,0"/>
</a>
</g>
</g>
<!-- Node1&#45;&gt;Node6 -->
<g id="edge5_Node000001_Node000006" class="edge">
<title>Node1&#45;&gt;Node6</title>
<g id="a_edge5_Node000001_Node000006"><a xlink:title=" ">
<path fill="none" stroke="#63b8ff" d="M367.33,-110.78C386.11,-100.83 406.54,-90 425.59,-79.91"/>
<polygon fill="none" stroke="#63b8ff" points="365.92,-107.57 358.72,-115.35 369.2,-113.76 365.92,-107.57"/>
</a>
</g>
</g>
<!-- Node2 -->
<g id="Node000002" class="node">
<title>Node2</title>
<g id="a_Node000002"><a xlink:href="interface_code_smile_1_1_statemachine_1_1_i_action.html" target="_top" xlink:title="Marks a class as a FSM Action.">
<polygon fill="white" stroke="none" points="343,-284 255,-284 255,-216 343,-216 343,-284"/>
<text text-anchor="start" x="283.62" y="-270.5" font-family="Helvetica,sans-Serif" font-size="10.00">IAction</text>
<text text-anchor="start" x="297.5" y="-254.5" font-family="Helvetica,sans-Serif" font-size="10.00"> </text>
<text text-anchor="start" x="259" y="-238.5" font-family="Helvetica,sans-Serif" font-size="10.00">+</text>
<text text-anchor="start" x="269" y="-238.5" font-family="Helvetica,sans-Serif" font-size="10.00">Execute()</text>
<text text-anchor="start" x="259" y="-222.5" font-family="Helvetica,sans-Serif" font-size="10.00">+</text>
<text text-anchor="start" x="269" y="-222.5" font-family="Helvetica,sans-Serif" font-size="10.00">ToDebugString()</text>
<polygon fill="#666666" stroke="#666666" points="255,-266 255,-266 343,-266 343,-266 255,-266"/>
<polygon fill="#666666" stroke="#666666" points="255,-250 255,-250 343,-250 343,-250 255,-250"/>
<polygon fill="none" stroke="#666666" points="255,-216 255,-284 343,-284 343,-216 255,-216"/>
</a>
</g>
</g>
<!-- Node2&#45;&gt;Node1 -->
<g id="edge1_Node000001_Node000002" class="edge">
<title>Node2&#45;&gt;Node1</title>
<g id="a_edge1_Node000001_Node000002"><a xlink:title=" ">
<path fill="none" stroke="#63b8ff" d="M299,-204.93C299,-196.44 299,-187.73 299,-179.78"/>
<polygon fill="none" stroke="#63b8ff" points="295.5,-204.74 299,-214.74 302.5,-204.74 295.5,-204.74"/>
</a>
</g>
</g>
<!-- Node3 -->
<g id="Node000003" class="node">
<title>Node3</title>
<g id="a_Node000003"><a xlink:href="interface_code_smile_1_1_statemachine_1_1_i_statemachine_events.html" target="_top" xlink:title="Event methods that the Statemachine calls at specific times.">
<polygon fill="white" stroke="none" points="350.5,-420 247.5,-420 247.5,-320 350.5,-320 350.5,-420"/>
<text text-anchor="start" x="252.12" y="-406.5" font-family="Helvetica,sans-Serif" font-size="10.00">IStatemachineEvents</text>
<text text-anchor="start" x="297.5" y="-390.5" font-family="Helvetica,sans-Serif" font-size="10.00"> </text>
<text text-anchor="start" x="256.5" y="-374.5" font-family="Helvetica,sans-Serif" font-size="10.00">+</text>
<text text-anchor="start" x="271.5" y="-374.5" font-family="Helvetica,sans-Serif" font-size="10.00">OnStart()</text>
<text text-anchor="start" x="256.5" y="-358.5" font-family="Helvetica,sans-Serif" font-size="10.00">+</text>
<text text-anchor="start" x="271.5" y="-358.5" font-family="Helvetica,sans-Serif" font-size="10.00">OnStop()</text>
<text text-anchor="start" x="256.5" y="-342.5" font-family="Helvetica,sans-Serif" font-size="10.00">+</text>
<text text-anchor="start" x="271.5" y="-342.5" font-family="Helvetica,sans-Serif" font-size="10.00">OnEnterState()</text>
<text text-anchor="start" x="256.5" y="-326.5" font-family="Helvetica,sans-Serif" font-size="10.00">+</text>
<text text-anchor="start" x="271.5" y="-326.5" font-family="Helvetica,sans-Serif" font-size="10.00">OnExitState()</text>
<polygon fill="#666666" stroke="#666666" points="247.5,-402 247.5,-402 350.5,-402 350.5,-402 247.5,-402"/>
<polygon fill="#666666" stroke="#666666" points="247.5,-386 247.5,-386 350.5,-386 350.5,-386 247.5,-386"/>
<polygon fill="none" stroke="#666666" points="247.5,-320 247.5,-420 350.5,-420 350.5,-320 247.5,-320"/>
</a>
</g>
</g>
<!-- Node3&#45;&gt;Node2 -->
<g id="edge2_Node000002_Node000003" class="edge">
<title>Node3&#45;&gt;Node2</title>
<g id="a_edge2_Node000002_Node000003"><a xlink:title=" ">
<path fill="none" stroke="#63b8ff" d="M299,-308.96C299,-300.28 299,-291.62 299,-283.75"/>
<polygon fill="none" stroke="#63b8ff" points="295.5,-308.81 299,-318.81 302.5,-308.81 295.5,-308.81"/>
</a>
</g>
</g>
</g>
</svg>
