<?xml version="1.0" encoding="UTF-8" standalone="no"?>
<!DOCTYPE svg PUBLIC "-//W3C//DTD SVG 1.1//EN"
 "http://www.w3.org/Graphics/SVG/1.1/DTD/svg11.dtd">
<!-- Generated by graphviz version 12.1.2 (20240928.0832)
 -->
<!-- Title: CodeSmile.MultiPal.Input.GeneratedInput.IPlayerInteractionActions Pages: 1 -->
<svg width="164pt" height="248pt"
 viewBox="0.00 0.00 164.00 248.00" xmlns="http://www.w3.org/2000/svg" xmlns:xlink="http://www.w3.org/1999/xlink">
<g id="graph0" class="graph" transform="scale(1 1) rotate(0) translate(4 244)">
<title>CodeSmile.MultiPal.Input.GeneratedInput.IPlayerInteractionActions</title>
<!-- Node1 -->
<g id="Node000001" class="node">
<title>Node1</title>
<g id="a_Node000001"><a xlink:title=" ">
<polygon fill="#999999" stroke="none" points="156,-240 0,-240 0,-148 156,-148 156,-240"/>
<text text-anchor="start" x="4.88" y="-226.5" font-family="Helvetica,sans-Serif" font-size="10.00">CodeSmile.MultiPal.Input.</text>
<text text-anchor="start" x="4.88" y="-214.5" font-family="Helvetica,sans-Serif" font-size="10.00">GeneratedInput.IPlayerInteraction</text>
<text text-anchor="start" x="61.5" y="-202.5" font-family="Helvetica,sans-Serif" font-size="10.00">Actions</text>
<text text-anchor="start" x="76.5" y="-186.5" font-family="Helvetica,sans-Serif" font-size="10.00"> </text>
<text text-anchor="start" x="25.5" y="-170.5" font-family="Helvetica,sans-Serif" font-size="10.00">+</text>
<text text-anchor="start" x="57" y="-170.5" font-family="Helvetica,sans-Serif" font-size="10.00">OnAttack()</text>
<text text-anchor="start" x="25.5" y="-154.5" font-family="Helvetica,sans-Serif" font-size="10.00">+</text>
<text text-anchor="start" x="57" y="-154.5" font-family="Helvetica,sans-Serif" font-size="10.00">OnInteract()</text>
<polygon fill="#666666" stroke="#666666" points="0,-198 0,-198 156,-198 156,-198 0,-198"/>
<polygon fill="#666666" stroke="#666666" points="0,-182 0,-182 156,-182 156,-182 0,-182"/>
<polygon fill="none" stroke="#666666" points="0,-148 0,-240 156,-240 156,-148 0,-148"/>
</a>
</g>
</g>
<!-- Node2 -->
<g id="Node000002" class="node">
<title>Node2</title>
<g id="a_Node000002"><a xlink:href="class_code_smile_1_1_multi_pal_1_1_players_1_1_player_interaction.html" target="_top" xlink:title=" ">
<polygon fill="white" stroke="none" points="145.5,-112 10.5,-112 10.5,0 145.5,0 145.5,-112"/>
<text text-anchor="start" x="15.38" y="-98.5" font-family="Helvetica,sans-Serif" font-size="10.00">CodeSmile.MultiPal.Players.</text>
<text text-anchor="start" x="41.25" y="-86.5" font-family="Helvetica,sans-Serif" font-size="10.00">PlayerInteraction</text>
<text text-anchor="start" x="76.5" y="-70.5" font-family="Helvetica,sans-Serif" font-size="10.00"> </text>
<text text-anchor="start" x="22" y="-54.5" font-family="Helvetica,sans-Serif" font-size="10.00">+</text>
<text text-anchor="start" x="39.5" y="-54.5" font-family="Helvetica,sans-Serif" font-size="10.00">OnPlayerSpawn()</text>
<text text-anchor="start" x="22" y="-38.5" font-family="Helvetica,sans-Serif" font-size="10.00">+</text>
<text text-anchor="start" x="39.5" y="-38.5" font-family="Helvetica,sans-Serif" font-size="10.00">OnPlayerDespawn()</text>
<text text-anchor="start" x="22" y="-22.5" font-family="Helvetica,sans-Serif" font-size="10.00">+</text>
<text text-anchor="start" x="39.5" y="-22.5" font-family="Helvetica,sans-Serif" font-size="10.00">OnAttack()</text>
<text text-anchor="start" x="22" y="-6.5" font-family="Helvetica,sans-Serif" font-size="10.00">+</text>
<text text-anchor="start" x="39.5" y="-6.5" font-family="Helvetica,sans-Serif" font-size="10.00">OnInteract()</text>
<polygon fill="#666666" stroke="#666666" points="10.5,-82 10.5,-82 145.5,-82 145.5,-82 10.5,-82"/>
<polygon fill="#666666" stroke="#666666" points="10.5,-66 10.5,-66 145.5,-66 145.5,-66 10.5,-66"/>
<polygon fill="none" stroke="#666666" points="10.5,0 10.5,-112 145.5,-112 145.5,0 10.5,0"/>
</a>
</g>
</g>
<!-- Node1&#45;&gt;Node2 -->
<g id="edge1_Node000001_Node000002" class="edge">
<title>Node1&#45;&gt;Node2</title>
<g id="a_edge1_Node000001_Node000002"><a xlink:title=" ">
<path fill="none" stroke="#63b8ff" d="M78,-136.68C78,-128.46 78,-120 78,-111.81"/>
<polygon fill="none" stroke="#63b8ff" points="74.5,-136.58 78,-146.58 81.5,-136.58 74.5,-136.58"/>
</a>
</g>
</g>
</g>
</svg>
