<?xml version="1.0" encoding="UTF-8" standalone="no"?>
<!DOCTYPE svg PUBLIC "-//W3C//DTD SVG 1.1//EN"
 "http://www.w3.org/Graphics/SVG/1.1/DTD/svg11.dtd">
<!-- Generated by graphviz version 12.1.2 (20240928.0832)
 -->
<!-- Title: PA1A.Items.IStackContainer Pages: 1 -->
<svg width="373pt" height="676pt"
 viewBox="0.00 0.00 373.00 676.00" xmlns="http://www.w3.org/2000/svg" xmlns:xlink="http://www.w3.org/1999/xlink">
<g id="graph0" class="graph" transform="scale(1 1) rotate(0) translate(4 672)">
<title>PA1A.Items.IStackContainer</title>
<!-- Node1 -->
<g id="Node000001" class="node">
<title>Node1</title>
<g id="a_Node000001"><a xlink:title=" ">
<polygon fill="#999999" stroke="none" points="304,-668 168,-668 168,-552 304,-552 304,-668"/>
<text text-anchor="start" x="173" y="-654.5" font-family="Helvetica,sans-Serif" font-size="10.00">PA1A.Items.IStackContainer</text>
<text text-anchor="start" x="234.5" y="-638.5" font-family="Helvetica,sans-Serif" font-size="10.00"> </text>
<text text-anchor="start" x="186" y="-622.5" font-family="Helvetica,sans-Serif" font-size="10.00">+</text>
<text text-anchor="start" x="210" y="-622.5" font-family="Helvetica,sans-Serif" font-size="10.00">Give()</text>
<text text-anchor="start" x="186" y="-606.5" font-family="Helvetica,sans-Serif" font-size="10.00">+</text>
<text text-anchor="start" x="210" y="-606.5" font-family="Helvetica,sans-Serif" font-size="10.00">Take()</text>
<text text-anchor="start" x="186" y="-590.5" font-family="Helvetica,sans-Serif" font-size="10.00">+</text>
<text text-anchor="start" x="210" y="-590.5" font-family="Helvetica,sans-Serif" font-size="10.00">CanBeGiven()</text>
<text text-anchor="start" x="186" y="-574.5" font-family="Helvetica,sans-Serif" font-size="10.00">+</text>
<text text-anchor="start" x="210" y="-574.5" font-family="Helvetica,sans-Serif" font-size="10.00">CanBeTaken()</text>
<text text-anchor="start" x="186" y="-558.5" font-family="Helvetica,sans-Serif" font-size="10.00">+</text>
<text text-anchor="start" x="210" y="-558.5" font-family="Helvetica,sans-Serif" font-size="10.00">Clear()</text>
<polygon fill="#666666" stroke="#666666" points="168,-650 168,-650 304,-650 304,-650 168,-650"/>
<polygon fill="#666666" stroke="#666666" points="168,-634 168,-634 304,-634 304,-634 168,-634"/>
<polygon fill="none" stroke="#666666" points="168,-552 168,-668 304,-668 304,-552 168,-552"/>
</a>
</g>
</g>
<!-- Node2 -->
<g id="Node000002" class="node">
<title>Node2</title>
<g id="a_Node000002"><a xlink:href="interface_p_a1_a_1_1_items_1_1_i_container.html" target="_top" xlink:title=" ">
<polygon fill="white" stroke="none" points="236.5,-516 87.5,-516 87.5,-432 236.5,-432 236.5,-516"/>
<text text-anchor="start" x="111.75" y="-502.5" font-family="Helvetica,sans-Serif" font-size="10.00">PA1A.Items.IContainer</text>
<text text-anchor="start" x="91.5" y="-486.5" font-family="Helvetica,sans-Serif" font-size="10.00">+</text>
<text text-anchor="start" x="101.5" y="-486.5" font-family="Helvetica,sans-Serif" font-size="10.00">Size</text>
<text text-anchor="start" x="91.5" y="-470.5" font-family="Helvetica,sans-Serif" font-size="10.00">+</text>
<text text-anchor="start" x="101.5" y="-470.5" font-family="Helvetica,sans-Serif" font-size="10.00">this[int i]</text>
<text text-anchor="start" x="91.5" y="-454.5" font-family="Helvetica,sans-Serif" font-size="10.00">+</text>
<text text-anchor="start" x="101.5" y="-454.5" font-family="Helvetica,sans-Serif" font-size="10.00">GetSlot()</text>
<text text-anchor="start" x="91.5" y="-438.5" font-family="Helvetica,sans-Serif" font-size="10.00">+</text>
<text text-anchor="start" x="101.5" y="-438.5" font-family="Helvetica,sans-Serif" font-size="10.00">OnContainerUpdateDelegate()</text>
<polygon fill="#666666" stroke="#666666" points="87.5,-498 87.5,-498 236.5,-498 236.5,-498 87.5,-498"/>
<polygon fill="#666666" stroke="#666666" points="87.5,-466 87.5,-466 99.5,-466 99.5,-466 87.5,-466"/>
<polygon fill="#666666" stroke="#666666" points="99.5,-466 99.5,-466 236.5,-466 236.5,-466 99.5,-466"/>
<polygon fill="none" stroke="#666666" points="87.5,-432 87.5,-516 236.5,-516 236.5,-432 87.5,-432"/>
</a>
</g>
</g>
<!-- Node1&#45;&gt;Node2 -->
<g id="edge1_Node000001_Node000002" class="edge">
<title>Node1&#45;&gt;Node2</title>
<g id="a_edge1_Node000001_Node000002"><a xlink:title=" ">
<path fill="none" stroke="#63b8ff" d="M199.18,-542.33C194.15,-533.22 189.12,-524.11 184.46,-515.66"/>
<polygon fill="none" stroke="#63b8ff" points="195.99,-543.79 203.89,-550.85 202.12,-540.4 195.99,-543.79"/>
</a>
</g>
</g>
<!-- Node6 -->
<g id="Node000006" class="node">
<title>Node6</title>
<g id="a_Node000006"><a xlink:href="interface_p_a1_a_1_1_items_1_1_i_slot.html" target="_top" xlink:title="Represents a ISlot that contains a single Sacados.ItemStack">
<polygon fill="white" stroke="none" points="365,-516 255,-516 255,-432 365,-432 365,-516"/>
<text text-anchor="start" x="272.12" y="-502.5" font-family="Helvetica,sans-Serif" font-size="10.00">PA1A.Items.ISlot</text>
<text text-anchor="start" x="259" y="-486.5" font-family="Helvetica,sans-Serif" font-size="10.00">+</text>
<text text-anchor="start" x="269" y="-486.5" font-family="Helvetica,sans-Serif" font-size="10.00">Index</text>
<text text-anchor="start" x="259" y="-470.5" font-family="Helvetica,sans-Serif" font-size="10.00">+</text>
<text text-anchor="start" x="269" y="-470.5" font-family="Helvetica,sans-Serif" font-size="10.00">ItemStack</text>
<text text-anchor="start" x="259" y="-454.5" font-family="Helvetica,sans-Serif" font-size="10.00">+</text>
<text text-anchor="start" x="269" y="-454.5" font-family="Helvetica,sans-Serif" font-size="10.00">GetMaximumSpace()</text>
<text text-anchor="start" x="259" y="-438.5" font-family="Helvetica,sans-Serif" font-size="10.00">+</text>
<text text-anchor="start" x="269" y="-438.5" font-family="Helvetica,sans-Serif" font-size="10.00">Synchronize()</text>
<polygon fill="#666666" stroke="#666666" points="255,-498 255,-498 365,-498 365,-498 255,-498"/>
<polygon fill="#666666" stroke="#666666" points="255,-466 255,-466 267,-466 267,-466 255,-466"/>
<polygon fill="#666666" stroke="#666666" points="267,-466 267,-466 365,-466 365,-466 267,-466"/>
<polygon fill="none" stroke="#666666" points="255,-432 255,-516 365,-516 365,-432 255,-432"/>
</a>
</g>
</g>
<!-- Node1&#45;&gt;Node6 -->
<g id="edge5_Node000001_Node000006" class="edge">
<title>Node1&#45;&gt;Node6</title>
<g id="a_edge5_Node000001_Node000006"><a xlink:title=" ">
<path fill="none" stroke="#63b8ff" d="M272.82,-542.33C277.85,-533.22 282.88,-524.11 287.54,-515.66"/>
<polygon fill="none" stroke="#63b8ff" points="269.88,-540.4 268.11,-550.85 276.01,-543.79 269.88,-540.4"/>
</a>
</g>
</g>
<!-- Node3 -->
<g id="Node000003" class="node">
<title>Node3</title>
<g id="a_Node000003"><a xlink:href="class_p_a1_a_1_1_items_1_1_container.html" target="_top" xlink:title=" ">
<polygon fill="white" stroke="none" points="219,-396 105,-396 105,-136 219,-136 219,-396"/>
<text text-anchor="start" x="113.25" y="-382.5" font-family="Helvetica,sans-Serif" font-size="10.00">PA1A.Items.Container</text>
<text text-anchor="start" x="109" y="-366.5" font-family="Helvetica,sans-Serif" font-size="10.00">+</text>
<text text-anchor="start" x="119" y="-366.5" font-family="Helvetica,sans-Serif" font-size="10.00">Size</text>
<text text-anchor="start" x="109" y="-350.5" font-family="Helvetica,sans-Serif" font-size="10.00">+</text>
<text text-anchor="start" x="119" y="-350.5" font-family="Helvetica,sans-Serif" font-size="10.00">this[int i]</text>
<text text-anchor="start" x="109" y="-334.5" font-family="Helvetica,sans-Serif" font-size="10.00">+</text>
<text text-anchor="start" x="119" y="-334.5" font-family="Helvetica,sans-Serif" font-size="10.00">GetSlot()</text>
<text text-anchor="start" x="109" y="-318.5" font-family="Helvetica,sans-Serif" font-size="10.00">+</text>
<text text-anchor="start" x="119" y="-318.5" font-family="Helvetica,sans-Serif" font-size="10.00">OnNetworkSpawn()</text>
<text text-anchor="start" x="109" y="-302.5" font-family="Helvetica,sans-Serif" font-size="10.00">+</text>
<text text-anchor="start" x="119" y="-302.5" font-family="Helvetica,sans-Serif" font-size="10.00">OnNetworkDespawn()</text>
<text text-anchor="start" x="109" y="-286.5" font-family="Helvetica,sans-Serif" font-size="10.00">+</text>
<text text-anchor="start" x="119" y="-286.5" font-family="Helvetica,sans-Serif" font-size="10.00">Give()</text>
<text text-anchor="start" x="109" y="-270.5" font-family="Helvetica,sans-Serif" font-size="10.00">+</text>
<text text-anchor="start" x="119" y="-270.5" font-family="Helvetica,sans-Serif" font-size="10.00">Take()</text>
<text text-anchor="start" x="109" y="-254.5" font-family="Helvetica,sans-Serif" font-size="10.00">+</text>
<text text-anchor="start" x="119" y="-254.5" font-family="Helvetica,sans-Serif" font-size="10.00">CanBeGiven()</text>
<text text-anchor="start" x="109" y="-238.5" font-family="Helvetica,sans-Serif" font-size="10.00">+</text>
<text text-anchor="start" x="119" y="-238.5" font-family="Helvetica,sans-Serif" font-size="10.00">CanBeTaken()</text>
<text text-anchor="start" x="109" y="-222.5" font-family="Helvetica,sans-Serif" font-size="10.00">+</text>
<text text-anchor="start" x="119" y="-222.5" font-family="Helvetica,sans-Serif" font-size="10.00">Clear()</text>
<text text-anchor="start" x="109.38" y="-206.5" font-family="Helvetica,sans-Serif" font-size="10.00">#</text>
<text text-anchor="start" x="119" y="-206.5" font-family="Helvetica,sans-Serif" font-size="10.00">Awake()</text>
<text text-anchor="start" x="109.38" y="-190.5" font-family="Helvetica,sans-Serif" font-size="10.00">#</text>
<text text-anchor="start" x="119" y="-190.5" font-family="Helvetica,sans-Serif" font-size="10.00">OnContainerUpdate()</text>
<text text-anchor="start" x="109.38" y="-174.5" font-family="Helvetica,sans-Serif" font-size="10.00">#</text>
<text text-anchor="start" x="119" y="-174.5" font-family="Helvetica,sans-Serif" font-size="10.00">AddSlot()</text>
<text text-anchor="start" x="109.38" y="-158.5" font-family="Helvetica,sans-Serif" font-size="10.00">#</text>
<text text-anchor="start" x="119" y="-158.5" font-family="Helvetica,sans-Serif" font-size="10.00">RemoveSlot()</text>
<text text-anchor="start" x="109.38" y="-142.5" font-family="Helvetica,sans-Serif" font-size="10.00">#</text>
<text text-anchor="start" x="119" y="-142.5" font-family="Helvetica,sans-Serif" font-size="10.00">ClearSlots()</text>
<polygon fill="#666666" stroke="#666666" points="105,-378 105,-378 219,-378 219,-378 105,-378"/>
<polygon fill="#666666" stroke="#666666" points="105,-346 105,-346 117,-346 117,-346 105,-346"/>
<polygon fill="#666666" stroke="#666666" points="117,-346 117,-346 219,-346 219,-346 117,-346"/>
<polygon fill="none" stroke="#666666" points="105,-136 105,-396 219,-396 219,-136 105,-136"/>
</a>
</g>
</g>
<!-- Node2&#45;&gt;Node3 -->
<g id="edge2_Node000002_Node000003" class="edge">
<title>Node2&#45;&gt;Node3</title>
<g id="a_edge2_Node000002_Node000003"><a xlink:title=" ">
<path fill="none" stroke="#63b8ff" d="M162,-420.99C162,-412.98 162,-404.42 162,-395.59"/>
<polygon fill="none" stroke="#63b8ff" points="158.5,-420.79 162,-430.79 165.5,-420.79 158.5,-420.79"/>
</a>
</g>
</g>
<!-- Node4 -->
<g id="Node000004" class="node">
<title>Node4</title>
<g id="a_Node000004"><a xlink:href="class_p_a1_a_1_1_items_1_1_flexible_size_container.html" target="_top" xlink:title=" ">
<polygon fill="white" stroke="none" points="160,-100 0,-100 0,0 160,0 160,-100"/>
<text text-anchor="start" x="4.62" y="-86.5" font-family="Helvetica,sans-Serif" font-size="10.00">PA1A.Items.FlexibleSizeContainer</text>
<text text-anchor="start" x="78.5" y="-70.5" font-family="Helvetica,sans-Serif" font-size="10.00"> </text>
<text text-anchor="start" x="16.5" y="-54.5" font-family="Helvetica,sans-Serif" font-size="10.00">+</text>
<text text-anchor="start" x="39" y="-54.5" font-family="Helvetica,sans-Serif" font-size="10.00">Give()</text>
<text text-anchor="start" x="16.5" y="-38.5" font-family="Helvetica,sans-Serif" font-size="10.00">+</text>
<text text-anchor="start" x="39" y="-38.5" font-family="Helvetica,sans-Serif" font-size="10.00">Take()</text>
<text text-anchor="start" x="16.5" y="-22.5" font-family="Helvetica,sans-Serif" font-size="10.00">+</text>
<text text-anchor="start" x="39" y="-22.5" font-family="Helvetica,sans-Serif" font-size="10.00">Clear()</text>
<text text-anchor="start" x="16.88" y="-6.5" font-family="Helvetica,sans-Serif" font-size="10.00">#</text>
<text text-anchor="start" x="39" y="-6.5" font-family="Helvetica,sans-Serif" font-size="10.00">OnContainerUpdate()</text>
<polygon fill="#666666" stroke="#666666" points="0,-82 0,-82 160,-82 160,-82 0,-82"/>
<polygon fill="#666666" stroke="#666666" points="0,-66 0,-66 160,-66 160,-66 0,-66"/>
<polygon fill="none" stroke="#666666" points="0,0 0,-100 160,-100 160,0 0,0"/>
</a>
</g>
</g>
<!-- Node3&#45;&gt;Node4 -->
<g id="edge3_Node000003_Node000004" class="edge">
<title>Node3&#45;&gt;Node4</title>
<g id="a_edge3_Node000003_Node000004"><a xlink:title=" ">
<path fill="none" stroke="#63b8ff" d="M108.63,-125.71C105.11,-116.54 101.73,-107.72 98.6,-99.55"/>
<polygon fill="none" stroke="#63b8ff" points="105.26,-126.69 112.1,-134.78 111.79,-124.19 105.26,-126.69"/>
</a>
</g>
</g>
<!-- Node5 -->
<g id="Node000005" class="node">
<title>Node5</title>
<g id="a_Node000005"><a xlink:href="class_p_a1_a_1_1_items_1_1_player_inventory.html" target="_top" xlink:title="Fixed size IContainer with fixed number of ISlot">
<polygon fill="white" stroke="none" points="311.5,-100 178.5,-100 178.5,0 311.5,0 311.5,-100"/>
<text text-anchor="start" x="183.12" y="-86.5" font-family="Helvetica,sans-Serif" font-size="10.00">PA1A.Items.PlayerInventory</text>
<text text-anchor="start" x="243.5" y="-70.5" font-family="Helvetica,sans-Serif" font-size="10.00"> </text>
<text text-anchor="start" x="190" y="-54.5" font-family="Helvetica,sans-Serif" font-size="10.00">+</text>
<text text-anchor="start" x="207.5" y="-54.5" font-family="Helvetica,sans-Serif" font-size="10.00">OnNetworkSpawn()</text>
<text text-anchor="start" x="190" y="-38.5" font-family="Helvetica,sans-Serif" font-size="10.00">+</text>
<text text-anchor="start" x="207.5" y="-38.5" font-family="Helvetica,sans-Serif" font-size="10.00">Give()</text>
<text text-anchor="start" x="190" y="-22.5" font-family="Helvetica,sans-Serif" font-size="10.00">+</text>
<text text-anchor="start" x="207.5" y="-22.5" font-family="Helvetica,sans-Serif" font-size="10.00">Take()</text>
<text text-anchor="start" x="190" y="-6.5" font-family="Helvetica,sans-Serif" font-size="10.00">+</text>
<text text-anchor="start" x="207.5" y="-6.5" font-family="Helvetica,sans-Serif" font-size="10.00">Clear()</text>
<polygon fill="#666666" stroke="#666666" points="178.5,-82 178.5,-82 311.5,-82 311.5,-82 178.5,-82"/>
<polygon fill="#666666" stroke="#666666" points="178.5,-66 178.5,-66 311.5,-66 311.5,-66 178.5,-66"/>
<polygon fill="none" stroke="#666666" points="178.5,0 178.5,-100 311.5,-100 311.5,0 178.5,0"/>
</a>
</g>
</g>
<!-- Node3&#45;&gt;Node5 -->
<g id="edge4_Node000003_Node000005" class="edge">
<title>Node3&#45;&gt;Node5</title>
<g id="a_edge4_Node000003_Node000005"><a xlink:title=" ">
<path fill="none" stroke="#63b8ff" d="M216.02,-125.71C219.58,-116.54 223,-107.72 226.17,-99.55"/>
<polygon fill="none" stroke="#63b8ff" points="212.86,-124.19 212.51,-134.78 219.38,-126.72 212.86,-124.19"/>
</a>
</g>
</g>
<!-- Node7 -->
<g id="Node000007" class="node">
<title>Node7</title>
<g id="a_Node000007"><a xlink:href="class_p_a1_a_1_1_items_1_1_slot.html" target="_top" xlink:title="Basic implementation of ISlot">
<polygon fill="white" stroke="none" points="365,-356 255,-356 255,-176 365,-176 365,-356"/>
<text text-anchor="start" x="273.62" y="-342.5" font-family="Helvetica,sans-Serif" font-size="10.00">PA1A.Items.Slot</text>
<text text-anchor="start" x="259" y="-326.5" font-family="Helvetica,sans-Serif" font-size="10.00">+</text>
<text text-anchor="start" x="269" y="-326.5" font-family="Helvetica,sans-Serif" font-size="10.00">Index</text>
<text text-anchor="start" x="259" y="-310.5" font-family="Helvetica,sans-Serif" font-size="10.00">+</text>
<text text-anchor="start" x="269" y="-310.5" font-family="Helvetica,sans-Serif" font-size="10.00">ItemStack</text>
<text text-anchor="start" x="259" y="-294.5" font-family="Helvetica,sans-Serif" font-size="10.00">+</text>
<text text-anchor="start" x="269" y="-294.5" font-family="Helvetica,sans-Serif" font-size="10.00">Slot()</text>
<text text-anchor="start" x="259" y="-278.5" font-family="Helvetica,sans-Serif" font-size="10.00">+</text>
<text text-anchor="start" x="269" y="-278.5" font-family="Helvetica,sans-Serif" font-size="10.00">GetMaximumSpace()</text>
<text text-anchor="start" x="259" y="-262.5" font-family="Helvetica,sans-Serif" font-size="10.00">+</text>
<text text-anchor="start" x="269" y="-262.5" font-family="Helvetica,sans-Serif" font-size="10.00">CanBeGiven()</text>
<text text-anchor="start" x="259" y="-246.5" font-family="Helvetica,sans-Serif" font-size="10.00">+</text>
<text text-anchor="start" x="269" y="-246.5" font-family="Helvetica,sans-Serif" font-size="10.00">CanBeTaken()</text>
<text text-anchor="start" x="259" y="-230.5" font-family="Helvetica,sans-Serif" font-size="10.00">+</text>
<text text-anchor="start" x="269" y="-230.5" font-family="Helvetica,sans-Serif" font-size="10.00">Give()</text>
<text text-anchor="start" x="259" y="-214.5" font-family="Helvetica,sans-Serif" font-size="10.00">+</text>
<text text-anchor="start" x="269" y="-214.5" font-family="Helvetica,sans-Serif" font-size="10.00">Take()</text>
<text text-anchor="start" x="259" y="-198.5" font-family="Helvetica,sans-Serif" font-size="10.00">+</text>
<text text-anchor="start" x="269" y="-198.5" font-family="Helvetica,sans-Serif" font-size="10.00">Clear()</text>
<text text-anchor="start" x="259" y="-182.5" font-family="Helvetica,sans-Serif" font-size="10.00">+</text>
<text text-anchor="start" x="269" y="-182.5" font-family="Helvetica,sans-Serif" font-size="10.00">Synchronize()</text>
<polygon fill="#666666" stroke="#666666" points="255,-338 255,-338 365,-338 365,-338 255,-338"/>
<polygon fill="#666666" stroke="#666666" points="255,-306 255,-306 267,-306 267,-306 255,-306"/>
<polygon fill="#666666" stroke="#666666" points="267,-306 267,-306 365,-306 365,-306 267,-306"/>
<polygon fill="none" stroke="#666666" points="255,-176 255,-356 365,-356 365,-176 255,-176"/>
</a>
</g>
</g>
<!-- Node6&#45;&gt;Node7 -->
<g id="edge6_Node000006_Node000007" class="edge">
<title>Node6&#45;&gt;Node7</title>
<g id="a_edge6_Node000006_Node000007"><a xlink:title=" ">
<path fill="none" stroke="#63b8ff" d="M310,-421.05C310,-401.23 310,-378.04 310,-355.75"/>
<polygon fill="none" stroke="#63b8ff" points="306.5,-420.79 310,-430.79 313.5,-420.79 306.5,-420.79"/>
</a>
</g>
</g>
</g>
</svg>
