<?xml version="1.0" encoding="UTF-8" standalone="no"?>
<!DOCTYPE svg PUBLIC "-//W3C//DTD SVG 1.1//EN"
 "http://www.w3.org/Graphics/SVG/1.1/DTD/svg11.dtd">
<!-- Generated by graphviz version 12.1.2 (20240928.0832)
 -->
<!-- Title: CodeSmile.MultiPal.Input.GeneratedInput.IUIActions.OnScrollWheel Pages: 1 -->
<svg width="664pt" height="40pt"
 viewBox="0.00 0.00 664.25 40.00" xmlns="http://www.w3.org/2000/svg" xmlns:xlink="http://www.w3.org/1999/xlink">
<g id="graph0" class="graph" transform="scale(1 1) rotate(0) translate(4 36)">
<title>CodeSmile.MultiPal.Input.GeneratedInput.IUIActions.OnScrollWheel</title>
<!-- Node1 -->
<g id="Node000001" class="node">
<title>Node1</title>
<g id="a_Node000001"><a xlink:title=" ">
<polygon fill="#999999" stroke="#666666" points="656.25,-32 455.75,-32 455.75,0 656.25,0 656.25,-32"/>
<text text-anchor="start" x="463.75" y="-18.5" font-family="Helvetica,sans-Serif" font-size="10.00">CodeSmile.MultiPal.Input.</text>
<text text-anchor="middle" x="556" y="-6.5" font-family="Helvetica,sans-Serif" font-size="10.00">GeneratedInput.IUIActions.OnScrollWheel</text>
</a>
</g>
</g>
<!-- Node2 -->
<g id="Node000002" class="node">
<title>Node2</title>
<g id="a_Node000002"><a xlink:href="struct_code_smile_1_1_multi_pal_1_1_input_1_1_generated_input_1_1_u_i_actions.html#a38490ef5020d53210b430c7a12436ece" target="_top" xlink:title=" ">
<polygon fill="white" stroke="#666666" points="419.75,-32 226.75,-32 226.75,0 419.75,0 419.75,-32"/>
<text text-anchor="start" x="234.75" y="-18.5" font-family="Helvetica,sans-Serif" font-size="10.00">CodeSmile.MultiPal.Input.</text>
<text text-anchor="middle" x="323.25" y="-6.5" font-family="Helvetica,sans-Serif" font-size="10.00">GeneratedInput.UIActions.AddCallbacks</text>
</a>
</g>
</g>
<!-- Node1&#45;&gt;Node2 -->
<g id="edge1_Node000001_Node000002" class="edge">
<title>Node1&#45;&gt;Node2</title>
<g id="a_edge1_Node000001_Node000002"><a xlink:title=" ">
<path fill="none" stroke="#63b8ff" d="M444.16,-16C436.14,-16 428.09,-16 420.17,-16"/>
<polygon fill="#63b8ff" stroke="#63b8ff" points="443.95,-19.5 453.95,-16 443.95,-12.5 443.95,-19.5"/>
</a>
</g>
</g>
<!-- Node3 -->
<g id="Node000003" class="node">
<title>Node3</title>
<g id="a_Node000003"><a xlink:href="struct_code_smile_1_1_multi_pal_1_1_input_1_1_generated_input_1_1_u_i_actions.html#a074f587b2249469e56b6eca2f54329c8" target="_top" xlink:title=" ">
<polygon fill="white" stroke="#666666" points="190.75,-32 0,-32 0,0 190.75,0 190.75,-32"/>
<text text-anchor="start" x="8" y="-18.5" font-family="Helvetica,sans-Serif" font-size="10.00">CodeSmile.MultiPal.Input.</text>
<text text-anchor="middle" x="95.38" y="-6.5" font-family="Helvetica,sans-Serif" font-size="10.00">GeneratedInput.UIActions.SetCallbacks</text>
</a>
</g>
</g>
<!-- Node2&#45;&gt;Node3 -->
<g id="edge2_Node000002_Node000003" class="edge">
<title>Node2&#45;&gt;Node3</title>
<g id="a_edge2_Node000002_Node000003"><a xlink:title=" ">
<path fill="none" stroke="#63b8ff" d="M215.19,-16C207.19,-16 199.15,-16 191.23,-16"/>
<polygon fill="#63b8ff" stroke="#63b8ff" points="214.95,-19.5 224.95,-16 214.95,-12.5 214.95,-19.5"/>
</a>
</g>
</g>
</g>
</svg>
