<?xml version="1.0" encoding="UTF-8" standalone="no"?>
<!DOCTYPE svg PUBLIC "-//W3C//DTD SVG 1.1//EN"
 "http://www.w3.org/Graphics/SVG/1.1/DTD/svg11.dtd">
<!-- Generated by graphviz version 12.1.2 (20240928.0832)
 -->
<!-- Title: PA1A.Items.UI.IContainerUI Pages: 1 -->
<svg width="172pt" height="420pt"
 viewBox="0.00 0.00 172.00 420.00" xmlns="http://www.w3.org/2000/svg" xmlns:xlink="http://www.w3.org/1999/xlink">

<svg id="main" version="1.1" xmlns="http://www.w3.org/2000/svg" xmlns:xlink="http://www.w3.org/1999/xlink" xml:space="preserve">

<style type="text/css"><![CDATA[
.node, .edge {opacity: 0.7;}
.node.selected, .edge.selected {opacity: 1;}
.edge:hover path { stroke: red; }
.edge:hover polygon { stroke: red; fill: red; }
]]></style>
<script type="application/ecmascript" xlink:href="svg.min.js"/>
<svg id="graph" class="graph">
<g id="graph0" class="graph" transform="scale(1 1) rotate(0) translate(4 416)">
<title>PA1A.Items.UI.IContainerUI</title>
<!-- Node1 -->
<g id="Node000001" class="node">
<title>Node1</title>
<g id="a_Node000001"><a xlink:title="Represents a IContainerUI that will handle the display of an IContainer">
<polygon fill="#999999" stroke="none" points="149,-412 15,-412 15,-328 149,-328 149,-412"/>
<text text-anchor="start" x="19.75" y="-398.5" font-family="Helvetica,sans-Serif" font-size="10.00">PA1A.Items.UI.IContainerUI</text>
<text text-anchor="start" x="38" y="-382.5" font-family="Helvetica,sans-Serif" font-size="10.00">+</text>
<text text-anchor="start" x="67" y="-382.5" font-family="Helvetica,sans-Serif" font-size="10.00">IsBuilt</text>
<text text-anchor="start" x="38" y="-366.5" font-family="Helvetica,sans-Serif" font-size="10.00">+</text>
<text text-anchor="start" x="67" y="-366.5" font-family="Helvetica,sans-Serif" font-size="10.00">Build()</text>
<text text-anchor="start" x="38" y="-350.5" font-family="Helvetica,sans-Serif" font-size="10.00">+</text>
<text text-anchor="start" x="67" y="-350.5" font-family="Helvetica,sans-Serif" font-size="10.00">Unbuild()</text>
<text text-anchor="start" x="38" y="-334.5" font-family="Helvetica,sans-Serif" font-size="10.00">+</text>
<text text-anchor="start" x="67" y="-334.5" font-family="Helvetica,sans-Serif" font-size="10.00">Toggle()</text>
<polygon fill="#666666" stroke="#666666" points="15,-394 15,-394 149,-394 149,-394 15,-394"/>
<polygon fill="#666666" stroke="#666666" points="15,-378 15,-378 65,-378 65,-378 15,-378"/>
<polygon fill="#666666" stroke="#666666" points="65,-378 65,-378 149,-378 149,-378 65,-378"/>
<polygon fill="none" stroke="#666666" points="15,-328 15,-412 149,-412 149,-328 15,-328"/>
</a>
</g>
</g>
<!-- Node2 -->
<g id="Node000002" class="node">
<title>Node2</title>
<g id="a_Node000002"><a xlink:href="class_p_a1_a_1_1_items_1_1_u_i_1_1_classic_container_u_i.html" target="_top" xlink:title="Classic implementation of IContainerUI &#160;(Supports fixed and flexible sized containers)">
<polygon fill="white" stroke="none" points="164,-292 0,-292 0,0 164,0 164,-292"/>
<text text-anchor="start" x="4.75" y="-278.5" font-family="Helvetica,sans-Serif" font-size="10.00">PA1A.Items.UI.ClassicContainerUI</text>
<text text-anchor="start" x="10.5" y="-262.5" font-family="Helvetica,sans-Serif" font-size="10.00">+</text>
<text text-anchor="start" x="27" y="-262.5" font-family="Helvetica,sans-Serif" font-size="10.00">SlotsParent</text>
<text text-anchor="start" x="10.5" y="-246.5" font-family="Helvetica,sans-Serif" font-size="10.00">+</text>
<text text-anchor="start" x="27" y="-246.5" font-family="Helvetica,sans-Serif" font-size="10.00">SlotUIPrefab</text>
<text text-anchor="start" x="10.5" y="-230.5" font-family="Helvetica,sans-Serif" font-size="10.00">+</text>
<text text-anchor="start" x="27" y="-230.5" font-family="Helvetica,sans-Serif" font-size="10.00">Container</text>
<text text-anchor="start" x="10.5" y="-214.5" font-family="Helvetica,sans-Serif" font-size="10.00">+</text>
<text text-anchor="start" x="27" y="-214.5" font-family="Helvetica,sans-Serif" font-size="10.00">Slots</text>
<text text-anchor="start" x="10.5" y="-198.5" font-family="Helvetica,sans-Serif" font-size="10.00">+</text>
<text text-anchor="start" x="27" y="-198.5" font-family="Helvetica,sans-Serif" font-size="10.00">IsBuilt</text>
<text text-anchor="start" x="10.5" y="-182.5" font-family="Helvetica,sans-Serif" font-size="10.00">+</text>
<text text-anchor="start" x="27" y="-182.5" font-family="Helvetica,sans-Serif" font-size="10.00">Build()</text>
<text text-anchor="start" x="10.5" y="-166.5" font-family="Helvetica,sans-Serif" font-size="10.00">+</text>
<text text-anchor="start" x="27" y="-166.5" font-family="Helvetica,sans-Serif" font-size="10.00">Unbuild()</text>
<text text-anchor="start" x="10.5" y="-150.5" font-family="Helvetica,sans-Serif" font-size="10.00">+</text>
<text text-anchor="start" x="27" y="-150.5" font-family="Helvetica,sans-Serif" font-size="10.00">Toggle()</text>
<text text-anchor="start" x="10.88" y="-134.5" font-family="Helvetica,sans-Serif" font-size="10.00">#</text>
<text text-anchor="start" x="27" y="-134.5" font-family="Helvetica,sans-Serif" font-size="10.00">OnEnable()</text>
<text text-anchor="start" x="10.88" y="-118.5" font-family="Helvetica,sans-Serif" font-size="10.00">#</text>
<text text-anchor="start" x="27" y="-118.5" font-family="Helvetica,sans-Serif" font-size="10.00">AwaitPlayerInventoryLoad()</text>
<text text-anchor="start" x="10.88" y="-102.5" font-family="Helvetica,sans-Serif" font-size="10.00">#</text>
<text text-anchor="start" x="27" y="-102.5" font-family="Helvetica,sans-Serif" font-size="10.00">OnDestroy()</text>
<text text-anchor="start" x="10.88" y="-86.5" font-family="Helvetica,sans-Serif" font-size="10.00">#</text>
<text text-anchor="start" x="27" y="-86.5" font-family="Helvetica,sans-Serif" font-size="10.00">OnContainerStarted()</text>
<text text-anchor="start" x="10.88" y="-70.5" font-family="Helvetica,sans-Serif" font-size="10.00">#</text>
<text text-anchor="start" x="27" y="-70.5" font-family="Helvetica,sans-Serif" font-size="10.00">OnContainerStopped()</text>
<text text-anchor="start" x="10.88" y="-54.5" font-family="Helvetica,sans-Serif" font-size="10.00">#</text>
<text text-anchor="start" x="27" y="-54.5" font-family="Helvetica,sans-Serif" font-size="10.00">BuildSlots()</text>
<text text-anchor="start" x="10.88" y="-38.5" font-family="Helvetica,sans-Serif" font-size="10.00">#</text>
<text text-anchor="start" x="27" y="-38.5" font-family="Helvetica,sans-Serif" font-size="10.00">UnbuildSlots()</text>
<text text-anchor="start" x="10.88" y="-22.5" font-family="Helvetica,sans-Serif" font-size="10.00">#</text>
<text text-anchor="start" x="27" y="-22.5" font-family="Helvetica,sans-Serif" font-size="10.00">CreateSlot()</text>
<text text-anchor="start" x="10.88" y="-6.5" font-family="Helvetica,sans-Serif" font-size="10.00">#</text>
<text text-anchor="start" x="27" y="-6.5" font-family="Helvetica,sans-Serif" font-size="10.00">RemoveSlot()</text>
<polygon fill="#666666" stroke="#666666" points="0,-274 0,-274 164,-274 164,-274 0,-274"/>
<polygon fill="#666666" stroke="#666666" points="0,-194 0,-194 25,-194 25,-194 0,-194"/>
<polygon fill="#666666" stroke="#666666" points="25,-194 25,-194 164,-194 164,-194 25,-194"/>
<polygon fill="none" stroke="#666666" points="0,0 0,-292 164,-292 164,0 0,0"/>
</a>
</g>
</g>
<!-- Node1&#45;&gt;Node2 -->
<g id="edge1_Node000001_Node000002" class="edge">
<title>Node1&#45;&gt;Node2</title>
<g id="a_edge1_Node000001_Node000002"><a xlink:title=" ">
<path fill="none" stroke="#63b8ff" d="M82,-316.55C82,-308.7 82,-300.3 82,-291.59"/>
<polygon fill="none" stroke="#63b8ff" points="78.5,-316.51 82,-326.51 85.5,-316.51 78.5,-316.51"/>
</a>
</g>
</g>
</g>
</svg>
</svg>

<style type='text/css'>
<![CDATA[
[data-mouse-over-selected='false'] { opacity: 0.7; }
[data-mouse-over-selected='true']  { opacity: 1.0; }
]]>
</style>
<script type="application/ecmascript"><![CDATA[
document.addEventListener('DOMContentLoaded', (event) => {
  highlightEdges();
  highlightAdjacentNodes();
});
]]></script>
</svg>
