<?xml version="1.0" encoding="UTF-8" standalone="no"?>
<!DOCTYPE svg PUBLIC "-//W3C//DTD SVG 1.1//EN"
 "http://www.w3.org/Graphics/SVG/1.1/DTD/svg11.dtd">
<!-- Generated by graphviz version 12.1.2 (20240928.0832)
 -->
<!-- Title: CodeSmile.MultiPal.Input.GeneratedInput.IUIActions.OnTrackedDeviceOrientation Pages: 1 -->
<svg width="647pt" height="52pt"
 viewBox="0.00 0.00 647.00 52.00" xmlns="http://www.w3.org/2000/svg" xmlns:xlink="http://www.w3.org/1999/xlink">
<g id="graph0" class="graph" transform="scale(1 1) rotate(0) translate(4 48)">
<title>CodeSmile.MultiPal.Input.GeneratedInput.IUIActions.OnTrackedDeviceOrientation</title>
<!-- Node1 -->
<g id="Node000001" class="node">
<title>Node1</title>
<g id="a_Node000001"><a xlink:title=" ">
<polygon fill="#999999" stroke="#666666" points="639,-44 455.75,-44 455.75,0 639,0 639,-44"/>
<text text-anchor="start" x="463.75" y="-30.5" font-family="Helvetica,sans-Serif" font-size="10.00">CodeSmile.MultiPal.Input.</text>
<text text-anchor="start" x="463.75" y="-18.5" font-family="Helvetica,sans-Serif" font-size="10.00">GeneratedInput.IUIActions.OnTracked</text>
<text text-anchor="middle" x="547.38" y="-6.5" font-family="Helvetica,sans-Serif" font-size="10.00">DeviceOrientation</text>
</a>
</g>
</g>
<!-- Node2 -->
<g id="Node000002" class="node">
<title>Node2</title>
<g id="a_Node000002"><a xlink:href="struct_code_smile_1_1_multi_pal_1_1_input_1_1_generated_input_1_1_u_i_actions.html#a38490ef5020d53210b430c7a12436ece" target="_top" xlink:title=" ">
<polygon fill="white" stroke="#666666" points="419.75,-38 226.75,-38 226.75,-6 419.75,-6 419.75,-38"/>
<text text-anchor="start" x="234.75" y="-24.5" font-family="Helvetica,sans-Serif" font-size="10.00">CodeSmile.MultiPal.Input.</text>
<text text-anchor="middle" x="323.25" y="-12.5" font-family="Helvetica,sans-Serif" font-size="10.00">GeneratedInput.UIActions.AddCallbacks</text>
</a>
</g>
</g>
<!-- Node1&#45;&gt;Node2 -->
<g id="edge1_Node000001_Node000002" class="edge">
<title>Node1&#45;&gt;Node2</title>
<g id="a_edge1_Node000001_Node000002"><a xlink:title=" ">
<path fill="none" stroke="#63b8ff" d="M444.14,-22C436.15,-22 428.09,-22 420.14,-22"/>
<polygon fill="#63b8ff" stroke="#63b8ff" points="443.87,-25.5 453.87,-22 443.87,-18.5 443.87,-25.5"/>
</a>
</g>
</g>
<!-- Node3 -->
<g id="Node000003" class="node">
<title>Node3</title>
<g id="a_Node000003"><a xlink:href="struct_code_smile_1_1_multi_pal_1_1_input_1_1_generated_input_1_1_u_i_actions.html#a074f587b2249469e56b6eca2f54329c8" target="_top" xlink:title=" ">
<polygon fill="white" stroke="#666666" points="190.75,-38 0,-38 0,-6 190.75,-6 190.75,-38"/>
<text text-anchor="start" x="8" y="-24.5" font-family="Helvetica,sans-Serif" font-size="10.00">CodeSmile.MultiPal.Input.</text>
<text text-anchor="middle" x="95.38" y="-12.5" font-family="Helvetica,sans-Serif" font-size="10.00">GeneratedInput.UIActions.SetCallbacks</text>
</a>
</g>
</g>
<!-- Node2&#45;&gt;Node3 -->
<g id="edge2_Node000002_Node000003" class="edge">
<title>Node2&#45;&gt;Node3</title>
<g id="a_edge2_Node000002_Node000003"><a xlink:title=" ">
<path fill="none" stroke="#63b8ff" d="M215.19,-22C207.19,-22 199.15,-22 191.23,-22"/>
<polygon fill="#63b8ff" stroke="#63b8ff" points="214.95,-25.5 224.95,-22 214.95,-18.5 214.95,-25.5"/>
</a>
</g>
</g>
</g>
</svg>
