<?xml version="1.0" encoding="UTF-8" standalone="no"?>
<!DOCTYPE svg PUBLIC "-//W3C//DTD SVG 1.1//EN"
 "http://www.w3.org/Graphics/SVG/1.1/DTD/svg11.dtd">
<!-- Generated by graphviz version 12.1.2 (20240928.0832)
 -->
<!-- Title: UnityUtils.StateMachine.IState Pages: 1 -->
<svg width="652pt" height="236pt"
 viewBox="0.00 0.00 651.50 236.00" xmlns="http://www.w3.org/2000/svg" xmlns:xlink="http://www.w3.org/1999/xlink">
<g id="graph0" class="graph" transform="scale(1 1) rotate(0) translate(4 232)">
<title>UnityUtils.StateMachine.IState</title>
<!-- Node1 -->
<g id="Node000001" class="node">
<title>Node1</title>
<g id="a_Node000001"><a xlink:title=" ">
<polygon fill="#999999" stroke="none" points="382.5,-228 263.5,-228 263.5,-116 382.5,-116 382.5,-228"/>
<text text-anchor="start" x="268.25" y="-214.5" font-family="Helvetica,sans-Serif" font-size="10.00">UnityUtils.StateMachine.</text>
<text text-anchor="start" x="309.88" y="-202.5" font-family="Helvetica,sans-Serif" font-size="10.00">IState</text>
<text text-anchor="start" x="321.5" y="-186.5" font-family="Helvetica,sans-Serif" font-size="10.00"> </text>
<text text-anchor="start" x="277.5" y="-170.5" font-family="Helvetica,sans-Serif" font-size="10.00">+</text>
<text text-anchor="start" x="297.5" y="-170.5" font-family="Helvetica,sans-Serif" font-size="10.00">Update()</text>
<text text-anchor="start" x="277.5" y="-154.5" font-family="Helvetica,sans-Serif" font-size="10.00">+</text>
<text text-anchor="start" x="297.5" y="-154.5" font-family="Helvetica,sans-Serif" font-size="10.00">FixedUpdate()</text>
<text text-anchor="start" x="277.5" y="-138.5" font-family="Helvetica,sans-Serif" font-size="10.00">+</text>
<text text-anchor="start" x="297.5" y="-138.5" font-family="Helvetica,sans-Serif" font-size="10.00">OnEnter()</text>
<text text-anchor="start" x="277.5" y="-122.5" font-family="Helvetica,sans-Serif" font-size="10.00">+</text>
<text text-anchor="start" x="297.5" y="-122.5" font-family="Helvetica,sans-Serif" font-size="10.00">OnExit()</text>
<polygon fill="#666666" stroke="#666666" points="263.5,-198 263.5,-198 382.5,-198 382.5,-198 263.5,-198"/>
<polygon fill="#666666" stroke="#666666" points="263.5,-182 263.5,-182 382.5,-182 382.5,-182 263.5,-182"/>
<polygon fill="none" stroke="#666666" points="263.5,-116 263.5,-228 382.5,-228 382.5,-116 263.5,-116"/>
</a>
</g>
</g>
<!-- Node2 -->
<g id="Node000002" class="node">
<title>Node2</title>
<g id="a_Node000002"><a xlink:href="class_p_a1_a_1_1_player_1_1_controller_1_1_falling_state.html" target="_top" xlink:title=" ">
<polygon fill="white" stroke="none" points="142,-80 0,-80 0,0 142,0 142,-80"/>
<text text-anchor="start" x="5" y="-66.5" font-family="Helvetica,sans-Serif" font-size="10.00">PA1A.Player.Controller.Falling</text>
<text text-anchor="start" x="59.38" y="-54.5" font-family="Helvetica,sans-Serif" font-size="10.00">State</text>
<text text-anchor="start" x="69.5" y="-38.5" font-family="Helvetica,sans-Serif" font-size="10.00"> </text>
<text text-anchor="start" x="20.5" y="-22.5" font-family="Helvetica,sans-Serif" font-size="10.00">+</text>
<text text-anchor="start" x="47" y="-22.5" font-family="Helvetica,sans-Serif" font-size="10.00">FallingState()</text>
<text text-anchor="start" x="20.5" y="-6.5" font-family="Helvetica,sans-Serif" font-size="10.00">+</text>
<text text-anchor="start" x="47" y="-6.5" font-family="Helvetica,sans-Serif" font-size="10.00">OnEnter()</text>
<polygon fill="#666666" stroke="#666666" points="0,-50 0,-50 142,-50 142,-50 0,-50"/>
<polygon fill="#666666" stroke="#666666" points="0,-34 0,-34 142,-34 142,-34 0,-34"/>
<polygon fill="none" stroke="#666666" points="0,0 0,-80 142,-80 142,0 0,0"/>
</a>
</g>
</g>
<!-- Node1&#45;&gt;Node2 -->
<g id="edge1_Node000001_Node000002" class="edge">
<title>Node1&#45;&gt;Node2</title>
<g id="a_edge1_Node000001_Node000002"><a xlink:title=" ">
<path fill="none" stroke="#63b8ff" d="M253.51,-135.15C218.7,-117.19 176.62,-95.49 141.65,-77.44"/>
<polygon fill="none" stroke="#63b8ff" points="251.76,-138.19 262.25,-139.66 254.97,-131.97 251.76,-138.19"/>
</a>
</g>
</g>
<!-- Node3 -->
<g id="Node000003" class="node">
<title>Node3</title>
<g id="a_Node000003"><a xlink:href="class_p_a1_a_1_1_player_1_1_controller_1_1_grounded_state.html" target="_top" xlink:title=" ">
<polygon fill="white" stroke="none" points="315.5,-80 160.5,-80 160.5,0 315.5,0 315.5,-80"/>
<text text-anchor="start" x="165.25" y="-66.5" font-family="Helvetica,sans-Serif" font-size="10.00">PA1A.Player.Controller.Grounded</text>
<text text-anchor="start" x="226.38" y="-54.5" font-family="Helvetica,sans-Serif" font-size="10.00">State</text>
<text text-anchor="start" x="236.5" y="-38.5" font-family="Helvetica,sans-Serif" font-size="10.00"> </text>
<text text-anchor="start" x="181" y="-22.5" font-family="Helvetica,sans-Serif" font-size="10.00">+</text>
<text text-anchor="start" x="207.5" y="-22.5" font-family="Helvetica,sans-Serif" font-size="10.00">GroundedState()</text>
<text text-anchor="start" x="181" y="-6.5" font-family="Helvetica,sans-Serif" font-size="10.00">+</text>
<text text-anchor="start" x="207.5" y="-6.5" font-family="Helvetica,sans-Serif" font-size="10.00">OnEnter()</text>
<polygon fill="#666666" stroke="#666666" points="160.5,-50 160.5,-50 315.5,-50 315.5,-50 160.5,-50"/>
<polygon fill="#666666" stroke="#666666" points="160.5,-34 160.5,-34 315.5,-34 315.5,-34 160.5,-34"/>
<polygon fill="none" stroke="#666666" points="160.5,0 160.5,-80 315.5,-80 315.5,0 160.5,0"/>
</a>
</g>
</g>
<!-- Node1&#45;&gt;Node3 -->
<g id="edge2_Node000001_Node000003" class="edge">
<title>Node1&#45;&gt;Node3</title>
<g id="a_edge2_Node000001_Node000003"><a xlink:title=" ">
<path fill="none" stroke="#63b8ff" d="M280.98,-106.73C274.99,-97.57 268.98,-88.38 263.44,-79.91"/>
<polygon fill="none" stroke="#63b8ff" points="277.97,-108.52 286.37,-114.98 283.83,-104.69 277.97,-108.52"/>
</a>
</g>
</g>
<!-- Node4 -->
<g id="Node000004" class="node">
<title>Node4</title>
<g id="a_Node000004"><a xlink:href="class_p_a1_a_1_1_player_1_1_controller_1_1_jumping_state.html" target="_top" xlink:title=" ">
<polygon fill="white" stroke="none" points="484,-80 334,-80 334,0 484,0 484,-80"/>
<text text-anchor="start" x="338.88" y="-66.5" font-family="Helvetica,sans-Serif" font-size="10.00">PA1A.Player.Controller.Jumping</text>
<text text-anchor="start" x="397.38" y="-54.5" font-family="Helvetica,sans-Serif" font-size="10.00">State</text>
<text text-anchor="start" x="407.5" y="-38.5" font-family="Helvetica,sans-Serif" font-size="10.00"> </text>
<text text-anchor="start" x="354.5" y="-22.5" font-family="Helvetica,sans-Serif" font-size="10.00">+</text>
<text text-anchor="start" x="381" y="-22.5" font-family="Helvetica,sans-Serif" font-size="10.00">JumpingState()</text>
<text text-anchor="start" x="354.5" y="-6.5" font-family="Helvetica,sans-Serif" font-size="10.00">+</text>
<text text-anchor="start" x="381" y="-6.5" font-family="Helvetica,sans-Serif" font-size="10.00">OnEnter()</text>
<polygon fill="#666666" stroke="#666666" points="334,-50 334,-50 484,-50 484,-50 334,-50"/>
<polygon fill="#666666" stroke="#666666" points="334,-34 334,-34 484,-34 484,-34 334,-34"/>
<polygon fill="none" stroke="#666666" points="334,0 334,-80 484,-80 484,0 334,0"/>
</a>
</g>
</g>
<!-- Node1&#45;&gt;Node4 -->
<g id="edge3_Node000001_Node000004" class="edge">
<title>Node1&#45;&gt;Node4</title>
<g id="a_edge3_Node000001_Node000004"><a xlink:title=" ">
<path fill="none" stroke="#63b8ff" d="M365.52,-106.73C371.58,-97.57 377.66,-88.38 383.26,-79.91"/>
<polygon fill="none" stroke="#63b8ff" points="362.66,-104.71 360.06,-114.98 368.49,-108.57 362.66,-104.71"/>
</a>
</g>
</g>
<!-- Node5 -->
<g id="Node000005" class="node">
<title>Node5</title>
<g id="a_Node000005"><a xlink:href="class_p_a1_a_1_1_player_1_1_controller_1_1_rising_state.html" target="_top" xlink:title=" ">
<polygon fill="white" stroke="none" points="643.5,-80 502.5,-80 502.5,0 643.5,0 643.5,-80"/>
<text text-anchor="start" x="507.38" y="-66.5" font-family="Helvetica,sans-Serif" font-size="10.00">PA1A.Player.Controller.Rising</text>
<text text-anchor="start" x="561.38" y="-54.5" font-family="Helvetica,sans-Serif" font-size="10.00">State</text>
<text text-anchor="start" x="571.5" y="-38.5" font-family="Helvetica,sans-Serif" font-size="10.00"> </text>
<text text-anchor="start" x="523" y="-22.5" font-family="Helvetica,sans-Serif" font-size="10.00">+</text>
<text text-anchor="start" x="549.5" y="-22.5" font-family="Helvetica,sans-Serif" font-size="10.00">RisingState()</text>
<text text-anchor="start" x="523" y="-6.5" font-family="Helvetica,sans-Serif" font-size="10.00">+</text>
<text text-anchor="start" x="549.5" y="-6.5" font-family="Helvetica,sans-Serif" font-size="10.00">OnEnter()</text>
<polygon fill="#666666" stroke="#666666" points="502.5,-50 502.5,-50 643.5,-50 643.5,-50 502.5,-50"/>
<polygon fill="#666666" stroke="#666666" points="502.5,-34 502.5,-34 643.5,-34 643.5,-34 502.5,-34"/>
<polygon fill="none" stroke="#666666" points="502.5,0 502.5,-80 643.5,-80 643.5,0 502.5,0"/>
</a>
</g>
</g>
<!-- Node1&#45;&gt;Node5 -->
<g id="edge4_Node000001_Node000005" class="edge">
<title>Node1&#45;&gt;Node5</title>
<g id="a_edge4_Node000001_Node000005"><a xlink:title=" ">
<path fill="none" stroke="#63b8ff" d="M392.21,-135.01C426.6,-117.13 468.08,-95.56 502.63,-77.59"/>
<polygon fill="none" stroke="#63b8ff" points="390.85,-131.77 383.59,-139.49 394.08,-137.99 390.85,-131.77"/>
</a>
</g>
</g>
</g>
</svg>
