<?xml version="1.0" encoding="UTF-8" standalone="no"?>
<!DOCTYPE svg PUBLIC "-//W3C//DTD SVG 1.1//EN"
 "http://www.w3.org/Graphics/SVG/1.1/DTD/svg11.dtd">
<!-- Generated by graphviz version 12.1.2 (20240928.0832)
 -->
<!-- Title: CodeSmile.MultiPal.Input.GeneratedInput.IPlayerUIActions.OnPrevious Pages: 1 -->
<svg width="563pt" height="52pt"
 viewBox="0.00 0.00 563.00 52.00" xmlns="http://www.w3.org/2000/svg" xmlns:xlink="http://www.w3.org/1999/xlink">
<g id="graph0" class="graph" transform="scale(1 1) rotate(0) translate(4 48)">
<title>CodeSmile.MultiPal.Input.GeneratedInput.IPlayerUIActions.OnPrevious</title>
<!-- Node1 -->
<g id="Node000001" class="node">
<title>Node1</title>
<g id="a_Node000001"><a xlink:title=" ">
<polygon fill="#999999" stroke="#666666" points="555,-44 392,-44 392,0 555,0 555,-44"/>
<text text-anchor="start" x="400" y="-30.5" font-family="Helvetica,sans-Serif" font-size="10.00">CodeSmile.MultiPal.Input.</text>
<text text-anchor="start" x="400" y="-18.5" font-family="Helvetica,sans-Serif" font-size="10.00">GeneratedInput.IPlayerUIActions.</text>
<text text-anchor="middle" x="473.5" y="-6.5" font-family="Helvetica,sans-Serif" font-size="10.00">OnPrevious</text>
</a>
</g>
</g>
<!-- Node2 -->
<g id="Node000002" class="node">
<title>Node2</title>
<g id="a_Node000002"><a xlink:href="struct_code_smile_1_1_multi_pal_1_1_input_1_1_generated_input_1_1_player_u_i_actions.html#a439a4f17dd76d936f969b7491c16b467" target="_top" xlink:title=" ">
<polygon fill="white" stroke="#666666" points="356,-44 196,-44 196,0 356,0 356,-44"/>
<text text-anchor="start" x="204" y="-30.5" font-family="Helvetica,sans-Serif" font-size="10.00">CodeSmile.MultiPal.Input.</text>
<text text-anchor="start" x="204" y="-18.5" font-family="Helvetica,sans-Serif" font-size="10.00">GeneratedInput.PlayerUIActions.</text>
<text text-anchor="middle" x="276" y="-6.5" font-family="Helvetica,sans-Serif" font-size="10.00">AddCallbacks</text>
</a>
</g>
</g>
<!-- Node1&#45;&gt;Node2 -->
<g id="edge1_Node000001_Node000002" class="edge">
<title>Node1&#45;&gt;Node2</title>
<g id="a_edge1_Node000001_Node000002"><a xlink:title=" ">
<path fill="none" stroke="#63b8ff" d="M380.29,-22C372.27,-22 364.2,-22 356.29,-22"/>
<polygon fill="#63b8ff" stroke="#63b8ff" points="380.06,-25.5 390.06,-22 380.06,-18.5 380.06,-25.5"/>
</a>
</g>
</g>
<!-- Node3 -->
<g id="Node000003" class="node">
<title>Node3</title>
<g id="a_Node000003"><a xlink:href="struct_code_smile_1_1_multi_pal_1_1_input_1_1_generated_input_1_1_player_u_i_actions.html#a5d7669216cf01c6800d7e6cadbdabae1" target="_top" xlink:title=" ">
<polygon fill="white" stroke="#666666" points="160,-44 0,-44 0,0 160,0 160,-44"/>
<text text-anchor="start" x="8" y="-30.5" font-family="Helvetica,sans-Serif" font-size="10.00">CodeSmile.MultiPal.Input.</text>
<text text-anchor="start" x="8" y="-18.5" font-family="Helvetica,sans-Serif" font-size="10.00">GeneratedInput.PlayerUIActions.</text>
<text text-anchor="middle" x="80" y="-6.5" font-family="Helvetica,sans-Serif" font-size="10.00">SetCallbacks</text>
</a>
</g>
</g>
<!-- Node2&#45;&gt;Node3 -->
<g id="edge2_Node000002_Node000003" class="edge">
<title>Node2&#45;&gt;Node3</title>
<g id="a_edge2_Node000002_Node000003"><a xlink:title=" ">
<path fill="none" stroke="#63b8ff" d="M184.29,-22C176.29,-22 168.24,-22 160.34,-22"/>
<polygon fill="#63b8ff" stroke="#63b8ff" points="184.02,-25.5 194.02,-22 184.02,-18.5 184.02,-25.5"/>
</a>
</g>
</g>
</g>
</svg>
