<?xml version="1.0" encoding="UTF-8" standalone="no"?>
<!DOCTYPE svg PUBLIC "-//W3C//DTD SVG 1.1//EN"
 "http://www.w3.org/Graphics/SVG/1.1/DTD/svg11.dtd">
<!-- Generated by graphviz version 12.1.2 (20240928.0832)
 -->
<!-- Title: PA1A.Items.UI.ISlotUI Pages: 1 -->
<svg width="147pt" height="348pt"
 viewBox="0.00 0.00 147.00 348.00" xmlns="http://www.w3.org/2000/svg" xmlns:xlink="http://www.w3.org/1999/xlink">

<svg id="main" version="1.1" xmlns="http://www.w3.org/2000/svg" xmlns:xlink="http://www.w3.org/1999/xlink" xml:space="preserve">

<style type="text/css"><![CDATA[
.node, .edge {opacity: 0.7;}
.node.selected, .edge.selected {opacity: 1;}
.edge:hover path { stroke: red; }
.edge:hover polygon { stroke: red; fill: red; }
]]></style>
<script type="application/ecmascript" xlink:href="svg.min.js"/>
<svg id="graph" class="graph">
<g id="graph0" class="graph" transform="scale(1 1) rotate(0) translate(4 344)">
<title>PA1A.Items.UI.ISlotUI</title>
<!-- Node1 -->
<g id="Node000001" class="node">
<title>Node1</title>
<g id="a_Node000001"><a xlink:title="Represents a ISlotUI that will display a specific ItemStack">
<polygon fill="#999999" stroke="none" points="124,-340 15,-340 15,-256 124,-256 124,-340"/>
<text text-anchor="start" x="19.62" y="-326.5" font-family="Helvetica,sans-Serif" font-size="10.00">PA1A.Items.UI.ISlotUI</text>
<text text-anchor="start" x="68" y="-310.5" font-family="Helvetica,sans-Serif" font-size="10.00"> </text>
<text text-anchor="start" x="29.5" y="-294.5" font-family="Helvetica,sans-Serif" font-size="10.00">+</text>
<text text-anchor="start" x="50" y="-294.5" font-family="Helvetica,sans-Serif" font-size="10.00">Configure()</text>
<text text-anchor="start" x="29.5" y="-278.5" font-family="Helvetica,sans-Serif" font-size="10.00">+</text>
<text text-anchor="start" x="50" y="-278.5" font-family="Helvetica,sans-Serif" font-size="10.00">Destroy()</text>
<text text-anchor="start" x="29.5" y="-262.5" font-family="Helvetica,sans-Serif" font-size="10.00">+</text>
<text text-anchor="start" x="50" y="-262.5" font-family="Helvetica,sans-Serif" font-size="10.00">Refresh()</text>
<polygon fill="#666666" stroke="#666666" points="15,-322 15,-322 124,-322 124,-322 15,-322"/>
<polygon fill="#666666" stroke="#666666" points="15,-306 15,-306 124,-306 124,-306 15,-306"/>
<polygon fill="none" stroke="#666666" points="15,-256 15,-340 124,-340 124,-256 15,-256"/>
</a>
</g>
</g>
<!-- Node2 -->
<g id="Node000002" class="node">
<title>Node2</title>
<g id="a_Node000002"><a xlink:href="class_p_a1_a_1_1_items_1_1_u_i_1_1_slot_u_i.html" target="_top" xlink:title="Base implementation of ISlotUI that is linked to an IContainer">
<polygon fill="white" stroke="none" points="122.5,-220 16.5,-220 16.5,-104 122.5,-104 122.5,-220"/>
<text text-anchor="start" x="21.12" y="-206.5" font-family="Helvetica,sans-Serif" font-size="10.00">PA1A.Items.UI.SlotUI</text>
<text text-anchor="start" x="24.5" y="-190.5" font-family="Helvetica,sans-Serif" font-size="10.00">+</text>
<text text-anchor="start" x="38.5" y="-190.5" font-family="Helvetica,sans-Serif" font-size="10.00">Container</text>
<text text-anchor="start" x="24.5" y="-174.5" font-family="Helvetica,sans-Serif" font-size="10.00">+</text>
<text text-anchor="start" x="38.5" y="-174.5" font-family="Helvetica,sans-Serif" font-size="10.00">Index</text>
<text text-anchor="start" x="24.5" y="-158.5" font-family="Helvetica,sans-Serif" font-size="10.00">+</text>
<text text-anchor="start" x="38.5" y="-158.5" font-family="Helvetica,sans-Serif" font-size="10.00">Configure()</text>
<text text-anchor="start" x="24.5" y="-142.5" font-family="Helvetica,sans-Serif" font-size="10.00">+</text>
<text text-anchor="start" x="38.5" y="-142.5" font-family="Helvetica,sans-Serif" font-size="10.00">Refresh()</text>
<text text-anchor="start" x="24.5" y="-126.5" font-family="Helvetica,sans-Serif" font-size="10.00">+</text>
<text text-anchor="start" x="38.5" y="-126.5" font-family="Helvetica,sans-Serif" font-size="10.00">Destroy()</text>
<text text-anchor="start" x="24.5" y="-110.5" font-family="Helvetica,sans-Serif" font-size="10.00">+</text>
<text text-anchor="start" x="38.5" y="-110.5" font-family="Helvetica,sans-Serif" font-size="10.00">OnPointerClick()</text>
<polygon fill="#666666" stroke="#666666" points="16.5,-202 16.5,-202 122.5,-202 122.5,-202 16.5,-202"/>
<polygon fill="#666666" stroke="#666666" points="16.5,-170 16.5,-170 36.5,-170 36.5,-170 16.5,-170"/>
<polygon fill="#666666" stroke="#666666" points="36.5,-170 36.5,-170 122.5,-170 122.5,-170 36.5,-170"/>
<polygon fill="none" stroke="#666666" points="16.5,-104 16.5,-220 122.5,-220 122.5,-104 16.5,-104"/>
</a>
</g>
</g>
<!-- Node1&#45;&gt;Node2 -->
<g id="edge1_Node000001_Node000002" class="edge">
<title>Node1&#45;&gt;Node2</title>
<g id="a_edge1_Node000001_Node000002"><a xlink:title=" ">
<path fill="none" stroke="#63b8ff" d="M69.5,-244.81C69.5,-236.66 69.5,-228.21 69.5,-219.96"/>
<polygon fill="none" stroke="#63b8ff" points="66,-244.55 69.5,-254.55 73,-244.55 66,-244.55"/>
</a>
</g>
</g>
<!-- Node3 -->
<g id="Node000003" class="node">
<title>Node3</title>
<g id="a_Node000003"><a xlink:href="class_p_a1_a_1_1_items_1_1_u_i_1_1_classic_slot_u_i.html" target="_top" xlink:title="Classic ISlotUI that only displays the Item.Sprite and ItemStack.StackSize">
<polygon fill="white" stroke="none" points="139,-68 0,-68 0,0 139,0 139,-68"/>
<text text-anchor="start" x="4.62" y="-54.5" font-family="Helvetica,sans-Serif" font-size="10.00">PA1A.Items.UI.ClassicSlotUI</text>
<text text-anchor="start" x="24" y="-38.5" font-family="Helvetica,sans-Serif" font-size="10.00">+</text>
<text text-anchor="start" x="54" y="-38.5" font-family="Helvetica,sans-Serif" font-size="10.00">Header</text>
<text text-anchor="start" x="24" y="-22.5" font-family="Helvetica,sans-Serif" font-size="10.00">+</text>
<text text-anchor="start" x="54" y="-22.5" font-family="Helvetica,sans-Serif" font-size="10.00">Content</text>
<text text-anchor="start" x="24" y="-6.5" font-family="Helvetica,sans-Serif" font-size="10.00">+</text>
<text text-anchor="start" x="54" y="-6.5" font-family="Helvetica,sans-Serif" font-size="10.00">Refresh()</text>
<polygon fill="#666666" stroke="#666666" points="0,-50 0,-50 139,-50 139,-50 0,-50"/>
<polygon fill="#666666" stroke="#666666" points="0,-18 0,-18 52,-18 52,-18 0,-18"/>
<polygon fill="#666666" stroke="#666666" points="52,-18 52,-18 139,-18 139,-18 52,-18"/>
<polygon fill="none" stroke="#666666" points="0,0 0,-68 139,-68 139,0 0,0"/>
</a>
</g>
</g>
<!-- Node2&#45;&gt;Node3 -->
<g id="edge2_Node000002_Node000003" class="edge">
<title>Node2&#45;&gt;Node3</title>
<g id="a_edge2_Node000002_Node000003"><a xlink:title=" ">
<path fill="none" stroke="#63b8ff" d="M69.5,-92.77C69.5,-84.03 69.5,-75.44 69.5,-67.65"/>
<polygon fill="none" stroke="#63b8ff" points="66,-92.75 69.5,-102.75 73,-92.75 66,-92.75"/>
</a>
</g>
</g>
</g>
</svg>
</svg>

<style type='text/css'>
<![CDATA[
[data-mouse-over-selected='false'] { opacity: 0.7; }
[data-mouse-over-selected='true']  { opacity: 1.0; }
]]>
</style>
<script type="application/ecmascript"><![CDATA[
document.addEventListener('DOMContentLoaded', (event) => {
  highlightEdges();
  highlightAdjacentNodes();
});
]]></script>
</svg>
