<?xml version="1.0" encoding="UTF-8" standalone="no"?>
<!DOCTYPE svg PUBLIC "-//W3C//DTD SVG 1.1//EN"
 "http://www.w3.org/Graphics/SVG/1.1/DTD/svg11.dtd">
<!-- Generated by graphviz version 12.1.2 (20240928.0832)
 -->
<!-- Title: PA1A.Items.IStackContainer.Take Pages: 1 -->
<svg width="401pt" height="116pt"
 viewBox="0.00 0.00 400.75 116.00" xmlns="http://www.w3.org/2000/svg" xmlns:xlink="http://www.w3.org/1999/xlink">
<g id="graph0" class="graph" transform="scale(1 1) rotate(0) translate(4 112)">
<title>PA1A.Items.IStackContainer.Take</title>
<!-- Node1 -->
<g id="Node000001" class="node">
<title>Node1</title>
<g id="a_Node000001"><a xlink:title="Takes the specified ItemStack from the IStackContainer and substracts the taken amount from the ItemS...">
<polygon fill="#999999" stroke="#666666" points="392.75,-70 226.75,-70 226.75,-50 392.75,-50 392.75,-70"/>
<text text-anchor="middle" x="309.75" y="-56.5" font-family="Helvetica,sans-Serif" font-size="10.00">PA1A.Items.IStackContainer.Take</text>
</a>
</g>
</g>
<!-- Node2 -->
<g id="Node000002" class="node">
<title>Node2</title>
<g id="a_Node000002"><a xlink:href="class_p_a1_a_1_1_items_1_1_flexible_size_container.html#a8c03a40b4c7c6ca478f42c2b686af17e" target="_top" xlink:title=" ">
<polygon fill="white" stroke="#666666" points="190.75,-108 0,-108 0,-88 190.75,-88 190.75,-108"/>
<text text-anchor="middle" x="95.38" y="-94.5" font-family="Helvetica,sans-Serif" font-size="10.00">PA1A.Items.FlexibleSizeContainer.Take</text>
</a>
</g>
</g>
<!-- Node1&#45;&gt;Node2 -->
<g id="edge1_Node000001_Node000002" class="edge">
<title>Node1&#45;&gt;Node2</title>
<g id="a_edge1_Node000001_Node000002"><a xlink:title=" ">
<path fill="none" stroke="#63b8ff" d="M239.11,-72.46C211.82,-77.34 180.87,-82.88 154.78,-87.55"/>
<polygon fill="#63b8ff" stroke="#63b8ff" points="239.44,-75.96 248.67,-70.75 238.21,-69.07 239.44,-75.96"/>
</a>
</g>
</g>
<!-- Node3 -->
<g id="Node000003" class="node">
<title>Node3</title>
<g id="a_Node000003"><a xlink:href="class_p_a1_a_1_1_items_1_1_player_inventory.html#a47f9c37eca0997a554980dd4800acf10" target="_top" xlink:title=" ">
<polygon fill="white" stroke="#666666" points="176.88,-70 13.88,-70 13.88,-50 176.88,-50 176.88,-70"/>
<text text-anchor="middle" x="95.38" y="-56.5" font-family="Helvetica,sans-Serif" font-size="10.00">PA1A.Items.PlayerInventory.Take</text>
</a>
</g>
</g>
<!-- Node1&#45;&gt;Node3 -->
<g id="edge2_Node000001_Node000003" class="edge">
<title>Node1&#45;&gt;Node3</title>
<g id="a_edge2_Node000001_Node000003"><a xlink:title=" ">
<path fill="none" stroke="#63b8ff" d="M214.92,-60C202.39,-60 189.63,-60 177.35,-60"/>
<polygon fill="#63b8ff" stroke="#63b8ff" points="214.82,-63.5 224.82,-60 214.82,-56.5 214.82,-63.5"/>
</a>
</g>
</g>
<!-- Node4 -->
<g id="Node000004" class="node">
<title>Node4</title>
<g id="a_Node000004"><a xlink:href="class_p_a1_a_1_1_items_1_1_i_container_extensions.html#a4578cf1bb1965253513642e47b34b6fb" target="_top" xlink:title="Takes the specified ItemStack from the IStackContainer without making any change to the ItemStack....">
<polygon fill="white" stroke="#666666" points="179.5,-32 11.25,-32 11.25,0 179.5,0 179.5,-32"/>
<text text-anchor="start" x="19.25" y="-18.5" font-family="Helvetica,sans-Serif" font-size="10.00">PA1A.Items.IContainerExtensions.</text>
<text text-anchor="middle" x="95.38" y="-6.5" font-family="Helvetica,sans-Serif" font-size="10.00">TakeUnchanged</text>
</a>
</g>
</g>
<!-- Node1&#45;&gt;Node4 -->
<g id="edge3_Node000001_Node000004" class="edge">
<title>Node1&#45;&gt;Node4</title>
<g id="a_edge3_Node000001_Node000004"><a xlink:title=" ">
<path fill="none" stroke="#63b8ff" d="M247.13,-47.23C224.81,-42.61 199.27,-37.32 175.63,-32.42"/>
<polygon fill="#63b8ff" stroke="#63b8ff" points="246.17,-50.61 256.67,-49.21 247.59,-43.75 246.17,-50.61"/>
</a>
</g>
</g>
</g>
</svg>
