<?xml version="1.0" encoding="UTF-8" standalone="no"?>
<!DOCTYPE svg PUBLIC "-//W3C//DTD SVG 1.1//EN"
 "http://www.w3.org/Graphics/SVG/1.1/DTD/svg11.dtd">
<!-- Generated by graphviz version 12.1.2 (20240928.0832)
 -->
<!-- Title: PA1A.Items.UI.ISlotUI.Destroy Pages: 1 -->
<svg width="749pt" height="40pt"
 viewBox="0.00 0.00 749.25 40.00" xmlns="http://www.w3.org/2000/svg" xmlns:xlink="http://www.w3.org/1999/xlink">
<g id="graph0" class="graph" transform="scale(1 1) rotate(0) translate(4 36)">
<title>PA1A.Items.UI.ISlotUI.Destroy</title>
<!-- Node1 -->
<g id="Node000001" class="node">
<title>Node1</title>
<g id="a_Node000001"><a xlink:title="Destroys the ISlotUI">
<polygon fill="#999999" stroke="#666666" points="741.25,-26 588,-26 588,-6 741.25,-6 741.25,-26"/>
<text text-anchor="middle" x="664.62" y="-12.5" font-family="Helvetica,sans-Serif" font-size="10.00">PA1A.Items.UI.ISlotUI.Destroy</text>
</a>
</g>
</g>
<!-- Node2 -->
<g id="Node000002" class="node">
<title>Node2</title>
<g id="a_Node000002"><a xlink:href="class_p_a1_a_1_1_items_1_1_u_i_1_1_classic_container_u_i.html#a512bf25e19e67e6eb28ef45ed563ec7c" target="_top" xlink:title="Unbuilds the ISlotUI of the IContainer">
<polygon fill="white" stroke="#666666" points="552,-32 392,-32 392,0 552,0 552,-32"/>
<text text-anchor="start" x="400" y="-18.5" font-family="Helvetica,sans-Serif" font-size="10.00">PA1A.Items.UI.ClassicContainer</text>
<text text-anchor="middle" x="472" y="-6.5" font-family="Helvetica,sans-Serif" font-size="10.00">UI.UnbuildSlots</text>
</a>
</g>
</g>
<!-- Node1&#45;&gt;Node2 -->
<g id="edge1_Node000001_Node000002" class="edge">
<title>Node1&#45;&gt;Node2</title>
<g id="a_edge1_Node000001_Node000002"><a xlink:title=" ">
<path fill="none" stroke="#63b8ff" d="M576.46,-16C568.43,-16 560.33,-16 552.38,-16"/>
<polygon fill="#63b8ff" stroke="#63b8ff" points="576.22,-19.5 586.22,-16 576.22,-12.5 576.22,-19.5"/>
</a>
</g>
</g>
<!-- Node3 -->
<g id="Node000003" class="node">
<title>Node3</title>
<g id="a_Node000003"><a xlink:href="class_p_a1_a_1_1_items_1_1_u_i_1_1_classic_container_u_i.html#af9a7d16e628b37ca94c3aaf01a97986e" target="_top" xlink:title="Unbuilds the IContainerUI">
<polygon fill="white" stroke="#666666" points="356,-32 196,-32 196,0 356,0 356,-32"/>
<text text-anchor="start" x="204" y="-18.5" font-family="Helvetica,sans-Serif" font-size="10.00">PA1A.Items.UI.ClassicContainer</text>
<text text-anchor="middle" x="276" y="-6.5" font-family="Helvetica,sans-Serif" font-size="10.00">UI.Unbuild</text>
</a>
</g>
</g>
<!-- Node2&#45;&gt;Node3 -->
<g id="edge2_Node000002_Node000003" class="edge">
<title>Node2&#45;&gt;Node3</title>
<g id="a_edge2_Node000002_Node000003"><a xlink:title=" ">
<path fill="none" stroke="#63b8ff" d="M380.29,-16C372.29,-16 364.24,-16 356.34,-16"/>
<polygon fill="#63b8ff" stroke="#63b8ff" points="380.02,-19.5 390.02,-16 380.02,-12.5 380.02,-19.5"/>
</a>
</g>
</g>
<!-- Node4 -->
<g id="Node000004" class="node">
<title>Node4</title>
<g id="a_Node000004"><a xlink:href="class_p_a1_a_1_1_items_1_1_u_i_1_1_classic_container_u_i.html#ab15bc2bace0f02220bf0a8495dfa81a4" target="_top" xlink:title="Toggles the build state of the IContainer">
<polygon fill="white" stroke="#666666" points="160,-32 0,-32 0,0 160,0 160,-32"/>
<text text-anchor="start" x="8" y="-18.5" font-family="Helvetica,sans-Serif" font-size="10.00">PA1A.Items.UI.ClassicContainer</text>
<text text-anchor="middle" x="80" y="-6.5" font-family="Helvetica,sans-Serif" font-size="10.00">UI.Toggle</text>
</a>
</g>
</g>
<!-- Node3&#45;&gt;Node4 -->
<g id="edge3_Node000003_Node000004" class="edge">
<title>Node3&#45;&gt;Node4</title>
<g id="a_edge3_Node000003_Node000004"><a xlink:title=" ">
<path fill="none" stroke="#63b8ff" d="M184.29,-16C176.29,-16 168.24,-16 160.34,-16"/>
<polygon fill="#63b8ff" stroke="#63b8ff" points="184.02,-19.5 194.02,-16 184.02,-12.5 184.02,-19.5"/>
</a>
</g>
</g>
</g>
</svg>
