<?xml version="1.0" encoding="UTF-8" standalone="no"?>
<!DOCTYPE svg PUBLIC "-//W3C//DTD SVG 1.1//EN"
 "http://www.w3.org/Graphics/SVG/1.1/DTD/svg11.dtd">
<!-- Generated by graphviz version 12.1.2 (20240928.0832)
 -->
<!-- Title: PA1A.Building.IBuildingState Pages: 1 -->
<svg width="306pt" height="228pt"
 viewBox="0.00 0.00 306.00 228.00" xmlns="http://www.w3.org/2000/svg" xmlns:xlink="http://www.w3.org/1999/xlink">
<g id="graph0" class="graph" transform="scale(1 1) rotate(0) translate(4 224)">
<title>PA1A.Building.IBuildingState</title>
<!-- Node1 -->
<g id="Node000001" class="node">
<title>Node1</title>
<g id="a_Node000001"><a xlink:title="Represents the state of a building.">
<polygon fill="#999999" stroke="none" points="219.5,-220 83.5,-220 83.5,-136 219.5,-136 219.5,-220"/>
<text text-anchor="start" x="88.5" y="-206.5" font-family="Helvetica,sans-Serif" font-size="10.00">PA1A.Building.IBuildingState</text>
<text text-anchor="start" x="150" y="-190.5" font-family="Helvetica,sans-Serif" font-size="10.00"> </text>
<text text-anchor="start" x="102" y="-174.5" font-family="Helvetica,sans-Serif" font-size="10.00">+</text>
<text text-anchor="start" x="126.5" y="-174.5" font-family="Helvetica,sans-Serif" font-size="10.00">EndState()</text>
<text text-anchor="start" x="102" y="-158.5" font-family="Helvetica,sans-Serif" font-size="10.00">+</text>
<text text-anchor="start" x="126.5" y="-158.5" font-family="Helvetica,sans-Serif" font-size="10.00">OnAction()</text>
<text text-anchor="start" x="102" y="-142.5" font-family="Helvetica,sans-Serif" font-size="10.00">+</text>
<text text-anchor="start" x="126.5" y="-142.5" font-family="Helvetica,sans-Serif" font-size="10.00">UpdateState()</text>
<polygon fill="#666666" stroke="#666666" points="83.5,-202 83.5,-202 219.5,-202 219.5,-202 83.5,-202"/>
<polygon fill="#666666" stroke="#666666" points="83.5,-186 83.5,-186 219.5,-186 219.5,-186 83.5,-186"/>
<polygon fill="none" stroke="#666666" points="83.5,-136 83.5,-220 219.5,-220 219.5,-136 83.5,-136"/>
</a>
</g>
</g>
<!-- Node2 -->
<g id="Node000002" class="node">
<title>Node2</title>
<g id="a_Node000002"><a xlink:href="class_p_a1_a_1_1_building_1_1_placement_state.html" target="_top" xlink:title="Represents the state of object placement in the building system.">
<polygon fill="white" stroke="none" points="145,-100 0,-100 0,0 145,0 145,-100"/>
<text text-anchor="start" x="5" y="-86.5" font-family="Helvetica,sans-Serif" font-size="10.00">PA1A.Building.PlacementState</text>
<text text-anchor="start" x="71" y="-70.5" font-family="Helvetica,sans-Serif" font-size="10.00"> </text>
<text text-anchor="start" x="17" y="-54.5" font-family="Helvetica,sans-Serif" font-size="10.00">+</text>
<text text-anchor="start" x="40" y="-54.5" font-family="Helvetica,sans-Serif" font-size="10.00">PlacementState()</text>
<text text-anchor="start" x="17" y="-38.5" font-family="Helvetica,sans-Serif" font-size="10.00">+</text>
<text text-anchor="start" x="40" y="-38.5" font-family="Helvetica,sans-Serif" font-size="10.00">EndState()</text>
<text text-anchor="start" x="17" y="-22.5" font-family="Helvetica,sans-Serif" font-size="10.00">+</text>
<text text-anchor="start" x="40" y="-22.5" font-family="Helvetica,sans-Serif" font-size="10.00">OnAction()</text>
<text text-anchor="start" x="17" y="-6.5" font-family="Helvetica,sans-Serif" font-size="10.00">+</text>
<text text-anchor="start" x="40" y="-6.5" font-family="Helvetica,sans-Serif" font-size="10.00">UpdateState()</text>
<polygon fill="#666666" stroke="#666666" points="0,-82 0,-82 145,-82 145,-82 0,-82"/>
<polygon fill="#666666" stroke="#666666" points="0,-66 0,-66 145,-66 145,-66 0,-66"/>
<polygon fill="none" stroke="#666666" points="0,0 0,-100 145,-100 145,0 0,0"/>
</a>
</g>
</g>
<!-- Node1&#45;&gt;Node2 -->
<g id="edge1_Node000001_Node000002" class="edge">
<title>Node1&#45;&gt;Node2</title>
<g id="a_edge1_Node000001_Node000002"><a xlink:title=" ">
<path fill="none" stroke="#63b8ff" d="M119.9,-126.61C114.32,-117.71 108.52,-108.46 102.98,-99.61"/>
<polygon fill="none" stroke="#63b8ff" points="116.77,-128.2 125.05,-134.81 122.7,-124.48 116.77,-128.2"/>
</a>
</g>
</g>
<!-- Node3 -->
<g id="Node000003" class="node">
<title>Node3</title>
<g id="a_Node000003"><a xlink:href="class_p_a1_a_1_1_building_1_1_remove_state.html" target="_top" xlink:title="Represents the state of removing a building.">
<polygon fill="white" stroke="none" points="298,-100 163,-100 163,0 298,0 298,-100"/>
<text text-anchor="start" x="167.88" y="-86.5" font-family="Helvetica,sans-Serif" font-size="10.00">PA1A.Building.RemoveState</text>
<text text-anchor="start" x="229" y="-70.5" font-family="Helvetica,sans-Serif" font-size="10.00"> </text>
<text text-anchor="start" x="179.5" y="-54.5" font-family="Helvetica,sans-Serif" font-size="10.00">+</text>
<text text-anchor="start" x="202" y="-54.5" font-family="Helvetica,sans-Serif" font-size="10.00">RemoveState()</text>
<text text-anchor="start" x="179.5" y="-38.5" font-family="Helvetica,sans-Serif" font-size="10.00">+</text>
<text text-anchor="start" x="202" y="-38.5" font-family="Helvetica,sans-Serif" font-size="10.00">EndState()</text>
<text text-anchor="start" x="179.5" y="-22.5" font-family="Helvetica,sans-Serif" font-size="10.00">+</text>
<text text-anchor="start" x="202" y="-22.5" font-family="Helvetica,sans-Serif" font-size="10.00">OnAction()</text>
<text text-anchor="start" x="179.5" y="-6.5" font-family="Helvetica,sans-Serif" font-size="10.00">+</text>
<text text-anchor="start" x="202" y="-6.5" font-family="Helvetica,sans-Serif" font-size="10.00">UpdateState()</text>
<polygon fill="#666666" stroke="#666666" points="163,-82 163,-82 298,-82 298,-82 163,-82"/>
<polygon fill="#666666" stroke="#666666" points="163,-66 163,-66 298,-66 298,-66 163,-66"/>
<polygon fill="none" stroke="#666666" points="163,0 163,-100 298,-100 298,0 163,0"/>
</a>
</g>
</g>
<!-- Node1&#45;&gt;Node3 -->
<g id="edge2_Node000001_Node000003" class="edge">
<title>Node1&#45;&gt;Node3</title>
<g id="a_edge2_Node000001_Node000003"><a xlink:title=" ">
<path fill="none" stroke="#63b8ff" d="M183.1,-126.61C188.68,-117.71 194.48,-108.46 200.02,-99.61"/>
<polygon fill="none" stroke="#63b8ff" points="180.3,-124.48 177.95,-134.81 186.23,-128.2 180.3,-124.48"/>
</a>
</g>
</g>
</g>
</svg>
