<?xml version="1.0" encoding="UTF-8" standalone="no"?>
<!DOCTYPE svg PUBLIC "-//W3C//DTD SVG 1.1//EN"
 "http://www.w3.org/Graphics/SVG/1.1/DTD/svg11.dtd">
<!-- Generated by graphviz version 12.1.2 (20240928.0832)
 -->
<!-- Title: UnityUtils.IPredicate Pages: 1 -->
<svg width="531pt" height="176pt"
 viewBox="0.00 0.00 531.00 176.00" xmlns="http://www.w3.org/2000/svg" xmlns:xlink="http://www.w3.org/1999/xlink">
<g id="graph0" class="graph" transform="scale(1 1) rotate(0) translate(4 172)">
<title>UnityUtils.IPredicate</title>
<!-- Node1 -->
<g id="Node000001" class="node">
<title>Node1</title>
<g id="a_Node000001"><a xlink:title=" ">
<polygon fill="#999999" stroke="none" points="265.5,-168 165.5,-168 165.5,-116 265.5,-116 265.5,-168"/>
<text text-anchor="start" x="170.12" y="-154.5" font-family="Helvetica,sans-Serif" font-size="10.00">UnityUtils.IPredicate</text>
<text text-anchor="start" x="214" y="-138.5" font-family="Helvetica,sans-Serif" font-size="10.00"> </text>
<text text-anchor="start" x="179" y="-122.5" font-family="Helvetica,sans-Serif" font-size="10.00">+</text>
<text text-anchor="start" x="198.5" y="-122.5" font-family="Helvetica,sans-Serif" font-size="10.00">Evaluate()</text>
<polygon fill="#666666" stroke="#666666" points="165.5,-150 165.5,-150 265.5,-150 265.5,-150 165.5,-150"/>
<polygon fill="#666666" stroke="#666666" points="165.5,-134 165.5,-134 265.5,-134 265.5,-134 165.5,-134"/>
<polygon fill="none" stroke="#666666" points="165.5,-116 165.5,-168 265.5,-168 265.5,-116 165.5,-116"/>
</a>
</g>
</g>
<!-- Node2 -->
<g id="Node000002" class="node">
<title>Node2</title>
<g id="a_Node000002"><a xlink:href="class_unity_utils_1_1_and.html" target="_top" xlink:title=" ">
<polygon fill="white" stroke="none" points="73,-66 0,-66 0,-14 73,-14 73,-66"/>
<text text-anchor="start" x="4.62" y="-52.5" font-family="Helvetica,sans-Serif" font-size="10.00">UnityUtils.And</text>
<text text-anchor="start" x="35" y="-36.5" font-family="Helvetica,sans-Serif" font-size="10.00"> </text>
<text text-anchor="start" x="6.5" y="-20.5" font-family="Helvetica,sans-Serif" font-size="10.00">+</text>
<text text-anchor="start" x="19" y="-20.5" font-family="Helvetica,sans-Serif" font-size="10.00">Evaluate()</text>
<polygon fill="#666666" stroke="#666666" points="0,-48 0,-48 73,-48 73,-48 0,-48"/>
<polygon fill="#666666" stroke="#666666" points="0,-32 0,-32 73,-32 73,-32 0,-32"/>
<polygon fill="none" stroke="#666666" points="0,-14 0,-66 73,-66 73,-14 0,-14"/>
</a>
</g>
</g>
<!-- Node1&#45;&gt;Node2 -->
<g id="edge1_Node000001_Node000002" class="edge">
<title>Node1&#45;&gt;Node2</title>
<g id="a_edge1_Node000001_Node000002"><a xlink:title=" ">
<path fill="none" stroke="#63b8ff" d="M155,-117.42C131.61,-107.24 105.08,-94.37 82.5,-80 75.96,-75.84 69.36,-70.83 63.28,-65.8"/>
<polygon fill="none" stroke="#63b8ff" points="153.54,-120.6 164.11,-121.3 156.29,-114.16 153.54,-120.6"/>
</a>
</g>
</g>
<!-- Node3 -->
<g id="Node000003" class="node">
<title>Node3</title>
<g id="a_Node000003"><a xlink:href="class_unity_utils_1_1_not.html" target="_top" xlink:title=" ">
<polygon fill="white" stroke="none" points="163.5,-66 91.5,-66 91.5,-14 163.5,-14 163.5,-66"/>
<text text-anchor="start" x="96.38" y="-52.5" font-family="Helvetica,sans-Serif" font-size="10.00">UnityUtils.Not</text>
<text text-anchor="start" x="126" y="-36.5" font-family="Helvetica,sans-Serif" font-size="10.00"> </text>
<text text-anchor="start" x="98" y="-20.5" font-family="Helvetica,sans-Serif" font-size="10.00">+</text>
<text text-anchor="start" x="110.5" y="-20.5" font-family="Helvetica,sans-Serif" font-size="10.00">Evaluate()</text>
<polygon fill="#666666" stroke="#666666" points="91.5,-48 91.5,-48 163.5,-48 163.5,-48 91.5,-48"/>
<polygon fill="#666666" stroke="#666666" points="91.5,-32 91.5,-32 163.5,-32 163.5,-32 91.5,-32"/>
<polygon fill="none" stroke="#666666" points="91.5,-14 91.5,-66 163.5,-66 163.5,-14 91.5,-14"/>
</a>
</g>
</g>
<!-- Node1&#45;&gt;Node3 -->
<g id="edge2_Node000001_Node000003" class="edge">
<title>Node1&#45;&gt;Node3</title>
<g id="a_edge2_Node000001_Node000003"><a xlink:title=" ">
<path fill="none" stroke="#63b8ff" d="M186.24,-107.76C174.15,-94.01 160.37,-78.35 149.2,-65.66"/>
<polygon fill="none" stroke="#63b8ff" points="183.29,-109.69 192.52,-114.89 188.54,-105.07 183.29,-109.69"/>
</a>
</g>
</g>
<!-- Node4 -->
<g id="Node000004" class="node">
<title>Node4</title>
<g id="a_Node000004"><a xlink:href="class_unity_utils_1_1_or.html" target="_top" xlink:title=" ">
<polygon fill="white" stroke="none" points="249,-66 182,-66 182,-14 249,-14 249,-66"/>
<text text-anchor="start" x="187" y="-52.5" font-family="Helvetica,sans-Serif" font-size="10.00">UnityUtils.Or</text>
<text text-anchor="start" x="214" y="-36.5" font-family="Helvetica,sans-Serif" font-size="10.00"> </text>
<text text-anchor="start" x="187" y="-20.5" font-family="Helvetica,sans-Serif" font-size="10.00">+</text>
<text text-anchor="start" x="198" y="-20.5" font-family="Helvetica,sans-Serif" font-size="10.00">Evaluate()</text>
<polygon fill="#666666" stroke="#666666" points="182,-48 182,-48 249,-48 249,-48 182,-48"/>
<polygon fill="#666666" stroke="#666666" points="182,-32 182,-32 249,-32 249,-32 182,-32"/>
<polygon fill="none" stroke="#666666" points="182,-14 182,-66 249,-66 249,-14 182,-14"/>
</a>
</g>
</g>
<!-- Node1&#45;&gt;Node4 -->
<g id="edge3_Node000001_Node000004" class="edge">
<title>Node1&#45;&gt;Node4</title>
<g id="a_edge3_Node000001_Node000004"><a xlink:title=" ">
<path fill="none" stroke="#63b8ff" d="M215.5,-104.61C215.5,-91.66 215.5,-77.39 215.5,-65.66"/>
<polygon fill="none" stroke="#63b8ff" points="212,-104.51 215.5,-114.51 219,-104.51 212,-104.51"/>
</a>
</g>
</g>
<!-- Node5 -->
<g id="Node000005" class="node">
<title>Node5</title>
<g id="a_Node000005"><a xlink:href="class_unity_utils_1_1_state_machine_1_1_action_predicate.html" target="_top" xlink:title="Represents a predicate that encapsulates an action and evaluates to true once the action has been inv...">
<polygon fill="white" stroke="none" points="386,-80 267,-80 267,0 386,0 386,-80"/>
<text text-anchor="start" x="271.75" y="-66.5" font-family="Helvetica,sans-Serif" font-size="10.00">UnityUtils.StateMachine.</text>
<text text-anchor="start" x="292" y="-54.5" font-family="Helvetica,sans-Serif" font-size="10.00">ActionPredicate</text>
<text text-anchor="start" x="277.5" y="-38.5" font-family="Helvetica,sans-Serif" font-size="10.00">+</text>
<text text-anchor="start" x="294" y="-38.5" font-family="Helvetica,sans-Serif" font-size="10.00">flag</text>
<text text-anchor="start" x="277.5" y="-22.5" font-family="Helvetica,sans-Serif" font-size="10.00">+</text>
<text text-anchor="start" x="294" y="-22.5" font-family="Helvetica,sans-Serif" font-size="10.00">ActionPredicate()</text>
<text text-anchor="start" x="277.5" y="-6.5" font-family="Helvetica,sans-Serif" font-size="10.00">+</text>
<text text-anchor="start" x="294" y="-6.5" font-family="Helvetica,sans-Serif" font-size="10.00">Evaluate()</text>
<polygon fill="#666666" stroke="#666666" points="267,-50 267,-50 386,-50 386,-50 267,-50"/>
<polygon fill="#666666" stroke="#666666" points="267,-34 267,-34 292,-34 292,-34 267,-34"/>
<polygon fill="#666666" stroke="#666666" points="292,-34 292,-34 386,-34 386,-34 292,-34"/>
<polygon fill="none" stroke="#666666" points="267,0 267,-80 386,-80 386,0 267,0"/>
</a>
</g>
</g>
<!-- Node1&#45;&gt;Node5 -->
<g id="edge4_Node000001_Node000005" class="edge">
<title>Node1&#45;&gt;Node5</title>
<g id="a_edge4_Node000001_Node000005"><a xlink:title=" ">
<path fill="none" stroke="#63b8ff" d="M251.54,-108.53C261.77,-99.32 273,-89.2 283.59,-79.65"/>
<polygon fill="none" stroke="#63b8ff" points="249.44,-105.72 244.35,-115.01 254.12,-110.92 249.44,-105.72"/>
</a>
</g>
</g>
<!-- Node6 -->
<g id="Node000006" class="node">
<title>Node6</title>
<g id="a_Node000006"><a xlink:href="class_unity_utils_1_1_state_machine_1_1_func_predicate.html" target="_top" xlink:title="Represents a predicate that uses a Func delegate to evaluate a condition.">
<polygon fill="white" stroke="none" points="523,-80 404,-80 404,0 523,0 523,-80"/>
<text text-anchor="start" x="408.75" y="-66.5" font-family="Helvetica,sans-Serif" font-size="10.00">UnityUtils.StateMachine.</text>
<text text-anchor="start" x="432" y="-54.5" font-family="Helvetica,sans-Serif" font-size="10.00">FuncPredicate</text>
<text text-anchor="start" x="462" y="-38.5" font-family="Helvetica,sans-Serif" font-size="10.00"> </text>
<text text-anchor="start" x="416" y="-22.5" font-family="Helvetica,sans-Serif" font-size="10.00">+</text>
<text text-anchor="start" x="434" y="-22.5" font-family="Helvetica,sans-Serif" font-size="10.00">FuncPredicate()</text>
<text text-anchor="start" x="416" y="-6.5" font-family="Helvetica,sans-Serif" font-size="10.00">+</text>
<text text-anchor="start" x="434" y="-6.5" font-family="Helvetica,sans-Serif" font-size="10.00">Evaluate()</text>
<polygon fill="#666666" stroke="#666666" points="404,-50 404,-50 523,-50 523,-50 404,-50"/>
<polygon fill="#666666" stroke="#666666" points="404,-34 404,-34 523,-34 523,-34 404,-34"/>
<polygon fill="none" stroke="#666666" points="404,0 404,-80 523,-80 523,0 404,0"/>
</a>
</g>
</g>
<!-- Node1&#45;&gt;Node6 -->
<g id="edge5_Node000001_Node000006" class="edge">
<title>Node1&#45;&gt;Node6</title>
<g id="a_edge5_Node000001_Node000006"><a xlink:title=" ">
<path fill="none" stroke="#63b8ff" d="M276.06,-123.7C311.52,-112.78 356.79,-97.46 395.5,-80 398.35,-78.71 401.24,-77.34 404.14,-75.91"/>
<polygon fill="none" stroke="#63b8ff" points="275.38,-120.25 266.83,-126.5 277.42,-126.94 275.38,-120.25"/>
</a>
</g>
</g>
</g>
</svg>
