<?xml version="1.0" encoding="UTF-8" standalone="no"?>
<!DOCTYPE svg PUBLIC "-//W3C//DTD SVG 1.1//EN"
 "http://www.w3.org/Graphics/SVG/1.1/DTD/svg11.dtd">
<!-- Generated by graphviz version 12.1.2 (20240928.0832)
 -->
<!-- Title: PA1A.Items.IStackContainer Pages: 1 -->
<svg width="373pt" height="740pt"
 viewBox="0.00 0.00 373.00 740.00" xmlns="http://www.w3.org/2000/svg" xmlns:xlink="http://www.w3.org/1999/xlink">
<g id="graph0" class="graph" transform="scale(1 1) rotate(0) translate(4 736)">
<title>PA1A.Items.IStackContainer</title>
<!-- Node1 -->
<g id="Node000001" class="node">
<title>Node1</title>
<g id="a_Node000001"><a xlink:title=" ">
<polygon fill="#999999" stroke="none" points="304,-732 168,-732 168,-600 304,-600 304,-732"/>
<text text-anchor="start" x="173" y="-718.5" font-family="Helvetica,sans-Serif" font-size="10.00">PA1A.Items.IStackContainer</text>
<text text-anchor="start" x="234.5" y="-702.5" font-family="Helvetica,sans-Serif" font-size="10.00"> </text>
<text text-anchor="start" x="186" y="-686.5" font-family="Helvetica,sans-Serif" font-size="10.00">+</text>
<text text-anchor="start" x="210" y="-686.5" font-family="Helvetica,sans-Serif" font-size="10.00">Give()</text>
<text text-anchor="start" x="186" y="-670.5" font-family="Helvetica,sans-Serif" font-size="10.00">+</text>
<text text-anchor="start" x="210" y="-670.5" font-family="Helvetica,sans-Serif" font-size="10.00">Take()</text>
<text text-anchor="start" x="186" y="-654.5" font-family="Helvetica,sans-Serif" font-size="10.00">+</text>
<text text-anchor="start" x="210" y="-654.5" font-family="Helvetica,sans-Serif" font-size="10.00">Take()</text>
<text text-anchor="start" x="186" y="-638.5" font-family="Helvetica,sans-Serif" font-size="10.00">+</text>
<text text-anchor="start" x="210" y="-638.5" font-family="Helvetica,sans-Serif" font-size="10.00">CanBeGiven()</text>
<text text-anchor="start" x="186" y="-622.5" font-family="Helvetica,sans-Serif" font-size="10.00">+</text>
<text text-anchor="start" x="210" y="-622.5" font-family="Helvetica,sans-Serif" font-size="10.00">CanBeTaken()</text>
<text text-anchor="start" x="186" y="-606.5" font-family="Helvetica,sans-Serif" font-size="10.00">+</text>
<text text-anchor="start" x="210" y="-606.5" font-family="Helvetica,sans-Serif" font-size="10.00">Clear()</text>
<polygon fill="#666666" stroke="#666666" points="168,-714 168,-714 304,-714 304,-714 168,-714"/>
<polygon fill="#666666" stroke="#666666" points="168,-698 168,-698 304,-698 304,-698 168,-698"/>
<polygon fill="none" stroke="#666666" points="168,-600 168,-732 304,-732 304,-600 168,-600"/>
</a>
</g>
</g>
<!-- Node2 -->
<g id="Node000002" class="node">
<title>Node2</title>
<g id="a_Node000002"><a xlink:href="interface_p_a1_a_1_1_items_1_1_i_container.html" target="_top" xlink:title=" ">
<polygon fill="white" stroke="none" points="236.5,-548 87.5,-548 87.5,-464 236.5,-464 236.5,-548"/>
<text text-anchor="start" x="111.75" y="-534.5" font-family="Helvetica,sans-Serif" font-size="10.00">PA1A.Items.IContainer</text>
<text text-anchor="start" x="91.5" y="-518.5" font-family="Helvetica,sans-Serif" font-size="10.00">+</text>
<text text-anchor="start" x="101.5" y="-518.5" font-family="Helvetica,sans-Serif" font-size="10.00">Size</text>
<text text-anchor="start" x="91.5" y="-502.5" font-family="Helvetica,sans-Serif" font-size="10.00">+</text>
<text text-anchor="start" x="101.5" y="-502.5" font-family="Helvetica,sans-Serif" font-size="10.00">this[int i]</text>
<text text-anchor="start" x="91.5" y="-486.5" font-family="Helvetica,sans-Serif" font-size="10.00">+</text>
<text text-anchor="start" x="101.5" y="-486.5" font-family="Helvetica,sans-Serif" font-size="10.00">GetSlot()</text>
<text text-anchor="start" x="91.5" y="-470.5" font-family="Helvetica,sans-Serif" font-size="10.00">+</text>
<text text-anchor="start" x="101.5" y="-470.5" font-family="Helvetica,sans-Serif" font-size="10.00">OnContainerUpdateDelegate()</text>
<polygon fill="#666666" stroke="#666666" points="87.5,-530 87.5,-530 236.5,-530 236.5,-530 87.5,-530"/>
<polygon fill="#666666" stroke="#666666" points="87.5,-498 87.5,-498 99.5,-498 99.5,-498 87.5,-498"/>
<polygon fill="#666666" stroke="#666666" points="99.5,-498 99.5,-498 236.5,-498 236.5,-498 99.5,-498"/>
<polygon fill="none" stroke="#666666" points="87.5,-464 87.5,-548 236.5,-548 236.5,-464 87.5,-464"/>
</a>
</g>
</g>
<!-- Node1&#45;&gt;Node2 -->
<g id="edge1_Node000001_Node000002" class="edge">
<title>Node1&#45;&gt;Node2</title>
<g id="a_edge1_Node000001_Node000002"><a xlink:title=" ">
<path fill="none" stroke="#63b8ff" d="M200.98,-590.23C194.14,-575.63 187.22,-560.84 181.14,-547.86"/>
<polygon fill="none" stroke="#63b8ff" points="197.63,-591.34 205.05,-598.91 203.97,-588.37 197.63,-591.34"/>
</a>
</g>
</g>
<!-- Node6 -->
<g id="Node000006" class="node">
<title>Node6</title>
<g id="a_Node000006"><a xlink:href="interface_p_a1_a_1_1_items_1_1_i_slot.html" target="_top" xlink:title="Represents a ISlot that contains a single Sacados.ItemStack">
<polygon fill="white" stroke="none" points="365,-564 255,-564 255,-448 365,-448 365,-564"/>
<text text-anchor="start" x="272.12" y="-550.5" font-family="Helvetica,sans-Serif" font-size="10.00">PA1A.Items.ISlot</text>
<text text-anchor="start" x="259" y="-534.5" font-family="Helvetica,sans-Serif" font-size="10.00">+</text>
<text text-anchor="start" x="269" y="-534.5" font-family="Helvetica,sans-Serif" font-size="10.00">Index</text>
<text text-anchor="start" x="259" y="-518.5" font-family="Helvetica,sans-Serif" font-size="10.00">+</text>
<text text-anchor="start" x="269" y="-518.5" font-family="Helvetica,sans-Serif" font-size="10.00">ItemStack</text>
<text text-anchor="start" x="259" y="-502.5" font-family="Helvetica,sans-Serif" font-size="10.00">+</text>
<text text-anchor="start" x="269" y="-502.5" font-family="Helvetica,sans-Serif" font-size="10.00">ContainsItem()</text>
<text text-anchor="start" x="259" y="-486.5" font-family="Helvetica,sans-Serif" font-size="10.00">+</text>
<text text-anchor="start" x="269" y="-486.5" font-family="Helvetica,sans-Serif" font-size="10.00">ContainsItem()</text>
<text text-anchor="start" x="259" y="-470.5" font-family="Helvetica,sans-Serif" font-size="10.00">+</text>
<text text-anchor="start" x="269" y="-470.5" font-family="Helvetica,sans-Serif" font-size="10.00">GetMaximumSpace()</text>
<text text-anchor="start" x="259" y="-454.5" font-family="Helvetica,sans-Serif" font-size="10.00">+</text>
<text text-anchor="start" x="269" y="-454.5" font-family="Helvetica,sans-Serif" font-size="10.00">Synchronize()</text>
<polygon fill="#666666" stroke="#666666" points="255,-546 255,-546 365,-546 365,-546 255,-546"/>
<polygon fill="#666666" stroke="#666666" points="255,-514 255,-514 267,-514 267,-514 255,-514"/>
<polygon fill="#666666" stroke="#666666" points="267,-514 267,-514 365,-514 365,-514 267,-514"/>
<polygon fill="none" stroke="#666666" points="255,-448 255,-564 365,-564 365,-448 255,-448"/>
</a>
</g>
</g>
<!-- Node1&#45;&gt;Node6 -->
<g id="edge5_Node000001_Node000006" class="edge">
<title>Node1&#45;&gt;Node6</title>
<g id="a_edge5_Node000001_Node000006"><a xlink:title=" ">
<path fill="none" stroke="#63b8ff" d="M271.13,-589.99C275.26,-581.17 279.42,-572.28 283.41,-563.77"/>
<polygon fill="none" stroke="#63b8ff" points="268.03,-588.37 266.95,-598.91 274.37,-591.34 268.03,-588.37"/>
</a>
</g>
</g>
<!-- Node3 -->
<g id="Node000003" class="node">
<title>Node3</title>
<g id="a_Node000003"><a xlink:href="class_p_a1_a_1_1_items_1_1_container.html" target="_top" xlink:title=" ">
<polygon fill="white" stroke="none" points="219,-412 105,-412 105,-136 219,-136 219,-412"/>
<text text-anchor="start" x="113.25" y="-398.5" font-family="Helvetica,sans-Serif" font-size="10.00">PA1A.Items.Container</text>
<text text-anchor="start" x="109" y="-382.5" font-family="Helvetica,sans-Serif" font-size="10.00">+</text>
<text text-anchor="start" x="119" y="-382.5" font-family="Helvetica,sans-Serif" font-size="10.00">Size</text>
<text text-anchor="start" x="109" y="-366.5" font-family="Helvetica,sans-Serif" font-size="10.00">+</text>
<text text-anchor="start" x="119" y="-366.5" font-family="Helvetica,sans-Serif" font-size="10.00">this[int i]</text>
<text text-anchor="start" x="109" y="-350.5" font-family="Helvetica,sans-Serif" font-size="10.00">+</text>
<text text-anchor="start" x="119" y="-350.5" font-family="Helvetica,sans-Serif" font-size="10.00">GetSlot()</text>
<text text-anchor="start" x="109" y="-334.5" font-family="Helvetica,sans-Serif" font-size="10.00">+</text>
<text text-anchor="start" x="119" y="-334.5" font-family="Helvetica,sans-Serif" font-size="10.00">OnNetworkSpawn()</text>
<text text-anchor="start" x="109" y="-318.5" font-family="Helvetica,sans-Serif" font-size="10.00">+</text>
<text text-anchor="start" x="119" y="-318.5" font-family="Helvetica,sans-Serif" font-size="10.00">OnNetworkDespawn()</text>
<text text-anchor="start" x="109" y="-302.5" font-family="Helvetica,sans-Serif" font-size="10.00">+</text>
<text text-anchor="start" x="119" y="-302.5" font-family="Helvetica,sans-Serif" font-size="10.00">Give()</text>
<text text-anchor="start" x="109" y="-286.5" font-family="Helvetica,sans-Serif" font-size="10.00">+</text>
<text text-anchor="start" x="119" y="-286.5" font-family="Helvetica,sans-Serif" font-size="10.00">Take()</text>
<text text-anchor="start" x="109" y="-270.5" font-family="Helvetica,sans-Serif" font-size="10.00">+</text>
<text text-anchor="start" x="119" y="-270.5" font-family="Helvetica,sans-Serif" font-size="10.00">Take()</text>
<text text-anchor="start" x="109" y="-254.5" font-family="Helvetica,sans-Serif" font-size="10.00">+</text>
<text text-anchor="start" x="119" y="-254.5" font-family="Helvetica,sans-Serif" font-size="10.00">CanBeGiven()</text>
<text text-anchor="start" x="109" y="-238.5" font-family="Helvetica,sans-Serif" font-size="10.00">+</text>
<text text-anchor="start" x="119" y="-238.5" font-family="Helvetica,sans-Serif" font-size="10.00">CanBeTaken()</text>
<text text-anchor="start" x="109" y="-222.5" font-family="Helvetica,sans-Serif" font-size="10.00">+</text>
<text text-anchor="start" x="119" y="-222.5" font-family="Helvetica,sans-Serif" font-size="10.00">Clear()</text>
<text text-anchor="start" x="109.38" y="-206.5" font-family="Helvetica,sans-Serif" font-size="10.00">#</text>
<text text-anchor="start" x="119" y="-206.5" font-family="Helvetica,sans-Serif" font-size="10.00">Awake()</text>
<text text-anchor="start" x="109.38" y="-190.5" font-family="Helvetica,sans-Serif" font-size="10.00">#</text>
<text text-anchor="start" x="119" y="-190.5" font-family="Helvetica,sans-Serif" font-size="10.00">OnContainerUpdate()</text>
<text text-anchor="start" x="109.38" y="-174.5" font-family="Helvetica,sans-Serif" font-size="10.00">#</text>
<text text-anchor="start" x="119" y="-174.5" font-family="Helvetica,sans-Serif" font-size="10.00">AddSlot()</text>
<text text-anchor="start" x="109.38" y="-158.5" font-family="Helvetica,sans-Serif" font-size="10.00">#</text>
<text text-anchor="start" x="119" y="-158.5" font-family="Helvetica,sans-Serif" font-size="10.00">RemoveSlot()</text>
<text text-anchor="start" x="109.38" y="-142.5" font-family="Helvetica,sans-Serif" font-size="10.00">#</text>
<text text-anchor="start" x="119" y="-142.5" font-family="Helvetica,sans-Serif" font-size="10.00">ClearSlots()</text>
<polygon fill="#666666" stroke="#666666" points="105,-394 105,-394 219,-394 219,-394 105,-394"/>
<polygon fill="#666666" stroke="#666666" points="105,-362 105,-362 117,-362 117,-362 105,-362"/>
<polygon fill="#666666" stroke="#666666" points="117,-362 117,-362 219,-362 219,-362 117,-362"/>
<polygon fill="none" stroke="#666666" points="105,-136 105,-412 219,-412 219,-136 105,-136"/>
</a>
</g>
</g>
<!-- Node2&#45;&gt;Node3 -->
<g id="edge2_Node000002_Node000003" class="edge">
<title>Node2&#45;&gt;Node3</title>
<g id="a_edge2_Node000002_Node000003"><a xlink:title=" ">
<path fill="none" stroke="#63b8ff" d="M162,-452.97C162,-440.31 162,-426.18 162,-411.58"/>
<polygon fill="none" stroke="#63b8ff" points="158.5,-452.63 162,-462.63 165.5,-452.63 158.5,-452.63"/>
</a>
</g>
</g>
<!-- Node4 -->
<g id="Node000004" class="node">
<title>Node4</title>
<g id="a_Node000004"><a xlink:href="class_p_a1_a_1_1_items_1_1_flexible_size_container.html" target="_top" xlink:title=" ">
<polygon fill="white" stroke="none" points="160,-100 0,-100 0,0 160,0 160,-100"/>
<text text-anchor="start" x="4.62" y="-86.5" font-family="Helvetica,sans-Serif" font-size="10.00">PA1A.Items.FlexibleSizeContainer</text>
<text text-anchor="start" x="78.5" y="-70.5" font-family="Helvetica,sans-Serif" font-size="10.00"> </text>
<text text-anchor="start" x="16.5" y="-54.5" font-family="Helvetica,sans-Serif" font-size="10.00">+</text>
<text text-anchor="start" x="39" y="-54.5" font-family="Helvetica,sans-Serif" font-size="10.00">Give()</text>
<text text-anchor="start" x="16.5" y="-38.5" font-family="Helvetica,sans-Serif" font-size="10.00">+</text>
<text text-anchor="start" x="39" y="-38.5" font-family="Helvetica,sans-Serif" font-size="10.00">Take()</text>
<text text-anchor="start" x="16.5" y="-22.5" font-family="Helvetica,sans-Serif" font-size="10.00">+</text>
<text text-anchor="start" x="39" y="-22.5" font-family="Helvetica,sans-Serif" font-size="10.00">Clear()</text>
<text text-anchor="start" x="16.88" y="-6.5" font-family="Helvetica,sans-Serif" font-size="10.00">#</text>
<text text-anchor="start" x="39" y="-6.5" font-family="Helvetica,sans-Serif" font-size="10.00">OnContainerUpdate()</text>
<polygon fill="#666666" stroke="#666666" points="0,-82 0,-82 160,-82 160,-82 0,-82"/>
<polygon fill="#666666" stroke="#666666" points="0,-66 0,-66 160,-66 160,-66 0,-66"/>
<polygon fill="none" stroke="#666666" points="0,0 0,-100 160,-100 160,0 0,0"/>
</a>
</g>
</g>
<!-- Node3&#45;&gt;Node4 -->
<g id="edge3_Node000003_Node000004" class="edge">
<title>Node3&#45;&gt;Node4</title>
<g id="a_edge3_Node000003_Node000004"><a xlink:title=" ">
<path fill="none" stroke="#63b8ff" d="M107.51,-125.49C104.19,-116.49 101,-107.86 98.05,-99.86"/>
<polygon fill="none" stroke="#63b8ff" points="104.2,-126.61 110.94,-134.78 110.76,-124.18 104.2,-126.61"/>
</a>
</g>
</g>
<!-- Node5 -->
<g id="Node000005" class="node">
<title>Node5</title>
<g id="a_Node000005"><a xlink:href="class_p_a1_a_1_1_items_1_1_player_inventory.html" target="_top" xlink:title="Fixed size IContainer with fixed number of ISlot">
<polygon fill="white" stroke="none" points="311.5,-100 178.5,-100 178.5,0 311.5,0 311.5,-100"/>
<text text-anchor="start" x="183.12" y="-86.5" font-family="Helvetica,sans-Serif" font-size="10.00">PA1A.Items.PlayerInventory</text>
<text text-anchor="start" x="243.5" y="-70.5" font-family="Helvetica,sans-Serif" font-size="10.00"> </text>
<text text-anchor="start" x="190" y="-54.5" font-family="Helvetica,sans-Serif" font-size="10.00">+</text>
<text text-anchor="start" x="207.5" y="-54.5" font-family="Helvetica,sans-Serif" font-size="10.00">OnNetworkSpawn()</text>
<text text-anchor="start" x="190" y="-38.5" font-family="Helvetica,sans-Serif" font-size="10.00">+</text>
<text text-anchor="start" x="207.5" y="-38.5" font-family="Helvetica,sans-Serif" font-size="10.00">Give()</text>
<text text-anchor="start" x="190" y="-22.5" font-family="Helvetica,sans-Serif" font-size="10.00">+</text>
<text text-anchor="start" x="207.5" y="-22.5" font-family="Helvetica,sans-Serif" font-size="10.00">Take()</text>
<text text-anchor="start" x="190" y="-6.5" font-family="Helvetica,sans-Serif" font-size="10.00">+</text>
<text text-anchor="start" x="207.5" y="-6.5" font-family="Helvetica,sans-Serif" font-size="10.00">Clear()</text>
<polygon fill="#666666" stroke="#666666" points="178.5,-82 178.5,-82 311.5,-82 311.5,-82 178.5,-82"/>
<polygon fill="#666666" stroke="#666666" points="178.5,-66 178.5,-66 311.5,-66 311.5,-66 178.5,-66"/>
<polygon fill="none" stroke="#666666" points="178.5,0 178.5,-100 311.5,-100 311.5,0 178.5,0"/>
</a>
</g>
</g>
<!-- Node3&#45;&gt;Node5 -->
<g id="edge4_Node000003_Node000005" class="edge">
<title>Node3&#45;&gt;Node5</title>
<g id="a_edge4_Node000003_Node000005"><a xlink:title=" ">
<path fill="none" stroke="#63b8ff" d="M217.15,-125.49C220.51,-116.49 223.74,-107.86 226.73,-99.86"/>
<polygon fill="none" stroke="#63b8ff" points="213.9,-124.19 213.68,-134.78 220.46,-126.64 213.9,-124.19"/>
</a>
</g>
</g>
<!-- Node7 -->
<g id="Node000007" class="node">
<title>Node7</title>
<g id="a_Node000007"><a xlink:href="class_p_a1_a_1_1_items_1_1_slot.html" target="_top" xlink:title="Basic implementation of ISlot">
<polygon fill="white" stroke="none" points="365,-372 255,-372 255,-176 365,-176 365,-372"/>
<text text-anchor="start" x="273.62" y="-358.5" font-family="Helvetica,sans-Serif" font-size="10.00">PA1A.Items.Slot</text>
<text text-anchor="start" x="259" y="-342.5" font-family="Helvetica,sans-Serif" font-size="10.00">+</text>
<text text-anchor="start" x="269" y="-342.5" font-family="Helvetica,sans-Serif" font-size="10.00">Index</text>
<text text-anchor="start" x="259" y="-326.5" font-family="Helvetica,sans-Serif" font-size="10.00">+</text>
<text text-anchor="start" x="269" y="-326.5" font-family="Helvetica,sans-Serif" font-size="10.00">ItemStack</text>
<text text-anchor="start" x="259" y="-310.5" font-family="Helvetica,sans-Serif" font-size="10.00">+</text>
<text text-anchor="start" x="269" y="-310.5" font-family="Helvetica,sans-Serif" font-size="10.00">Slot()</text>
<text text-anchor="start" x="259" y="-294.5" font-family="Helvetica,sans-Serif" font-size="10.00">+</text>
<text text-anchor="start" x="269" y="-294.5" font-family="Helvetica,sans-Serif" font-size="10.00">GetMaximumSpace()</text>
<text text-anchor="start" x="259" y="-278.5" font-family="Helvetica,sans-Serif" font-size="10.00">+</text>
<text text-anchor="start" x="269" y="-278.5" font-family="Helvetica,sans-Serif" font-size="10.00">CanBeGiven()</text>
<text text-anchor="start" x="259" y="-262.5" font-family="Helvetica,sans-Serif" font-size="10.00">+</text>
<text text-anchor="start" x="269" y="-262.5" font-family="Helvetica,sans-Serif" font-size="10.00">CanBeTaken()</text>
<text text-anchor="start" x="259" y="-246.5" font-family="Helvetica,sans-Serif" font-size="10.00">+</text>
<text text-anchor="start" x="269" y="-246.5" font-family="Helvetica,sans-Serif" font-size="10.00">Give()</text>
<text text-anchor="start" x="259" y="-230.5" font-family="Helvetica,sans-Serif" font-size="10.00">+</text>
<text text-anchor="start" x="269" y="-230.5" font-family="Helvetica,sans-Serif" font-size="10.00">Take()</text>
<text text-anchor="start" x="259" y="-214.5" font-family="Helvetica,sans-Serif" font-size="10.00">+</text>
<text text-anchor="start" x="269" y="-214.5" font-family="Helvetica,sans-Serif" font-size="10.00">Take()</text>
<text text-anchor="start" x="259" y="-198.5" font-family="Helvetica,sans-Serif" font-size="10.00">+</text>
<text text-anchor="start" x="269" y="-198.5" font-family="Helvetica,sans-Serif" font-size="10.00">Clear()</text>
<text text-anchor="start" x="259" y="-182.5" font-family="Helvetica,sans-Serif" font-size="10.00">+</text>
<text text-anchor="start" x="269" y="-182.5" font-family="Helvetica,sans-Serif" font-size="10.00">Synchronize()</text>
<polygon fill="#666666" stroke="#666666" points="255,-354 255,-354 365,-354 365,-354 255,-354"/>
<polygon fill="#666666" stroke="#666666" points="255,-322 255,-322 267,-322 267,-322 255,-322"/>
<polygon fill="#666666" stroke="#666666" points="267,-322 267,-322 365,-322 365,-322 267,-322"/>
<polygon fill="none" stroke="#666666" points="255,-176 255,-372 365,-372 365,-176 255,-176"/>
</a>
</g>
</g>
<!-- Node6&#45;&gt;Node7 -->
<g id="edge6_Node000006_Node000007" class="edge">
<title>Node6&#45;&gt;Node7</title>
<g id="a_edge6_Node000006_Node000007"><a xlink:title=" ">
<path fill="none" stroke="#63b8ff" d="M310,-436.79C310,-416.44 310,-393.74 310,-371.93"/>
<polygon fill="none" stroke="#63b8ff" points="306.5,-436.63 310,-446.63 313.5,-436.63 306.5,-436.63"/>
</a>
</g>
</g>
</g>
</svg>
