<?xml version="1.0" encoding="UTF-8" standalone="no"?>
<!DOCTYPE svg PUBLIC "-//W3C//DTD SVG 1.1//EN"
 "http://www.w3.org/Graphics/SVG/1.1/DTD/svg11.dtd">
<!-- Generated by graphviz version 12.1.2 (20240928.0832)
 -->
<!-- Title: PA1A.Items.IStackContainer.CanBeTaken Pages: 1 -->
<svg width="357pt" height="128pt"
 viewBox="0.00 0.00 357.25 128.00" xmlns="http://www.w3.org/2000/svg" xmlns:xlink="http://www.w3.org/1999/xlink">
<g id="graph0" class="graph" transform="scale(1 1) rotate(0) translate(4 124)">
<title>PA1A.Items.IStackContainer.CanBeTaken</title>
<!-- Node1 -->
<g id="Node000001" class="node">
<title>Node1</title>
<g id="a_Node000001"><a xlink:title="Determines if the ItemStack is allowed by the IStackContainer to be taken from it &#160;This methods only ...">
<polygon fill="#999999" stroke="#666666" points="349.25,-70 204.25,-70 204.25,-38 349.25,-38 349.25,-70"/>
<text text-anchor="start" x="212.25" y="-56.5" font-family="Helvetica,sans-Serif" font-size="10.00">PA1A.Items.IStackContainer.</text>
<text text-anchor="middle" x="276.75" y="-44.5" font-family="Helvetica,sans-Serif" font-size="10.00">CanBeTaken</text>
</a>
</g>
</g>
<!-- Node2 -->
<g id="Node000002" class="node">
<title>Node2</title>
<g id="a_Node000002"><a xlink:href="class_p_a1_a_1_1_items_1_1_i_container_extensions.html#aad4c781ba082124495033e8f685b2414" target="_top" xlink:title="Determines the total number of ItemStack that could be taken from the IContainer">
<polygon fill="white" stroke="#666666" points="168.25,-120 0,-120 0,-88 168.25,-88 168.25,-120"/>
<text text-anchor="start" x="8" y="-106.5" font-family="Helvetica,sans-Serif" font-size="10.00">PA1A.Items.IContainerExtensions.</text>
<text text-anchor="middle" x="84.12" y="-94.5" font-family="Helvetica,sans-Serif" font-size="10.00">GetCount</text>
</a>
</g>
</g>
<!-- Node1&#45;&gt;Node2 -->
<g id="edge1_Node000001_Node000002" class="edge">
<title>Node1&#45;&gt;Node2</title>
<g id="a_edge1_Node000001_Node000002"><a xlink:title=" ">
<path fill="none" stroke="#63b8ff" d="M202.08,-73.32C184.17,-78.02 165.19,-83 147.84,-87.55"/>
<polygon fill="#63b8ff" stroke="#63b8ff" points="202.82,-76.75 211.6,-70.83 201.04,-69.98 202.82,-76.75"/>
</a>
</g>
</g>
<!-- Node3 -->
<g id="Node000003" class="node">
<title>Node3</title>
<g id="a_Node000003"><a xlink:href="class_p_a1_a_1_1_items_1_1_i_slot_extensions.html#a5cdbce008609f9cd7d94c0f63003a98e" target="_top" xlink:title="Determines the total number of ItemStack that could be taken from the ISlot">
<polygon fill="white" stroke="#666666" points="155.88,-70 12.38,-70 12.38,-38 155.88,-38 155.88,-70"/>
<text text-anchor="start" x="20.38" y="-56.5" font-family="Helvetica,sans-Serif" font-size="10.00">PA1A.Items.ISlotExtensions.</text>
<text text-anchor="middle" x="84.12" y="-44.5" font-family="Helvetica,sans-Serif" font-size="10.00">GetCount</text>
</a>
</g>
</g>
<!-- Node1&#45;&gt;Node3 -->
<g id="edge2_Node000001_Node000003" class="edge">
<title>Node1&#45;&gt;Node3</title>
<g id="a_edge2_Node000001_Node000003"><a xlink:title=" ">
<path fill="none" stroke="#63b8ff" d="M192.47,-54C180.39,-54 168.04,-54 156.22,-54"/>
<polygon fill="#63b8ff" stroke="#63b8ff" points="192.44,-57.5 202.44,-54 192.44,-50.5 192.44,-57.5"/>
</a>
</g>
</g>
<!-- Node4 -->
<g id="Node000004" class="node">
<title>Node4</title>
<g id="a_Node000004"><a xlink:href="class_p_a1_a_1_1_items_1_1_i_slot_extensions.html#a92d28c55a7daaea8ef31951db21d9960" target="_top" xlink:title="Swaps ItemStack of the two specified ISlot">
<polygon fill="white" stroke="#666666" points="168.25,-20 0,-20 0,0 168.25,0 168.25,-20"/>
<text text-anchor="middle" x="84.12" y="-6.5" font-family="Helvetica,sans-Serif" font-size="10.00">PA1A.Items.ISlotExtensions.Swap</text>
</a>
</g>
</g>
<!-- Node1&#45;&gt;Node4 -->
<g id="edge3_Node000001_Node000004" class="edge">
<title>Node1&#45;&gt;Node4</title>
<g id="a_edge3_Node000001_Node000004"><a xlink:title=" ">
<path fill="none" stroke="#63b8ff" d="M194.17,-34.99C185.42,-32.97 176.65,-30.94 168.25,-29 156.13,-26.21 143.02,-23.2 130.86,-20.42"/>
<polygon fill="#63b8ff" stroke="#63b8ff" points="193.21,-38.36 203.74,-37.21 194.79,-31.54 193.21,-38.36"/>
</a>
</g>
</g>
</g>
</svg>
