<?xml version="1.0" encoding="UTF-8" standalone="no"?>
<!DOCTYPE svg PUBLIC "-//W3C//DTD SVG 1.1//EN"
 "http://www.w3.org/Graphics/SVG/1.1/DTD/svg11.dtd">
<!-- Generated by graphviz version 12.1.2 (20240928.0832)
 -->
<!-- Title: CodeSmile.MultiPal.Input.GeneratedInput.IPairingActions Pages: 1 -->
<svg width="180pt" height="508pt"
 viewBox="0.00 0.00 180.00 508.00" xmlns="http://www.w3.org/2000/svg" xmlns:xlink="http://www.w3.org/1999/xlink">
<g id="graph0" class="graph" transform="scale(1 1) rotate(0) translate(4 504)">
<title>CodeSmile.MultiPal.Input.GeneratedInput.IPairingActions</title>
<!-- Node1 -->
<g id="Node000001" class="node">
<title>Node1</title>
<g id="a_Node000001"><a xlink:title=" ">
<polygon fill="#999999" stroke="none" points="158.5,-500 13.5,-500 13.5,-420 158.5,-420 158.5,-500"/>
<text text-anchor="start" x="18.12" y="-486.5" font-family="Helvetica,sans-Serif" font-size="10.00">CodeSmile.MultiPal.Input.</text>
<text text-anchor="start" x="18.12" y="-474.5" font-family="Helvetica,sans-Serif" font-size="10.00">GeneratedInput.IPairingActions</text>
<text text-anchor="start" x="84.5" y="-458.5" font-family="Helvetica,sans-Serif" font-size="10.00"> </text>
<text text-anchor="start" x="38" y="-442.5" font-family="Helvetica,sans-Serif" font-size="10.00">+</text>
<text text-anchor="start" x="68.5" y="-442.5" font-family="Helvetica,sans-Serif" font-size="10.00">OnJoin()</text>
<text text-anchor="start" x="38" y="-426.5" font-family="Helvetica,sans-Serif" font-size="10.00">+</text>
<text text-anchor="start" x="68.5" y="-426.5" font-family="Helvetica,sans-Serif" font-size="10.00">OnLeave()</text>
<polygon fill="#666666" stroke="#666666" points="13.5,-470 13.5,-470 158.5,-470 158.5,-470 13.5,-470"/>
<polygon fill="#666666" stroke="#666666" points="13.5,-454 13.5,-454 158.5,-454 158.5,-454 13.5,-454"/>
<polygon fill="none" stroke="#666666" points="13.5,-420 13.5,-500 158.5,-500 158.5,-420 13.5,-420"/>
</a>
</g>
</g>
<!-- Node2 -->
<g id="Node000002" class="node">
<title>Node2</title>
<g id="a_Node000002"><a xlink:href="class_code_smile_1_1_multi_pal_1_1_input_1_1_input_users.html" target="_top" xlink:title=" ">
<polygon fill="white" stroke="none" points="172,-384 0,-384 0,0 172,0 172,-384"/>
<text text-anchor="start" x="29" y="-370.5" font-family="Helvetica,sans-Serif" font-size="10.00">CodeSmile.MultiPal.Input.</text>
<text text-anchor="start" x="62" y="-358.5" font-family="Helvetica,sans-Serif" font-size="10.00">InputUsers</text>
<text text-anchor="start" x="4" y="-342.5" font-family="Helvetica,sans-Serif" font-size="10.00">+</text>
<text text-anchor="start" x="14" y="-342.5" font-family="Helvetica,sans-Serif" font-size="10.00">AllPairingEnabled</text>
<text text-anchor="start" x="4" y="-326.5" font-family="Helvetica,sans-Serif" font-size="10.00">+</text>
<text text-anchor="start" x="14" y="-326.5" font-family="Helvetica,sans-Serif" font-size="10.00">AllUiEnabled</text>
<text text-anchor="start" x="4" y="-310.5" font-family="Helvetica,sans-Serif" font-size="10.00">+</text>
<text text-anchor="start" x="14" y="-310.5" font-family="Helvetica,sans-Serif" font-size="10.00">AllPlayerKinematicsEnabled</text>
<text text-anchor="start" x="4" y="-294.5" font-family="Helvetica,sans-Serif" font-size="10.00">+</text>
<text text-anchor="start" x="14" y="-294.5" font-family="Helvetica,sans-Serif" font-size="10.00">AllPlayerInteractionEnabled</text>
<text text-anchor="start" x="4" y="-278.5" font-family="Helvetica,sans-Serif" font-size="10.00">+</text>
<text text-anchor="start" x="14" y="-278.5" font-family="Helvetica,sans-Serif" font-size="10.00">AllPlayerUiEnabled</text>
<text text-anchor="start" x="4" y="-262.5" font-family="Helvetica,sans-Serif" font-size="10.00">+</text>
<text text-anchor="start" x="14" y="-262.5" font-family="Helvetica,sans-Serif" font-size="10.00">PairedUsers</text>
<text text-anchor="start" x="4" y="-246.5" font-family="Helvetica,sans-Serif" font-size="10.00">+</text>
<text text-anchor="start" x="14" y="-246.5" font-family="Helvetica,sans-Serif" font-size="10.00">HostUser</text>
<text text-anchor="start" x="4" y="-230.5" font-family="Helvetica,sans-Serif" font-size="10.00">+</text>
<text text-anchor="start" x="14" y="-230.5" font-family="Helvetica,sans-Serif" font-size="10.00">SetUiCallback()</text>
<text text-anchor="start" x="4" y="-214.5" font-family="Helvetica,sans-Serif" font-size="10.00">+</text>
<text text-anchor="start" x="14" y="-214.5" font-family="Helvetica,sans-Serif" font-size="10.00">SetUiEnabled()</text>
<text text-anchor="start" x="4" y="-198.5" font-family="Helvetica,sans-Serif" font-size="10.00">+</text>
<text text-anchor="start" x="14" y="-198.5" font-family="Helvetica,sans-Serif" font-size="10.00">SetPlayerKinematicsCallback()</text>
<text text-anchor="start" x="4" y="-182.5" font-family="Helvetica,sans-Serif" font-size="10.00">+</text>
<text text-anchor="start" x="14" y="-182.5" font-family="Helvetica,sans-Serif" font-size="10.00">SetPlayerKinematicsEnabled()</text>
<text text-anchor="start" x="4" y="-166.5" font-family="Helvetica,sans-Serif" font-size="10.00">+</text>
<text text-anchor="start" x="14" y="-166.5" font-family="Helvetica,sans-Serif" font-size="10.00">SetPlayerInteractionCallback()</text>
<text text-anchor="start" x="4" y="-150.5" font-family="Helvetica,sans-Serif" font-size="10.00">+</text>
<text text-anchor="start" x="14" y="-150.5" font-family="Helvetica,sans-Serif" font-size="10.00">SetPlayerInteractionEnabled()</text>
<text text-anchor="start" x="4" y="-134.5" font-family="Helvetica,sans-Serif" font-size="10.00">+</text>
<text text-anchor="start" x="14" y="-134.5" font-family="Helvetica,sans-Serif" font-size="10.00">SetPlayerUiCallback()</text>
<text text-anchor="start" x="4" y="-118.5" font-family="Helvetica,sans-Serif" font-size="10.00">+</text>
<text text-anchor="start" x="14" y="-118.5" font-family="Helvetica,sans-Serif" font-size="10.00">SetPlayerUiEnabled()</text>
<text text-anchor="start" x="4" y="-102.5" font-family="Helvetica,sans-Serif" font-size="10.00">+</text>
<text text-anchor="start" x="14" y="-102.5" font-family="Helvetica,sans-Serif" font-size="10.00">SetPlayerUiRequestMenuEnabled()</text>
<text text-anchor="start" x="4" y="-86.5" font-family="Helvetica,sans-Serif" font-size="10.00">+</text>
<text text-anchor="start" x="14" y="-86.5" font-family="Helvetica,sans-Serif" font-size="10.00">LogActionEnabledness()</text>
<text text-anchor="start" x="4" y="-70.5" font-family="Helvetica,sans-Serif" font-size="10.00">+</text>
<text text-anchor="start" x="14" y="-70.5" font-family="Helvetica,sans-Serif" font-size="10.00">OnJoin()</text>
<text text-anchor="start" x="4" y="-54.5" font-family="Helvetica,sans-Serif" font-size="10.00">+</text>
<text text-anchor="start" x="14" y="-54.5" font-family="Helvetica,sans-Serif" font-size="10.00">OnLeave()</text>
<text text-anchor="start" x="4" y="-38.5" font-family="Helvetica,sans-Serif" font-size="10.00">+</text>
<text text-anchor="start" x="14" y="-38.5" font-family="Helvetica,sans-Serif" font-size="10.00">UnpairAll()</text>
<text text-anchor="start" x="4" y="-22.5" font-family="Helvetica,sans-Serif" font-size="10.00">+</text>
<text text-anchor="start" x="14" y="-22.5" font-family="Helvetica,sans-Serif" font-size="10.00">GetUserIndex()</text>
<text text-anchor="start" x="4" y="-6.5" font-family="Helvetica,sans-Serif" font-size="10.00">+</text>
<text text-anchor="start" x="14" y="-6.5" font-family="Helvetica,sans-Serif" font-size="10.00">GetUserIndex()</text>
<polygon fill="#666666" stroke="#666666" points="0,-354 0,-354 172,-354 172,-354 0,-354"/>
<polygon fill="#666666" stroke="#666666" points="0,-242 0,-242 12,-242 12,-242 0,-242"/>
<polygon fill="#666666" stroke="#666666" points="12,-242 12,-242 172,-242 172,-242 12,-242"/>
<polygon fill="none" stroke="#666666" points="0,0 0,-384 172,-384 172,0 0,0"/>
</a>
</g>
</g>
<!-- Node1&#45;&gt;Node2 -->
<g id="edge1_Node000001_Node000002" class="edge">
<title>Node1&#45;&gt;Node2</title>
<g id="a_edge1_Node000001_Node000002"><a xlink:title=" ">
<path fill="none" stroke="#63b8ff" d="M86,-408.74C86,-400.96 86,-392.56 86,-383.73"/>
<polygon fill="none" stroke="#63b8ff" points="82.5,-408.52 86,-418.52 89.5,-408.52 82.5,-408.52"/>
</a>
</g>
</g>
</g>
</svg>
