<?xml version="1.0" encoding="UTF-8" standalone="no"?>
<!DOCTYPE svg PUBLIC "-//W3C//DTD SVG 1.1//EN"
 "http://www.w3.org/Graphics/SVG/1.1/DTD/svg11.dtd">
<!-- Generated by graphviz version 12.1.2 (20240928.0832)
 -->
<!-- Title: PA1A.EventBus.Events.IEvent Pages: 1 -->
<svg width="308pt" height="176pt"
 viewBox="0.00 0.00 307.50 176.00" xmlns="http://www.w3.org/2000/svg" xmlns:xlink="http://www.w3.org/1999/xlink">

<svg id="main" version="1.1" xmlns="http://www.w3.org/2000/svg" xmlns:xlink="http://www.w3.org/1999/xlink" xml:space="preserve">

<style type="text/css"><![CDATA[
.node, .edge {opacity: 0.7;}
.node.selected, .edge.selected {opacity: 1;}
.edge:hover path { stroke: red; }
.edge:hover polygon { stroke: red; fill: red; }
]]></style>
<script type="application/ecmascript" xlink:href="svg.min.js"/>
<svg id="graph" class="graph">
<g id="graph0" class="graph" transform="scale(1 1) rotate(0) translate(4 172)">
<title>PA1A.EventBus.Events.IEvent</title>
<!-- Node1 -->
<g id="Node000001" class="node">
<title>Node1</title>
<g id="a_Node000001"><a xlink:title=" ">
<polygon fill="#999999" stroke="none" points="224,-168 79,-168 79,-116 224,-116 224,-168"/>
<text text-anchor="start" x="83.62" y="-154.5" font-family="Helvetica,sans-Serif" font-size="10.00">PA1A.EventBus.Events.IEvent</text>
<text text-anchor="start" x="150" y="-138.5" font-family="Helvetica,sans-Serif" font-size="10.00"> </text>
<text text-anchor="start" x="150" y="-122.5" font-family="Helvetica,sans-Serif" font-size="10.00"> </text>
<polygon fill="#666666" stroke="#666666" points="79,-150 79,-150 224,-150 224,-150 79,-150"/>
<polygon fill="#666666" stroke="#666666" points="79,-134 79,-134 224,-134 224,-134 79,-134"/>
<polygon fill="none" stroke="#666666" points="79,-116 79,-168 224,-168 224,-116 79,-116"/>
</a>
</g>
</g>
<!-- Node2 -->
<g id="Node000002" class="node">
<title>Node2</title>
<g id="a_Node000002"><a xlink:href="struct_p_a1_a_1_1_event_bus_1_1_events_1_1_player_event.html" target="_top" xlink:title=" ">
<polygon fill="white" stroke="none" points="145,-80 0,-80 0,0 145,0 145,-80"/>
<text text-anchor="start" x="5" y="-66.5" font-family="Helvetica,sans-Serif" font-size="10.00">PA1A.EventBus.Events.Player</text>
<text text-anchor="start" x="59.75" y="-54.5" font-family="Helvetica,sans-Serif" font-size="10.00">Event</text>
<text text-anchor="start" x="27.5" y="-38.5" font-family="Helvetica,sans-Serif" font-size="10.00">+</text>
<text text-anchor="start" x="61" y="-38.5" font-family="Helvetica,sans-Serif" font-size="10.00">health</text>
<text text-anchor="start" x="27.5" y="-22.5" font-family="Helvetica,sans-Serif" font-size="10.00">+</text>
<text text-anchor="start" x="61" y="-22.5" font-family="Helvetica,sans-Serif" font-size="10.00">position</text>
<text text-anchor="start" x="71" y="-6.5" font-family="Helvetica,sans-Serif" font-size="10.00"> </text>
<polygon fill="#666666" stroke="#666666" points="0,-50 0,-50 145,-50 145,-50 0,-50"/>
<polygon fill="#666666" stroke="#666666" points="0,-18 0,-18 59,-18 59,-18 0,-18"/>
<polygon fill="#666666" stroke="#666666" points="59,-18 59,-18 145,-18 145,-18 59,-18"/>
<polygon fill="none" stroke="#666666" points="0,0 0,-80 145,-80 145,0 0,0"/>
</a>
</g>
</g>
<!-- Node1&#45;&gt;Node2 -->
<g id="edge1_Node000001_Node000002" class="edge">
<title>Node1&#45;&gt;Node2</title>
<g id="a_edge1_Node000001_Node000002"><a xlink:title=" ">
<path fill="none" stroke="#63b8ff" d="M124.75,-107.14C117.77,-98.31 110.2,-88.72 103.04,-79.65"/>
<polygon fill="none" stroke="#63b8ff" points="121.89,-109.16 130.83,-114.84 127.38,-104.82 121.89,-109.16"/>
</a>
</g>
</g>
<!-- Node3 -->
<g id="Node000003" class="node">
<title>Node3</title>
<g id="a_Node000003"><a xlink:href="struct_p_a1_a_1_1_event_bus_1_1_events_1_1_test_event.html" target="_top" xlink:title=" ">
<polygon fill="white" stroke="none" points="299.5,-72 163.5,-72 163.5,-8 299.5,-8 299.5,-72"/>
<text text-anchor="start" x="168.5" y="-58.5" font-family="Helvetica,sans-Serif" font-size="10.00">PA1A.EventBus.Events.Test</text>
<text text-anchor="start" x="218.75" y="-46.5" font-family="Helvetica,sans-Serif" font-size="10.00">Event</text>
<text text-anchor="start" x="230" y="-30.5" font-family="Helvetica,sans-Serif" font-size="10.00"> </text>
<text text-anchor="start" x="230" y="-14.5" font-family="Helvetica,sans-Serif" font-size="10.00"> </text>
<polygon fill="#666666" stroke="#666666" points="163.5,-42 163.5,-42 299.5,-42 299.5,-42 163.5,-42"/>
<polygon fill="#666666" stroke="#666666" points="163.5,-26 163.5,-26 299.5,-26 299.5,-26 163.5,-26"/>
<polygon fill="none" stroke="#666666" points="163.5,-8 163.5,-72 299.5,-72 299.5,-8 163.5,-8"/>
</a>
</g>
</g>
<!-- Node1&#45;&gt;Node3 -->
<g id="edge2_Node000001_Node000003" class="edge">
<title>Node1&#45;&gt;Node3</title>
<g id="a_edge2_Node000001_Node000003"><a xlink:title=" ">
<path fill="none" stroke="#63b8ff" d="M178.58,-107.15C187.75,-95.68 197.95,-82.94 206.92,-71.73"/>
<polygon fill="none" stroke="#63b8ff" points="175.94,-104.85 172.43,-114.84 181.41,-109.22 175.94,-104.85"/>
</a>
</g>
</g>
</g>
</svg>
</svg>

<style type='text/css'>
<![CDATA[
[data-mouse-over-selected='false'] { opacity: 0.7; }
[data-mouse-over-selected='true']  { opacity: 1.0; }
]]>
</style>
<script type="application/ecmascript"><![CDATA[
document.addEventListener('DOMContentLoaded', (event) => {
  highlightEdges();
  highlightAdjacentNodes();
});
]]></script>
</svg>
