<?xml version="1.0" encoding="UTF-8" standalone="no"?>
<!DOCTYPE svg PUBLIC "-//W3C//DTD SVG 1.1//EN"
 "http://www.w3.org/Graphics/SVG/1.1/DTD/svg11.dtd">
<!-- Generated by graphviz version 12.1.2 (20240928.0832)
 -->
<!-- Title: CodeSmile.MultiPal.Input.GeneratedInput.PairingActions.SetCallbacks Pages: 1 -->
<svg width="538pt" height="114pt"
 viewBox="0.00 0.00 538.25 114.00" xmlns="http://www.w3.org/2000/svg" xmlns:xlink="http://www.w3.org/1999/xlink">
<g id="graph0" class="graph" transform="scale(1 1) rotate(0) translate(4 110)">
<title>CodeSmile.MultiPal.Input.GeneratedInput.PairingActions.SetCallbacks</title>
<!-- Node1 -->
<g id="Node000001" class="node">
<title>Node1</title>
<g id="a_Node000001"><a xlink:title=" ">
<polygon fill="#999999" stroke="#666666" points="151.75,-75 0,-75 0,-31 151.75,-31 151.75,-75"/>
<text text-anchor="start" x="8" y="-61.5" font-family="Helvetica,sans-Serif" font-size="10.00">CodeSmile.MultiPal.Input.</text>
<text text-anchor="start" x="8" y="-49.5" font-family="Helvetica,sans-Serif" font-size="10.00">GeneratedInput.PairingActions.</text>
<text text-anchor="middle" x="75.88" y="-37.5" font-family="Helvetica,sans-Serif" font-size="10.00">SetCallbacks</text>
</a>
</g>
</g>
<!-- Node2 -->
<g id="Node000002" class="node">
<title>Node2</title>
<g id="a_Node000002"><a xlink:href="struct_code_smile_1_1_multi_pal_1_1_input_1_1_generated_input_1_1_pairing_actions.html#a8de9dc8872ba09e70ffa14e203889ac0" target="_top" xlink:title=" ">
<polygon fill="white" stroke="#666666" points="339.5,-75 187.75,-75 187.75,-31 339.5,-31 339.5,-75"/>
<text text-anchor="start" x="195.75" y="-61.5" font-family="Helvetica,sans-Serif" font-size="10.00">CodeSmile.MultiPal.Input.</text>
<text text-anchor="start" x="195.75" y="-49.5" font-family="Helvetica,sans-Serif" font-size="10.00">GeneratedInput.PairingActions.</text>
<text text-anchor="middle" x="263.62" y="-37.5" font-family="Helvetica,sans-Serif" font-size="10.00">AddCallbacks</text>
</a>
</g>
</g>
<!-- Node1&#45;&gt;Node2 -->
<g id="edge1_Node000001_Node000002" class="edge">
<title>Node1&#45;&gt;Node2</title>
<g id="a_edge1_Node000001_Node000002"><a xlink:title=" ">
<path fill="none" stroke="#63b8ff" d="M152.16,-53C160.09,-53 168.19,-53 176.24,-53"/>
<polygon fill="#63b8ff" stroke="#63b8ff" points="176.02,-56.5 186.02,-53 176.02,-49.5 176.02,-56.5"/>
</a>
</g>
</g>
<!-- Node3 -->
<g id="Node000003" class="node">
<title>Node3</title>
<g id="a_Node000003"><a xlink:href="interface_code_smile_1_1_multi_pal_1_1_input_1_1_generated_input_1_1_i_pairing_actions.html#ad835ec9a080db14b345d50801a1b8b9f" target="_top" xlink:title=" ">
<polygon fill="white" stroke="#666666" points="530.25,-106 375.5,-106 375.5,-62 530.25,-62 530.25,-106"/>
<text text-anchor="start" x="383.5" y="-92.5" font-family="Helvetica,sans-Serif" font-size="10.00">CodeSmile.MultiPal.Input.</text>
<text text-anchor="start" x="383.5" y="-80.5" font-family="Helvetica,sans-Serif" font-size="10.00">GeneratedInput.IPairingActions.</text>
<text text-anchor="middle" x="452.88" y="-68.5" font-family="Helvetica,sans-Serif" font-size="10.00">OnJoin</text>
</a>
</g>
</g>
<!-- Node2&#45;&gt;Node3 -->
<g id="edge2_Node000002_Node000003" class="edge">
<title>Node2&#45;&gt;Node3</title>
<g id="a_edge2_Node000002_Node000003"><a xlink:title=" ">
<path fill="none" stroke="#63b8ff" d="M339.98,-65.47C347.85,-66.78 355.91,-68.11 363.9,-69.44"/>
<polygon fill="#63b8ff" stroke="#63b8ff" points="363.22,-72.87 373.66,-71.05 364.36,-65.96 363.22,-72.87"/>
</a>
</g>
</g>
<!-- Node4 -->
<g id="Node000004" class="node">
<title>Node4</title>
<g id="a_Node000004"><a xlink:href="interface_code_smile_1_1_multi_pal_1_1_input_1_1_generated_input_1_1_i_pairing_actions.html#acedb6229413e119e4f9be7cb958befda" target="_top" xlink:title=" ">
<polygon fill="white" stroke="#666666" points="530.25,-44 375.5,-44 375.5,0 530.25,0 530.25,-44"/>
<text text-anchor="start" x="383.5" y="-30.5" font-family="Helvetica,sans-Serif" font-size="10.00">CodeSmile.MultiPal.Input.</text>
<text text-anchor="start" x="383.5" y="-18.5" font-family="Helvetica,sans-Serif" font-size="10.00">GeneratedInput.IPairingActions.</text>
<text text-anchor="middle" x="452.88" y="-6.5" font-family="Helvetica,sans-Serif" font-size="10.00">OnLeave</text>
</a>
</g>
</g>
<!-- Node2&#45;&gt;Node4 -->
<g id="edge3_Node000002_Node000004" class="edge">
<title>Node2&#45;&gt;Node4</title>
<g id="a_edge3_Node000002_Node000004"><a xlink:title=" ">
<path fill="none" stroke="#63b8ff" d="M339.98,-40.53C347.85,-39.22 355.91,-37.89 363.9,-36.56"/>
<polygon fill="#63b8ff" stroke="#63b8ff" points="364.36,-40.04 373.66,-34.95 363.22,-33.13 364.36,-40.04"/>
</a>
</g>
</g>
</g>
</svg>
