<?xml version="1.0" encoding="UTF-8" standalone="no"?>
<!DOCTYPE svg PUBLIC "-//W3C//DTD SVG 1.1//EN"
 "http://www.w3.org/Graphics/SVG/1.1/DTD/svg11.dtd">
<!-- Generated by graphviz version 12.1.2 (20240928.0832)
 -->
<!-- Title: CodeSmile.MultiPal.Input.GeneratedInput.PlayerKinematicsActions.SetCallbacks Pages: 1 -->
<svg width="570pt" height="300pt"
 viewBox="0.00 0.00 569.75 300.00" xmlns="http://www.w3.org/2000/svg" xmlns:xlink="http://www.w3.org/1999/xlink">
<g id="graph0" class="graph" transform="scale(1 1) rotate(0) translate(4 296)">
<title>CodeSmile.MultiPal.Input.GeneratedInput.PlayerKinematicsActions.SetCallbacks</title>
<!-- Node1 -->
<g id="Node000001" class="node">
<title>Node1</title>
<g id="a_Node000001"><a xlink:title=" ">
<polygon fill="#999999" stroke="#666666" points="162.25,-168 0,-168 0,-124 162.25,-124 162.25,-168"/>
<text text-anchor="start" x="8" y="-154.5" font-family="Helvetica,sans-Serif" font-size="10.00">CodeSmile.MultiPal.Input.</text>
<text text-anchor="start" x="8" y="-142.5" font-family="Helvetica,sans-Serif" font-size="10.00">GeneratedInput.PlayerKinematics</text>
<text text-anchor="middle" x="81.12" y="-130.5" font-family="Helvetica,sans-Serif" font-size="10.00">Actions.SetCallbacks</text>
</a>
</g>
</g>
<!-- Node2 -->
<g id="Node000002" class="node">
<title>Node2</title>
<g id="a_Node000002"><a xlink:href="struct_code_smile_1_1_multi_pal_1_1_input_1_1_generated_input_1_1_player_kinematics_actions.html#a0c6e893b79a709fc0412cfa7037f7ac7" target="_top" xlink:title=" ">
<polygon fill="white" stroke="#666666" points="360.5,-168 198.25,-168 198.25,-124 360.5,-124 360.5,-168"/>
<text text-anchor="start" x="206.25" y="-154.5" font-family="Helvetica,sans-Serif" font-size="10.00">CodeSmile.MultiPal.Input.</text>
<text text-anchor="start" x="206.25" y="-142.5" font-family="Helvetica,sans-Serif" font-size="10.00">GeneratedInput.PlayerKinematics</text>
<text text-anchor="middle" x="279.38" y="-130.5" font-family="Helvetica,sans-Serif" font-size="10.00">Actions.AddCallbacks</text>
</a>
</g>
</g>
<!-- Node1&#45;&gt;Node2 -->
<g id="edge1_Node000001_Node000002" class="edge">
<title>Node1&#45;&gt;Node2</title>
<g id="a_edge1_Node000001_Node000002"><a xlink:title=" ">
<path fill="none" stroke="#63b8ff" d="M162.51,-146C170.43,-146 178.5,-146 186.52,-146"/>
<polygon fill="#63b8ff" stroke="#63b8ff" points="186.28,-149.5 196.28,-146 186.28,-142.5 186.28,-149.5"/>
</a>
</g>
</g>
<!-- Node3 -->
<g id="Node000003" class="node">
<title>Node3</title>
<g id="a_Node000003"><a xlink:href="interface_code_smile_1_1_multi_pal_1_1_input_1_1_generated_input_1_1_i_player_kinematics_actions.html#ad57e88c0b4571ced60e549ad988eefad" target="_top" xlink:title=" ">
<polygon fill="white" stroke="#666666" points="561.75,-292 396.5,-292 396.5,-248 561.75,-248 561.75,-292"/>
<text text-anchor="start" x="404.5" y="-278.5" font-family="Helvetica,sans-Serif" font-size="10.00">CodeSmile.MultiPal.Input.</text>
<text text-anchor="start" x="404.5" y="-266.5" font-family="Helvetica,sans-Serif" font-size="10.00">GeneratedInput.IPlayerKinematics</text>
<text text-anchor="middle" x="479.12" y="-254.5" font-family="Helvetica,sans-Serif" font-size="10.00">Actions.OnCrouch</text>
</a>
</g>
</g>
<!-- Node2&#45;&gt;Node3 -->
<g id="edge2_Node000002_Node000003" class="edge">
<title>Node2&#45;&gt;Node3</title>
<g id="a_edge2_Node000002_Node000003"><a xlink:title=" ">
<path fill="none" stroke="#63b8ff" d="M303.67,-168.33C326.05,-188.85 361.52,-219.01 396.5,-239 398.69,-240.25 400.94,-241.47 403.24,-242.66"/>
<polygon fill="#63b8ff" stroke="#63b8ff" points="401.64,-245.78 412.17,-246.99 404.7,-239.48 401.64,-245.78"/>
</a>
</g>
</g>
<!-- Node4 -->
<g id="Node000004" class="node">
<title>Node4</title>
<g id="a_Node000004"><a xlink:href="interface_code_smile_1_1_multi_pal_1_1_input_1_1_generated_input_1_1_i_player_kinematics_actions.html#ae2e6ad4e2908ef910f4d82f82dbe585d" target="_top" xlink:title=" ">
<polygon fill="white" stroke="#666666" points="561.75,-230 396.5,-230 396.5,-186 561.75,-186 561.75,-230"/>
<text text-anchor="start" x="404.5" y="-216.5" font-family="Helvetica,sans-Serif" font-size="10.00">CodeSmile.MultiPal.Input.</text>
<text text-anchor="start" x="404.5" y="-204.5" font-family="Helvetica,sans-Serif" font-size="10.00">GeneratedInput.IPlayerKinematics</text>
<text text-anchor="middle" x="479.12" y="-192.5" font-family="Helvetica,sans-Serif" font-size="10.00">Actions.OnJump</text>
</a>
</g>
</g>
<!-- Node2&#45;&gt;Node4 -->
<g id="edge3_Node000002_Node000004" class="edge">
<title>Node2&#45;&gt;Node4</title>
<g id="a_edge3_Node000002_Node000004"><a xlink:title=" ">
<path fill="none" stroke="#63b8ff" d="M352.05,-168.47C366.14,-172.89 381.03,-177.56 395.45,-182.08"/>
<polygon fill="#63b8ff" stroke="#63b8ff" points="394.33,-185.4 404.92,-185.05 396.43,-178.72 394.33,-185.4"/>
</a>
</g>
</g>
<!-- Node5 -->
<g id="Node000005" class="node">
<title>Node5</title>
<g id="a_Node000005"><a xlink:href="interface_code_smile_1_1_multi_pal_1_1_input_1_1_generated_input_1_1_i_player_kinematics_actions.html#a4945df2915a9322987dfa1daadfa1343" target="_top" xlink:title=" ">
<polygon fill="white" stroke="#666666" points="561.75,-168 396.5,-168 396.5,-124 561.75,-124 561.75,-168"/>
<text text-anchor="start" x="404.5" y="-154.5" font-family="Helvetica,sans-Serif" font-size="10.00">CodeSmile.MultiPal.Input.</text>
<text text-anchor="start" x="404.5" y="-142.5" font-family="Helvetica,sans-Serif" font-size="10.00">GeneratedInput.IPlayerKinematics</text>
<text text-anchor="middle" x="479.12" y="-130.5" font-family="Helvetica,sans-Serif" font-size="10.00">Actions.OnLook</text>
</a>
</g>
</g>
<!-- Node2&#45;&gt;Node5 -->
<g id="edge4_Node000002_Node000005" class="edge">
<title>Node2&#45;&gt;Node5</title>
<g id="a_edge4_Node000002_Node000005"><a xlink:title=" ">
<path fill="none" stroke="#63b8ff" d="M360.81,-146C368.73,-146 376.82,-146 384.85,-146"/>
<polygon fill="#63b8ff" stroke="#63b8ff" points="384.64,-149.5 394.64,-146 384.64,-142.5 384.64,-149.5"/>
</a>
</g>
</g>
<!-- Node6 -->
<g id="Node000006" class="node">
<title>Node6</title>
<g id="a_Node000006"><a xlink:href="interface_code_smile_1_1_multi_pal_1_1_input_1_1_generated_input_1_1_i_player_kinematics_actions.html#a28d1ac31e43a00e8747f137496a9c5f2" target="_top" xlink:title=" ">
<polygon fill="white" stroke="#666666" points="561.75,-106 396.5,-106 396.5,-62 561.75,-62 561.75,-106"/>
<text text-anchor="start" x="404.5" y="-92.5" font-family="Helvetica,sans-Serif" font-size="10.00">CodeSmile.MultiPal.Input.</text>
<text text-anchor="start" x="404.5" y="-80.5" font-family="Helvetica,sans-Serif" font-size="10.00">GeneratedInput.IPlayerKinematics</text>
<text text-anchor="middle" x="479.12" y="-68.5" font-family="Helvetica,sans-Serif" font-size="10.00">Actions.OnMove</text>
</a>
</g>
</g>
<!-- Node2&#45;&gt;Node6 -->
<g id="edge5_Node000002_Node000006" class="edge">
<title>Node2&#45;&gt;Node6</title>
<g id="a_edge5_Node000002_Node000006"><a xlink:title=" ">
<path fill="none" stroke="#63b8ff" d="M352.05,-123.53C366.14,-119.11 381.03,-114.44 395.45,-109.92"/>
<polygon fill="#63b8ff" stroke="#63b8ff" points="396.43,-113.28 404.92,-106.95 394.33,-106.6 396.43,-113.28"/>
</a>
</g>
</g>
<!-- Node7 -->
<g id="Node000007" class="node">
<title>Node7</title>
<g id="a_Node000007"><a xlink:href="interface_code_smile_1_1_multi_pal_1_1_input_1_1_generated_input_1_1_i_player_kinematics_actions.html#a1967bb3f318d22453f8a28dde9a3d68c" target="_top" xlink:title=" ">
<polygon fill="white" stroke="#666666" points="561.75,-44 396.5,-44 396.5,0 561.75,0 561.75,-44"/>
<text text-anchor="start" x="404.5" y="-30.5" font-family="Helvetica,sans-Serif" font-size="10.00">CodeSmile.MultiPal.Input.</text>
<text text-anchor="start" x="404.5" y="-18.5" font-family="Helvetica,sans-Serif" font-size="10.00">GeneratedInput.IPlayerKinematics</text>
<text text-anchor="middle" x="479.12" y="-6.5" font-family="Helvetica,sans-Serif" font-size="10.00">Actions.OnSprint</text>
</a>
</g>
</g>
<!-- Node2&#45;&gt;Node7 -->
<g id="edge6_Node000002_Node000007" class="edge">
<title>Node2&#45;&gt;Node7</title>
<g id="a_edge6_Node000002_Node000007"><a xlink:title=" ">
<path fill="none" stroke="#63b8ff" d="M303.67,-123.67C326.05,-103.15 361.52,-72.99 396.5,-53 398.69,-51.75 400.94,-50.53 403.24,-49.34"/>
<polygon fill="#63b8ff" stroke="#63b8ff" points="404.7,-52.52 412.17,-45.01 401.64,-46.22 404.7,-52.52"/>
</a>
</g>
</g>
</g>
</svg>
