<?xml version="1.0" encoding="UTF-8" standalone="no"?>
<!DOCTYPE svg PUBLIC "-//W3C//DTD SVG 1.1//EN"
 "http://www.w3.org/Graphics/SVG/1.1/DTD/svg11.dtd">
<!-- Generated by graphviz version 12.1.2 (20240928.0832)
 -->
<!-- Title: CodeSmile.MultiPal.Input.GeneratedInput.UIActions.SetCallbacks Pages: 1 -->
<svg width="664pt" height="514pt"
 viewBox="0.00 0.00 664.25 514.00" xmlns="http://www.w3.org/2000/svg" xmlns:xlink="http://www.w3.org/1999/xlink">
<g id="graph0" class="graph" transform="scale(1 1) rotate(0) translate(4 510)">
<title>CodeSmile.MultiPal.Input.GeneratedInput.UIActions.SetCallbacks</title>
<!-- Node1 -->
<g id="Node000001" class="node">
<title>Node1</title>
<g id="a_Node000001"><a xlink:title=" ">
<polygon fill="#999999" stroke="#666666" points="190.75,-281 0,-281 0,-249 190.75,-249 190.75,-281"/>
<text text-anchor="start" x="8" y="-267.5" font-family="Helvetica,sans-Serif" font-size="10.00">CodeSmile.MultiPal.Input.</text>
<text text-anchor="middle" x="95.38" y="-255.5" font-family="Helvetica,sans-Serif" font-size="10.00">GeneratedInput.UIActions.SetCallbacks</text>
</a>
</g>
</g>
<!-- Node2 -->
<g id="Node000002" class="node">
<title>Node2</title>
<g id="a_Node000002"><a xlink:href="struct_code_smile_1_1_multi_pal_1_1_input_1_1_generated_input_1_1_u_i_actions.html#a38490ef5020d53210b430c7a12436ece" target="_top" xlink:title=" ">
<polygon fill="white" stroke="#666666" points="419.75,-281 226.75,-281 226.75,-249 419.75,-249 419.75,-281"/>
<text text-anchor="start" x="234.75" y="-267.5" font-family="Helvetica,sans-Serif" font-size="10.00">CodeSmile.MultiPal.Input.</text>
<text text-anchor="middle" x="323.25" y="-255.5" font-family="Helvetica,sans-Serif" font-size="10.00">GeneratedInput.UIActions.AddCallbacks</text>
</a>
</g>
</g>
<!-- Node1&#45;&gt;Node2 -->
<g id="edge1_Node000001_Node000002" class="edge">
<title>Node1&#45;&gt;Node2</title>
<g id="a_edge1_Node000001_Node000002"><a xlink:title=" ">
<path fill="none" stroke="#63b8ff" d="M191.18,-265C199.14,-265 207.23,-265 215.27,-265"/>
<polygon fill="#63b8ff" stroke="#63b8ff" points="215.08,-268.5 225.08,-265 215.08,-261.5 215.08,-268.5"/>
</a>
</g>
</g>
<!-- Node3 -->
<g id="Node000003" class="node">
<title>Node3</title>
<g id="a_Node000003"><a xlink:href="interface_code_smile_1_1_multi_pal_1_1_input_1_1_generated_input_1_1_i_u_i_actions.html#a685a6b805e06d93182b4c9b7a41b2e9c" target="_top" xlink:title=" ">
<polygon fill="white" stroke="#666666" points="645.38,-506 466.62,-506 466.62,-474 645.38,-474 645.38,-506"/>
<text text-anchor="start" x="474.62" y="-492.5" font-family="Helvetica,sans-Serif" font-size="10.00">CodeSmile.MultiPal.Input.</text>
<text text-anchor="middle" x="556" y="-480.5" font-family="Helvetica,sans-Serif" font-size="10.00">GeneratedInput.IUIActions.OnCancel</text>
</a>
</g>
</g>
<!-- Node2&#45;&gt;Node3 -->
<g id="edge2_Node000002_Node000003" class="edge">
<title>Node2&#45;&gt;Node3</title>
<g id="a_edge2_Node000002_Node000003"><a xlink:title=" ">
<path fill="none" stroke="#63b8ff" d="M330.2,-281.45C345.01,-319.96 387.33,-416.37 455.75,-465 457.34,-466.13 458.98,-467.21 460.66,-468.25"/>
<polygon fill="#63b8ff" stroke="#63b8ff" points="458.86,-471.25 469.33,-472.92 462.19,-465.09 458.86,-471.25"/>
</a>
</g>
</g>
<!-- Node4 -->
<g id="Node000004" class="node">
<title>Node4</title>
<g id="a_Node000004"><a xlink:href="interface_code_smile_1_1_multi_pal_1_1_input_1_1_generated_input_1_1_i_u_i_actions.html#a75e0796051a27c50b054a544fa38c52e" target="_top" xlink:title=" ">
<polygon fill="white" stroke="#666666" points="641.25,-456 470.75,-456 470.75,-424 641.25,-424 641.25,-456"/>
<text text-anchor="start" x="478.75" y="-442.5" font-family="Helvetica,sans-Serif" font-size="10.00">CodeSmile.MultiPal.Input.</text>
<text text-anchor="middle" x="556" y="-430.5" font-family="Helvetica,sans-Serif" font-size="10.00">GeneratedInput.IUIActions.OnClick</text>
</a>
</g>
</g>
<!-- Node2&#45;&gt;Node4 -->
<g id="edge3_Node000002_Node000004" class="edge">
<title>Node2&#45;&gt;Node4</title>
<g id="a_edge3_Node000002_Node000004"><a xlink:title=" ">
<path fill="none" stroke="#63b8ff" d="M333.86,-281.45C352.94,-312.58 398.73,-380.13 455.75,-415 457.91,-416.32 460.13,-417.57 462.4,-418.75"/>
<polygon fill="#63b8ff" stroke="#63b8ff" points="460.76,-421.84 471.3,-422.89 463.71,-415.5 460.76,-421.84"/>
</a>
</g>
</g>
<!-- Node5 -->
<g id="Node000005" class="node">
<title>Node5</title>
<g id="a_Node000005"><a xlink:href="interface_code_smile_1_1_multi_pal_1_1_input_1_1_generated_input_1_1_i_u_i_actions.html#ab7666ffd40bb227df59f92f80a31c5bf" target="_top" xlink:title=" ">
<polygon fill="white" stroke="#666666" points="655.5,-406 456.5,-406 456.5,-374 655.5,-374 655.5,-406"/>
<text text-anchor="start" x="464.5" y="-392.5" font-family="Helvetica,sans-Serif" font-size="10.00">CodeSmile.MultiPal.Input.</text>
<text text-anchor="middle" x="556" y="-380.5" font-family="Helvetica,sans-Serif" font-size="10.00">GeneratedInput.IUIActions.OnMiddleClick</text>
</a>
</g>
</g>
<!-- Node2&#45;&gt;Node5 -->
<g id="edge4_Node000002_Node000005" class="edge">
<title>Node2&#45;&gt;Node5</title>
<g id="a_edge4_Node000002_Node000005"><a xlink:title=" ">
<path fill="none" stroke="#63b8ff" d="M341.02,-281.4C364.65,-303.61 410,-342.99 455.75,-365 459.22,-366.67 462.81,-368.23 466.48,-369.7"/>
<polygon fill="#63b8ff" stroke="#63b8ff" points="464.97,-372.88 475.57,-373.06 467.4,-366.31 464.97,-372.88"/>
</a>
</g>
</g>
<!-- Node6 -->
<g id="Node000006" class="node">
<title>Node6</title>
<g id="a_Node000006"><a xlink:href="interface_code_smile_1_1_multi_pal_1_1_input_1_1_generated_input_1_1_i_u_i_actions.html#a18d5776079277023ef6020bb3eb8eb58" target="_top" xlink:title=" ">
<polygon fill="white" stroke="#666666" points="649.5,-356 462.5,-356 462.5,-324 649.5,-324 649.5,-356"/>
<text text-anchor="start" x="470.5" y="-342.5" font-family="Helvetica,sans-Serif" font-size="10.00">CodeSmile.MultiPal.Input.</text>
<text text-anchor="middle" x="556" y="-330.5" font-family="Helvetica,sans-Serif" font-size="10.00">GeneratedInput.IUIActions.OnNavigate</text>
</a>
</g>
</g>
<!-- Node2&#45;&gt;Node6 -->
<g id="edge5_Node000002_Node000006" class="edge">
<title>Node2&#45;&gt;Node6</title>
<g id="a_edge5_Node000002_Node000006"><a xlink:title=" ">
<path fill="none" stroke="#63b8ff" d="M363.82,-281.43C389.71,-291.83 424.42,-305.13 455.75,-315 461.83,-316.91 468.16,-318.78 474.54,-320.58"/>
<polygon fill="#63b8ff" stroke="#63b8ff" points="473.27,-323.86 483.84,-323.14 475.12,-317.11 473.27,-323.86"/>
</a>
</g>
</g>
<!-- Node7 -->
<g id="Node000007" class="node">
<title>Node7</title>
<g id="a_Node000007"><a xlink:href="interface_code_smile_1_1_multi_pal_1_1_input_1_1_generated_input_1_1_i_u_i_actions.html#afc04af1e636495daabd0d3cd85a9f1d9" target="_top" xlink:title=" ">
<polygon fill="white" stroke="#666666" points="641.25,-306 470.75,-306 470.75,-274 641.25,-274 641.25,-306"/>
<text text-anchor="start" x="478.75" y="-292.5" font-family="Helvetica,sans-Serif" font-size="10.00">CodeSmile.MultiPal.Input.</text>
<text text-anchor="middle" x="556" y="-280.5" font-family="Helvetica,sans-Serif" font-size="10.00">GeneratedInput.IUIActions.OnPoint</text>
</a>
</g>
</g>
<!-- Node2&#45;&gt;Node7 -->
<g id="edge6_Node000002_Node000007" class="edge">
<title>Node2&#45;&gt;Node7</title>
<g id="a_edge6_Node000002_Node000007"><a xlink:title=" ">
<path fill="none" stroke="#63b8ff" d="M420.1,-275.39C433.03,-276.79 446.3,-278.22 459.23,-279.62"/>
<polygon fill="#63b8ff" stroke="#63b8ff" points="458.66,-283.08 468.98,-280.68 459.41,-276.12 458.66,-283.08"/>
</a>
</g>
</g>
<!-- Node8 -->
<g id="Node000008" class="node">
<title>Node8</title>
<g id="a_Node000008"><a xlink:href="interface_code_smile_1_1_multi_pal_1_1_input_1_1_generated_input_1_1_i_u_i_actions.html#ae7caf26f6c4f99efe539ceb305c29dd5" target="_top" xlink:title=" ">
<polygon fill="white" stroke="#666666" points="652.88,-256 459.12,-256 459.12,-224 652.88,-224 652.88,-256"/>
<text text-anchor="start" x="467.12" y="-242.5" font-family="Helvetica,sans-Serif" font-size="10.00">CodeSmile.MultiPal.Input.</text>
<text text-anchor="middle" x="556" y="-230.5" font-family="Helvetica,sans-Serif" font-size="10.00">GeneratedInput.IUIActions.OnRightClick</text>
</a>
</g>
</g>
<!-- Node2&#45;&gt;Node8 -->
<g id="edge7_Node000002_Node000008" class="edge">
<title>Node2&#45;&gt;Node8</title>
<g id="a_edge7_Node000002_Node000008"><a xlink:title=" ">
<path fill="none" stroke="#63b8ff" d="M420.1,-254.61C429.07,-253.64 438.2,-252.65 447.27,-251.67"/>
<polygon fill="#63b8ff" stroke="#63b8ff" points="447.63,-255.15 457.2,-250.6 446.88,-248.19 447.63,-255.15"/>
</a>
</g>
</g>
<!-- Node9 -->
<g id="Node000009" class="node">
<title>Node9</title>
<g id="a_Node000009"><a xlink:href="interface_code_smile_1_1_multi_pal_1_1_input_1_1_generated_input_1_1_i_u_i_actions.html#a73d728192cd38d9e546193f767bbc07a" target="_top" xlink:title=" ">
<polygon fill="white" stroke="#666666" points="656.25,-206 455.75,-206 455.75,-174 656.25,-174 656.25,-206"/>
<text text-anchor="start" x="463.75" y="-192.5" font-family="Helvetica,sans-Serif" font-size="10.00">CodeSmile.MultiPal.Input.</text>
<text text-anchor="middle" x="556" y="-180.5" font-family="Helvetica,sans-Serif" font-size="10.00">GeneratedInput.IUIActions.OnScrollWheel</text>
</a>
</g>
</g>
<!-- Node2&#45;&gt;Node9 -->
<g id="edge8_Node000002_Node000009" class="edge">
<title>Node2&#45;&gt;Node9</title>
<g id="a_edge8_Node000002_Node000009"><a xlink:title=" ">
<path fill="none" stroke="#63b8ff" d="M363.82,-248.57C389.71,-238.17 424.42,-224.87 455.75,-215 461.83,-213.09 468.16,-211.22 474.54,-209.42"/>
<polygon fill="#63b8ff" stroke="#63b8ff" points="475.12,-212.89 483.84,-206.86 473.27,-206.14 475.12,-212.89"/>
</a>
</g>
</g>
<!-- Node10 -->
<g id="Node000010" class="node">
<title>Node10</title>
<g id="a_Node000010"><a xlink:href="interface_code_smile_1_1_multi_pal_1_1_input_1_1_generated_input_1_1_i_u_i_actions.html#a652c0662a7319c4b7b42aa383696be9d" target="_top" xlink:title=" ">
<polygon fill="white" stroke="#666666" points="645.38,-156 466.62,-156 466.62,-124 645.38,-124 645.38,-156"/>
<text text-anchor="start" x="474.62" y="-142.5" font-family="Helvetica,sans-Serif" font-size="10.00">CodeSmile.MultiPal.Input.</text>
<text text-anchor="middle" x="556" y="-130.5" font-family="Helvetica,sans-Serif" font-size="10.00">GeneratedInput.IUIActions.OnSubmit</text>
</a>
</g>
</g>
<!-- Node2&#45;&gt;Node10 -->
<g id="edge9_Node000002_Node000010" class="edge">
<title>Node2&#45;&gt;Node10</title>
<g id="a_edge9_Node000002_Node000010"><a xlink:title=" ">
<path fill="none" stroke="#63b8ff" d="M341.02,-248.6C364.65,-226.39 410,-187.01 455.75,-165 459.22,-163.33 462.81,-161.77 466.48,-160.3"/>
<polygon fill="#63b8ff" stroke="#63b8ff" points="467.4,-163.69 475.57,-156.94 464.97,-157.12 467.4,-163.69"/>
</a>
</g>
</g>
<!-- Node11 -->
<g id="Node000011" class="node">
<title>Node11</title>
<g id="a_Node000011"><a xlink:href="interface_code_smile_1_1_multi_pal_1_1_input_1_1_generated_input_1_1_i_u_i_actions.html#a67abfd7a8371ceffcfd87237d0be74fc" target="_top" xlink:title=" ">
<polygon fill="white" stroke="#666666" points="647.62,-106 464.38,-106 464.38,-62 647.62,-62 647.62,-106"/>
<text text-anchor="start" x="472.38" y="-92.5" font-family="Helvetica,sans-Serif" font-size="10.00">CodeSmile.MultiPal.Input.</text>
<text text-anchor="start" x="472.38" y="-80.5" font-family="Helvetica,sans-Serif" font-size="10.00">GeneratedInput.IUIActions.OnTracked</text>
<text text-anchor="middle" x="556" y="-68.5" font-family="Helvetica,sans-Serif" font-size="10.00">DeviceOrientation</text>
</a>
</g>
</g>
<!-- Node2&#45;&gt;Node11 -->
<g id="edge10_Node000002_Node000011" class="edge">
<title>Node2&#45;&gt;Node11</title>
<g id="a_edge10_Node000002_Node000011"><a xlink:title=" ">
<path fill="none" stroke="#63b8ff" d="M334.04,-248.84C353.44,-218.2 399.73,-151.46 455.75,-115 457.57,-113.82 459.43,-112.68 461.33,-111.58"/>
<polygon fill="#63b8ff" stroke="#63b8ff" points="462.57,-114.88 469.8,-107.14 459.32,-108.69 462.57,-114.88"/>
</a>
</g>
</g>
<!-- Node12 -->
<g id="Node000012" class="node">
<title>Node12</title>
<g id="a_Node000012"><a xlink:href="interface_code_smile_1_1_multi_pal_1_1_input_1_1_generated_input_1_1_i_u_i_actions.html#a1df224fbb123435fd0c2819dee76315b" target="_top" xlink:title=" ">
<polygon fill="white" stroke="#666666" points="647.62,-44 464.38,-44 464.38,0 647.62,0 647.62,-44"/>
<text text-anchor="start" x="472.38" y="-30.5" font-family="Helvetica,sans-Serif" font-size="10.00">CodeSmile.MultiPal.Input.</text>
<text text-anchor="start" x="472.38" y="-18.5" font-family="Helvetica,sans-Serif" font-size="10.00">GeneratedInput.IUIActions.OnTracked</text>
<text text-anchor="middle" x="556" y="-6.5" font-family="Helvetica,sans-Serif" font-size="10.00">DevicePosition</text>
</a>
</g>
</g>
<!-- Node2&#45;&gt;Node12 -->
<g id="edge11_Node000002_Node000012" class="edge">
<title>Node2&#45;&gt;Node12</title>
<g id="a_edge11_Node000002_Node000012"><a xlink:title=" ">
<path fill="none" stroke="#63b8ff" d="M329.78,-248.72C344.08,-209.1 386.08,-106.98 455.75,-53 456.91,-52.1 458.1,-51.22 459.32,-50.37"/>
<polygon fill="#63b8ff" stroke="#63b8ff" points="461.11,-53.38 467.76,-45.13 457.42,-47.43 461.11,-53.38"/>
</a>
</g>
</g>
</g>
</svg>
