<?xml version="1.0" encoding="UTF-8" standalone="no"?>
<!DOCTYPE svg PUBLIC "-//W3C//DTD SVG 1.1//EN"
 "http://www.w3.org/Graphics/SVG/1.1/DTD/svg11.dtd">
<!-- Generated by graphviz version 12.1.2 (20240928.0832)
 -->
<!-- Title: CodeSmile.MultiPal.Input.GeneratedInput.PlayerUIActions.Get Pages: 1 -->
<svg width="380pt" height="114pt"
 viewBox="0.00 0.00 379.75 114.00" xmlns="http://www.w3.org/2000/svg" xmlns:xlink="http://www.w3.org/1999/xlink">
<g id="graph0" class="graph" transform="scale(1 1) rotate(0) translate(4 110)">
<title>CodeSmile.MultiPal.Input.GeneratedInput.PlayerUIActions.Get</title>
<!-- Node1 -->
<g id="Node000001" class="node">
<title>Node1</title>
<g id="a_Node000001"><a xlink:title=" ">
<polygon fill="#999999" stroke="#666666" points="371.75,-69 196,-69 196,-37 371.75,-37 371.75,-69"/>
<text text-anchor="start" x="204" y="-55.5" font-family="Helvetica,sans-Serif" font-size="10.00">CodeSmile.MultiPal.Input.</text>
<text text-anchor="middle" x="283.88" y="-43.5" font-family="Helvetica,sans-Serif" font-size="10.00">GeneratedInput.PlayerUIActions.Get</text>
</a>
</g>
</g>
<!-- Node2 -->
<g id="Node000002" class="node">
<title>Node2</title>
<g id="a_Node000002"><a xlink:href="struct_code_smile_1_1_multi_pal_1_1_input_1_1_generated_input_1_1_player_u_i_actions.html#a1c52330a673a8aac468a4f1a68aec6f2" target="_top" xlink:title=" ">
<polygon fill="white" stroke="#666666" points="160,-106 0,-106 0,-62 160,-62 160,-106"/>
<text text-anchor="start" x="8" y="-92.5" font-family="Helvetica,sans-Serif" font-size="10.00">CodeSmile.MultiPal.Input.</text>
<text text-anchor="start" x="8" y="-80.5" font-family="Helvetica,sans-Serif" font-size="10.00">GeneratedInput.PlayerUIActions.</text>
<text text-anchor="middle" x="80" y="-68.5" font-family="Helvetica,sans-Serif" font-size="10.00">Disable</text>
</a>
</g>
</g>
<!-- Node1&#45;&gt;Node2 -->
<g id="edge1_Node000001_Node000002" class="edge">
<title>Node1&#45;&gt;Node2</title>
<g id="a_edge1_Node000001_Node000002"><a xlink:title=" ">
<path fill="none" stroke="#63b8ff" d="M184.18,-68.15C176.15,-69.39 168.11,-70.62 160.24,-71.83"/>
<polygon fill="#63b8ff" stroke="#63b8ff" points="184.65,-71.62 194.01,-66.65 183.59,-64.7 184.65,-71.62"/>
</a>
</g>
</g>
<!-- Node3 -->
<g id="Node000003" class="node">
<title>Node3</title>
<g id="a_Node000003"><a xlink:href="struct_code_smile_1_1_multi_pal_1_1_input_1_1_generated_input_1_1_player_u_i_actions.html#a118928a099cf4cd5b782e83a92f7b22c" target="_top" xlink:title=" ">
<polygon fill="white" stroke="#666666" points="160,-44 0,-44 0,0 160,0 160,-44"/>
<text text-anchor="start" x="8" y="-30.5" font-family="Helvetica,sans-Serif" font-size="10.00">CodeSmile.MultiPal.Input.</text>
<text text-anchor="start" x="8" y="-18.5" font-family="Helvetica,sans-Serif" font-size="10.00">GeneratedInput.PlayerUIActions.</text>
<text text-anchor="middle" x="80" y="-6.5" font-family="Helvetica,sans-Serif" font-size="10.00">Enable</text>
</a>
</g>
</g>
<!-- Node1&#45;&gt;Node3 -->
<g id="edge2_Node000001_Node000003" class="edge">
<title>Node1&#45;&gt;Node3</title>
<g id="a_edge2_Node000001_Node000003"><a xlink:title=" ">
<path fill="none" stroke="#63b8ff" d="M184.18,-37.85C176.15,-36.61 168.11,-35.38 160.24,-34.17"/>
<polygon fill="#63b8ff" stroke="#63b8ff" points="183.59,-41.3 194.01,-39.35 184.65,-34.38 183.59,-41.3"/>
</a>
</g>
</g>
</g>
</svg>
