<?xml version="1.0" encoding="UTF-8" standalone="no"?>
<!DOCTYPE svg PUBLIC "-//W3C//DTD SVG 1.1//EN"
 "http://www.w3.org/Graphics/SVG/1.1/DTD/svg11.dtd">
<!-- Generated by graphviz version 12.1.2 (20240928.0832)
 -->
<!-- Title: CodeSmile.MultiPal.Input.GeneratedInput.UIActions.AddCallbacks Pages: 1 -->
<!--zoomable 514 -->

<svg id="main" version="1.1" xmlns="http://www.w3.org/2000/svg" xmlns:xlink="http://www.w3.org/1999/xlink" xml:space="preserve" onload="init(evt)">

<style type="text/css"><![CDATA[
.node, .edge {opacity: 0.7;}
.node.selected, .edge.selected {opacity: 1;}
.edge:hover path { stroke: red; }
.edge:hover polygon { stroke: red; fill: red; }
]]></style>

<defs>
  <circle id="rim" cx="0" cy="0" r="7"/>
  <circle id="rim2" cx="0" cy="0" r="3.5"/>
  <g id="zoomPlus">
    <use xlink:href="#rim" fill="#404040"><set attributeName="fill" to="#808080" begin="zoomplus.mouseover" end="zoomplus.mouseout"/></use>
    <path d="M-4,0h8M0,-4v8" fill="none" stroke="white" stroke-width="1.5" pointer-events="none"/>
  </g>
  <g id="zoomMin">
    <use xlink:href="#rim" fill="#404040"><set attributeName="fill" to="#808080" begin="zoomminus.mouseover" end="zoomminus.mouseout"/></use>
    <path d="M-4,0h8" fill="none" stroke="white" stroke-width="1.5" pointer-events="none"/>
  </g>
  <g id="arrowUp" transform="translate(30 24)">
    <use xlink:href="#rim"/>
    <path pointer-events="none" fill="none" stroke="white" stroke-width="1.5" d="M0,-3.0v7 M-2.5,-0.5L0,-3.0L2.5,-0.5"/>
  </g>
  <g id="arrowRight" transform="rotate(90) translate(36 -43)">
    <use xlink:href="#rim"/>
    <path pointer-events="none" fill="none" stroke="white" stroke-width="1.5" d="M0,-3.0v7 M-2.5,-0.5L0,-3.0L2.5,-0.5"/>
  </g>
  <g id="arrowDown" transform="rotate(180) translate(-30 -48)">
    <use xlink:href="#rim"/>
    <path pointer-events="none" fill="none" stroke="white" stroke-width="1.5" d="M0,-3.0v7 M-2.5,-0.5L0,-3.0L2.5,-0.5"/>
  </g>
  <g id="arrowLeft" transform="rotate(270) translate(-36 17)">
    <use xlink:href="#rim"/>
    <path pointer-events="none" fill="none" stroke="white" stroke-width="1.5" d="M0,-3.0v7 M-2.5,-0.5L0,-3.0L2.5,-0.5"/>
  </g>
  <g id="resetDef">
    <use xlink:href="#rim2" fill="#404040"><set attributeName="fill" to="#808080" begin="reset.mouseover" end="reset.mouseout"/></use>
  </g>
</defs>
<script type="application/ecmascript">
var viewWidth = 438;
var viewHeight = 514;
var sectionId = 'dynsection-0';
</script>
<script type="application/ecmascript" xlink:href="svg.min.js"/>
<svg id="graph" class="graph">
<g id="viewport">
<title>CodeSmile.MultiPal.Input.GeneratedInput.UIActions.AddCallbacks</title>
<!-- Node1 -->
<g id="Node000001" class="node">
<title>Node1</title>
<g id="a_Node000001"><a xlink:title=" ">
<polygon fill="#999999" stroke="#666666" points="193,-281 0,-281 0,-249 193,-249 193,-281"/>
<text text-anchor="start" x="8" y="-267.5" font-family="Helvetica,sans-Serif" font-size="10.00">CodeSmile.MultiPal.Input.</text>
<text text-anchor="middle" x="96.5" y="-255.5" font-family="Helvetica,sans-Serif" font-size="10.00">GeneratedInput.UIActions.AddCallbacks</text>
</a>
</g>
</g>
<!-- Node2 -->
<g id="Node000002" class="node">
<title>Node2</title>
<g id="a_Node000002"><a xlink:href="interface_code_smile_1_1_multi_pal_1_1_input_1_1_generated_input_1_1_i_u_i_actions.html#a685a6b805e06d93182b4c9b7a41b2e9c" target="_top" xlink:title=" ">
<polygon fill="white" stroke="#666666" points="418.62,-506 239.88,-506 239.88,-474 418.62,-474 418.62,-506"/>
<text text-anchor="start" x="247.88" y="-492.5" font-family="Helvetica,sans-Serif" font-size="10.00">CodeSmile.MultiPal.Input.</text>
<text text-anchor="middle" x="329.25" y="-480.5" font-family="Helvetica,sans-Serif" font-size="10.00">GeneratedInput.IUIActions.OnCancel</text>
</a>
</g>
</g>
<!-- Node1&#45;&gt;Node2 -->
<g id="edge1_Node000001_Node000002" class="edge">
<title>Node1&#45;&gt;Node2</title>
<g id="a_edge1_Node000001_Node000002"><a xlink:title=" ">
<path fill="none" stroke="#63b8ff" d="M103.45,-281.45C118.26,-319.96 160.58,-416.37 229,-465 230.59,-466.13 232.23,-467.21 233.91,-468.25"/>
<polygon fill="#63b8ff" stroke="#63b8ff" points="232.11,-471.25 242.58,-472.92 235.44,-465.09 232.11,-471.25"/>
</a>
</g>
</g>
<!-- Node3 -->
<g id="Node000003" class="node">
<title>Node3</title>
<g id="a_Node000003"><a xlink:href="interface_code_smile_1_1_multi_pal_1_1_input_1_1_generated_input_1_1_i_u_i_actions.html#a75e0796051a27c50b054a544fa38c52e" target="_top" xlink:title=" ">
<polygon fill="white" stroke="#666666" points="414.5,-456 244,-456 244,-424 414.5,-424 414.5,-456"/>
<text text-anchor="start" x="252" y="-442.5" font-family="Helvetica,sans-Serif" font-size="10.00">CodeSmile.MultiPal.Input.</text>
<text text-anchor="middle" x="329.25" y="-430.5" font-family="Helvetica,sans-Serif" font-size="10.00">GeneratedInput.IUIActions.OnClick</text>
</a>
</g>
</g>
<!-- Node1&#45;&gt;Node3 -->
<g id="edge2_Node000001_Node000003" class="edge">
<title>Node1&#45;&gt;Node3</title>
<g id="a_edge2_Node000001_Node000003"><a xlink:title=" ">
<path fill="none" stroke="#63b8ff" d="M107.11,-281.45C126.19,-312.58 171.98,-380.13 229,-415 231.16,-416.32 233.38,-417.57 235.65,-418.75"/>
<polygon fill="#63b8ff" stroke="#63b8ff" points="234.01,-421.84 244.55,-422.89 236.96,-415.5 234.01,-421.84"/>
</a>
</g>
</g>
<!-- Node4 -->
<g id="Node000004" class="node">
<title>Node4</title>
<g id="a_Node000004"><a xlink:href="interface_code_smile_1_1_multi_pal_1_1_input_1_1_generated_input_1_1_i_u_i_actions.html#ab7666ffd40bb227df59f92f80a31c5bf" target="_top" xlink:title=" ">
<polygon fill="white" stroke="#666666" points="428.75,-406 229.75,-406 229.75,-374 428.75,-374 428.75,-406"/>
<text text-anchor="start" x="237.75" y="-392.5" font-family="Helvetica,sans-Serif" font-size="10.00">CodeSmile.MultiPal.Input.</text>
<text text-anchor="middle" x="329.25" y="-380.5" font-family="Helvetica,sans-Serif" font-size="10.00">GeneratedInput.IUIActions.OnMiddleClick</text>
</a>
</g>
</g>
<!-- Node1&#45;&gt;Node4 -->
<g id="edge3_Node000001_Node000004" class="edge">
<title>Node1&#45;&gt;Node4</title>
<g id="a_edge3_Node000001_Node000004"><a xlink:title=" ">
<path fill="none" stroke="#63b8ff" d="M114.27,-281.4C137.9,-303.61 183.25,-342.99 229,-365 232.47,-366.67 236.06,-368.23 239.73,-369.7"/>
<polygon fill="#63b8ff" stroke="#63b8ff" points="238.22,-372.88 248.82,-373.06 240.65,-366.31 238.22,-372.88"/>
</a>
</g>
</g>
<!-- Node5 -->
<g id="Node000005" class="node">
<title>Node5</title>
<g id="a_Node000005"><a xlink:href="interface_code_smile_1_1_multi_pal_1_1_input_1_1_generated_input_1_1_i_u_i_actions.html#a18d5776079277023ef6020bb3eb8eb58" target="_top" xlink:title=" ">
<polygon fill="white" stroke="#666666" points="422.75,-356 235.75,-356 235.75,-324 422.75,-324 422.75,-356"/>
<text text-anchor="start" x="243.75" y="-342.5" font-family="Helvetica,sans-Serif" font-size="10.00">CodeSmile.MultiPal.Input.</text>
<text text-anchor="middle" x="329.25" y="-330.5" font-family="Helvetica,sans-Serif" font-size="10.00">GeneratedInput.IUIActions.OnNavigate</text>
</a>
</g>
</g>
<!-- Node1&#45;&gt;Node5 -->
<g id="edge4_Node000001_Node000005" class="edge">
<title>Node1&#45;&gt;Node5</title>
<g id="a_edge4_Node000001_Node000005"><a xlink:title=" ">
<path fill="none" stroke="#63b8ff" d="M137.07,-281.43C162.96,-291.83 197.67,-305.13 229,-315 235.08,-316.91 241.41,-318.78 247.79,-320.58"/>
<polygon fill="#63b8ff" stroke="#63b8ff" points="246.52,-323.86 257.09,-323.14 248.37,-317.11 246.52,-323.86"/>
</a>
</g>
</g>
<!-- Node6 -->
<g id="Node000006" class="node">
<title>Node6</title>
<g id="a_Node000006"><a xlink:href="interface_code_smile_1_1_multi_pal_1_1_input_1_1_generated_input_1_1_i_u_i_actions.html#afc04af1e636495daabd0d3cd85a9f1d9" target="_top" xlink:title=" ">
<polygon fill="white" stroke="#666666" points="414.5,-306 244,-306 244,-274 414.5,-274 414.5,-306"/>
<text text-anchor="start" x="252" y="-292.5" font-family="Helvetica,sans-Serif" font-size="10.00">CodeSmile.MultiPal.Input.</text>
<text text-anchor="middle" x="329.25" y="-280.5" font-family="Helvetica,sans-Serif" font-size="10.00">GeneratedInput.IUIActions.OnPoint</text>
</a>
</g>
</g>
<!-- Node1&#45;&gt;Node6 -->
<g id="edge5_Node000001_Node000006" class="edge">
<title>Node1&#45;&gt;Node6</title>
<g id="a_edge5_Node000001_Node000006"><a xlink:title=" ">
<path fill="none" stroke="#63b8ff" d="M193.35,-275.39C206.28,-276.79 219.55,-278.22 232.48,-279.62"/>
<polygon fill="#63b8ff" stroke="#63b8ff" points="231.91,-283.08 242.23,-280.68 232.66,-276.12 231.91,-283.08"/>
</a>
</g>
</g>
<!-- Node7 -->
<g id="Node000007" class="node">
<title>Node7</title>
<g id="a_Node000007"><a xlink:href="interface_code_smile_1_1_multi_pal_1_1_input_1_1_generated_input_1_1_i_u_i_actions.html#ae7caf26f6c4f99efe539ceb305c29dd5" target="_top" xlink:title=" ">
<polygon fill="white" stroke="#666666" points="426.12,-256 232.38,-256 232.38,-224 426.12,-224 426.12,-256"/>
<text text-anchor="start" x="240.38" y="-242.5" font-family="Helvetica,sans-Serif" font-size="10.00">CodeSmile.MultiPal.Input.</text>
<text text-anchor="middle" x="329.25" y="-230.5" font-family="Helvetica,sans-Serif" font-size="10.00">GeneratedInput.IUIActions.OnRightClick</text>
</a>
</g>
</g>
<!-- Node1&#45;&gt;Node7 -->
<g id="edge6_Node000001_Node000007" class="edge">
<title>Node1&#45;&gt;Node7</title>
<g id="a_edge6_Node000001_Node000007"><a xlink:title=" ">
<path fill="none" stroke="#63b8ff" d="M193.35,-254.61C202.32,-253.64 211.45,-252.65 220.52,-251.67"/>
<polygon fill="#63b8ff" stroke="#63b8ff" points="220.88,-255.15 230.45,-250.6 220.13,-248.19 220.88,-255.15"/>
</a>
</g>
</g>
<!-- Node8 -->
<g id="Node000008" class="node">
<title>Node8</title>
<g id="a_Node000008"><a xlink:href="interface_code_smile_1_1_multi_pal_1_1_input_1_1_generated_input_1_1_i_u_i_actions.html#a73d728192cd38d9e546193f767bbc07a" target="_top" xlink:title=" ">
<polygon fill="white" stroke="#666666" points="429.5,-206 229,-206 229,-174 429.5,-174 429.5,-206"/>
<text text-anchor="start" x="237" y="-192.5" font-family="Helvetica,sans-Serif" font-size="10.00">CodeSmile.MultiPal.Input.</text>
<text text-anchor="middle" x="329.25" y="-180.5" font-family="Helvetica,sans-Serif" font-size="10.00">GeneratedInput.IUIActions.OnScrollWheel</text>
</a>
</g>
</g>
<!-- Node1&#45;&gt;Node8 -->
<g id="edge7_Node000001_Node000008" class="edge">
<title>Node1&#45;&gt;Node8</title>
<g id="a_edge7_Node000001_Node000008"><a xlink:title=" ">
<path fill="none" stroke="#63b8ff" d="M137.07,-248.57C162.96,-238.17 197.67,-224.87 229,-215 235.08,-213.09 241.41,-211.22 247.79,-209.42"/>
<polygon fill="#63b8ff" stroke="#63b8ff" points="248.37,-212.89 257.09,-206.86 246.52,-206.14 248.37,-212.89"/>
</a>
</g>
</g>
<!-- Node9 -->
<g id="Node000009" class="node">
<title>Node9</title>
<g id="a_Node000009"><a xlink:href="interface_code_smile_1_1_multi_pal_1_1_input_1_1_generated_input_1_1_i_u_i_actions.html#a652c0662a7319c4b7b42aa383696be9d" target="_top" xlink:title=" ">
<polygon fill="white" stroke="#666666" points="418.62,-156 239.88,-156 239.88,-124 418.62,-124 418.62,-156"/>
<text text-anchor="start" x="247.88" y="-142.5" font-family="Helvetica,sans-Serif" font-size="10.00">CodeSmile.MultiPal.Input.</text>
<text text-anchor="middle" x="329.25" y="-130.5" font-family="Helvetica,sans-Serif" font-size="10.00">GeneratedInput.IUIActions.OnSubmit</text>
</a>
</g>
</g>
<!-- Node1&#45;&gt;Node9 -->
<g id="edge8_Node000001_Node000009" class="edge">
<title>Node1&#45;&gt;Node9</title>
<g id="a_edge8_Node000001_Node000009"><a xlink:title=" ">
<path fill="none" stroke="#63b8ff" d="M114.27,-248.6C137.9,-226.39 183.25,-187.01 229,-165 232.47,-163.33 236.06,-161.77 239.73,-160.3"/>
<polygon fill="#63b8ff" stroke="#63b8ff" points="240.65,-163.69 248.82,-156.94 238.22,-157.12 240.65,-163.69"/>
</a>
</g>
</g>
<!-- Node10 -->
<g id="Node000010" class="node">
<title>Node10</title>
<g id="a_Node000010"><a xlink:href="interface_code_smile_1_1_multi_pal_1_1_input_1_1_generated_input_1_1_i_u_i_actions.html#a67abfd7a8371ceffcfd87237d0be74fc" target="_top" xlink:title=" ">
<polygon fill="white" stroke="#666666" points="420.88,-106 237.62,-106 237.62,-62 420.88,-62 420.88,-106"/>
<text text-anchor="start" x="245.62" y="-92.5" font-family="Helvetica,sans-Serif" font-size="10.00">CodeSmile.MultiPal.Input.</text>
<text text-anchor="start" x="245.62" y="-80.5" font-family="Helvetica,sans-Serif" font-size="10.00">GeneratedInput.IUIActions.OnTracked</text>
<text text-anchor="middle" x="329.25" y="-68.5" font-family="Helvetica,sans-Serif" font-size="10.00">DeviceOrientation</text>
</a>
</g>
</g>
<!-- Node1&#45;&gt;Node10 -->
<g id="edge9_Node000001_Node000010" class="edge">
<title>Node1&#45;&gt;Node10</title>
<g id="a_edge9_Node000001_Node000010"><a xlink:title=" ">
<path fill="none" stroke="#63b8ff" d="M107.29,-248.84C126.69,-218.2 172.98,-151.46 229,-115 230.82,-113.82 232.68,-112.68 234.58,-111.58"/>
<polygon fill="#63b8ff" stroke="#63b8ff" points="235.82,-114.88 243.05,-107.14 232.57,-108.69 235.82,-114.88"/>
</a>
</g>
</g>
<!-- Node11 -->
<g id="Node000011" class="node">
<title>Node11</title>
<g id="a_Node000011"><a xlink:href="interface_code_smile_1_1_multi_pal_1_1_input_1_1_generated_input_1_1_i_u_i_actions.html#a1df224fbb123435fd0c2819dee76315b" target="_top" xlink:title=" ">
<polygon fill="white" stroke="#666666" points="420.88,-44 237.62,-44 237.62,0 420.88,0 420.88,-44"/>
<text text-anchor="start" x="245.62" y="-30.5" font-family="Helvetica,sans-Serif" font-size="10.00">CodeSmile.MultiPal.Input.</text>
<text text-anchor="start" x="245.62" y="-18.5" font-family="Helvetica,sans-Serif" font-size="10.00">GeneratedInput.IUIActions.OnTracked</text>
<text text-anchor="middle" x="329.25" y="-6.5" font-family="Helvetica,sans-Serif" font-size="10.00">DevicePosition</text>
</a>
</g>
</g>
<!-- Node1&#45;&gt;Node11 -->
<g id="edge10_Node000001_Node000011" class="edge">
<title>Node1&#45;&gt;Node11</title>
<g id="a_edge10_Node000001_Node000011"><a xlink:title=" ">
<path fill="none" stroke="#63b8ff" d="M103.03,-248.72C117.33,-209.1 159.33,-106.98 229,-53 230.16,-52.1 231.35,-51.22 232.57,-50.37"/>
<polygon fill="#63b8ff" stroke="#63b8ff" points="234.36,-53.38 241.01,-45.13 230.67,-47.43 234.36,-53.38"/>
</a>
</g>
</g>
</g>
</svg>

<g id="navigator" transform="translate(0 0)" fill="#404254">
  <rect fill="#f2f5e9" fill-opacity="0.5" stroke="#606060" stroke-width=".5" x="0" y="0" width="60" height="60"/>
  <use id="zoomplus" xlink:href="#zoomPlus" x="17" y="9" onmousedown="handleZoom(evt,'in')"/>
  <use id="zoomminus" xlink:href="#zoomMin" x="42" y="9" onmousedown="handleZoom(evt,'out')"/>
  <use id="reset" xlink:href="#resetDef" x="30" y="36" onmousedown="handleReset()"/>
   <use id="arrowup" xlink:href="#arrowUp" x="0" y="0" onmousedown="handlePan(0,-1)"/>
  <use id="arrowright" xlink:href="#arrowRight" x="0" y="0" onmousedown="handlePan(1,0)"/>
  <use id="arrowdown" xlink:href="#arrowDown" x="0" y="0" onmousedown="handlePan(0,1)"/>
  <use id="arrowleft" xlink:href="#arrowLeft" x="0" y="0" onmousedown="handlePan(-1,0)"/>
</g>
<svg viewBox="0 0 15 15" width="100%" height="30px" preserveAspectRatio="xMaxYMin meet">
 <g id="arrow_out" transform="scale(0.3 0.3)">
  <a xlink:href="struct_code_smile_1_1_multi_pal_1_1_input_1_1_generated_input_1_1_u_i_actions_a38490ef5020d53210b430c7a12436ece_cgraph_org.svg" target="_base">
   <rect id="button" ry="5" rx="5" y="6" x="6" height="38" width="38"
        fill="#f2f5e9" fill-opacity="0.5" stroke="#606060" stroke-width="1.0"/>
   <path id="arrow"
     d="M 11.500037,31.436501 C 11.940474,20.09759 22.043105,11.32322 32.158766,21.979434 L 37.068811,17.246167 C 37.068811,17.246167 37.088388,32 37.088388,32 L 22.160133,31.978069 C 22.160133,31.978069 26.997745,27.140456 26.997745,27.140456 C 18.528582,18.264221 13.291696,25.230495 11.500037,31.436501 z"
     style="fill:#404040;"/>
  </a>
 </g>
</svg>

<style type='text/css'>
<![CDATA[
[data-mouse-over-selected='false'] { opacity: 0.7; }
[data-mouse-over-selected='true']  { opacity: 1.0; }
]]>
</style>
<script type="application/ecmascript"><![CDATA[
document.addEventListener('DOMContentLoaded', (event) => {
  highlightEdges();
  highlightAdjacentNodes();
});
]]></script>
</svg>
