<?xml version="1.0" encoding="UTF-8" standalone="no"?>
<!DOCTYPE svg PUBLIC "-//W3C//DTD SVG 1.1//EN"
 "http://www.w3.org/Graphics/SVG/1.1/DTD/svg11.dtd">
<!-- Generated by graphviz version 12.1.2 (20240928.0832)
 -->
<!-- Title: CodeSmile.MultiPal.Input.GeneratedInput.PlayerKinematicsActions.SetCallbacks Pages: 1 -->
<!--zoomable 300 -->

<svg id="main" version="1.1" xmlns="http://www.w3.org/2000/svg" xmlns:xlink="http://www.w3.org/1999/xlink" xml:space="preserve" onload="init(evt)">

<style type="text/css"><![CDATA[
.node, .edge {opacity: 0.7;}
.node.selected, .edge.selected {opacity: 1;}
.edge:hover path { stroke: red; }
.edge:hover polygon { stroke: red; fill: red; }
]]></style>

<defs>
  <circle id="rim" cx="0" cy="0" r="7"/>
  <circle id="rim2" cx="0" cy="0" r="3.5"/>
  <g id="zoomPlus">
    <use xlink:href="#rim" fill="#404040"><set attributeName="fill" to="#808080" begin="zoomplus.mouseover" end="zoomplus.mouseout"/></use>
    <path d="M-4,0h8M0,-4v8" fill="none" stroke="white" stroke-width="1.5" pointer-events="none"/>
  </g>
  <g id="zoomMin">
    <use xlink:href="#rim" fill="#404040"><set attributeName="fill" to="#808080" begin="zoomminus.mouseover" end="zoomminus.mouseout"/></use>
    <path d="M-4,0h8" fill="none" stroke="white" stroke-width="1.5" pointer-events="none"/>
  </g>
  <g id="arrowUp" transform="translate(30 24)">
    <use xlink:href="#rim"/>
    <path pointer-events="none" fill="none" stroke="white" stroke-width="1.5" d="M0,-3.0v7 M-2.5,-0.5L0,-3.0L2.5,-0.5"/>
  </g>
  <g id="arrowRight" transform="rotate(90) translate(36 -43)">
    <use xlink:href="#rim"/>
    <path pointer-events="none" fill="none" stroke="white" stroke-width="1.5" d="M0,-3.0v7 M-2.5,-0.5L0,-3.0L2.5,-0.5"/>
  </g>
  <g id="arrowDown" transform="rotate(180) translate(-30 -48)">
    <use xlink:href="#rim"/>
    <path pointer-events="none" fill="none" stroke="white" stroke-width="1.5" d="M0,-3.0v7 M-2.5,-0.5L0,-3.0L2.5,-0.5"/>
  </g>
  <g id="arrowLeft" transform="rotate(270) translate(-36 17)">
    <use xlink:href="#rim"/>
    <path pointer-events="none" fill="none" stroke="white" stroke-width="1.5" d="M0,-3.0v7 M-2.5,-0.5L0,-3.0L2.5,-0.5"/>
  </g>
  <g id="resetDef">
    <use xlink:href="#rim2" fill="#404040"><set attributeName="fill" to="#808080" begin="reset.mouseover" end="reset.mouseout"/></use>
  </g>
</defs>
<script type="application/ecmascript">
var viewWidth = 570;
var viewHeight = 300;
var sectionId = 'dynsection-5';
</script>
<script type="application/ecmascript" xlink:href="svg.min.js"/>
<svg id="graph" class="graph">
<g id="viewport">
<title>CodeSmile.MultiPal.Input.GeneratedInput.PlayerKinematicsActions.SetCallbacks</title>
<!-- Node1 -->
<g id="Node000001" class="node">
<title>Node1</title>
<g id="a_Node000001"><a xlink:title=" ">
<polygon fill="#999999" stroke="#666666" points="162.25,-168 0,-168 0,-124 162.25,-124 162.25,-168"/>
<text text-anchor="start" x="8" y="-154.5" font-family="Helvetica,sans-Serif" font-size="10.00">CodeSmile.MultiPal.Input.</text>
<text text-anchor="start" x="8" y="-142.5" font-family="Helvetica,sans-Serif" font-size="10.00">GeneratedInput.PlayerKinematics</text>
<text text-anchor="middle" x="81.12" y="-130.5" font-family="Helvetica,sans-Serif" font-size="10.00">Actions.SetCallbacks</text>
</a>
</g>
</g>
<!-- Node2 -->
<g id="Node000002" class="node">
<title>Node2</title>
<g id="a_Node000002"><a xlink:href="struct_code_smile_1_1_multi_pal_1_1_input_1_1_generated_input_1_1_player_kinematics_actions.html#a0c6e893b79a709fc0412cfa7037f7ac7" target="_top" xlink:title=" ">
<polygon fill="white" stroke="#666666" points="360.5,-168 198.25,-168 198.25,-124 360.5,-124 360.5,-168"/>
<text text-anchor="start" x="206.25" y="-154.5" font-family="Helvetica,sans-Serif" font-size="10.00">CodeSmile.MultiPal.Input.</text>
<text text-anchor="start" x="206.25" y="-142.5" font-family="Helvetica,sans-Serif" font-size="10.00">GeneratedInput.PlayerKinematics</text>
<text text-anchor="middle" x="279.38" y="-130.5" font-family="Helvetica,sans-Serif" font-size="10.00">Actions.AddCallbacks</text>
</a>
</g>
</g>
<!-- Node1&#45;&gt;Node2 -->
<g id="edge1_Node000001_Node000002" class="edge">
<title>Node1&#45;&gt;Node2</title>
<g id="a_edge1_Node000001_Node000002"><a xlink:title=" ">
<path fill="none" stroke="#63b8ff" d="M162.51,-146C170.43,-146 178.5,-146 186.52,-146"/>
<polygon fill="#63b8ff" stroke="#63b8ff" points="186.28,-149.5 196.28,-146 186.28,-142.5 186.28,-149.5"/>
</a>
</g>
</g>
<!-- Node3 -->
<g id="Node000003" class="node">
<title>Node3</title>
<g id="a_Node000003"><a xlink:href="interface_code_smile_1_1_multi_pal_1_1_input_1_1_generated_input_1_1_i_player_kinematics_actions.html#ad57e88c0b4571ced60e549ad988eefad" target="_top" xlink:title=" ">
<polygon fill="white" stroke="#666666" points="561.75,-292 396.5,-292 396.5,-248 561.75,-248 561.75,-292"/>
<text text-anchor="start" x="404.5" y="-278.5" font-family="Helvetica,sans-Serif" font-size="10.00">CodeSmile.MultiPal.Input.</text>
<text text-anchor="start" x="404.5" y="-266.5" font-family="Helvetica,sans-Serif" font-size="10.00">GeneratedInput.IPlayerKinematics</text>
<text text-anchor="middle" x="479.12" y="-254.5" font-family="Helvetica,sans-Serif" font-size="10.00">Actions.OnCrouch</text>
</a>
</g>
</g>
<!-- Node2&#45;&gt;Node3 -->
<g id="edge2_Node000002_Node000003" class="edge">
<title>Node2&#45;&gt;Node3</title>
<g id="a_edge2_Node000002_Node000003"><a xlink:title=" ">
<path fill="none" stroke="#63b8ff" d="M303.67,-168.33C326.05,-188.85 361.52,-219.01 396.5,-239 398.69,-240.25 400.94,-241.47 403.24,-242.66"/>
<polygon fill="#63b8ff" stroke="#63b8ff" points="401.64,-245.78 412.17,-246.99 404.7,-239.48 401.64,-245.78"/>
</a>
</g>
</g>
<!-- Node4 -->
<g id="Node000004" class="node">
<title>Node4</title>
<g id="a_Node000004"><a xlink:href="interface_code_smile_1_1_multi_pal_1_1_input_1_1_generated_input_1_1_i_player_kinematics_actions.html#ae2e6ad4e2908ef910f4d82f82dbe585d" target="_top" xlink:title=" ">
<polygon fill="white" stroke="#666666" points="561.75,-230 396.5,-230 396.5,-186 561.75,-186 561.75,-230"/>
<text text-anchor="start" x="404.5" y="-216.5" font-family="Helvetica,sans-Serif" font-size="10.00">CodeSmile.MultiPal.Input.</text>
<text text-anchor="start" x="404.5" y="-204.5" font-family="Helvetica,sans-Serif" font-size="10.00">GeneratedInput.IPlayerKinematics</text>
<text text-anchor="middle" x="479.12" y="-192.5" font-family="Helvetica,sans-Serif" font-size="10.00">Actions.OnJump</text>
</a>
</g>
</g>
<!-- Node2&#45;&gt;Node4 -->
<g id="edge3_Node000002_Node000004" class="edge">
<title>Node2&#45;&gt;Node4</title>
<g id="a_edge3_Node000002_Node000004"><a xlink:title=" ">
<path fill="none" stroke="#63b8ff" d="M352.05,-168.47C366.14,-172.89 381.03,-177.56 395.45,-182.08"/>
<polygon fill="#63b8ff" stroke="#63b8ff" points="394.33,-185.4 404.92,-185.05 396.43,-178.72 394.33,-185.4"/>
</a>
</g>
</g>
<!-- Node5 -->
<g id="Node000005" class="node">
<title>Node5</title>
<g id="a_Node000005"><a xlink:href="interface_code_smile_1_1_multi_pal_1_1_input_1_1_generated_input_1_1_i_player_kinematics_actions.html#a4945df2915a9322987dfa1daadfa1343" target="_top" xlink:title=" ">
<polygon fill="white" stroke="#666666" points="561.75,-168 396.5,-168 396.5,-124 561.75,-124 561.75,-168"/>
<text text-anchor="start" x="404.5" y="-154.5" font-family="Helvetica,sans-Serif" font-size="10.00">CodeSmile.MultiPal.Input.</text>
<text text-anchor="start" x="404.5" y="-142.5" font-family="Helvetica,sans-Serif" font-size="10.00">GeneratedInput.IPlayerKinematics</text>
<text text-anchor="middle" x="479.12" y="-130.5" font-family="Helvetica,sans-Serif" font-size="10.00">Actions.OnLook</text>
</a>
</g>
</g>
<!-- Node2&#45;&gt;Node5 -->
<g id="edge4_Node000002_Node000005" class="edge">
<title>Node2&#45;&gt;Node5</title>
<g id="a_edge4_Node000002_Node000005"><a xlink:title=" ">
<path fill="none" stroke="#63b8ff" d="M360.81,-146C368.73,-146 376.82,-146 384.85,-146"/>
<polygon fill="#63b8ff" stroke="#63b8ff" points="384.64,-149.5 394.64,-146 384.64,-142.5 384.64,-149.5"/>
</a>
</g>
</g>
<!-- Node6 -->
<g id="Node000006" class="node">
<title>Node6</title>
<g id="a_Node000006"><a xlink:href="interface_code_smile_1_1_multi_pal_1_1_input_1_1_generated_input_1_1_i_player_kinematics_actions.html#a28d1ac31e43a00e8747f137496a9c5f2" target="_top" xlink:title=" ">
<polygon fill="white" stroke="#666666" points="561.75,-106 396.5,-106 396.5,-62 561.75,-62 561.75,-106"/>
<text text-anchor="start" x="404.5" y="-92.5" font-family="Helvetica,sans-Serif" font-size="10.00">CodeSmile.MultiPal.Input.</text>
<text text-anchor="start" x="404.5" y="-80.5" font-family="Helvetica,sans-Serif" font-size="10.00">GeneratedInput.IPlayerKinematics</text>
<text text-anchor="middle" x="479.12" y="-68.5" font-family="Helvetica,sans-Serif" font-size="10.00">Actions.OnMove</text>
</a>
</g>
</g>
<!-- Node2&#45;&gt;Node6 -->
<g id="edge5_Node000002_Node000006" class="edge">
<title>Node2&#45;&gt;Node6</title>
<g id="a_edge5_Node000002_Node000006"><a xlink:title=" ">
<path fill="none" stroke="#63b8ff" d="M352.05,-123.53C366.14,-119.11 381.03,-114.44 395.45,-109.92"/>
<polygon fill="#63b8ff" stroke="#63b8ff" points="396.43,-113.28 404.92,-106.95 394.33,-106.6 396.43,-113.28"/>
</a>
</g>
</g>
<!-- Node7 -->
<g id="Node000007" class="node">
<title>Node7</title>
<g id="a_Node000007"><a xlink:href="interface_code_smile_1_1_multi_pal_1_1_input_1_1_generated_input_1_1_i_player_kinematics_actions.html#a1967bb3f318d22453f8a28dde9a3d68c" target="_top" xlink:title=" ">
<polygon fill="white" stroke="#666666" points="561.75,-44 396.5,-44 396.5,0 561.75,0 561.75,-44"/>
<text text-anchor="start" x="404.5" y="-30.5" font-family="Helvetica,sans-Serif" font-size="10.00">CodeSmile.MultiPal.Input.</text>
<text text-anchor="start" x="404.5" y="-18.5" font-family="Helvetica,sans-Serif" font-size="10.00">GeneratedInput.IPlayerKinematics</text>
<text text-anchor="middle" x="479.12" y="-6.5" font-family="Helvetica,sans-Serif" font-size="10.00">Actions.OnSprint</text>
</a>
</g>
</g>
<!-- Node2&#45;&gt;Node7 -->
<g id="edge6_Node000002_Node000007" class="edge">
<title>Node2&#45;&gt;Node7</title>
<g id="a_edge6_Node000002_Node000007"><a xlink:title=" ">
<path fill="none" stroke="#63b8ff" d="M303.67,-123.67C326.05,-103.15 361.52,-72.99 396.5,-53 398.69,-51.75 400.94,-50.53 403.24,-49.34"/>
<polygon fill="#63b8ff" stroke="#63b8ff" points="404.7,-52.52 412.17,-45.01 401.64,-46.22 404.7,-52.52"/>
</a>
</g>
</g>
</g>
</svg>

<g id="navigator" transform="translate(0 0)" fill="#404254">
  <rect fill="#f2f5e9" fill-opacity="0.5" stroke="#606060" stroke-width=".5" x="0" y="0" width="60" height="60"/>
  <use id="zoomplus" xlink:href="#zoomPlus" x="17" y="9" onmousedown="handleZoom(evt,'in')"/>
  <use id="zoomminus" xlink:href="#zoomMin" x="42" y="9" onmousedown="handleZoom(evt,'out')"/>
  <use id="reset" xlink:href="#resetDef" x="30" y="36" onmousedown="handleReset()"/>
   <use id="arrowup" xlink:href="#arrowUp" x="0" y="0" onmousedown="handlePan(0,-1)"/>
  <use id="arrowright" xlink:href="#arrowRight" x="0" y="0" onmousedown="handlePan(1,0)"/>
  <use id="arrowdown" xlink:href="#arrowDown" x="0" y="0" onmousedown="handlePan(0,1)"/>
  <use id="arrowleft" xlink:href="#arrowLeft" x="0" y="0" onmousedown="handlePan(-1,0)"/>
</g>
<svg viewBox="0 0 15 15" width="100%" height="30px" preserveAspectRatio="xMaxYMin meet">
 <g id="arrow_out" transform="scale(0.3 0.3)">
  <a xlink:href="struct_code_smile_1_1_multi_pal_1_1_input_1_1_generated_input_1_1_player_kinematics_actions_a9f4f620490c30b9345f3aed63c78c631_cgraph_org.svg" target="_base">
   <rect id="button" ry="5" rx="5" y="6" x="6" height="38" width="38"
        fill="#f2f5e9" fill-opacity="0.5" stroke="#606060" stroke-width="1.0"/>
   <path id="arrow"
     d="M 11.500037,31.436501 C 11.940474,20.09759 22.043105,11.32322 32.158766,21.979434 L 37.068811,17.246167 C 37.068811,17.246167 37.088388,32 37.088388,32 L 22.160133,31.978069 C 22.160133,31.978069 26.997745,27.140456 26.997745,27.140456 C 18.528582,18.264221 13.291696,25.230495 11.500037,31.436501 z"
     style="fill:#404040;"/>
  </a>
 </g>
</svg>

<style type='text/css'>
<![CDATA[
[data-mouse-over-selected='false'] { opacity: 0.7; }
[data-mouse-over-selected='true']  { opacity: 1.0; }
]]>
</style>
<script type="application/ecmascript"><![CDATA[
document.addEventListener('DOMContentLoaded', (event) => {
  highlightEdges();
  highlightAdjacentNodes();
});
]]></script>
</svg>
