<?xml version="1.0" encoding="UTF-8" standalone="no"?>
<!DOCTYPE svg PUBLIC "-//W3C//DTD SVG 1.1//EN"
 "http://www.w3.org/Graphics/SVG/1.1/DTD/svg11.dtd">
<!-- Generated by graphviz version 12.1.2 (20240928.0832)
 -->
<!-- Title: CodeSmile.MultiPal.Input.GeneratedInput.PairingActions.Get Pages: 1 -->
<svg width="363pt" height="114pt"
 viewBox="0.00 0.00 363.25 114.00" xmlns="http://www.w3.org/2000/svg" xmlns:xlink="http://www.w3.org/1999/xlink">
<g id="graph0" class="graph" transform="scale(1 1) rotate(0) translate(4 110)">
<title>CodeSmile.MultiPal.Input.GeneratedInput.PairingActions.Get</title>
<!-- Node1 -->
<g id="Node000001" class="node">
<title>Node1</title>
<g id="a_Node000001"><a xlink:title=" ">
<polygon fill="#999999" stroke="#666666" points="355.25,-69 187.75,-69 187.75,-37 355.25,-37 355.25,-69"/>
<text text-anchor="start" x="195.75" y="-55.5" font-family="Helvetica,sans-Serif" font-size="10.00">CodeSmile.MultiPal.Input.</text>
<text text-anchor="middle" x="271.5" y="-43.5" font-family="Helvetica,sans-Serif" font-size="10.00">GeneratedInput.PairingActions.Get</text>
</a>
</g>
</g>
<!-- Node2 -->
<g id="Node000002" class="node">
<title>Node2</title>
<g id="a_Node000002"><a xlink:href="struct_code_smile_1_1_multi_pal_1_1_input_1_1_generated_input_1_1_pairing_actions.html#a680644660f2099ab96f8a1aa81b79464" target="_top" xlink:title=" ">
<polygon fill="white" stroke="#666666" points="151.75,-106 0,-106 0,-62 151.75,-62 151.75,-106"/>
<text text-anchor="start" x="8" y="-92.5" font-family="Helvetica,sans-Serif" font-size="10.00">CodeSmile.MultiPal.Input.</text>
<text text-anchor="start" x="8" y="-80.5" font-family="Helvetica,sans-Serif" font-size="10.00">GeneratedInput.PairingActions.</text>
<text text-anchor="middle" x="75.88" y="-68.5" font-family="Helvetica,sans-Serif" font-size="10.00">Disable</text>
</a>
</g>
</g>
<!-- Node1&#45;&gt;Node2 -->
<g id="edge1_Node000001_Node000002" class="edge">
<title>Node1&#45;&gt;Node2</title>
<g id="a_edge1_Node000001_Node000002"><a xlink:title=" ">
<path fill="none" stroke="#63b8ff" d="M175.97,-68.13C167.96,-69.42 159.93,-70.7 152.1,-71.96"/>
<polygon fill="#63b8ff" stroke="#63b8ff" points="176.45,-71.6 185.77,-66.57 175.34,-64.69 176.45,-71.6"/>
</a>
</g>
</g>
<!-- Node3 -->
<g id="Node000003" class="node">
<title>Node3</title>
<g id="a_Node000003"><a xlink:href="struct_code_smile_1_1_multi_pal_1_1_input_1_1_generated_input_1_1_pairing_actions.html#a44c50ccf2bce104506329ea46f38d61d" target="_top" xlink:title=" ">
<polygon fill="white" stroke="#666666" points="151.75,-44 0,-44 0,0 151.75,0 151.75,-44"/>
<text text-anchor="start" x="8" y="-30.5" font-family="Helvetica,sans-Serif" font-size="10.00">CodeSmile.MultiPal.Input.</text>
<text text-anchor="start" x="8" y="-18.5" font-family="Helvetica,sans-Serif" font-size="10.00">GeneratedInput.PairingActions.</text>
<text text-anchor="middle" x="75.88" y="-6.5" font-family="Helvetica,sans-Serif" font-size="10.00">Enable</text>
</a>
</g>
</g>
<!-- Node1&#45;&gt;Node3 -->
<g id="edge2_Node000001_Node000003" class="edge">
<title>Node1&#45;&gt;Node3</title>
<g id="a_edge2_Node000001_Node000003"><a xlink:title=" ">
<path fill="none" stroke="#63b8ff" d="M175.97,-37.87C167.96,-36.58 159.93,-35.3 152.1,-34.04"/>
<polygon fill="#63b8ff" stroke="#63b8ff" points="175.34,-41.31 185.77,-39.43 176.45,-34.4 175.34,-41.31"/>
</a>
</g>
</g>
</g>
</svg>
