<?xml version="1.0" encoding="UTF-8" standalone="no"?>
<!DOCTYPE svg PUBLIC "-//W3C//DTD SVG 1.1//EN"
 "http://www.w3.org/Graphics/SVG/1.1/DTD/svg11.dtd">
<!-- Generated by graphviz version 12.1.2 (20240928.0832)
 -->
<!-- Title: CodeSmile.MultiPal.Input.GeneratedInput.PlayerUIActions.AddCallbacks Pages: 1 -->
<svg width="393pt" height="288pt"
 viewBox="0.00 0.00 392.50 288.00" xmlns="http://www.w3.org/2000/svg" xmlns:xlink="http://www.w3.org/1999/xlink">
<g id="graph0" class="graph" transform="scale(1 1) rotate(0) translate(4 284)">
<title>CodeSmile.MultiPal.Input.GeneratedInput.PlayerUIActions.AddCallbacks</title>
<!-- Node1 -->
<g id="Node000001" class="node">
<title>Node1</title>
<g id="a_Node000001"><a xlink:title=" ">
<polygon fill="#999999" stroke="#666666" points="160,-156 0,-156 0,-112 160,-112 160,-156"/>
<text text-anchor="start" x="8" y="-142.5" font-family="Helvetica,sans-Serif" font-size="10.00">CodeSmile.MultiPal.Input.</text>
<text text-anchor="start" x="8" y="-130.5" font-family="Helvetica,sans-Serif" font-size="10.00">GeneratedInput.PlayerUIActions.</text>
<text text-anchor="middle" x="80" y="-118.5" font-family="Helvetica,sans-Serif" font-size="10.00">AddCallbacks</text>
</a>
</g>
</g>
<!-- Node2 -->
<g id="Node000002" class="node">
<title>Node2</title>
<g id="a_Node000002"><a xlink:href="interface_code_smile_1_1_multi_pal_1_1_input_1_1_generated_input_1_1_i_player_u_i_actions.html#a64f8dfb73938e746900acbf41ae558fc" target="_top" xlink:title=" ">
<polygon fill="white" stroke="#666666" points="371.75,-280 208.75,-280 208.75,-236 371.75,-236 371.75,-280"/>
<text text-anchor="start" x="216.75" y="-266.5" font-family="Helvetica,sans-Serif" font-size="10.00">CodeSmile.MultiPal.Input.</text>
<text text-anchor="start" x="216.75" y="-254.5" font-family="Helvetica,sans-Serif" font-size="10.00">GeneratedInput.IPlayerUIActions.</text>
<text text-anchor="middle" x="290.25" y="-242.5" font-family="Helvetica,sans-Serif" font-size="10.00">OnDown</text>
</a>
</g>
</g>
<!-- Node1&#45;&gt;Node2 -->
<g id="edge1_Node000001_Node000002" class="edge">
<title>Node1&#45;&gt;Node2</title>
<g id="a_edge1_Node000001_Node000002"><a xlink:title=" ">
<path fill="none" stroke="#63b8ff" d="M103.43,-156.29C125.39,-177.06 160.63,-207.66 196,-227 198.49,-228.36 201.05,-229.68 203.66,-230.95"/>
<polygon fill="#63b8ff" stroke="#63b8ff" points="202,-234.04 212.55,-234.99 204.89,-227.66 202,-234.04"/>
</a>
</g>
</g>
<!-- Node3 -->
<g id="Node000003" class="node">
<title>Node3</title>
<g id="a_Node000003"><a xlink:href="interface_code_smile_1_1_multi_pal_1_1_input_1_1_generated_input_1_1_i_player_u_i_actions.html#a12798e42e1a57bda9302b0f0f5696a13" target="_top" xlink:title=" ">
<polygon fill="white" stroke="#666666" points="371.75,-218 208.75,-218 208.75,-174 371.75,-174 371.75,-218"/>
<text text-anchor="start" x="216.75" y="-204.5" font-family="Helvetica,sans-Serif" font-size="10.00">CodeSmile.MultiPal.Input.</text>
<text text-anchor="start" x="216.75" y="-192.5" font-family="Helvetica,sans-Serif" font-size="10.00">GeneratedInput.IPlayerUIActions.</text>
<text text-anchor="middle" x="290.25" y="-180.5" font-family="Helvetica,sans-Serif" font-size="10.00">OnNext</text>
</a>
</g>
</g>
<!-- Node1&#45;&gt;Node3 -->
<g id="edge2_Node000001_Node000003" class="edge">
<title>Node1&#45;&gt;Node3</title>
<g id="a_edge2_Node000001_Node000003"><a xlink:title=" ">
<path fill="none" stroke="#63b8ff" d="M156.48,-156.47C171.61,-160.98 187.62,-165.74 203.08,-170.35"/>
<polygon fill="#63b8ff" stroke="#63b8ff" points="201.65,-173.57 212.23,-173.07 203.64,-166.86 201.65,-173.57"/>
</a>
</g>
</g>
<!-- Node4 -->
<g id="Node000004" class="node">
<title>Node4</title>
<g id="a_Node000004"><a xlink:href="interface_code_smile_1_1_multi_pal_1_1_input_1_1_generated_input_1_1_i_player_u_i_actions.html#a6cc8769453766a62b52e4f6c928013fc" target="_top" xlink:title=" ">
<polygon fill="white" stroke="#666666" points="371.75,-156 208.75,-156 208.75,-112 371.75,-112 371.75,-156"/>
<text text-anchor="start" x="216.75" y="-142.5" font-family="Helvetica,sans-Serif" font-size="10.00">CodeSmile.MultiPal.Input.</text>
<text text-anchor="start" x="216.75" y="-130.5" font-family="Helvetica,sans-Serif" font-size="10.00">GeneratedInput.IPlayerUIActions.</text>
<text text-anchor="middle" x="290.25" y="-118.5" font-family="Helvetica,sans-Serif" font-size="10.00">OnPrevious</text>
</a>
</g>
</g>
<!-- Node1&#45;&gt;Node4 -->
<g id="edge3_Node000001_Node000004" class="edge">
<title>Node1&#45;&gt;Node4</title>
<g id="a_edge3_Node000001_Node000004"><a xlink:title=" ">
<path fill="none" stroke="#63b8ff" d="M160.32,-134C172.38,-134 184.91,-134 197.21,-134"/>
<polygon fill="#63b8ff" stroke="#63b8ff" points="196.91,-137.5 206.91,-134 196.91,-130.5 196.91,-137.5"/>
</a>
</g>
</g>
<!-- Node5 -->
<g id="Node000005" class="node">
<title>Node5</title>
<g id="a_Node000005"><a xlink:href="interface_code_smile_1_1_multi_pal_1_1_input_1_1_generated_input_1_1_i_player_u_i_actions.html#a577f6c779ac0e0735480b63bbd8332e4" target="_top" xlink:title=" ">
<polygon fill="white" stroke="#666666" points="371.75,-94 208.75,-94 208.75,-50 371.75,-50 371.75,-94"/>
<text text-anchor="start" x="216.75" y="-80.5" font-family="Helvetica,sans-Serif" font-size="10.00">CodeSmile.MultiPal.Input.</text>
<text text-anchor="start" x="216.75" y="-68.5" font-family="Helvetica,sans-Serif" font-size="10.00">GeneratedInput.IPlayerUIActions.</text>
<text text-anchor="middle" x="290.25" y="-56.5" font-family="Helvetica,sans-Serif" font-size="10.00">OnRequestMenu</text>
</a>
</g>
</g>
<!-- Node1&#45;&gt;Node5 -->
<g id="edge4_Node000001_Node000005" class="edge">
<title>Node1&#45;&gt;Node5</title>
<g id="a_edge4_Node000001_Node000005"><a xlink:title=" ">
<path fill="none" stroke="#63b8ff" d="M156.48,-111.53C171.61,-107.02 187.62,-102.26 203.08,-97.65"/>
<polygon fill="#63b8ff" stroke="#63b8ff" points="203.64,-101.14 212.23,-94.93 201.65,-94.43 203.64,-101.14"/>
</a>
</g>
</g>
<!-- Node6 -->
<g id="Node000006" class="node">
<title>Node6</title>
<g id="a_Node000006"><a xlink:href="interface_code_smile_1_1_multi_pal_1_1_input_1_1_generated_input_1_1_i_player_u_i_actions.html#a5a49f3395be2e03529c07bd616b5b0a4" target="_top" xlink:title=" ">
<polygon fill="white" stroke="#666666" points="384.5,-32 196,-32 196,0 384.5,0 384.5,-32"/>
<text text-anchor="start" x="204" y="-18.5" font-family="Helvetica,sans-Serif" font-size="10.00">CodeSmile.MultiPal.Input.</text>
<text text-anchor="middle" x="290.25" y="-6.5" font-family="Helvetica,sans-Serif" font-size="10.00">GeneratedInput.IPlayerUIActions.OnUp</text>
</a>
</g>
</g>
<!-- Node1&#45;&gt;Node6 -->
<g id="edge5_Node000001_Node000006" class="edge">
<title>Node1&#45;&gt;Node6</title>
<g id="a_edge5_Node000001_Node000006"><a xlink:title=" ">
<path fill="none" stroke="#63b8ff" d="M102.76,-111.64C124.51,-90.52 159.85,-59.41 196,-41 199.11,-39.42 202.33,-37.92 205.63,-36.52"/>
<polygon fill="#63b8ff" stroke="#63b8ff" points="206.9,-39.78 214.94,-32.88 204.35,-33.26 206.9,-39.78"/>
</a>
</g>
</g>
</g>
</svg>
