<?xml version="1.0" encoding="UTF-8" standalone="no"?>
<!DOCTYPE svg PUBLIC "-//W3C//DTD SVG 1.1//EN"
 "http://www.w3.org/Graphics/SVG/1.1/DTD/svg11.dtd">
<!-- Generated by graphviz version 12.1.2 (20240928.0832)
 -->
<!-- Title: PA1A.EventBus.Events.PlayerEvent Pages: 1 -->
<svg width="153pt" height="176pt"
 viewBox="0.00 0.00 153.00 176.00" xmlns="http://www.w3.org/2000/svg" xmlns:xlink="http://www.w3.org/1999/xlink">

<svg id="main" version="1.1" xmlns="http://www.w3.org/2000/svg" xmlns:xlink="http://www.w3.org/1999/xlink" xml:space="preserve">

<style type="text/css"><![CDATA[
.node, .edge {opacity: 0.7;}
.node.selected, .edge.selected {opacity: 1;}
.edge:hover path { stroke: red; }
.edge:hover polygon { stroke: red; fill: red; }
]]></style>
<script type="application/ecmascript" xlink:href="svg.min.js"/>
<svg id="graph" class="graph">
<g id="graph0" class="graph" transform="scale(1 1) rotate(0) translate(4 172)">
<title>PA1A.EventBus.Events.PlayerEvent</title>
<!-- Node1 -->
<g id="Node000001" class="node">
<title>Node1</title>
<g id="a_Node000001"><a xlink:title=" ">
<polygon fill="#999999" stroke="none" points="145,-80 0,-80 0,0 145,0 145,-80"/>
<text text-anchor="start" x="5" y="-66.5" font-family="Helvetica,sans-Serif" font-size="10.00">PA1A.EventBus.Events.Player</text>
<text text-anchor="start" x="59.75" y="-54.5" font-family="Helvetica,sans-Serif" font-size="10.00">Event</text>
<text text-anchor="start" x="27.5" y="-38.5" font-family="Helvetica,sans-Serif" font-size="10.00">+</text>
<text text-anchor="start" x="61" y="-38.5" font-family="Helvetica,sans-Serif" font-size="10.00">health</text>
<text text-anchor="start" x="27.5" y="-22.5" font-family="Helvetica,sans-Serif" font-size="10.00">+</text>
<text text-anchor="start" x="61" y="-22.5" font-family="Helvetica,sans-Serif" font-size="10.00">position</text>
<text text-anchor="start" x="71" y="-6.5" font-family="Helvetica,sans-Serif" font-size="10.00"> </text>
<polygon fill="#666666" stroke="#666666" points="0,-50 0,-50 145,-50 145,-50 0,-50"/>
<polygon fill="#666666" stroke="#666666" points="0,-18 0,-18 59,-18 59,-18 0,-18"/>
<polygon fill="#666666" stroke="#666666" points="59,-18 59,-18 145,-18 145,-18 59,-18"/>
<polygon fill="none" stroke="#666666" points="0,0 0,-80 145,-80 145,0 0,0"/>
</a>
</g>
</g>
<!-- Node2 -->
<g id="Node000002" class="node">
<title>Node2</title>
<g id="a_Node000002"><a xlink:href="interface_p_a1_a_1_1_event_bus_1_1_events_1_1_i_event.html" target="_top" xlink:title=" ">
<polygon fill="white" stroke="none" points="91.5,-168 53.5,-168 53.5,-116 91.5,-116 91.5,-168"/>
<text text-anchor="start" x="58.25" y="-154.5" font-family="Helvetica,sans-Serif" font-size="10.00">IEvent</text>
<text text-anchor="start" x="71" y="-138.5" font-family="Helvetica,sans-Serif" font-size="10.00"> </text>
<text text-anchor="start" x="71" y="-122.5" font-family="Helvetica,sans-Serif" font-size="10.00"> </text>
<polygon fill="#666666" stroke="#666666" points="53.5,-150 53.5,-150 91.5,-150 91.5,-150 53.5,-150"/>
<polygon fill="#666666" stroke="#666666" points="53.5,-134 53.5,-134 91.5,-134 91.5,-134 53.5,-134"/>
<polygon fill="none" stroke="#666666" points="53.5,-116 53.5,-168 91.5,-168 91.5,-116 53.5,-116"/>
</a>
</g>
</g>
<!-- Node2&#45;&gt;Node1 -->
<g id="edge1_Node000001_Node000002" class="edge">
<title>Node2&#45;&gt;Node1</title>
<g id="a_edge1_Node000001_Node000002"><a xlink:title=" ">
<path fill="none" stroke="#63b8ff" d="M72.5,-104.61C72.5,-96.5 72.5,-87.86 72.5,-79.65"/>
<polygon fill="none" stroke="#63b8ff" points="69,-104.51 72.5,-114.51 76,-104.51 69,-104.51"/>
</a>
</g>
</g>
</g>
</svg>
</svg>

<style type='text/css'>
<![CDATA[
[data-mouse-over-selected='false'] { opacity: 0.7; }
[data-mouse-over-selected='true']  { opacity: 1.0; }
]]>
</style>
<script type="application/ecmascript"><![CDATA[
document.addEventListener('DOMContentLoaded', (event) => {
  highlightEdges();
  highlightAdjacentNodes();
});
]]></script>
</svg>
