<?xml version="1.0" encoding="UTF-8" standalone="no"?>
<!DOCTYPE svg PUBLIC "-//W3C//DTD SVG 1.1//EN"
 "http://www.w3.org/Graphics/SVG/1.1/DTD/svg11.dtd">
<!-- Generated by graphviz version 12.1.2 (20240928.0832)
 -->
<!-- Title: CodeSmile.MultiPal.Input.GeneratedInput.PlayerKinematicsActions.AddCallbacks Pages: 1 -->
<svg width="372pt" height="300pt"
 viewBox="0.00 0.00 371.50 300.00" xmlns="http://www.w3.org/2000/svg" xmlns:xlink="http://www.w3.org/1999/xlink">
<g id="graph0" class="graph" transform="scale(1 1) rotate(0) translate(4 296)">
<title>CodeSmile.MultiPal.Input.GeneratedInput.PlayerKinematicsActions.AddCallbacks</title>
<!-- Node1 -->
<g id="Node000001" class="node">
<title>Node1</title>
<g id="a_Node000001"><a xlink:title=" ">
<polygon fill="#999999" stroke="#666666" points="162.25,-168 0,-168 0,-124 162.25,-124 162.25,-168"/>
<text text-anchor="start" x="8" y="-154.5" font-family="Helvetica,sans-Serif" font-size="10.00">CodeSmile.MultiPal.Input.</text>
<text text-anchor="start" x="8" y="-142.5" font-family="Helvetica,sans-Serif" font-size="10.00">GeneratedInput.PlayerKinematics</text>
<text text-anchor="middle" x="81.12" y="-130.5" font-family="Helvetica,sans-Serif" font-size="10.00">Actions.AddCallbacks</text>
</a>
</g>
</g>
<!-- Node2 -->
<g id="Node000002" class="node">
<title>Node2</title>
<g id="a_Node000002"><a xlink:href="interface_code_smile_1_1_multi_pal_1_1_input_1_1_generated_input_1_1_i_player_kinematics_actions.html#ad57e88c0b4571ced60e549ad988eefad" target="_top" xlink:title=" ">
<polygon fill="white" stroke="#666666" points="363.5,-292 198.25,-292 198.25,-248 363.5,-248 363.5,-292"/>
<text text-anchor="start" x="206.25" y="-278.5" font-family="Helvetica,sans-Serif" font-size="10.00">CodeSmile.MultiPal.Input.</text>
<text text-anchor="start" x="206.25" y="-266.5" font-family="Helvetica,sans-Serif" font-size="10.00">GeneratedInput.IPlayerKinematics</text>
<text text-anchor="middle" x="280.88" y="-254.5" font-family="Helvetica,sans-Serif" font-size="10.00">Actions.OnCrouch</text>
</a>
</g>
</g>
<!-- Node1&#45;&gt;Node2 -->
<g id="edge1_Node000001_Node000002" class="edge">
<title>Node1&#45;&gt;Node2</title>
<g id="a_edge1_Node000001_Node000002"><a xlink:title=" ">
<path fill="none" stroke="#63b8ff" d="M105.42,-168.33C127.8,-188.85 163.27,-219.01 198.25,-239 200.44,-240.25 202.69,-241.47 204.99,-242.66"/>
<polygon fill="#63b8ff" stroke="#63b8ff" points="203.39,-245.78 213.92,-246.99 206.45,-239.48 203.39,-245.78"/>
</a>
</g>
</g>
<!-- Node3 -->
<g id="Node000003" class="node">
<title>Node3</title>
<g id="a_Node000003"><a xlink:href="interface_code_smile_1_1_multi_pal_1_1_input_1_1_generated_input_1_1_i_player_kinematics_actions.html#ae2e6ad4e2908ef910f4d82f82dbe585d" target="_top" xlink:title=" ">
<polygon fill="white" stroke="#666666" points="363.5,-230 198.25,-230 198.25,-186 363.5,-186 363.5,-230"/>
<text text-anchor="start" x="206.25" y="-216.5" font-family="Helvetica,sans-Serif" font-size="10.00">CodeSmile.MultiPal.Input.</text>
<text text-anchor="start" x="206.25" y="-204.5" font-family="Helvetica,sans-Serif" font-size="10.00">GeneratedInput.IPlayerKinematics</text>
<text text-anchor="middle" x="280.88" y="-192.5" font-family="Helvetica,sans-Serif" font-size="10.00">Actions.OnJump</text>
</a>
</g>
</g>
<!-- Node1&#45;&gt;Node3 -->
<g id="edge2_Node000001_Node000003" class="edge">
<title>Node1&#45;&gt;Node3</title>
<g id="a_edge2_Node000001_Node000003"><a xlink:title=" ">
<path fill="none" stroke="#63b8ff" d="M153.8,-168.47C167.89,-172.89 182.78,-177.56 197.2,-182.08"/>
<polygon fill="#63b8ff" stroke="#63b8ff" points="196.08,-185.4 206.67,-185.05 198.18,-178.72 196.08,-185.4"/>
</a>
</g>
</g>
<!-- Node4 -->
<g id="Node000004" class="node">
<title>Node4</title>
<g id="a_Node000004"><a xlink:href="interface_code_smile_1_1_multi_pal_1_1_input_1_1_generated_input_1_1_i_player_kinematics_actions.html#a4945df2915a9322987dfa1daadfa1343" target="_top" xlink:title=" ">
<polygon fill="white" stroke="#666666" points="363.5,-168 198.25,-168 198.25,-124 363.5,-124 363.5,-168"/>
<text text-anchor="start" x="206.25" y="-154.5" font-family="Helvetica,sans-Serif" font-size="10.00">CodeSmile.MultiPal.Input.</text>
<text text-anchor="start" x="206.25" y="-142.5" font-family="Helvetica,sans-Serif" font-size="10.00">GeneratedInput.IPlayerKinematics</text>
<text text-anchor="middle" x="280.88" y="-130.5" font-family="Helvetica,sans-Serif" font-size="10.00">Actions.OnLook</text>
</a>
</g>
</g>
<!-- Node1&#45;&gt;Node4 -->
<g id="edge3_Node000001_Node000004" class="edge">
<title>Node1&#45;&gt;Node4</title>
<g id="a_edge3_Node000001_Node000004"><a xlink:title=" ">
<path fill="none" stroke="#63b8ff" d="M162.56,-146C170.48,-146 178.57,-146 186.6,-146"/>
<polygon fill="#63b8ff" stroke="#63b8ff" points="186.39,-149.5 196.39,-146 186.39,-142.5 186.39,-149.5"/>
</a>
</g>
</g>
<!-- Node5 -->
<g id="Node000005" class="node">
<title>Node5</title>
<g id="a_Node000005"><a xlink:href="interface_code_smile_1_1_multi_pal_1_1_input_1_1_generated_input_1_1_i_player_kinematics_actions.html#a28d1ac31e43a00e8747f137496a9c5f2" target="_top" xlink:title=" ">
<polygon fill="white" stroke="#666666" points="363.5,-106 198.25,-106 198.25,-62 363.5,-62 363.5,-106"/>
<text text-anchor="start" x="206.25" y="-92.5" font-family="Helvetica,sans-Serif" font-size="10.00">CodeSmile.MultiPal.Input.</text>
<text text-anchor="start" x="206.25" y="-80.5" font-family="Helvetica,sans-Serif" font-size="10.00">GeneratedInput.IPlayerKinematics</text>
<text text-anchor="middle" x="280.88" y="-68.5" font-family="Helvetica,sans-Serif" font-size="10.00">Actions.OnMove</text>
</a>
</g>
</g>
<!-- Node1&#45;&gt;Node5 -->
<g id="edge4_Node000001_Node000005" class="edge">
<title>Node1&#45;&gt;Node5</title>
<g id="a_edge4_Node000001_Node000005"><a xlink:title=" ">
<path fill="none" stroke="#63b8ff" d="M153.8,-123.53C167.89,-119.11 182.78,-114.44 197.2,-109.92"/>
<polygon fill="#63b8ff" stroke="#63b8ff" points="198.18,-113.28 206.67,-106.95 196.08,-106.6 198.18,-113.28"/>
</a>
</g>
</g>
<!-- Node6 -->
<g id="Node000006" class="node">
<title>Node6</title>
<g id="a_Node000006"><a xlink:href="interface_code_smile_1_1_multi_pal_1_1_input_1_1_generated_input_1_1_i_player_kinematics_actions.html#a1967bb3f318d22453f8a28dde9a3d68c" target="_top" xlink:title=" ">
<polygon fill="white" stroke="#666666" points="363.5,-44 198.25,-44 198.25,0 363.5,0 363.5,-44"/>
<text text-anchor="start" x="206.25" y="-30.5" font-family="Helvetica,sans-Serif" font-size="10.00">CodeSmile.MultiPal.Input.</text>
<text text-anchor="start" x="206.25" y="-18.5" font-family="Helvetica,sans-Serif" font-size="10.00">GeneratedInput.IPlayerKinematics</text>
<text text-anchor="middle" x="280.88" y="-6.5" font-family="Helvetica,sans-Serif" font-size="10.00">Actions.OnSprint</text>
</a>
</g>
</g>
<!-- Node1&#45;&gt;Node6 -->
<g id="edge5_Node000001_Node000006" class="edge">
<title>Node1&#45;&gt;Node6</title>
<g id="a_edge5_Node000001_Node000006"><a xlink:title=" ">
<path fill="none" stroke="#63b8ff" d="M105.42,-123.67C127.8,-103.15 163.27,-72.99 198.25,-53 200.44,-51.75 202.69,-50.53 204.99,-49.34"/>
<polygon fill="#63b8ff" stroke="#63b8ff" points="206.45,-52.52 213.92,-45.01 203.39,-46.22 206.45,-52.52"/>
</a>
</g>
</g>
</g>
</svg>
