<?xml version="1.0" encoding="UTF-8" standalone="no"?>
<!DOCTYPE svg PUBLIC "-//W3C//DTD SVG 1.1//EN"
 "http://www.w3.org/Graphics/SVG/1.1/DTD/svg11.dtd">
<!-- Generated by graphviz version 12.1.2 (20240928.0832)
 -->
<!-- Title: CodeSmile.MultiPal.Input.GeneratedInput.PlayerUIActions.SetCallbacks Pages: 1 -->
<!--zoomable 288 -->

<svg id="main" version="1.1" xmlns="http://www.w3.org/2000/svg" xmlns:xlink="http://www.w3.org/1999/xlink" xml:space="preserve" onload="init(evt)">

<style type="text/css"><![CDATA[
.node, .edge {opacity: 0.7;}
.node.selected, .edge.selected {opacity: 1;}
.edge:hover path { stroke: red; }
.edge:hover polygon { stroke: red; fill: red; }
]]></style>

<defs>
  <circle id="rim" cx="0" cy="0" r="7"/>
  <circle id="rim2" cx="0" cy="0" r="3.5"/>
  <g id="zoomPlus">
    <use xlink:href="#rim" fill="#404040"><set attributeName="fill" to="#808080" begin="zoomplus.mouseover" end="zoomplus.mouseout"/></use>
    <path d="M-4,0h8M0,-4v8" fill="none" stroke="white" stroke-width="1.5" pointer-events="none"/>
  </g>
  <g id="zoomMin">
    <use xlink:href="#rim" fill="#404040"><set attributeName="fill" to="#808080" begin="zoomminus.mouseover" end="zoomminus.mouseout"/></use>
    <path d="M-4,0h8" fill="none" stroke="white" stroke-width="1.5" pointer-events="none"/>
  </g>
  <g id="arrowUp" transform="translate(30 24)">
    <use xlink:href="#rim"/>
    <path pointer-events="none" fill="none" stroke="white" stroke-width="1.5" d="M0,-3.0v7 M-2.5,-0.5L0,-3.0L2.5,-0.5"/>
  </g>
  <g id="arrowRight" transform="rotate(90) translate(36 -43)">
    <use xlink:href="#rim"/>
    <path pointer-events="none" fill="none" stroke="white" stroke-width="1.5" d="M0,-3.0v7 M-2.5,-0.5L0,-3.0L2.5,-0.5"/>
  </g>
  <g id="arrowDown" transform="rotate(180) translate(-30 -48)">
    <use xlink:href="#rim"/>
    <path pointer-events="none" fill="none" stroke="white" stroke-width="1.5" d="M0,-3.0v7 M-2.5,-0.5L0,-3.0L2.5,-0.5"/>
  </g>
  <g id="arrowLeft" transform="rotate(270) translate(-36 17)">
    <use xlink:href="#rim"/>
    <path pointer-events="none" fill="none" stroke="white" stroke-width="1.5" d="M0,-3.0v7 M-2.5,-0.5L0,-3.0L2.5,-0.5"/>
  </g>
  <g id="resetDef">
    <use xlink:href="#rim2" fill="#404040"><set attributeName="fill" to="#808080" begin="reset.mouseover" end="reset.mouseout"/></use>
  </g>
</defs>
<script type="application/ecmascript">
var viewWidth = 589;
var viewHeight = 288;
var sectionId = 'dynsection-5';
</script>
<script type="application/ecmascript" xlink:href="svg.min.js"/>
<svg id="graph" class="graph">
<g id="viewport">
<title>CodeSmile.MultiPal.Input.GeneratedInput.PlayerUIActions.SetCallbacks</title>
<!-- Node1 -->
<g id="Node000001" class="node">
<title>Node1</title>
<g id="a_Node000001"><a xlink:title=" ">
<polygon fill="#999999" stroke="#666666" points="160,-156 0,-156 0,-112 160,-112 160,-156"/>
<text text-anchor="start" x="8" y="-142.5" font-family="Helvetica,sans-Serif" font-size="10.00">CodeSmile.MultiPal.Input.</text>
<text text-anchor="start" x="8" y="-130.5" font-family="Helvetica,sans-Serif" font-size="10.00">GeneratedInput.PlayerUIActions.</text>
<text text-anchor="middle" x="80" y="-118.5" font-family="Helvetica,sans-Serif" font-size="10.00">SetCallbacks</text>
</a>
</g>
</g>
<!-- Node2 -->
<g id="Node000002" class="node">
<title>Node2</title>
<g id="a_Node000002"><a xlink:href="struct_code_smile_1_1_multi_pal_1_1_input_1_1_generated_input_1_1_player_u_i_actions.html#a439a4f17dd76d936f969b7491c16b467" target="_top" xlink:title=" ">
<polygon fill="white" stroke="#666666" points="356,-156 196,-156 196,-112 356,-112 356,-156"/>
<text text-anchor="start" x="204" y="-142.5" font-family="Helvetica,sans-Serif" font-size="10.00">CodeSmile.MultiPal.Input.</text>
<text text-anchor="start" x="204" y="-130.5" font-family="Helvetica,sans-Serif" font-size="10.00">GeneratedInput.PlayerUIActions.</text>
<text text-anchor="middle" x="276" y="-118.5" font-family="Helvetica,sans-Serif" font-size="10.00">AddCallbacks</text>
</a>
</g>
</g>
<!-- Node1&#45;&gt;Node2 -->
<g id="edge1_Node000001_Node000002" class="edge">
<title>Node1&#45;&gt;Node2</title>
<g id="a_edge1_Node000001_Node000002"><a xlink:title=" ">
<path fill="none" stroke="#63b8ff" d="M160.47,-134C168.36,-134 176.42,-134 184.41,-134"/>
<polygon fill="#63b8ff" stroke="#63b8ff" points="184.14,-137.5 194.14,-134 184.14,-130.5 184.14,-137.5"/>
</a>
</g>
</g>
<!-- Node3 -->
<g id="Node000003" class="node">
<title>Node3</title>
<g id="a_Node000003"><a xlink:href="interface_code_smile_1_1_multi_pal_1_1_input_1_1_generated_input_1_1_i_player_u_i_actions.html#a64f8dfb73938e746900acbf41ae558fc" target="_top" xlink:title=" ">
<polygon fill="white" stroke="#666666" points="567.75,-280 404.75,-280 404.75,-236 567.75,-236 567.75,-280"/>
<text text-anchor="start" x="412.75" y="-266.5" font-family="Helvetica,sans-Serif" font-size="10.00">CodeSmile.MultiPal.Input.</text>
<text text-anchor="start" x="412.75" y="-254.5" font-family="Helvetica,sans-Serif" font-size="10.00">GeneratedInput.IPlayerUIActions.</text>
<text text-anchor="middle" x="486.25" y="-242.5" font-family="Helvetica,sans-Serif" font-size="10.00">OnDown</text>
</a>
</g>
</g>
<!-- Node2&#45;&gt;Node3 -->
<g id="edge2_Node000002_Node000003" class="edge">
<title>Node2&#45;&gt;Node3</title>
<g id="a_edge2_Node000002_Node000003"><a xlink:title=" ">
<path fill="none" stroke="#63b8ff" d="M299.43,-156.29C321.39,-177.06 356.63,-207.66 392,-227 394.49,-228.36 397.05,-229.68 399.66,-230.95"/>
<polygon fill="#63b8ff" stroke="#63b8ff" points="398,-234.04 408.55,-234.99 400.89,-227.66 398,-234.04"/>
</a>
</g>
</g>
<!-- Node4 -->
<g id="Node000004" class="node">
<title>Node4</title>
<g id="a_Node000004"><a xlink:href="interface_code_smile_1_1_multi_pal_1_1_input_1_1_generated_input_1_1_i_player_u_i_actions.html#a12798e42e1a57bda9302b0f0f5696a13" target="_top" xlink:title=" ">
<polygon fill="white" stroke="#666666" points="567.75,-218 404.75,-218 404.75,-174 567.75,-174 567.75,-218"/>
<text text-anchor="start" x="412.75" y="-204.5" font-family="Helvetica,sans-Serif" font-size="10.00">CodeSmile.MultiPal.Input.</text>
<text text-anchor="start" x="412.75" y="-192.5" font-family="Helvetica,sans-Serif" font-size="10.00">GeneratedInput.IPlayerUIActions.</text>
<text text-anchor="middle" x="486.25" y="-180.5" font-family="Helvetica,sans-Serif" font-size="10.00">OnNext</text>
</a>
</g>
</g>
<!-- Node2&#45;&gt;Node4 -->
<g id="edge3_Node000002_Node000004" class="edge">
<title>Node2&#45;&gt;Node4</title>
<g id="a_edge3_Node000002_Node000004"><a xlink:title=" ">
<path fill="none" stroke="#63b8ff" d="M352.48,-156.47C367.61,-160.98 383.62,-165.74 399.08,-170.35"/>
<polygon fill="#63b8ff" stroke="#63b8ff" points="397.65,-173.57 408.23,-173.07 399.64,-166.86 397.65,-173.57"/>
</a>
</g>
</g>
<!-- Node5 -->
<g id="Node000005" class="node">
<title>Node5</title>
<g id="a_Node000005"><a xlink:href="interface_code_smile_1_1_multi_pal_1_1_input_1_1_generated_input_1_1_i_player_u_i_actions.html#a6cc8769453766a62b52e4f6c928013fc" target="_top" xlink:title=" ">
<polygon fill="white" stroke="#666666" points="567.75,-156 404.75,-156 404.75,-112 567.75,-112 567.75,-156"/>
<text text-anchor="start" x="412.75" y="-142.5" font-family="Helvetica,sans-Serif" font-size="10.00">CodeSmile.MultiPal.Input.</text>
<text text-anchor="start" x="412.75" y="-130.5" font-family="Helvetica,sans-Serif" font-size="10.00">GeneratedInput.IPlayerUIActions.</text>
<text text-anchor="middle" x="486.25" y="-118.5" font-family="Helvetica,sans-Serif" font-size="10.00">OnPrevious</text>
</a>
</g>
</g>
<!-- Node2&#45;&gt;Node5 -->
<g id="edge4_Node000002_Node000005" class="edge">
<title>Node2&#45;&gt;Node5</title>
<g id="a_edge4_Node000002_Node000005"><a xlink:title=" ">
<path fill="none" stroke="#63b8ff" d="M356.32,-134C368.38,-134 380.91,-134 393.21,-134"/>
<polygon fill="#63b8ff" stroke="#63b8ff" points="392.91,-137.5 402.91,-134 392.91,-130.5 392.91,-137.5"/>
</a>
</g>
</g>
<!-- Node6 -->
<g id="Node000006" class="node">
<title>Node6</title>
<g id="a_Node000006"><a xlink:href="interface_code_smile_1_1_multi_pal_1_1_input_1_1_generated_input_1_1_i_player_u_i_actions.html#a577f6c779ac0e0735480b63bbd8332e4" target="_top" xlink:title=" ">
<polygon fill="white" stroke="#666666" points="567.75,-94 404.75,-94 404.75,-50 567.75,-50 567.75,-94"/>
<text text-anchor="start" x="412.75" y="-80.5" font-family="Helvetica,sans-Serif" font-size="10.00">CodeSmile.MultiPal.Input.</text>
<text text-anchor="start" x="412.75" y="-68.5" font-family="Helvetica,sans-Serif" font-size="10.00">GeneratedInput.IPlayerUIActions.</text>
<text text-anchor="middle" x="486.25" y="-56.5" font-family="Helvetica,sans-Serif" font-size="10.00">OnRequestMenu</text>
</a>
</g>
</g>
<!-- Node2&#45;&gt;Node6 -->
<g id="edge5_Node000002_Node000006" class="edge">
<title>Node2&#45;&gt;Node6</title>
<g id="a_edge5_Node000002_Node000006"><a xlink:title=" ">
<path fill="none" stroke="#63b8ff" d="M352.48,-111.53C367.61,-107.02 383.62,-102.26 399.08,-97.65"/>
<polygon fill="#63b8ff" stroke="#63b8ff" points="399.64,-101.14 408.23,-94.93 397.65,-94.43 399.64,-101.14"/>
</a>
</g>
</g>
<!-- Node7 -->
<g id="Node000007" class="node">
<title>Node7</title>
<g id="a_Node000007"><a xlink:href="interface_code_smile_1_1_multi_pal_1_1_input_1_1_generated_input_1_1_i_player_u_i_actions.html#a5a49f3395be2e03529c07bd616b5b0a4" target="_top" xlink:title=" ">
<polygon fill="white" stroke="#666666" points="580.5,-32 392,-32 392,0 580.5,0 580.5,-32"/>
<text text-anchor="start" x="400" y="-18.5" font-family="Helvetica,sans-Serif" font-size="10.00">CodeSmile.MultiPal.Input.</text>
<text text-anchor="middle" x="486.25" y="-6.5" font-family="Helvetica,sans-Serif" font-size="10.00">GeneratedInput.IPlayerUIActions.OnUp</text>
</a>
</g>
</g>
<!-- Node2&#45;&gt;Node7 -->
<g id="edge6_Node000002_Node000007" class="edge">
<title>Node2&#45;&gt;Node7</title>
<g id="a_edge6_Node000002_Node000007"><a xlink:title=" ">
<path fill="none" stroke="#63b8ff" d="M298.76,-111.64C320.51,-90.52 355.85,-59.41 392,-41 395.11,-39.42 398.33,-37.92 401.63,-36.52"/>
<polygon fill="#63b8ff" stroke="#63b8ff" points="402.9,-39.78 410.94,-32.88 400.35,-33.26 402.9,-39.78"/>
</a>
</g>
</g>
</g>
</svg>

<g id="navigator" transform="translate(0 0)" fill="#404254">
  <rect fill="#f2f5e9" fill-opacity="0.5" stroke="#606060" stroke-width=".5" x="0" y="0" width="60" height="60"/>
  <use id="zoomplus" xlink:href="#zoomPlus" x="17" y="9" onmousedown="handleZoom(evt,'in')"/>
  <use id="zoomminus" xlink:href="#zoomMin" x="42" y="9" onmousedown="handleZoom(evt,'out')"/>
  <use id="reset" xlink:href="#resetDef" x="30" y="36" onmousedown="handleReset()"/>
   <use id="arrowup" xlink:href="#arrowUp" x="0" y="0" onmousedown="handlePan(0,-1)"/>
  <use id="arrowright" xlink:href="#arrowRight" x="0" y="0" onmousedown="handlePan(1,0)"/>
  <use id="arrowdown" xlink:href="#arrowDown" x="0" y="0" onmousedown="handlePan(0,1)"/>
  <use id="arrowleft" xlink:href="#arrowLeft" x="0" y="0" onmousedown="handlePan(-1,0)"/>
</g>
<svg viewBox="0 0 15 15" width="100%" height="30px" preserveAspectRatio="xMaxYMin meet">
 <g id="arrow_out" transform="scale(0.3 0.3)">
  <a xlink:href="struct_code_smile_1_1_multi_pal_1_1_input_1_1_generated_input_1_1_player_u_i_actions_a5d7669216cf01c6800d7e6cadbdabae1_cgraph_org.svg" target="_base">
   <rect id="button" ry="5" rx="5" y="6" x="6" height="38" width="38"
        fill="#f2f5e9" fill-opacity="0.5" stroke="#606060" stroke-width="1.0"/>
   <path id="arrow"
     d="M 11.500037,31.436501 C 11.940474,20.09759 22.043105,11.32322 32.158766,21.979434 L 37.068811,17.246167 C 37.068811,17.246167 37.088388,32 37.088388,32 L 22.160133,31.978069 C 22.160133,31.978069 26.997745,27.140456 26.997745,27.140456 C 18.528582,18.264221 13.291696,25.230495 11.500037,31.436501 z"
     style="fill:#404040;"/>
  </a>
 </g>
</svg>

<style type='text/css'>
<![CDATA[
[data-mouse-over-selected='false'] { opacity: 0.7; }
[data-mouse-over-selected='true']  { opacity: 1.0; }
]]>
</style>
<script type="application/ecmascript"><![CDATA[
document.addEventListener('DOMContentLoaded', (event) => {
  highlightEdges();
  highlightAdjacentNodes();
});
]]></script>
</svg>
